<?xml version="1.0" encoding="utf-8"?>
<svg viewBox="0 0 36 36" xmlns="http://www.w3.org/2000/svg">
  <path d="M 18.137 3 L 17.863 33" style="fill: #2b6af3; stroke-linecap: round; stroke-width: 1.25px;"/>
  <path d="M 18.147 1.875 C 18.422 1.877 18.766 2.034 18.94 2.212 C 19.114 2.39 19.243 2.736 19.262 3.011 L 18.988 33.01 C 18.964 33.285 18.829 33.629 18.651 33.803 C 18.473 33.977 18.127 34.127 17.853 34.125 C 17.578 34.123 17.234 33.966 17.06 33.788 C 16.886 33.61 16.757 33.264 16.738 32.989 L 17.012 2.99 C 17.036 2.715 17.171 2.371 17.349 2.197 C 17.527 2.023 17.873 1.873 18.147 1.875 Z M 18.049 2.911 C 17.999 2.961 17.991 2.928 18.012 2.998 L 17.738 32.999 C 17.716 33.069 17.724 33.037 17.774 33.088 C 17.824 33.138 17.791 33.124 17.861 33.125 C 17.932 33.126 17.9 33.139 17.951 33.089 C 18.001 33.039 18.009 33.072 17.988 33.002 L 18.262 3.001 C 18.284 2.931 18.276 2.963 18.226 2.912 C 18.176 2.862 18.209 2.876 18.139 2.875 C 18.068 2.874 18.1 2.861 18.049 2.911 Z" style="fill: none;"/>
  <g transform="matrix(1, 0, 0, 1, -0.000001, 0)" style="">
    <path class="b69ba5af-6212-4880-9ef7-3f573e7c9900" d="M 5 31.62 L 17.449 31.62 L 17.454 30.38 L 5.62 30.38 L 5.62 5.62 L 17.546 5.62 L 17.551 4.38 L 5 4.38 C 4.655 4.374 4.374 4.655 4.38 5 L 4.38 31 C 4.374 31.345 4.655 31.626 5 31.62 Z" style="fill: #2b6af3;"/>
    <path d="M 3.88 31 L 3.88 5.009 C 3.898 4.731 4.028 4.382 4.205 4.205 C 4.382 4.028 4.723 3.898 5 3.88 L 18.053 3.88 L 18.044 6.12 L 6.12 6.12 L 6.12 29.88 L 17.956 29.88 L 17.947 32.12 L 17.449 32.12 L 5.009 32.12 C 4.731 32.102 4.382 31.972 4.205 31.795 C 4.028 31.618 3.898 31.277 3.88 31 Z M 4.912 31.088 C 4.96 31.137 4.924 31.144 4.991 31.12 L 16.951 31.12 L 16.952 30.88 L 5.12 30.88 L 5.12 5.12 L 17.048 5.12 L 17.049 4.88 L 5 4.88 C 4.932 4.856 4.96 4.863 4.912 4.912 C 4.863 4.96 4.856 4.924 4.88 4.991 L 4.88 31 C 4.856 31.068 4.863 31.04 4.912 31.088 Z" style="fill: none;"/>
    <path d="M 3.88 31 L 3.88 5.009 C 3.898 4.731 4.028 4.382 4.205 4.205 C 4.382 4.028 4.723 3.898 5 3.88 L 18.053 3.88 L 18.044 6.12 L 6.12 6.12 L 6.12 29.88 L 17.956 29.88 L 17.947 32.12 L 17.449 32.12 L 5.009 32.12 C 4.731 32.102 4.382 31.972 4.205 31.795 C 4.028 31.618 3.898 31.277 3.88 31 Z M 4.912 31.088 C 4.96 31.137 4.924 31.144 4.991 31.12 L 16.951 31.12 L 16.952 30.88 L 5.12 30.88 L 5.12 5.12 L 17.048 5.12 L 17.049 4.88 L 5 4.88 C 4.932 4.856 4.96 4.863 4.912 4.912 C 4.863 4.96 4.856 4.924 4.88 4.991 L 4.88 31 C 4.856 31.068 4.863 31.04 4.912 31.088 Z" style="fill: none;"/>
    <path d="M 3.88 31 L 3.88 5.009 C 3.898 4.731 4.028 4.382 4.205 4.205 C 4.382 4.028 4.723 3.898 5 3.88 L 18.053 3.88 L 18.044 6.12 L 6.12 6.12 L 6.12 29.88 L 17.956 29.88 L 17.947 32.12 L 17.449 32.12 L 5.009 32.12 C 4.731 32.102 4.382 31.972 4.205 31.795 C 4.028 31.618 3.898 31.277 3.88 31 Z M 4.912 31.088 C 4.96 31.137 4.924 31.144 4.991 31.12 L 16.951 31.12 L 16.952 30.88 L 5.12 30.88 L 5.12 5.12 L 17.048 5.12 L 17.049 4.88 L 5 4.88 C 4.932 4.856 4.96 4.863 4.912 4.912 C 4.863 4.96 4.856 4.924 4.88 4.991 L 4.88 31 C 4.856 31.068 4.863 31.04 4.912 31.088 Z" style="fill: none;"/>
    <path d="M 3.88 31 L 3.88 5.009 C 3.898 4.731 4.028 4.382 4.205 4.205 C 4.382 4.028 4.723 3.898 5 3.88 L 18.053 3.88 L 18.044 6.12 L 6.12 6.12 L 6.12 29.88 L 17.956 29.88 L 17.947 32.12 L 17.449 32.12 L 5.009 32.12 C 4.731 32.102 4.382 31.972 4.205 31.795 C 4.028 31.618 3.898 31.277 3.88 31 Z M 4.912 31.088 C 4.96 31.137 4.924 31.144 4.991 31.12 L 16.951 31.12 L 16.952 30.88 L 5.12 30.88 L 5.12 5.12 L 17.048 5.12 L 17.049 4.88 L 5 4.88 C 4.932 4.856 4.96 4.863 4.912 4.912 C 4.863 4.96 4.856 4.924 4.88 4.991 L 4.88 31 C 4.856 31.068 4.863 31.04 4.912 31.088 Z" style="fill: none;"/>
    <path d="M 3.88 31 L 3.88 5.009 C 3.898 4.731 4.028 4.382 4.205 4.205 C 4.382 4.028 4.723 3.898 5 3.88 L 18.053 3.88 L 18.044 6.12 L 6.12 6.12 L 6.12 29.88 L 17.956 29.88 L 17.947 32.12 L 17.449 32.12 L 5.009 32.12 C 4.731 32.102 4.382 31.972 4.205 31.795 C 4.028 31.618 3.898 31.277 3.88 31 Z M 4.912 31.088 C 4.96 31.137 4.924 31.144 4.991 31.12 L 16.951 31.12 L 16.952 30.88 L 5.12 30.88 L 5.12 5.12 L 17.048 5.12 L 17.049 4.88 L 5 4.88 C 4.932 4.856 4.96 4.863 4.912 4.912 C 4.863 4.96 4.856 4.924 4.88 4.991 L 4.88 31 C 4.856 31.068 4.863 31.04 4.912 31.088 Z" style="fill: none;"/>
    <path class="b69ba5af-6212-4880-9ef7-3f573e7c9900" d="M9,10.62h6a.62.62,0,0,0,0-1.24H9a.62.62,0,0,0,0,1.24Z" style="fill: #2b6af3;"/>
    <path class="b69ba5af-6212-4880-9ef7-3f573e7c9900" d="M9,26.62h6a.62.62,0,0,0,0-1.24H9a.62.62,0,1,0,0,1.24Z" style="fill: #2b6af3;"/>
    <path class="b69ba5af-6212-4880-9ef7-3f573e7c9900" d="M9,18.62h6a.62.62,0,0,0,0-1.24H9a.62.62,0,0,0,0,1.24Z" style="fill: #2b6af3;"/>
  </g>
  <g transform="matrix(1.007115, 0, 0, 1, -0.179438, 1.928531)" style="">
    <path class="ad4882bc-f55d-489d-9d15-96a197cfe744" d="M 28.62 15.57 C 29.684 15.831 30.636 16.427 31.335 17.271 C 33.846000000000004 20.298000000000002 32.138 24.909 28.26 25.57 C 28.177 25.602 28.089 25.619 28 25.62 L 18.483 25.62 L 18.494 24.37 L 27.53 24.37 C 28.72 24.35 29.834 23.783 30.551 22.833 C 32.347 20.456 30.896 17.027 27.94 16.66 C 27.608 16.623 27.362 16.334 27.38 16 C 27.38 15.86 27.38 15.63 27.38 15.5 C 27.385 13.796 26.836 12.137 25.817 10.772 C 24.019 8.362 21.262 7.367 18.647 7.656 L 18.658 6.478 C 23.729 6.005 28.618 9.94 28.62 15.57 Z" style="fill: #2b6af3;"/>
    <path d="M 10.5 26.19 C 9.001 26.179 7.502 25.722 6.304 24.932 C 5.107 24.143 4.085 22.95 3.494 21.573 C 2.36 18.926 2.893 16.015 4.396 14.006 C 5.898 11.997 8.324 10.81 11.052 10.975 C 11.892 9.316 13.077 8.174 14.687 7.243 C 17.847 5.418 21.551 5.65 24.307 7.24 C 27.064 8.831 28.937 11.709 29.109 15.193 C 30.245 15.486 30.97 16.048 31.72 16.951 C 33.064 18.572 33.299 20.764 32.662 22.482 C 32.026 24.199 30.43 25.652 28.378 26.056 C 28.261 26.09 28.133 26.114 28 26.12 L 11 26.12 L 11 26.194 Z M 10 25.176 L 10 25.12 L 28 25.12 C 28.045 25.123 28.04 25.123 28.08 25.103 L 28.116 25.086 L 28.176 25.077 C 29.985 24.811 31.165 23.644 31.724 22.134 C 32.284 20.624 32.117 18.997 30.95 17.59 C 30.301 16.807 29.492 16.286 28.501 16.056 L 28.115 15.966 L 28.12 15.57 C 28.161 12.198 26.372 9.586 23.808 8.106 C 21.243 6.627 18.107 6.422 15.188 8.109 C 13.702 8.968 12.544 10.183 11.787 11.723 L 11.63 12.044 L 11.281 11.996 C 8.702 11.647 6.566 12.774 5.196 14.605 C 3.827 16.436 3.388 18.787 4.413 21.178 C 4.945 22.419 5.772 23.384 6.855 24.097 C 7.802 24.722 8.849 25.099 10 25.176 Z M 18.529 7.166 C 21.271 6.843 24.323 7.934 26.218 10.473 C 27.284 11.901 27.872 13.717 27.88 15.5 C 27.88 15.63 27.879 15.887 27.879 16.027 C 27.855 16.094 27.865 16.065 27.91 16.118 C 27.955 16.171 27.931 16.176 28.002 16.164 C 29.612 16.406 30.937 17.496 31.488 18.798 C 32.039 20.101 31.932 21.836 30.95 23.135 C 30.167 24.172 28.829 24.822 27.53 24.87 L 10.53 24.87 C 8.128 24.828 6.05 23.491 5.005 21.68 C 3.959 19.869 3.804 17.38 5.005 15.3 C 6.118 13.372 8.304 12.144 10.53 12.11 L 11.858 12.09 C 13.161 9.245 15.812 7.487 18.529 7.166 Z M 10.121 13.118 C 8.321 13.221 6.79 14.208 5.871 15.8 C 4.808 17.64 4.936 19.561 5.871 21.18 C 6.805 22.799 8.405 23.912 10.53 23.87 L 27.53 23.87 C 28.611 23.877 29.501 23.394 30.153 22.532 C 30.967 21.454 31.032 20.286 30.567 19.188 C 30.103 18.089 29.227 17.283 27.883 17.157 C 27.622 17.107 27.304 16.95 27.147 16.765 C 26.991 16.58 26.887 16.239 26.881 15.973 C 26.881 15.833 26.88 15.63 26.88 15.5 C 26.897 13.875 26.388 12.373 25.416 11.071 C 23.688 8.754 21.168 7.862 18.646 8.159 C 16.124 8.457 13.843 9.895 12.739 12.568 C 12.629 12.769 12.417 13.011 12.227 13.11 C 12.038 13.209 11.732 13.248 11.504 13.223 C 11.168 13.156 10.839 13.122 10.496 13.12 Z" style="fill: none;"/>
    <path d="M 10.5 26.19 C 9.001 26.179 7.502 25.722 6.304 24.932 C 5.107 24.143 4.085 22.95 3.494 21.573 C 2.36 18.926 2.893 16.015 4.396 14.006 C 5.898 11.997 8.324 10.81 11.052 10.975 C 11.892 9.316 13.077 8.174 14.687 7.243 C 17.847 5.418 21.551 5.65 24.307 7.24 C 27.064 8.831 28.937 11.709 29.109 15.193 C 30.245 15.486 30.97 16.048 31.72 16.951 C 33.064 18.572 33.299 20.764 32.662 22.482 C 32.026 24.199 30.43 25.652 28.378 26.056 C 28.261 26.09 28.133 26.114 28 26.12 L 11 26.12 L 11 26.194 Z M 10 25.176 L 10 25.12 L 28 25.12 C 28.045 25.123 28.04 25.123 28.08 25.103 L 28.116 25.086 L 28.176 25.077 C 29.985 24.811 31.165 23.644 31.724 22.134 C 32.284 20.624 32.117 18.997 30.95 17.59 C 30.301 16.807 29.492 16.286 28.501 16.056 L 28.115 15.966 L 28.12 15.57 C 28.161 12.198 26.372 9.586 23.808 8.106 C 21.243 6.627 18.107 6.422 15.188 8.109 C 13.702 8.968 12.544 10.183 11.787 11.723 L 11.63 12.044 L 11.281 11.996 C 8.702 11.647 6.566 12.774 5.196 14.605 C 3.827 16.436 3.388 18.787 4.413 21.178 C 4.945 22.419 5.772 23.384 6.855 24.097 C 7.802 24.722 8.849 25.099 10 25.176 Z M 18.529 7.166 C 21.271 6.843 24.323 7.934 26.218 10.473 C 27.284 11.901 27.872 13.717 27.88 15.5 C 27.88 15.63 27.879 15.887 27.879 16.027 C 27.855 16.094 27.865 16.065 27.91 16.118 C 27.955 16.171 27.931 16.176 28.002 16.164 C 29.612 16.406 30.937 17.496 31.488 18.798 C 32.039 20.101 31.932 21.836 30.95 23.135 C 30.167 24.172 28.829 24.822 27.53 24.87 L 10.53 24.87 C 8.128 24.828 6.05 23.491 5.005 21.68 C 3.959 19.869 3.804 17.38 5.005 15.3 C 6.118 13.372 8.304 12.144 10.53 12.11 L 11.858 12.09 C 13.161 9.245 15.812 7.487 18.529 7.166 Z M 10.121 13.118 C 8.321 13.221 6.79 14.208 5.871 15.8 C 4.808 17.64 4.936 19.561 5.871 21.18 C 6.805 22.799 8.405 23.912 10.53 23.87 L 27.53 23.87 C 28.611 23.877 29.501 23.394 30.153 22.532 C 30.967 21.454 31.032 20.286 30.567 19.188 C 30.103 18.089 29.227 17.283 27.883 17.157 C 27.622 17.107 27.304 16.95 27.147 16.765 C 26.991 16.58 26.887 16.239 26.881 15.973 C 26.881 15.833 26.88 15.63 26.88 15.5 C 26.897 13.875 26.388 12.373 25.416 11.071 C 23.688 8.754 21.168 7.862 18.646 8.159 C 16.124 8.457 13.843 9.895 12.739 12.568 C 12.629 12.769 12.417 13.011 12.227 13.11 C 12.038 13.209 11.732 13.248 11.504 13.223 C 11.168 13.156 10.839 13.122 10.496 13.12 Z" style="fill: none;"/>
  </g>
  <path d="M 18.056 3 L 17.944 33" style="fill: #2b6af3;"/>
  <path d="M 18.942 33.504 L 16.942 33.496 L 17.058 2.496 L 19.058 2.504 Z M 18.054 3.5 L 17.946 32.5 L 17.946 32.5 L 18.054 3.5 Z" style="fill: none;"/>
  <path d="M 18.942 33.504 L 16.942 33.496 L 17.058 2.496 L 19.058 2.504 Z M 18.054 3.5 L 17.946 32.5 L 17.946 32.5 L 18.054 3.5 Z" style="fill: none;"/>
  <path d="M 18.942 33.504 L 16.942 33.496 L 17.058 2.496 L 19.058 2.504 Z M 18.054 3.5 L 17.946 32.5 L 17.946 32.5 L 18.054 3.5 Z" style="fill: none;"/>
  <path d="M 18.143 2.375 C 18.488 2.378 18.765 2.661 18.762 3.006 L 18.488 33.006 C 18.485 33.351 18.202 33.628 17.857 33.625 C 17.512 33.622 17.235 33.339 17.238 32.994 L 17.512 2.994 C 17.515 2.649 17.798 2.372 18.143 2.375 Z" style="fill: #2b6af3;"/>
</svg>