<svg id="acdd4841-05b8-4de9-8e40-1996b9836867" data-name="Icon" xmlns="http://www.w3.org/2000/svg" viewBox="0 0 36 36">
  <defs>
    <style>
      .a88a2884-6c80-48f8-9f1d-68b16ad96af1 {
        fill: #2b6af3;
      }
    </style>
  </defs>
  <path class="a88a2884-6c80-48f8-9f1d-68b16ad96af1" d="M31,6.38H5A.62.62,0,0,0,4.38,7V24a.62.62,0,0,0,.62.62H15.38v3.76H9a.62.62,0,1,0,0,1.24H27a.62.62,0,0,0,0-1.24H20.62V24.62H31a.62.62,0,0,0,.62-.62V7A.62.62,0,0,0,31,6.38Zm-11.62,22H16.62V24.62h2.76Zm11-5H5.62V7.62H30.38Z"/>
</svg>
