<?xml version="1.0" encoding="UTF-8" standalone="no"?>
<svg
   xmlns:dc="http://purl.org/dc/elements/1.1/"
   xmlns:cc="http://creativecommons.org/ns#"
   xmlns:rdf="http://www.w3.org/1999/02/22-rdf-syntax-ns#"
   xmlns:svg="http://www.w3.org/2000/svg"
   xmlns="http://www.w3.org/2000/svg"
   xmlns:xlink="http://www.w3.org/1999/xlink"
   xmlns:sodipodi="http://sodipodi.sourceforge.net/DTD/sodipodi-0.dtd"
   xmlns:inkscape="http://www.inkscape.org/namespaces/inkscape"
   version="1.1"
   viewBox="0 0 355.74973 362.27856"
   stroke-miterlimit="10"
   id="svg125"
   sodipodi:docname="opendatahub.io.svg"
   width="355.74973"
   height="362.27856"
   style="fill:none;stroke:none;stroke-linecap:square;stroke-miterlimit:10"
   inkscape:version="0.92.3 (2405546, 2018-03-11)">
  <metadata
     id="metadata131">
    <rdf:RDF>
      <cc:Work
         rdf:about="">
        <dc:format>image/svg+xml</dc:format>
        <dc:type
           rdf:resource="http://purl.org/dc/dcmitype/StillImage" />
        <dc:title></dc:title>
      </cc:Work>
    </rdf:RDF>
  </metadata>
  <defs
     id="defs129">
    <defs
       id="defs32">
      <filter
         filterUnits="userSpaceOnUse"
         id="shadowFilter-g3f355e561f_0_56.1">
        <feGaussianBlur
           id="feGaussianBlur19"
           result="blur"
           stdDeviation="8.0"
           in="SourceAlpha" />
        <feComponentTransfer
           id="feComponentTransfer29"
           in="blur"
           style="color-interpolation-filters:sRGB">
          <feFuncR
             id="feFuncR21"
             intercept="0.0"
             slope="0"
             type="linear" />
          <feFuncG
             id="feFuncG23"
             intercept="0.0"
             slope="0"
             type="linear" />
          <feFuncB
             id="feFuncB25"
             intercept="0.0"
             slope="0"
             type="linear" />
          <feFuncA
             id="feFuncA27"
             intercept="0"
             slope="0.549"
             type="linear" />
        </feComponentTransfer>
      </filter>
    </defs>
  </defs>
  <sodipodi:namedview
     pagecolor="#ffffff"
     bordercolor="#666666"
     borderopacity="1"
     objecttolerance="10"
     gridtolerance="10"
     guidetolerance="10"
     inkscape:pageopacity="0"
     inkscape:pageshadow="2"
     inkscape:window-width="1861"
     inkscape:window-height="1031"
     id="namedview127"
     showgrid="false"
     fit-margin-top="0"
     fit-margin-left="0"
     fit-margin-right="12"
     fit-margin-bottom="12"
     inkscape:zoom="1.3"
     inkscape:cx="532.94808"
     inkscape:cy="46.077226"
     inkscape:window-x="2315"
     inkscape:window-y="109"
     inkscape:window-maximized="0"
     inkscape:current-layer="svg125" />
  <clipPath
     id="g3f355e561f_0_56.0">
    <path
       d="M 0,0 H 960 V 540 H 0 Z"
       id="path2"
       inkscape:connector-curvature="0"
       style="clip-rule:nonzero" />
  </clipPath>
  <path
     style="fill:#d9d9d9;fill-rule:evenodd"
     inkscape:connector-curvature="0"
     id="path7"
     d="m 13.107987,68.110363 v 0 c 0,-30.38932 24.63541,-55.024729 55.02472,-55.024729 H 288.225 v 0 c 14.59344,0 28.58923,5.79724 38.90832,16.116369 10.31916,10.31914 16.1164,24.3149 16.1164,38.90836 V 294.75384 c 0,30.38931 -24.63538,55.02472 -55.02472,55.02472 H 68.132707 v 0 c -30.38931,0 -55.02472,-24.63541 -55.02472,-55.02472 z" />
  <path
     style="fill-rule:evenodd;stroke:#595959;stroke-width:1;stroke-linecap:butt;stroke-linejoin:round"
     inkscape:connector-curvature="0"
     id="path9"
     d="m 13.107987,68.110363 v 0 c 0,-30.38932 24.63541,-55.024729 55.02472,-55.024729 H 288.225 v 0 c 14.59344,0 28.58923,5.79724 38.90832,16.116369 10.31916,10.31914 16.1164,24.3149 16.1164,38.90836 V 294.75384 c 0,30.38931 -24.63538,55.02472 -55.02472,55.02472 H 68.132707 v 0 c -30.38931,0 -55.02472,-24.63541 -55.02472,-55.02472 z" />
  <path
     style="fill:#000000;fill-opacity:0;fill-rule:evenodd"
     inkscape:connector-curvature="0"
     id="path11"
     d="m 179.94228,302.84659 v 0 c -74.2323,0 -134.409453,-57.39215 -134.409453,-128.18896 v 0 c 0,-33.99783 14.16095,-66.60321 39.36762,-90.643297 25.206663,-24.0401 59.394223,-37.54568 95.041843,-37.54568 v 0 c 74.23229,0 134.40942,57.392147 134.40942,128.188977 v 0 c 0,70.79681 -60.17713,128.18896 -134.40942,128.18896 z" />
  <path
     style="fill-rule:evenodd;stroke:#1d7e74;stroke-width:2;stroke-linecap:butt;stroke-linejoin:round;stroke-dasharray:8, 6"
     inkscape:connector-curvature="0"
     id="path13"
     d="m 179.94228,302.84659 v 0 c -74.2323,0 -134.409453,-57.39215 -134.409453,-128.18896 v 0 c 0,-33.99783 14.16095,-66.60321 39.36762,-90.643297 25.206663,-24.0401 59.394223,-37.54568 95.041843,-37.54568 v 0 c 74.23229,0 134.40942,57.392147 134.40942,128.188977 v 0 c 0,70.79681 -60.17713,128.18896 -134.40942,128.18896 z" />
  <g
     style="filter:url(#shadowFilter-g3f355e561f_0_56.1)"
     id="g17"
     transform="translate(12.794232,12.201324)">
    <use
       height="100%"
       width="100%"
       y="0"
       x="0"
       id="use15"
       transform="translate(301.82115,93.90124)"
       xlink:href="#g3f355e561f_0_56.1" />
  </g>
  <g
     id="g3f355e561f_0_56.1"
     transform="translate(-301.82115,-88.56791)">
    <path
       style="fill:#1b786e;fill-rule:evenodd"
       inkscape:connector-curvature="0"
       id="path34"
       d="m 417.79938,258.7686 v 0 c 0,-33.69302 28.64087,-61.00662 63.97116,-61.00662 v 0 c 16.96619,0 33.23752,6.42747 45.23441,17.86842 11.99694,11.44097 18.73675,26.95824 18.73675,43.1382 v 0 c 0,33.69302 -28.64087,61.00662 -63.97116,61.00662 v 0 c -35.33029,0 -63.97116,-27.3136 -63.97116,-61.00662 z" />
  </g>
  <path
     style="fill:#000000;fill-opacity:0;fill-rule:evenodd"
     inkscape:connector-curvature="0"
     id="path37"
     d="m 132.6025,142.43374 h 94.69379 v 55.53387 H 132.6025 Z" />
  <path
     style="fill:#ffffff;fill-rule:nonzero"
     inkscape:connector-curvature="0"
     id="path39"
     d="m 170.06905,142.79255 q 0,1.95312 -0.70313,3.4375 -0.6875,1.46875 -1.98437,2.28125 -1.28125,0.79687 -2.9375,0.79687 -1.65625,0 -2.95313,-0.79687 -1.28125,-0.79688 -2,-2.26563 -0.70312,-1.46875 -0.71875,-3.39062 v -0.65625 q 0,-1.95313 0.70313,-3.4375 0.71875,-1.48438 2,-2.28125 1.28125,-0.8125 2.9375,-0.8125 1.67187,0 2.95312,0.8125 1.29688,0.79687 2,2.28125 0.70313,1.48437 0.70313,3.4375 z m -2.76563,-0.60938 q 0,-2.07812 -0.75,-3.15625 -0.75,-1.09375 -2.125,-1.09375 -1.375,0 -2.125,1.07813 -0.75,1.0625 -0.76562,3.125 v 0.65625 q 0,2.03125 0.75,3.15625 0.75,1.10937 2.15625,1.10937 1.375,0 2.10937,-1.07812 0.73438,-1.07813 0.75,-3.14063 z m 13.45896,2.09375 q 0,2.28125 -1.04688,3.65625 -1.03125,1.375 -2.78125,1.375 -1.5,0 -2.42187,-1.04687 v 4.65625 h -2.625 V 139.2613 h 2.4375 l 0.0937,0.96875 q 0.95312,-1.14063 2.5,-1.14063 1.8125,0 2.82812,1.34375 1.01563,1.34375 1.01563,3.71875 z m -2.64063,-0.1875 q 0,-1.375 -0.48437,-2.10937 -0.48438,-0.75 -1.42188,-0.75 -1.23437,0 -1.70312,0.9375 v 4.03125 q 0.48437,0.98437 1.71875,0.98437 1.89062,0 1.89062,-3.09375 z m 8.80014,5.21875 q -2.17187,0 -3.53125,-1.32812 -1.35937,-1.34375 -1.35937,-3.54688 v -0.26562 q 0,-1.48438 0.5625,-2.64063 0.57812,-1.17187 1.625,-1.79687 1.0625,-0.64063 2.40625,-0.64063 2.03125,0 3.1875,1.28125 1.15625,1.26563 1.15625,3.60938 v 1.0625 h -6.26563 q 0.125,0.96875 0.76563,1.5625 0.64062,0.57812 1.625,0.57812 1.51562,0 2.375,-1.10937 l 1.29687,1.45312 q -0.59375,0.84375 -1.60937,1.3125 -1,0.46875 -2.23438,0.46875 z m -0.29687,-8.09375 q -0.78125,0 -1.28125,0.53125 -0.48438,0.53125 -0.60938,1.51563 h 3.65625 v -0.21875 q -0.0156,-0.875 -0.48437,-1.34375 -0.45313,-0.48438 -1.28125,-0.48438 z m 8.2717,-1.95312 0.0781,1.14062 q 1.0625,-1.3125 2.82816,-1.3125 1.57812,0 2.34375,0.92188 0.76562,0.90625 0.78125,2.73437 v 6.375 h -2.64063 v -6.29687 q 0,-0.84375 -0.35937,-1.21875 -0.35938,-0.375 -1.21875,-0.375 -1.10941,0 -1.65628,0.9375 v 6.95312 h -2.64063 v -9.85937 z" />
  <path
     style="fill:#ffffff;fill-rule:nonzero"
     inkscape:connector-curvature="0"
     id="path41"
     d="m 161.9204,175.12066 v -13.26561 h 4.07813 q 1.75,0 3.125,0.79688 1.39062,0.78125 2.15625,2.23437 0.78125,1.45313 0.78125,3.29686 v 0.60937 q 0,1.85938 -0.76563,3.29688 -0.76562,1.4375 -2.15625,2.23437 -1.375,0.78125 -3.10937,0.79688 z m 2.73438,-11.04686 v 8.84374 h 1.3125 q 1.60937,0 2.45312,-1.04688 0.84375,-1.04687 0.85938,-2.98437 v -0.70313 q 0,-2.03123 -0.84375,-3.06248 -0.82813,-1.04688 -2.4375,-1.04688 z m 14.9216,11.04686 q -0.17188,-0.35937 -0.26563,-0.89062 -0.95312,1.07812 -2.48437,1.07812 -1.45313,0 -2.40625,-0.84375 -0.9375,-0.84375 -0.9375,-2.10937 0,-1.57813 1.15625,-2.40625 1.15625,-0.84375 3.35937,-0.84375 h 1.20313 v -0.57813 q 0,-0.67187 -0.35938,-1.07812 -0.34375,-0.42186 -1.09375,-0.42186 -0.65625,0 -1.04687,0.32812 -0.375,0.31249 -0.375,0.87499 h -2.625 q 0,-0.85936 0.51562,-1.57811 0.53125,-0.73438 1.5,-1.14063 0.96875,-0.42187 2.17188,-0.42187 1.8125,0 2.875,0.92187 1.07812,0.90625 1.07812,2.56249 v 4.26562 q 0.0156,1.40625 0.39063,2.125 v 0.15625 z m -2.17188,-1.82812 q 0.57813,0 1.0625,-0.25 0.5,-0.26563 0.73438,-0.70313 v -1.70312 H 178.217 q -1.96875,0 -2.09375,1.375 l -0.0156,0.15625 q 0,0.48437 0.34375,0.8125 0.34375,0.3125 0.95312,0.3125 z m 9.6116,-10.45311 v 2.42187 h 1.6875 v 1.9375 h -1.6875 v 4.92186 q 0,0.54687 0.20313,0.78125 0.21875,0.23437 0.8125,0.23437 0.4375,0 0.78125,-0.0625 v 2 q -0.78125,0.23438 -1.59375,0.23438 -2.78125,0 -2.82813,-2.79688 v -5.31248 h -1.4375 v -1.9375 h 1.4375 v -2.42187 z m 8.86628,12.28123 q -0.17188,-0.35937 -0.26563,-0.89062 -0.95312,1.07812 -2.48437,1.07812 -1.45313,0 -2.40625,-0.84375 -0.9375,-0.84375 -0.9375,-2.10937 0,-1.57813 1.15625,-2.40625 1.15625,-0.84375 3.35937,-0.84375 h 1.20313 v -0.57813 q 0,-0.67187 -0.35938,-1.07812 -0.34375,-0.42186 -1.09375,-0.42186 -0.65625,0 -1.04687,0.32812 -0.375,0.31249 -0.375,0.87499 h -2.625 q 0,-0.85936 0.51562,-1.57811 0.53125,-0.73438 1.5,-1.14063 0.96875,-0.42187 2.17188,-0.42187 1.8125,0 2.87503,0.92187 1.07812,0.90625 1.07812,2.56249 v 4.26562 q 0.0156,1.40625 0.39063,2.125 v 0.15625 z m -2.17188,-1.82812 q 0.57813,0 1.0625,-0.25 0.5,-0.26563 0.73438,-0.70313 v -1.70312 H 194.523 q -1.96875,0 -2.09375,1.375 l -0.0156,0.15625 q 0,0.48437 0.34375,0.8125 0.34375,0.3125 0.95312,0.3125 z" />
  <path
     style="fill:#ffffff;fill-rule:nonzero"
     inkscape:connector-curvature="0"
     id="path43"
     d="m 174.87165,201.12066 h -2.73438 v -5.6875 h -5.32812 v 5.6875 h -2.73438 v -13.26562 h 2.73438 v 5.375 h 5.32812 v -5.375 h 2.73438 z m 8.11896,-1 q -0.98438,1.1875 -2.70313,1.1875 -1.59375,0 -2.42187,-0.90625 -0.82813,-0.92187 -0.84375,-2.67187 v -6.46875 h 2.625 v 6.375 q 0,1.53125 1.40625,1.53125 1.34375,0 1.84375,-0.92188 v -6.98437 h 2.64062 v 9.85937 h -2.48437 z m 13.40823,-3.84375 q 0,2.375 -1.01562,3.70313 -1,1.32812 -2.8125,1.32812 -1.60938,0 -2.5625,-1.23437 l -0.125,1.04687 h -2.35938 v -14 h 2.625 v 5.03125 q 0.92188,-1.0625 2.40625,-1.0625 1.79688,0 2.8125,1.32813 1.03125,1.3125 1.03125,3.71875 z m -2.625,-0.1875 q 0,-1.48437 -0.48437,-2.17187 -0.46875,-0.6875 -1.40625,-0.6875 -1.25,0 -1.73438,1.01562 v 3.89063 q 0.48438,1.04687 1.75,1.04687 1.28125,0 1.67188,-1.26562 0.20312,-0.59375 0.20312,-1.82813 z" />
  <path
     style="fill:#155b54;fill-rule:evenodd"
     inkscape:connector-curvature="0"
     id="path45"
     d="m 145.69715,49.454263 v 0 c 0,-18.96914 15.31976,-34.346659 34.21765,-34.346659 v 0 c 9.07507,0 17.77847,3.61866 24.19553,10.059899 6.41702,6.44125 10.02212,15.17746 10.02212,24.28676 v 0 c 0,18.96913 -15.31979,34.34665 -34.21765,34.34665 v 0 c -18.89789,0 -34.21765,-15.37752 -34.21765,-34.34665 z" />
  <path
     style="fill:#000000;fill-opacity:0;fill-rule:evenodd"
     inkscape:connector-curvature="0"
     id="path47"
     d="m 150.42522,21.036393 h 58.15652 v 56.06161 h -58.15652 z" />
  <path
     style="fill:#ffffff;fill-rule:nonzero"
     inkscape:connector-curvature="0"
     id="path49"
     d="m 170.09752,38.636573 q -0.71875,0 -1.26562,-0.28125 -0.54688,-0.28125 -0.875,-0.76562 -0.3125,-0.48438 -0.46875,-1.07813 -0.15625,-0.59375 -0.15625,-1.25 0,-0.65625 0.15625,-1.25 0.17187,-0.59375 0.5,-1.0625 0.32812,-0.48437 0.875,-0.76562 0.54687,-0.29688 1.23437,-0.29688 0.82813,0 1.3125,0.3125 0.48438,0.29688 0.79688,0.82813 l -0.71875,0.42187 q -0.26563,-0.375 -0.57813,-0.57812 -0.3125,-0.21875 -0.8125,-0.21875 -0.42187,0 -0.76562,0.15625 -0.32813,0.15625 -0.54688,0.42187 -0.20312,0.25 -0.35937,0.59375 -0.14063,0.34375 -0.20313,0.70313 -0.0625,0.35937 -0.0625,0.73437 0,1.09375 0.48438,1.85938 0.48437,0.75 1.45312,0.75 0.65625,0 1.0625,-0.42188 0.40625,-0.42187 0.40625,-1.09375 v -0.25 h -1.1875 v -0.75 h 2.03125 v 0.78125 q 0,1.1875 -0.65625,1.84375 -0.64062,0.65625 -1.65625,0.65625 z m 5.62088,0 q -0.96875,0 -1.54687,-0.6875 -0.5625,-0.70312 -0.5625,-1.8125 0,-1.15625 0.57812,-1.8125 0.57813,-0.67187 1.53125,-0.67187 0.85938,0 1.40625,0.57812 0.5625,0.5625 0.5625,1.6875 0,0.26563 -0.0312,0.53125 h -3.21875 q 0.0469,0.65625 0.40625,1.0625 0.35938,0.39063 0.89063,0.39063 0.60937,0 1.03125,-0.42188 l 0.5,0.54688 q -0.625,0.60937 -1.54688,0.60937 z m -1.29687,-2.875 h 2.45312 q -0.0156,-0.73437 -0.35937,-1.0625 -0.34375,-0.32812 -0.79688,-0.32812 -0.54687,0 -0.90625,0.35937 -0.34375,0.34375 -0.39062,1.03125 z m 5.76855,2.875 q -1.01563,0 -1.01563,-1.14062 v -3.03125 h -0.76562 v -0.70313 h 0.76562 v -1.57812 l 0.8125,-0.39063 v 1.96875 h 1.1875 v 0.70313 h -1.1875 v 2.76562 q 0,0.3125 0.10938,0.48438 0.10937,0.17187 0.39062,0.17187 0.3125,0 0.70313,-0.25 l -0.0937,0.78125 q -0.40625,0.21875 -0.90625,0.21875 z m 8.18545,0 q -0.82812,0 -1.35937,-0.48437 -0.51563,-0.5 -0.51563,-1.3125 0,-0.6875 0.39063,-1.14063 0.39062,-0.45312 1.125,-0.85937 -0.40625,-0.51563 -0.57813,-0.82813 -0.17187,-0.32812 -0.17187,-0.70312 0,-0.65625 0.45312,-1.03125 0.45313,-0.39063 1.10938,-0.39063 0.67187,0 1.09375,0.40625 0.4375,0.40625 0.4375,1.03125 0,0.51563 -0.3125,0.90625 -0.3125,0.375 -0.89063,0.75 l 1.21875,1.46875 q 0.21875,-0.48437 0.26563,-0.98437 h 0.76562 q -0.0312,0.84375 -0.48437,1.625 l 1.20312,1.4375 h -1.0625 l -0.64062,-0.78125 q -0.84375,0.89062 -2.04688,0.89062 z m 0.4375,-6.03125 q -0.34375,0 -0.5625,0.1875 -0.20312,0.1875 -0.20312,0.51563 0,0.15625 0.0937,0.35937 0.0937,0.1875 0.20312,0.34375 0.125,0.15625 0.35938,0.4375 0.89062,-0.51562 0.89062,-1.07812 0,-0.34375 -0.23437,-0.54688 -0.21875,-0.21875 -0.54688,-0.21875 z m -0.29687,5.28125 q 0.78125,0 1.40625,-0.73437 l -1.45313,-1.76563 q -0.57812,0.34375 -0.85937,0.67188 -0.28125,0.32812 -0.28125,0.73437 0,0.48438 0.32812,0.79688 0.32813,0.29687 0.85938,0.29687 z" />
  <path
     style="fill:#ffffff;fill-rule:nonzero"
     inkscape:connector-curvature="0"
     id="path51"
     d="m 170.8517,51.636573 q -0.82813,0 -1.4375,-0.40625 -0.60938,-0.40625 -0.82813,-1.04688 l 0.76563,-0.28125 q 0.20312,0.45313 0.59375,0.71875 0.40625,0.25 0.92187,0.25 0.60938,0 0.95313,-0.28125 0.34375,-0.28125 0.34375,-0.8125 0,-0.51562 -0.39063,-0.8125 -0.39062,-0.3125 -1.07812,-0.57812 -0.34375,-0.10938 -0.5625,-0.20313 -0.21875,-0.0937 -0.5,-0.26562 -0.28125,-0.17188 -0.45313,-0.35938 -0.17187,-0.1875 -0.29687,-0.45312 -0.10938,-0.28125 -0.10938,-0.60938 0,-0.67187 0.53125,-1.14062 0.54688,-0.46875 1.48438,-0.46875 0.75,0 1.25,0.32812 0.5,0.3125 0.65625,0.84375 l -0.75,0.25 q -0.125,-0.29687 -0.45313,-0.48437 -0.3125,-0.1875 -0.76562,-0.1875 -0.51563,0 -0.8125,0.23437 -0.29688,0.23438 -0.29688,0.625 0,0.21875 0.10938,0.40625 0.10937,0.17188 0.32812,0.3125 0.23438,0.14063 0.42188,0.21875 0.20312,0.0781 0.54687,0.21875 0.4375,0.15625 0.70313,0.29688 0.28125,0.14062 0.60937,0.39062 0.32813,0.23438 0.5,0.59375 0.17188,0.35938 0.17188,0.82813 0,0.875 -0.60938,1.375 -0.59375,0.5 -1.54687,0.5 z m 4.83755,0 q -1.01562,0 -1.01562,-1.14063 v -3.03125 H 173.908 v -0.70312 h 0.76563 v -1.57813 l 0.8125,-0.39062 v 1.96875 h 1.1875 v 0.70312 h -1.1875 v 2.76563 q 0,0.3125 0.10937,0.48437 0.10938,0.17188 0.39063,0.17188 0.3125,0 0.70312,-0.25 l -0.0937,0.78125 q -0.40625,0.21875 -0.90625,0.21875 z m 5.56684,-0.65625 q -0.5625,0.65625 -1.54688,0.65625 -0.96875,0 -1.53125,-0.65625 -0.5625,-0.67188 -0.5625,-1.82813 0,-1.17187 0.5625,-1.82812 0.5625,-0.67188 1.53125,-0.67188 0.98438,0 1.54688,0.67188 0.5625,0.65625 0.5625,1.82812 0,1.15625 -0.5625,1.82813 z m -2.48438,-0.54688 q 0.34375,0.45313 0.9375,0.45313 0.60938,0 0.95313,-0.45313 0.34375,-0.46875 0.34375,-1.29687 0,-0.8125 -0.34375,-1.26563 -0.34375,-0.46875 -0.95313,-0.46875 -0.59375,0 -0.9375,0.46875 -0.34375,0.45313 -0.34375,1.28125 0,0.8125 0.34375,1.28125 z m 4.33011,1.09375 v -4.76562 h 0.79688 v 0.625 q 0.34375,-0.73438 1.14062,-0.73438 0.4375,0 0.73438,0.23438 l -0.125,0.76562 q -0.29688,-0.20312 -0.67188,-0.20312 -0.42187,0 -0.75,0.32812 -0.32812,0.32813 -0.32812,1.0625 v 2.6875 z m 5.45676,0.10938 q -0.96875,0 -1.54688,-0.6875 -0.5625,-0.70313 -0.5625,-1.8125 0,-1.15625 0.57813,-1.8125 0.57812,-0.67188 1.53125,-0.67188 0.85937,0 1.40625,0.57813 0.5625,0.5625 0.5625,1.6875 0,0.26562 -0.0312,0.53125 h -3.21875 q 0.0469,0.65625 0.40625,1.0625 0.35937,0.39062 0.89062,0.39062 0.60938,0 1.03125,-0.42187 l 0.5,0.54687 q -0.625,0.60938 -1.54687,0.60938 z m -1.29688,-2.875 h 2.45313 q -0.0156,-0.73438 -0.35938,-1.0625 -0.34375,-0.32813 -0.79687,-0.32813 -0.54688,0 -0.90625,0.35938 -0.34375,0.34375 -0.39063,1.03125 z" />
  <path
     style="fill:#ffffff;fill-rule:nonzero"
     inkscape:connector-curvature="0"
     id="path53"
     d="m 170.59349,57.995953 h 1.78125 q 0.79688,0 1.39063,0.28125 0.60937,0.28125 0.95312,0.76562 0.35938,0.46875 0.51563,1.03125 0.17187,0.54688 0.17187,1.1875 0,0.60938 -0.15625,1.15625 -0.15625,0.54688 -0.5,1.03125 -0.32812,0.48438 -0.95312,0.78125 -0.625,0.29688 -1.46875,0.29688 h -1.73438 z m 1.84375,5.78125 q 0.57813,0 1,-0.21875 0.4375,-0.21875 0.67188,-0.59375 0.23437,-0.39063 0.34375,-0.8125 0.10937,-0.42188 0.10937,-0.89063 0,-0.67187 -0.20312,-1.21875 -0.1875,-0.54687 -0.67188,-0.92187 -0.46875,-0.375 -1.15625,-0.375 h -1.14062 v 5.03125 z m 7.09616,0.75 v -0.4375 q -0.57812,0.54687 -1.34375,0.54687 -0.75,0 -1.20312,-0.40625 -0.45313,-0.42187 -0.45313,-1.1875 0,-0.78125 0.5,-1.17187 0.51563,-0.40625 1.28125,-0.40625 0.6875,0 1.21875,0.29687 v -0.32812 q 0,-0.59375 -0.26562,-0.82813 -0.26563,-0.25 -0.76563,-0.25 -0.71875,0 -1.39062,0.48438 l -0.23438,-0.6875 q 0.76563,-0.5 1.73438,-0.5 1.6875,0 1.6875,1.71875 v 3.15625 z m -1.21875,-0.60938 q 0.6875,0 1.21875,-0.625 v -0.8125 q -0.5,-0.32812 -1.10937,-0.32812 -0.5,0 -0.8125,0.23437 -0.3125,0.21875 -0.3125,0.64063 0,0.40625 0.26562,0.65625 0.26563,0.23437 0.75,0.23437 z m 4.68787,0.71875 q -1.01566,0 -1.01566,-1.14062 v -3.03125 h -0.76562 v -0.70313 h 0.76562 v -1.57812 l 0.81253,-0.39063 v 1.96875 h 1.1875 v 0.70313 h -1.1875 v 2.76562 q 0,0.3125 0.10938,0.48438 0.10937,0.17187 0.39062,0.17187 0.3125,0 0.70313,-0.25 l -0.0937,0.78125 q -0.40625,0.21875 -0.90625,0.21875 z m 4.92621,-0.10937 v -0.4375 q -0.57813,0.54687 -1.34375,0.54687 -0.75,0 -1.20313,-0.40625 -0.45312,-0.42187 -0.45312,-1.1875 0,-0.78125 0.5,-1.17187 0.51562,-0.40625 1.28125,-0.40625 0.6875,0 1.21875,0.29687 v -0.32812 q 0,-0.59375 -0.26563,-0.82813 -0.26562,-0.25 -0.76562,-0.25 -0.71875,0 -1.39063,0.48438 l -0.23437,-0.6875 q 0.76562,-0.5 1.73437,-0.5 1.6875,0 1.6875,1.71875 v 3.15625 z m -1.21875,-0.60938 q 0.6875,0 1.21875,-0.625 v -0.8125 q -0.5,-0.32812 -1.10938,-0.32812 -0.5,0 -0.8125,0.23437 -0.3125,0.21875 -0.3125,0.64063 0,0.40625 0.26563,0.65625 0.26562,0.23437 0.75,0.23437 z" />
  <path
     style="fill:#155b54;fill-rule:evenodd"
     inkscape:connector-curvature="0"
     id="path55"
     d="m 227.41195,78.941903 v 0 c 0,-18.96913 15.31976,-34.34666 34.21759,-34.34666 v 0 c 9.07513,0 17.7785,3.61865 24.19556,10.0599 6.41705,6.44126 10.02209,15.17746 10.02209,24.28676 v 0 c 0,18.96913 -15.31976,34.346647 -34.21765,34.346647 v 0 c -18.89783,0 -34.21759,-15.377517 -34.21759,-34.346647 z" />
  <path
     style="fill:#000000;fill-opacity:0;fill-rule:evenodd"
     inkscape:connector-curvature="0"
     id="path57"
     d="m 232.13995,50.524043 h 58.15656 v 56.061597 h -58.15656 z" />
  <path
     style="fill:#ffffff;fill-rule:nonzero"
     inkscape:connector-curvature="0"
     id="path59"
     d="m 252.7339,74.624213 q -0.71875,0 -1.26562,-0.28125 -0.53125,-0.29688 -0.84375,-0.78125 -0.29688,-0.5 -0.45313,-1.07813 -0.14062,-0.57812 -0.14062,-1.23437 0,-0.64063 0.14062,-1.21875 0.15625,-0.59375 0.46875,-1.07813 0.3125,-0.48437 0.84375,-0.78125 0.54688,-0.29687 1.25,-0.29687 1.53125,0 2.10938,1.17187 l -0.73438,0.375 q -0.26562,-0.39062 -0.57812,-0.59375 -0.3125,-0.20312 -0.79688,-0.20312 -0.67187,0 -1.10937,0.42187 -0.4375,0.42188 -0.60938,0.98438 -0.15625,0.5625 -0.15625,1.21875 0,1.07812 0.46875,1.84375 0.48438,0.76562 1.39063,0.76562 0.92187,0 1.42187,-0.82812 l 0.75,0.28125 q -0.26562,0.59375 -0.8125,0.95312 -0.53125,0.35938 -1.34375,0.35938 z m 3.51965,-0.10938 v -6.35937 l 0.79688,-0.375 v 6.73437 z m 4.22522,0.10938 q -0.96875,0 -1.54687,-0.6875 -0.5625,-0.70313 -0.5625,-1.8125 0,-1.15625 0.57812,-1.8125 0.57813,-0.67188 1.53125,-0.67188 0.85938,0 1.40625,0.57813 0.5625,0.5625 0.5625,1.6875 0,0.26562 -0.0312,0.53125 h -3.21875 q 0.0469,0.65625 0.40625,1.0625 0.35938,0.39062 0.89063,0.39062 0.60937,0 1.03125,-0.42187 l 0.5,0.54687 q -0.625,0.60938 -1.54688,0.60938 z m -1.29687,-2.875 h 2.45312 q -0.0156,-0.73438 -0.35937,-1.0625 -0.34375,-0.32813 -0.79688,-0.32813 -0.54687,0 -0.90625,0.35938 -0.34375,0.34375 -0.39062,1.03125 z m 7.20605,2.76562 v -0.4375 q -0.57812,0.54688 -1.34375,0.54688 -0.75,0 -1.20312,-0.40625 -0.45313,-0.42188 -0.45313,-1.1875 0,-0.78125 0.5,-1.17188 0.51563,-0.40625 1.28125,-0.40625 0.6875,0 1.21875,0.29688 v -0.32813 q 0,-0.59375 -0.26562,-0.82812 -0.26563,-0.25 -0.76563,-0.25 -0.71875,0 -1.39062,0.48437 l -0.23438,-0.6875 q 0.76563,-0.5 1.73438,-0.5 1.6875,0 1.6875,1.71875 v 3.15625 z m -1.21875,-0.60937 q 0.6875,0 1.21875,-0.625 v -0.8125 q -0.5,-0.32813 -1.10937,-0.32813 -0.5,0 -0.8125,0.23438 -0.3125,0.21875 -0.3125,0.64062 0,0.40625 0.26562,0.65625 0.26563,0.23438 0.75,0.23438 z m 6.34412,0.60937 v -2.875 q 0,-0.65625 -0.28125,-0.95312 -0.28125,-0.29688 -0.75,-0.29688 -1.10938,0 -1.10938,1.21875 v 2.90625 h -0.79687 v -4.76562 h 0.79687 v 0.48437 q 0.45313,-0.59375 1.23438,-0.59375 0.84375,0 1.28125,0.51563 0.4375,0.5 0.4375,1.60937 v 2.75 z" />
  <path
     style="fill:#ffffff;fill-rule:nonzero"
     inkscape:connector-curvature="0"
     id="path61"
     d="m 252.30825,80.983593 h 1.78125 q 0.79688,0 1.39063,0.28125 0.60937,0.28125 0.95312,0.76562 0.35938,0.46875 0.51563,1.03125 0.17187,0.54688 0.17187,1.1875 0,0.60938 -0.15625,1.15625 -0.15625,0.54688 -0.5,1.03125 -0.32812,0.48438 -0.95312,0.78125 -0.625,0.29688 -1.46875,0.29688 h -1.73438 z m 1.84375,5.78125 q 0.57813,0 1,-0.21875 0.4375,-0.21875 0.67188,-0.59375 0.23437,-0.39063 0.34375,-0.8125 0.10937,-0.42188 0.10937,-0.89063 0,-0.67187 -0.20312,-1.21875 -0.1875,-0.54687 -0.67188,-0.92187 -0.46875,-0.375 -1.15625,-0.375 h -1.14062 v 5.03125 z m 7.09619,0.75 v -0.4375 q -0.57812,0.54687 -1.34375,0.54687 -0.75,0 -1.20312,-0.40625 -0.45313,-0.42187 -0.45313,-1.1875 0,-0.78125 0.5,-1.17187 0.51563,-0.40625 1.28125,-0.40625 0.6875,0 1.21875,0.29687 v -0.32812 q 0,-0.59375 -0.26562,-0.82813 -0.26563,-0.25 -0.76563,-0.25 -0.71875,0 -1.39062,0.48438 l -0.23438,-0.6875 q 0.76563,-0.5 1.73438,-0.5 1.6875,0 1.6875,1.71875 v 3.15625 z m -1.21875,-0.60938 q 0.6875,0 1.21875,-0.625 v -0.8125 q -0.5,-0.32812 -1.10937,-0.32812 -0.5,0 -0.8125,0.23437 -0.3125,0.21875 -0.3125,0.64063 0,0.40625 0.26562,0.65625 0.26563,0.23437 0.75,0.23437 z m 4.68781,0.71875 q -1.01563,0 -1.01563,-1.14062 v -3.03125 H 262.936 v -0.70313 h 0.76562 v -1.57812 l 0.8125,-0.39063 v 1.96875 h 1.1875 v 0.70313 h -1.1875 v 2.76562 q 0,0.3125 0.10938,0.48438 0.10937,0.17187 0.39062,0.17187 0.3125,0 0.70313,-0.25 l -0.0937,0.78125 q -0.40625,0.21875 -0.90625,0.21875 z m 4.92627,-0.10937 v -0.4375 q -0.57813,0.54687 -1.34375,0.54687 -0.75,0 -1.20313,-0.40625 -0.45312,-0.42187 -0.45312,-1.1875 0,-0.78125 0.5,-1.17187 0.51562,-0.40625 1.28125,-0.40625 0.6875,0 1.21875,0.29687 v -0.32812 q 0,-0.59375 -0.26563,-0.82813 -0.26562,-0.25 -0.76562,-0.25 -0.71875,0 -1.39063,0.48438 l -0.23437,-0.6875 q 0.76562,-0.5 1.73437,-0.5 1.6875,0 1.6875,1.71875 v 3.15625 z m -1.21875,-0.60938 q 0.6875,0 1.21875,-0.625 v -0.8125 q -0.5,-0.32812 -1.10938,-0.32812 -0.5,0 -0.8125,0.23437 -0.3125,0.21875 -0.3125,0.64063 0,0.40625 0.26563,0.65625 0.26562,0.23437 0.75,0.23437 z" />
  <path
     style="fill:#155b54;fill-rule:evenodd"
     inkscape:connector-curvature="0"
     id="path63"
     d="m 271.59975,152.33263 v 0 c 0,-18.96915 15.31976,-34.34666 34.21759,-34.34666 v 0 c 9.07513,0 17.7785,3.61865 24.19556,10.0599 6.41705,6.44124 10.02209,15.17745 10.02209,24.28676 v 0 c 0,18.96912 -15.31976,34.34665 -34.21765,34.34665 v 0 c -18.89783,0 -34.21759,-15.37753 -34.21759,-34.34665 z" />
  <path
     style="fill:#000000;fill-opacity:0;fill-rule:evenodd"
     inkscape:connector-curvature="0"
     id="path65"
     d="m 276.32775,123.91477 h 58.15656 v 56.0616 h -58.15656 z" />
  <path
     style="fill:#ffffff;fill-rule:nonzero"
     inkscape:connector-curvature="0"
     id="path67"
     d="m 287.27985,154.40557 v -6.53125 h 3.875 v 0.76562 h -3.07813 v 2 h 2.03125 v 0.76563 h -2.03125 v 2.21875 h 3.28125 v 0.78125 z m 7.79071,-5.75 v 5.75 h -0.8125 v -5.75 h -1.8125 v -0.78125 h 4.4375 v 0.78125 z m 3.23517,5.75 v -6.53125 h 0.79687 v 5.75 h 3.21875 v 0.78125 z m 7.40649,-6.53125 h 1.78125 q 0.79688,0 1.39063,0.28125 0.60937,0.28125 0.95312,0.76562 0.35938,0.46875 0.51563,1.03125 0.17187,0.54688 0.17187,1.1875 0,0.60938 -0.15625,1.15625 -0.15625,0.54688 -0.5,1.03125 -0.32812,0.48438 -0.95312,0.78125 -0.625,0.29688 -1.46875,0.29688 h -1.73438 z m 1.84375,5.78125 q 0.57813,0 1,-0.21875 0.4375,-0.21875 0.67188,-0.59375 0.23437,-0.39063 0.34375,-0.8125 0.10937,-0.42188 0.10937,-0.89063 0,-0.67187 -0.20312,-1.21875 -0.1875,-0.54687 -0.67188,-0.92187 -0.46875,-0.375 -1.15625,-0.375 h -1.14062 v 5.03125 z m 7.09619,0.75 v -0.4375 q -0.57812,0.54687 -1.34375,0.54687 -0.75,0 -1.20312,-0.40625 -0.45313,-0.42187 -0.45313,-1.1875 0,-0.78125 0.5,-1.17187 0.51563,-0.40625 1.28125,-0.40625 0.6875,0 1.21875,0.29687 v -0.32812 q 0,-0.59375 -0.26562,-0.82813 -0.26563,-0.25 -0.76563,-0.25 -0.71875,0 -1.39062,0.48438 l -0.23438,-0.6875 q 0.76563,-0.5 1.73438,-0.5 1.6875,0 1.6875,1.71875 v 3.15625 z m -1.21875,-0.60938 q 0.6875,0 1.21875,-0.625 v -0.8125 q -0.5,-0.32812 -1.10937,-0.32812 -0.5,0 -0.8125,0.23437 -0.3125,0.21875 -0.3125,0.64063 0,0.40625 0.26562,0.65625 0.26563,0.23437 0.75,0.23437 z m 4.68781,0.71875 q -1.01563,0 -1.01563,-1.14062 v -3.03125 h -0.76562 v -0.70313 h 0.76562 v -1.57812 l 0.8125,-0.39063 v 1.96875 h 1.1875 v 0.70313 h -1.1875 v 2.76562 q 0,0.3125 0.10938,0.48438 0.10937,0.17187 0.39062,0.17187 0.3125,0 0.70313,-0.25 l -0.0937,0.78125 q -0.40625,0.21875 -0.90625,0.21875 z m 4.92627,-0.10937 v -0.4375 q -0.57813,0.54687 -1.34375,0.54687 -0.75,0 -1.20313,-0.40625 -0.45312,-0.42187 -0.45312,-1.1875 0,-0.78125 0.5,-1.17187 0.51562,-0.40625 1.28125,-0.40625 0.6875,0 1.21875,0.29687 v -0.32812 q 0,-0.59375 -0.26563,-0.82813 -0.26562,-0.25 -0.76562,-0.25 -0.71875,0 -1.39063,0.48438 l -0.23437,-0.6875 q 0.76562,-0.5 1.73437,-0.5 1.6875,0 1.6875,1.71875 v 3.15625 z m -1.21875,-0.60938 q 0.6875,0 1.21875,-0.625 v -0.8125 q -0.5,-0.32812 -1.10938,-0.32812 -0.5,0 -0.8125,0.23437 -0.3125,0.21875 -0.3125,0.64063 0,0.40625 0.26563,0.65625 0.26562,0.23437 0.75,0.23437 z" />
  <path
     style="fill:#155b54;fill-rule:evenodd"
     inkscape:connector-curvature="0"
     id="path69"
     d="m 257.03621,235.62572 v 0 c 0,-18.96912 15.31976,-34.34665 34.21765,-34.34665 v 0 c 9.07507,0 17.77844,3.61865 24.1955,10.05991 6.41705,6.44125 10.02215,15.17746 10.02215,24.28674 v 0 c 0,18.96915 -15.31976,34.34668 -34.21765,34.34668 v 0 c -18.89789,0 -34.21765,-15.37753 -34.21765,-34.34668 z" />
  <path
     style="fill:#000000;fill-opacity:0;fill-rule:evenodd"
     inkscape:connector-curvature="0"
     id="path71"
     d="m 261.76425,207.20789 h 58.15656 v 56.06162 h -58.15656 z" />
  <path
     style="fill:#ffffff;fill-rule:nonzero"
     inkscape:connector-curvature="0"
     id="path73"
     d="m 283.17018,225.44869 v 5.75 h -0.8125 v -5.75 h -1.8125 v -0.78125 h 4.4375 v 0.78125 z m 3.09454,5.75 v -4.76563 h 0.79688 v 0.625 q 0.34375,-0.73437 1.14062,-0.73437 0.4375,0 0.73438,0.23437 l -0.125,0.76563 q -0.29688,-0.20313 -0.67188,-0.20313 -0.42187,0 -0.75,0.32813 -0.32812,0.32812 -0.32812,1.0625 v 2.6875 z m 6.34742,0 v -0.4375 q -0.57813,0.54687 -1.34375,0.54687 -0.75,0 -1.20313,-0.40625 -0.45312,-0.42187 -0.45312,-1.1875 0,-0.78125 0.5,-1.17187 0.51562,-0.40625 1.28125,-0.40625 0.6875,0 1.21875,0.29687 v -0.32812 q 0,-0.59375 -0.26563,-0.82813 -0.26562,-0.25 -0.76562,-0.25 -0.71875,0 -1.39063,0.48438 l -0.23437,-0.6875 q 0.76562,-0.5 1.73437,-0.5 1.6875,0 1.6875,1.71875 v 3.15625 z m -1.21875,-0.60938 q 0.6875,0 1.21875,-0.625 v -0.8125 q -0.5,-0.32812 -1.10938,-0.32812 -0.5,0 -0.8125,0.23437 -0.3125,0.21875 -0.3125,0.64063 0,0.40625 0.26563,0.65625 0.26562,0.23437 0.75,0.23437 z m 4.17224,-5.17187 q -0.14063,0.14062 -0.35938,0.14062 -0.21875,0 -0.35937,-0.14062 -0.14063,-0.15625 -0.14063,-0.35938 0,-0.21875 0.14063,-0.35937 0.15625,-0.15625 0.35937,-0.15625 0.21875,0 0.35938,0.15625 0.15625,0.14062 0.15625,0.35937 0,0.21875 -0.15625,0.35938 z M 294.8,231.19869 v -4.76563 h 0.8125 v 4.76563 z m 5.30683,0 v -2.875 q 0,-0.65625 -0.28125,-0.95313 -0.28125,-0.29687 -0.75,-0.29687 -1.10938,0 -1.10938,1.21875 v 2.90625 h -0.79687 v -4.76563 h 0.79687 v 0.48438 q 0.45313,-0.59375 1.23438,-0.59375 0.84375,0 1.28125,0.51562 0.4375,0.5 0.4375,1.60938 v 2.75 z" />
  <path
     style="fill:#ffffff;fill-rule:nonzero"
     inkscape:connector-curvature="0"
     id="path75"
     d="m 282.53295,244.19869 h -0.79687 v -4.01563 q 0,-0.375 0.0156,-0.71875 -0.0937,0.26563 -0.29687,0.73438 l -1.78125,4.10937 -1.73438,-4.125 q -0.23437,-0.53125 -0.28125,-0.70312 0.0156,0.25 0.0156,0.70312 v 4.01563 h -0.79688 v -6.53125 h 0.75 l 1.90625,4.39062 0.15625,0.4375 q 0.0469,-0.10937 0.17188,-0.4375 l 1.90625,-4.39062 h 0.76562 z m 5.05298,-0.54688 q -0.5625,0.65625 -1.54688,0.65625 -0.96875,0 -1.53125,-0.65625 -0.5625,-0.67187 -0.5625,-1.82812 0,-1.17188 0.5625,-1.82813 0.5625,-0.67187 1.53125,-0.67187 0.98438,0 1.54688,0.67187 0.5625,0.65625 0.5625,1.82813 0,1.15625 -0.5625,1.82812 z m -2.48438,-0.54687 q 0.34375,0.45312 0.9375,0.45312 0.60938,0 0.95313,-0.45312 0.34375,-0.46875 0.34375,-1.29688 0,-0.8125 -0.34375,-1.26562 -0.34375,-0.46875 -0.95313,-0.46875 -0.59375,0 -0.9375,0.46875 -0.34375,0.45312 -0.34375,1.28125 0,0.8125 0.34375,1.28125 z m 6.01758,1.20312 q -0.90625,0 -1.4375,-0.67187 -0.53125,-0.67188 -0.53125,-1.82813 0,-1.15625 0.53125,-1.8125 0.53125,-0.67187 1.4375,-0.67187 0.6875,0 1.20313,0.4375 v -1.92188 l 0.8125,-0.375 v 6.73438 h -0.8125 v -0.375 q -0.46875,0.48437 -1.20313,0.48437 z m 0.10938,-0.75 q 0.70312,0 1.09375,-0.64062 v -2.25 q -0.39063,-0.59375 -1.09375,-0.59375 -0.60938,0 -0.9375,0.45312 -0.32813,0.4375 -0.32813,1.28125 0,0.76563 0.34375,1.26563 0.34375,0.48437 0.92188,0.48437 z m 5.27362,0.75 q -0.96875,0 -1.54688,-0.6875 -0.5625,-0.70312 -0.5625,-1.8125 0,-1.15625 0.57813,-1.8125 0.57812,-0.67187 1.53125,-0.67187 0.85937,0 1.40625,0.57812 0.5625,0.5625 0.5625,1.6875 0,0.26563 -0.0312,0.53125 h -3.21875 q 0.0469,0.65625 0.40625,1.0625 0.35937,0.39063 0.89062,0.39063 0.60938,0 1.03125,-0.42188 l 0.5,0.54688 q -0.625,0.60937 -1.54687,0.60937 z m -1.29688,-2.875 h 2.45313 q -0.0156,-0.73437 -0.35938,-1.0625 -0.34375,-0.32812 -0.79687,-0.32812 -0.54688,0 -0.90625,0.35937 -0.34375,0.34375 -0.39063,1.03125 z m 4.53418,2.76563 v -6.35938 l 0.79688,-0.375 v 6.73438 z m 3.80335,0.10937 q -0.51563,0 -0.98438,-0.21875 -0.45312,-0.21875 -0.75,-0.57812 l 0.57813,-0.5 q 0.53125,0.57812 1.17187,0.57812 0.40625,0 0.64063,-0.15625 0.25,-0.15625 0.25,-0.45312 0,-0.23438 -0.1875,-0.40625 -0.17188,-0.1875 -0.35938,-0.26563 -0.1875,-0.0937 -0.54687,-0.23437 -0.73438,-0.26563 -1.10938,-0.59375 -0.375,-0.34375 -0.375,-0.90625 0,-0.57813 0.45313,-0.90625 0.45312,-0.34375 1.15625,-0.34375 1,0 1.60937,0.71875 l -0.5625,0.46875 q -0.4375,-0.46875 -1.04687,-0.46875 -0.375,0 -0.59375,0.14062 -0.20313,0.14063 -0.20313,0.39063 0,0.14062 0.0625,0.26562 0.0781,0.10938 0.25,0.21875 0.1875,0.0937 0.29688,0.15625 0.10937,0.0469 0.39062,0.15625 0.76563,0.26563 1.15625,0.625 0.39063,0.34375 0.39063,0.96875 0,0.625 -0.45313,0.98438 -0.45312,0.35937 -1.23437,0.35937 z" />
  <path
     style="fill:#155b54;fill-rule:evenodd"
     inkscape:connector-curvature="0"
     id="path77"
     d="m 193.25798,293.11279 v 0 c 0,-18.96915 15.31976,-34.34665 34.21762,-34.34665 v 0 c 9.07507,0 17.7785,3.61865 24.19556,10.05988 6.41705,6.44125 10.02209,15.17746 10.02209,24.28677 v 0 c 0,18.96912 -15.31976,34.34665 -34.21765,34.34665 v 0 c -18.89786,0 -34.21762,-15.37753 -34.21762,-34.34665 z" />
  <path
     style="fill:#000000;fill-opacity:0;fill-rule:evenodd"
     inkscape:connector-curvature="0"
     id="path79"
     d="m 197.98601,264.69491 h 58.15653 v 56.06161 h -58.15653 z" />
  <path
     style="fill:#ffffff;fill-rule:nonzero"
     inkscape:connector-curvature="0"
     id="path81"
     d="m 216.77545,282.93572 v 5.75 h -0.8125 v -5.75 h -1.8125 v -0.78125 h 4.4375 v 0.78125 z m 4.92267,5.85937 q -0.96875,0 -1.54688,-0.6875 -0.5625,-0.70312 -0.5625,-1.8125 0,-1.15625 0.57813,-1.8125 0.57812,-0.67187 1.53125,-0.67187 0.85937,0 1.40625,0.57812 0.5625,0.5625 0.5625,1.6875 0,0.26563 -0.0312,0.53125 h -3.21875 q 0.0469,0.65625 0.40625,1.0625 0.35937,0.39063 0.89062,0.39063 0.60938,0 1.03125,-0.42188 l 0.5,0.54688 q -0.625,0.60937 -1.54687,0.60937 z m -1.29688,-2.875 h 2.45313 q -0.0156,-0.73437 -0.35938,-1.0625 -0.34375,-0.32812 -0.79687,-0.32812 -0.54688,0 -0.90625,0.35937 -0.34375,0.34375 -0.39063,1.03125 z m 5.8935,2.875 q -0.51563,0 -0.98438,-0.21875 -0.45312,-0.21875 -0.75,-0.57812 l 0.57813,-0.5 q 0.53125,0.57812 1.17187,0.57812 0.40625,0 0.64063,-0.15625 0.25,-0.15625 0.25,-0.45312 0,-0.23438 -0.1875,-0.40625 -0.17188,-0.1875 -0.35938,-0.26563 -0.1875,-0.0937 -0.54687,-0.23437 -0.73438,-0.26563 -1.10938,-0.59375 -0.375,-0.34375 -0.375,-0.90625 0,-0.57813 0.45313,-0.90625 0.45312,-0.34375 1.15625,-0.34375 1,0 1.60937,0.71875 l -0.5625,0.46875 q -0.4375,-0.46875 -1.04687,-0.46875 -0.375,0 -0.59375,0.14062 -0.20313,0.14063 -0.20313,0.39063 0,0.14062 0.0625,0.26562 0.0781,0.10938 0.25,0.21875 0.1875,0.0937 0.29688,0.15625 0.10937,0.0469 0.39062,0.15625 0.76563,0.26563 1.15625,0.625 0.39063,0.34375 0.39063,0.96875 0,0.625 -0.45313,0.98438 -0.45312,0.35937 -1.23437,0.35937 z m 4.24994,0 q -1.01563,0 -1.01563,-1.14062 v -3.03125 h -0.76562 v -0.70313 h 0.76562 v -1.57812 l 0.8125,-0.39063 v 1.96875 h 1.1875 v 0.70313 h -1.1875 v 2.76562 q 0,0.3125 0.10938,0.48438 0.10937,0.17187 0.39062,0.17187 0.3125,0 0.70313,-0.25 l -0.0937,0.78125 q -0.40625,0.21875 -0.90625,0.21875 z m 5.99328,0 q -0.82812,0 -1.35937,-0.48437 -0.51563,-0.5 -0.51563,-1.3125 0,-0.6875 0.39063,-1.14063 0.39062,-0.45312 1.125,-0.85937 -0.40625,-0.51563 -0.57813,-0.82813 -0.17187,-0.32812 -0.17187,-0.70312 0,-0.65625 0.45312,-1.03125 0.45313,-0.39063 1.10938,-0.39063 0.67187,0 1.09375,0.40625 0.4375,0.40625 0.4375,1.03125 0,0.51563 -0.3125,0.90625 -0.3125,0.375 -0.89063,0.75 l 1.21875,1.46875 q 0.21875,-0.48437 0.26563,-0.98437 h 0.76562 q -0.0312,0.84375 -0.48437,1.625 l 1.20312,1.4375 h -1.0625 l -0.64062,-0.78125 q -0.84375,0.89062 -2.04688,0.89062 z m 0.4375,-6.03125 q -0.34375,0 -0.5625,0.1875 -0.20312,0.1875 -0.20312,0.51563 0,0.15625 0.0937,0.35937 0.0937,0.1875 0.20312,0.34375 0.125,0.15625 0.35938,0.4375 0.89062,-0.51562 0.89062,-1.07812 0,-0.34375 -0.23437,-0.54688 -0.21875,-0.21875 -0.54688,-0.21875 z m -0.29687,5.28125 q 0.78125,0 1.40625,-0.73437 l -1.45313,-1.76563 q -0.57812,0.34375 -0.85937,0.67188 -0.28125,0.32812 -0.28125,0.73437 0,0.48438 0.32812,0.79688 0.32813,0.29687 0.85938,0.29687 z" />
  <path
     style="fill:#ffffff;fill-rule:nonzero"
     inkscape:connector-curvature="0"
     id="path83"
     d="m 212.52275,301.68572 -2.23438,-6.53125 h 0.85938 l 1.5625,4.71875 q 0.17187,0.57812 0.1875,0.67187 0.0469,-0.1875 0.1875,-0.67187 l 1.51562,-4.71875 h 0.875 l -2.23437,6.53125 z m 6.89447,0 v -0.4375 q -0.57813,0.54687 -1.34375,0.54687 -0.75,0 -1.20313,-0.40625 -0.45312,-0.42187 -0.45312,-1.1875 0,-0.78125 0.5,-1.17187 0.51562,-0.40625 1.28125,-0.40625 0.6875,0 1.21875,0.29687 v -0.32812 q 0,-0.59375 -0.26563,-0.82813 -0.26562,-0.25 -0.76562,-0.25 -0.71875,0 -1.39063,0.48438 l -0.23437,-0.6875 q 0.76562,-0.5 1.73437,-0.5 1.6875,0 1.6875,1.71875 v 3.15625 z m -1.21875,-0.60938 q 0.6875,0 1.21875,-0.625 v -0.8125 q -0.5,-0.32812 -1.10938,-0.32812 -0.5,0 -0.8125,0.23437 -0.3125,0.21875 -0.3125,0.64063 0,0.40625 0.26563,0.65625 0.26562,0.23437 0.75,0.23437 z m 3.45343,0.60938 v -6.35938 l 0.79688,-0.375 v 6.73438 z m 3.16272,-5.78125 q -0.14063,0.14062 -0.35938,0.14062 -0.21875,0 -0.35937,-0.14062 -0.14063,-0.15625 -0.14063,-0.35938 0,-0.21875 0.14063,-0.35937 0.15625,-0.15625 0.35937,-0.15625 0.21875,0 0.35938,0.15625 0.15625,0.14062 0.15625,0.35937 0,0.21875 -0.15625,0.35938 z m -0.76563,5.78125 v -4.76563 h 0.8125 v 4.76563 z m 4.05689,0.10937 q -0.90625,0 -1.4375,-0.67187 -0.53125,-0.67188 -0.53125,-1.82813 0,-1.15625 0.53125,-1.8125 0.53125,-0.67187 1.4375,-0.67187 0.6875,0 1.20312,0.4375 v -1.92188 l 0.8125,-0.375 v 6.73438 h -0.8125 v -0.375 q -0.46875,0.48437 -1.20312,0.48437 z m 0.10937,-0.75 q 0.70313,0 1.09375,-0.64062 v -2.25 q -0.39062,-0.59375 -1.09375,-0.59375 -0.60937,0 -0.9375,0.45312 -0.32812,0.4375 -0.32812,1.28125 0,0.76563 0.34375,1.26563 0.34375,0.48437 0.92187,0.48437 z m 6.16425,0.64063 v -0.4375 q -0.57812,0.54687 -1.34375,0.54687 -0.75,0 -1.20312,-0.40625 -0.45313,-0.42187 -0.45313,-1.1875 0,-0.78125 0.5,-1.17187 0.51563,-0.40625 1.28125,-0.40625 0.6875,0 1.21875,0.29687 v -0.32812 q 0,-0.59375 -0.26562,-0.82813 -0.26563,-0.25 -0.76563,-0.25 -0.71875,0 -1.39062,0.48438 l -0.23438,-0.6875 q 0.76563,-0.5 1.73438,-0.5 1.6875,0 1.6875,1.71875 v 3.15625 z m -1.21875,-0.60938 q 0.6875,0 1.21875,-0.625 v -0.8125 q -0.5,-0.32812 -1.10937,-0.32812 -0.5,0 -0.8125,0.23437 -0.3125,0.21875 -0.3125,0.64063 0,0.40625 0.26562,0.65625 0.26563,0.23437 0.75,0.23437 z m 4.68787,0.71875 q -1.01563,0 -1.01563,-1.14062 v -3.03125 h -0.76562 v -0.70313 h 0.76562 v -1.57812 l 0.8125,-0.39063 v 1.96875 h 1.1875 v 0.70313 h -1.1875 v 2.76562 q 0,0.3125 0.10938,0.48438 0.10937,0.17187 0.39062,0.17187 0.3125,0 0.70313,-0.25 l -0.0937,0.78125 q -0.40625,0.21875 -0.90625,0.21875 z m 4.03558,0 q -0.96875,0 -1.54688,-0.6875 -0.5625,-0.70312 -0.5625,-1.8125 0,-1.15625 0.57813,-1.8125 0.57812,-0.67187 1.53125,-0.67187 0.85937,0 1.40625,0.57812 0.5625,0.5625 0.5625,1.6875 0,0.26563 -0.0312,0.53125 H 240.603 q 0.0469,0.65625 0.40625,1.0625 0.35937,0.39063 0.89062,0.39063 0.60938,0 1.03125,-0.42188 l 0.5,0.54688 q -0.625,0.60937 -1.54687,0.60937 z m -1.29688,-2.875 h 2.45313 q -0.0156,-0.73437 -0.35938,-1.0625 -0.34375,-0.32812 -0.79687,-0.32812 -0.54688,0 -0.90625,0.35937 -0.34375,0.34375 -0.39063,1.03125 z" />
  <path
     style="fill:#155b54;fill-rule:evenodd"
     inkscape:connector-curvature="0"
     id="path85"
     d="m 101.03055,293.11279 v 0 c 0,-18.96915 15.31976,-34.34665 34.21765,-34.34665 v 0 c 9.07507,0 17.77847,3.61865 24.19553,10.05988 6.41705,6.44125 10.02209,15.17746 10.02209,24.28677 v 0 c 0,18.96912 -15.31973,34.34665 -34.21762,34.34665 v 0 c -18.89789,0 -34.21765,-15.37753 -34.21765,-34.34665 z" />
  <path
     style="fill:#000000;fill-opacity:0;fill-rule:evenodd"
     inkscape:connector-curvature="0"
     id="path87"
     d="m 105.75862,264.69491 h 58.15652 v 56.06161 h -58.15652 z" />
  <path
     style="fill:#ffffff;fill-rule:nonzero"
     inkscape:connector-curvature="0"
     id="path89"
     d="m 116.88795,275.65447 h 1.78125 q 0.79687,0 1.39062,0.28125 0.60938,0.28125 0.95313,0.76562 0.35937,0.46875 0.51562,1.03125 0.17188,0.54688 0.17188,1.1875 0,0.60938 -0.15625,1.15625 -0.15625,0.54688 -0.5,1.03125 -0.32813,0.48438 -0.95313,0.78125 -0.625,0.29688 -1.46875,0.29688 h -1.73437 z m 1.84375,5.78125 q 0.57812,0 1,-0.21875 0.4375,-0.21875 0.67187,-0.59375 0.23438,-0.39063 0.34375,-0.8125 0.10938,-0.42188 0.10938,-0.89063 0,-0.67187 -0.20313,-1.21875 -0.1875,-0.54687 -0.67187,-0.92187 -0.46875,-0.375 -1.15625,-0.375 h -1.14063 v 5.03125 z m 6.20554,0.85937 q -0.96875,0 -1.54688,-0.6875 -0.5625,-0.70312 -0.5625,-1.8125 0,-1.15625 0.57813,-1.8125 0.57812,-0.67187 1.53125,-0.67187 0.85937,0 1.40625,0.57812 0.5625,0.5625 0.5625,1.6875 0,0.26563 -0.0312,0.53125 h -3.21875 q 0.0469,0.65625 0.40625,1.0625 0.35937,0.39063 0.89062,0.39063 0.60938,0 1.03125,-0.42188 l 0.5,0.54688 q -0.625,0.60937 -1.54687,0.60937 z m -1.29688,-2.875 h 2.45313 q -0.0156,-0.73437 -0.35938,-1.0625 -0.34375,-0.32812 -0.79687,-0.32812 -0.54688,0 -0.90625,0.35937 -0.34375,0.34375 -0.39063,1.03125 z m 6.51852,2.875 q -0.75,0 -1.23437,-0.5625 v 1.95313 l -0.79688,0.39062 v -6.65625 h 0.79688 v 0.40625 q 0.51562,-0.51562 1.23437,-0.51562 0.90625,0 1.4375,0.67187 0.53125,0.67188 0.53125,1.8125 0,1.17188 -0.54687,1.84375 -0.54688,0.65625 -1.42188,0.65625 z m -0.10937,-0.75 q 0.59375,0 0.92187,-0.45312 0.32813,-0.45313 0.32813,-1.29688 0,-0.79687 -0.34375,-1.26562 -0.32813,-0.46875 -0.90625,-0.46875 -0.75,0 -1.125,0.64062 v 2.20313 q 0.5,0.64062 1.125,0.64062 z m 3.38608,0.64063 v -6.35938 l 0.79687,-0.375 v 6.73438 z m 5.75647,-0.54688 q -0.5625,0.65625 -1.54688,0.65625 -0.96875,0 -1.53125,-0.65625 -0.5625,-0.67187 -0.5625,-1.82812 0,-1.17188 0.5625,-1.82813 0.5625,-0.67187 1.53125,-0.67187 0.98438,0 1.54688,0.67187 0.5625,0.65625 0.5625,1.82813 0,1.15625 -0.5625,1.82812 z m -2.48438,-0.54687 q 0.34375,0.45312 0.9375,0.45312 0.60938,0 0.95313,-0.45312 0.34375,-0.46875 0.34375,-1.29688 0,-0.8125 -0.34375,-1.26562 -0.34375,-0.46875 -0.95313,-0.46875 -0.59375,0 -0.9375,0.46875 -0.34375,0.45312 -0.34375,1.28125 0,0.8125 0.34375,1.28125 z m 4.89258,2.90625 0.73438,-1.9375 -1.76563,-4.64063 h 0.8125 l 1.17188,3.25 q 0.0781,0.15625 0.15625,0.45313 0.0781,-0.29688 0.15625,-0.45313 l 1.20312,-3.25 h 0.82813 l -2.46875,6.57813 z m 8.16727,-1.70313 q -0.82813,0 -1.35938,-0.48437 -0.51562,-0.5 -0.51562,-1.3125 0,-0.6875 0.39062,-1.14063 0.39063,-0.45312 1.125,-0.85937 -0.40625,-0.51563 -0.57812,-0.82813 -0.17188,-0.32812 -0.17188,-0.70312 0,-0.65625 0.45313,-1.03125 0.45312,-0.39063 1.10937,-0.39063 0.67188,0 1.09375,0.40625 0.4375,0.40625 0.4375,1.03125 0,0.51563 -0.3125,0.90625 -0.3125,0.375 -0.89062,0.75 l 1.21875,1.46875 q 0.21875,-0.48437 0.26562,-0.98437 h 0.76563 q -0.0312,0.84375 -0.48438,1.625 l 1.20313,1.4375 h -1.0625 l -0.64063,-0.78125 q -0.84375,0.89062 -2.04687,0.89062 z m 0.4375,-6.03125 q -0.34375,0 -0.5625,0.1875 -0.20313,0.1875 -0.20313,0.51563 0,0.15625 0.0937,0.35937 0.0937,0.1875 0.20313,0.34375 0.125,0.15625 0.35937,0.4375 0.89063,-0.51562 0.89063,-1.07812 0,-0.34375 -0.23438,-0.54688 -0.21875,-0.21875 -0.54687,-0.21875 z m -0.29688,5.28125 q 0.78125,0 1.40625,-0.73437 l -1.45312,-1.76563 q -0.57813,0.34375 -0.85938,0.67188 -0.28125,0.32812 -0.28125,0.73437 0,0.48438 0.32813,0.79688 0.32812,0.29687 0.85937,0.29687 z" />
  <path
     style="fill:#ffffff;fill-rule:nonzero"
     inkscape:connector-curvature="0"
     id="path91"
     d="m 120.35335,295.18572 v -6.53125 h 2.5 q 0.5625,0 0.98438,0.17187 0.42187,0.17188 0.65625,0.45313 0.23437,0.28125 0.34375,0.625 0.10937,0.32812 0.10937,0.70312 0,0.78125 -0.53125,1.375 -0.51562,0.57813 -1.5625,0.57813 h -1.70312 v 2.625 z m 2.54688,-3.375 q 0.64062,0 0.9375,-0.34375 0.29687,-0.35938 0.29687,-0.85938 0,-0.46875 -0.29687,-0.82812 -0.28125,-0.375 -0.9375,-0.375 h -1.75 v 2.40625 z m 6.07986,3.375 v -0.45313 q -0.4375,0.5625 -1.20313,0.5625 -0.875,0 -1.3125,-0.5 -0.42187,-0.5 -0.42187,-1.625 v -2.75 h 0.8125 v 2.875 q 0,0.64063 0.26562,0.95313 0.28125,0.29687 0.75,0.29687 1.10938,0 1.10938,-1.23437 v -2.89063 h 0.8125 v 4.76563 z m 4.39236,0.10937 q -0.6875,0 -1.23437,-0.51562 v 0.40625 h -0.79688 v -6.35938 l 0.79688,-0.375 v 2.375 q 0.48437,-0.51562 1.20312,-0.51562 0.89063,0 1.42188,0.67187 0.54687,0.65625 0.54687,1.8125 0,1.20313 -0.51562,1.85938 -0.51563,0.64062 -1.42188,0.64062 z m -0.10937,-0.75 q 0.59375,0 0.90625,-0.45312 0.3125,-0.46875 0.3125,-1.29688 0,-0.84375 -0.3125,-1.28125 -0.3125,-0.45312 -0.90625,-0.45312 -0.375,0 -0.6875,0.20312 -0.29688,0.1875 -0.4375,0.42188 v 2.21875 q 0.1875,0.29687 0.48437,0.46875 0.29688,0.17187 0.64063,0.17187 z m 3.3674,0.64063 v -6.35938 l 0.79688,-0.375 v 6.73438 z m 3.16272,-5.78125 q -0.14063,0.14062 -0.35938,0.14062 -0.21875,0 -0.35937,-0.14062 -0.14063,-0.15625 -0.14063,-0.35938 0,-0.21875 0.14063,-0.35937 0.15625,-0.15625 0.35937,-0.15625 0.21875,0 0.35938,0.15625 0.15625,0.14062 0.15625,0.35937 0,0.21875 -0.15625,0.35938 z m -0.76563,5.78125 v -4.76563 h 0.8125 v 4.76563 z m 3.77558,0.10937 q -0.51563,0 -0.98438,-0.21875 -0.45312,-0.21875 -0.75,-0.57812 l 0.57813,-0.5 q 0.53125,0.57812 1.17187,0.57812 0.40625,0 0.64063,-0.15625 0.25,-0.15625 0.25,-0.45312 0,-0.23438 -0.1875,-0.40625 -0.17188,-0.1875 -0.35938,-0.26563 -0.1875,-0.0937 -0.54687,-0.23437 -0.73438,-0.26563 -1.10938,-0.59375 -0.375,-0.34375 -0.375,-0.90625 0,-0.57813 0.45313,-0.90625 0.45312,-0.34375 1.15625,-0.34375 1,0 1.60937,0.71875 l -0.5625,0.46875 q -0.4375,-0.46875 -1.04687,-0.46875 -0.375,0 -0.59375,0.14062 -0.20313,0.14063 -0.20313,0.39063 0,0.14062 0.0625,0.26562 0.0781,0.10938 0.25,0.21875 0.1875,0.0937 0.29688,0.15625 0.10937,0.0469 0.39062,0.15625 0.76563,0.26563 1.15625,0.625 0.39063,0.34375 0.39063,0.96875 0,0.625 -0.45313,0.98438 -0.45312,0.35937 -1.23437,0.35937 z m 2.96866,-0.10937 v -6.35938 l 0.79687,-0.375 v 2.46875 q 0.45313,-0.60937 1.23438,-0.60937 0.84375,0 1.28125,0.51562 0.4375,0.5 0.4375,1.60938 v 2.75 h -0.8125 v -2.875 q 0,-0.65625 -0.28125,-0.95313 -0.28125,-0.29687 -0.75,-0.29687 -1.10938,0 -1.10938,1.21875 v 2.90625 z" />
  <path
     style="fill:#ffffff;fill-rule:nonzero"
     inkscape:connector-curvature="0"
     id="path93"
     d="m 126.05285,309.40447 q -1.125,-1.5 -1.125,-3.875 0,-2.5 1.23438,-3.98438 h 0.78125 q -0.40625,0.48438 -0.8125,1.5625 -0.40625,1.07813 -0.40625,2.42188 0,0.95312 0.23437,1.84375 0.23438,0.89062 0.4375,1.29687 0.21875,0.40625 0.45313,0.73438 z m 6.37143,-1.21875 -0.5625,-1.59375 h -2.59375 l -0.54688,1.59375 h -0.85937 l 2.32812,-6.53125 h 0.75 l 2.3125,6.53125 z m -0.8125,-2.3125 -0.84375,-2.42188 q -0.15625,-0.45312 -0.20313,-0.65625 -0.10937,0.35938 -0.20312,0.65625 l -0.84375,2.42188 z m 3.03693,2.3125 v -6.53125 h 2.5 q 0.5625,0 0.98437,0.17187 0.42188,0.17188 0.65625,0.45313 0.23438,0.28125 0.34375,0.625 0.10938,0.32812 0.10938,0.70312 0,0.78125 -0.53125,1.375 -0.51563,0.57813 -1.5625,0.57813 h -1.70313 v 2.625 z m 2.54687,-3.375 q 0.64063,0 0.9375,-0.34375 0.29688,-0.35938 0.29688,-0.85938 0,-0.46875 -0.29688,-0.82812 -0.28125,-0.375 -0.9375,-0.375 h -1.75 v 2.40625 z m 3.34549,3.375 v -6.53125 h 0.8125 v 6.53125 z m 2.28653,1.21875 q 0.23437,-0.32813 0.4375,-0.73438 0.20312,-0.40625 0.4375,-1.29687 0.25,-0.89063 0.25,-1.84375 0,-1.34375 -0.42188,-2.42188 -0.40625,-1.07812 -0.79687,-1.5625 h 0.78125 q 1.23437,1.48438 1.23437,3.98438 0,2.375 -1.14062,3.875 z" />
  <path
     style="fill:#155b54;fill-rule:evenodd"
     inkscape:connector-curvature="0"
     id="path95"
     d="m 35.826147,235.62572 v 0 c 0,-18.96912 15.31976,-34.34665 34.21762,-34.34665 v 0 c 9.0751,0 17.77847,3.61865 24.19553,10.05991 6.417053,6.44125 10.022123,15.17746 10.022123,24.28674 v 0 c 0,18.96915 -15.319763,34.34668 -34.217653,34.34668 v 0 c -18.89786,0 -34.21762,-15.37753 -34.21762,-34.34668 z" />
  <path
     style="fill:#000000;fill-opacity:0;fill-rule:evenodd"
     inkscape:connector-curvature="0"
     id="path97"
     d="m 40.554187,207.20789 h 58.15655 v 56.06162 h -58.15655 z" />
  <path
     style="fill:#ffffff;fill-rule:nonzero"
     inkscape:connector-curvature="0"
     id="path99"
     d="m 53.556407,231.19869 -2.23437,-6.53125 h 0.85937 l 1.5625,4.71875 q 0.17188,0.57812 0.1875,0.67187 0.0469,-0.1875 0.1875,-0.67187 l 1.51563,-4.71875 h 0.875 l -2.23438,6.53125 z m 4.94131,-5.78125 q -0.14062,0.14062 -0.35937,0.14062 -0.21875,0 -0.35938,-0.14062 -0.14062,-0.15625 -0.14062,-0.35938 0,-0.21875 0.14062,-0.35937 0.15625,-0.15625 0.35938,-0.15625 0.21875,0 0.35937,0.15625 0.15625,0.14062 0.15625,0.35937 0,0.21875 -0.15625,0.35938 z m -0.76562,5.78125 v -4.76563 h 0.8125 v 4.76563 z m 3.7756,0.10937 q -0.51562,0 -0.98437,-0.21875 -0.45313,-0.21875 -0.75,-0.57812 l 0.57812,-0.5 q 0.53125,0.57812 1.17188,0.57812 0.40625,0 0.64062,-0.15625 0.25,-0.15625 0.25,-0.45312 0,-0.23438 -0.1875,-0.40625 -0.17187,-0.1875 -0.35937,-0.26563 -0.1875,-0.0937 -0.54688,-0.23437 -0.73437,-0.26563 -1.10937,-0.59375 -0.375,-0.34375 -0.375,-0.90625 0,-0.57813 0.45312,-0.90625 0.45313,-0.34375 1.15625,-0.34375 1,0 1.60938,0.71875 l -0.5625,0.46875 q -0.4375,-0.46875 -1.04688,-0.46875 -0.375,0 -0.59375,0.14062 -0.20312,0.14063 -0.20312,0.39063 0,0.14062 0.0625,0.26562 0.0781,0.10938 0.25,0.21875 0.1875,0.0937 0.29687,0.15625 0.10938,0.0469 0.39063,0.15625 0.76562,0.26563 1.15625,0.625 0.39062,0.34375 0.39062,0.96875 0,0.625 -0.45312,0.98438 -0.45313,0.35937 -1.23438,0.35937 z m 5.85926,-0.10937 v -0.45313 q -0.4375,0.5625 -1.20313,0.5625 -0.875,0 -1.3125,-0.5 -0.42187,-0.5 -0.42187,-1.625 v -2.75 h 0.8125 v 2.875 q 0,0.64063 0.26562,0.95313 0.28125,0.29687 0.75,0.29687 1.10938,0 1.10938,-1.23437 v -2.89063 h 0.8125 v 4.76563 z m 5.07986,0 v -0.4375 q -0.57812,0.54687 -1.34375,0.54687 -0.75,0 -1.20312,-0.40625 -0.45313,-0.42187 -0.45313,-1.1875 0,-0.78125 0.5,-1.17187 0.51563,-0.40625 1.28125,-0.40625 0.6875,0 1.21875,0.29687 v -0.32812 q 0,-0.59375 -0.26562,-0.82813 -0.26563,-0.25 -0.76563,-0.25 -0.71875,0 -1.39062,0.48438 l -0.23438,-0.6875 q 0.76563,-0.5 1.73438,-0.5 1.68753,0 1.68753,1.71875 v 3.15625 z m -1.21875,-0.60938 q 0.6875,0 1.21875,-0.625 v -0.8125 q -0.5,-0.32812 -1.10937,-0.32812 -0.5,0 -0.8125,0.23437 -0.3125,0.21875 -0.3125,0.64063 0,0.40625 0.26562,0.65625 0.26563,0.23437 0.75,0.23437 z m 3.45349,0.60938 v -6.35938 l 0.79688,-0.375 v 6.73438 z m 3.16272,-5.78125 q -0.14062,0.14062 -0.35937,0.14062 -0.21875,0 -0.35938,-0.14062 -0.14062,-0.15625 -0.14062,-0.35938 0,-0.21875 0.14062,-0.35937 0.15625,-0.15625 0.35938,-0.15625 0.21875,0 0.35937,0.15625 0.15625,0.14062 0.15625,0.35937 0,0.21875 -0.15625,0.35938 z m -0.76562,5.78125 v -4.76563 h 0.8125 v 4.76563 z m 2.18185,0 v -0.59375 l 2.46875,-3.45313 h -2.28125 v -0.71875 h 3.29688 v 0.57813 l -2.48438,3.45312 h 2.48438 v 0.73438 z m 6.72632,0.10937 q -0.96875,0 -1.54688,-0.6875 -0.5625,-0.70312 -0.5625,-1.8125 0,-1.15625 0.57813,-1.8125 0.57812,-0.67187 1.53125,-0.67187 0.85937,0 1.40625,0.57812 0.5625,0.5625 0.5625,1.6875 0,0.26563 -0.0312,0.53125 h -3.21875 q 0.0469,0.65625 0.40625,1.0625 0.35937,0.39063 0.89062,0.39063 0.60938,0 1.03125,-0.42188 l 0.5,0.54688 q -0.625,0.60937 -1.54687,0.60937 z m -1.29688,-2.875 h 2.45313 q -0.0156,-0.73437 -0.35938,-1.0625 -0.34375,-0.32812 -0.79687,-0.32812 -0.54688,0 -0.90625,0.35937 -0.34375,0.34375 -0.39063,1.03125 z" />
  <path
     style="fill:#ffffff;fill-rule:nonzero"
     inkscape:connector-curvature="0"
     id="path101"
     d="m 53.351207,244.30807 q -0.82812,0 -1.35937,-0.48437 -0.51563,-0.5 -0.51563,-1.3125 0,-0.6875 0.39063,-1.14063 0.39062,-0.45312 1.125,-0.85937 -0.40625,-0.51563 -0.57813,-0.82813 -0.17187,-0.32812 -0.17187,-0.70312 0,-0.65625 0.45312,-1.03125 0.45313,-0.39063 1.10938,-0.39063 0.67187,0 1.09375,0.40625 0.4375,0.40625 0.4375,1.03125 0,0.51563 -0.3125,0.90625 -0.3125,0.375 -0.89063,0.75 l 1.21875,1.46875 q 0.21875,-0.48437 0.26563,-0.98437 h 0.76562 q -0.0312,0.84375 -0.48437,1.625 l 1.20312,1.4375 h -1.0625 l -0.64062,-0.78125 q -0.84375,0.89062 -2.04688,0.89062 z m 0.4375,-6.03125 q -0.34375,0 -0.5625,0.1875 -0.20312,0.1875 -0.20312,0.51563 0,0.15625 0.0937,0.35937 0.0937,0.1875 0.20312,0.34375 0.125,0.15625 0.35938,0.4375 0.89062,-0.51562 0.89062,-1.07812 0,-0.34375 -0.23437,-0.54688 -0.21875,-0.21875 -0.54688,-0.21875 z m -0.29687,5.28125 q 0.78125,0 1.40625,-0.73437 l -1.45313,-1.76563 q -0.57812,0.34375 -0.85937,0.67188 -0.28125,0.32812 -0.28125,0.73437 0,0.48438 0.32812,0.79688 0.32813,0.29687 0.85938,0.29687 z m 6.91348,0.64063 v -6.53125 h 2.5625 q 1.09375,0 1.57812,0.53125 0.48438,0.53125 0.48438,1.32812 0,0.64063 -0.375,1.15625 -0.375,0.5 -1.14063,0.65625 l 1.39063,2.85938 h -0.90625 l -1.34375,-2.79688 h -1.45313 v 2.79688 z m 0.79687,-3.54688 h 1.78125 q 0.64063,0 0.9375,-0.3125 0.29688,-0.32812 0.29688,-0.79687 0,-0.45313 -0.29688,-0.78125 -0.28125,-0.34375 -0.9375,-0.34375 h -1.78125 z m 7.09384,3.65625 q -0.96875,0 -1.54687,-0.6875 -0.5625,-0.70312 -0.5625,-1.8125 0,-1.15625 0.57812,-1.8125 0.57813,-0.67187 1.53125,-0.67187 0.85938,0 1.40625,0.57812 0.5625,0.5625 0.5625,1.6875 0,0.26563 -0.0312,0.53125 h -3.21875 q 0.0469,0.65625 0.40625,1.0625 0.35938,0.39063 0.89063,0.39063 0.60937,0 1.03125,-0.42188 l 0.5,0.54688 q -0.625,0.60937 -1.54688,0.60937 z m -1.29687,-2.875 h 2.45312 q -0.0156,-0.73437 -0.35937,-1.0625 -0.34375,-0.32812 -0.79688,-0.32812 -0.54687,0 -0.90625,0.35937 -0.34375,0.34375 -0.39062,1.03125 z m 6.51852,2.875 q -0.75,0 -1.23437,-0.5625 v 1.95313 l -0.79688,0.39062 v -6.65625 h 0.79688 v 0.40625 q 0.51562,-0.51562 1.23437,-0.51562 0.90625,0 1.4375,0.67187 0.53125,0.67188 0.53125,1.8125 0,1.17188 -0.54687,1.84375 -0.54688,0.65625 -1.42188,0.65625 z m -0.10937,-0.75 q 0.59375,0 0.92187,-0.45312 0.32813,-0.45313 0.32813,-1.29688 0,-0.79687 -0.34375,-1.26562 -0.32813,-0.46875 -0.90625,-0.46875 -0.75,0 -1.125,0.64062 v 2.20313 q 0.5,0.64062 1.125,0.64062 z m 6.69858,0.0937 q -0.5625,0.65625 -1.54688,0.65625 -0.96875,0 -1.53125,-0.65625 -0.5625,-0.67187 -0.5625,-1.82812 0,-1.17188 0.5625,-1.82813 0.5625,-0.67187 1.53125,-0.67187 0.98438,0 1.54688,0.67187 0.5625,0.65625 0.5625,1.82813 0,1.15625 -0.5625,1.82812 z m -2.48438,-0.54687 q 0.34375,0.45312 0.9375,0.45312 0.60938,0 0.95313,-0.45312 0.34375,-0.46875 0.34375,-1.29688 0,-0.8125 -0.34375,-1.26562 -0.34375,-0.46875 -0.95313,-0.46875 -0.59375,0 -0.9375,0.46875 -0.34375,0.45312 -0.34375,1.28125 0,0.8125 0.34375,1.28125 z m 4.33008,1.09375 v -4.76563 h 0.79687 v 0.625 q 0.34375,-0.73437 1.14063,-0.73437 0.4375,0 0.73437,0.23437 l -0.125,0.76563 q -0.29687,-0.20313 -0.67187,-0.20313 -0.42188,0 -0.75,0.32813 -0.32813,0.32812 -0.32813,1.0625 v 2.6875 z m 4.90991,0.10937 q -1.01562,0 -1.01562,-1.14062 v -3.03125 h -0.76563 v -0.70313 h 0.76563 v -1.57812 l 0.8125,-0.39063 v 1.96875 h 1.1875 v 0.70313 h -1.1875 v 2.76562 q 0,0.3125 0.10937,0.48438 0.10938,0.17187 0.39063,0.17187 0.3125,0 0.70312,-0.25 l -0.0937,0.78125 q -0.40625,0.21875 -0.90625,0.21875 z" />
  <path
     style="fill:#155b54;fill-rule:evenodd"
     inkscape:connector-curvature="0"
     id="path103"
     d="m 19.796447,152.33263 v 0 c 0,-18.96915 15.31976,-34.34666 34.21765,-34.34666 v 0 c 9.07507,0 17.77847,3.61865 24.19553,10.0599 6.41705,6.44124 10.02209,15.17745 10.02209,24.28676 v 0 c 0,18.96912 -15.31976,34.34665 -34.21762,34.34665 v 0 c -18.89789,0 -34.21765,-15.37753 -34.21765,-34.34665 z" />
  <path
     style="fill:#000000;fill-opacity:0;fill-rule:evenodd"
     inkscape:connector-curvature="0"
     id="path105"
     d="m 24.524517,123.91477 h 58.15652 v 56.0616 h -58.15652 z" />
  <path
     style="fill:#ffffff;fill-rule:nonzero"
     inkscape:connector-curvature="0"
     id="path107"
     d="m 45.401747,134.90557 v -6.53125 h 2.5 q 0.5625,0 0.98437,0.17187 0.42188,0.17188 0.65625,0.45313 0.23438,0.28125 0.34375,0.625 0.10938,0.32812 0.10938,0.70312 0,0.78125 -0.53125,1.375 -0.51563,0.57813 -1.5625,0.57813 h -1.70313 v 2.625 z m 2.54687,-3.375 q 0.64063,0 0.9375,-0.34375 0.29688,-0.35938 0.29688,-0.85938 0,-0.46875 -0.29688,-0.82812 -0.28125,-0.375 -0.9375,-0.375 h -1.75 v 2.40625 z m 3.18921,3.375 v -4.76563 h 0.79688 v 0.625 q 0.34375,-0.73437 1.14062,-0.73437 0.4375,0 0.73438,0.23437 l -0.125,0.76563 q -0.29688,-0.20313 -0.67188,-0.20313 -0.42187,0 -0.75,0.32813 -0.32812,0.32812 -0.32812,1.0625 v 2.6875 z m 5.45679,0.10937 q -0.96875,0 -1.54687,-0.6875 -0.5625,-0.70312 -0.5625,-1.8125 0,-1.15625 0.57812,-1.8125 0.57813,-0.67187 1.53125,-0.67187 0.85938,0 1.40625,0.57812 0.5625,0.5625 0.5625,1.6875 0,0.26563 -0.0312,0.53125 h -3.21875 q 0.0469,0.65625 0.40625,1.0625 0.35938,0.39063 0.89063,0.39063 0.60937,0 1.03125,-0.42188 l 0.5,0.54688 q -0.625,0.60937 -1.54688,0.60937 z m -1.29687,-2.875 h 2.45312 q -0.0156,-0.73437 -0.35937,-1.0625 -0.34375,-0.32812 -0.79688,-0.32812 -0.54687,0 -0.90625,0.35937 -0.34375,0.34375 -0.39062,1.03125 z m 4.48727,0.375 v -0.78125 h 2.17188 v 0.78125 z" />
  <path
     style="fill:#ffffff;fill-rule:nonzero"
     inkscape:connector-curvature="0"
     id="path109"
     d="m 38.340347,141.37432 h 1.78125 q 0.79687,0 1.39062,0.28125 0.60938,0.28125 0.95313,0.76562 0.35937,0.46875 0.51562,1.03125 0.17188,0.54688 0.17188,1.1875 0,0.60938 -0.15625,1.15625 -0.15625,0.54688 -0.5,1.03125 -0.32813,0.48438 -0.95313,0.78125 -0.625,0.29688 -1.46875,0.29688 h -1.73437 z m 1.84375,5.78125 q 0.57812,0 1,-0.21875 0.4375,-0.21875 0.67187,-0.59375 0.23438,-0.39063 0.34375,-0.8125 0.10938,-0.42188 0.10938,-0.89063 0,-0.67187 -0.20313,-1.21875 -0.1875,-0.54687 -0.67187,-0.92187 -0.46875,-0.375 -1.15625,-0.375 h -1.14063 v 5.03125 z m 6.20554,0.85937 q -0.96875,0 -1.54688,-0.6875 -0.5625,-0.70312 -0.5625,-1.8125 0,-1.15625 0.57813,-1.8125 0.57812,-0.67187 1.53125,-0.67187 0.85937,0 1.40625,0.57812 0.5625,0.5625 0.5625,1.6875 0,0.26563 -0.0312,0.53125 h -3.21875 q 0.0469,0.65625 0.40625,1.0625 0.35937,0.39063 0.89062,0.39063 0.60938,0 1.03125,-0.42188 l 0.5,0.54688 q -0.625,0.60937 -1.54687,0.60937 z m -1.29688,-2.875 h 2.45313 q -0.0156,-0.73437 -0.35938,-1.0625 -0.34375,-0.32812 -0.79687,-0.32812 -0.54688,0 -0.90625,0.35937 -0.34375,0.34375 -0.39063,1.03125 z m 5.56543,-1.29687 v 4.0625 h -0.8125 v -4.0625 h -0.73437 v -0.70313 h 0.73437 v -0.79687 q 0,-0.57813 0.29688,-0.82813 0.29687,-0.25 0.73437,-0.25 0.46875,0 0.89063,0.21875 v 0.6875 q -0.39063,-0.17187 -0.6875,-0.17187 -0.25,0 -0.34375,0.125 -0.0781,0.125 -0.0781,0.35937 v 0.65625 h 1.10938 v 0.70313 z m 2.79376,-1.71875 q -0.14062,0.14062 -0.35937,0.14062 -0.21875,0 -0.35938,-0.14062 -0.14062,-0.15625 -0.14062,-0.35938 0,-0.21875 0.14062,-0.35937 0.15625,-0.15625 0.35938,-0.15625 0.21875,0 0.35937,0.15625 0.15625,0.14062 0.15625,0.35937 0,0.21875 -0.15625,0.35938 z m -0.76562,5.78125 v -4.76563 h 0.8125 v 4.76563 z m 5.30682,0 v -2.875 q 0,-0.65625 -0.28125,-0.95313 -0.28125,-0.29687 -0.75,-0.29687 -1.10937,0 -1.10937,1.21875 v 2.90625 h -0.79688 v -4.76563 h 0.79688 v 0.48438 q 0.45312,-0.59375 1.23437,-0.59375 0.84375,0 1.28125,0.51562 0.4375,0.5 0.4375,1.60938 v 2.75 z m 4.14237,0.10937 q -0.96875,0 -1.54688,-0.6875 -0.5625,-0.70312 -0.5625,-1.8125 0,-1.15625 0.57813,-1.8125 0.57812,-0.67187 1.53125,-0.67187 0.85937,0 1.40625,0.57812 0.5625,0.5625 0.5625,1.6875 0,0.26563 -0.0312,0.53125 h -3.21875 q 0.0469,0.65625 0.40625,1.0625 0.35937,0.39063 0.89062,0.39063 0.60938,0 1.03125,-0.42188 l 0.5,0.54688 q -0.625,0.60937 -1.54687,0.60937 z m -1.29688,-2.875 h 2.45313 q -0.0156,-0.73437 -0.35938,-1.0625 -0.34375,-0.32812 -0.79687,-0.32812 -0.54688,0 -0.90625,0.35937 -0.34375,0.34375 -0.39063,1.03125 z m 6.17481,2.875 q -0.90625,0 -1.4375,-0.67187 -0.53125,-0.67188 -0.53125,-1.82813 0,-1.15625 0.53125,-1.8125 0.53125,-0.67187 1.4375,-0.67187 0.6875,0 1.20312,0.4375 v -1.92188 l 0.8125,-0.375 v 6.73438 h -0.8125 v -0.375 q -0.46875,0.48437 -1.20312,0.48437 z m 0.10937,-0.75 q 0.70313,0 1.09375,-0.64062 v -2.25 q -0.39062,-0.59375 -1.09375,-0.59375 -0.60937,0 -0.9375,0.45312 -0.32812,0.4375 -0.32812,1.28125 0,0.76563 0.34375,1.26563 0.34375,0.48437 0.92187,0.48437 z" />
  <path
     style="fill:#ffffff;fill-rule:nonzero"
     inkscape:connector-curvature="0"
     id="path111"
     d="m 47.480667,160.90557 h -0.79687 v -4.01563 q 0,-0.375 0.0156,-0.71875 -0.0937,0.26563 -0.29687,0.73438 l -1.78125,4.10937 -1.73438,-4.125 q -0.23437,-0.53125 -0.28125,-0.70312 0.0156,0.25 0.0156,0.70312 v 4.01563 h -0.79688 v -6.53125 h 0.75 l 1.90625,4.39062 0.15625,0.4375 q 0.0469,-0.10937 0.17188,-0.4375 l 1.90625,-4.39062 h 0.76562 z m 5.05298,-0.54688 q -0.5625,0.65625 -1.54688,0.65625 -0.96875,0 -1.53125,-0.65625 -0.5625,-0.67187 -0.5625,-1.82812 0,-1.17188 0.5625,-1.82813 0.5625,-0.67187 1.53125,-0.67187 0.98438,0 1.54688,0.67187 0.5625,0.65625 0.5625,1.82813 0,1.15625 -0.5625,1.82812 z m -2.48438,-0.54687 q 0.34375,0.45312 0.9375,0.45312 0.60938,0 0.95313,-0.45312 0.34375,-0.46875 0.34375,-1.29688 0,-0.8125 -0.34375,-1.26562 -0.34375,-0.46875 -0.95313,-0.46875 -0.59375,0 -0.9375,0.46875 -0.34375,0.45312 -0.34375,1.28125 0,0.8125 0.34375,1.28125 z m 6.01758,1.20312 q -0.90625,0 -1.4375,-0.67187 -0.53125,-0.67188 -0.53125,-1.82813 0,-1.15625 0.53125,-1.8125 0.53125,-0.67187 1.4375,-0.67187 0.6875,0 1.20313,0.4375 v -1.92188 l 0.8125,-0.375 v 6.73438 h -0.8125 v -0.375 q -0.46875,0.48437 -1.20313,0.48437 z m 0.10938,-0.75 q 0.70312,0 1.09375,-0.64062 v -2.25 q -0.39063,-0.59375 -1.09375,-0.59375 -0.60938,0 -0.9375,0.45312 -0.32813,0.4375 -0.32813,1.28125 0,0.76563 0.34375,1.26563 0.34375,0.48437 0.92188,0.48437 z m 5.27365,0.75 q -0.96875,0 -1.54688,-0.6875 -0.5625,-0.70312 -0.5625,-1.8125 0,-1.15625 0.57813,-1.8125 0.57812,-0.67187 1.53125,-0.67187 0.85937,0 1.40625,0.57812 0.5625,0.5625 0.5625,1.6875 0,0.26563 -0.0312,0.53125 h -3.21875 q 0.0469,0.65625 0.40625,1.0625 0.35937,0.39063 0.89062,0.39063 0.60938,0 1.03125,-0.42188 l 0.5,0.54688 q -0.625,0.60937 -1.54687,0.60937 z m -1.29688,-2.875 h 2.45313 q -0.0156,-0.73437 -0.35938,-1.0625 -0.34375,-0.32812 -0.79687,-0.32812 -0.54688,0 -0.90625,0.35937 -0.34375,0.34375 -0.39063,1.03125 z m 4.53418,2.76563 v -6.35938 l 0.79688,-0.375 v 6.73438 z" />
  <path
     style="fill:#ffffff;fill-rule:nonzero"
     inkscape:connector-curvature="0"
     id="path113"
     d="m 39.557647,173.90557 v -6.53125 h 0.79687 v 5.75 h 3.21875 v 0.78125 z m 5.83942,-5.78125 q -0.14063,0.14062 -0.35938,0.14062 -0.21875,0 -0.35937,-0.14062 -0.14063,-0.15625 -0.14063,-0.35938 0,-0.21875 0.14063,-0.35937 0.15625,-0.15625 0.35937,-0.15625 0.21875,0 0.35938,0.15625 0.15625,0.14062 0.15625,0.35937 0,0.21875 -0.15625,0.35938 z m -0.76563,5.78125 v -4.76563 h 0.8125 v 4.76563 z m 4.40061,0.10937 q -0.6875,0 -1.23438,-0.51562 v 0.40625 h -0.79687 v -6.35938 l 0.79687,-0.375 v 2.375 q 0.48438,-0.51562 1.20313,-0.51562 0.89062,0 1.42187,0.67187 0.54688,0.65625 0.54688,1.8125 0,1.20313 -0.51563,1.85938 -0.51562,0.64062 -1.42187,0.64062 z m -0.10938,-0.75 q 0.59375,0 0.90625,-0.45312 0.3125,-0.46875 0.3125,-1.29688 0,-0.84375 -0.3125,-1.28125 -0.3125,-0.45312 -0.90625,-0.45312 -0.375,0 -0.6875,0.20312 -0.29687,0.1875 -0.4375,0.42188 v 2.21875 q 0.1875,0.29687 0.48438,0.46875 0.29687,0.17187 0.64062,0.17187 z m 3.32053,0.64063 v -4.76563 h 0.79687 v 0.625 q 0.34375,-0.73437 1.14063,-0.73437 0.4375,0 0.73437,0.23437 l -0.125,0.76563 q -0.29687,-0.20313 -0.67187,-0.20313 -0.42188,0 -0.75,0.32813 -0.32813,0.32812 -0.32813,1.0625 v 2.6875 z m 6.34738,0 v -0.4375 q -0.57813,0.54687 -1.34375,0.54687 -0.75,0 -1.20313,-0.40625 -0.45312,-0.42187 -0.45312,-1.1875 0,-0.78125 0.5,-1.17187 0.51562,-0.40625 1.28125,-0.40625 0.6875,0 1.21875,0.29687 v -0.32812 q 0,-0.59375 -0.26563,-0.82813 -0.26562,-0.25 -0.76562,-0.25 -0.71875,0 -1.39063,0.48438 l -0.23437,-0.6875 q 0.76562,-0.5 1.73437,-0.5 1.6875,0 1.6875,1.71875 v 3.15625 z m -1.21875,-0.60938 q 0.6875,0 1.21875,-0.625 v -0.8125 q -0.5,-0.32812 -1.10938,-0.32812 -0.5,0 -0.8125,0.23437 -0.3125,0.21875 -0.3125,0.64063 0,0.40625 0.26563,0.65625 0.26562,0.23437 0.75,0.23437 z m 3.40661,0.60938 v -4.76563 h 0.79688 v 0.625 q 0.34375,-0.73437 1.14062,-0.73437 0.4375,0 0.73438,0.23437 l -0.125,0.76563 q -0.29688,-0.20313 -0.67188,-0.20313 -0.42187,0 -0.75,0.32813 -0.32812,0.32812 -0.32812,1.0625 v 2.6875 z m 4.19114,1.8125 0.73437,-1.9375 -1.76562,-4.64063 h 0.8125 l 1.17187,3.25 q 0.0781,0.15625 0.15625,0.45313 0.0781,-0.29688 0.15625,-0.45313 l 1.20313,-3.25 h 0.82812 l -2.46875,6.57813 z" />
  <path
     style="fill:#155b54;fill-rule:evenodd"
     inkscape:connector-curvature="0"
     id="path115"
     d="m 63.984267,78.941903 v 0 c 0,-18.96913 15.31976,-34.34666 34.21765,-34.34666 v 0 c 9.075073,0 17.778473,3.61865 24.195533,10.0599 6.41705,6.44126 10.02209,15.17746 10.02209,24.28676 v 0 c 0,18.96913 -15.31976,34.346647 -34.217623,34.346647 v 0 c -18.89789,0 -34.21765,-15.377517 -34.21765,-34.346647 z" />
  <path
     style="fill:#000000;fill-opacity:0;fill-rule:evenodd"
     inkscape:connector-curvature="0"
     id="path117"
     d="M 68.712327,50.524043 H 126.86885 V 106.58564 H 68.712327 Z" />
  <path
     style="fill:#ffffff;fill-rule:nonzero"
     inkscape:connector-curvature="0"
     id="path119"
     d="m 88.049147,74.514843 h -0.79688 v -4.01563 q 0,-0.375 0.0156,-0.71875 -0.0937,0.26563 -0.29688,0.73438 l -1.78125,4.10937 -1.73437,-4.125 q -0.23438,-0.53125 -0.28125,-0.70312 0.0156,0.25 0.0156,0.70312 v 4.01563 h -0.79687 v -6.53125 h 0.75 l 1.90625,4.39062 0.15625,0.4375 q 0.0469,-0.10937 0.17187,-0.4375 l 1.90625,-4.39062 h 0.76563 z m 5.05298,-0.54688 q -0.5625,0.65625 -1.54688,0.65625 -0.96875,0 -1.53125,-0.65625 -0.5625,-0.67187 -0.5625,-1.82812 0,-1.17188 0.5625,-1.82813 0.5625,-0.67187 1.53125,-0.67187 0.98438,0 1.54688,0.67187 0.5625,0.65625 0.5625,1.82813 0,1.15625 -0.5625,1.82812 z m -2.48438,-0.54687 q 0.34375,0.45312 0.9375,0.45312 0.60938,0 0.95313,-0.45312 0.34375,-0.46875 0.34375,-1.29688 0,-0.8125 -0.34375,-1.26562 -0.34375,-0.46875 -0.95313,-0.46875 -0.59375,0 -0.9375,0.46875 -0.34375,0.45312 -0.34375,1.28125 0,0.8125 0.34375,1.28125 z m 7.26761,1.09375 v -2.875 q 0,-0.65625 -0.28125,-0.95313 -0.28125,-0.29687 -0.75,-0.29687 -1.10937,0 -1.10937,1.21875 v 2.90625 h -0.79688 v -4.76563 h 0.79688 v 0.48438 q 0.45312,-0.59375 1.23437,-0.59375 0.84375,0 1.28125,0.51562 0.4375,0.5 0.4375,1.60938 v 2.75 z m 3.079873,-5.78125 q -0.14063,0.14062 -0.35938,0.14062 -0.21875,0 -0.35937,-0.14062 -0.14063,-0.15625 -0.14063,-0.35938 0,-0.21875 0.14063,-0.35937 0.15625,-0.15625 0.35937,-0.15625 0.21875,0 0.35938,0.15625 0.15625,0.14062 0.15625,0.35937 0,0.21875 -0.15625,0.35938 z m -0.76563,5.78125 v -4.76563 h 0.8125 v 4.76563 z m 3.65058,0.10937 q -1.01563,0 -1.01563,-1.14062 v -3.03125 h -0.76562 v -0.70313 h 0.76562 v -1.57812 l 0.8125,-0.39063 v 1.96875 h 1.1875 v 0.70313 h -1.1875 v 2.76562 q 0,0.3125 0.10938,0.48438 0.10937,0.17187 0.39062,0.17187 0.3125,0 0.70313,-0.25 l -0.0937,0.78125 q -0.40625,0.21875 -0.90625,0.21875 z m 5.56686,-0.65625 q -0.5625,0.65625 -1.54688,0.65625 -0.96875,0 -1.53125,-0.65625 -0.5625,-0.67187 -0.5625,-1.82812 0,-1.17188 0.5625,-1.82813 0.5625,-0.67187 1.53125,-0.67187 0.98438,0 1.54688,0.67187 0.5625,0.65625 0.5625,1.82813 0,1.15625 -0.5625,1.82812 z m -2.48438,-0.54687 q 0.34375,0.45312 0.9375,0.45312 0.60938,0 0.95313,-0.45312 0.34375,-0.46875 0.34375,-1.29688 0,-0.8125 -0.34375,-1.26562 -0.34375,-0.46875 -0.95313,-0.46875 -0.59375,0 -0.9375,0.46875 -0.34375,0.45312 -0.34375,1.28125 0,0.8125 0.34375,1.28125 z m 4.33008,1.09375 v -4.76563 h 0.79688 v 0.625 q 0.34375,-0.73437 1.14062,-0.73437 0.4375,0 0.73438,0.23437 l -0.125,0.76563 q -0.29688,-0.20313 -0.67188,-0.20313 -0.42187,0 -0.75,0.32813 -0.32812,0.32812 -0.32812,1.0625 v 2.6875 z" />
  <path
     style="fill:#ffffff;fill-rule:nonzero"
     inkscape:connector-curvature="0"
     id="path121"
     d="m 84.568947,87.624213 q -0.82812,0 -1.35937,-0.48438 -0.51563,-0.5 -0.51563,-1.3125 0,-0.6875 0.39063,-1.14062 0.39062,-0.45313 1.125,-0.85938 -0.40625,-0.51562 -0.57813,-0.82812 -0.17187,-0.32813 -0.17187,-0.70313 0,-0.65625 0.45312,-1.03125 0.45313,-0.39062 1.10938,-0.39062 0.67187,0 1.09375,0.40625 0.4375,0.40625 0.4375,1.03125 0,0.51562 -0.3125,0.90625 -0.3125,0.375 -0.89063,0.75 l 1.21875,1.46875 q 0.21875,-0.48438 0.26563,-0.98438 h 0.76562 q -0.0312,0.84375 -0.48437,1.625 l 1.20312,1.4375 h -1.0625 l -0.64062,-0.78125 q -0.84375,0.89063 -2.04688,0.89063 z m 0.4375,-6.03125 q -0.34375,0 -0.5625,0.1875 -0.20312,0.1875 -0.20312,0.51562 0,0.15625 0.0937,0.35938 0.0937,0.1875 0.20312,0.34375 0.125,0.15625 0.35938,0.4375 0.89062,-0.51563 0.89062,-1.07813 0,-0.34375 -0.23437,-0.54687 -0.21875,-0.21875 -0.54688,-0.21875 z m -0.29687,5.28125 q 0.78125,0 1.40625,-0.73438 l -1.45313,-1.76562 q -0.57812,0.34375 -0.85937,0.67187 -0.28125,0.32813 -0.28125,0.73438 0,0.48437 0.32812,0.79687 0.32813,0.29688 0.85938,0.29688 z m 11.02288,0.64062 -0.5625,-1.59375 h -2.59375 l -0.54687,1.59375 h -0.85938 l 2.32813,-6.53125 h 0.75 l 2.3125,6.53125 z m -0.8125,-2.3125 -0.84375,-2.42187 q -0.15625,-0.45313 -0.20312,-0.65625 -0.10938,0.35937 -0.20313,0.65625 l -0.84375,2.42187 z m 5.786933,2.3125 v -0.45312 q -0.4375,0.5625 -1.203133,0.5625 -0.875,0 -1.3125,-0.5 -0.42187,-0.5 -0.42187,-1.625 v -2.75 h 0.8125 v 2.875 q 0,0.64062 0.26562,0.95312 0.28125,0.29688 0.75,0.29688 1.109383,0 1.109383,-1.23438 v -2.89062 h 0.8125 v 4.76562 z m 4.04861,0.10938 q -0.90625,0 -1.4375,-0.67188 -0.53125,-0.67187 -0.53125,-1.82812 0,-1.15625 0.53125,-1.8125 0.53125,-0.67188 1.4375,-0.67188 0.6875,0 1.20313,0.4375 v -1.92187 l 0.8125,-0.375 v 6.73437 h -0.8125 v -0.375 q -0.46875,0.48438 -1.20313,0.48438 z m 0.10938,-0.75 q 0.70312,0 1.09375,-0.64063 v -2.25 q -0.39063,-0.59375 -1.09375,-0.59375 -0.60938,0 -0.9375,0.45313 -0.32813,0.4375 -0.32813,1.28125 0,0.76562 0.34375,1.26562 0.34375,0.48438 0.92188,0.48438 z m 4.21115,-5.14063 q -0.14063,0.14063 -0.35938,0.14063 -0.21875,0 -0.35937,-0.14063 -0.14063,-0.15625 -0.14063,-0.35937 0,-0.21875 0.14063,-0.35938 0.15625,-0.15625 0.35937,-0.15625 0.21875,0 0.35938,0.15625 0.15625,0.14063 0.15625,0.35938 0,0.21875 -0.15625,0.35937 z m -0.76563,5.78125 v -4.76562 h 0.8125 v 4.76562 z m 3.65058,0.10938 q -1.01563,0 -1.01563,-1.14063 v -3.03125 h -0.76562 v -0.70312 h 0.76562 v -1.57813 l 0.8125,-0.39062 v 1.96875 h 1.1875 v 0.70312 h -1.1875 v 2.76563 q 0,0.3125 0.10938,0.48437 0.10937,0.17188 0.39062,0.17188 0.3125,0 0.70313,-0.25 l -0.0937,0.78125 q -0.40625,0.21875 -0.90625,0.21875 z" />
</svg>
