<?xml version="1.0" standalone="no"?>
<!DOCTYPE svg PUBLIC "-//W3C//DTD SVG 20010904//EN"
 "http://www.w3.org/TR/2001/REC-SVG-20010904/DTD/svg10.dtd">
<svg version="1.0" xmlns="http://www.w3.org/2000/svg"
 width="266.000000pt" height="266.000000pt" viewBox="0 0 266.000000 266.000000"
 preserveAspectRatio="xMidYMid meet">
<metadata>
Created by potrace 1.11, written by Peter Selinger 2001-2013
</metadata>
<g transform="translate(0.000000,266.000000) scale(0.100000,-0.100000)"
fill="#000000" stroke="none">
<path d="M380 1880 l0 -230 190 0 190 0 0 -320 0 -320 -190 0 -190 0 0 -220 0
-220 464 0 c503 0 538 3 671 56 92 37 199 110 267 182 l58 61 0 -150 0 -149
235 0 235 0 0 770 0 770 -235 0 -235 0 0 -159 0 -158 -87 87 c-99 98 -188 155
-308 197 l-80 28 -492 3 -493 3 0 -231z"/>
</g>
</svg>
