<?xml version="1.0" encoding="UTF-8"?>
<svg id="Layer_1" data-name="Layer 1" xmlns="http://www.w3.org/2000/svg" viewBox="0 0 1024 1024">
  <defs>
    <style>
      .cls-1 {
        fill: #fff;
      }

      .cls-2 {
        fill: #d9ecc7;
      }

      .cls-3 {
        fill: #357c8c;
      }

      .cls-4 {
        fill: #0c1e21;
      }
    </style>
  </defs>
  <path class="cls-1" d="m841.77,948.68h-35.95l-33.91-30.56-34.9-6.18h158.23l-11.32-25.7-34.24-77.74-64.41-54.77c44.47-33.22,82.15-75.12,110.44-123.11,37.69-63.95,57.61-137.2,57.61-211.82,0-56.39-11.05-111.11-32.84-162.63-21.04-49.75-51.17-94.43-89.53-132.79-38.36-38.36-83.04-68.48-132.79-89.53C646.64,12.05,591.93,1,535.53,1s-111.11,11.05-162.63,32.84c-49.75,21.04-94.43,51.17-132.79,89.53-38.36,38.36-68.48,83.04-89.53,132.79-21.79,51.52-32.84,106.23-32.84,162.63,0,89.43,27.85,174.72,80.55,246.65,25.36,34.61,55.75,65.02,90.35,90.4,24.17,17.73,50.03,32.74,77.23,44.83l-55.13,9.76-51.02,45.97h-54.06l-134.99,92.62h510.82l-32.58,73.99h401.19l-108.33-74.32Z"/>
  <path class="cls-2" d="m621.7,171.23s0,0,0,0v113.49c.78.2,2.87.79,3.16.88,0,.03.05.51.12,1.32l302.65,55.15c-13.76-70.73-46.17-134.79-91.91-186.85l-214.01,15.99Z"/>
  <path class="cls-2" d="m446.22,285.61c.29-.09,2.38-.68,3.16-.88v-113.49s0,0,0,0l-214.01-15.99c-45.75,52.06-78.16,116.12-91.91,186.85l302.66-55.15c.07-.81.11-1.3.12-1.32Z"/>
  <g>
    <path class="cls-3" d="m621.69,284.73c.69.18,2.37.66,2.94.82-.57-.16-2.25-.64-2.94-.82h0Z"/>
    <path class="cls-3" d="m661.26,777.88l74.07-13.11c119.37-69.08,199.68-198.15,199.68-345.98,0-26.24-2.56-51.88-7.39-76.71h0s-302.66-55.15-302.66-55.15c.58,6.47,36.3,490.95,36.3,490.95Z"/>
    <path class="cls-3" d="m449.38,171.24v-.04c-11.97-4.22-17.86-9.39-14.84-14.88-.06-2.05-.13-4.56-.19-6.6-2.74-5.75,4.2-11.11,17.63-15.4,9.8-30.04,43.49-52.19,83.55-52.19s73.75,22.14,83.55,52.19c13.43,4.29,20.37,9.66,17.63,15.4-.06,2.05-.13,4.56-.19,6.6,3.02,5.5-2.87,10.66-14.84,14.88v.04s0,0,0,0l214.01-15.99h0c-73.21-83.32-180.54-135.92-300.17-135.92s-226.96,52.6-300.17,135.92l214.01,15.99s0,0,0,0Z"/>
    <path class="cls-3" d="m624.84,285.61h0s.04.47.11,1.2c-.06-.71-.1-1.17-.11-1.2Z"/>
    <path class="cls-3" d="m409.06,797.81l37.05-510.87-302.66,55.15c-4.83,24.83-7.39,50.47-7.39,76.7,0,176.42,114.37,326.11,272.99,379.02Z"/>
    <path class="cls-4" d="m867.16,893.63l-32.54-73.89-70.6-60.04-28.68,5.08h0s-74.07,13.11-74.07,13.11c0,0-2.99-40.51-7.25-98.25-85.86,20.14-167.19,48.56-242.49,84.09l-2.47,34.07c-.3,4.78-.6,9.48-.88,14l-89.07,15.76-52.34,47.16h-55.42l-81.59,55.98h466.46l-16.33-37.07h287.27Z"/>
    <path class="cls-4" d="m635.34,426.68c-71.76,17.98-140.21,41.78-204.49,70.68l-9.65,133.13c69.83-32.17,144.71-58.27,223.49-77.38-3.18-43.07-6.42-87-9.34-126.43Z"/>
    <path class="cls-4" d="m446.22,285.61s-.04.51-.12,1.33l-7.66,105.57c59.85-26.4,123.25-48.4,189.52-65.42-1.79-24.07-2.9-39.05-3-40.15h0c-.07-.81-.12-1.29-.12-1.32-.29-.09-2.38-.68-3.16-.88v-113.53c11.97-4.22,17.86-9.39,14.84-14.88.06-2.05.13-4.56.19-6.6,2.74-5.75-4.2-11.11-17.63-15.4-9.8-30.04-43.49-52.19-83.55-52.19s-73.75,22.14-83.55,52.19c-13.43,4.29-20.37,9.66-17.63,15.4.06,2.05.13,4.56.19,6.6-3.02,5.5,2.87,10.66,14.84,14.88v113.53c-.78.2-2.87.79-3.16.88Z"/>
  </g>
  <path class="cls-1" d="m589.96,160.96c-11.05-4.28-24.45-6.42-40.2-6.42h-28.45c-15.72,0-29.14,2.14-40.27,6.42-11.09,4.26-16.63,9.41-16.63,15.46v105.23c15.14-2.45,34.89-4.12,56.9-4.63v-48.63h28.45v48.63c22.01.51,41.76,2.18,56.9,4.63v-105.23c0-6.03-5.57-11.18-16.69-15.46Zm-40.2,39.44c0,4.89-3.96,8.85-8.85,8.85h-10.75c-4.89,0-8.85-3.96-8.85-8.85v-15.13c0-4.89,3.96-8.85,8.85-8.85h10.75c4.89,0,8.85,3.96,8.85,8.85v15.13Z"/>
  <polygon class="cls-4" points="576.99 1004.68 891.02 1004.68 836.09 967 798.78 967 763.55 935.24 646.43 914.52 598.9 954.93 576.99 1004.68"/>
</svg>