<?xml version="1.0" encoding="UTF-8" standalone="no"?>
<svg
   xmlns:dc="http://purl.org/dc/elements/1.1/"
   xmlns:cc="http://creativecommons.org/ns#"
   xmlns:rdf="http://www.w3.org/1999/02/22-rdf-syntax-ns#"
   xmlns:svg="http://www.w3.org/2000/svg"
   xmlns="http://www.w3.org/2000/svg"
   xmlns:xlink="http://www.w3.org/1999/xlink"
   xmlns:sodipodi="http://sodipodi.sourceforge.net/DTD/sodipodi-0.dtd"
   xmlns:inkscape="http://www.inkscape.org/namespaces/inkscape"
   version="1.1"
   viewBox="0 0 392.63504 405.0817"
   stroke-miterlimit="10"
   id="svg83"
   sodipodi:docname="datahub.svg"
   width="392.63504"
   height="405.0817"
   style="fill:none;stroke:none;stroke-linecap:square;stroke-miterlimit:10"
   inkscape:version="0.92.3 (2405546, 2018-03-11)">
  <metadata
     id="metadata89">
    <rdf:RDF>
      <cc:Work
         rdf:about="">
        <dc:format>image/svg+xml</dc:format>
        <dc:type
           rdf:resource="http://purl.org/dc/dcmitype/StillImage" />
        <dc:title></dc:title>
      </cc:Work>
    </rdf:RDF>
  </metadata>
  <defs
     id="defs87">
    <defs
       id="defs28">
      <filter
         filterUnits="userSpaceOnUse"
         id="shadowFilter-p.1">
        <feGaussianBlur
           id="feGaussianBlur15"
           result="blur"
           stdDeviation="8.0"
           in="SourceAlpha" />
        <feComponentTransfer
           style="color-interpolation-filters:sRGB"
           id="feComponentTransfer25"
           in="blur">
          <feFuncR
             id="feFuncR17"
             intercept="0.0"
             slope="0"
             type="linear" />
          <feFuncG
             id="feFuncG19"
             intercept="0.0"
             slope="0"
             type="linear" />
          <feFuncB
             id="feFuncB21"
             intercept="0.0"
             slope="0"
             type="linear" />
          <feFuncA
             id="feFuncA23"
             intercept="0"
             slope="0.549"
             type="linear" />
        </feComponentTransfer>
      </filter>
    </defs>
  </defs>
  <sodipodi:namedview
     pagecolor="#ffffff"
     bordercolor="#666666"
     borderopacity="1"
     objecttolerance="10"
     gridtolerance="10"
     guidetolerance="10"
     inkscape:pageopacity="0"
     inkscape:pageshadow="2"
     inkscape:window-width="1566"
     inkscape:window-height="1111"
     id="namedview85"
     showgrid="false"
     fit-margin-top="0"
     fit-margin-left="0"
     fit-margin-right="0"
     fit-margin-bottom="0"
     inkscape:zoom="1.3"
     inkscape:cx="501.82404"
     inkscape:cy="119.47157"
     inkscape:window-x="2239"
     inkscape:window-y="73"
     inkscape:window-maximized="0"
     inkscape:current-layer="svg83" />
  <clipPath
     id="p.0">
    <path
       d="M 0,0 H 960 V 540 H 0 Z"
       id="path2"
       inkscape:connector-curvature="0"
       style="clip-rule:nonzero" />
  </clipPath>
  <path
     style="fill:#000000;fill-opacity:0;fill-rule:evenodd"
     inkscape:connector-curvature="0"
     id="path7"
     d="m 196.30463,359.95139 v 0 c -91.28787,0 -165.291321,-70.59094 -165.291321,-157.66931 v 0 c 0,-41.81648 17.41455,-81.92029 48.41269,-111.489014 30.998141,-29.56873 73.040651,-46.18027 116.878631,-46.18027 v 0 c 91.28787,0 165.29135,70.590944 165.29135,157.669284 v 0 c 0,87.07837 -74.00348,157.66931 -165.29135,157.66931 z" />
  <path
     style="fill-rule:evenodd;stroke:#1d7e74;stroke-width:2;stroke-linecap:butt;stroke-linejoin:round;stroke-dasharray:8, 6"
     inkscape:connector-curvature="0"
     id="path9"
     d="m 196.30463,359.95139 v 0 c -91.28787,0 -165.291321,-70.59094 -165.291321,-157.66931 v 0 c 0,-41.81648 17.41455,-81.92029 48.41269,-111.489014 30.998141,-29.56873 73.040651,-46.18027 116.878631,-46.18027 v 0 c 91.28787,0 165.29135,70.590944 165.29135,157.669284 v 0 c 0,87.07837 -74.00348,157.66931 -165.29135,157.66931 z" />
  <g
     style="filter:url(#shadowFilter-p.1)"
     id="g13"
     transform="translate(17.977884,17.148579)">
    <use
       height="100%"
       width="100%"
       y="0"
       x="0"
       id="use11"
       transform="translate(282.79135,72.030909)"
       xlink:href="#p.1" />
  </g>
  <g
     id="p.1"
     transform="translate(-282.79135,-66.697575)">
    <path
       style="fill:#1b786e;fill-rule:evenodd"
       inkscape:connector-curvature="0"
       id="path30"
       d="m 389.18497,268.98422 v 0 c 0,-47.35449 40.24484,-85.74289 89.88944,-85.74289 v 0 c 23.84014,0 46.70385,9.0336 63.56139,25.11351 16.85755,16.07991 26.32801,37.88895 26.32801,60.62938 v 0 c 0,47.35449 -40.24488,85.74289 -89.88941,85.74289 v 0 c -49.64459,0 -89.88943,-38.3884 -89.88943,-85.74289 z" />
  </g>
  <path
     style="fill:#000000;fill-opacity:0;fill-rule:evenodd"
     inkscape:connector-curvature="0"
     id="path33"
     d="m 129.75327,163.26109 h 133.05951 v 78.0511 H 129.75327 Z" />
  <path
     style="fill:#ffffff;fill-rule:nonzero"
     inkscape:connector-curvature="0"
     id="path35"
     d="M 158.86905,207.20663 V 193.941 h 4.07812 q 1.75,0 3.125,0.79688 1.39063,0.78125 2.15625,2.23437 0.78125,1.45313 0.78125,3.29688 v 0.60937 q 0,1.85938 -0.76562,3.29688 -0.76563,1.4375 -2.15625,2.23437 -1.375,0.78125 -3.10938,0.79688 z m 2.73437,-11.04688 v 8.84375 h 1.3125 q 1.60938,0 2.45313,-1.04687 0.84375,-1.04688 0.85937,-2.98438 v -0.70312 q 0,-2.03125 -0.84375,-3.0625 -0.82812,-1.04688 -2.4375,-1.04688 z m 14.9216,11.04688 q -0.17187,-0.35938 -0.26562,-0.89063 -0.95313,1.07813 -2.48438,1.07813 -1.45312,0 -2.40625,-0.84375 -0.9375,-0.84375 -0.9375,-2.10938 0,-1.57812 1.15625,-2.40625 1.15625,-0.84375 3.35938,-0.84375 h 1.20312 v -0.57812 q 0,-0.67188 -0.35937,-1.07813 -0.34375,-0.42187 -1.09375,-0.42187 -0.65625,0 -1.04688,0.32812 -0.375,0.3125 -0.375,0.875 h -2.625 q 0,-0.85937 0.51563,-1.57812 0.53125,-0.73438 1.5,-1.14063 0.96875,-0.42187 2.17187,-0.42187 1.8125,0 2.875,0.92187 1.07813,0.90625 1.07813,2.5625 v 4.26563 q 0.0156,1.40625 0.39062,2.125 v 0.15625 z m -2.17187,-1.82813 q 0.57812,0 1.0625,-0.25 0.5,-0.26562 0.73437,-0.70312 v -1.70313 h -0.98437 q -1.96875,0 -2.09375,1.375 l -0.0156,0.15625 q 0,0.48438 0.34375,0.8125 0.34375,0.3125 0.95313,0.3125 z m 9.6116,-10.45312 v 2.42187 h 1.6875 v 1.9375 h -1.6875 v 4.92188 q 0,0.54687 0.20313,0.78125 0.21875,0.23437 0.8125,0.23437 0.4375,0 0.78125,-0.0625 v 2 q -0.78125,0.23438 -1.59375,0.23438 -2.78125,0 -2.82813,-2.79688 v -5.3125 h -1.4375 v -1.9375 h 1.4375 v -2.42187 z m 8.86627,12.28125 q -0.17187,-0.35938 -0.26562,-0.89063 -0.95313,1.07813 -2.48438,1.07813 -1.45312,0 -2.40625,-0.84375 -0.9375,-0.84375 -0.9375,-2.10938 0,-1.57812 1.15625,-2.40625 1.15625,-0.84375 3.35938,-0.84375 h 1.20312 v -0.57812 q 0,-0.67188 -0.35937,-1.07813 -0.34375,-0.42187 -1.09375,-0.42187 -0.65625,0 -1.04688,0.32812 -0.375,0.3125 -0.375,0.875 h -2.625 q 0,-0.85937 0.51563,-1.57812 0.53125,-0.73438 1.5,-1.14063 0.96875,-0.42187 2.17187,-0.42187 1.8125,0 2.875,0.92187 1.07813,0.90625 1.07813,2.5625 v 4.26563 q 0.0156,1.40625 0.39062,2.125 v 0.15625 z m -2.17187,-1.82813 q 0.57812,0 1.0625,-0.25 0.5,-0.26562 0.73437,-0.70312 v -1.70313 h -0.98437 q -1.96875,0 -2.09375,1.375 l -0.0156,0.15625 q 0,0.48438 0.34375,0.8125 0.34375,0.3125 0.95313,0.3125 z m 22.08557,1.82813 h -2.73437 v -5.6875 h -5.32813 v 5.6875 h -2.73437 V 193.941 h 2.73437 v 5.375 h 5.32813 v -5.375 h 2.73437 z m 8.11896,-1 q -0.98438,1.1875 -2.70313,1.1875 -1.59375,0 -2.42187,-0.90625 -0.82813,-0.92188 -0.84375,-2.67188 v -6.46875 h 2.625 v 6.375 q 0,1.53125 1.40625,1.53125 1.34375,0 1.84375,-0.92187 v -6.98438 h 2.64062 v 9.85938 h -2.48437 z m 13.4082,-3.84375 q 0,2.375 -1.01562,3.70312 -1,1.32813 -2.8125,1.32813 -1.60935,0 -2.56247,-1.23438 l -0.125,1.04688 h -2.35938 v -14 h 2.625 v 5.03125 q 0.92188,-1.0625 2.40622,-1.0625 1.79688,0 2.8125,1.32812 1.03125,1.3125 1.03125,3.71875 z m -2.625,-0.1875 q 0,-1.48438 -0.48437,-2.17188 -0.46875,-0.6875 -1.40625,-0.6875 -1.24997,0 -1.73435,1.01563 v 3.89062 q 0.48438,1.04688 1.74997,1.04688 1.28125,0 1.67188,-1.26563 0.20312,-0.59375 0.20312,-1.82812 z" />
  <path
     style="fill:#155b54;fill-rule:evenodd"
     inkscape:connector-curvature="0"
     id="path37"
     d="m 143.82541,51.982076 v 0 c 0,-27.86662 23.68283,-50.4569953 52.89709,-50.4569953 v 0 c 14.02918,0 27.48377,5.315994 37.40388,14.7785153 9.92016,9.46252 15.49322,22.29645 15.49322,35.67848 v 0 c 0,27.86663 -23.68283,50.456994 -52.89709,50.456994 v 0 c -29.21427,0 -52.8971,-22.590364 -52.8971,-50.456994 z" />
  <path
     style="fill:#000000;fill-opacity:0;fill-rule:evenodd"
     inkscape:connector-curvature="0"
     id="path39"
     d="m 158.96552,17.411556 h 75.49942 v 69.15526 h -75.49942 z" />
  <path
     style="fill:#ffffff;fill-rule:nonzero"
     inkscape:connector-curvature="0"
     id="path41"
     d="m 172.85775,46.789186 v -9.46875 h 3.10937 q 1.53125,0 2.3125,0.64062 0.78125,0.625 0.78125,1.875 0,0.67188 -0.375,1.1875 -0.375,0.5 -1.03125,0.78125 0.76563,0.21875 1.20313,0.82813 0.45312,0.59375 0.45312,1.42187 0,1.28125 -0.82812,2.01563 -0.82813,0.71875 -2.32813,0.71875 z m 1.25,-4.4375 v 3.42187 h 2.0625 q 0.875,0 1.375,-0.45312 0.51562,-0.45313 0.51562,-1.25 0,-1.71875 -1.85937,-1.71875 z m 0,-1 h 1.89062 q 0.82813,0 1.3125,-0.40625 0.5,-0.40625 0.5,-1.10938 0,-0.78125 -0.46875,-1.14062 -0.45312,-0.35938 -1.375,-0.35938 h -1.85937 z m 8.17255,5.4375 h -1.20313 v -7.04688 h 1.20313 z m -1.29688,-8.90625 q 0,-0.29688 0.17188,-0.5 0.1875,-0.20313 0.53125,-0.20313 0.35937,0 0.53125,0.20313 0.1875,0.20312 0.1875,0.5 0,0.29687 -0.1875,0.5 -0.17188,0.1875 -0.53125,0.1875 -0.34375,0 -0.53125,-0.1875 -0.17188,-0.20313 -0.17188,-0.5 z m 2.93756,5.32812 q 0,-1.64062 0.75,-2.60937 0.76563,-0.98438 2.03125,-0.98438 1.28125,0 2.01563,0.90625 l 0.0469,-0.78125 h 1.10938 v 6.875 q 0,1.375 -0.8125,2.15625 -0.8125,0.78125 -2.1875,0.78125 -0.75,0 -1.48438,-0.32812 -0.73437,-0.3125 -1.10937,-0.875 l 0.625,-0.73438 q 0.76562,0.96875 1.89062,0.96875 0.875,0 1.35938,-0.5 0.5,-0.5 0.5,-1.39062 v -0.60938 q -0.71875,0.82813 -1.96875,0.82813 -1.23438,0 -2,-0.98438 -0.76563,-1 -0.76563,-2.71875 z m 1.20313,0.14063 q 0,1.1875 0.48437,1.875 0.5,0.67187 1.375,0.67187 1.14063,0 1.67188,-1.03125 v -3.21875 q -0.54688,-1.01562 -1.65625,-1.01562 -0.875,0 -1.375,0.6875 -0.5,0.6875 -0.5,2.03125 z m 10.04266,3.4375 v -9.46875 h 2.6875 q 1.23438,0 2.17188,0.54687 0.95312,0.54688 1.46875,1.5625 0.53125,1 0.53125,2.29688 v 0.60937 q 0,1.34375 -0.51563,2.35938 -0.51562,1 -1.48437,1.54687 -0.95313,0.53125 -2.23438,0.54688 z m 1.25,-8.45313 v 7.4375 h 1.3125 q 1.45313,0 2.25,-0.89062 0.8125,-0.90625 0.8125,-2.57813 v -0.54687 q 0,-1.60938 -0.76562,-2.5 -0.75,-0.90625 -2.14063,-0.92188 z m 11.66196,8.45313 q -0.10938,-0.20313 -0.17188,-0.73438 -0.84375,0.85938 -2.01562,0.85938 -1.03125,0 -1.70313,-0.57813 -0.67187,-0.59375 -0.67187,-1.5 0,-1.09375 0.82812,-1.70312 0.84375,-0.60938 2.35938,-0.60938 h 1.17187 v -0.5625 q 0,-0.625 -0.375,-1 -0.375,-0.375 -1.10937,-0.375 -0.64063,0 -1.07813,0.32813 -0.4375,0.32812 -0.4375,0.78125 h -1.20312 q 0,-0.51563 0.35937,-1 0.375,-0.5 1.01563,-0.78125 0.65625,-0.29688 1.42187,-0.29688 1.21875,0 1.90625,0.60938 0.6875,0.60937 0.71875,1.67187 v 3.25 q 0,0.96875 0.23438,1.53125 v 0.10938 z m -2,-0.92188 q 0.5625,0 1.0625,-0.28125 0.51562,-0.29687 0.73437,-0.76562 v -1.45313 h -0.9375 q -2.21875,0 -2.21875,1.29688 0,0.5625 0.375,0.89062 0.39063,0.3125 0.98438,0.3125 z m 6.53103,-7.82812 v 1.70312 h 1.3125 v 0.9375 h -1.3125 v 4.35938 q 0,0.42187 0.17188,0.64062 0.17187,0.21875 0.59375,0.21875 0.21875,0 0.57812,-0.0781 v 0.96875 q -0.46875,0.125 -0.92187,0.125 -0.8125,0 -1.21875,-0.48438 -0.40625,-0.48437 -0.40625,-1.39062 v -4.35938 h -1.28125 v -0.9375 h 1.28125 v -1.70312 z m 7.07251,8.75 q -0.10937,-0.20313 -0.17187,-0.73438 -0.84375,0.85938 -2.01563,0.85938 -1.03125,0 -1.70312,-0.57813 -0.67188,-0.59375 -0.67188,-1.5 0,-1.09375 0.82813,-1.70312 0.84375,-0.60938 2.35937,-0.60938 h 1.17188 v -0.5625 q 0,-0.625 -0.375,-1 -0.375,-0.375 -1.10938,-0.375 -0.64062,0 -1.07812,0.32813 -0.4375,0.32812 -0.4375,0.78125 h -1.20313 q 0,-0.51563 0.35938,-1 0.375,-0.5 1.01562,-0.78125 0.65625,-0.29688 1.42188,-0.29688 1.21875,0 1.90625,0.60938 0.6875,0.60937 0.71875,1.67187 v 3.25 q 0,0.96875 0.23437,1.53125 v 0.10938 z m -2,-0.92188 q 0.5625,0 1.0625,-0.28125 0.51563,-0.29687 0.73438,-0.76562 v -1.45313 h -0.9375 q -2.21875,0 -2.21875,1.29688 0,0.5625 0.375,0.89062 0.39062,0.3125 0.98437,0.3125 z" />
  <path
     style="fill:#ffffff;fill-rule:nonzero"
     inkscape:connector-curvature="0"
     id="path43"
     d="m 177.52567,60.570436 q -1.60937,-0.46875 -2.34375,-1.14063 -0.73437,-0.67187 -0.73437,-1.65625 0,-1.125 0.89062,-1.85937 0.90625,-0.73438 2.34375,-0.73438 0.96875,0 1.73438,0.39063 0.76562,0.375 1.1875,1.04687 0.42187,0.65625 0.42187,1.4375 h -1.26562 q 0,-0.85937 -0.54688,-1.34375 -0.54687,-0.5 -1.53125,-0.5 -0.92187,0 -1.45312,0.40625 -0.51563,0.40625 -0.51563,1.125 0,0.57813 0.48438,0.98438 0.5,0.40625 1.67187,0.73437 1.1875,0.32813 1.85938,0.73438 0.67187,0.39062 0.98437,0.9375 0.32813,0.53125 0.32813,1.25 0,1.15625 -0.90625,1.84375 -0.89063,0.6875 -2.39063,0.6875 -0.98437,0 -1.82812,-0.375 -0.84375,-0.375 -1.3125,-1.01563 -0.45313,-0.65625 -0.45313,-1.48437 h 1.26563 q 0,0.85937 0.625,1.35937 0.64062,0.5 1.70312,0.5 0.98438,0 1.51563,-0.40625 0.53125,-0.40625 0.53125,-1.09375 0,-0.70312 -0.5,-1.07812 -0.48438,-0.39063 -1.76563,-0.75 z m 6.56332,-4.53125 v 1.70312 h 1.3125 v 0.9375 h -1.3125 v 4.35938 q 0,0.42187 0.17188,0.64062 0.17187,0.21875 0.59375,0.21875 0.21875,0 0.57812,-0.0781 v 0.96875 q -0.46875,0.125 -0.92187,0.125 -0.8125,0 -1.21875,-0.48438 -0.40625,-0.48437 -0.40625,-1.39062 v -4.35938 h -1.28125 v -0.9375 h 1.28125 v -1.70312 z m 2.40064,5.17187 q 0,-1.04687 0.40625,-1.875 0.40625,-0.82812 1.125,-1.26562 0.73437,-0.45313 1.65625,-0.45313 1.4375,0 2.32812,1 0.89063,0.98438 0.89063,2.64063 v 0.0937 q 0,1.01562 -0.39063,1.84375 -0.39062,0.8125 -1.125,1.26562 -0.73437,0.45313 -1.6875,0.45313 -1.42187,0 -2.3125,-0.98438 -0.89062,-1 -0.89062,-2.64062 z m 1.20312,0.14063 q 0,1.17187 0.54688,1.875 0.54687,0.70312 1.45312,0.70312 0.92188,0 1.45313,-0.71875 0.54687,-0.71875 0.54687,-2 0,-1.17187 -0.54687,-1.89062 -0.54688,-0.71875 -1.46875,-0.71875 -0.89063,0 -1.4375,0.71875 -0.54688,0.70312 -0.54688,2.03125 z m 10.11682,-2.53125 q -0.26562,-0.0312 -0.59375,-0.0312 -1.1875,0 -1.60937,1 v 5 h -1.20313 v -7.04688 h 1.17188 l 0.0312,0.8125 q 0.57812,-0.9375 1.67187,-0.9375 0.34375,0 0.53125,0.0937 z m 5.46311,5.96875 q -0.10938,-0.20313 -0.17188,-0.73438 -0.84375,0.85938 -2.01562,0.85938 -1.03125,0 -1.70313,-0.57813 -0.67187,-0.59375 -0.67187,-1.5 0,-1.09375 0.82812,-1.70312 0.84375,-0.60938 2.35938,-0.60938 h 1.17187 v -0.5625 q 0,-0.625 -0.375,-1 -0.375,-0.375 -1.10937,-0.375 -0.64063,0 -1.07813,0.32813 -0.4375,0.32812 -0.4375,0.78125 h -1.20312 q 0,-0.51563 0.35937,-1 0.375,-0.5 1.01563,-0.78125 0.65625,-0.29688 1.42187,-0.29688 1.21875,0 1.90625,0.60938 0.6875,0.60937 0.71875,1.67187 v 3.25 q 0,0.96875 0.23438,1.53125 v 0.10938 z m -2,-0.92188 q 0.5625,0 1.0625,-0.28125 0.51562,-0.29687 0.73437,-0.76562 v -1.45313 h -0.9375 q -2.21875,0 -2.21875,1.29688 0,0.5625 0.375,0.89062 0.39063,0.3125 0.98438,0.3125 z m 4.60913,-2.65625 q 0,-1.64062 0.75,-2.60937 0.76562,-0.98438 2.03125,-0.98438 1.28125,0 2.01562,0.90625 l 0.0469,-0.78125 h 1.10937 v 6.875 q 0,1.375 -0.8125,2.15625 -0.8125,0.78125 -2.1875,0.78125 -0.75,0 -1.48437,-0.32812 -0.73438,-0.3125 -1.10938,-0.875 l 0.625,-0.73438 q 0.76563,0.96875 1.89063,0.96875 0.875,0 1.35937,-0.5 0.5,-0.5 0.5,-1.39062 v -0.60938 q -0.71875,0.82813 -1.96875,0.82813 -1.23437,0 -2,-0.98438 -0.76562,-1 -0.76562,-2.71875 z m 1.20312,0.14063 q 0,1.1875 0.48438,1.875 0.5,0.67187 1.375,0.67187 1.14062,0 1.67187,-1.03125 v -3.21875 q -0.54687,-1.01562 -1.65625,-1.01562 -0.875,0 -1.375,0.6875 -0.5,0.6875 -0.5,2.03125 z m 9.47757,3.5625 q -1.42187,0 -2.32812,-0.9375 -0.89063,-0.9375 -0.89063,-2.51563 v -0.21875 q 0,-1.04687 0.39063,-1.85937 0.40625,-0.82813 1.125,-1.29688 0.71875,-0.46875 1.5625,-0.46875 1.375,0 2.125,0.90625 0.76562,0.90625 0.76562,2.59375 v 0.5 h -4.76562 q 0.0156,1.03125 0.59375,1.67188 0.59375,0.64062 1.48437,0.64062 0.64063,0 1.07813,-0.25 0.45312,-0.26562 0.78125,-0.6875 l 0.73437,0.5625 q -0.875,1.35938 -2.65625,1.35938 z m -0.14062,-6.3125 q -0.73438,0 -1.23438,0.53125 -0.48437,0.53125 -0.60937,1.48437 h 3.53125 v -0.0781 q -0.0469,-0.92188 -0.5,-1.42188 -0.4375,-0.51562 -1.1875,-0.51562 z" />
  <path
     style="fill:#155b54;fill-rule:evenodd"
     inkscape:connector-curvature="0"
     id="path45"
     d="m 286.84085,281.00086 v 0 c 0,-27.86661 23.68286,-50.45697 52.8971,-50.45697 v 0 c 14.02917,0 27.48376,5.31598 37.40392,14.7785 9.92011,9.46253 15.49317,22.29645 15.49317,35.67847 v 0 c 0,27.86664 -23.6828,50.457 -52.8971,50.457 v 0 c -29.21423,0 -52.89709,-22.59036 -52.89709,-50.457 z" />
  <path
     style="fill:#000000;fill-opacity:0;fill-rule:evenodd"
     inkscape:connector-curvature="0"
     id="path47"
     d="m 301.98099,246.43033 h 75.49939 v 69.15527 h -75.49939 z" />
  <path
     style="fill:#ffffff;fill-rule:nonzero"
     inkscape:connector-curvature="0"
     id="path49"
     d="m 321.26765,271.97986 h -2.23438 v 3.82813 h -1.25 v -9.46875 h 3.14063 q 1.59375,0 2.45312,0.73437 0.875,0.71875 0.875,2.10938 0,0.89062 -0.48437,1.54687 -0.48438,0.65625 -1.32813,0.98438 l 2.21875,4.01562 v 0.0781 h -1.34375 z m -2.23438,-1.03125 h 1.92188 q 0.9375,0 1.48437,-0.46875 0.54688,-0.48437 0.54688,-1.29687 0,-0.875 -0.53125,-1.34375 -0.51563,-0.46875 -1.5,-0.48438 h -1.92188 z m 9.6908,4.98438 q -1.42187,0 -2.32812,-0.9375 -0.89063,-0.9375 -0.89063,-2.51563 v -0.21875 q 0,-1.04687 0.39063,-1.85937 0.40625,-0.82813 1.125,-1.29688 0.71875,-0.46875 1.5625,-0.46875 1.375,0 2.125,0.90625 0.76562,0.90625 0.76562,2.59375 v 0.5 h -4.76562 q 0.0156,1.03125 0.59375,1.67188 0.59375,0.64062 1.48437,0.64062 0.64063,0 1.07813,-0.25 0.45312,-0.26562 0.78125,-0.6875 l 0.73437,0.5625 q -0.875,1.35938 -2.65625,1.35938 z m -0.14062,-6.3125 q -0.73438,0 -1.23438,0.53125 -0.48437,0.53125 -0.60937,1.48437 h 3.53125 v -0.0781 q -0.0469,-0.92188 -0.5,-1.42188 -0.4375,-0.51562 -1.1875,-0.51562 z m 10.23297,2.75 q 0,1.60937 -0.73438,2.59375 -0.73437,0.96875 -2,0.96875 -1.28125,0 -2.01562,-0.8125 v 3.39062 h -1.20313 v -9.75 h 1.10938 l 0.0469,0.78125 q 0.75,-0.90625 2.04688,-0.90625 1.26562,0 2,0.95313 0.75,0.95312 0.75,2.67187 z m -1.20313,-0.14063 q 0,-1.1875 -0.51562,-1.875 -0.5,-0.70312 -1.39063,-0.70312 -1.09375,0 -1.64062,0.96875 v 3.375 q 0.54687,0.95312 1.65625,0.95312 0.875,0 1.375,-0.67187 0.51562,-0.6875 0.51562,-2.04688 z m 2.41504,0 q 0,-1.04687 0.40625,-1.875 0.40625,-0.82812 1.125,-1.26562 0.73438,-0.45313 1.65625,-0.45313 1.4375,0 2.32813,1 0.89062,0.98438 0.89062,2.64063 v 0.0937 q 0,1.01562 -0.39062,1.84375 -0.39063,0.8125 -1.125,1.26562 -0.73438,0.45313 -1.6875,0.45313 -1.42188,0 -2.3125,-0.98438 -0.89063,-1 -0.89063,-2.64062 z m 1.20313,0.14063 q 0,1.17187 0.54687,1.875 0.54688,0.70312 1.45313,0.70312 0.92187,0 1.45312,-0.71875 0.54688,-0.71875 0.54688,-2 0,-1.17187 -0.54688,-1.89062 -0.54687,-0.71875 -1.46875,-0.71875 -0.89062,0 -1.4375,0.71875 -0.54687,0.70312 -0.54687,2.03125 z m 10.11682,-2.53125 q -0.26563,-0.0312 -0.59375,-0.0312 -1.1875,0 -1.60938,1 v 5 h -1.20312 v -7.04688 h 1.17187 l 0.0312,0.8125 q 0.57813,-0.9375 1.67188,-0.9375 0.34375,0 0.53125,0.0937 z m 2.74432,-2.78125 v 1.70312 h 1.3125 v 0.9375 h -1.3125 v 4.35938 q 0,0.42187 0.17188,0.64062 0.17187,0.21875 0.59375,0.21875 0.21875,0 0.57812,-0.0781 v 0.96875 q -0.46875,0.125 -0.92187,0.125 -0.8125,0 -1.21875,-0.48438 -0.40625,-0.48437 -0.40625,-1.39062 v -4.35938 h -1.28125 v -0.9375 h 1.28125 v -1.70312 z m 6.82251,6.875 q 0,-0.48438 -0.375,-0.75 -0.35937,-0.26563 -1.28125,-0.45313 -0.90625,-0.20312 -1.45312,-0.46875 -0.53125,-0.28125 -0.79688,-0.65625 -0.25,-0.39062 -0.25,-0.90625 0,-0.85937 0.73438,-1.45312 0.73437,-0.60938 1.875,-0.60938 1.1875,0 1.9375,0.625 0.75,0.60938 0.75,1.57813 h -1.21875 q 0,-0.5 -0.42188,-0.85938 -0.42187,-0.35937 -1.04687,-0.35937 -0.65625,0 -1.03125,0.29687 -0.375,0.28125 -0.375,0.75 0,0.42188 0.34375,0.65625 0.34375,0.21875 1.25,0.42188 0.90625,0.20312 1.45312,0.48437 0.5625,0.26563 0.82813,0.67188 0.28125,0.39062 0.28125,0.95312 0,0.9375 -0.76563,1.51563 -0.75,0.5625 -1.95312,0.5625 -0.84375,0 -1.5,-0.29688 -0.64063,-0.29687 -1.01563,-0.82812 -0.35937,-0.54688 -0.35937,-1.17188 h 1.20312 q 0.0312,0.60938 0.48438,0.96875 0.45312,0.34375 1.1875,0.34375 0.6875,0 1.09375,-0.26562 0.42187,-0.28125 0.42187,-0.75 z" />
  <path
     style="fill:#ffffff;fill-rule:nonzero"
     inkscape:connector-curvature="0"
     id="path51"
     d="m 312.94975,291.26111 q 0,-0.6875 0.375,-1.25 0.39062,-0.57812 1.46875,-1.34375 -0.64063,-0.76562 -0.85938,-1.23437 -0.20312,-0.46875 -0.20312,-0.92188 0,-1.07812 0.625,-1.6875 0.64062,-0.625 1.73437,-0.625 0.98438,0 1.60938,0.57813 0.64062,0.5625 0.64062,1.4375 0,0.5625 -0.29687,1.04687 -0.28125,0.48438 -1,1.01563 l -0.70313,0.51562 2.10938,2.51563 q 0.45312,-0.84375 0.45312,-1.875 h 1.07813 q 0,1.65625 -0.79688,2.75 l 1.35938,1.625 h -1.45313 l -0.625,-0.75 q -0.48437,0.4375 -1.14062,0.65625 -0.64063,0.21875 -1.3125,0.21875 -1.375,0 -2.21875,-0.73438 -0.84375,-0.73437 -0.84375,-1.9375 z m 3.0625,1.6875 q 0.95312,0 1.75,-0.71875 l -2.3125,-2.76562 -0.20313,0.15625 q -1.09375,0.79687 -1.09375,1.64062 0,0.76563 0.5,1.23438 0.5,0.45312 1.35938,0.45312 z m -1.07813,-6.48437 q 0,0.625 0.76563,1.5625 l 0.76562,-0.53125 q 0.4375,-0.3125 0.59375,-0.59375 0.17188,-0.29688 0.17188,-0.6875 0,-0.4375 -0.32813,-0.71875 -0.32812,-0.29688 -0.8125,-0.29688 -0.53125,0 -0.84375,0.35938 -0.3125,0.35937 -0.3125,0.90625 z m 13.1778,5.6875 2.70312,-7.8125 h 1.375 l -3.51562,9.46875 h -1.10938 l -3.5,-9.46875 h 1.35938 z m 6.46411,1.65625 h -1.20312 v -7.04688 h 1.20312 z m -1.29687,-8.90625 q 0,-0.29688 0.17187,-0.5 0.1875,-0.20313 0.53125,-0.20313 0.35938,0 0.53125,0.20313 0.1875,0.20312 0.1875,0.5 0,0.29687 -0.1875,0.5 -0.17187,0.1875 -0.53125,0.1875 -0.34375,0 -0.53125,-0.1875 -0.17187,-0.20313 -0.17187,-0.5 z m 7.32818,7.03125 q 0,-0.48438 -0.375,-0.75 -0.35937,-0.26563 -1.28125,-0.45313 -0.90625,-0.20312 -1.45312,-0.46875 -0.53125,-0.28125 -0.79688,-0.65625 -0.25,-0.39062 -0.25,-0.90625 0,-0.85937 0.73438,-1.45312 0.73437,-0.60938 1.875,-0.60938 1.1875,0 1.9375,0.625 0.75,0.60938 0.75,1.57813 h -1.21875 q 0,-0.5 -0.42188,-0.85938 -0.42187,-0.35937 -1.04687,-0.35937 -0.65625,0 -1.03125,0.29687 -0.375,0.28125 -0.375,0.75 0,0.42188 0.34375,0.65625 0.34375,0.21875 1.25,0.42188 0.90625,0.20312 1.45312,0.48437 0.5625,0.26563 0.82813,0.67188 0.28125,0.39062 0.28125,0.95312 0,0.9375 -0.76563,1.51563 -0.75,0.5625 -1.95312,0.5625 -0.84375,0 -1.5,-0.29688 -0.64063,-0.29687 -1.01563,-0.82812 -0.35937,-0.54688 -0.35937,-1.17188 h 1.20312 q 0.0312,0.60938 0.48438,0.96875 0.45312,0.34375 1.1875,0.34375 0.6875,0 1.09375,-0.26562 0.42187,-0.28125 0.42187,-0.75 z m 7.12232,1.17187 q -0.70313,0.82813 -2.0625,0.82813 -1.14063,0 -1.73438,-0.64063 -0.57812,-0.65625 -0.57812,-1.9375 v -4.59375 h 1.20312 v 4.54688 q 0,1.60937 1.29688,1.60937 1.375,0 1.82812,-1.03125 v -5.125 h 1.21875 v 7.04688 h -1.15625 z m 7.34741,0.70313 q -0.10938,-0.20313 -0.17188,-0.73438 -0.84375,0.85938 -2.01562,0.85938 -1.03125,0 -1.70313,-0.57813 -0.67187,-0.59375 -0.67187,-1.5 0,-1.09375 0.82812,-1.70312 0.84375,-0.60938 2.35938,-0.60938 h 1.17187 v -0.5625 q 0,-0.625 -0.375,-1 -0.375,-0.375 -1.10937,-0.375 -0.64063,0 -1.07813,0.32813 -0.4375,0.32812 -0.4375,0.78125 h -1.20312 q 0,-0.51563 0.35937,-1 0.375,-0.5 1.01563,-0.78125 0.65625,-0.29688 1.42187,-0.29688 1.21875,0 1.90625,0.60938 0.6875,0.60937 0.71875,1.67187 v 3.25 q 0,0.96875 0.23438,1.53125 v 0.10938 z m -2,-0.92188 q 0.5625,0 1.0625,-0.28125 0.51562,-0.29687 0.73437,-0.76562 v -1.45313 h -0.9375 q -2.21875,0 -2.21875,1.29688 0,0.5625 0.375,0.89062 0.39063,0.3125 0.98438,0.3125 z m 6.20288,0.92188 h -1.20313 v -10 h 1.20313 z m 6.03131,-1.875 q 0,-0.48438 -0.375,-0.75 -0.35937,-0.26563 -1.28125,-0.45313 -0.90625,-0.20312 -1.45312,-0.46875 -0.53125,-0.28125 -0.79688,-0.65625 -0.25,-0.39062 -0.25,-0.90625 0,-0.85937 0.73438,-1.45312 0.73437,-0.60938 1.875,-0.60938 1.1875,0 1.9375,0.625 0.75,0.60938 0.75,1.57813 h -1.21875 q 0,-0.5 -0.42188,-0.85938 -0.42187,-0.35937 -1.04687,-0.35937 -0.65625,0 -1.03125,0.29687 -0.375,0.28125 -0.375,0.75 0,0.42188 0.34375,0.65625 0.34375,0.21875 1.25,0.42188 0.90625,0.20312 1.45312,0.48437 0.5625,0.26563 0.82813,0.67188 0.28125,0.39062 0.28125,0.95312 0,0.9375 -0.76563,1.51563 -0.75,0.5625 -1.95312,0.5625 -0.84375,0 -1.5,-0.29688 -0.64063,-0.29687 -1.01563,-0.82812 -0.35937,-0.54688 -0.35937,-1.17188 h 1.20312 q 0.0312,0.60938 0.48438,0.96875 0.45312,0.34375 1.1875,0.34375 0.6875,0 1.09375,-0.26562 0.42187,-0.28125 0.42187,-0.75 z" />
  <path
     style="fill:#155b54;fill-rule:evenodd"
     inkscape:connector-curvature="0"
     id="path53"
     d="m 1.7822492,282.62473 v 0 c 0,-27.86664 23.6828298,-50.457 52.8970898,-50.457 v 0 c 14.02918,0 27.48377,5.31598 37.4039,14.7785 9.920141,9.46253 15.493201,22.29645 15.493201,35.6785 v 0 c 0,27.86661 -23.682831,50.45697 -52.897091,50.45697 v 0 c -29.21427,0 -52.8970998,-22.59036 -52.8970998,-50.45697 z" />
  <path
     style="fill:#000000;fill-opacity:0;fill-rule:evenodd"
     inkscape:connector-curvature="0"
     id="path55"
     d="M 6.3608992,248.05441 H 106.39313 v 69.15524 H 6.3608992 Z" />
  <path
     style="fill:#ffffff;fill-rule:nonzero"
     inkscape:connector-curvature="0"
     id="path57"
     d="m 51.480409,282.05703 h -4.10938 v 3.35937 h 4.78125 v 1.01563 h -6.03125 v -9.46875 h 5.95313 v 1.01562 h -4.70313 v 3.04688 h 4.10938 z m 8.76266,-4.07813 h -3.04687 v 8.45313 h -1.23438 v -8.45313 h -3.04687 v -1.01562 h 7.32812 z m 2.67136,7.4375 h 4.48438 v 1.01563 h -5.75 v -9.46875 h 1.26562 z" />
  <path
     style="fill:#155b54;fill-rule:evenodd"
     inkscape:connector-curvature="0"
     id="path59"
     d="m 285.17245,122.62471 v 0 c 0,-27.866624 23.68286,-50.456994 52.8971,-50.456994 v 0 c 14.02923,0 27.48376,5.316 37.40392,14.77852 9.92011,9.46251 15.49323,22.296454 15.49323,35.678474 v 0 c 0,27.86664 -23.68286,50.457 -52.89716,50.457 v 0 c -29.21423,0 -52.89709,-22.59036 -52.89709,-50.457 z" />
  <path
     style="fill:#000000;fill-opacity:0;fill-rule:evenodd"
     inkscape:connector-curvature="0"
     id="path61"
     d="M 285.17191,88.054396 H 390.9661 V 157.20966 H 285.17191 Z" />
  <path
     style="fill:#ffffff;fill-rule:nonzero"
     inkscape:connector-curvature="0"
     id="path63"
     d="m 322.26309,107.96327 3.09375,7.71875 3.09375,-7.71875 h 1.625 v 9.46875 h -1.25 v -3.6875 l 0.10937,-3.98438 -3.10937,7.67188 h -0.95313 l -3.10937,-7.65625 0.125,3.96875 v 3.6875 h -1.25 v -9.46875 z m 9.51105,5.89062 q 0,-1.04687 0.40625,-1.875 0.40625,-0.82812 1.125,-1.26562 0.73437,-0.45313 1.65625,-0.45313 1.4375,0 2.32812,1 0.89063,0.98438 0.89063,2.64063 v 0.0937 q 0,1.01562 -0.39063,1.84375 -0.39062,0.8125 -1.125,1.26562 -0.73437,0.45313 -1.6875,0.45313 -1.42187,0 -2.3125,-0.98438 -0.89062,-1 -0.89062,-2.64062 z m 1.20312,0.14063 q 0,1.17187 0.54688,1.875 0.54687,0.70312 1.45312,0.70312 0.92188,0 1.45313,-0.71875 0.54687,-0.71875 0.54687,-2 0,-1.17187 -0.54687,-1.89062 -0.54688,-0.71875 -1.46875,-0.71875 -0.89063,0 -1.4375,0.71875 -0.54688,0.70312 -0.54688,2.03125 z m 6.42932,-0.14063 q 0,-1.625 0.76563,-2.60937 0.76562,-0.98438 2,-0.98438 1.25,0 1.96875,0.84375 v -3.67187 h 1.20312 v 10 h -1.10937 l -0.0625,-0.75 q -0.71875,0.875 -2,0.875 -1.23438,0 -2,-1 -0.76563,-1 -0.76563,-2.60938 z m 1.20313,0.14063 q 0,1.1875 0.48437,1.875 0.5,0.67187 1.375,0.67187 1.14063,0 1.67188,-1.03125 v -3.23437 q -0.54688,-1 -1.65625,-1 -0.89063,0 -1.39063,0.6875 -0.48437,0.6875 -0.48437,2.03125 z m 9.5166,3.5625 q -1.42187,0 -2.32812,-0.9375 -0.89063,-0.9375 -0.89063,-2.51563 v -0.21875 q 0,-1.04687 0.39063,-1.85937 0.40625,-0.82813 1.125,-1.29688 0.71875,-0.46875 1.5625,-0.46875 1.375,0 2.125,0.90625 0.76562,0.90625 0.76562,2.59375 v 0.5 h -4.76562 q 0.0156,1.03125 0.59375,1.67188 0.59375,0.64062 1.48437,0.64062 0.64063,0 1.07813,-0.25 0.45312,-0.26562 0.78125,-0.6875 l 0.73437,0.5625 q -0.875,1.35938 -2.65625,1.35938 z m -0.14062,-6.3125 q -0.73438,0 -1.23438,0.53125 -0.48437,0.53125 -0.60937,1.48437 h 3.53125 v -0.0781 q -0.0469,-0.92188 -0.5,-1.42188 -0.4375,-0.51562 -1.1875,-0.51562 z m 5.59228,6.1875 h -1.20312 v -10 h 1.20312 z" />
  <path
     style="fill:#ffffff;fill-rule:nonzero"
     inkscape:connector-curvature="0"
     id="path65"
     d="m 321.52635,126.9789 h -3.04688 v 8.45312 h -1.23437 v -8.45312 h -3.04688 v -1.01563 h 7.32813 z m 4.62451,2.48437 q -0.26562,-0.0312 -0.59375,-0.0312 -1.1875,0 -1.60937,1 v 5 h -1.20313 v -7.04687 h 1.17188 l 0.0312,0.8125 q 0.57812,-0.9375 1.67187,-0.9375 0.34375,0 0.53125,0.0937 z m 5.46308,5.96875 q -0.10938,-0.20312 -0.17188,-0.73437 -0.84375,0.85937 -2.01562,0.85937 -1.03125,0 -1.70313,-0.57812 -0.67187,-0.59375 -0.67187,-1.5 0,-1.09375 0.82812,-1.70313 0.84375,-0.60937 2.35938,-0.60937 h 1.17187 v -0.5625 q 0,-0.625 -0.375,-1 -0.375,-0.375 -1.10937,-0.375 -0.64063,0 -1.07813,0.32812 -0.4375,0.32813 -0.4375,0.78125 h -1.20312 q 0,-0.51562 0.35937,-1 0.375,-0.5 1.01563,-0.78125 0.65625,-0.29687 1.42187,-0.29687 1.21875,0 1.90625,0.60937 0.6875,0.60938 0.71875,1.67188 v 3.25 q 0,0.96875 0.23438,1.53125 v 0.10937 z m -2,-0.92187 q 0.5625,0 1.0625,-0.28125 0.51562,-0.29688 0.73437,-0.76563 v -1.45312 h -0.9375 q -2.21875,0 -2.21875,1.29687 0,0.5625 0.375,0.89063 0.39063,0.3125 0.98438,0.3125 z m 6.20288,0.92187 h -1.20313 v -7.04687 h 1.20313 z m -1.29688,-8.90625 q 0,-0.29687 0.17188,-0.5 0.1875,-0.20312 0.53125,-0.20312 0.35937,0 0.53125,0.20312 0.1875,0.20313 0.1875,0.5 0,0.29688 -0.1875,0.5 -0.17188,0.1875 -0.53125,0.1875 -0.34375,0 -0.53125,-0.1875 -0.17188,-0.20312 -0.17188,-0.5 z m 4.35944,1.85938 0.0469,0.89062 q 0.79688,-1.01562 2.10938,-1.01562 2.23437,0 2.25,2.51562 v 4.65625 h -1.20313 v -4.65625 q -0.0156,-0.76562 -0.35937,-1.125 -0.32813,-0.375 -1.0625,-0.375 -0.57813,0 -1.03125,0.3125 -0.4375,0.3125 -0.6875,0.82813 v 5.01562 h -1.20313 v -7.04687 z m 7.52575,7.04687 h -1.20312 v -7.04687 h 1.20312 z m -1.29687,-8.90625 q 0,-0.29687 0.17187,-0.5 0.1875,-0.20312 0.53125,-0.20312 0.35938,0 0.53125,0.20312 0.1875,0.20313 0.1875,0.5 0,0.29688 -0.1875,0.5 -0.17187,0.1875 -0.53125,0.1875 -0.34375,0 -0.53125,-0.1875 -0.17187,-0.20312 -0.17187,-0.5 z m 4.35944,1.85938 0.0469,0.89062 q 0.79688,-1.01562 2.10938,-1.01562 2.23437,0 2.25,2.51562 v 4.65625 h -1.20313 v -4.65625 q -0.0156,-0.76562 -0.35937,-1.125 -0.32813,-0.375 -1.0625,-0.375 -0.57813,0 -1.03125,0.3125 -0.4375,0.3125 -0.6875,0.82813 v 5.01562 h -1.20313 v -7.04687 z m 5.932,3.46875 q 0,-1.64063 0.75,-2.60938 0.76563,-0.98437 2.03125,-0.98437 1.28125,0 2.01563,0.90625 l 0.0469,-0.78125 h 1.10938 v 6.875 q 0,1.375 -0.8125,2.15625 -0.8125,0.78125 -2.1875,0.78125 -0.75,0 -1.48438,-0.32813 -0.73437,-0.3125 -1.10937,-0.875 l 0.625,-0.73437 q 0.76562,0.96875 1.89062,0.96875 0.875,0 1.35938,-0.5 0.5,-0.5 0.5,-1.39063 v -0.60937 q -0.71875,0.82812 -1.96875,0.82812 -1.23438,0 -2,-0.98437 -0.76563,-1 -0.76563,-2.71875 z m 1.20313,0.14062 q 0,1.1875 0.48437,1.875 0.5,0.67188 1.375,0.67188 1.14063,0 1.67188,-1.03125 v -3.21875 q -0.54688,-1.01563 -1.65625,-1.01563 -0.875,0 -1.375,0.6875 -0.5,0.6875 -0.5,2.03125 z" />
  <path
     style="fill:#155b54;fill-rule:evenodd"
     inkscape:connector-curvature="0"
     id="path67"
     d="m 1.7822492,122.62471 v 0 c 0,-27.866624 23.6828298,-50.456994 52.8970898,-50.456994 v 0 c 14.02918,0 27.48377,5.316 37.4039,14.77852 9.920141,9.46251 15.493201,22.296454 15.493201,35.678474 v 0 c 0,27.86664 -23.682831,50.457 -52.897091,50.457 v 0 c -29.21427,0 -52.8970998,-22.59036 -52.8970998,-50.457 z" />
  <path
     style="fill:#000000;fill-opacity:0;fill-rule:evenodd"
     inkscape:connector-curvature="0"
     id="path69"
     d="m 16.922349,88.054196 h 75.49942 v 69.155264 h -75.49942 z" />
  <path
     style="fill:#ffffff;fill-rule:nonzero"
     inkscape:connector-curvature="0"
     id="path71"
     d="m 41.969119,117.43183 v -9.46875 h 2.6875 q 1.23437,0 2.17187,0.54687 0.95313,0.54688 1.46875,1.5625 0.53125,1 0.53125,2.29688 v 0.60937 q 0,1.34375 -0.51562,2.35938 -0.51563,1 -1.48438,1.54687 -0.95312,0.53125 -2.23437,0.54688 z m 1.25,-8.45313 v 7.4375 h 1.3125 q 1.45312,0 2.25,-0.89062 0.8125,-0.90625 0.8125,-2.57813 v -0.54687 q 0,-1.60938 -0.76563,-2.5 -0.75,-0.90625 -2.14062,-0.92188 z m 11.66196,8.45313 q -0.10938,-0.20313 -0.17188,-0.73438 -0.84375,0.85938 -2.01562,0.85938 -1.03125,0 -1.70313,-0.57813 -0.67187,-0.59375 -0.67187,-1.5 0,-1.09375 0.82812,-1.70312 0.84375,-0.60938 2.35938,-0.60938 h 1.17187 v -0.5625 q 0,-0.625 -0.375,-1 -0.375,-0.375 -1.10937,-0.375 -0.64063,0 -1.07813,0.32813 -0.4375,0.32812 -0.4375,0.78125 h -1.20312 q 0,-0.51563 0.35937,-1 0.375,-0.5 1.01563,-0.78125 0.65625,-0.29688 1.42187,-0.29688 1.21875,0 1.90625,0.60938 0.6875,0.60937 0.71875,1.67187 v 3.25 q 0,0.96875 0.23438,1.53125 v 0.10938 z m -2,-0.92188 q 0.5625,0 1.0625,-0.28125 0.51562,-0.29687 0.73437,-0.76562 v -1.45313 h -0.9375 q -2.21875,0 -2.21875,1.29688 0,0.5625 0.375,0.89062 0.39063,0.3125 0.98438,0.3125 z m 6.53103,-7.82812 v 1.70312 h 1.3125 v 0.9375 h -1.3125 v 4.35938 q 0,0.42187 0.17188,0.64062 0.17187,0.21875 0.59375,0.21875 0.21875,0 0.57812,-0.0781 v 0.96875 q -0.46875,0.125 -0.92187,0.125 -0.8125,0 -1.21875,-0.48438 -0.40625,-0.48437 -0.40625,-1.39062 v -4.35938 h -1.28125 v -0.9375 h 1.28125 v -1.70312 z m 7.07251,8.75 q -0.10937,-0.20313 -0.17187,-0.73438 -0.84375,0.85938 -2.01563,0.85938 -1.03125,0 -1.70312,-0.57813 -0.67188,-0.59375 -0.67188,-1.5 0,-1.09375 0.82813,-1.70312 0.84375,-0.60938 2.35937,-0.60938 h 1.17188 v -0.5625 q 0,-0.625 -0.375,-1 -0.375,-0.375 -1.10938,-0.375 -0.64062,0 -1.07812,0.32813 -0.4375,0.32812 -0.4375,0.78125 h -1.20313 q 0,-0.51563 0.35938,-1 0.375,-0.5 1.01562,-0.78125 0.65625,-0.29688 1.42188,-0.29688 1.21875,0 1.90625,0.60938 0.6875,0.60937 0.71875,1.67187 v 3.25 q 0,0.96875 0.23437,1.53125 v 0.10938 z m -2,-0.92188 q 0.5625,0 1.0625,-0.28125 0.51563,-0.29687 0.73438,-0.76562 v -1.45313 h -0.9375 q -2.21875,0 -2.21875,1.29688 0,0.5625 0.375,0.89062 0.39062,0.3125 0.98437,0.3125 z" />
  <path
     style="fill:#ffffff;fill-rule:nonzero"
     inkscape:connector-curvature="0"
     id="path73"
     d="m 33.744899,131.21307 q -1.60938,-0.46875 -2.34375,-1.14063 -0.73438,-0.67187 -0.73438,-1.65625 0,-1.125 0.89063,-1.85937 0.90625,-0.73438 2.34375,-0.73438 0.96875,0 1.73437,0.39063 0.76563,0.375 1.1875,1.04687 0.42188,0.65625 0.42188,1.4375 h -1.26563 q 0,-0.85937 -0.54687,-1.34375 -0.54688,-0.5 -1.53125,-0.5 -0.92188,0 -1.45313,0.40625 -0.51562,0.40625 -0.51562,1.125 0,0.57813 0.48437,0.98438 0.5,0.40625 1.67188,0.73437 1.1875,0.32813 1.85937,0.73438 0.67188,0.39062 0.98438,0.9375 0.32812,0.53125 0.32812,1.25 0,1.15625 -0.90625,1.84375 -0.89062,0.6875 -2.39062,0.6875 -0.98438,0 -1.82813,-0.375 -0.84375,-0.375 -1.3125,-1.01563 -0.45312,-0.65625 -0.45312,-1.48437 h 1.26562 q 0,0.85937 0.625,1.35937 0.64063,0.5 1.70313,0.5 0.98437,0 1.51562,-0.40625 0.53125,-0.40625 0.53125,-1.09375 0,-0.70312 -0.5,-1.07812 -0.48437,-0.39063 -1.76562,-0.75 z m 6.56332,-4.53125 v 1.70312 h 1.3125 v 0.9375 h -1.3125 v 4.35938 q 0,0.42187 0.17188,0.64062 0.17187,0.21875 0.59375,0.21875 0.21875,0 0.57812,-0.0781 v 0.96875 q -0.46875,0.125 -0.92187,0.125 -0.8125,0 -1.21875,-0.48438 -0.40625,-0.48437 -0.40625,-1.39062 v -4.35938 h -1.28125 v -0.9375 h 1.28125 v -1.70312 z m 6.11942,2.78125 q -0.26563,-0.0312 -0.59375,-0.0312 -1.1875,0 -1.60938,1 v 5 h -1.20312 v -7.04688 h 1.17187 l 0.0312,0.8125 q 0.57813,-0.9375 1.67188,-0.9375 0.34375,0 0.53125,0.0937 z m 4.02557,6.09375 q -1.42187,0 -2.32812,-0.9375 -0.89063,-0.9375 -0.89063,-2.51563 v -0.21875 q 0,-1.04687 0.39063,-1.85937 0.40625,-0.82813 1.125,-1.29688 0.71875,-0.46875 1.5625,-0.46875 1.375,0 2.125,0.90625 0.76562,0.90625 0.76562,2.59375 v 0.5 h -4.76562 q 0.0156,1.03125 0.59375,1.67188 0.59375,0.64062 1.48437,0.64062 0.64063,0 1.07813,-0.25 0.45312,-0.26562 0.78125,-0.6875 l 0.73437,0.5625 q -0.875,1.35938 -2.65625,1.35938 z m -0.14062,-6.3125 q -0.73438,0 -1.23438,0.53125 -0.48437,0.53125 -0.60937,1.48437 h 3.53125 v -0.0781 q -0.0469,-0.92188 -0.5,-1.42188 -0.4375,-0.51562 -1.1875,-0.51562 z m 8.63919,6.1875 q -0.10938,-0.20313 -0.17188,-0.73438 -0.84375,0.85938 -2.01562,0.85938 -1.03125,0 -1.70313,-0.57813 -0.67187,-0.59375 -0.67187,-1.5 0,-1.09375 0.82812,-1.70312 0.84375,-0.60938 2.35938,-0.60938 h 1.17187 v -0.5625 q 0,-0.625 -0.375,-1 -0.375,-0.375 -1.10937,-0.375 -0.64063,0 -1.07813,0.32813 -0.4375,0.32812 -0.4375,0.78125 h -1.20312 q 0,-0.51563 0.35937,-1 0.375,-0.5 1.01563,-0.78125 0.65625,-0.29688 1.42187,-0.29688 1.21875,0 1.90625,0.60938 0.6875,0.60937 0.71875,1.67187 v 3.25 q 0,0.96875 0.23438,1.53125 v 0.10938 z m -2,-0.92188 q 0.5625,0 1.0625,-0.28125 0.51562,-0.29687 0.73437,-0.76562 v -1.45313 h -0.9375 q -2.21875,0 -2.21875,1.29688 0,0.5625 0.375,0.89062 0.39063,0.3125 0.98438,0.3125 z m 6.031,-6.125 0.0312,0.78125 q 0.76563,-0.90625 2.09375,-0.90625 1.46875,0 2,1.125 0.35938,-0.5 0.92188,-0.8125 0.5625,-0.3125 1.32812,-0.3125 2.3125,0 2.35938,2.45313 v 4.71875 h -1.20313 v -4.64063 q 0,-0.76562 -0.34375,-1.14062 -0.34375,-0.375 -1.17187,-0.375 -0.65625,0 -1.10938,0.40625 -0.4375,0.40625 -0.51562,1.07812 v 4.67188 h -1.20313 v -4.60938 q 0,-1.54687 -1.5,-1.54687 -1.1875,0 -1.625,1.01562 v 5.14063 h -1.20312 v -7.04688 z m 14.6504,5.17188 q 0,-0.48438 -0.375,-0.75 -0.35938,-0.26563 -1.28125,-0.45313 -0.90625,-0.20312 -1.45313,-0.46875 -0.53125,-0.28125 -0.79687,-0.65625 -0.25,-0.39062 -0.25,-0.90625 0,-0.85937 0.73437,-1.45312 0.73438,-0.60938 1.875,-0.60938 1.1875,0 1.9375,0.625 0.75,0.60938 0.75,1.57813 h -1.21875 q 0,-0.5 -0.42187,-0.85938 -0.42188,-0.35937 -1.04688,-0.35937 -0.65625,0 -1.03125,0.29687 -0.375,0.28125 -0.375,0.75 0,0.42188 0.34375,0.65625 0.34375,0.21875 1.25,0.42188 0.90625,0.20312 1.45313,0.48437 0.5625,0.26563 0.82812,0.67188 0.28125,0.39062 0.28125,0.95312 0,0.9375 -0.76562,1.51563 -0.75,0.5625 -1.95313,0.5625 -0.84375,0 -1.5,-0.29688 -0.64062,-0.29687 -1.01562,-0.82812 -0.35938,-0.54688 -0.35938,-1.17188 h 1.20313 q 0.0312,0.60938 0.48437,0.96875 0.45313,0.34375 1.1875,0.34375 0.6875,0 1.09375,-0.26562 0.42188,-0.28125 0.42188,-0.75 z" />
  <path
     style="fill:#155b54;fill-rule:evenodd"
     inkscape:connector-curvature="0"
     id="path75"
     d="m 145.78225,354.62473 v 0 c 0,-27.86664 23.68283,-50.457 52.89709,-50.457 v 0 c 14.02918,0 27.48377,5.31598 37.40393,14.7785 9.92011,9.46253 15.49317,22.29645 15.49317,35.6785 v 0 c 0,27.86661 -23.68283,50.45697 -52.8971,50.45697 v 0 c -29.21426,0 -52.89709,-22.59036 -52.89709,-50.45697 z" />
  <path
     style="fill:#000000;fill-opacity:0;fill-rule:evenodd"
     inkscape:connector-curvature="0"
     id="path77"
     d="m 160.92235,320.0542 h 75.49942 v 69.15524 h -75.49942 z" />
  <path
     style="fill:#ffffff;fill-rule:nonzero"
     inkscape:connector-curvature="0"
     id="path79"
     d="m 191.20025,355.96307 h -3.96875 l -0.89063,2.46875 h -1.28125 l 3.60938,-9.46875 h 1.09375 l 3.625,9.46875 h -1.28125 z m -3.59375,-1.03125 h 3.23437 l -1.625,-4.4375 z m 8.30389,-0.20313 v 3.70313 h -1.25 v -9.46875 h 3.5 q 1.5625,0 2.4375,0.79687 0.875,0.78125 0.875,2.09375 0,1.375 -0.85937,2.125 -0.85938,0.75 -2.46875,0.75 z m 0,-1.03125 h 2.25 q 1,0 1.53125,-0.46875 0.54688,-0.46875 0.54688,-1.35937 0,-0.84375 -0.54688,-1.34375 -0.53125,-0.51563 -1.45312,-0.54688 h -2.32813 z m 8.50193,4.73438 h -1.25 v -9.46875 h 1.25 z m 6.203,-1.875 q 0,-0.48438 -0.375,-0.75 -0.35937,-0.26563 -1.28125,-0.45313 -0.90625,-0.20312 -1.45312,-0.46875 -0.53125,-0.28125 -0.79688,-0.65625 -0.25,-0.39062 -0.25,-0.90625 0,-0.85937 0.73438,-1.45312 0.73437,-0.60938 1.875,-0.60938 1.1875,0 1.9375,0.625 0.75,0.60938 0.75,1.57813 h -1.21875 q 0,-0.5 -0.42188,-0.85938 -0.42187,-0.35937 -1.04687,-0.35937 -0.65625,0 -1.03125,0.29687 -0.375,0.28125 -0.375,0.75 0,0.42188 0.34375,0.65625 0.34375,0.21875 1.25,0.42188 0.90625,0.20312 1.45312,0.48437 0.5625,0.26563 0.82813,0.67188 0.28125,0.39062 0.28125,0.95312 0,0.9375 -0.76563,1.51563 -0.75,0.5625 -1.95312,0.5625 -0.84375,0 -1.5,-0.29688 -0.64063,-0.29687 -1.01563,-0.82812 -0.35937,-0.54688 -0.35937,-1.17188 h 1.20312 q 0.0312,0.60938 0.48438,0.96875 0.45312,0.34375 1.1875,0.34375 0.6875,0 1.09375,-0.26562 0.42187,-0.28125 0.42187,-0.75 z" />
</svg>
