<svg xmlns="http://www.w3.org/2000/svg" role="img" viewBox="28.38 19.25 156.00 51.50"><title>Alteryx Connect (Data Catalog) logo</title><g fill="#1691C6"><path d="M45.8 52.5l-.2.1c-1.8 1.1-3.8 1.8-5.9 1.8-2.8-.1-3.9-1.1-3.9-3.8.1-3.2 1.1-4.1 4.7-4.4l4.9-.2h.4v6.5zm9 1.5c-.1-.5-.6-.9-1.1-.9-.2 0-.3 0-.4.1l-1.8.3c-1.1.1-1.3-.4-1.4-1.6V34.8c0-.4-.2-.8-.5-1l-.1-.1-.1-.1c-1.2-.6-2.5-1-3.8-1.3h-.1c-1.6-.4-3.3-.6-5-.6-.8 0-1.5 0-2.3.1-1.2.1-2.3.3-3.4.6-.2.1-.8.4-.9 1 .1.4.2.9.4 1.3.2.7.5.9.9 1 .5 0 1.1-.1 1.6-.2.9-.2 1.9-.3 2.8-.3 1 0 2 0 3 .1 2.2.3 3.1 1 3.1 1V43h-.2l-4.8.1c-6.3.2-9.3 2.7-9.3 7.8 0 2.3.7 4.2 2.1 5.4 1.3 1.1 3.2 1.7 5.4 1.7 2.6 0 5-.9 7-2.5l.2-.2.1.2c.5 1.1 1.5 1.9 2.6 2.2.6.2 1.3.2 2 .2h.6c1-.1 1.9-.3 2.8-.7.6-.3 1-.6 1-1.3-.1-.6-.2-1.2-.4-1.9m70.4 3.9h-2.3c-.3 0-.6-.1-.8-.3-.2-.3-.3-.6-.3-.9v-22c0-.3.1-.7.3-.9.2-.2.5-.3.8-.3h2.1c.3 0 .6.1.9.2.2.2.3.5.3.8v1.1l.3-.4c1.3-1.5 3.1-2.3 5.1-2.3.5 0 1 .1 1.5.2.4.1.6.4.6.8v.3l-.3 2.2c0 .4-.3.6-.7.7-.2 0-.4 0-.6-.1-.3-.1-.7-.1-1-.1-1.6 0-3.4 1.1-4.6 2.7v16.9c0 .3-.1.6-.3.9-.4.4-.7.5-1 .5M110.9 43h-10.6c.1-5.4 2.2-7.5 5.6-7.5 3.3 0 5.1 1.8 5.1 6-.1.3-.1 1.2-.1 1.5m-5-10.9c-6 0-10.4 4.1-10.4 13.6 0 8.6 4 12.9 11.7 12.9 1.3 0 2.7-.2 4-.4.2 0 .4-.1.7-.1.7-.2 1.4-.4 2.1-.7.5-.1.8-.5.9-1-.1-.7-.3-1.4-.5-2.1-.1-.4-.6-.7-1-.7-.1 0-2.2.4-2.3.5-1.2.3-2.4.5-3.7.5-5.4 0-7-2.6-7-7.9V46h14.2c.4 0 .8-.4.8-.8V45c0-.9.1-1.9.1-2.7-.2-6.4-3.4-10.2-9.6-10.2m33.6 35.7h-.2c-.7 0-1.5-.1-2.2-.2-.4-.1-.6-.6-.5-1.4 0-.5.1-.9.2-1.3.1-.6.4-.8.7-.8h.8c.4 0 .8.1 1.2.1 2.8 0 4.3-1 5.3-3.6l1.2-3.1.1-.3V56.9l-8.5-22.5c0-.1-.1-.2 0-.3 0-.1 0-.3.1-.4.1-.1.3-.2.4-.2h3.2c.4 0 .8.2.9.6l5.6 16.1.4 1.1.4-1.1 5.8-16c.1-.4.5-.7.9-.7h2.8c.2 0 .3 0 .5.1.1.1.2.2.1.3 0 .1 0 .3-.1.4L149.2 60c-2.1 5.7-4.7 7.8-9.7 7.8m38.4-10c-.5 0-1-.3-1.3-.7l-5.1-7.9-.2-.3-.2.3-5.1 7.9c-.3.5-.8.8-1.3.7H162c-.2 0-.4 0-.5-.2-.1-.1-.2-.3-.2-.5s.1-.5.2-.7l7.4-11.2.1-.1-.1-.1-6.9-10.4c-.1-.2-.2-.3-.2-.5 0-.4.4-.7.8-.7h2.6c.5 0 .9.2 1.2.6l4.8 7.2.2.2.2-.2 4.8-7.2c.2-.4.7-.7 1.1-.7h2.6c.4 0 .8.3.8.7 0 .2-.1.4-.2.5L173.9 45l-.1.1.1.1 7.3 11.1c.1.2.2.4.2.7 0 .2-.1.4-.2.5-.2.1-.3.2-.5.2H177.9zm-110.3.1c-1.1 0-2.3-.2-3.4-.5-.8-.3-1.6-.7-2.2-1.4-1.4-1.6-1.6-3.6-1.6-6.2v-25c0-.2.1-.3.2-.4.9-1 2-1.7 3.3-2.1h.2c.2 0 .4.1.6.2.2.2.3.6.3.9V50c-.1 1.1.3 2.3.9 3.2.7.6 1.5.9 2.4.9.3 0 .6 0 .9-.1.7-.1 1.4-.3 2-.5.1-.1.3-.1.4-.1.4 0 .8.3.9.7.2.6.3 1.2.4 1.9 0 .5-.4.9-.9 1-1.3.6-2.8.9-4.4.9m23.3-3.8c-.1-.4-.5-.7-.9-.7-.1 0-.3 0-.4.1-.9.3-1.9.5-2.8.5h-.1c-.9.1-1.8-.2-2.4-.9-.5-.5-.9-1.4-.9-3.1v-.1l.1-13.2h5.4c.3 0 .5-.1.7-.2.2-.2.3-.5.3-.7v-1.7c0-.3-.1-.6-.3-.8-.2-.1-.5-.2-.7-.2h-5.4V25c0-.3-.1-.6-.3-.9-.2-.2-.4-.2-.6-.2h-.2c-.7.3-1.4.6-2.1 1.1-.3.3-.7.5-1 .8-.1.1-.1.2-.1.4l-.2 6.9h-2.8c-.3 0-.6.1-.8.3-.2.2-.3.5-.3.8v1.5c0 .3 0 .6.2.9.2.2.6.3.9.3h2.6l-.2 12.4v.5c0 2.6.1 4.6 1.6 6.2 1.1 1.2 3.1 1.9 5.6 1.9 1.6 0 3.2-.3 4.6-.9.4-.2.9-.5.9-1 0-.7-.2-1.3-.4-1.9"/><path d="M45.8 52.5l-.2.1c-1.8 1.1-3.8 1.8-5.9 1.8-2.8-.1-3.9-1.1-3.9-3.8.1-3.2 1.1-4.1 4.7-4.4l4.9-.2h.4v6.5zm9 1.5c-.1-.5-.6-.9-1.1-.9-.2 0-.3 0-.4.1l-1.8.3c-1.1.1-1.3-.4-1.4-1.6V34.8c0-.4-.2-.8-.5-1l-.1-.1-.1-.1c-1.2-.6-2.5-1-3.8-1.3h-.1c-1.6-.4-3.3-.6-5-.6-.8 0-1.5 0-2.3.1-1.2.1-2.3.3-3.4.6-.2.1-.8.4-.9 1 .1.4.2.9.4 1.3.2.7.5.9.9 1 .5 0 1.1-.1 1.6-.2.9-.2 1.9-.3 2.8-.3 1 0 2 0 3 .1 2.2.3 3.1 1 3.1 1V43h-.2l-4.8.1c-6.3.2-9.3 2.7-9.3 7.8 0 2.3.7 4.2 2.1 5.4 1.3 1.1 3.2 1.7 5.4 1.7 2.6 0 5-.9 7-2.5l.2-.2.1.2c.5 1.1 1.5 1.9 2.6 2.2.6.2 1.3.2 2 .2h.6c1-.1 1.9-.3 2.8-.7.6-.3 1-.6 1-1.3-.1-.6-.2-1.2-.4-1.9m70.4 3.9h-2.3c-.3 0-.6-.1-.8-.3-.2-.3-.3-.6-.3-.9v-22c0-.3.1-.7.3-.9.2-.2.5-.3.8-.3h2.1c.3 0 .6.1.9.2.2.2.3.5.3.8v1.1l.3-.4c1.3-1.5 3.1-2.3 5.1-2.3.5 0 1 .1 1.5.2.4.1.6.4.6.8v.3l-.3 2.2c0 .4-.3.6-.7.7-.2 0-.4 0-.6-.1-.3-.1-.7-.1-1-.1-1.6 0-3.4 1.1-4.6 2.7v16.9c0 .3-.1.6-.3.9-.4.4-.7.5-1 .5M110.9 43h-10.6c.1-5.4 2.2-7.5 5.6-7.5 3.3 0 5.1 1.8 5.1 6-.1.3-.1 1.2-.1 1.5m-5-10.9c-6 0-10.4 4.1-10.4 13.6 0 8.6 4 12.9 11.7 12.9 1.3 0 2.7-.2 4-.4.2 0 .4-.1.7-.1.7-.2 1.4-.4 2.1-.7.5-.1.8-.5.9-1-.1-.7-.3-1.4-.5-2.1-.1-.4-.6-.7-1-.7-.1 0-2.2.4-2.3.5-1.2.3-2.4.5-3.7.5-5.4 0-7-2.6-7-7.9V46h14.2c.4 0 .8-.4.8-.8V45c0-.9.1-1.9.1-2.7-.2-6.4-3.4-10.2-9.6-10.2m33.6 35.7h-.2c-.7 0-1.5-.1-2.2-.2-.4-.1-.6-.6-.5-1.4 0-.5.1-.9.2-1.3.1-.6.4-.8.7-.8h.8c.4 0 .8.1 1.2.1 2.8 0 4.3-1 5.3-3.6l1.2-3.1.1-.3V56.9l-8.5-22.5c0-.1-.1-.2 0-.3 0-.1 0-.3.1-.4.1-.1.3-.2.4-.2h3.2c.4 0 .8.2.9.6l5.6 16.1.4 1.1.4-1.1 5.8-16c.1-.4.5-.7.9-.7h2.8c.2 0 .3 0 .5.1.1.1.2.2.1.3 0 .1 0 .3-.1.4L149.2 60c-2.1 5.7-4.7 7.8-9.7 7.8m38.4-10c-.5 0-1-.3-1.3-.7l-5.1-7.9-.2-.3-.2.3-5.1 7.9c-.3.5-.8.8-1.3.7H162c-.2 0-.4 0-.5-.2-.1-.1-.2-.3-.2-.5s.1-.5.2-.7l7.4-11.2.1-.1-.1-.1-6.9-10.4c-.1-.2-.2-.3-.2-.5 0-.4.4-.7.8-.7h2.6c.5 0 .9.2 1.2.6l4.8 7.2.2.2.2-.2 4.8-7.2c.2-.4.7-.7 1.1-.7h2.6c.4 0 .8.3.8.7 0 .2-.1.4-.2.5L173.9 45l-.1.1.1.1 7.3 11.1c.1.2.2.4.2.7 0 .2-.1.4-.2.5-.2.1-.3.2-.5.2H177.9zm-110.3.1c-1.1 0-2.3-.2-3.4-.5-.8-.3-1.6-.7-2.2-1.4-1.4-1.6-1.6-3.6-1.6-6.2v-25c0-.2.1-.3.2-.4.9-1 2-1.7 3.3-2.1h.2c.2 0 .4.1.6.2.2.2.3.6.3.9V50c-.1 1.1.3 2.3.9 3.2.7.6 1.5.9 2.4.9.3 0 .6 0 .9-.1.7-.1 1.4-.3 2-.5.1-.1.3-.1.4-.1.4 0 .8.3.9.7.2.6.3 1.2.4 1.9 0 .5-.4.9-.9 1-1.3.6-2.8.9-4.4.9m23.3-3.8c-.1-.4-.5-.7-.9-.7-.1 0-.3 0-.4.1-.9.3-1.9.5-2.8.5h-.1c-.9.1-1.8-.2-2.4-.9-.5-.5-.9-1.4-.9-3.1v-.1l.1-13.2h5.4c.3 0 .5-.1.7-.2.2-.2.3-.5.3-.7v-1.7c0-.3-.1-.6-.3-.8-.2-.1-.5-.2-.7-.2h-5.4V25c0-.3-.1-.6-.3-.9-.2-.2-.4-.2-.6-.2h-.2c-.7.3-1.4.6-2.1 1.1-.3.3-.7.5-1 .8-.1.1-.1.2-.1.4l-.2 6.9h-2.8c-.3 0-.6.1-.8.3-.2.2-.3.5-.3.8v1.5c0 .3 0 .6.2.9.2.2.6.3.9.3h2.6l-.2 12.4v.5c0 2.6.1 4.6 1.6 6.2 1.1 1.2 3.1 1.9 5.6 1.9 1.6 0 3.2-.3 4.6-.9.4-.2.9-.5.9-1 0-.7-.2-1.3-.4-1.9"/></g></svg>