<svg xmlns="http://www.w3.org/2000/svg" role="img" viewBox="-3.27 -3.77 196.04 76.04"><title>BCG Source.ai (Provenance and Lineage) logo</title><defs><linearGradient id="a" x1="31.616" x2="15.509" y1="17.644" y2="9.122" gradientTransform="scale(.7274 1.37477)" gradientUnits="userSpaceOnUse"><stop offset="0%" stop-color="#136452"/><stop offset="100%" stop-color="#4AB070"/></linearGradient><linearGradient id="b" x1="37.477" x2="17.914" y1="23.765" y2="11.872" gradientTransform="scale(.7797 1.28255)" gradientUnits="userSpaceOnUse"><stop offset="0%" stop-color="#136452"/><stop offset="100%" stop-color="#4AB070"/></linearGradient><linearGradient id="c" x1="40.683" x2="17.357" y1="27.999" y2="12.492" gradientTransform="scale(.81534 1.22648)" gradientUnits="userSpaceOnUse"><stop offset="0%" stop-color="#136452"/><stop offset="100%" stop-color="#4AB070"/></linearGradient><linearGradient id="d" x1="52.149" x2="52.149" y1="46.734" y2="29.16" gradientTransform="scale(.7274 1.37477)" gradientUnits="userSpaceOnUse"><stop offset="0%" stop-color="#136452"/><stop offset="100%" stop-color="#4AB070"/></linearGradient><linearGradient id="e" x1="43.784" x2="43.784" y1="51.236" y2="29.543" gradientTransform="scale(.7797 1.28255)" gradientUnits="userSpaceOnUse"><stop offset="0%" stop-color="#136452"/><stop offset="100%" stop-color="#4AB070"/></linearGradient><linearGradient id="f" x1="37.16" x2="37.16" y1="53.976" y2="18.757" gradientTransform="scale(.81534 1.22648)" gradientUnits="userSpaceOnUse"><stop offset="0%" stop-color="#136452"/><stop offset="100%" stop-color="#4AB070"/></linearGradient></defs><g fill="none" fill-rule="evenodd"><path fill="url(#a)" d="M16.1 38c-.3 0-.5-.1-.7-.3L2.3 24.8c-1-1-1.6-2.3-1.6-3.8 0-1.4.6-2.8 1.6-3.8L19 .5c.4-.4 1-.4 1.4 0 .4.4.4 1 0 1.4L3.7 18.6c-.6.6-1 1.5-1 2.4 0 .9.3 1.7 1 2.4l13.1 12.9c.4.4.4 1 0 1.4-.1.2-.4.3-.7.3z"/><path fill="url(#b)" d="M16.1 45.6c-.3 0-.5-.1-.7-.3L2.3 32.4c-1-1-1.6-2.3-1.6-3.8 0-1.4.6-2.8 1.6-3.8L26.6.5c.4-.4 1-.4 1.4 0 .4.4.4 1 0 1.4L3.7 26.2c-.6.6-1 1.5-1 2.4 0 .9.3 1.7 1 2.4l13.1 12.9c.4.4.4 1 0 1.4-.1.2-.4.3-.7.3z"/><path fill="url(#c)" d="M16.1 53.2c-.3 0-.5-.1-.7-.3L2.3 40c-1-1-1.6-2.3-1.6-3.8 0-1.4.6-2.8 1.6-3.8l32-32c.4-.4 1-.4 1.4 0 .4.4.4 1 0 1.4l-32 32c-.6.6-1 1.5-1 2.4 0 .9.3 1.7 1 2.4l13.1 12.9c.4.4.4 1 0 1.4-.1.2-.4.3-.7.3z"/><path fill="url(#d)" d="M29 68.6c-.3 0-.5-.1-.7-.3-.4-.4-.4-1 0-1.4L45 50.2c.6-.6 1-1.5 1-2.4 0-.9-.3-1.7-1-2.4L31.9 32.5c-.4-.4-.4-1 0-1.4.4-.4 1-.4 1.4 0L46.4 44c1 1 1.6 2.3 1.6 3.8 0 1.4-.6 2.8-1.6 3.8L29.7 68.3c-.2.2-.5.3-.7.3z"/><path fill="url(#e)" d="M21.4 68.6c-.3 0-.5-.1-.7-.3-.4-.4-.4-1 0-1.4L45 42.6c.6-.6 1-1.5 1-2.4 0-.9-.3-1.7-1-2.4L31.9 24.9c-.4-.4-.4-1 0-1.4.4-.4 1-.4 1.4 0l13.1 12.9c1 1 1.6 2.3 1.6 3.8 0 1.4-.6 2.8-1.6 3.8L22.1 68.3c-.2.2-.5.3-.7.3z"/><path fill="url(#f)" d="M13.7 68.7c-.3 0-.5-.1-.7-.3-.4-.4-.4-1 0-1.4l32-32c.6-.6 1-1.5 1-2.4 0-.9-.3-1.7-1-2.4L31.9 17.3c-.4-.4-.4-1 0-1.4.4-.4 1-.4 1.4 0l13.1 12.9c1 1 1.6 2.3 1.6 3.8 0 1.4-.6 2.8-1.6 3.8l-32 32c-.2.2-.5.3-.7.3z"/></g><g fill="#242424" fill-rule="evenodd"><path d="M70.3 32.7c2.9.9 6.4 2.1 6.4 6.2 0 3-2.9 5.3-6.8 5.3-2.6 0-4.5-.5-6.5-1.5-.3-.2-.4-.5-.2-.7l.7-1.7c.1-.3.4-.4.7-.3 1.7.7 3.3 1.2 5.1 1.2 1.9 0 3.7-.9 3.7-2.4 0-2.1-2.2-2.7-4.4-3.4-2.8-.8-5.9-1.8-5.9-5.5 0-3.4 2.5-5.3 6-5.3 1.1 0 3.4.2 6.1 1.4.3.1.4.5.3.7l-.7 1.7c-.1.3-.5.4-.7.3-1.3-.5-3.3-1-4.3-1-1.8 0-3.3.3-3.4 2.1 0 1.7 1.9 2.3 3.9 2.9z"/><path fill-rule="nonzero" d="M96.8 34.3c0 4.1-2.1 9.7-9.3 9.7-7.2 0-9.3-5.6-9.3-9.7 0-3.9 2.1-9.6 9.3-9.6 7.2 0 9.3 5.7 9.3 9.6zm-3.3 0c0-1.7-.8-6.7-6.1-6.7s-6.1 4.9-6.1 6.7c0 1.7.8 6.8 6.1 6.8s6.1-5 6.1-6.8z"/><path d="M109.7 36.6V25.4c0-.3.2-.5.5-.5h2.2c.3 0 .5.2.5.5v11.2c0 3.2-1.9 7.5-7.5 7.5-5.5 0-7.4-4.3-7.4-7.5V25.4c0-.3.2-.5.5-.5h2.2c.3 0 .5.2.5.5v11.2c0 1.3.8 4.6 4.2 4.6 3.4 0 4.3-3.3 4.3-4.6z"/><path fill-rule="nonzero" d="M118.1 43.4c0 .3-.2.5-.5.5h-2.1c-.3 0-.5-.2-.5-.5V25.5c0-.3.2-.5.5-.5h6.6c5.1 0 6.6 3.5 6.6 6 0 2.8-1.8 4.8-4 5.7l3.2 6.8c.1.2-.1.5-.3.5h-2.4c-.3 0-.6-.2-.7-.5l-3-6.4h-3.3v6.3zm4.2-9.3c2.6 0 3.2-2.2 3.2-3.2 0-1.1-.6-3.1-3.3-3.1h-4.1v6.3z"/><path d="M143.8 29.6c-.2.2-.5.2-.7 0-1.2-1.1-3-2-4.7-2-5.3 0-6.1 5.1-6.1 6.8 0 1.8.8 6.8 6.1 6.9 1.9 0 3.6-.9 4.8-1.9.2-.2.6-.2.7.1l1.2 1.5c.2.2.2.6-.1.7-1.7 1.6-3.8 2.6-6.7 2.6-7.2 0-9.4-5.8-9.4-9.9 0-3.9 2.1-9.7 9.4-9.7 3 0 5.1 1.1 6.8 2.9.2.2.2.5 0 .7zm6.3 6.4v5h8.9c.3 0 .5.2.5.5v1.8c0 .3-.2.5-.5.5h-11.6c-.3 0-.5-.2-.5-.5V25.4c0-.3.2-.5.5-.5H159c.3 0 .5.2.5.5v1.8c0 .3-.2.5-.5.5h-8.9V33h6.8c.3 0 .5.2.5.5v1.8c0 .3-.2.5-.5.5h-6.8z"/></g><g fill="#242424" fill-rule="evenodd"><path fill-rule="nonzero" d="M180 38.9h-7l-1.8 4.6c-.1.2-.3.4-.6.4h-2.2c-.2 0-.3-.2-.2-.4l7.9-18.5c.1-.2.3-.4.5-.4s.4.1.5.4l7.9 18.5c.1.2-.1.4-.2.4h-2.2c-.2 0-.5-.1-.6-.4zm-6-2.4h5.1l-2.5-6.3z"/><path d="M189.2 43.5c0 .2-.2.4-.4.4h-2c-.2 0-.4-.2-.4-.4V25.3c0-.2.2-.4.4-.4h2c.2 0 .4.2.4.4z"/></g></svg>