<svg xmlns="http://www.w3.org/2000/svg" role="img" viewBox="-1.38 1.37 189.02 38.02"><title>Bright Computing Bright Cluster Manager for Data Science (AIOPs) logo</title><circle cx="18" cy="8.9" r="3.7" fill="#7cc300"/><circle cx="8.4" cy="13.5" r="3.7" fill="#7cc300"/><circle cx="6" cy="23.9" r="3.7" fill="#7cc300"/><circle cx="12.6" cy="32.2" r="3.7" fill="#7cc300"/><circle cx="23.3" cy="32.2" r="3.7" fill="#7cc300"/><circle cx="29.9" cy="23.9" r="3.7" fill="#7cc300"/><circle cx="27.6" cy="13.5" r="3.7" fill="#5fa8df"/><circle cx="18" cy="15" r="1.2" fill="#7cc300"/><circle cx="13.2" cy="17.3" r="1.2" fill="#7cc300"/><circle cx="12" cy="22.5" r="1.2" fill="#7cc300"/><circle cx="15.3" cy="26.7" r="1.2" fill="#7cc300"/><circle cx="20.6" cy="26.7" r="1.2" fill="#7cc300"/><circle cx="24" cy="22.5" r="1.2" fill="#7cc300"/><circle cx="22.8" cy="17.3" r="1.2" fill="#5fa8df"/><g fill="#7cc300"><circle cx="18" cy="18.1" r=".6"/><circle cx="15.6" cy="19.3" r=".6"/><circle cx="15" cy="21.9" r=".6"/><circle cx="16.6" cy="23.9" r=".6"/><circle cx="21" cy="21.9" r=".6"/><circle cx="20.4" cy="19.3" r=".6"/><circle cx="19.3" cy="23.9" r=".6"/><circle cx="18" cy="21.2" r="1.5"/></g><path d="M49.8 19.2c-.3.8-.6 1.1-1.4 1.6.8.5.9 1 .9 1.8 0 .7-.1 1.4-.3 2.1-.3 1.9-1.5 3.2-3.5 3.2h-7.2l2.3-14.2h7.3c1.2 0 2.5.6 2.5 2 0 .6-.4 2.8-.6 3.5zm-4.4 3.1h-3.1l-.4 2.6H45c.6 0 .9-.2 1-.8.1-.4.1-.7.1-1.1.1-.6-.3-.7-.7-.7zm1.1-5.6h-3.4l-.4 2.5h3.4c.4 0 .7-.3.8-.8.1-.4.2-.7.2-1.1 0-.3-.2-.6-.6-.6zm9.7 3.2h-.7c-.4 0-1 0-1.2.4 0 .1 0 .1-.1.2-.1.2-.1.5-.1.7-.1.6-.2 1.1-.3 1.6-.3 1.7-.5 3.4-.8 5.1h-2.7l1.3-7.9c.3-1.8 1.3-2.8 3.2-2.8h1.8zm2.5 8H56l1.7-10.7h2.7zm.6-11.8c-.9 0-1.7-.7-1.7-1.6s.7-1.8 1.7-1.8 1.7.8 1.7 1.7c0 1-.8 1.7-1.7 1.7zm11.5 3.7l-1.5 9.4c-.3 1.6-1.5 2.8-3.2 2.8h-6.3l.4-2.7h5.5c.8 0 .9-.6 1-1.3h-3.5c-1.3 0-2.4-.7-2.4-2.1v-.4l.9-5.3c.1-.9.4-1.6 1-2.2s1.3-.7 2.2-.7h3.6c.4 0 .7 0 1.1.1.9.2 1.2.7 1.2 1.6.1.2.1.5 0 .8zm-3.4.1h-2.1c-.4 0-.7.3-.8.7l-.6 3.8c0 .4.2.7.6.7h2.1c.4 0 .7-.3.8-.7l.6-3.7v-.3c0-.3-.3-.5-.6-.5zm14.2-.3l-1.3 8.2h-2.7l1.1-7.2v-.4c0-.4-.3-.4-.6-.4h-2c-.3 0-.8.1-.9.5v.3l-1.1 7.1h-2.7L73.7 13h2.7l-.6 4h3.7c1.2 0 2.1.8 2.1 2.1zm6.3.3h-1.8l-1.3 8h-2.7l2.3-14.7h2.7l-.6 4h1.8zm16.1-5.5h-6c-.8 0-1.2 0-1.9.5-.6.5-.9 1-1 1.8l-1.3 7.9c0 .2-.1.4-.1.7 0 .5.2.9.5 1.3.6.6 1.2.6 1.9.6h5.7l-.1.7h-6.2c-.8 0-1.3-.1-1.9-.7-.4-.5-.7-1-.7-1.6 0-.3 0-.6.1-.9l1.2-7.9c.1-1 .6-1.8 1.4-2.4s1.5-.7 2.4-.7h6zm9.9 5.9l-.7 4.6c-.2 1.1-.4 1.8-1.3 2.5-.7.5-1.2.6-2 .6h-3.1c-.7 0-1.2-.1-1.7-.6-.5-.4-.7-.9-.7-1.5 0-.3 0-.6.1-1l.7-4.6c.2-1.2.4-1.8 1.4-2.5.7-.5 1.2-.6 2-.6h3.1c.7 0 1.2.1 1.7.6.5.4.6.9.6 1.6 0 .2 0 .5-.1.9zm-1-2.1c-.4-.4-.7-.4-1.2-.4h-3.2c-.6 0-1 .1-1.5.4-.7.5-.9 1-1 1.9l-.8 5v.7c0 1.1.9 1.5 1.9 1.5h2.9c.7 0 1.1 0 1.7-.4.7-.5.8-.9 1-1.7l.8-5c0-.2.1-.5.1-.7-.2-.6-.3-.9-.7-1.3zm16.3 2.1l-1.2 7.5h-.6l1.2-7.8v-.3c0-.5 0-.9-.3-1.3-.4-.6-.9-.6-1.5-.6h-1c-.6 0-1.3.3-1.8.7-.5.5-.6 1.2-.7 1.8l-1.2 7.5h-.6l1.2-7.5c.1-.4.1-.7.1-1.1 0-.9-.8-1.5-1.6-1.5h-1c-.7 0-1.3 0-1.8.6-.5.4-.8 1.1-.9 1.7l-1.2 7.8h-.6l1.2-7.5c.1-.9.5-1.8 1.2-2.4.7-.7 1.3-.8 2.3-.8h1.1c1 0 1.7.4 2.1 1.3.9-1.2 1.6-1.3 3-1.3 1 0 1.8-.1 2.5.8.4.5.4.9.4 1.5-.2.3-.2.6-.3.9zM141 20l-.8 4.9c-.1 1-.3 1.6-1.1 2.3-.7.7-1.3.7-2.3.7h-5.3l-.6 3.6h-.6l1.8-11.4c.1-.9.5-1.7 1.2-2.3.7-.5 1.3-.6 2.2-.6h2.9c.8 0 1.5.1 2.1.7.4.4.5.9.5 1.5zm-2.8-2.2h-2.9c-.7 0-1.1.1-1.6.5-.6.4-.8 1.1-.9 1.8l-1.1 7.2h5.3c.7 0 1.3-.1 1.8-.6.6-.5.7-1.1.9-1.8l.8-4.9v-.4c-.1-1.4-1-1.8-2.3-1.8zM152 25c-.1.9-.4 1.6-1.2 2.2s-1.5.7-2.5.7h-2.6c-.9 0-1.5-.1-2.2-.7-.4-.4-.6-.9-.6-1.5 0-.2 0-.5.1-.7l1.2-7.9h.6l-1.2 7.8v.4c0 1.3.9 1.8 2.1 1.8h2.7c.7 0 1.3 0 1.9-.5.5-.4.9-1 1-1.7l1.2-7.9h.6zm7.7-7.2h-3.1L155 27.9h-.6l2.3-14.2h.6l-.6 3.5h3.1zm-.2 10.1h-.6l1.7-10.7h.6zm1.7-13.1c-.3 0-.5-.3-.5-.6s.2-.6.5-.6.6.2.6.6-.2.6-.6.6zm11.1 5l-1.3 8.1h-.6l1.3-8.1v-.4c0-1.4-.9-1.7-2.1-1.7h-2.5c-.6 0-1.2 0-1.8.4s-.9 1-1 1.7l-1.3 8.1h-.6l1.3-8.1c.1-.9.6-1.7 1.3-2.2.6-.4 1.3-.5 2.1-.5h2.7c1.4 0 2.7.3 2.7 2-.1.3-.1.5-.2.7zm11.7.4l-1.3 8.2c-.4 2.4-1.8 3-4.1 3h-5.2l.1-.6h5.7c1.6 0 2.6-.7 2.8-2.3l.1-.6h-5.3c-.7 0-1.3-.1-1.9-.6-.5-.4-.6-.8-.6-1.5 0-.3 0-.7.1-1l.7-4.6c.1-1 .3-1.8 1.2-2.4.7-.5 1.5-.7 2.4-.7h2.3c1.5 0 3.1.4 3.1 2.2-.1.3-.1.6-.1.9zm-2.9-2.4h-2.6c-.7 0-1.3.1-1.9.6s-.7 1-.8 1.8l-.7 4.7c0 .3-.1.6-.1.9 0 1.1.9 1.6 1.9 1.6h5.3l1.1-6.9c0-.3.1-.6.1-.9 0-1.5-1.3-1.8-2.3-1.8z"/></svg>