<svg xmlns="http://www.w3.org/2000/svg" role="img" viewBox="-4.23 -4.23 219.96 125.71"><title>C3.ai C3 AI Suite (Model Serving) logo</title><path d="M0 0v13h103.6v38.8H25.9v13h77.7v38.8H0v13h116.5V0z" class="logo-path"/><path d="M90.6 77.7H12.9V38.9h77.7v-13H0v64.8h90.6zm56.9 20.4c-.3-.5-.7-1-1.2-1.4s-1.1-.7-1.7-.9c-.6-.2-1.3-.3-2-.3-1.2 0-2.3.2-3.2.7s-1.6 1.1-2.1 1.9c-.5.8-.9 1.7-1.2 2.8s-.4 2.1-.4 3.2.1 2.1.4 3.1c.2 1 .6 1.9 1.2 2.7.5.8 1.2 1.4 2.1 1.9s1.9.7 3.2.7c1.7 0 3-.5 4-1.6 1-1 1.5-2.4 1.6-2.9h5.4c0 .4-.3 1.8-.9 3.1-.6 1.3-1.4 2.4-2.3 3.3s-2.1 1.6-3.4 2.1c-1.3.5-2.7.7-4.3.7-1.9 0-3.7-.3-5.2-1-1.6-.7-2.9-1.6-3.9-2.8s-1.9-2.6-2.4-4.2-.9-3.3-.9-5.2c0-1.9.3-3.6.9-5.3s1.4-3 2.4-4.2c1.1-1.2 2.4-2.2 3.9-2.8 1.6-.7 3.3-1 5.2-1 1.4 0 2.7.2 3.9.6 1.2.4 2.4 1 3.3 1.8 1 .8 1.8 1.7 2.4 2.8s1 2.4 1.2 3.9h-5.4c0-.6-.3-1.2-.6-1.7zm17.3 3.7c.6-.1 1.2-.2 1.7-.4s1-.6 1.3-1c.3-.4.5-1 .5-1.7 0-1.1-.4-1.9-1.1-2.4-.7-.6-1.5-.8-2.4-.8-1.3 0-2.2.4-2.9 1.3-.6.8-1 1.9-.9 3.2h-4.8c.1-1.3.3-2.4.7-3.5.4-1.1 1-1.9 1.7-2.7.7-.8 1.6-1.3 2.7-1.8s2.2-.6 3.5-.6c1 0 2 .2 3 .4s1.9.7 2.7 1.3c.8.6 1.4 1.3 1.9 2.2.5.8.7 1.8.7 2.9 0 1.2-.3 2.3-.9 3.2s-1.4 1.6-2.6 1.9v.1c1.4.3 2.4 1 3.2 2 .8 1 1.2 2.2 1.2 3.7 0 1.3-.2 2.5-.8 3.5-.5 1-1.2 1.9-2 2.6-.9.7-1.8 1.2-2.9 1.6-1.1.3-2.3.5-3.5.5-1.4 0-2.7-.2-3.8-.6-1.1-.4-2.1-1-2.9-1.8-.8-.8-1.4-1.7-1.9-2.8s-.6-2.4-.6-3.8h4.8c0 .7.1 1.3.3 1.9s.5 1.1.8 1.6c.4.4.8.8 1.3 1 .5.3 1.2.4 1.9.4 1.1 0 2.1-.3 2.9-1 .8-.7 1.2-1.7 1.2-2.8 0-.9-.2-1.7-.6-2.2s-.8-.9-1.4-1.1c-.6-.2-1.2-.3-1.9-.4s-1.3-.1-1.9-.1v-3.5c.6-.2 1.2-.2 1.8-.3zm17.4 9.3v5.4h-5.6v-5.4h5.6zm3.8-7.2c.1-1.2.4-2.2.9-2.9.5-.8 1.2-1.4 2-1.9s1.7-.8 2.7-1c1-.2 2-.3 3-.3.9 0 1.9.1 2.8.2.9.1 1.8.4 2.6.8s1.4.9 1.9 1.6c.5.7.7 1.6.7 2.7v9.5c0 .8.1 1.6.1 2.4.1.8.3 1.3.5 1.7h-5.1c-.1-.3-.2-.6-.2-.9-.1-.3-.1-.6-.1-.9-.8.8-1.8 1.4-2.8 1.7-1.1.3-2.2.5-3.3.5-.9 0-1.7-.1-2.4-.3s-1.4-.5-2-1c-.6-.4-1-1-1.3-1.7s-.5-1.5-.5-2.4c0-1 .2-1.9.6-2.6.4-.7.8-1.2 1.4-1.6s1.2-.7 2-.9c.7-.2 1.5-.4 2.2-.5.8-.1 1.5-.2 2.2-.3s1.4-.2 1.9-.3c.6-.1 1-.3 1.4-.6.3-.3.5-.7.5-1.2s-.1-1-.3-1.3c-.2-.3-.4-.6-.7-.7-.3-.2-.6-.3-1-.3s-.8-.1-1.3-.1c-1 0-1.8.2-2.3.6-.6.4-.9 1.1-1 2.1-.1-.1-5.1-.1-5.1-.1zm11.6 3.7c-.2.2-.5.3-.8.4-.3.1-.7.2-1 .3s-.8.1-1.1.2-.8.1-1.2.2c-.4.1-.8.2-1.1.3-.4.1-.7.3-1 .5-.3.2-.5.4-.6.8-.2.3-.2.7-.2 1.2 0 .4.1.8.2 1.1.2.3.4.6.7.7s.6.3 1 .4.8.1 1.2.1c1 0 1.8-.2 2.3-.5.5-.3.9-.7 1.2-1.2s.4-.9.5-1.4.1-.8.1-1.1v-2zm9-12.2v-4.1h5v4.1h-5zm5 2.9v18.3h-5V98.3h5z" class="logo-path"/></svg>