<svg xmlns="http://www.w3.org/2000/svg" role="img" viewBox="41.45 40.45 444.86 69.11"><title>Cloudera Data Science Workbench (Interactive Workbench) logo</title><path fill="#f2541b" d="M243.0006 78.1188c0 7.89248-4.53323 12.6533-10.90507 12.6533-6.37317 0-10.9064-4.76082-10.9064-12.6533V50.26485H209.6521v27.40865c0 14.4319 9.06244 23.54528 22.44344 23.54528 13.381 0 22.44344-9.11338 22.44344-23.54528V50.26484h-11.53838zm215.45994 2.55195l-6.93316-17.4553-6.93316 17.4553zm19.38218 19.41098h-11.67304L462.1311 89.9133h-21.2088l-4.03857 10.16842h-11.6717l21.03014-49.8165h10.33707zM409.3951 67.4492c0-2.19941-.87865-4.25976-2.21595-5.43426-1.51196-1.3281-3.68124-2.01915-6.69983-2.01915h-11.02906v14.95842h11.06506c2.95993 0 5.0652-.66918 6.5585-1.95302 1.4093-1.2109 2.32128-3.29218 2.32128-5.552zm-1.13464 15.87l14.21298 16.76252h-13.43567l-13.233-15.73081h-6.3545v15.7308h-11.30772V50.26485h22.97142c6.40518 0 11.10772 1.56236 14.47964 4.44309 3.37058 2.8806 5.33453 7.31022 5.33453 12.58195 0 6.5993-2.80526 13.45433-12.66768 16.02933zM118.11638 50.26484H106.5776v49.81689h34.9082V89.94398h-23.36942zM76.83355 90.69809c-8.52272 0-14.6987-6.72583-14.6987-15.53027 0-8.80445 6.17598-15.51322 14.6987-15.51322 4.10136 0 7.48888 1.45837 10.4476 4.26296l7.43782-7.43834c-4.49523-4.63482-10.76067-7.35249-18.00835-7.35249-14.99283 0-26.5488 11.44038-26.5488 26.04522 0 14.60537 11.55597 26.04682 26.5488 26.04682 7.57114 0 14.20377-3.0594 18.725-8.1998l-7.40035-7.39981c-2.98273 3.30245-6.54557 5.07893-11.20172 5.07893zm227.41484-15.52507c0-8.99405-6.49983-14.95016-16.17426-14.95016H280.465v29.90138h7.60914c9.67443 0 16.17426-5.95612 16.17426-14.95122zm11.97304 0c0 14.89856-10.98373 24.9087-27.33399 24.9087h-19.96083V50.26485h19.47685c16.34892 0 27.81797 10.01015 27.81797 24.90818zm-129.86476.07653c0-9.08364-5.95051-15.67668-14.33564-15.67668-8.38645 0-14.33697 6.59304-14.33697 15.67668 0 8.99457 5.95052 15.52254 14.33697 15.52254 8.38513 0 14.33564-6.52797 14.33564-15.52254zm11.97304-.00107c0 14.5627-11.02906 25.97029-26.30868 25.97029-15.28228 0-26.31-11.40759-26.31-25.97029 0-14.6475 11.02772-26.12175 26.31-26.12175 15.27962 0 26.30868 11.47425 26.30868 26.12175zm123.13825 24.83325h43.15626V89.78518h-36.32843c-1.61729 3.90137-3.9399 7.34409-6.82783 10.29655zm37.02041-19.97244V69.91275H330.6584c.23866 1.74422.40399 3.52378.40399 5.37693 0 1.65463-.124 3.25152-.308 4.81961zm-37.57106-29.84405h43.48025v10.29614h-36.2951c-1.71462-3.91137-4.16656-7.35088-7.18515-10.29614"/></svg>