<svg xmlns="http://www.w3.org/2000/svg" role="img" viewBox="-0.45 9.80 400.66 96.66"><title>cnvrg.io (Data Versioning) logo</title><path fill-rule="evenodd" d="M314.612 24.884l.272 7.209h11.163l.271-7.209.272-7.21h-12.25l.272 7.21M22.75 36.341C4.307 40.762 1.726 72.208 19.07 81.174c4.763 2.463 15.985 2.696 21.163.441 3.479-1.516 3.488-1.535 3.488-7.149 0-6.219-.033-6.26-3.268-4.14-9.869 6.466-19.988 1.158-19.988-10.486 0-12.185 8.88-17.603 19.032-11.613 4.456 2.629 4.224 2.827 4.224-3.623 0-5.556-.043-5.647-3.262-6.992-4.263-1.781-12.972-2.406-17.709-1.271m53.53.004c-1.279.537-3.246 1.841-4.372 2.898l-2.046 1.923-.613-2.444c-.575-2.291-.953-2.443-6.094-2.443h-5.481V81.86h12.093V67.877c0-17.013 1.749-22.296 7.381-22.296 3.965 0 4.712 3.173 4.712 20V81.86h12.093V63.684c0-19.587-.804-23.41-5.524-26.263-2.737-1.654-9.374-2.242-12.149-1.076m103.412-.12c-1.704.429-4.278 1.911-5.721 3.293l-2.623 2.513-.632-2.876c-.619-2.819-.739-2.876-6.139-2.876h-5.507V81.86h11.894l.362-14.186c.389-15.22.866-16.93 5.485-19.659 3.561-2.103 10.851-1.93 14.584.347l3.024 1.843v-6c0-5.007-.302-6.162-1.823-6.976-2.61-1.396-9.282-1.915-12.904-1.004m34.838.038c-9.418 2.988-14.495 18.897-10.46 32.777 3.277 11.275 15.94 16.441 24.258 9.898l2.37-1.864v3.272c0 8.776-8.97 11.025-22.14 5.552-.934-.388-1.146.83-.93 5.341.335 7.008 1.12 7.442 13.767 7.612 19.709.265 21.396-2.693 21.396-37.516V36.279h-5.582c-5.363 0-5.581.093-5.581 2.373v2.373l-3.108-2.371c-3.467-2.644-9.787-3.724-13.99-2.391m151.452-.091c-12.431 3.194-18.516 17.726-13.913 33.226 5.54 18.653 33.571 18.676 39.108.031 6.086-20.492-7.105-37.904-25.195-33.257m-262.726.715c0 .335 2.746 9.23 6.104 19.768 3.357 10.537 6.529 20.519 7.048 22.182l.946 3.023h7.834c4.31 0 7.835-.207 7.835-.461s3.14-10.261 6.977-22.238 6.977-22.025 6.977-22.329c0-.304-2.836-.553-6.301-.553h-6.301l-4.64 17.156-4.639 17.155-4.641-17.151-4.641-17.152-6.279-.004c-3.454-.002-6.279.27-6.279.604m201.86 4.508v5.117h9.132l.318 13.764c.459 19.872 2.072 21.809 18.636 22.376l10.054.345V72.636l-7.185-.271c-9.545-.361-9.528-.324-9.546-20.505l-.013-15.581h-21.396v5.116m-79.178 5.703c7.81 5.471 5.429 24.53-3.065 24.53-7.609 0-10.674-16.993-4.227-23.44 3.004-3.004 4.285-3.196 7.292-1.09M376.965 48.5c7.862 9.289 1.055 28.582-8.366 23.71-7.2-3.723-7.16-22.732.054-25.707 2.799-1.155 6.37-.296 8.312 1.997m-109.59 22.272c-2.594 2.866-2.364 8.93.424 11.188C273.061 86.221 280 82.991 280 76.279c0-6.825-8.197-10.4-12.625-5.507"/></svg>