<svg xmlns="http://www.w3.org/2000/svg" role="img" viewBox="-17.15 -16.65 865.80 133.30"><title>CognitiveScale Cortex Certifai (AIOPs) logo</title><path fill="#ee694b" d="M816.66 9.6h6.2v1.2h-2.4v6.5h-1.4v-6.5h-2.4V9.6m7.5 0h1.9l2.1 6.1h.1l2-6.1h1.9v7.7h-1.2v-5.9h-.1l-2.1 5.9h-1.1l-2.2-5.9v5.9h-1.3V9.6"/><path fill="#ee694b" d="M52.96 67.8c-44.9 20.9-38.7-47.6 6.2-16.9-28.8-35.6-69.5-3.1-50.1 29.8a34.21 34.21 0 0 0 17.4 8.9c14.3 3 24.8-.2 37.5-6.9 15.1-8 31.9-22 49.8-32.3a25 25 0 0 1 10.2-4.3 16.57 16.57 0 0 1 7 .3c22.7 3.9 24.5 35.7 3.9 43.6 5.4-.5 10.1-2.2 15.3-7.7 13.8-14.7 16.1-47.3-13.7-56.3-10.1-2.8-26.1 1.3-44.1 15.4-12.5 9.9-24.9 19.7-39.4 26.4"/><path fill="#ee694b" d="M118.46 19.8c-18.5-29.6-70.4-26.7-59.3 31.1-3.6-37.1 35.1-41.2 45.8-24.5 1.8-1.8 10.5-6.3 13.5-6.6"/><path fill="#13446f" d="M9.06 80.6c-21.2-20.9-4.2-67 40.6-57.8 13.4-30.9 53.2-28.9 68.8-3-18.5-29.6-70.4-26.7-59.3 31.1-28.8-35.6-69.5-3.1-50.1 29.7m121.9-34.3l-.7-.2c13.8 3 17.6 23.2-5.4 24.2-9.8.4-19.8 0-29.6 0-4 4.2-25.8 18-29.9 19.9l-1.1.5h56.3c7.9 0 10.7 0 14.2-.8 20.7-7.9 18.8-39.7-3.8-43.6"/><path fill="#ee694b" d="M236.66 34.6h-6.3l-1.7-9.4a17.3 17.3 0 0 0-5.4-3.5 19.71 19.71 0 0 0-7.6-1.4q-10.35 0-15.9 7.5c-3.7 5-5.6 11.3-5.6 19v1c0 7.7 1.8 14 5.4 19.1a17.63 17.63 0 0 0 15.1 7.5 22.82 22.82 0 0 0 8.2-1.4 14.69 14.69 0 0 0 5.7-3.5l1.7-9.4h6.3v11.8a26.4 26.4 0 0 1-8.6 6.6 29 29 0 0 1-13.3 2.9 26.56 26.56 0 0 1-21.2-9.6c-5.5-6.4-8.3-14.4-8.3-24v-1c0-9.7 2.7-17.8 8.1-24.1s12.6-9.5 21.4-9.5a29 29 0 0 1 13.3 2.9 26.4 26.4 0 0 1 8.6 6.6v11.9m16.3 21.8q0 7.8 3.3 12.9a11.86 11.86 0 0 0 16.5 3 10.71 10.71 0 0 0 3-3q3.3-5.1 3.3-12.9v-1q0-7.8-3.3-12.9a11.87 11.87 0 0 0-19.5 0q-3.3 5.1-3.3 12.9zm-9-1c0-7.3 2-13.3 5.9-18s9.3-7.1 16.1-7.1 12.2 2.4 16.1 7.1 6 10.7 6 18v1c0 7.3-2 13.3-5.9 18s-9.3 7-16.1 7-12.2-2.3-16.2-7-5.9-10.7-5.9-18v-1zm58.2 2.3c0 4.9 1 8.9 3.1 11.9s5.3 4.5 9.6 4.5a12.39 12.39 0 0 0 6.8-1.8 13.32 13.32 0 0 0 4.5-5.2V44.4a14.39 14.39 0 0 0-4.5-5 11.29 11.29 0 0 0-6.7-1.8 10.3 10.3 0 0 0-9.6 5.4c-2.1 3.6-3.2 8.2-3.2 13.8zm-9-.9c0-7.9 1.7-14.3 5.2-19.2a16.71 16.71 0 0 1 14.4-7.3 17.45 17.45 0 0 1 8.1 1.8 15 15 0 0 1 5.9 5.3l.8-6.2h7.6v48.7c0 6.4-1.8 11.4-5.3 15.1s-8.6 5.5-15.2 5.5a33.17 33.17 0 0 1-7.7-1 32.06 32.06 0 0 1-7.3-2.7l2.3-7a26.35 26.35 0 0 0 5.9 2.2 29.94 29.94 0 0 0 6.6.9c4 0 6.9-1.1 8.8-3.4s2.8-5.4 2.8-9.6v-4.6a15.67 15.67 0 0 1-5.8 4.7 17.33 17.33 0 0 1-7.8 1.6c-6 0-10.8-2.2-14.2-6.6s-5.2-10.1-5.2-17.2l.1-1zm49.8 18l7.4-1.3V38.3l-7.4-1.3v-5.8h15.4l.6 7.3a17.27 17.27 0 0 1 6.2-6.1 16.84 16.84 0 0 1 8.5-2.2c5.3 0 9.4 1.6 12.3 4.7s4.3 7.9 4.4 14.4v24.1l7.4 1.3v5.7h-23.8v-5.7l7.4-1.3V49.6c0-4.3-.9-7.4-2.6-9.2s-4.3-2.7-7.9-2.7a13.06 13.06 0 0 0-6.9 1.9 14.67 14.67 0 0 0-4.8 5.1v28.9l7.4 1.3v5.7h-23.8v-5.8m66.6-56.2h9V9.5h-9zm-7.4 56.2l7.4-1.3V38.3l-7.4-1.3v-5.8h16.4v42.3l7.4 1.3v5.7h-23.8v-5.7zm44.1-55.4v11.8h9.3v6.7h-9.3v29.9c0 2.3.5 3.9 1.4 4.9a4.89 4.89 0 0 0 3.8 1.4 24.52 24.52 0 0 0 2.7-.2c1-.1 1.8-.3 2.5-.4l1.2 6.2a10.25 10.25 0 0 1-3.7 1.3 27.15 27.15 0 0 1-4.9.5 11.36 11.36 0 0 1-8.7-3.3c-2.2-2.2-3.3-5.7-3.3-10.4V37.9h-7.8v-6.7h7.8V19.4h9m25.2-.8h9V9.5h-9zm-7.4 56.2l7.4-1.3V38.3l-7.4-1.3v-5.8h16.4v42.3l7.4 1.3v5.7h-23.8z"/><path fill="#ee694b" d="M507.76 37l-5.9.9 10.1 28.1.8 3.5h.3l.9-3.5 9.8-28.1-6-.9v-5.8h19.1V37l-4.1.7-16.5 42.8h-6.8l-16.7-42.8-4.1-.7v-5.8h19.1V37"/><path fill="#ee694b" d="M560.86 37.4a9.66 9.66 0 0 0-7.7 3.8 17.44 17.44 0 0 0-3.9 9.5l.1.2h22.7v-1.2a13.82 13.82 0 0 0-2.8-8.8c-1.9-2.3-4.7-3.5-8.4-3.5zm1.4 44.1c-6.9 0-12.3-2.3-16.4-6.9s-6.1-10.5-6.1-17.8v-2c0-7 2.1-12.9 6.3-17.5s9.1-7 14.8-7q9.9 0 15 6c3.4 4 5.1 9.3 5.1 16v5.6h-32l-.1.2a19.52 19.52 0 0 0 3.6 11.7 11.8 11.8 0 0 0 9.7 4.6 22 22 0 0 0 8-1.3 18.47 18.47 0 0 0 6-3.6l3.5 5.8a21 21 0 0 1-7 4.3 28.2 28.2 0 0 1-10.4 1.9zm57.7-38.9c-5.6-1.4-9.8-3.1-12.2-4.9a7.55 7.55 0 0 1-3.5-6.4 8.41 8.41 0 0 1 3.5-7.1c2.3-1.9 5.8-2.8 10.3-2.8a24.54 24.54 0 0 1 7.6 1.1 16.24 16.24 0 0 1 4.9 2.5l1.8 9.9h8.6V21l-.3-.3a30.57 30.57 0 0 0-9.5-6 34.67 34.67 0 0 0-13.1-2.5c-7.2 0-13.2 1.8-17.8 5.4s-7 8.2-7 13.7a16.1 16.1 0 0 0 6.3 13c4 3.3 9.7 5.9 16.8 7.6 5.6 1.4 9.5 3 11.6 5a9 9 0 0 1 3.1 6.9 8.11 8.11 0 0 1-3.5 7c-2.4 1.8-5.8 2.7-10.1 2.7a22.74 22.74 0 0 1-8.2-1.3 20.5 20.5 0 0 1-5.6-3.1l-1.8-10h-8.6v13.7l.3.3a27.38 27.38 0 0 0 10 6.8 35.18 35.18 0 0 0 14 2.6c7.2 0 13.2-1.7 17.7-5.1a16.21 16.21 0 0 0 6.9-13.7 17.55 17.55 0 0 0-5.7-13.3q-5.85-5.25-16.5-7.8m60 21.3v1a7.39 7.39 0 0 1-3 6 11.08 11.08 0 0 1-7.2 2.5c-4.4 0-7.4-1.5-9.2-4.5a24.31 24.31 0 0 1-2.9-12.1v-1.9a23.32 23.32 0 0 1 2.9-11.9c1.8-3.1 4.9-4.6 9.2-4.6a16 16 0 0 1 5.3.9 13.06 13.06 0 0 1 3.6 2.1l2.1 8.2h9l-.5-12.3-.3-.3a23.06 23.06 0 0 0-8.2-5.6 27.53 27.53 0 0 0-11-2c-7.4 0-13.2 2.5-17.2 7.4s-5.9 11-5.9 18.2v1.9c0 7.3 2 13.4 5.9 18.2s9.7 7.4 17.2 7.4a21.63 21.63 0 0 0 14.4-5.2c4.2-3.5 6.2-7.6 6-12.1l-.4-1.2-9.8-.1m29.3-2a13.2 13.2 0 0 1 8.1-2.3h8.6v6.8a12.21 12.21 0 0 1-4.8 4.5 15.78 15.78 0 0 1-7.7 2c-2.4 0-4.3-.5-5.4-1.5a5.18 5.18 0 0 1-1.7-4.2 7 7 0 0 1 2.9-5.3zm27.7 10.5V46.9c0-5.6-1.9-10-5.6-13s-8.4-4.5-14.2-4.5a32.81 32.81 0 0 0-10.7 1.7 27.8 27.8 0 0 0-8.5 4.5l-.4.3v11h8.8l1-5.7a10.41 10.41 0 0 1 3.6-1.9 17.65 17.65 0 0 1 5.6-.8 9.65 9.65 0 0 1 6.9 2.3 7.45 7.45 0 0 1 2.4 6.1v4.7h-8.2c-6.8 0-12.2 1.3-16.1 4a13.08 13.08 0 0 0-6.1 11.6c0 4.8 1.5 8.6 4.3 11.3s7 4 12.4 4a18.05 18.05 0 0 0 8.8-2.3 22.53 22.53 0 0 0 5.2-4l.1.9c.2 1.1.4 2.3.7 3.7l.2.8h13.6V74l-3.8-.5z"/><path fill="#ee694b" d="M763.06 8.5h-18.4v7.6l7.4 1.3v55.3l-7.4 1.2v7.6h25.8v-7.6l-7.4-1.2V8.5"/><path fill="#ee694b" d="M794.36 38.4c3.4 0 5.9 1 7.6 3.2a12.94 12.94 0 0 1 2.6 8.2v.2h-20.7a16.13 16.13 0 0 1 3.6-8.1 8.44 8.44 0 0 1 6.9-3.5zm21.1 14c0-6.9-1.8-12.5-5.4-16.7s-8.9-6.4-15.8-6.4c-6 0-11.2 2.5-15.6 7.3s-6.5 11-6.5 18.2v2c0 7.5 2.1 13.7 6.3 18.5s10 7.2 17.1 7.2a28.21 28.21 0 0 0 10.8-1.8 22.88 22.88 0 0 0 7.3-4.5l.6-.6-4.5-7.6-.9.8a16.84 16.84 0 0 1-5.6 3.4 24.64 24.64 0 0 1-7.6 1.2 10.37 10.37 0 0 1-8.9-4.2 18.91 18.91 0 0 1-3.4-10.3h32.1v-6.5z"/></svg>