<svg xmlns="http://www.w3.org/2000/svg" role="img" viewBox="-4.22 -4.22 219.18 48.18"><title>Confluent KSQL (Stream Processing) logo</title><path fill="#FF671D" d="M6 20c0 1.10444-.67167 2-1.5 2h-3C.67167 22 0 21.10444 0 20c0-1.10444.67167-2 1.5-2h3c.82833 0 1.5.89556 1.5 2m15 0c0 1.10444-.75562 2-1.6875 2h-8.625C9.75563 22 9 21.10444 9 20c0-1.10444.75563-2 1.6875-2h8.625C20.24438 18 21 18.89556 21 20"/><path fill="#ABC8E7" d="M10 11c0 1.10444-.67167 2-1.5 2h-3c-.82833 0-1.5-.89556-1.5-2 0-1.10444.67167-2 1.5-2h3c.82833 0 1.5.89556 1.5 2m15 0c0 1.10444-.75562 2-1.6875 2h-8.625C13.75563 13 13 12.10444 13 11c0-1.10444.75563-2 1.6875-2h8.625C24.24438 9 25 9.89556 25 11M10 29c0 1.10444-.67167 2-1.5 2h-3c-.82833 0-1.5-.89556-1.5-2 0-1.10444.67167-2 1.5-2h3c.82833 0 1.5.89556 1.5 2m15 0c0 1.10444-.75562 2-1.6875 2h-8.625C13.75563 31 13 30.10444 13 29c0-1.10444.75563-2 1.6875-2h8.625C24.24438 27 25 27.89556 25 29"/><path fill="#4197CB" d="M26 1.5c0 .825-.7425 1.5-1.65 1.5h-7.7C15.7425 3 15 2.325 15 1.5S15.7425 0 16.65 0h7.7C25.2575 0 26 .675 26 1.5m11 0c0 .825-.70875 1.5-1.575 1.5h-3.85C30.70875 3 30 2.325 30 1.5S30.70875 0 31.575 0h3.85C36.29125 0 37 .675 37 1.5m-11 37c0 .825-.7425 1.5-1.65 1.5h-7.7c-.9075 0-1.65-.675-1.65-1.5s.7425-1.5 1.65-1.5h7.7c.9075 0 1.65.675 1.65 1.5m11 0c0 .825-.70875 1.5-1.575 1.5h-3.85C30.70875 40 30 39.325 30 38.5s.70875-1.5 1.575-1.5h3.85c.86625 0 1.575.675 1.575 1.5"/><path fill="#FF671D" d="M61 13.57143c-4.11055 0-7.45455 2.88404-7.45455 6.42857 0 3.54453 3.344 6.42857 7.45455 6.42857S68.45455 23.54453 68.45455 20c0-3.54453-3.344-6.42857-7.45455-6.42857M61 29c-5.51418 0-10-4.03714-10-9s4.48582-9 10-9 10 4.03714 10 9-4.48582 9-10 9m-21.89812 0C33.53152 29 29 24.96286 29 20s4.53152-9 10.10188-9c2.86453 0 5.60452 1.08808 7.51764 2.9847.50435.49995.50766 1.314.0077 1.818-.49994.50436-1.31397.50803-1.81796.00808-1.43557-1.4231-3.51582-2.23935-5.70738-2.23935-4.15242 0-7.5305 2.88404-7.5305 6.42857 0 3.54453 3.37808 6.42857 7.5305 6.42857 2.19156 0 4.27144-.81624 5.70701-2.23898.50436-.49959 1.31839-.49592 1.81834.00808.49995.50437.49628 1.31841-.00808 1.818C44.70604 27.9123 41.96604 29 39.10188 29m37.13839 0C75.55529 29 75 28.43727 75 27.7431V11.9795l1.12368-.23378c.34586-.08583 8.61703-2.06239 12.93175.794 3.00358 1.9884 3.01988 4.63686 2.91534 14.49163l.0163.5455c-.00709.69416-.5567 1.24396-1.2424 1.2436-.68462-.00754-1.22857-.57601-1.22148-1.27018l.00886-.5462c.09922-9.36208-.11517-11.16303-1.92313-12.36031-2.47947-1.6415-7.64785-1.14988-10.12838-.65933V27.7431c0 .69416-.55529 1.25689-1.24027 1.25689M117.5 30c-.82886 0-1.5-.56775-1.5-1.26812V6.26812C116 5.56775 116.67114 5 117.5 5s1.5.56775 1.5 1.26812v22.46376C119 29.43225 118.32886 30 117.5 30m19.29405-1c-2.39316 0-4.96241-.36293-6.82327-1.5885-3.06993-2.02297-3.04457-4.3299-2.93833-14.03809l.01176-1.08952c.00736-.71658.58745-1.2934 1.30025-1.28377.7106.00778 1.2804.59499 1.27305 1.3112l-.01214 1.09064c-.10256 9.39604-.19446 10.66202 1.58956 11.8368 2.58248 1.70083 7.29087 1.18776 10.23178.67952V12.50854c0-.71658.57568-1.29749 1.28664-1.29749.7106 0 1.28665.5809 1.28665 1.2975v15.48312l-.8014.23985c-.21174.05115-3.04236.76848-6.40455.76848m40.44622 0C176.55493 29 176 28.43727 176 27.7431V11.9795l1.12368-.23378c.34586-.08583 8.61702-2.06239 12.93173.794 3.00393 1.9884 3.01988 4.63686 2.91534 14.49163l.01665.5455c-.00744.69416-.55918 1.24396-1.24239 1.2436-.68534-.00754-1.22893-.57601-1.22184-1.27018l.00886-.5462c.09922-9.36208-.11481-11.16303-1.92312-12.36031-2.47947-1.6415-7.64784-1.14988-10.12838-.65933V27.7431c0 .69416-.55493 1.25689-1.24026 1.25689m-14.77733 0c-3.59035 0-7.39915-.60695-9.85526-2.70154-1.73053-1.47499-2.60768-3.4937-2.60768-6 0-3.10097 1.1517-5.60652 3.33066-7.24552 3.06576-2.30657 7.56001-2.43302 10.65364-1.53598 5.47506 1.58768 6.15605 6.75609 5.75147 9.26759l-.1761 1.09452h-12.50083c-.71815 0-1.30031-.58315-1.30031-1.30168 0-.7189.58216-1.30168 1.3003-1.30168h10.1677c-.04049-1.48763-.61597-4.28698-3.96632-5.2584-2.3922-.69362-6.03159-.64043-8.36732 1.11683-1.521 1.14436-2.29226 2.88192-2.29226 5.16432 0 1.73272.55356 3.04705 1.693 4.0181 3.42837 2.92394 11.07197 2.06595 14.19904 1.56127.7096-.11418 1.37685.36856 1.49053 1.07816.11443.7096-.3678 1.37755-1.07666 1.4921-1.73499.28005-4.04026.55191-6.4436.55191M109.96576 1.93366c-.18088-.676-1.03763-1.07331-1.69652-.88826C107.9389 1.13865 100 3.39485 100 9.22474v18.50529c0 .70102.55361 1.26997 1.23654 1.26997.68291 0 1.23653-.56895 1.23653-1.26997V16.11887c0-.89189.38544-1.54719.79774-1.94669.47801-.46372 1.36443-.66728 2.46-.60087.0855.00508.19325.00762.23105.00762.68292 0 1.26904-.56859 1.26904-1.26998 0-.70138-.53242-1.2696-1.21534-1.2696l-.2367-.00363c-1.23018-.0733-2.5992.11212-3.3058.5392V9.22473c0-3.88684 6.3604-5.70398 6.45225-5.73047.65783-.18614 1.22134-.88463 1.04045-1.56061m99.78793 24.4781c-5.3463 0-6.26108-1.59915-6.26108-3.32773v-7.0252c0-.99204.40024-1.71786.83894-2.15822.4412-.4426 1.22494-.6478 2.15362-.61785.05341.00185.13958.00295.16772.00295.68404 0 1.25485-.57237 1.26126-1.28265.00605-.71029-.53663-1.29301-1.22067-1.30558l-.21828-.00148c-1.21568-.04696-2.27041.2126-2.98259.56645V8.29412c0-.71473-.55763-1.29412-1.2463-1.29412C201.55763 7 201 7.5794 201 8.29412v14.78991C201 29 207.63284 29 209.7537 29c.68867 0 1.2463-.5794 1.2463-1.29412 0-.71472-.55763-1.29412-1.2463-1.29412"/></svg>