<svg xmlns="http://www.w3.org/2000/svg" role="img" viewBox="-7.99 -7.99 415.74 136.24"><title>DGraph (NoSQL Databases) logo</title><defs><linearGradient id="a" x1="0%" x2="100%" y1="50%" y2="50%"><stop offset="0%" stop-color="#FF1800"/><stop offset="100%" stop-color="#FF009B"/></linearGradient></defs><g fill="none" fill-rule="evenodd"><path fill="url(#a)" d="M81.76807 21.68c1.18-2.152 1.8-4.568 1.8-7.024C83.55486 6.5672 77.00088.01321 68.91207 0c-6.73585.00816-12.60185 4.59938-14.228 11.136l-4.052-.16C22.67218 10.98042.0067 33.64411.00004 61.604c-.01597 13.212 5.15203 25.908 14.39203 35.352-1.92 2.536-2.952 5.624-2.948 8.8.01322 8.0888 6.5672 14.64279 14.656 14.656 6.192 0 11.532-3.888 13.66-9.36a50.84 50.84 0 0010.868 1.176c27.96146-.00442 50.62759-22.67055 50.63204-50.632.01807-15.59988-7.17733-30.33175-19.49204-39.908v-.008zm-12.86 1.972a9.08 9.08 0 01-2.272-.288l-6.08 17.64 8.88-1.448-12.508 20.384 10.408-2.528-35.048 41.788c3.33158 3.19445 3.70654 8.3914.86804 12.03103-2.83849 3.63962-7.97022 4.54198-11.88004 2.08897-3.89812-2.48486-5.2798-7.51882-3.19635-11.64546 2.08346-4.12663 6.9544-6.00378 11.26835-4.34254l9.932-21.668-9.692 2.624 15.76-22.56-9.688 2.344 27.468-36.572c-2.89197-2.4321-3.95676-6.4117-2.6657-9.96302 1.29106-3.55131 4.663-5.91797 8.4417-5.92498 4.969 0 8.9978 4.027 9 8.996 0 4.969-4.027 8.9978-8.996 9v.044z"/><path fill="#000" d="M129.44007 24.4h20.576c8 .056 13.932 3.468 17.92 10.24 1.424 2.28 2.32 4.664 2.7 7.2.296 2.5.4 6.816.4 12.948 0 6.52-.228 11.08-.68 13.66a15.68 15.68 0 01-.968 3.5c-.456 1-1.008 2-1.656 3.12-1.72 2.856-4.12 5.22-7.18 7.08-3.04 2-6.8 3-11.176 3h-19.936V24.4zm8.904 52.06h10.656c5.008 0 8.64-1.768 10.904-5.3 1-1.308 1.628-2.96 1.896-4.968.24-1.976.4-5.68.4-11.1l-.4-11.352c-.32-2.28-1.088-4.132-2.3-5.552-2.48-3.532-5.98-5.2-10.5-5.132h-10.664v43.4l.008.004zm71.856 4.148c-2.768 3.232-6.372 4.9-10.8 5.016-2.712-.06-4.968-.656-6.768-1.792-1.88-1.08-3.32-2.252-4.32-3.5-1.1-1.416-1.892-3.152-2.376-5.212-.512-2.028-.8-5.888-.8-11.584 0-5.808.252-9.74.8-11.8.48-2.028 1.28-3.736 2.376-5.12 1-1.352 2.432-2.568 4.32-3.648 1.8-1.02 4.056-1.6 6.768-1.612 4.16 0 7.768 1.708 10.8 5.12v-4.588h8.4v42.184c-.108 6.496-1.92 11.272-5.44 14.328-3.544 3.14-7.784 4.708-12.728 4.708-5.664-.112-10.5-2.52-14.5-7.232l6.532-5.36a16.03999 16.03999 0 003.708 2.64 9.52 9.52 0 004.436 1.296c2.872 0 5.188-.82 6.932-2.468 1.72-1.68 2.608-3.988 2.664-6.948v-4.428h-.004zm-16.624-17.06l.32 6.852c.188 1.308.632 2.4 1.332 3.26.56.78 1.428 1.488 2.584 2.128 1.1.78 2.48 1.172 4.12 1.172 1.64 0 3.012-.392 4.12-1.172 1.104-.64 1.936-1.352 2.504-2.128a7.16 7.16 0 001.412-3.26c.16-1.256.24-3.54.24-6.852l-.24-7.02c-.24-1.308-.712-2.368-1.412-3.176-.56-.78-1.4-1.548-2.504-2.3-1.104-.64-2.472-.988-4.12-1.04-1.6.056-3.012.4-4.12 1.04-1.2.752-2.016 1.52-2.584 2.3-.7.808-1.144 1.868-1.332 3.176-.216 1.312-.32 3.652-.32 7.02zm41.624-21.656h8.4v4.58h.176c2.772-3.416 6.4-5.12 10.896-5.12 3.23813.00705 6.36416 1.18642 8.8 3.32l-6.136 7.512c-1.776-1.448-3.62-2.172-5.532-2.172-2.0586-.03986-4.04864.74004-5.532 2.168-1.72 1.416-2.612 3.712-2.668 6.88v26.064h-8.4l-.004-43.232zm57.904 39.4h-.16a7.08 7.08 0 01-3.628 3.252c-1.612.72-3.84 1.08-6.692 1.08-4.68-.06-8.28-1.332-10.8-3.832-2.66-2.4-3.992-5.6-3.992-9.368 0-3.6 1.2-6.648 3.468-9.04 2.268-2.392 5.696-3.688 10.16-3.748h11.652v-4.56c.052-3.824-2.808-5.68-8.592-5.6-2.1 0-3.752.22-4.96.668a6.08 6.08 0 00-2.98 2.68l-6.58-5.176c3.2-4.308 7.912-6.408 14.148-6.296 5.264-.056 9.472.972 12.616 3.08 3.144 2.16 4.744 5.888 4.8 11.2V85.2h-8.4l-.06-3.908zm0-14.5h-10.1c-4.908.112-7.328 1.848-7.28 5.212 0 1.468.632 2.72 1.9 3.752 1.212 1.14 3.22 1.708 6.02 1.708 3.528.056 6.02-.376 7.48-1.292 1.32-.92 1.98-3 1.98-6.252v-3.128zm24.92-24.9h8.4v4.496c2.8-3.22 6.4-4.9 10.8-5.04 5.132.136 8.88 2.028 11.248 5.664 1.2 1.36 1.944 3.148 2.376 5.372.4 2.2.6 5.92.6 11.2 0 5.108-.2 8.772-.6 11-.428 2.22-1.22 4-2.376 5.46-1.2 1.664-2.68 3-4.56 4-1.852 1.028-4.08 1.6-6.688 1.624a11.4 11.4 0 01-5.764-1.452 18.28 18.28 0 01-5.04-3.648v22.088h-8.4V41.888l.004.004zm16.68 35.068c1.988 0 3.6-.392 4.72-1.172a6.68 6.68 0 002.464-3.092c.56-1.392.92-2.856 1.088-4.348l.08-4.8-.08-5.056a15.51998 15.51998 0 00-1.088-4.344c-.46-1.28-1.32-2.4-2.464-3.092-1.2-.696-2.732-1.04-4.72-1.04-1.88 0-3.38.4-4.48 1.212-1.14.784-2.028 1.892-2.544 3.176a16.28 16.28 0 00-1.008 4.264c-.16 1.624-.24 3.256-.24 4.888 0 1.536.08 3.064.24 4.6.16 1.612.496 3.08 1.008 4.388a7.04 7.04 0 002.544 3.176c1.1.8 2.6 1.252 4.48 1.252v-.012zm31.856-52.56h8.4v22.072h.16c2.60618-3.34233 6.64741-5.24487 10.884-5.124 3.464 0 6.64 1.264 9.508 3.788 2.852 2.56 4.34 6.304 4.48 11.2v28.736h-8.4V59.3c0-3.032-.78-5.336-2.34-6.92-1.532-1.612-3.508-2.42-5.932-2.42-2.424 0-4.408.8-5.968 2.42-1.588 1.584-2.384 3.892-2.384 6.92v25.772h-8.4l-.008-60.672z"/></g></svg>