<svg xmlns="http://www.w3.org/2000/svg" role="img" viewBox="13.46 -7.54 1172.08 421.08"><title>Dataverse (Data Catalog) logo</title><style>svg {enable-background:new 0 0 1200 406.8}</style><style>.st0{fill:#c65b28}.st1{fill:#9e9e9e}</style><path d="M73.9 269H36.4v-18.7c4.2 0 7.1-.8 8.9-2.5 1.7-1.6 2.6-4.5 2.6-8.5V139c0-4-.9-6.9-2.6-8.5-1.7-1.7-4.7-2.5-8.9-2.5v-18.7h36.5c12.5 0 22 .7 28.5 2.1 6.5 1.4 12.1 3.7 16.7 6.9 7.3 5.1 12.6 12.9 15.7 23.3 3.1 10.4 4.6 26.3 4.6 47.6s-1.6 37.1-4.8 47.4c-3.2 10.3-8.6 18-16.2 23.3-4.8 3.3-10.6 5.7-17.1 7.1-6.6 1.3-15.4 2-26.4 2zm5.2-141.1v122.3h5c4.4 0 7.9-.5 10.5-1.5 2.6-1 4.7-2.6 6.1-4.8 2.2-3.2 3.7-8 4.6-14.5.8-6.5 1.3-20 1.3-40.4s-.4-33.9-1.3-40.4-2.4-11.3-4.6-14.5c-1.5-2.2-3.5-3.8-6.1-4.8-2.6-1-6.1-1.5-10.5-1.5h-5zM212 254.6c-3.2 6-7.3 10.4-12.1 13.4s-10.4 4.5-16.8 4.5c-9.4 0-16.8-2.8-22.3-8.3-5.5-5.5-8.2-12.9-8.2-22.3 0-8.3 2.2-15.2 6.6-20.7 4.4-5.5 13-11.4 25.7-17.6 10.9-5.3 17.8-9.8 20.8-13.4 3-3.6 4.5-8.3 4.5-13.9 0-5.4-1.7-9.8-5.1-13-3.4-3.2-7.9-4.8-13.6-4.8-3.8 0-7.1.6-10 1.8-2.9 1.2-5.4 3-7.4 5.5.2 0 .3 0 .6-.1 1.4-.2 2.4-.3 3.1-.3 4.1 0 7.5 1.4 10.1 4.1 2.6 2.8 3.9 6.3 3.9 10.7 0 4.6-1.6 8.3-4.7 11.2-3.1 2.9-7.1 4.4-12.1 4.4-5.4 0-9.8-1.7-13.1-5-3.3-3.3-5-7.8-5-13.5 0-9.8 3.8-17.7 11.4-23.9 7.6-6.2 17.6-9.3 29.9-9.3 8.9 0 16.3 1.4 22.2 4.1 5.9 2.7 10.6 6.9 14.2 12.5 1.3 2.1 2.3 5.3 2.9 9.4.6 4.1.9 10.2.9 18.2v59.3c0 2.7.3 4.5.8 5.5.5.9 1.4 1.4 2.6 1.4 1.8 0 3.1-1.1 3.9-3.2.7-2.1 1.1-6.1 1.1-11.9v-5.2h10.9v8.7c0 10.1-2 17.7-6.1 22.5-4 4.9-10.3 7.3-18.6 7.3-5.6 0-10.1-1.4-13.5-4.4-3.4-3.1-5.9-7.6-7.5-13.7zm-2.5-48.3c-11.8 7.8-19.2 13.7-22.4 17.9-3.2 4.1-4.8 8.7-4.8 13.7 0 4 1.1 7.2 3.2 9.6 2.1 2.3 5 3.5 8.5 3.5 5.2 0 9.1-2.4 11.7-7.2 2.6-4.8 3.9-11.9 3.9-21.5v-16zm66.6-42.9h-12l.1-16.1c8-.2 13.9-2.8 17.7-7.7 3.8-4.9 6.1-13 6.8-24.4h16.6v32.1h21.3v16.1h-21.3v82.1c0 4 .4 6.7 1.2 8 .8 1.4 2.1 2.1 4 2.1 2.1 0 3.5-.8 4.4-2.3.8-1.5 1.3-4.1 1.3-7.8.1-1.8.1-3.7.2-5.5.1-.6.1-.9.1-1v-7.7h13.2v12.9c0 9.6-2 16.6-6.1 21.3-4.1 4.6-10.4 7-18.9 7-10.8 0-18.3-2.2-22.4-6.6-4.2-4.4-6.2-12.6-6.2-24.6v-77.9zm127.6 91.2c-3.2 6-7.3 10.4-12.1 13.4s-10.4 4.5-16.7 4.5c-9.4 0-16.9-2.8-22.3-8.3-5.5-5.5-8.2-12.9-8.2-22.3 0-8.3 2.2-15.2 6.6-20.7 4.4-5.5 13-11.4 25.7-17.6 10.9-5.3 17.8-9.8 20.8-13.4 3-3.6 4.5-8.3 4.5-13.9 0-5.4-1.7-9.8-5.1-13-3.4-3.2-7.9-4.8-13.6-4.8-3.7 0-7.1.6-10 1.8-2.9 1.2-5.4 3-7.4 5.5.1 0 .3 0 .6-.1 1.4-.2 2.4-.3 3.1-.3 4.1 0 7.5 1.4 10.1 4.1 2.6 2.8 3.9 6.3 3.9 10.7 0 4.6-1.6 8.3-4.7 11.2-3.1 2.9-7.1 4.4-12.1 4.4-5.4 0-9.8-1.7-13.1-5-3.3-3.3-5-7.8-5-13.5 0-9.8 3.8-17.7 11.4-23.9 7.6-6.2 17.6-9.3 29.9-9.3 8.9 0 16.3 1.4 22.2 4.1 5.9 2.7 10.6 6.9 14.2 12.5 1.3 2.1 2.3 5.3 2.9 9.4.6 4.1.9 10.2.9 18.2v59.3c0 2.7.3 4.5.8 5.5.5.9 1.4 1.4 2.6 1.4 1.8 0 3.1-1.1 3.9-3.2.7-2.1 1.1-6.1 1.1-11.9v-5.2h10.9v8.7c0 10.1-2 17.7-6.1 22.5-4 4.9-10.2 7.3-18.6 7.3-5.6 0-10.1-1.4-13.5-4.4-3.6-3.1-6.1-7.6-7.6-13.7zm-2.6-48.3c-11.8 7.8-19.2 13.7-22.4 17.9-3.2 4.1-4.8 8.7-4.8 13.7 0 4 1.1 7.2 3.2 9.6 2.1 2.3 5 3.5 8.5 3.5 5.2 0 9.1-2.4 11.7-7.2 2.6-4.8 3.9-11.9 3.9-21.5v-16zM482 269l-24.6-98.4c-.7-2.9-1.8-4.8-3.1-5.7-1.3-.9-3.4-1.4-6.3-1.5l-.1-16.1h48.7v16.1c-3.5 0-5.9.4-7.3 1.3-1.4.8-2.1 2.4-2.1 4.6 0 .3 0 .7.1 1.2s.2 1.3.3 2.3l12 63 13.8-62.9c.1-.7.3-1.3.3-1.9.1-.6.1-1.3.1-2.2 0-1.9-.8-3.3-2.3-4.1-1.5-.8-3.9-1.3-7.2-1.3v-16.1h35.8v16.1c-2.4.5-4.3 1.4-5.6 2.6-1.3 1.2-2.2 3-2.7 5.2L507.2 269H482zm96.8-56.9v7c0 11.9 1.4 20.7 4.3 26.3 2.9 5.7 7.3 8.5 13.3 8.5 4.6 0 8.1-1.9 10.6-5.8s3.8-9.4 3.8-16.6v-11h20.9v6.9c0 15.3-3.1 26.6-9.2 33.9-6.1 7.4-15.6 11-28.3 11-15.7 0-27.3-5.3-34.7-15.8-7.4-10.5-11.1-26.9-11.1-49.3 0-20.5 3.8-36.2 11.4-47.1 7.6-10.9 18.5-16.4 32.7-16.4 12.6 0 22.2 4.4 29 13.1 6.8 8.7 10.2 21.1 10.2 37.3V212h-52.9zm0-17.8h25v-3.6c0-11.8-.9-19.9-2.5-24.2-1.7-4.3-4.7-6.4-8.9-6.4-4.7 0-8.1 2.5-10.1 7.6-2.2 5-3.3 13.9-3.5 26.6zm101.5-36.6c2.5-3.7 5.4-6.6 8.8-8.7 3.4-2 7.1-3 11.1-3 6.5 0 11.7 2.2 15.6 6.6 3.9 4.4 5.8 10.3 5.8 17.8 0 6.5-1.5 11.6-4.4 15.3-2.9 3.7-6.9 5.6-11.8 5.6-4 0-7.2-1.3-9.6-4-2.3-2.7-3.5-6.3-3.5-10.9 0-4.6 1.3-8.2 3.8-10.8 2.5-2.6 6.1-4.2 10.7-4.5-1-1-2.1-1.8-3.2-2.3-1.1-.5-2.4-.7-3.8-.7-5.2 0-9 2.3-11.2 6.9-2.3 4.6-3.4 12.5-3.4 23.6V243c0 4.3.6 7 1.9 8.1 1.2 1.1 3.9 1.7 7.8 1.7h5V269h-54.3v-16.2c4.5 0 7.4-.6 8.6-1.7 1.3-1.1 1.9-3.8 1.9-8.1v-69.7c0-4.3-.7-7-2-8.2-1.3-1.2-4.2-1.8-8.6-1.8v-16.1h34.9v10.5zM732 269v-48.5h15.1c.7 10.7 3.7 19.3 8.8 25.9 5.1 6.6 11.3 9.9 18.5 9.9 3.8 0 6.8-1 8.9-3 2.1-2 3.2-4.8 3.2-8.4 0-3.7-1-6.8-2.9-9.5-1.9-2.6-6.3-6.1-13.1-10.4-3.5-2.3-8.3-5.2-14.3-8.6-6-3.5-9.7-5.9-11.2-7.3-5.1-4.6-8.7-9.2-10.8-13.8-2.1-4.6-3.2-9.8-3.2-15.7 0-10.6 3.1-19.2 9.3-25.8 6.2-6.6 14.3-9.9 24.3-9.9 4.7 0 9 .8 13 2.5s7.7 4.3 11.1 7.7l5.6-6.8h11.8v43.8h-14.4c-1.1-9.8-3.8-17.3-7.9-22.7-4.2-5.3-9.6-8-16.1-8-3.5 0-6.3 1-8.4 3-2.2 2-3.2 4.6-3.2 7.8 0 3.3 1.4 6.5 4.2 9.5 2.8 3.1 7.8 6.7 14.9 10.9 2.6 1.5 6.2 3.5 10.7 6 7 3.9 11.3 6.7 13 8.3 4.7 4.3 8.1 8.9 10.2 13.9 2.1 5 3.1 11 3.1 18.1 0 10.4-3 18.8-8.9 25.1-6 6.3-13.8 9.5-23.6 9.5-5.9 0-11.1-1-15.8-2.9-4.6-1.9-9.1-5-13.3-9.2L745 269h-13zm124.2-56.9v7c0 11.9 1.4 20.7 4.3 26.3 2.9 5.7 7.3 8.5 13.3 8.5 4.6 0 8.1-1.9 10.6-5.8s3.8-9.4 3.8-16.6v-11h20.9v6.9c0 15.3-3.1 26.6-9.2 33.9-6.1 7.4-15.6 11-28.3 11-15.7 0-27.3-5.3-34.7-15.8-7.4-10.5-11.1-26.9-11.1-49.3 0-20.5 3.8-36.2 11.4-47.1 7.6-10.9 18.5-16.4 32.7-16.4 12.6 0 22.3 4.4 29 13.1 6.8 8.7 10.2 21.1 10.2 37.3V212h-52.9zm0-17.8h25v-3.6c0-11.8-.9-19.9-2.5-24.2-1.7-4.3-4.7-6.4-8.9-6.4-4.7 0-8.1 2.5-10.1 7.6-2.1 5-3.3 13.9-3.5 26.6zm293-56.4c-9.1-9.1-21.7-14.7-35.6-14.7l-9.2-41.6c3.6-1.7 6.9-4 9.7-6.8 6.3-6.3 10.2-15 10.2-24.6 0-9.6-3.9-18.3-10.2-24.6-6.3-6.3-15-10.2-24.6-10.2-9.6 0-18.3 3.9-24.6 10.2-6.3 6.3-10.2 15-10.2 24.6 0 9.6 3.9 18.4 10.2 24.6 6.3 6.3 15 10.2 24.6 10.2.4 0 .8 0 1.2-.1l9 40.3c-8.2 2.4-15.6 6.8-21.5 12.7-9.1 9.1-14.7 21.7-14.7 35.6 0 13.9 5.6 26.5 14.7 35.6 1.8 1.8 3.7 3.4 5.7 4.9l-17.2 28.8c-11.4-6.3-24.4-10-38.3-9.9-21.7 0-41.5 8.8-55.7 23.1-14.3 14.2-23.1 34-23.1 55.7 0 21.7 8.8 41.5 23.1 55.7 14.2 14.3 34 23.1 55.7 23.1 21.7 0 41.5-8.8 55.7-23.1 14.2-14.2 23.1-34 23.1-55.7 0-21.7-8.8-41.5-23.1-55.7-1.8-1.8-3.7-3.5-5.6-5.1l17.9-30.1c5.4 2 11.3 3.1 17.4 3.1 13.9 0 26.5-5.6 35.6-14.7 9.1-9.1 14.7-21.7 14.7-35.6-.2-14-5.8-26.6-14.9-35.7zm-84.1-87.8c0-6.7 2.7-12.7 7.1-17.1 4.4-4.4 10.4-7.1 17.1-7.1 6.7 0 12.7 2.7 17.1 7.1 4.4 4.4 7.1 10.4 7.1 17.1 0 6.7-2.7 12.7-7.1 17.1-4.4 4.4-10.4 7.1-17.1 7.1-6.7 0-12.7-2.7-17.1-7.1-4.4-4.4-7.1-10.4-7.1-17.1zm27.7 261.6c0 17.9-7.2 34-18.9 45.7-11.7 11.7-27.8 18.9-45.7 18.9-17.9 0-34-7.2-45.7-18.9-11.7-11.7-18.9-27.8-18.9-45.7 0-17.9 7.2-34 18.9-45.7 11.7-11.7 27.8-18.9 45.7-18.9 17.9 0 34 7.2 45.7 18.9 11.7 11.7 18.9 27.8 18.9 45.7zm46.4-112.6c-6.6 6.6-15.6 10.6-25.6 10.6-10 0-19-4-25.6-10.6-6.6-6.6-10.6-15.6-10.6-25.6 0-10 4-19 10.6-25.6 6.6-6.6 15.5-10.6 25.6-10.6 10 0 19 4 25.6 10.6 6.5 6.6 10.6 15.6 10.6 25.6 0 10-4.1 19-10.6 25.6z" class="st0"/><path d="M54.7 25.7H36.4v-6.6h44.4v6.6H62.5v53.4h-7.8V25.7zm32.5-9.8H95v27h.2c1.2-2.2 3.2-4.3 5.6-5.6 2.3-1.3 5.1-2.1 8-2.1 5.8 0 15 3.6 15 18.3v25.6H116V54.3c0-6.9-2.6-12.7-10-12.7-5.1 0-9 3.6-10.5 7.7-.4 1.2-.5 2.3-.5 3.7v26h-7.8V15.9zM141.6 59c.2 10.6 6.8 15 14.8 15 5.6 0 9.1-1 11.9-2.2l1.4 5.6c-2.8 1.2-7.6 2.8-14.4 2.8-13.3 0-21.2-8.8-21.2-21.8s7.7-23.1 20.2-23.1c14.1 0 17.8 12.3 17.8 20.2 0 1.6-.1 2.8-.3 3.6h-30.2zm22.9-5.7c.1-4.9-2-12.6-10.9-12.6-8 0-11.4 7.2-12 12.6h22.9z" class="st1"/><path d="M623 303.5c4.2-.7 9.7-1.3 16.7-1.3 8.6 0 14.9 2 18.9 5.6 3.6 3.2 5.9 8.1 5.9 14.1 0 6.1-1.8 10.9-5.2 14.4-4.7 4.9-12.1 7.4-20.6 7.4-2.6 0-5-.1-7-.6v27H623v-66.6zm8.7 32.5c1.9.5 4.3.7 7.2.7 10.5 0 16.9-5.2 16.9-14.3 0-9-6.4-13.3-15.9-13.3-3.8 0-6.7.3-8.2.7V336zm43.3.8c0-5.7-.1-10.6-.4-15.1h7.7l.4 9.6h.3c2.2-6.5 7.6-10.6 13.5-10.6.9 0 1.6.1 2.4.2v8.3c-.9-.2-1.8-.2-3-.2-6.2 0-10.6 4.6-11.8 11.2-.2 1.2-.3 2.7-.3 4.1v25.8H675v-33.3zm76.3 8.7c0 17.9-12.5 25.7-24.1 25.7-13 0-23.2-9.6-23.2-24.9 0-16.1 10.7-25.6 24-25.6 13.9 0 23.3 10.1 23.3 24.8zm-38.3.5c0 10.6 6 18.6 14.6 18.6 8.4 0 14.7-7.9 14.7-18.8 0-8.2-4.1-18.5-14.5-18.5-10.3 0-14.8 9.6-14.8 18.7zm38.2 38.4c4.1-.3 7.5-1.4 9.6-3.8 2.4-2.7 3.4-6.5 3.4-18.1v-40.7h8.8v44.1c0 9.4-1.5 15.5-5.8 19.9-3.9 3.9-10.3 5.5-15 5.5l-1-6.9zm22.8-76.3c0 2.9-2 5.4-5.6 5.4-3.2 0-5.3-2.5-5.3-5.4 0-3 2.2-5.5 5.5-5.5s5.4 2.5 5.4 5.5zm19.1 39.4c.2 11.9 7.7 16.8 16.6 16.8 6.3 0 10.2-1.1 13.4-2.5l1.6 6.3c-3.1 1.4-8.5 3.1-16.2 3.1-14.9 0-23.8-9.9-23.8-24.5s8.6-26 22.7-26c15.9 0 20 13.8 20 22.7 0 1.8-.1 3.1-.3 4.1h-34zm25.8-6.3c.1-5.5-2.3-14.2-12.2-14.2-9 0-12.8 8.1-13.5 14.2h25.7zm54.6 27.3c-2.3 1.1-7.4 2.8-13.9 2.8-14.6 0-24.1-9.9-24.1-24.7 0-14.9 10.2-25.8 26-25.8 5.2 0 9.8 1.3 12.2 2.6l-2 6.7c-2.1-1.1-5.4-2.3-10.2-2.3-11.1 0-17.1 8.3-17.1 18.3 0 11.2 7.2 18.1 16.8 18.1 5 0 8.3-1.2 10.8-2.3l1.5 6.6zm23-58.4v11.6h12.6v6.7h-12.6v26.1c0 6 1.7 9.4 6.6 9.4 2.4 0 3.8-.2 5.1-.6l.4 6.7c-1.7.6-4.4 1.2-7.8 1.2-4.1 0-7.4-1.4-9.5-3.7-2.4-2.7-3.4-7-3.4-12.7v-26.4h-7.5v-6.7h7.5v-9l8.6-2.6z" class="st1"/><path d="M974.4 140.6c0 13.2-10.4 23.6-23.9 23.6-13.4 0-24.1-10.4-24.1-23.6 0-13 10.7-23.4 24.1-23.4 13.5 0 23.9 10.4 23.9 23.4zm-42 0c0 10.4 7.7 18.7 18.2 18.7 10.3 0 17.8-8.3 17.8-18.5 0-10.4-7.5-18.8-17.9-18.8-10.5-.1-18.1 8.3-18.1 18.6zm14.3 12.2h-5.4v-23.4c2.1-.4 5.1-.7 9-.7 4.4 0 6.4.7 8.1 1.7 1.3 1 2.3 2.8 2.3 5.1 0 2.6-2 4.6-4.8 5.4v.3c2.3.9 3.6 2.6 4.3 5.7.7 3.6 1.1 5 1.7 5.8H956c-.7-.9-1.1-3-1.9-5.7-.4-2.6-1.9-3.7-4.8-3.7h-2.6v9.5zm.2-13.2h2.6c3 0 5.4-1 5.4-3.4 0-2.1-1.6-3.6-5-3.6-1.4 0-2.4.1-3 .3v6.7z" class="st0"/></svg>