<svg xmlns="http://www.w3.org/2000/svg" role="img" viewBox="-1.96 -2.21 134.29 22.29"><title>DataRobot (Pre-defined Models as a Service) logo</title><g fill="none" fill-rule="evenodd"><path fill="#424242" d="M17.06 10.287c-.046.474-.113.95-.2 1.422a11.87 11.87 0 0 1-.346 1.401 7.673 7.673 0 0 1-.504 1.245 4.524 4.524 0 0 1-1.038 1.387c-.427.38-.914.699-1.465.953a6.58 6.58 0 0 1-1.264.432 10.06 10.06 0 0 1-1.317.218c-.442.041-.894.062-1.355.063l-1.332-.001H.713V.442H8.24c.727.001 1.467.034 2.22.101a9.52 9.52 0 0 1 2.155.445 7.08 7.08 0 0 1 1.89.967c.575.415 1.05.964 1.424 1.642.408.762.707 1.636.904 2.62.194.982.291 1.898.291 2.746.002.408-.021.848-.065 1.324zm-4.337-3.43c-.152-.737-.403-1.38-.76-1.931-.425-.65-.968-1.065-1.622-1.245a7.942 7.942 0 0 0-2.103-.27H4.482v11.028h3.755c.424 0 .9-.042 1.423-.127a4.704 4.704 0 0 0 1.347-.413c.39-.206.708-.51.958-.912.246-.404.441-.841.583-1.313.142-.47.246-.95.307-1.438.063-.489.094-.921.094-1.299 0-.65-.075-1.344-.226-2.08zm10.972 10.534c-.48 0-.965-.004-1.454-.014a6.039 6.039 0 0 1-1.423-.19c-.819-.203-1.442-.64-1.868-1.308a3.924 3.924 0 0 1-.639-2.151c0-.593.131-1.179.387-1.754a3.496 3.496 0 0 1 1.162-1.426c.232-.17.508-.302.827-.393a6.491 6.491 0 0 1 1.003-.204c.347-.042.69-.067 1.027-.077.34-.007.65-.012.937-.012h4.38l-.002-.203c.002-.441-.06-.794-.184-1.057a1.384 1.384 0 0 0-.545-.61 2.215 2.215 0 0 0-.866-.28 9.084 9.084 0 0 0-1.117-.065h-6.016l-.001-2.645h6.015c.248.001.493.002.733.012.239.009.483.013.73.012 1.1.036 2.038.255 2.815.662.776.409 1.341 1.145 1.695 2.216.142.423.225.839.252 1.244.026.41.04.833.039 1.275l.002 6.968h-7.889zm4.34-4.878l-4.728.001c-.374 0-.69.092-.95.277-.257.186-.386.472-.386.86 0 .27.057.477.174.621a.995.995 0 0 0 .453.315c.188.067.397.11.628.128.23.015.454.024.667.024l4.139-.001.002-2.225zm11.417 4.895c-.884-.002-1.682-.148-2.385-.446-.71-.297-1.23-.87-1.564-1.72a5.108 5.108 0 0 1-.265-1.235 14.705 14.705 0 0 1-.052-1.26V7.653l-2.265-.001.001-2.649h2.263l.001-4.56h3.549l-.001 4.558h3.3l-.001 2.65-3.298.002v4.508c-.002.272.003.61.011 1.018.01.41.103.73.28.968.16.206.363.352.613.448.249.091.513.152.797.177.285.025.568.03.852.013.286-.017.533-.025.746-.026v2.649h-2.582zm8.962-.017c-.48 0-.967-.003-1.454-.014a5.983 5.983 0 0 1-1.427-.191c-.817-.202-1.439-.639-1.865-1.31a3.932 3.932 0 0 1-.64-2.149c.001-.592.13-1.177.388-1.754a3.472 3.472 0 0 1 1.162-1.425c.232-.169.508-.3.828-.393a6.47 6.47 0 0 1 1.001-.205c.347-.04.69-.065 1.027-.075.341-.008.65-.012.936-.013l4.382.001V9.66c0-.44-.062-.793-.187-1.056a1.375 1.375 0 0 0-.545-.611 2.196 2.196 0 0 0-.865-.28 9.264 9.264 0 0 0-1.118-.064h-6.015l-.001-2.646h6.016c.248 0 .492.004.733.012.238.009.481.013.73.012 1.1.035 2.037.255 2.814.662.776.41 1.342 1.146 1.696 2.215.14.425.224.84.25 1.247.03.407.042.831.04 1.274v6.967h-7.886zm4.338-4.878h-4.728c-.373 0-.69.092-.948.277-.26.187-.387.474-.387.862 0 .27.057.477.174.62a.992.992 0 0 0 .454.314c.185.07.396.11.626.129.232.015.456.024.67.024h4.138l.001-2.226z"/><path fill="#2D8FE2" d="M71.01 17.408a4.58 4.58 0 0 1-.265-1.196 31.337 31.337 0 0 0-.134-1.22c-.09-.78-.234-1.43-.44-1.945-.206-.516-.494-.93-.865-1.232-.375-.306-.844-.521-1.413-.649-.57-.127-1.26-.191-2.078-.191H62.78l-.002 6.433h-3.77V.443h8.677c.656 0 1.326.02 2.011.063a9.694 9.694 0 0 1 1.955.318c1.049.289 1.864.831 2.449 1.63.585.795.879 1.703.88 2.72-.002 1.17-.26 2.191-.775 3.065-.515.872-1.385 1.495-2.607 1.868.388.137.721.269.997.394.275.128.518.281.732.46.214.176.4.39.562.635.157.246.317.557.475.929.25.56.389 1.136.414 1.728.028.594.076 1.188.149 1.78.052.441.158.9.317 1.375H71.01zm-.42-12.913a1.624 1.624 0 0 0-.573-.665 2.281 2.281 0 0 0-.863-.326 5.967 5.967 0 0 0-1.089-.094l-5.287.001.001 4.596 5.286-.002c.867 0 1.54-.168 2.018-.508.48-.339.718-.972.717-1.891 0-.453-.07-.823-.21-1.111zm18.863 9.536a5.483 5.483 0 0 1-1.435 1.95 6.223 6.223 0 0 1-2.18 1.195c-.841.273-1.767.408-2.776.408-2.163.001-3.837-.565-5.024-1.693-1.188-1.128-1.782-2.73-1.782-4.801 0-.967.167-1.842.507-2.622a5.488 5.488 0 0 1 1.408-1.975c.603-.534 1.324-.946 2.167-1.235a8.46 8.46 0 0 1 2.75-.433c2.162 0 3.85.568 5.064 1.706 1.213 1.138 1.82 2.752 1.822 4.84 0 1.001-.174 1.889-.52 2.66zm-3.3-4.296a3.17 3.17 0 0 0-.528-1.179 2.525 2.525 0 0 0-.992-.79c-.41-.193-.92-.29-1.52-.29-.633 0-1.157.1-1.57.302-.414.2-.739.472-.977.815a3.2 3.2 0 0 0-.503 1.206 7.069 7.069 0 0 0-.145 1.494c-.002.518.056 1 .17 1.444.115.442.3.827.556 1.155.255.326.59.582 1.005.765.411.184.92.276 1.518.276s1.102-.1 1.508-.3a2.67 2.67 0 0 0 .977-.804 3.07 3.07 0 0 0 .515-1.193c.097-.461.145-.942.147-1.444a6.498 6.498 0 0 0-.16-1.457zm18.345 4.412c-.442.95-1.168 1.732-2.177 2.343-.728.443-1.459.705-2.203.792a21.11 21.11 0 0 1-2.363.125h-5.791V.444h3.548l.001 4.56L98.674 5c2.041.001 3.632.515 4.773 1.542 1.143 1.028 1.717 2.526 1.717 4.496a7.256 7.256 0 0 1-.666 3.108zm-3.704-5.578c-.545-.61-1.418-.916-2.62-.916h-2.66l-.002 7.104h2.66c1.15 0 2.009-.343 2.582-1.032.57-.687.86-1.548.86-2.584 0-1.102-.275-1.961-.82-2.572zm18.7 5.462a5.474 5.474 0 0 1-1.438 1.948c-.61.528-1.336.926-2.177 1.197-.842.273-1.77.41-2.779.41-2.162 0-3.837-.567-5.022-1.695-1.19-1.128-1.78-2.729-1.781-4.801 0-.968.169-1.842.503-2.622a5.542 5.542 0 0 1 1.411-1.975c.602-.534 1.324-.946 2.164-1.234a8.48 8.48 0 0 1 2.752-.434c2.163 0 3.85.569 5.065 1.706 1.213 1.139 1.819 2.75 1.82 4.839 0 1.002-.174 1.89-.519 2.661zm-3.3-4.295a3.16 3.16 0 0 0-.53-1.18 2.54 2.54 0 0 0-.99-.791c-.414-.192-.921-.289-1.52-.289-.634 0-1.16.101-1.573.302a2.476 2.476 0 0 0-.977.816c-.24.343-.407.745-.503 1.205a7.188 7.188 0 0 0-.144 1.493c0 .519.057 1 .17 1.444.116.443.3.828.554 1.155.257.326.592.581 1.007.766.412.184.918.276 1.519.276.6 0 1.1-.098 1.505-.302.407-.2.733-.468.979-.802.246-.336.419-.733.516-1.192a7.21 7.21 0 0 0 .144-1.445 6.28 6.28 0 0 0-.158-1.456zm11.01 7.672c-.887-.002-1.68-.15-2.389-.446-.705-.297-1.227-.87-1.562-1.72a5.02 5.02 0 0 1-.265-1.233 14.74 14.74 0 0 1-.053-1.262l.002-5.094h-2.265v-2.65h2.263V.442h3.549v4.56l3.3-.002v2.652h-3.3v4.507c0 .273.003.612.012 1.02.01.408.102.73.28.968.16.205.364.353.613.446.249.092.514.151.8.177.281.027.566.032.85.014.284-.017.532-.027.744-.026l.002 2.649h-2.581z"/></g></svg>