<svg xmlns="http://www.w3.org/2000/svg" role="img" viewBox="449.50 288.50 1014.00 479.00"><title>Dataiku DSS (Dashboards and Charts) logo</title><g fill="#00AFAA"><circle cx="769" cy="430.7" r="9.4"/><path d="M689.1 309.5c-121.3 0-219.7 98.3-219.7 219.7 0 121.3 98.4 219.7 219.7 219.7 121.3 0 219.7-98.4 219.7-219.7 0-121.4-98.4-219.7-219.7-219.7zm123.8 289.8H704v-17.5h108.8v17.5zm-17.3-166.9s-7.9 11.5-3.8 38.7c7.7 51.1-19.1 96.5-66.7 96.5H690v14h-28.1c-6.9 0-20.7-1.1-26.9 4.9-62.5 59.8-75.7 77-80.1 79.4-2.8 1.5-3.5-1.8-3.5-1.8l180.8-222.9c0-40.2 43.9-50.9 61.4-21.1l23.3-8.1-21.3 20.4z"/></g><path d="M1076.3 482.3h-.5c-3.7 9.4-11 21.4-31.6 21.4-33.7 0-47.1-28.1-47.1-77.6 0-64 22.5-73.9 44.4-73.9 15.5 0 27.3 7.8 32.7 20.6h.5v-64h28.9v191.1h-27.3v-17.6zm-26.2-107.1c-16.6 0-22.5 13.4-22.5 52.2 0 32.7 4.3 53.3 24.4 53.3 19.8 0 24.4-20.3 24.4-51.1-.1-34.6-4.1-54.4-26.3-54.4zm178.5 94.8c0 5.4 3.2 10.2 7.5 10.2 1.9 0 3.7-.3 4.8-.8v18.7c-3.5 1.6-8.6 3.5-14.2 3.5-12.8 0-23.6-5.1-24.4-19h-.5c-7.8 14.2-19 21.1-35.9 21.1-23 0-37.5-12.8-37.5-40.4 0-32.1 13.9-38.8 33.5-45.2l22.5-6.2c10.4-2.9 16.9-5.9 16.9-18.5 0-13.1-4.5-21.4-19.8-21.4-19.3 0-21.9 13.7-21.9 27.6h-27.3c0-30.5 12.6-47.4 50.6-47.4 25.4 0 45.8 9.9 45.8 35.3V470zm-27.3-46.1c-7.5 5.9-23.6 9.4-32.1 13.4-8.3 4-11.8 12.6-11.8 23.3 0 12 5.9 21.7 17.9 21.7 17.4 0 26-13.1 26-34.3v-24.1zm46.6-68h19.8v-41h28.9v41h23.6v21.4h-23.6v85.9c0 11.2 3.2 15.3 13.1 15.3 4.3 0 7.8-.3 10.4-.8v21.4c-6.2 1.6-14.2 2.4-23.3 2.4-19.5 0-29.2-5.4-29.2-34.8v-89.4h-19.8v-21.4zM1432.3 470c0 5.4 3.2 10.2 7.5 10.2 1.9 0 3.7-.3 4.8-.8v18.7c-3.5 1.6-8.6 3.5-14.2 3.5-12.8 0-23.6-5.1-24.4-19h-.5c-7.8 14.2-19 21.1-35.9 21.1-23 0-37.5-12.8-37.5-40.4 0-32.1 13.9-38.8 33.5-45.2l22.5-6.2c10.4-2.9 16.9-5.9 16.9-18.5 0-13.1-4.5-21.4-19.8-21.4-19.3 0-21.9 13.7-21.9 27.6H1336c0-30.5 12.6-47.4 50.6-47.4 25.4 0 45.8 9.9 45.8 35.3V470zm-27.3-46.1c-7.5 5.9-23.6 9.4-32.1 13.4-8.3 4-11.8 12.6-11.8 23.3 0 12 5.9 21.7 17.9 21.7 17.4 0 26-13.1 26-34.3v-24.1zm-400.9 127.2h28.9V580h-28.9v-28.9zm0 49.3h28.9v144h-28.9v-144zm60.7-47.1h28.9v107.3h.5l43.6-60.2 33.5-.3-43.4 55.7 49 88.6h-31.6l-35.3-65.6-16.3 19.8v45.8h-28.9V553.3zM1265 727.5h-.8c-7.2 12.8-20.9 20.6-36.9 20.6-21.4 0-35.9-9.9-35.9-47.1V600.4h28.9v103.3c0 16.1 7.2 21.4 19.5 21.4s23.6-8 23.6-24.1V600.4h28.9v144H1265v-16.9z" fill="#333E48"/></svg>