<svg xmlns="http://www.w3.org/2000/svg" role="img" viewBox="30.67 165.91 355.42 64.17"><title>Datameer (Authorization) logo</title><g fill-rule="evenodd"><path fill="#fbfbfb" d="M0 200v200h400V0H0v200m66.525-26.542c1.141.362 2.246.812 2.455 1 .209.188.622.342.917.342.874 0 4.65 2.982 6.601 5.212 1.741 1.991 2.221 2.771 3.316 5.388 1.492 3.569 1.283 2.687 2.26 9.535.337 2.358.33 3.893-.027 6.2-.261 1.686-.577 3.785-.702 4.665-.125.88-.389 1.771-.586 1.98-.197.209-.359.664-.359 1.011 0 1.437-3.479 7.228-5.379 8.954-5.672 5.152-7.26 5.51-23.821 5.369L37.8 223l-.104-24.6c-.057-13.53-.017-24.825.088-25.1.322-.844 26.026-.703 28.741.158m74.213 1.867c.248.299.485 2.671.549 5.5l.113 4.975 3.2.112c3.997.14 4.205.364 3.915 4.217-.251 3.328-.327 3.41-2.918 3.161-1.075-.103-2.422-.07-2.995.074l-1.042.261.12 9.746c.143 11.615.076 11.429 4.126 11.429h2.483l.2 1.9c.11 1.045.091 2.89-.044 4.1l-.245 2.2h-5.833c-10.909 0-11.511-.915-11.661-17.719L130.6 193.4l-2.915-.118-2.916-.118.116-3.482.115-3.482 2.8-.2 2.8-.2.113-4.975c.142-6.244-.051-6.025 5.287-6.025 3.065 0 4.427.151 4.738.525m-91.271 7.342c-.147.146-.267 6.986-.267 15.2V212.8h6.325c5.465 0 6.545-.107 7.949-.785 1.83-.884 5.326-4.546 5.326-5.578 0-.372.225-.902.5-1.177.736-.736.695-12.727-.049-14.299-1.333-2.819-1.837-3.641-3.007-4.898-1.658-1.781-3.783-2.675-7.644-3.218-3.523-.496-8.715-.597-9.133-.178m60.333 2.701c5.523.85 6.899 1.393 9.208 3.634 2.563 2.489 2.514 2.17 2.755 17.798.1 6.49.366 12.52.59 13.4.523 2.052.291 2.24-3.011 2.445-5.049.312-7.34-.135-7.61-1.486-.227-1.133-1.046-1.546-1.525-.77-.29.468-2.153 1.353-4.607 2.187-2.044.695-10.36.871-11.505.243-.382-.209-1.415-.7-2.295-1.09-3.57-1.583-5.192-4.493-5.197-9.329-.007-7.073 3.593-10.24 12.997-11.435 9.321-1.184 11.2-2.017 11.2-4.965 0-3.397-5.84-5.174-9.657-2.937-1.276.747-1.51 1.058-2.297 3.049l-.439 1.111-5.304-.111L87.8 197l.048-1.53c.044-1.376.616-2.972 1.459-4.07 1.208-1.571 2.019-2.4 2.796-2.855 2.68-1.572 5.453-2.598 7.995-2.959 1.57-.222 2.94-.49 3.045-.595.339-.339 2.971-.19 6.657.377m67.158.033c2.176.328 4.156.752 4.4.943.243.19.901.455 1.462.588 1.119.267 3.833 2.69 4.78 4.268.485.809.649 3.52.859 14.2.143 7.26.388 13.981.546 14.935.407 2.468.19 2.56-5.275 2.24-4.751-.278-4.779-.285-5.453-1.46l-.677-1.18-1.407.87c-3.492 2.157-12.598 3.38-15.298 2.054-.382-.188-1.415-.678-2.295-1.089-4.635-2.166-6.853-7.799-5.138-13.044.708-2.165 4.087-5.926 5.323-5.926.36 0 .826-.165 1.035-.368.387-.375 4.052-1.203 6.58-1.487 4.252-.478 9.13-1.556 10.1-2.232 2.58-1.8.857-6.204-2.5-6.39-5.004-.277-7.463.734-8.455 3.478-.278.769-.695 1.411-.925 1.426-1.824.118-9.576-.076-9.852-.247-.191-.118-.239-1.062-.105-2.097.896-6.956 10.88-11.202 22.295-9.482m41.716-.024c3.971.84 5.66 1.825 7.429 4.333.464.657.603.609 1.907-.657 6.094-5.918 18.087-5.064 21.43 1.526 1.723 3.397 1.775 3.975 1.665 18.49L251 223l-4.4.116c-2.42.064-4.805.016-5.3-.107l-.9-.224v-10.86c0-16.553-.384-17.725-5.8-17.725-5.858 0-6.274 1.052-6.569 16.6L227.8 223l-4.967.113c-2.732.062-5.135-.055-5.34-.26-.212-.212-.399-5.901-.433-13.205l-.06-12.833-1.308-1.307c-2.53-2.531-8.065-1.476-9.847 1.876-.547 1.03-.661 3.084-.746 13.416L205 223l-5.504.111-5.504.112.104-18.512.104-18.511 4.795-.114c5.29-.125 5.805.087 5.805 2.39 0 1.421.308 1.411 1.919-.061 1.527-1.395 3.213-2.244 5.917-2.981 2.641-.719 2.898-.722 6.038-.057m58.95-.028c1.443.302 2.973.737 3.4.966.427.23 1.414.694 2.194 1.031 4.492 1.944 8.313 8.509 9.014 15.489.47 4.672 1.403 4.365-13.246 4.365H266.4l.019 1.3c.094 6.363 10.473 8.953 14.692 3.665l1.089-1.365h4.5c4.103 0 4.5.065 4.5.736 0 1.442-2.445 5.597-4.332 7.361-1.843 1.725-2.845 2.317-6.217 3.678-3.191 1.288-13.908.551-14.881-1.023-.119-.194-.497-.352-.838-.352-1.522 0-5.673-4.108-7.074-7-2.029-4.189-3.031-14.388-1.558-15.86.275-.275.513-.869.529-1.32.016-.451.374-1.36.794-2.02.421-.66.93-1.569 1.131-2.019 1.014-2.275 5.486-5.666 8.846-6.708 5.276-1.637 6.207-1.723 10.024-.924m41.166.075c8.593 1.793 14.41 9.119 14.41 18.147 0 3.854.838 3.629-13.48 3.629H307.2v.939c0 6.707 12.021 9.515 15.248 3.561.461-.851.731-.9 4.996-.9 5.327 0 5.363.033 3.769 3.373-2.026 4.244-4.938 6.758-9.784 8.447-1.916.668-11.238.812-11.629.18-.136-.22-.534-.4-.884-.4-2.537 0-8.367-4.66-10.008-8-4.788-9.746-1.469-23.013 6.716-26.844.757-.354 1.856-.872 2.443-1.15 1.047-.496 5.356-1.465 6.933-1.558.44-.026 2.145.233 3.79.576m41.384-.234c1.023.389 1.026.405 1.026 5.2v4.81h-3.139c-8.028 0-9.234 2.207-9.611 17.6l-.25 10.2h-10.4l-.111-17.6c-.137-21.776-.735-19.4 4.876-19.4 5.103 0 5.035-.041 5.035 3.033 0 1.304.157 1.767.6 1.767.33 0 .6-.165.6-.366 0-1.256 5.19-4.791 7.076-4.82.482-.008.988-.194 1.124-.414.315-.509 1.848-.514 3.174-.01m15.742.37c4.36 2.233 4.44 8.074.135 9.876-1.637.685-2.965.717-4.156.102-.492-.254-1.165-.583-1.495-.73-1.191-.532-2.061-2.882-1.836-4.963.407-3.766 4.129-5.936 7.352-4.285m-2.516.84c-.141.228.204.4.8.4.596 0 .941-.172.8-.4-.136-.22-.496-.4-.8-.4-.304 0-.664.18-.8.4m-2.611 1.821c-.714 1.333-.634 3.494.171 4.643.609.87.64.755.64-2.375 0-3.643-.03-3.727-.811-2.268m2.686.037c-.566.567-.246 1.342.554 1.342.56 0 .788-.217.7-.667-.142-.736-.825-1.103-1.254-.675m3.725.411c0 .367-.299.998-.663 1.401-.781.863-.196 2.73.854 2.73.478 0 .609-.518.609-2.4 0-1.333-.178-2.4-.4-2.4-.22 0-.4.301-.4.669m-4 3.839c0 .944.219 1.491.667 1.662 1.555.597 1.522-1.251-.045-2.552-.543-.45-.622-.336-.622.89m-102.6 1.236c-2.118 1.233-3.031 2.036-3.591 3.157-.648 1.299-.806 2.691-.309 2.712 3.198.135 12.534.174 13.2.055 1.899-.34.387-3.999-2.386-5.773-1.263-.808-5.621-.903-6.914-.151m40.8.121c-2.854 1.504-5.487 5.618-3.7 5.781 7.542.687 14.424.208 14.084-.981-1.351-4.719-6.246-6.982-10.384-4.8m-205.2 12.736c-1.32.301-3.12.565-4 .587-6.151.149-6.952 7.859-.89 8.566 5.42.631 8.532-1.904 8.778-7.154.131-2.813-.008-2.885-3.888-1.999m67.8-.161c-.99.191-2.88.468-4.2.615-7.845.874-8.124 8.65-.311 8.65 5.063 0 7.119-1.868 7.368-6.694.161-3.143.151-3.152-2.857-2.571"/><path fill="#27282e" d="M38.4 198v24.8h12.446c12.57 0 14.221-.159 17.249-1.656.382-.189.879-.344 1.106-.344 1.939 0 9.599-7.947 9.599-9.959 0-.249.164-.764.365-1.146 2.378-4.533 2.957-16.777.999-21.155-.31-.694-.561-1.414-.558-1.6.039-2.12-6.251-9.625-9.206-10.984-6.059-2.786-5.843-2.756-19.513-2.756H38.4V198m93.329-21.745c-.34.139-.408 1.384-.244 4.491.297 5.641.088 6.054-3.075 6.054-2.666 0-2.921.223-2.924 2.552-.004 3.68-.197 3.448 2.862 3.448h2.749l.228 2.3c.125 1.265.247 6.44.27 11.5.064 14.284 1.5 16.22 12.005 16.195 3.868-.009 3.928-.061 4-3.4.099-4.579.346-4.193-2.7-4.208-4.217-.019-4.137.221-4.007-12.071L141 193l3.261-.116 3.261-.115.139-1.715c.31-3.82.133-4.039-3.359-4.171-3.912-.147-3.992-.276-3.827-6.099.096-3.366.002-4.424-.408-4.581-.664-.253-7.696-.209-8.338.052m-70.893 6.097c.53.216 1.442.494 2.025.618 1.255.267 5.077 3.192 5.433 4.158.136.369.351.762.477.872 2.233 1.949 2.889 14.543.947 18.2-.234.44-.657 1.296-.94 1.902-1.215 2.598-4.092 4.604-7.859 5.479-2.488.578-11.384.458-11.813-.159-.388-.557-.394-31.196-.006-31.605.402-.423 10.516.037 11.736.535m39.764 3.912c-5.619.676-10.525 3.978-11.689 7.87-.827 2.763-.976 2.666 4.07 2.666h4.582l.767-1.736c1.917-4.334 10.519-5.227 12.89-1.338 1.289 2.114.828 4.9-.964 5.831-1.61.836-4.855 1.634-6.656 1.638-2.669.004-9.723 1.628-11.8 2.715-5.31 2.781-6.344 11.411-1.866 15.585 3.614 3.369 12.381 4.244 16.961 1.692.382-.213.967-.387 1.3-.387.333 0 .606-.135.608-.3.002-.334 2.262-1.7 2.811-1.7.192 0 .468.63.612 1.4l.263 1.4h9.427l-.432-1.5c-.245-.851-.53-7.125-.658-14.5-.221-12.738-.245-13.033-1.173-14.653-2.199-3.838-10.044-5.766-19.053-4.683m66.8-.026c-6.604.939-12.2 5.225-12.2 9.343v1.219h4.8c4.606 0 4.8-.034 4.8-.838 0-3.802 7.621-6.145 11.728-3.607 3.179 1.965 2.401 7.083-1.194 7.856-.623.135-1.547.412-2.053.617-.505.204-1.765.372-2.8.371-2.703-.002-9.734 1.596-11.881 2.7-4.999 2.569-6.354 10.425-2.586 14.993 3.833 4.646 14.482 5.091 20.257.846 1.538-1.131 2.417-.883 2.854.805l.326 1.257 3.774.04c4.858.051 5.774-.119 5.086-.947-.387-.465-.536-3.787-.612-13.654-.113-14.503-.651-17.972-2.799-18.026-.275-.007-.5-.166-.5-.352 0-.302-.895-.739-4.4-2.151-1.037-.418-10.492-.772-12.6-.472m45.4.007c-1.642.309-5.182 2.264-6.618 3.655-1.784 1.728-2.182 1.641-2.182-.476 0-.977-.189-1.894-.421-2.037-.648-.401-6.866-.507-7.883-.135l-.904.331.104 17.509L195 222.6h8.8l.231-11.6c.256-12.851.291-13.098 2.194-15.321 2.287-2.672 7.17-3.249 9.625-1.137 1.948 1.675 2.137 3.068 2.144 15.768l.006 11.71.9.329c1.014.372 7.232.264 7.879-.136.277-.171.421-3.795.421-10.582 0-15.464 1.296-18.757 7.4-18.805 5.679-.045 6.563 2.274 6.584 17.266l.016 11.893.972.244c.535.134 2.38.144 4.1.022 1.72-.121 3.353-.228 3.628-.236.684-.021.711-24.016.031-27.448-.682-3.439-3.68-7.367-5.624-7.367-.301 0-.74-.193-.976-.429-.847-.847-7.911-.963-10.021-.164-2.095.793-4.306 2.294-5.439 3.693-1.004 1.24-1.503 1.137-2.942-.603-2.35-2.841-7.534-4.317-12.129-3.452m58-.011c-18.411 3.3-19.615 31.03-1.554 35.801 3.906 1.032 10.981.531 12.534-.888.209-.191.633-.347.942-.347 1.947 0 6.398-5.192 7.46-8.7.44-1.456-7.426-1.399-8.09.059-1.211 2.656-9.139 5.307-10.292 3.441-.136-.22-.609-.4-1.05-.4-2.166 0-5.15-3.901-5.15-6.732 0-2.512-.235-2.467 12.98-2.474 13.415-.007 13.244.026 12.873-2.453-.144-.957-.361-2.461-.482-3.341-.256-1.858-.444-2.379-2.007-5.559-1.353-2.755-4.153-5.728-6.39-6.785-.865-.41-1.9-.913-2.298-1.119-.797-.411-7.887-.788-9.476-.503m40 .203c-.77.224-1.85.513-2.4.642-5.54 1.301-11.2 9.84-11.2 16.9 0 14.412 14.709 23.355 27.173 16.522 2.932-1.607 7.227-7.001 7.227-9.076 0-.639-8.031-.208-8.282.444-2.095 5.46-13.388 5.181-15.871-.391-2.434-5.461-2.395-5.478 12.18-5.478 11.232 0 12.422-.063 12.655-.671.322-.837-.595-7.393-1.106-7.909-.207-.209-.376-.713-.376-1.119 0-5.957-12.409-12.077-20-9.864m45.041-.159c-2.445.655-5.56 3.027-7.386 5.627-1.254 1.785-1.655 1.328-1.655-1.885 0-3.232-.069-3.275-4.8-3.006-1.65.093-3.135.173-3.3.178-.165.004-.3 8.018-.3 17.808v17.8h9.2v-9.986c0-15.155 1.59-18.129 9.713-18.168l3.512-.017-.112-4.215-.113-4.214-2-.062c-1.1-.035-2.341.028-2.759.14m16.6 4.942l.041 1.78.332-1.4c.195-.819.178-1.558-.041-1.78-.232-.236-.358.294-.332 1.4m-93.978 2.425c2.104 1.498 4.083 5.568 3.158 6.495-.493.493-12.91.849-14.921.427-3.269-.686.664-7.295 4.7-7.899 2.275-.34 5.921.164 7.063.977m41.381.175c1.216.915 2.556 3.147 2.556 4.26 0 .308.173.733.383.943 1.41 1.41-13.163 2.672-15.625 1.354-1.517-.811.187-5.005 2.703-6.654 2.392-1.567 7.84-1.514 9.983.097m-208.728 13.792c.271 6.087-3.898 9.816-10.032 8.972-5.918-.814-6.377-8.957-.558-9.911 6.97-1.143 8.339-1.404 8.572-1.638 1.057-1.056 1.905.026 2.018 2.577m66.812-.412c.346 5.985-2.675 9.347-8.4 9.347-4.94 0-7.537-2.713-6.128-6.402 1.075-2.817 2.003-3.257 8.8-4.179 1.76-.238 3.378-.605 3.595-.815 1.096-1.058 2.003-.187 2.133 2.049"/><path fill="#797c7f" d="M38.188 198c0 13.75.05 19.375.112 12.5.061-6.875.061-18.125 0-25-.062-6.875-.112-1.25-.112 12.5M66.6 174.285c.44.106.971.355 1.18.554.209.198.659.36 1 .359.341-.002.104-.272-.526-.6-.63-.329-1.44-.577-1.8-.552-.461.033-.417.104.146.239m3 1.075c0 .089.675.542 1.5 1.008l1.5.848-1.2-1.006c-1.101-.923-1.8-1.253-1.8-.85m61.862.54c-.102.165 1.94.3 4.538.3 2.598 0 4.64-.135 4.538-.3-.102-.165-2.144-.3-4.538-.3s-4.436.135-4.538.3m9.089 5.3c0 2.53.065 3.565.145 2.3.079-1.265.079-3.335 0-4.6-.08-1.265-.145-.23-.145 2.3m-65.966-2.088c1.988 2.092 3.009 2.868 1.577 1.2-1.033-1.203-1.421-1.58-2.574-2.5-.544-.433-.095.152.997 1.3m56.757 3.088c-.001 1.98.066 2.84.15 1.912.084-.928.085-2.548.003-3.6-.083-1.052-.152-.292-.153 1.688m-82.275-.333c-.147.146-.264.461-.261.7.004.269.123.249.314-.051.194-.306 1.701-.533 4.094-.617l3.786-.133-3.833-.083c-2.109-.046-3.954.037-4.1.184m28.596 1.15c.46.779.923 1.33 1.03 1.223.19-.19-1.394-2.64-1.707-2.64-.087 0 .217.638.677 1.417M59.2 182.4c1.542.494 2.364.494 1.6 0-.33-.213-1.05-.373-1.6-.354l-1 .034 1 .32m3.233.528c.636.487 3.167 1.808 3.167 1.653 0-.268-2.518-1.778-2.967-1.78-.201 0-.291.056-.2.127m4.596 3.11c.644.791 1.252 1.37 1.35 1.287.099-.083-.428-.73-1.17-1.438l-1.351-1.287 1.171 1.438m37.071-.147c.825.087 2.175.087 3 0 .825-.086.15-.157-1.5-.157s-2.325.071-1.5.157m66.4 0c.825.087 2.175.087 3 0 .825-.086.15-.157-1.5-.157s-2.325.071-1.5.157m44.405-.004c.609.092 1.509.09 2-.005.492-.095-.005-.171-1.105-.168-1.1.003-1.503.081-.895.173m21.802.003c.719.089 1.799.087 2.4-.004s.013-.164-1.307-.162c-1.32.002-1.812.077-1.093.166m36.4 0c.719.089 1.799.087 2.4-.004s.013-.164-1.307-.162c-1.32.002-1.812.077-1.093.166m41.2 0c.719.089 1.799.087 2.4-.004s.013-.164-1.307-.162c-1.32.002-1.812.077-1.093.166m43.598-.007c.497.096 1.217.092 1.6-.008.382-.1-.025-.179-.905-.174-.88.004-1.193.086-.695.182m-260.505.769c-.984.481-1.02.54-.2.325.55-.144 1.81-.398 2.8-.566l1.8-.304-1.6-.021c-.88-.012-2.14.243-2.8.566m14-.241c.88.171 2.05.429 2.6.572.638.166.512.036-.346-.361-.74-.342-1.91-.599-2.6-.572-1.169.047-1.146.071.346.361m16.831-.04c-1.968.163-2.821.402-2.95.829-.146.484-.079.504.349.1.297-.28 1.539-.5 2.826-.5 1.263 0 2.408-.18 2.544-.4.136-.22.192-.368.124-.329-.068.038-1.37.173-2.893.3m12.888.109c.155.155 1.631.335 3.279.4 2.967.119 2.999.132 3.268 1.32.265 1.167.27 1.162.203-.2l-.069-1.4-3.482-.2c-1.915-.11-3.355-.074-3.199.08m22.881.179c-1.292.519-1.307.544-.2.323.66-.132 2.01-.383 3-.557l1.8-.318-1.6-.006c-.88-.003-2.23.248-3 .558m14.2-.248c.88.171 2.05.429 2.6.572.638.166.512.036-.346-.361-.74-.342-1.91-.599-2.6-.572-1.169.047-1.146.071.346.361m54.2.189c-1.306.747-.849.755.854.016.74-.322 1.076-.585.746-.586-.33-.001-1.05.256-1.6.57m35.6.042c-.647.397-.718.513-.2.328.44-.157 1.52-.417 2.4-.578l1.6-.292-1.4-.036c-.77-.02-1.85.24-2.4.578m9.7-.366c.385.1 1.015.1 1.4 0 .385-.101.07-.183-.7-.183s-1.085.082-.7.183m31.3.376c-1.265.618-1.04.591 2-.241 1.093-.3 1.111-.33.2-.338-.55-.004-1.54.256-2.2.579m-113.9.173c-.74.439-1.13 35.262-.4 35.713.165.102.251-7.72.192-17.383l-.108-17.569.908-.332c1.064-.39 7.25-.261 7.939.165.297.184.404.086.288-.263-.229-.691-7.738-.972-8.819-.331m143.345.121c-.326.393-.423 5.519-.345 18.3l.109 17.754.095-17.9c.053-9.845.231-17.904.396-17.908.165-.005 1.65-.085 3.3-.178 4.731-.269 4.8-.226 4.8 3.006 0 3.2.411 3.684 1.604 1.885.741-1.118.751-1.176.067-.405-1.161 1.307-1.271 1.167-1.271-1.62 0-1.427-.208-2.728-.48-3-.705-.705-7.681-.649-8.275.066m-222.845.404c0 .094.641.549 1.424 1.011.783.462 1.312.659 1.175.437-.268-.434-2.599-1.732-2.599-1.448m67.4.524c.66.353 1.325.836 1.478 1.073.153.236.399.31.545.163.285-.285-2.15-1.917-2.823-1.892-.22.007.14.303.8.656m24.8.336l-1.2 1.006 1.5-.848c.825-.466 1.5-.919 1.5-1.008 0-.403-.699-.073-1.8.85m15.49-.108c.599.494 1.544 1.438 2.099 2.098.556.66 1.01 1.061 1.011.891 0-.506-3.264-3.891-3.751-3.889-.247.001.041.406.641.9m6.51.133l-1.2 1.031 1.3-.86c.715-.473 1.3-.938 1.3-1.033 0-.3-.169-.195-1.4.862m16.814.381c.888.871 1.927 2.034 2.309 2.584l.695 1-.571-1.2c-.55-1.155-1.554-2.207-3.247-3.403-.44-.31-.074.148.814 1.019m17.764-.255c-1.944 1.269-3.343 2.504-4.578 4.042-.44.549.285-.013 1.612-1.247 1.326-1.234 2.991-2.544 3.7-2.91.708-.367 1.288-.752 1.288-.856 0-.318-.178-.232-2.022.971M282 187.36c0 .089.675.542 1.5 1.008l1.5.848-1.2-1.006c-1.101-.923-1.8-1.253-1.8-.85m90.414.614c-.476.889-.563 4.687-.114 4.964.165.102.235-.63.156-1.627-.105-1.318-.016-1.733.327-1.522.259.161.359.589.221.951-.202.529-.151.561.252.16.277-.275.783-.497 1.124-.494.5.005.515.073.077.35-.372.236-.405.429-.106.614.246.152.788-.307 1.241-1.05.965-1.583.984-1.767.208-2.065-.436-.167-.6.047-.6.784 0 .87-.156.996-1.1.888-1.356-.156-1.858-2.127-.623-2.447.641-.166.646-.192.037-.234-.377-.025-.872.302-1.1.728m-47.814.299c1.558 1.57 4.254 3.742 3.2 2.579-.66-.729-1.74-1.698-2.4-2.153-.66-.456-1.02-.647-.8-.426m44.761 2.045c.047 2.806.972 4.482 2.472 4.482.574 0 .907-.173.767-.4-.136-.22-.566-.4-.956-.4-1.041 0-1.853-1.849-1.784-4.062.034-1.066-.074-1.938-.238-1.938-.165 0-.282 1.043-.261 2.318m-66.529-.018c-2.221 2.085-4.85 6.18-4.8 7.476.021.55.097.625.228.224.787-2.4 2.658-5.346 4.634-7.3 2.809-2.777 2.766-3.055-.062-.4m-210.876-1.1c-.354.207-1.135 1.057-1.736 1.888l-1.092 1.512 1.167-1.229c.641-.676 1.598-1.531 2.125-1.9 1.006-.705.643-.917-.464-.271m65.565 1.1c-.567.605-1.323 1.73-1.681 2.5-.358.77-.424 1.059-.146.642.278-.417 1.09-1.542 1.803-2.5 1.491-2.002 1.499-2.219.024-.642m47.922-.26c-.417.405-.912.641-1.1.524-.189-.116-.343-.021-.343.212 0 .233.188.424.417.424.494 0 2.201-1.523 1.954-1.744-.094-.084-.512.179-.928.584m79.757-.762c0 .097.654.884 1.453 1.749 1.171 1.267 1.291 1.333.619.337-.794-1.175-2.072-2.462-2.072-2.086m-165.537 1.739c.46.779.923 1.33 1.03 1.223.19-.19-1.394-2.64-1.707-2.64-.087 0 .217.638.677 1.417m28.046.183c0 .99.078 1.395.173.9.096-.495.096-1.305 0-1.8-.095-.495-.173-.09-.173.9m-77.608 1.4c.004.88.086 1.193.182.695.096-.497.092-1.217-.008-1.6-.1-.382-.179.025-.174.905m10.779-.2c0 .55.144 1.45.32 2l.32 1v-1c0-.55-.144-1.45-.32-2l-.32-1v1m20.096-.17c-.427.346-.522.497-.211.336.311-.162 1.121-.427 1.8-.589 1.135-.271 1.153-.298.211-.336-.562-.023-1.372.242-1.8.589m6.811-.335c.653.096 1.733.536 2.4.977l1.213.801-1.122-1.036c-.771-.712-1.523-1.018-2.4-.977l-1.278.06 1.187.175m58.995.618c-.927.73-1.984 2.384-1.966 3.076.008.336.257.057.552-.621.295-.677 1.053-1.616 1.684-2.087.631-.471.968-.856.748-.856-.22 0-.678.22-1.018.488m106.323.17c.497.096 1.217.092 1.6-.008.382-.1-.025-.179-.905-.174-.88.004-1.193.086-.695.182m40.995-.007c.385.1 1.015.1 1.4 0 .385-.101.07-.183-.7-.183s-1.085.082-.7.183m-214.842.655c-.541.65-1.742 3.469-1.479 3.469.104 0 .621-.9 1.147-2 1.003-2.095 1.059-2.346.332-1.469m41.704.023c-.117.305-.143 1.34-.057 2.3l.155 1.746.07-2.071c.054-1.599.23-2.112.77-2.253.656-.172.655-.186-.013-.23-.391-.025-.808.203-.925.508m36.251-.334c-.007.231.156.591.363.8.207.209.444 1.28.528 2.38l.152 2 .072-2.024c.045-1.26-.149-2.316-.515-2.8-.323-.427-.593-.587-.6-.356m54.587.376c-.66.291-1.649 1.042-2.199 1.667l-.998 1.137 1.198-1.052c2.092-1.835 4.704-2.301 7.599-1.354.553.18.491.072-.2-.352-1.214-.745-3.77-.767-5.4-.046m36.972.388c-1.459.957-3.009 2.912-2.619 3.302.119.12.441-.273.714-.873.274-.602 1.401-1.609 2.515-2.248 1.11-.637 1.748-1.149 1.418-1.138-.33.011-1.243.442-2.028.957m9.493.164c.872.632 1.885 1.757 2.251 2.5.406.825.669 1.075.675.641.01-.783-3.292-4.289-4.04-4.289-.259 0 .242.517 1.114 1.148m31.881-.381c-1.411.861-3.347 3.218-3.344 4.071.002.309.284.022.628-.637.941-1.804 1.804-2.638 3.57-3.449.88-.404 1.33-.738 1-.742-.33-.004-1.164.337-1.854.757m8.614-.079c.748.369 1.716 1.272 2.15 2.008.434.736.876 1.251.983 1.144.591-.59-2.797-3.852-3.979-3.831-.283.005.098.311.846.679m-230.314.951c-.245.704-.433 1.479-.418 1.721.016.242.286-.264.602-1.125.315-.861.503-1.635.418-1.72-.086-.086-.356.42-.602 1.124m120.954-.843c-.498.212.031.255 1.4.116 1.21-.123 2.275-.289 2.367-.368.344-.297-3-.074-3.767.252M120.904 205.6c-.026 6.71.075 12.51.224 12.888.253.639.205-17.96-.059-22.888-.065-1.21-.139 3.29-.165 10m66.874.4c0 6.93.055 9.765.121 6.3.067-3.465.067-9.135 0-12.6-.066-3.465-.121-.63-.121 6.3m26.871-11.825c.686.299 1.541.962 1.9 1.473.358.512.651.726.651.477 0-.653-2.339-2.528-3.131-2.509-.368.008-.107.26.58.559m43.783.164c-.653 1.221-.518 1.561.209.524.352-.503.547-1.009.432-1.123-.114-.115-.403.155-.641.599m-146.978 1.34c.228 1.72.146 1.983-.972 3.1-1.219 1.22-1.247 1.629-.047.708 1.43-1.098 2.035-3.747 1.162-5.087-.269-.412-.314-.01-.143 1.279m94.777-.007c-.787.92-1.43 1.865-1.428 2.1.001.235.356-.112.788-.772.432-.66 1.285-1.604 1.897-2.098.612-.494.901-.899.643-.9-.258-.001-1.113.75-1.9 1.67m32.641-1.064c1.588 1.875 1.72 2.909 1.941 15.192l.215 12 .086-11.667c.092-12.523-.132-14.153-2.159-15.732-.722-.561-.725-.552-.083.207M70.6 198.397c0 2.182.122 3.661.272 3.286.149-.376.272-1.853.272-3.283s-.123-2.908-.272-3.286c-.15-.377-.272 1.101-.272 3.283m179.724 9.764l.123 13.737-.923.166c-.508.092-2.571.16-4.585.151-2.014-.008-3.578.12-3.476.285.281.457 7.681.358 8.563-.114.794-.425 1.201-25.363.446-27.274-.15-.378-.216 5.494-.148 13.049M356.3 194.682c.495.096 1.305.096 1.8 0 .495-.095.09-.173-.9-.173s-1.395.078-.9.173m-4.367 1.127c-.807.528-1.607 1.193-1.777 1.476-.242.403-.184.413.269.048.318-.257 1.387-.93 2.377-1.495.989-.566 1.528-1.02 1.198-1.01-.33.011-1.26.452-2.067.981m-220.64.991c0 .77.082 1.085.183.7.1-.385.1-1.015 0-1.4-.101-.385-.183-.07-.183.7m199.523-.324c-.009.372.164.788.384.924s.425.732.454 1.324c.046.908.082.939.225.199.094-.482-.103-1.382-.438-2-.407-.751-.614-.899-.625-.447M81.693 197.6c0 .77.082 1.085.183.7.1-.385.1-1.015 0-1.4-.101-.385-.183-.07-.183.7M217.5 209.137c.113 13.371.144 13.674 1.408 13.638l.892-.026-.9-.361-.9-.362-.006-11.913c-.003-6.552-.138-12.121-.3-12.376-.162-.254-.249 4.876-.194 11.4M256.849 198c-.033.33-.16 1.05-.282 1.6-.192.864-.16.903.232.288.249-.391.376-1.111.282-1.6-.095-.488-.199-.618-.232-.288m24.43.6c.055.44-.04 1.025-.213 1.3-.179.286-.127.5.123.5.678 0 .926-1.073.433-1.876-.417-.679-.438-.674-.343.076m-76.961.3c-.236.287-.476 23.819-.24 23.581.248-.251.666-23.682.422-23.681-.055 0-.137.045-.182.1m93.155.453c-.15.392-.262 1.013-.248 1.38.017.442.156.341.412-.299.212-.531.324-1.152.248-1.38-.076-.227-.261-.093-.412.299m24.927-.019c0 .913-.885 1.06-6.933 1.153l-5.667.087 5.2.132c6.656.169 9.735-.51 7.783-1.717-.211-.13-.383.025-.383.345M131.278 207.8c-.036 4.84.066 9.008.228 9.263.162.255.246-2.895.186-7-.161-11.181-.34-12.157-.414-2.263m159.59-7.8c-.006.55.143 1.36.332 1.8l.344.8-.012-.8c-.006-.44-.156-1.25-.332-1.8l-.32-1-.012 1m15.532-.443c0 .595 1.521 1.325 2.321 1.115.502-.133.452-.191-.192-.226-.48-.025-1.155-.329-1.5-.675-.346-.345-.629-.442-.629-.214M140.895 206.4c-.071 7.254.265 8.8 1.913 8.8.265 0 .056-.344-.464-.764-.912-.737-.951-1.008-1.162-7.9l-.218-7.136-.069 7m-33.789-6.172c-.125.125-1.1.374-2.167.553-1.369.229-1.586.337-.739.366.66.022 2.01-.214 3-.526.99-.312 1.425-.58.967-.594-.459-.015-.936.075-1.061.201m225.041 2.572l.053 3-12.4.102c-13.203.11-13.466.15-13.368 2.074.017.343.206.148.419-.434l.388-1.058 12.443-.057c6.843-.031 12.595-.151 12.78-.266.414-.255.375-3.987-.055-5.361-.205-.654-.295.038-.26 2m16.053-2c-.15.473-.183.95-.073 1.06.11.11.323-.187.473-.66.15-.473.183-.95.073-1.06-.11-.11-.323.187-.473.66M81 202c-.154.91-.189 1.744-.079 1.854.11.11.325-.544.479-1.454.154-.91.189-1.744.079-1.854-.11-.11-.325.544-.479 1.454m90-1.2l-1.6.286 1.6.051c.88.028 1.87-.124 2.2-.337.715-.462.381-.462-2.2 0m56.196 10.382L227 222.164l-1 .278-1 .278 1.113.04c1.54.055 1.513.282 1.39-11.766l-.11-10.794-.197 10.982m44.522-10.484c1.715.075 4.415.074 6-.001 1.585-.076.182-.138-3.118-.137-3.3.001-4.597.062-2.882.138m-15.576 3.502c-.001 1.98.066 2.84.15 1.912.084-.928.085-2.548.003-3.6-.083-1.052-.152-.292-.153 1.688M98.8 201.6c-.804.257-.843.323-.2.332.44.006 1.16-.143 1.6-.332 1.019-.438-.032-.438-1.4 0m66.6 0l-.8.344h.8c.44 0 1.16-.155 1.6-.344l.8-.344h-.8c-.44 0-1.16.155-1.6.344m-4.6 1.033c-1.535.628-.889.572 2.4-.209 1.38-.327 1.383-.332.2-.348-.66-.008-1.83.243-2.6.557m186.974 9.767c0 5.61.056 7.905.125 5.1.069-2.805.069-7.395 0-10.2-.069-2.805-.125-.51-.125 5.1M70.093 204c0 .77.082 1.085.183.7.1-.385.1-1.015 0-1.4-.101-.385-.183-.07-.183.7m86.658.842c-1.284 1.204-1.368 1.338-.313.5.791-.628 1.781-1.356 2.2-1.618.419-.263.56-.488.313-.5-.246-.013-1.236.715-2.2 1.618m-47.684.225c-.165.165-1.148.429-2.184.587l-1.883.287 1.8-.135c.99-.074 2.316-.266 2.947-.426l1.146-.291-.183 2.955c-.1 1.626-.312 3.316-.472 3.756-.159.44.001.3.355-.31 1.5-2.587.182-8.132-1.526-6.423m66.791.04c-.12.194.178.339.662.323.831-.028.879.131.854 2.889-.017 1.836.101 2.69.319 2.301 1.194-2.134-.598-7.516-1.835-5.513m102.976.793c-13.577.125-13.266.058-13.171 2.849l.063 1.851.237-2 .237-2 12.364-.084c7.916-.054 12.513-.233 12.78-.5.229-.229.245-.374.036-.322-.209.052-5.855.144-12.546.206m-190.838 1.4c-.436.715-.794 1.465-.795 1.667-.001.456.055.381 1.113-1.467 1.052-1.837.783-2.006-.318-.2m14.204-.881c-.558.252-.315.288.8.119.88-.134 1.675-.31 1.767-.391.343-.303-1.799-.076-2.567.272m66.8-.019l-.8.344.8-.012c.44-.006 1.25-.156 1.8-.332l1-.32-1-.012c-.55-.006-1.36.143-1.8.332m-70.5 1.07c-.495.345-.897.831-.894 1.079.005.326.087.329.3.009.162-.243.834-.731 1.494-1.084.66-.353.93-.64.6-.637-.33.003-1.005.287-1.5.633m55.932.069c-.237.445-.431 1.045-.43 1.335.002.289.275.004.608-.634.332-.637.526-1.238.43-1.334-.097-.096-.37.189-.608.633m10.474.362c-1.497 1.399-2.346 3.781-1.705 4.786.394.618.425.58.238-.285-.32-1.482 1.121-4.137 2.662-4.904.739-.368 1.016-.658.641-.672-.361-.014-1.188.469-1.836 1.075m132.34-.301c-.019.55.141 1.27.354 1.6.494.764.494-.058 0-1.6l-.32-1-.034 1M68.8 207.491c0 .234-.811 1.283-1.801 2.332-1.858 1.967-2.21 2.61-.789 1.443 1.226-1.008 3.136-3.654 2.846-3.944-.141-.14-.256-.064-.256.169m10.846 1.185c-.025.482-.226.988-.446 1.124-.22.136-.4.457-.4.713 0 .256.283.062.628-.431.345-.493.546-1.209.446-1.589-.137-.526-.192-.482-.228.183m176.81-.076c0 .44.155 1.16.344 1.6l.344.8v-.8c0-.44-.155-1.16-.344-1.6l-.344-.8v.8m-102.728 3.8c0 1.43.073 2.015.161 1.3.089-.715.089-1.885 0-2.6-.088-.715-.161-.13-.161 1.3m-66.808 0c0 1.21.075 1.705.167 1.1.091-.605.091-1.595 0-2.2-.092-.605-.167-.11-.167 1.1m9.336-1.4c-.127.329-.068 1.004.131 1.5.315.781.366.702.388-.6.027-1.591-.142-1.883-.519-.9m185.186 1.593c-.358.546-1.324 1.348-2.146 1.782-.823.434-1.243.798-.934.807.737.023 3.112-1.799 3.647-2.798.597-1.115.206-.972-.567.209m26.17-.724c-.014.527 3.118 3.331 3.72 3.331.213 0-.345-.531-1.241-1.18-.896-.649-1.817-1.504-2.048-1.9-.23-.396-.424-.509-.431-.251m-244.412.764c-.558.31-.735.552-.4.548.33-.003.949-.271 1.376-.594.963-.728.369-.7-.976.046m258.596.571c-.63.658-1.048 1.196-.929 1.196.37 0 2.432-2.034 2.248-2.218-.095-.096-.689.364-1.319 1.022m-272.778.1c.243.631 9.739.982 11.27.416.551-.204-1.336-.375-4.983-.452-3.229-.068-6.011-.21-6.183-.316-.172-.107-.219.052-.104.352m59.801.801l-.924 1.295 1.131-1.088c.623-.598 1.038-1.181.924-1.295-.114-.114-.623.376-1.131 1.088m180.106.727c-.475.868-.696 1.474-.491 1.347.443-.274 1.684-2.595 1.49-2.788-.074-.075-.524.574-.999 1.441M96.8 213.91c0 .714 2.414 2.492 3.331 2.454.646-.027.542-.131-.406-.405-.701-.203-1.646-.841-2.1-1.418-.454-.577-.825-.861-.825-.631m66.8 0c0 .714 2.414 2.492 3.331 2.454.646-.027.542-.131-.406-.405-.701-.203-1.646-.841-2.1-1.418-.454-.577-.825-.861-.825-.631m135.61-.105c.057 2.274 8.223 8.809 10.077 8.064.33-.132.271-.217-.167-.237-2.012-.094-6.769-3.548-8.575-6.227-.74-1.097-1.341-1.817-1.335-1.6m30.453 1.578c-.46.779-.764 1.417-.677 1.417.313 0 1.897-2.45 1.707-2.64-.107-.107-.57.444-1.03 1.223m-253.915.441c-.369.563-1.813 1.839-3.21 2.835-1.396.996-2.538 1.902-2.538 2.013 0 .465 5.032-3.447 5.927-4.608.537-.695.867-1.264.733-1.264-.133 0-.543.461-.912 1.024m78.288.016c-.038.887 1.707 3.547 2.991 4.56.418.33.084-.203-.743-1.184-.828-.981-1.664-2.331-1.858-3-.26-.893-.363-.993-.39-.376m19.851-.394c-.136.136-.841.387-1.567.559-1.148.272-1.187.318-.296.354.562.023 1.372-.223 1.8-.546.427-.323.671-.593.543-.6-.129-.007-.345.098-.48.233m97.976.254c.237.386 4.591.381 5.199-.006.254-.162-.853-.294-2.461-.294-1.608 0-2.84.135-2.738.3m41.075-.006c.571.363 4.215.348 5.147-.022.377-.15-.731-.272-2.462-.272-1.731 0-2.939.132-2.685.294m-52.889 1.087c.48.649 1.16 1.29 1.512 1.424.351.134.019-.397-.739-1.18-1.678-1.734-1.934-1.815-.773-.244m-158.144-.098c.497.096 1.217.092 1.6-.008.382-.1-.025-.179-.905-.174-.88.004-1.193.086-.695.182m66.995-.007c.385.1 1.015.1 1.4 0 .385-.101.07-.183-.7-.183s-1.085.082-.7.183m-21.223 2.791c-.05 1.856-.253 2.937-.577 3.068-.392.158-.389.209.013.233.764.048.944-.777.785-3.61l-.144-2.558-.077 2.867m179.466-.958c-.802.71-1.792 1.505-2.2 1.767-.409.263-.535.488-.282.5.254.013 1.334-.779 2.4-1.76 2.217-2.04 2.285-2.458.082-.507M132 218.369c0 .777 3.089 3.633 3.917 3.622.391-.005.116-.289-.646-.664-.731-.36-1.766-1.298-2.3-2.084-.534-.786-.971-1.179-.971-.874m152.984 1.142c-1.346 1.206-1.003 1.1.77-.239.635-.48.995-.867.8-.861-.195.006-.901.501-1.57 1.1m-175.083.026c-.605.364-1.1.795-1.1.957-.001.162.571-.054 1.271-.479.699-.426 1.419-.682 1.6-.571.18.112.328.013.328-.22 0-.59-.802-.47-2.099.313m66.848-.037c-.505.643-.489.653.194.115.785-.617 1.857.213 1.857 1.438 0 .275.168.604.374.731.232.143.235-.256.008-1.048-.549-1.913-1.516-2.405-2.433-1.236m85.852-.298c.268.434 2.599 1.732 2.599 1.448 0-.094-.641-.549-1.424-1.011-.783-.462-1.312-.659-1.175-.437m-173.023.537c.783.99 6.217 3.4 6.662 2.955.117-.118-.473-.428-1.313-.689-1.854-.575-3.589-1.389-4.927-2.308-.961-.661-.977-.659-.422.042m98.45.137c-.015.482.152.988.372 1.124.473.292.473-.099 0-1.2-.331-.771-.345-.769-.372.076m-75.894.924l.066 1 4.8.018 4.8.019-4.674-.131c-4.454-.124-4.683-.172-4.865-1.018-.165-.762-.183-.746-.127.112m-43.934.4c-.136.22-.642.408-1.124.418-.482.01-1.416.282-2.076.604-1.284.628-1.122.611 2.149-.218 1.388-.352 2.63-1.204 1.755-1.204-.251 0-.568.18-.704.4m38.8 0c-.136.22-.642.421-1.124.446-.665.036-.709.091-.183.228.38.1 1.096-.101 1.589-.446.493-.345.687-.628.431-.628-.256 0-.577.18-.713.4m65.8.225c-.891.337-1.109.533-.6.538.44.005 1.25-.249 1.8-.563 1.222-.699.683-.687-1.2.025m93.6-.025c.55.314 1.27.571 1.6.57.33-.001-.006-.264-.746-.586-1.703-.739-2.16-.731-.854.016m-83.895.487c.609.092 1.509.09 2-.005.492-.095-.005-.171-1.105-.168-1.1.003-1.503.081-.895.173m-79.905.513l-.8.344h.8c.44 0 1.16-.155 1.6-.344l.8-.344h-.8c-.44 0-1.16.155-1.6.344m34.8 0c.44.189 1.16.344 1.6.344h.8l-.8-.344c-.44-.189-1.16-.344-1.6-.344h-.8l.8.344m31.8 0c-.804.257-.843.323-.2.332.44.006 1.16-.143 1.6-.332 1.019-.438-.032-.438-1.4 0m100.2 0c1.196.514 2.195.514 1.4 0-.33-.213-.96-.378-1.4-.366l-.8.022.8.344m8 0l-.8.344h.8c.44 0 1.16-.155 1.6-.344l.8-.344h-.8c-.44 0-1.16.155-1.6.344m33.2 0c.44.189 1.07.344 1.4.344.378 0 .304-.127-.2-.344-.44-.189-1.07-.344-1.4-.344-.378 0-.304.127.2.344m8 0c-1.089.277-1.107.307-.2.325.55.01 1.36-.136 1.8-.325.986-.424.066-.424-1.6 0m-96.695.283c.497.096 1.217.092 1.6-.008.382-.1-.025-.179-.905-.174-.88.004-1.193.086-.695.182"/><path fill="#9d9fa2" d="M37.784 173.3c-.49 1.28.022 49.635.526 49.737.28.057.326.012.1-.1-.65-.323-.561-49.609.09-49.872.392-.158.389-.209-.013-.233-.281-.018-.598.193-.703.468m25.416-.111c1.21.149 3.003.565 3.984.923.982.359 1.863.575 1.958.48.095-.095-.078-.261-.385-.368-3.254-1.14-4.415-1.405-5.957-1.359l-1.8.053 2.2.271m7.024 2.198c1.015.769 1.61.776.976.013-.274-.33-.78-.6-1.125-.6-.503 0-.473.117.149.587m61.038-.062c-.248.299-.485 2.671-.549 5.5l-.113 4.975-2.8.2-2.8.2-.116 3.5c-.063 1.925.027 3.5.2 3.501.174 0 .258-1.53.187-3.4l-.13-3.401h2.787c3.392 0 3.272.221 3.272-6.033V175.6h9.6l.006 4.9c.008 6.03-.116 5.836 3.806 5.982l3.188.118.119 2.991c.099 2.471-.001 3.08-.576 3.5-.728.532-.275.714.506.203.653-.427.995-5.886.417-6.653-.338-.447-1.349-.648-3.666-.729l-3.2-.112-.113-4.975c-.142-6.244.051-6.025-5.287-6.025-3.065 0-4.427.151-4.738.525m-59.262.98c0 .198.471.612 1.046.919 1.396.748 4.397 4.124 5.235 5.891.371.781.746 1.204.834.939.18-.539-1.317-2.687-3.476-4.988-1.682-1.792-3.639-3.277-3.639-2.761M49.462 182.3c-.102.165 1.552.301 3.676.301 2.124.001 5.032.13 6.462.287l2.6.285-2.8-.562c-2.994-.601-9.631-.809-9.938-.311m-.47 15.7L49 213l6.6.016 6.6.016-6.495-.126-6.495-.126-.113-14.89-.112-14.89.007 15m16.717-12.434c2.103 1.947 3.743 5.066 4.015 7.634.14 1.327.151 1.313.212-.276.035-.922-.093-1.774-.284-1.892-.192-.118-.452-.734-.579-1.368-.224-1.12-3.998-5.664-4.704-5.664-.193 0 .41.705 1.34 1.566m14.164.834c.348.99.77 2.34.938 3l.307 1.2.041-1.276c.023-.702-.139-1.388-.359-1.524-.22-.136-.4-.562-.4-.947 0-.385-.261-1.049-.579-1.477-.472-.631-.462-.441.052 1.024m23.253-1.393c-.113.114-1.262.339-2.553.5-1.589.198.03.293 5.016.293 7.174 0 7.281-.012 4.187-.47-3.454-.511-6.322-.65-6.65-.323m64.874.243c-3.181.568-5.312 1.171-5.052 1.432.125.124.817-.024 1.539-.328.949-.4 3.243-.554 8.272-.554 6.787 0 7.079-.338.641-.741-1.76-.111-4.19-.024-5.4.191m44.477.22c-2.503.669-5.384 2.206-5.591 2.982-.1.371-.04.403.184.1 3.105-4.205 15.367-3.576 18.289.939.993 1.534 1.3 1.594 2.294.448 1.05-1.211.93-1.45-.196-.392l-.943.886-.725-1.117c-2.214-3.409-8.336-5.178-13.312-3.846m21.975-.058c-1.181.288-2.351.74-2.6 1.005-.343.365-.224.363.499-.009 2.043-1.054 8.906-.938 11.849.2.576.223.686.185.394-.135-1.14-1.249-6.897-1.852-10.142-1.061m36.249-.064c-1.719.409-1.396.452 3.4.453 3.734 0 5.594.162 6.299.549.597.327.821.358.557.076-1.162-1.237-7.009-1.852-10.256-1.078m40.721.097c-1.529.304-2.969.759-3.2 1.012-.313.342-.215.376.378.134 7.957-3.248 18.124.48 21.828 8.005.709 1.441 1.367 2.543 1.461 2.448.094-.094-.337-1.22-.959-2.502-3.458-7.131-11.208-10.745-19.508-9.097M357 185.2c-.136.22-.642.406-1.124.414-1.759.027-5.108 2.132-6.676 4.196-.33.434.157.123 1.082-.693 3.184-2.806 8.684-4.473 10.309-3.124.431.358.609.371.609.046 0-.954-3.675-1.688-4.2-.839m14.8.352c-3.72 1.708-4.642 7.809-1.4 9.256.33.147 1.003.476 1.495.73 1.944 1.005 4.917.129 6.405-1.886 3.146-4.263-1.701-10.303-6.5-8.1m-275.4.848c-.533.345-.533.388 0 .388.33 0 .87-.175 1.2-.388.533-.345.533-.388 0-.388-.33 0-.87.175-1.2.388m16.8-.278c0 .119.675.436 1.5.705 2.298.749 4.816 2.65 5.683 4.293.506.958.788 1.221.799.745.023-.923-3.987-4.882-5.245-5.179-.515-.122-1.342-.347-1.837-.5-.495-.154-.9-.182-.9-.064m81.067.145c-.147.146-.267 8.516-.267 18.6V223.2l1.1-.054c.943-.047.972-.08.2-.228l-.9-.174v-17.929c0-15.98.069-17.956.633-18.172 1.251-.481 8.45-.266 8.891.265.231.279.478 1.286.548 2.237l.128 1.728.994-1.136c.547-.625.736-.912.42-.637-.869.757-1.214.607-1.214-.526 0-2.392-.392-2.574-5.547-2.574-2.596 0-4.84.12-4.986.267m143.53.633c-.121.495-.169 8.82-.108 18.5l.111 17.6 1.2.058c1.148.055 1.152.05.096-.127l-1.104-.185.104-18.073.104-18.073 4.167-.115c4.86-.134 4.818-.164 4.827 3.485.006 2.511.023 2.552.746 1.8.562-.585.61-.801.2-.899-.351-.084-.54-.739-.54-1.868 0-3.04.062-3.003-5.035-3.003-4.387 0-4.558.032-4.768.9m34.603-.3c.274.33.971.614 1.549.632l1.051.031-1.122.409c-1.482.541-1.394 2.128.118 2.128.786 0 1.039-.245 1.2-1.163.184-1.047.258-1.097.753-.5.443.535.455.887.063 1.833-.266.644-.366 1.544-.221 2.001.293.924-.378 1.16-.726.255-.121-.315-.629-.793-1.129-1.06-.842-.451-.829-.393.178.804 1.154 1.372 1.309 1.845.722 2.208-.66.407-1.635-.248-1.668-1.121-.017-.471-.122-.632-.233-.357-.616 1.526-1.023.238-.853-2.7.127-2.193.046-3.2-.259-3.2-.731 0-1.826 1.544-1.777 2.505.043.817.064.825.248.095.707-2.803 1.306-2.344 1.306 1s-.599 3.803-1.306 1c-.184-.73-.205-.722-.248.095-.057 1.105 1.085 2.505 2.043 2.505.391 0 .711.18.711.4 0 .794-1.882.377-2.824-.625-1.475-1.571-1.365-4.917.217-6.568 1.322-1.379 1.521-1.434 2.207-.607m2.6-.2c.141.228-.204.4-.8.4-.596 0-.941-.172-.8-.4.136-.22.496-.4.8-.4.304 0 .664.18.8.4m-281.562 1.4c-.81.55-1.62 1-1.8 1-.179 0-.666.47-1.082 1.044-.416.575-.936 1.25-1.156 1.5-1.409 1.605-2.147 5.453-1.09 5.684.281.062.325.021.1-.091-2.051-1.018 2.036-7.269 6.19-9.469.66-.35 1-.643.756-.652-.244-.009-1.107.434-1.918.984m66.39.075c-2.599 1.7-5.035 4.593-5.019 5.963.005.456.303.12.743-.838.921-2.009 2.485-3.572 5.048-5.044 1.1-.632 1.73-1.14 1.4-1.129-.33.011-1.307.483-2.172 1.048m23.293-.373c.72.386 1.932 1.311 2.694 2.056.762.745 1.385 1.225 1.385 1.067 0-.8-3.782-3.825-4.783-3.825-.332 0-.016.316.704.702m46.579-.032c-.495.345-.9.793-.9.995 0 .201.225.173.5-.063s.86-.687 1.3-1.003c.44-.315.62-.57.4-.565-.22.004-.805.29-1.3.636m16.934.613c3.911 3.435 4.242 5.175 4.088 21.517l-.122 13-4.568.114c-5.712.142-5.219 1.255-5.226-11.783-.008-14.834-.513-16.553-5.065-17.273-4.294-.679-7.847 2.202-7.677 6.226l.064 1.516.155-1.4c.445-4.029 2.375-5.8 6.317-5.8 5.416 0 5.8 1.172 5.8 17.725v10.86l.9.224c.495.123 2.88.171 5.3.107L251 223l.105-13.931c.123-16.322-.194-18.071-3.821-21.061-1.959-1.614-2.504-1.552-.65.075m16.566.385c-1.21.915-2.692 2.219-3.294 2.898-1.98 2.235-1.153 1.786 1.497-.813 1.432-1.404 2.827-2.559 3.1-2.566.746-.019 2.198-1.187 1.473-1.185-.317.001-1.566.75-2.776 1.666m20.653-.292c2.823 1.901 4.702 4.228 6.118 7.577.662 1.566 1.209 2.554 1.216 2.196.052-2.642-4.592-8.995-7.713-10.552-1.938-.967-1.804-.692.379.779m20.747-.012c-2.959 1.957-7.215 7.354-6.424 8.145.117.118.498-.468.846-1.301.849-2.031 4.314-5.636 6.778-7.051 1.1-.632 1.73-1.142 1.4-1.133-.33.009-1.5.612-2.6 1.34m70.129.769c.088.45-.14.667-.7.667-.456 0-.829-.24-.829-.533 0-1.225 1.296-1.339 1.529-.134M378 190.4c0 1.882-.131 2.4-.609 2.4-1.05 0-1.635-1.867-.854-2.73.364-.403.663-1.034.663-1.401 0-.368.18-.669.4-.669.222 0 .4 1.067.4 2.4m-296.55 2.4c.325 2.241.552 2.56.544.767-.003-.752-.186-1.637-.406-1.967-.279-.419-.321-.058-.138 1.2m18.841.429c-.82.676-1.491 1.517-1.491 1.869 0 .351-.315.994-.7 1.429-.551.621-.572.75-.1.601.33-.103.803-.802 1.051-1.553.547-1.657 1.98-2.793 4.023-3.188l1.526-.295-1.409-.046c-1.026-.034-1.814.288-2.9 1.183m6.282-.932c6.647.515 5.885 6.55-.973 7.713-1.65.28-2.757.593-2.461.696 2.012.697 7.416-1.428 8.017-3.152 1.09-3.127-1.007-5.616-4.618-5.482l-1.938.072 1.973.153m60.854.482c-1.129.744-2.185 2.187-2.211 3.021-.007.22.321-.148.729-.817.942-1.545 2.363-2.478 4.095-2.689l1.36-.166-1.4-.061c-.804-.036-1.899.267-2.573.712m6.623-.422c4.722.792 4.989 6.481.345 7.348l-.995.186.962.055c.529.029 1.564-.405 2.3-.966 2.94-2.243 1.133-7.067-2.593-6.923l-1.469.057 1.45.243m98.657.733c.719.089 1.799.087 2.4-.004s.013-.164-1.307-.162c-1.32.002-1.812.077-1.093.166m40.993-.003c.605.091 1.595.091 2.2 0 .605-.092.11-.167-1.1-.167-1.21 0-1.705.075-1.1.167M130.711 205.23c.13 13.887.229 14.312 3.856 16.554 1.828 1.13 2.253 1.22 6 1.27l4.033.055-3.8-.256c-5.223-.352-7.342-1.469-9.1-4.798-.367-.695-.5-4.064-.5-12.677 0-6.452-.135-11.814-.3-11.917-.165-.102-.25 5.194-.189 11.769m10.489-2.41c0 9.784.307 11.98 1.672 11.98.249 0 .109-.379-.31-.841-.981-1.083-1.424-19.82-.483-20.417.389-.246.344-.331-.179-.336-.647-.006-.7.716-.7 9.614m47.027 3.58c.037 7.15.202 13.585.366 14.3l.298 1.3h-4.856c-4.692 0-4.866-.031-5.203-.916-.384-1.01-1.632-2.219-1.632-1.581 0 .873-5.799 3.134-8.8 3.431-1.198.118-1.14.147.406.202 1.946.069 5.127-.935 7.387-2.331l1.407-.87.677 1.18c.674 1.175.702 1.182 5.453 1.46 5.468.32 5.684.228 5.268-2.24-.161-.954-.415-7.405-.566-14.335l-.273-12.6.068 13m80.699-12.14c-2.426 1.573-4.071 5.792-2.226 5.708.418-.018.499-.112.2-.233-1.619-.653 1.447-5.735 3.46-5.735.216 0 .504-.18.64-.4.43-.695-.384-.436-2.074.66m8.408-.581c1.455 1.033 2.093 1.741 2.59 2.873.278.633.611 1.047.739.919.466-.466-1.327-2.861-2.677-3.578-.762-.404-1.056-.501-.652-.214m32.694.529c-1.451 1.025-3.092 3.261-2.689 3.664.131.132.405-.191.607-.717.435-1.126 1.781-2.408 3.454-3.29.66-.348.93-.631.6-.629-.33.002-1.218.439-1.972.972m7.572-.881c0 .107.614.556 1.365.999 1.981 1.169 3.674 5.052 2.352 5.395-.628.163-.633.192-.041.233 1.874.128.02-5.366-2.068-6.132-.335-.122-.833-.327-1.108-.456-.275-.128-.5-.145-.5-.039m-196.377 11.306c.013 6.142.156 11.887.318 12.767.162.88.231-4.065.154-10.989-.077-6.925-.22-12.67-.318-12.767-.097-.098-.167 4.848-.154 10.989m88.382-10.738c-1.467.274-3.133 1.595-3.83 3.037-.538 1.111-.539 1.174-.009.511.333-.416.657-.872.72-1.014.328-.739 2.818-2.034 4.547-2.364 1.246-.238 1.527-.372.767-.366-.66.006-1.648.094-2.195.196m48.527.205c-.652.892-1.471 2.694-1.299 2.859.092.088.553-.632 1.025-1.599.862-1.768.954-2.19.274-1.26m-44.332.185c.44.106 1.307.67 1.926 1.253.726.685 1.033.821.866.385-.336-.874-1.964-1.936-2.878-1.877-.598.039-.584.078.086.239M70.101 198.4c-.004 3.423.036 3.631.404 2.102.276-1.149.277-2.379.004-3.8-.392-2.038-.404-1.986-.408 1.698m286.206-3.31c.719.089 1.799.087 2.4-.004s.013-.164-1.307-.162c-1.32.002-1.812.077-1.093.166M82.134 198c0 1.65.071 2.325.157 1.5.087-.825.087-2.175 0-3-.086-.825-.157-.15-.157 1.5m270.267-1.9c-.724.495-1.782 1.53-2.351 2.3-.81 1.098-.631.989.831-.5 1.025-1.045 2.136-1.9 2.468-1.9.332 0 .715-.18.851-.4.418-.677-.416-.445-1.799.5M217.06 209.674c.034 7.288.221 12.967.433 13.179.205.205 2.608.322 5.34.26L227.8 223l.049-1.105c.045-1.036.037-1.042-.128-.088l-.176 1.017-4.873-.112-4.872-.112-.2-12.667c-.11-6.967-.29-12.757-.4-12.867-.11-.11-.173 5.564-.14 12.608m80.209-11.171c-.292.994-.454 2.322-.36 2.952.143.959.181.898.231-.381.033-.84.251-1.884.485-2.321.234-.437.369-1.079.3-1.426s-.364.183-.656 1.176m34.951.297c.313 1.919.698 7.58.522 7.686-.078.047-5.902.182-12.942.3L307 207l-.066 1c-.057.881-.042.893.128.1l.194-.9h12.492c9.183 0 12.619-.127 12.972-.48.674-.674.593-5.343-.13-7.52-.509-1.533-.564-1.593-.37-.4m-75.953-.533c-.147.146-.256.641-.242 1.1.024.766.057.756.409-.125.392-.979.31-1.453-.167-.975m24.533.505c0 .483-.337.837-.9.946-.772.148-.743.181.2.228.921.045 1.1-.109 1.1-.946 0-.55-.09-1-.2-1-.11 0-.2.347-.2.772m-76.096 1.028c-.162.88-.297 6.402-.3 12.271-.004 9.824-.06 10.685-.704 10.853-.52.136-.465.195.213.23 1.317.067 1.309.157 1.193-12.958-.059-6.699-.237-11.289-.402-10.396m86.542-.4c.069 1.631.669 2.987.708 1.6.019-.66-.141-1.47-.354-1.8-.319-.494-.382-.459-.354.2m-22.555.489c.71.088 1.97.09 2.8.003.83-.087.249-.159-1.291-.161-1.54-.002-2.219.069-1.509.158m-98.291.511c-.975.312-.97.321.2.332.66.006 1.56-.143 2-.332 1.094-.47-.733-.47-2.2 0m178.097 1.194c-.339 1.087-.497 4.697-.497 11.37 0 7.466-.118 9.817-.5 9.945-.288.097-.245.15.1.124.51-.037.637-1.578.843-10.238.133-5.607.378-10.78.545-11.495.422-1.814.108-1.626-.491.294m-92.751 2.606c.001 2.2.068 3.049.149 1.887.081-1.163.081-2.963-.002-4-.082-1.038-.148-.087-.147 2.113m-157.475-3.138c-.144.144-.939.409-1.767.587-1.376.297-1.351.306.296.107.99-.12 2.52-.361 3.4-.537l1.6-.319-1.633-.05c-.899-.027-1.752.068-1.896.212m66.329.108c-.44.175-1.651.444-2.691.598-1.04.153-2.014.478-2.165.723-.186.301-.028.348.49.145.421-.165 1.756-.484 2.966-.709 1.21-.225 2.92-.548 3.8-.718l1.6-.309-1.6-.025c-.88-.013-1.96.119-2.4.295m-83.147 1.371c-.167.847-.212 1.634-.098 1.747.303.303.742-1.703.559-2.556-.094-.442-.277-.121-.461.809m10.44.394c-2.953 1.725-5.508 4.993-4.963 6.35.141.352.217.313.238-.124.086-1.724 3.597-5.92 5.004-5.979.915-.039 2.864-1.117 2.028-1.122-.44-.002-1.478.391-2.307.875m-22.229.741c-.035.812-.244 1.588-.464 1.724-.22.136-.393.552-.384.924.011.452.217.305.624-.445.334-.617.536-1.697.448-2.4-.157-1.253-.161-1.249-.224.197M227.77 210.8c0 4.73.058 6.665.128 4.3.071-2.365.071-6.235 0-8.6-.07-2.365-.128-.43-.128 4.3m64.3-6.929c-.126 3.001.213 2.929-13.699 2.929H266l.013 1.7c.007.942.298 2.056.654 2.5l.641.8-.319-.8c-.175-.44-.398-1.475-.496-2.3l-.177-1.5h12.628c14.317 0 13.663.162 13.348-3.315l-.152-1.685-.07 1.671m-135.943.88c-3.157 3.076-4.031 6.747-2.648 11.133.623 1.976 3.095 5.316 3.935 5.316.186 0-.264-.585-1-1.3-4.636-4.504-4.023-12.08 1.287-15.927.891-.645 1.351-1.173 1.024-1.173-.327 0-1.496.878-2.598 1.951m-75.267 1.13c-.061.895-.2 1.312-1.505 4.519-2.293 5.635-8.743 11.6-12.542 11.6-.421 0-.877.18-1.013.4-.136.22-1.272.431-2.524.47-2.135.065-2.165.08-.489.227 4.322.381 10.785-3.056 14.099-7.497 1.355-1.816 3.514-5.999 3.514-6.809 0-.347.194-.825.431-1.062.237-.237.354-.948.26-1.58-.125-.837-.187-.91-.231-.268m95.388-.395c-.127.126-2.08.557-4.339.956-2.26.399-3.119.642-1.909.54 1.21-.102 3.173-.359 4.361-.57 2.816-.499 2.889-.424 2.662 2.717-.134 1.846-.089 2.3.144 1.471.825-2.926.226-6.259-.919-5.114m-66.702.543c2.864 1.147-.592 8.672-4.395 9.57l-1.351.319 1.244.041c2.988.098 5.756-4.02 5.756-8.565 0-1.697-.06-1.793-1.1-1.769-1.095.026-1.096.027-.154.404m-6.146.579c-1.901.4-2.109.509-1 .523.77.01 2.48-.226 3.8-.523 1.836-.414 2.071-.537 1-.523-.77.01-2.48.245-3.8.523m193.459.792c-.174 5.868 7.166 15 12.057 15 .35 0 .748.18.884.4.136.22 1.272.374 2.524.341l2.276-.059-2.2-.287c-8.427-1.1-13.665-6.341-15.184-15.195l-.309-1.8-.048 1.6m-230.04 1.872c-.98 1.12-2.395 2.293-3.144 2.606-.749.313-1.269.662-1.155.775.611.612 4.862-2.751 5.879-4.651.629-1.176.395-.987-1.58 1.27m31.566-.862L97 209.619l1.59-1.032c1.881-1.223 2.066-1.387 1.562-1.387-.21 0-1.005.544-1.767 1.21m66.8-.054c-3.024 2.524-1.357 7.751 2.415 7.575l1.4-.065-1.484-.156c-2.221-.234-3.666-2.102-3.407-4.403.187-1.66.698-2.377 2.557-3.583.404-.263.547-.488.319-.5-.228-.013-1.038.496-1.8 1.132m90.849.644c-.012.44.153 1.07.366 1.4.514.795.514-.204 0-1.4l-.344-.8-.022.8m51.166.915c0 3.281 5.694 6.331 10.021 5.367 1.697-.378 1.627-.398-1.541-.439-4.197-.054-7.68-1.982-7.68-4.25 0-.3-.18-.657-.4-.793-.22-.136-.4-.084-.4.115M86.524 212.2c.002 1.32.077 1.812.166 1.093.089-.719.087-1.799-.004-2.4s-.164-.013-.162 1.307m10.385-.6c0 .99.078 1.395.173.9.096-.495.096-1.305 0-1.8-.095-.495-.173-.09-.173.9m183.95.907l-1.34 1.693 1.404-1.455c.773-.8 1.646-1.55 1.941-1.668.409-.163.394-.22-.064-.238-.33-.014-1.203.737-1.941 1.668m9.505-1.338c.479.303.482.559.024 1.694-2.382 5.905-6.933 9.229-13.788 10.07-.802.098-.587.167.651.207 1.741.056 3.046-.319 6.325-1.82 4.015-1.838 9.745-10.539 6.924-10.514-.565.005-.592.075-.136.363m32.036.631c-.294.55-.64 1.006-.768 1.014-.511.032-2.597 1.982-2.121 1.984.28.001 1.3-.788 2.265-1.753.966-.966 1.996-1.851 2.29-1.969.314-.125.191-.226-.298-.244-.5-.019-1.047.368-1.368.968m8.929-.742c.434.126.637.441.5.777-.688 1.696-.738 1.957-.299 1.556.833-.761.749-2.349-.13-2.452-.669-.078-.68-.058-.071.119m-74.497.605c-.111 2.329 5.949 9.537 8.018 9.537.297 0-.399-.632-1.545-1.404-2.574-1.733-5.289-5.297-6.244-8.196-.161-.488-.204-.476-.229.063m-81.923 2.21c-1.353 1.383-1.991 1.74-3.2 1.791-1.39.059-1.411.076-.267.221 1.47.186 3.779-1.046 4.757-2.54 1.02-1.556.571-1.373-1.29.528m93.658-.511c.861.791 1.761 1.427 2 1.414.238-.012.094-.237-.321-.5-.414-.262-1.314-.898-2-1.414-.817-.615-.707-.443.321.5m-171.367.556c0 .816 2.357 2.142 3.499 1.969 1.07-.162 1.065-.169-.144-.227-.754-.036-1.662-.477-2.3-1.115-.58-.58-1.055-.862-1.055-.627m232.873 1.586c-1.206 2.074-2.014 2.958-4.041 4.427-.964.698-1.585 1.269-1.381 1.269 1.13 0 4.891-3.6 5.924-5.669.893-1.791.535-1.81-.502-.027m-184.373-.408l2.3.144v3.753c0 3.696-.016 3.757-1.005 3.929-.92.161-.912.171.1.127 1.257-.056 1.798-2.521 1.394-6.349l-.2-1.9-2.445.076-2.444.075 2.3.145m127.192.193c1.251.261 2.401.259 3.4-.006 1.331-.353 1.109-.4-1.892-.394-3.254.005-3.319.023-1.508.4m-186.083.35c-.027 1.952 4.539 7.146 5.467 6.218.109-.109-.313-.464-.939-.789-1.588-.827-2.75-2.166-3.703-4.268-.449-.99-.82-1.513-.825-1.161m22.591 4.772c-2.152 1.278-4.145 1.962-7 2.404l-1.8.278 1.6.048c2.134.063 7.381-1.74 8.007-2.752.479-.776 1.298-.363 1.525.77.27 1.351 2.561 1.798 7.61 1.486 3.242-.201 3.516-.403 3.052-2.245l-.353-1.4.08 1.4.079 1.4-4.908.112c-4.413.101-4.93.041-5.133-.6-.698-2.204-.613-2.176-2.759-.901m49.176 1.402c.428.323 1.092.587 1.477.587s.811.18.947.4c.136.22 1.182.371 2.324.336 1.478-.046 1.673-.104.676-.202-1.688-.167-4.455-.947-4.98-1.404-.209-.181-.569-.324-.8-.317-.231.007-.071.277.356.6m107.194-.261c.414.669 4.187 1.648 6.105 1.584 1.496-.05 1.613-.094.525-.197-2.16-.206-5.614-1.038-5.842-1.407-.113-.183-.385-.332-.605-.332-.22 0-.302.158-.183.352m57.272-.02c-.245.397-3.805 1.225-6.042 1.405-1.327.107-1.237.14.525.196 2.082.066 5.875-.885 6.305-1.581.119-.194.037-.352-.183-.352s-.492.149-.605.332m-229.296 1.031c.649.361 1.949.613 3 .581l1.854-.057-2-.298c-1.1-.164-2.45-.426-3-.581-.908-.256-.894-.223.146.355"/><path fill="#848488" d="M44.3 173.099c3.135.068 8.265.068 11.4 0 3.135-.067.57-.123-5.7-.123-6.27 0-8.835.056-5.7.123m21.3 11.826c0 .069.585.654 1.3 1.3l1.3 1.175-1.175-1.3c-1.095-1.212-1.425-1.484-1.425-1.175m305.2 1.675c-.301.362-.333.6-.082.6.228 0 .513-.225.633-.5.15-.343.427-.218.882.4.366.495.821.9 1.013.9.192 0-.043-.45-.521-1-1.011-1.163-1.25-1.213-1.925-.4m-9.916 3.871c-.073 3.688-.179 4.295-.784 4.453-.656.172-.655.186.013.23 1.017.066 1.134-.525.986-4.982l-.132-3.972-.083 4.271M204.109 188.8c0 .99.078 1.395.173.9.096-.495.096-1.305 0-1.8-.095-.495-.173-.09-.173.9m-99.809 3.082c.495.096 1.305.096 1.8 0 .495-.095.09-.173-.9-.173s-1.395.078-.9.173m66.8 0c.495.096 1.305.096 1.8 0 .495-.095.09-.173-.9-.173s-1.395.078-.9.173m-44.4 1.207c.715.089 1.885.089 2.6 0 .715-.088.13-.161-1.3-.161-1.43 0-2.015.073-1.3.161m16.791 0c.71.088 1.97.09 2.8.003.83-.087.249-.159-1.291-.161-1.54-.002-2.219.069-1.509.158m11.661 3.824c.173.173 2.46.262 5.081.198l4.767-.115-5.081-.198c-2.795-.109-4.94-.057-4.767.115m-64.252.183c1.265.079 3.335.079 4.6 0 1.265-.08.23-.145-2.3-.145s-3.565.065-2.3.145M81.693 200c0 .77.082 1.085.183.7.1-.385.1-1.015 0-1.4-.101-.385-.183-.07-.183.7m146 1.2c0 .77.082 1.085.183.7.1-.385.1-1.015 0-1.4-.101-.385-.183-.07-.183.7m42.207-.902c2.035.073 5.365.073 7.4 0s.37-.132-3.7-.132-5.735.059-3.7.132m40.98 0c1.914.073 5.154.073 7.2 0 2.046-.072.48-.132-3.48-.133-3.96 0-5.634.059-3.72.133m-13.966 3.902c.003 1.1.081 1.503.173.895.092-.609.09-1.509-.005-2-.095-.492-.171.005-.168 1.105m-26.214 2.499c2.475.07 6.525.07 9 0 2.475-.071.45-.128-4.5-.128s-6.975.057-4.5.128m15.611-.006c.94.085 2.38.084 3.2-.002.819-.086.049-.155-1.711-.154-1.76.002-2.43.072-1.489.156m30.589.006c2.805.069 7.395.069 10.2 0 2.805-.069.51-.125-5.1-.125-5.61 0-7.905.056-5.1.125M153.309 212.4c0 .99.078 1.395.173.9.096-.495.096-1.305 0-1.8-.095-.495-.173-.09-.173.9m132.582-1.311c.71.088 1.97.09 2.8.003.83-.087.249-.159-1.291-.161-1.54-.002-2.219.069-1.509.158m39.616.001c.719.089 1.799.087 2.4-.004s.013-.164-1.307-.162c-1.32.002-1.812.077-1.093.166m-157.002 5.197c.609.092 1.509.09 2-.005.492-.095-.005-.171-1.105-.168-1.1.003-1.503.081-.895.173M44.3 223.099c3.135.068 8.265.068 11.4 0 3.135-.067.57-.123-5.7-.123-6.27 0-8.835.056-5.7.123m54.6-.023c.385.1 1.015.1 1.4 0 .385-.101.07-.183-.7-.183s-1.085.082-.7.183m98.8.018c1.045.082 2.755.082 3.8 0s.19-.15-1.9-.15-2.945.068-1.9.15m142.8-.018c.385.1 1.015.1 1.4 0 .385-.101.07-.183-.7-.183s-1.085.082-.7.183"/></g></svg>