<svg xmlns="http://www.w3.org/2000/svg" role="img" viewBox="8.45 3.45 366.60 81.85"><title>Data.world (Data Virtualization) logo</title><style>.st0{fill:#f4d3aa}.st1{fill:#6290c3}.st3{fill:#fff}.st4{opacity:.3}.st5{fill:#eef3f9}.st6{opacity:.9}.st7{fill:#f0f2f8}.st9{fill:#c2cfe6}.st10{fill:#cad5e9}.st11{fill:#c5d2e7}.st12{fill:#cdd7ea}.st14{fill:#d5deed}.st15{fill:#dfe5f1}.st16{fill:#e7ebf5}.st17{fill:#4e5057}.st18{fill:#4f5057}</style><style>.st0{fill:#f4d3aa}.st1{fill:#6290c3}.st3{fill:#fff}.st4{opacity:.3}.st5{fill:#eef3f9}.st6{opacity:.9}.st7{fill:#f0f2f8}.st9{fill:#c2cfe6}.st10{fill:#cad5e9}.st11{fill:#c5d2e7}.st12{fill:#cdd7ea}.st14{fill:#d5deed}.st15{fill:#dfe5f1}.st16{fill:#e7ebf5}.st17{fill:#4e5057}.st18{fill:#4f5057}</style><style>.st0{fill:#f4d3aa}.st1{fill:#6290c3}.st3{fill:#fff}.st4{opacity:.3}.st5{fill:#eef3f9}.st6{opacity:.9}.st7{fill:#f0f2f8}.st9{fill:#c2cfe6}.st10{fill:#cad5e9}.st11{fill:#c5d2e7}.st12{fill:#cdd7ea}.st14{fill:#d5deed}.st15{fill:#dfe5f1}.st16{fill:#e7ebf5}.st17{fill:#4e5057}.st18{fill:#4f5057}</style><style>.st0{fill:#f4d3aa}.st1{fill:#6290c3}.st3{fill:#fff}.st4{opacity:.3}.st5{fill:#eef3f9}.st6{opacity:.9}.st7{fill:#f0f2f8}.st9{fill:#c2cfe6}.st10{fill:#cad5e9}.st11{fill:#c5d2e7}.st12{fill:#cdd7ea}.st14{fill:#d5deed}.st15{fill:#dfe5f1}.st16{fill:#e7ebf5}.st17{fill:#4e5057}.st18{fill:#4f5057}</style><style id="style2">.st0{fill:#f4d3aa}.st1{fill:#6290c3}.st3{fill:#fff}.st4{opacity:.3}.st5{fill:#eef3f9}.st6{opacity:.9}.st7{fill:#f0f2f8}.st9{fill:#c2cfe6}.st10{fill:#cad5e9}.st11{fill:#c5d2e7}.st12{fill:#cdd7ea}.st14{fill:#d5deed}.st15{fill:#dfe5f1}.st16{fill:#e7ebf5}.st17{fill:#4e5057}.st18{fill:#4f5057}</style><path id="path4" d="M44.2 73.8c-.3-.3-.6-.5-1-.6v-8.3H42v7.7c-1.1-.6-2.5-.4-3.4.6-1.1 1.2-.2 4.5-.2 4 0-.3.5-.8 1.2-1.2 0 1.2.4 2.3.4 1.9.1-1 5.3-3.1 4.2-4.1z" class="st0"/><path id="path6" d="M44.4 73.6c-.2-.2-.8-.4-.9-.6s0-.6 0-.8v-7.4c0-.1-.1-.2-.2-.2h-1.2c-.1 0-.3.1-.3.2v7.7c.1-.1.3-.1.4-.2-1.5-.7-3.7-.2-4.2 1.5-.2.8-.2 1.5-.1 2.3 0 .3.1 1.1.4 1.2.2.1.3 0 .4-.1.3-.5.7-.9 1.1-1.2-.1 0-.3-.1-.4-.1 0 .4 0 2 .5 2.2.2 0 .4 0 .4-.2.3-1 5.4-2.9 4.1-4.3-.1-.2-.6.1-.4.3.6.7-1.8 2-2.3 2.3-.7.4-1.7 1-1.9 1.9.1-.1.3-.1.4-.2-.1-.6-.2-1.3-.2-1.9 0-.2-.3-.2-.4-.1-.5.4-1 .8-1.3 1.4.1 0 .3-.1.4-.1 0-.3-.1-.5-.2-.8-.1-.5-.1-1.1-.1-1.6.1-1.3 1.3-2.3 2.6-2.2.4 0 .7.1 1 .3.1.1.3 0 .4-.1V65c-.1.1-.2.1-.3.2h1.2c-.1-.1-.2-.1-.2-.2v8.3c0 .1 0 .1.1.2.3.1.7.3.9.6.1 0 .6-.3.3-.5z" class="st1"/><path id="path8" d="M44.9 74c.3-.3.6-.5 1-.6v-8.3H47v7.7c1.1-.6 2.5-.4 3.4.6 1.1 1.2.2 4.5.2 4 0-.3-.5-.8-1.2-1.2 0 1.2-.4 2.3-.4 1.9 0-1-5.2-3.1-4.1-4.1z" class="st0"/><path id="path10" d="M45.1 74c.2-.2.5-.4.8-.5.1 0 .2-.1.2-.2V65c-.1.1-.2.1-.4.2.2 0 1-.1 1.1 0-.2-.2-.1.3-.1.4v7.3c0 .1.4 0 .4 0 1.3-.6 2.8 0 3.4 1.3.1.3.2.5.2.8 0 .5 0 1.1-.1 1.6 0 .2-.3.8-.1.8h.4c-.3-.5-.7-1-1.2-1.3-.1-.1-.5 0-.5.1 0 .4-.1.9-.2 1.3-.1.3-.3.6 0 .5h.3c-.2-.9-5-3.1-4.2-4 .2-.2-.3-.1-.4 0-1.1 1.2 3.9 3.1 4.1 4.3 0 .1.2.1.3 0 .7-.2.6-1.6.6-2.1-.2 0-.3.1-.5.1.5.3.9.8 1.2 1.3.1.1.3 0 .4 0 .3-.1.4-.7.4-1 .2-.8.2-1.7 0-2.5-.5-1.7-2.8-2-4.3-1.3h.4v-7.7c0-.1-.1-.1-.2-.1h-1.2c-.1 0-.4.1-.4.2v8.3l.2-.2c-.4.2-.7.4-1.1.6-.2.2.3.2.5.1z" class="st1"/><path id="path12" fill="#78a6d1" d="M71.6 39.9c-.8-1.6-2.5-2.6-4.3-2.4-.4.1-.8.2-1.2.5 0-5.1-.2-9.9-.5-14.6 0-1.8-.7-3.5-2-4.7-.2-.2-.4-.4-.7-.6 0-.1-.1-.3-.1-.4-.7-2-.1-3.7-.8-4.6-2 .1-4 .6-5.9 1.3-.9.4-1.7 1-2.4 1.7-1.8-.2-3.7-.3-5.7-.4-1.2-.3-2.4-.7-3.8-1.2-2.2-.9-4.2-2.1-6.1-3.6l5 4.4c-.9-.2-1.7-.5-2.5-.9-2.2-.9-4.2-2.1-6.1-3.6l5.6 4.9c-1.4.1-2.7.1-4 .3-.8-.8-1.7-1.4-2.7-1.9-1.9-.8-3.9-1.2-5.9-1.3-.7.8 0 2.6-.8 4.6 0 .1-.1.2-.1.3-.5.3-.9.6-1.3 1-1.2 1.3-1.9 2.9-2 4.7-.4 4.6-.6 9.4-.7 14.6-.4-.2-.8-.4-1.2-.4-1.8-.2-3.6.7-4.3 2.4-1.1 3.2-1.5 6.6-1.1 10 .4 3.4 1.6 6.7 3.4 9.6 1.4-2.7 2.6-5.5 3.5-8.4v-.1c.1 2.3.3 4.6.5 6.8 0 1.8.7 3.5 2 4.7 1.3 1.2 2.9 1.9 4.7 2 5 .6 10.1.8 15.2.7 4.8 0 9.3-.3 13.4-.7 1.8 0 3.5-.7 4.7-2 1.2-1.3 1.9-2.9 2-4.7l.3-6.6c.9 2.9 2 5.6 3.4 8.3 1.9-2.9 3-6.2 3.4-9.6.5-3.4.2-6.9-.9-10.1z"/><path id="path14" d="M72.1 40.3c-1.2-2.2-4.3-4-6.7-2.7.4.3.7.5 1.1.8 0-4.1-.1-8.2-.3-12.3-.1-1.8 0-3.6-.8-5.3-.3-.7-.8-1.4-1.4-1.9-.6-.6-1-1.5-1-2.4-.1-1.2.2-2.5-.8-3.3-.2-.2-.5-.4-.8-.5-.6 0-1.1 0-1.7.2-1.4.1-2.8.5-4.1 1.2-.7.3-1.3.8-1.9 1.3-.3.3-.7.3-1.1.2-.5 0-1.1-.1-1.6-.1-1.1-.1-2.3 0-3.4-.2-1-.2-2-.5-2.9-.9-2.1-.8-4-1.8-5.8-3.1-.3-.3-.7-.6-1.1-.8 1.4 1.2 2.7 2.4 4.1 3.6.3.2.6.4.8.7l.1.1s-1.5-.5-1.6-.5c-2.1-.8-4.2-1.8-6-3.2-.3-.3-.7-.6-1.1-.8 1.2 1.1 2.4 2.1 3.6 3.2.7.5 1.3 1 1.8 1.6l.2.1c0 .1-.5 0-.7.1-1.1.1-2.2.1-3.3.2.4.3.7.5 1.1.8-1.1-1.1-2.5-2.1-3.9-2.8-.9-.4-1.8-.6-2.8-.8-.9-.3-1.8-.4-2.7-.4-.4.1-.5.3-.5.7-.1.5-.1.9-.1 1.4 0 .5 0 1-.1 1.5-.1.3-.2.7-.3 1-.2.4-.5.5-.8.7-1.5 1.2-2.4 3.1-2.6 5-.2 2.4-.4 4.7-.5 7.1-.1 1.2-.1 2.5-.2 3.7 0 .7 0 1.4-.1 2.1v1.7c.1.4 0 .5-.3.2l-.9-.3c-.2 0-.5-.1-.7 0-.5 0-1 .1-1.4.3-1 .4-1.8 1.2-2.2 2.2-.7 1.7-1 3.6-1.1 5.4-.4 5 .8 9.9 3.5 14.1.4.2.8.5 1.1.8 1.4-2.7 2.6-5.6 3.5-8.5-.4-.3-.7-.5-1.1-.8.1 2.5.2 5.2.5 7.7.2 1.9 1.3 3.5 2.8 4.6 1.1.9 2.4 1.6 3.8 1.9 1.6.3 3.4.3 5 .5 5 .4 10 .5 15 .3 2.4-.1 4.8-.2 7.2-.4 2.2-.2 4.5-.1 6.4-1.4 1.7-1.1 2.8-2.9 3-4.9.3-2.4.2-4.9.3-7.3-.4-.3-.7-.5-1.1-.8.9 2.9 2 5.6 3.4 8.3.1.1 1.1.8 1.1.8 3.6-5.9 4.3-13.1 2.1-19.7-.1-.4-1-.4-1.1-.8 2.3 6.5 1.4 13.8-2.3 19.6.4.3.7.5 1.1.8a49.9 49.9 0 0 1-3.4-8.3c-.1-.3-1.1-.5-1.1-.8-.1 2.3-.2 4.5-.3 6.8-.1 3.5-2.8 6.3-6.3 6.5-2.1.1-4.2.4-6.4.5-4.8.3-9.5.3-14.3.1-2.1-.1-4.2-.2-6.3-.4-1.4 0-2.8-.2-4.1-.5-1-.3-1.8-.9-2.3-1.7-.6-.8-1-1.8-1.2-2.8-.2-1.2-.2-2.6-.3-3.8-.1-1.4-.2-2.8-.3-4.1 0-.2-1.1-.6-1.1-.8-.9 2.9-2.1 5.8-3.5 8.5.4.3.7.5 1.1.8-3-4.8-4.2-10.4-3.3-16 .4-2.3 1-5.1 3.6-5.9.6-.2 1.3-.2 1.9-.1.3.1.7.2 1 .4.1-.5.1-1.1 0-1.6 0-1.8.1-3.6.2-5.5.1-2.8.3-5.7.6-8.5.2-1.2.7-2.4 1.5-3.4.5-.5 1-1 1.6-1.4.5-.7.7-1.6.6-2.4 0-.6 0-1.3.1-1.9.1-.7.3-.7.9-.6 1.2.1 2.4.3 3.5.7.6.1 1.2.3 1.7.6.2.1 1.4.9.9.5s.1.1.3.3l.4.4c.2.2.5.4.8.6.5.4 1 .2 1.7.1.3 0 2.7-.2 2.7-.2 0-.1-.3-.3-.3-.3-.6-.5-1.2-1.1-1.9-1.6-1.1-1-2.3-2-3.4-3-.4-.3-.7-.5-1.1-.8 1.3 1 2.6 1.9 4 2.8 1.2.7 2.4 1.3 3.6 1.8.2.1 2 .6 2.1.7-.1-.1-.1-.1-.2-.1-.3-.3-.7-.6-1.1-.9-.6-.5-1.1-1-1.7-1.5l-2.1-1.8c-.4-.3-.7-.5-1.1-.8 3.4 2.7 7.7 5.4 12.1 5.6.7 0 1.5.1 2.2.1.7.1 1.4.2 2.1.2.5-.2.9-.5 1.3-.9l1.5-.9c1.8-.7 3.7-1.1 5.6-1.2-.4-.3-.7-.5-1.1-.8.4.7.5 1.6.4 2.4 0 .9.1 1.8.5 2.6.3.5.9.8 1.3 1.3.3.4.6.8.8 1.3.4.9.6 1.9.6 2.9.2 4.8.4 9.6.4 14.5.3.3.7.6 1.1.8.8-.4 1.8-.6 2.7-.4 1 .2 1.3.6 1.8 1.5.4.4 1.1.5 1.3.8z" class="st1"/><path id="path16" d="M43.2 27.2c1.7 4.6 2.7 13.9-4.3 18.3-6.2 3.9-14.4 1.9-18.3-4.3-4.3-6.9.4-14.8 4.3-18.3.9-.8 5.8-5.2 11.2-3.5 4.7 1.4 6.5 6.3 7.1 7.8z" class="st3"/><path id="path18" d="M42.6 27.2c1.5 4.2 1.9 9.2 0 13.3-2.7 5.6-9.2 8.2-15 6-2.7-1-5-2.9-6.5-5.4-1.7-2.8-2.1-6.2-1.3-9.3 1.3-4.9 4.5-9 9-11.4 1.8-1.1 3.9-1.6 6-1.3 1.6.4 3.2 1.2 4.4 2.3 1.5 1.7 2.7 3.7 3.4 5.8.1.2 1.1 0 1.1 0-.7-2.1-1.9-4.1-3.4-5.7-2.1-2-5-2.9-7.8-2.5-5.4.5-10 4.8-12.3 9.4-1.6 3.2-2.4 6.9-1.2 10.3 1.1 3.1 3.4 5.7 6.3 7.3 5 2.6 12 2 16.1-2 4.4-4.2 4.4-11.4 2.4-16.8-.2-.2-1.2 0-1.2 0z" class="st1"/><path id="path20" d="M46.3 27.7c-1.7 4.6-2.7 13.9 4.3 18.3 6.2 3.9 14.4 1.9 18.3-4.3 4.3-6.9-.4-14.8-4.3-18.3-.9-.8-5.8-5.2-11.2-3.5-4.7 1.4-6.5 6.3-7.1 7.8z" class="st3"/><path id="path22" d="M45.8 27.7c-1.7 4.7-2 10.6.8 14.9 3.3 5.1 10.3 6.6 15.8 4.7 2.9-1 5.4-3 7-5.6 1.8-3.1 2.2-6.9 1-10.3-1.7-5-5.8-9.7-10.9-11.4-3.2-1.2-6.8-.6-9.6 1.4-1.9 1.7-3.3 3.9-4.1 6.3 0 .1 1 .3 1.1 0 .7-1.9 1.6-3.6 2.9-5.1 2.1-2.5 5.6-3.5 8.7-2.5 4.7 1.5 8.5 5.7 10.4 10.1 1.3 2.9 1.5 6.2.5 9.3-1.1 2.9-3.2 5.3-5.9 6.8-5.4 2.9-12.1 1.4-15.7-3.5-3-4.3-2.7-10.4-1-15.1.1-.1-.9-.2-1 0z" class="st1"/><path id="path24" d="M44.5 47.5c-7.5 0-14.2 12.7-12.6 17.3 0 .1 0 .1.1.2 3.9.3 8.2.5 12.8.5h.3c4.3 0 8.3-.3 12-.6 0-.1.1-.1.1-.2C58.7 60 52 47.5 44.5 47.5z" class="st3"/><path id="path26" d="M44.7 47.4c-3.2 0-5.9 1.9-8 4.2-2.4 2.6-4.1 5.8-5 9.2-.4 1.4-.4 2.9 0 4.3 8.4.7 16.8.7 25.1-.1.1 0 .3 0 .4-.1.5-1.6.4-3.2-.1-4.8-.6-2.1-1.5-4-2.7-5.8-2.1-3.4-5.5-6.9-9.7-6.9-.1 0-.6.2-.3.2 4.3.1 7.7 3.7 9.8 7.1 1.1 1.7 1.9 3.6 2.5 5.5.5 1.5.6 3.2.1 4.7.1 0 .2-.1.4-.1-4 .4-8.1.6-12.1.6-2.1 0-4.2 0-6.2-.1-.9 0-1.8-.1-2.8-.1-1.1-.1-2.2 0-3.2-.2-.7-.1-.7-.4-.8-1-.1-.5-.1-1 0-1.5.1-1.1.4-2.2.7-3.3.8-2.5 2.1-4.8 3.8-6.8 1.9-2.4 4.6-4.7 7.8-4.7 0-.1.5-.3.3-.3z" class="st1"/><g id="g52" class="st4"><ellipse id="ellipse28" cx="32.5" cy="33.7" class="st5" rx="3.5" ry="5.9"/><g id="g50" class="st6"><path id="path30" d="M35.5 36.4l.1-.2c-.1 0-.1 0-.1-.1 0-.2-.2.4-.4.9-.1.1.1 0 .4-.6zm.6-1.8c0 .2 0 .4-.1.5 0 .2 0 .3-.1.5.1-.2.1-.3.2-.4.1-.1.2-.3.2-.5v-.6c0 .1 0 .3-.1.4 0 .2-.1.4-.1.6v-.7.2l-.1.3.1-.3zm-2.3 3.3c.1-.1.2-.2.2-.4l-.1.1-.1.1c0 .1-.1.2 0 .2l-.1-.1-.1.1h.2c-.2 0-.2.1-.3.1l-.1.1c.1.1.2-.1.4-.2z" class="st7"/><path id="path32" fill="#eef1f8" d="M32.3 38.7c-.1.1.1.3.5.3s.7-.1 1-.3c.3-.2.6-.4.8-.6.3-.3.5-.6.7-.8 0-.1 0-.1.1-.4-.1.1-.2.3-.2.5 0-.2.1-.3.2-.4 0 .1 0 .1-.1.1V37c-.2.2-.3.4-.5.6-.2.1-.3.2-.4.2l-.1.1c-.4.5-.6.5-.6.4-.2.2-.4.3-.7.4-.2 0-.5-.1-.7-.2h-.1c-.1-.1-.1-.1-.2-.1 0 .1 0 .1-.1.1l.4.2z"/><path id="path34" d="M36.2 33.7c.1 0 .1-.2.2-.4 0-.1.1-.2.1-.3 0-.1 0-.3.1-.4.1-.7 0-1.5-.3-2.2-.3-.8-.7-1.6-1.3-2.3-.4-.4-.8-.7-1.3-.9-.5-.2-1.1-.3-1.7-.2.1 0 .1 0 .2.1 0 .1 0 .1-.1.1s-.2.1-.3.2c-.1 0-.1.1-.2.1s-.2.1-.3.2-.2.1-.3.2-.2.2-.3.2c-.1.1-.2.2-.3.2-.1.1-.1.1-.1.2-.2.3-.4.6-.5 1-.1.3-.2.6-.4 1.1.1-.2.2-.2.3-.3.3-.5.7-1.1 1.2-1.8.1-.1.2-.1.3-.2.1 0 .1 0-.1.2.3-.1.5-.3.8-.5.1 0 .3-.1.4-.1h.7c.1 0 .1 0 .2.1.1 0 .1 0 .1.1.1 0 .1 0 .1.1.1.1.1.1.1.2s-.2.1 0 .3c0 .1.1.1.2.2.4.2.8.5 1.1.9.3.4.6.8.8 1.3.1.2.1.6.2.8.1.4.2 1 .3 1.4 0 .2 0 .5.1.4z" class="st9"/><path id="path36" d="M28.2 33.1v-1c-.1.5-.2 1-.3 1.6 0 .1.1.3.1.4 0-.3.1-.7.2-1zm2.9-3.4l.1-.1c.2-.4.5-.6.9-.8.3-.1.6-.1.9-.1h-.1c-.1-.2-.2-.2-.3-.3.1.1 0 0 0 0 .1-.1 0-.1-.1-.1h-.4c-.5.2-.9.4-1.3.7l-.3.3s-.2.1-.1-.1c-.1.1-.1.2-.2.3l-.1.1v.1c-.2.3.1-.3-.1-.1-.3.5-.5 1-.6 1.6-.1.1-.1.2-.2.3-.1 0-.1 0-.1-.1v-.8c.1-.5.3-1 .6-1.4-.2.1-.6.8-.4.4l.3-.6c0-.1.1-.2.1-.3 0-.1 0-.1.1-.2-.4.5-.7 1.1-.9 1.7-.2.6-.3 1.1-.4 1.4 0 .1-.1.2-.1.3s-.1.2-.1.3v1c-.1.3-.2.7-.2 1 0 .2.1.3.1.4.1.2.1-.1.1-.4v-.6c0-.2 0-.3.1-.4 0 .4 0 .9.2 1.3.1.2.2.1.3-.1.1-.2.1-.3.1-.5.1-.2.1-.5.2-.7 0-.2 0-.3.1-.5 0-.2 0-.4.1-.6v.4c.2-.7.4-.9.6-1.7 0 0 .1 0 0 .2 0-.1 0-.2.1-.3.1-.1.1-.2.2-.3.1-.1.2-.1.3-.1.1 0 .2-.1.3-.4l.2-.2z" class="st10"/><path id="path38" d="M33.4 28.5c-.2-.2 0-.2 0-.3 0-.1 0-.1-.1-.2l-.2-.2c-.1 0-.1 0-.2-.1h-.7c-.1 0-.3.1-.4.1-.3.1-.6.3-.8.5.2-.2.2-.2.1-.2s-.3.1-.3.2c-.5.6-.9 1.2-1.2 1.8-.1.2-.2.2-.3.3.1-.4.2-.7.4-1.1.1-.4.3-.7.5-1 .1-.1.1-.1.1-.2.1-.1.2-.2.3-.2.1-.1.2-.2.3-.2.1-.1.2-.1.3-.2s.2-.1.3-.2c.1 0 .1-.1.2-.1.1-.1.2-.1.3-.2.1 0 .1 0 .1-.1-.1-.1-.1-.1-.2-.1-.2 0-.4.1-.6.2-.1 0-.2.1-.3.1l-.3.2c-.2.1-.4.2-.5.4l-.4.4c0 .1-.1.1-.1.2s0 .1-.1.2c0 .1-.1.2-.1.3l-.3.6c-.1.4.3-.3.4-.4-.3.5-.7 1.1-.6 1.4v.8c0 .1.1.2.1.1.1 0 .1-.2.2-.3.2-.5.5-1 .6-1.6.2-.2-.1.4.1.1v-.1l.1-.1c.1-.1.1-.2.2-.3-.1.2.1 0 .1.1l.3-.3c.4-.3.8-.5 1.3-.7h.4c.1 0 .2.1.1.1h.3c.2 0 .5.1.7.2 0 .3 0 .2-.1.1z" class="st11"/><path id="path40" d="M30.9 29.7c-.2.2-.2.3-.3.4-.1 0-.2 0-.3.1 0 .1-.1.2-.2.3-.1.1-.1.2-.1.3.1-.2 0-.2 0-.2-.3.8-.4 1.1-.6 1.7v-.4c0 .2 0 .4-.1.6 0 .2 0 .4-.1.5-.1.2-.1.5-.2.7 0 .2-.1.3-.1.5-.1.2-.2.3-.3.1-.2-.4-.2-.9-.2-1.3 0 .1-.1.2-.1.4v.6c0 .3 0 .6-.1.4 0-.1-.1-.2-.1-.4 0 .5.1 1.1.2 1.6.1.6.3 1.1.5 1.7.1 0 .1 0 0-.2 0-.2-.1-.3-.1-.4v-.3c0-.1 0-.2.1-.3.1-.1.2-.2.2-.7v-.8c.1-.4.3 0 .4-.4v-.7c.1-.2.2-.1.3-.6 0-.2.1-.3.1-.4s.1-.3.1-.4c.1-.2.2-.3.2-.5.1-.1.2-.2.2-.4l.1-.2.1-.2c.1-.6.3-1.1.6-1.6l-.1.1c0 .3 0 .3-.1.4.1 0 0 0 0 0z" class="st12"/><path id="path42" fill="#dae1ef" d="M35.4 39.4c-.2.1-.4.3-.5.3-.2.1-.3.1-.5.2s-.3.1-.5.2c-.1.1-.3.1-.4.2-.2.1-.3.1-.5.1h-.6c-.2 0-.4 0-.5-.1-.1 0-.3-.1-.4-.1-.1 0-.1 0-.2-.1h.4c.3.1.5.1.8 0-.1 0-.3 0-.4-.1-.1 0-.2-.1-.3-.1s-.2-.1-.3-.1c-.1-.1-.1-.1-.2-.1l-.3-.3-.1-.1-.1-.1c-.1-.1-.1-.2-.2-.3 0-.1-.1-.2-.1-.3-.1-.1-.1-.2-.1-.3-.1-.1-.1-.3-.2-.4-.2-.5-.2-1.1-.2-1.6 0-.2 0-.4.1-.6.1-.1.1-.2.2-.3.1-.5.1-1 .1-1.5-.1-.3-.1-.5-.1-.8 0 .2-.1.3-.1.5 0 .1-.1.2-.1.3-.2.1-.4.4-.4.6-.1.5-.1 1 0 1.5s-.3.2-.3.5v.7c0 .2.1.4.1.6s.1.4.1.6c.1.2.1.4.2.6 0 .1.1.2.2.4s.2.4.4.5l1.2.6c.2.1.5.1.7.1h.8c.2 0 .3-.1.5-.1.1-.1.3-.1.4-.2.2-.1.3-.2.5-.3.1-.1.2-.1.3-.2.1-.1.2-.1.3-.1.1-.1.3-.1.3-.3.2-.1.3-.1.3-.2s.1-.1.1-.2c.2.1.3 0 .3-.1l-.7.5z"/><path id="path44" d="M29.7 33.1c0 .5-.2.4-.3.6-.1.1 0 .7 0 .7-.1.4-.3 0-.4.4v.8c0 .5-.1.6-.2.7 0 .1-.1.1-.1.3v.3c0 .1 0 .3.1.4v.2c-.2-.1.1.5.2.7.1.2.2.3.3.5.1.1.2.3.3.4.1.1.2.2.3.4.1.1.2.3.4.4.1.1.2.2.4.3-.2-.2-.3-.4-.4-.5-.1-.2-.2-.3-.2-.4-.1-.2-.2-.4-.2-.6 0-.2-.1-.4-.1-.6s-.1-.4-.1-.6v-.7c0-.3.3 0 .3-.5-.1-.5-.1-1 0-1.5 0-.2.2-.5.4-.6.1-.1.1-.2.1-.3 0-.2.1-.3.1-.5v-.6c0-.1 0-.2.1-.3v-.1c0-.2 0-.4.1-.5 0-.2 0-.3.1-.5l-.1.2-.1.2c-.1.1-.2.2-.2.4-.1.1-.2.3-.2.5 0 .1-.1.2-.1.4-.5-.3-.5-.1-.5 0z" class="st14"/><path id="path46" d="M37 37c0-.2.1-.4.1-.6 0-.2.1-.5.2-.7v-.2c-.1.4-.2.5-.3.5-.1.2-.2.5-.2.7-.1.1-.1.2-.2.2l-.2.2c-.1.2-.3.3-.4.5l-.3.3c-.1.1-.2.2-.3.4-.1.1-.2.3-.4.5s-.4.4-.6.5c-.4.3-.4.2-.5.1-.1-.1-.1-.1-.2-.1h-.2c-.1 0-.2 0-.3.1-.2 0-.4.1-.7.1-.2 0-.4-.1-.5-.2 0-.1.1-.1.1-.2V39c-.1-.1-.1-.1-.2-.1-.3-.2-.6-.4-.8-.7 0-.1-.1-.1-.1-.2s-.1-.1-.1-.2-.1-.1-.1-.2v-.2c-.1-.2-.1-.5-.1-.7 0-.2.1-.3.1-.4-.2-.6-.4-1.4-.6-2.2-.1.6 0 1.4-.1 1.5-.1 0-.1.1-.2.3.1 0 .1.2.1.4 0 .5.1 1.1.3 1.6.1.1.1.3.2.4.1.1.1.2.1.3 0 .1.1.2.1.3s.1.2.2.3l.1.1.1.1.3.3c.1 0 .1.1.2.1.1.1.2.1.3.1.1 0 .2.1.3.1s.3.1.4.1h-1.2c.1.1.1.1.2.1s.2.1.4.1.3.1.5.1h.6c.2 0 .3-.1.5-.1.2-.1.3-.1.4-.2.2-.1.3-.2.5-.2s.3-.1.5-.2.3-.2.5-.3c.5-.4.9-.8 1.1-1.4.1-.2.2-.3.2-.5.1-.2.2-.3.2-.5z" class="st15"/><path id="path48" d="M32 38.8c.1.1.1.1.2.1v.1c0 .1-.2.1-.1.2 0 .1.2.1.5.2.2 0 .5 0 .7-.1.1 0 .2-.1.3-.1h.2c.1 0 .1 0 .2.1s.1.2.5-.1c.2-.2.4-.3.6-.5.2-.1.3-.3.4-.5.1-.1.2-.3.3-.4l.3-.3c.1-.2.3-.3.4-.5l.2-.2c.1-.1.1-.2.2-.2.1-.2.2-.5.2-.7l-.1-.1c-.1.1-.2.3-.2.4-.1.2-.2.5-.3.7-.1.1-.1 0-.1-.2v-1.1c-.1.2-.1.3-.2.4 0 .1 0 .1-.1.2v-.1c-.1.2-.2.3-.3.4l-.3.3c0 .1 0 .1-.1.2 0-.1 0-.1.1-.2-.1.1-.2.3-.3.4-.1.2-.2.3-.3.5-.1.1-.2.3-.4.4-.1.1-.1.1-.2.1s-.1.1-.2.1c-.3.2-.7.3-1 .4h-.4c-.1 0-.1-.1-.1-.2h-.4l.1-.1c-.1 0-.1-.1-.2-.1 0-.1 0-.1-.1-.1h.1c.1 0 .1 0 .1.1-.1 0-.1-.1-.2-.1h.1c-.1-.1-.2-.2-.3-.4-.1 0-.1 0-.1-.1.1 0 .1 0 .1.1v-.1h-.1l-.1-.1c-.1-.1-.1-.1-.2-.1-.1-.1-.2-.2-.3-.4v-.4c0-.2-.1-.3-.1-.5-.1.1-.1.2-.1.4s0 .5.1.7v.2c0 .1.1.1.1.2s.1.1.1.2 0 .1.1.2c.2.3.4.5.7.7z" class="st16"/></g></g><path id="path54" d="M34 33.6c-.7 0-1.3-.9-1.3-2.1 0-.5.1-.9.3-1.3-.2-.1-.4-.1-.6-.1-1.3 0-2.3 1.7-2.3 3.8s1 3.8 2.3 3.8 2.3-1.7 2.3-3.8v-.7c-.1.3-.4.4-.7.4z" class="st17"/><path id="path56" d="M34.1 33.4c-1.4-.1-1.2-2.4-.8-3.2 0-.1 0-.1-.1-.1-1.2-.3-2.4.4-2.8 1.6-.7 1.6-.6 3.5.3 5 .5.9 1.6 1.3 2.6.8.1 0 .1-.1.2-.1 1.4-.9 1.6-2.8 1.5-4.3 0-.2-.4 0-.5 0-.2.2-.3.3-.4.3-.3 0-.5.4-.1.3.4-.1.7-.3 1-.5h-.5c.1 1.2-.3 4.8-2.3 4.1-1.5-.5-1.8-2.9-1.6-4.3.1-.7.3-1.5.7-2.1.3-.3.8-.9 1.2-.7.3.2.1.3.1.6v.6c0 .9.4 2.1 1.4 2.2.1.2.4-.1.1-.2z" class="st18"/><g id="g84" class="st4"><ellipse id="ellipse58" cx="56.6" cy="34.1" class="st5" rx="3.5" ry="5.9"/><g id="g82" class="st6"><path id="path60" d="M59.5 36.8l.1-.2c-.1 0-.1 0-.1-.1 0-.2-.2.4-.4.9-.1.1.1 0 .4-.6z" class="st7"/><path id="path62" fill="#edf0f7" d="M60.8 34.3V34c-.1.2-.1.3 0 .3z"/><path id="path64" d="M60.1 35c0 .2 0 .4-.1.5 0 .2 0 .3-.1.5.1-.2.1-.3.2-.4.1-.1.2-.3.2-.5v-.6c0 .1 0 .3-.1.4 0 .2-.1.4-.1.6v-.7.2l-.1.3.1-.3zm-2.3 3.3c.1-.1.2-.2.2-.4l-.1.1-.1.1v.2l-.1-.1-.1.1h.2c-.2 0-.2.1-.3.1l-.1.1c.2 0 .3-.1.4-.2z" class="st7"/><path id="path66" d="M60.2 34.1c.1 0 .1-.2.2-.4 0-.1.1-.2.1-.3 0-.1 0-.3.1-.4.1-.7 0-1.5-.3-2.2-.3-.8-.7-1.6-1.3-2.3-.4-.4-.8-.7-1.3-.9-.5-.2-1.1-.3-1.7-.2.1 0 .1 0 .2.1 0 .1 0 .1-.1.1s-.2.1-.3.2c-.1 0-.1.1-.2.1s-.2.1-.3.2-.2.1-.3.2-.2.2-.3.2c-.1.1-.2.2-.3.2-.1.1-.1.1-.1.2-.2.3-.4.6-.5 1-.1.3-.2.6-.4 1.1.1-.2.2-.2.3-.3.3-.5.7-1.1 1.2-1.8.1-.1.2-.1.3-.2.1 0 .1 0-.1.2.3-.1.5-.3.8-.5.1 0 .3-.1.4-.1h.7c.1 0 .1 0 .2.1.1 0 .1 0 .1.1.1 0 .1 0 .1.1.1.1.1.1.1.2s-.2.1 0 .3c0 .1.1.1.2.2.4.2.8.5 1.1.9.3.4.6.8.8 1.3.1.2.1.6.2.8.1.4.2 1 .3 1.4 0 .1 0 .3.1.4z" class="st9"/><path id="path68" d="M52.3 33.5v-1c-.1.5-.2 1-.3 1.6 0 .1.1.3.1.4 0-.3.1-.7.2-1z" class="st10"/><path id="path70" d="M56.6 28.8c.1-.1 0-.1-.1-.1h-.4c-.5.2-.9.4-1.3.7l-.3.3s-.2.1-.1-.1c-.1.1-.1.2-.2.3l-.1.1v.1c-.2.3.1-.3-.1-.1-.3.5-.5 1-.6 1.6-.1.1-.1.2-.2.3-.1 0-.1 0-.1-.1V31c.1-.5.3-1 .6-1.4-.2.1-.6.8-.4.4l.3-.6c0-.1.1-.2.1-.3 0-.1 0-.1.1-.2-.4.5-.7 1.1-.9 1.7-.2.6-.3 1.1-.4 1.4 0 .1-.1.2-.1.3s-.1.2-.1.3v1c-.1.3-.2.7-.2 1 0 .2.1.3.1.4.1.2.1-.1.1-.4V34c0-.2 0-.3.1-.4 0 .4 0 .9.2 1.3.1.2.2.1.3-.1.1-.2.1-.3.1-.5.1-.2.1-.5.2-.7 0-.2 0-.3.1-.5 0-.2 0-.4.1-.6v.4c.2-.7.4-.9.6-1.7 0 0 .1 0 0 .2 0-.1 0-.2.1-.3.1-.1.1-.2.2-.3.1-.1.2-.1.3-.1.1 0 .2-.1.3-.4l.2-.2.1-.1c.2-.4.5-.6.9-.8.3-.1.6-.1.9-.1h-.1c-.1-.3-.1-.3-.3-.3z" class="st10"/><path id="path72" d="M57.4 28.9c-.2-.2 0-.2 0-.3 0-.1 0-.1-.1-.2l-.2-.2c-.1 0-.1 0-.2-.1h-.7c-.1 0-.3.1-.4.1-.3.1-.6.3-.8.5.2-.2.2-.2.1-.2s-.3.1-.3.2c-.5.6-.9 1.2-1.2 1.8-.1.2-.2.2-.3.3.1-.4.2-.7.4-1.1.1-.4.3-.7.5-1 .1-.1.1-.1.1-.2.1-.1.2-.2.3-.2.1-.1.2-.2.3-.2.1-.1.2-.1.3-.2s.2-.1.3-.2c.1 0 .1-.1.2-.1.1-.1.2-.1.3-.2.1 0 .1 0 .1-.1-.1-.1-.1-.1-.2-.1-.2 0-.4.1-.6.2-.1 0-.2.1-.3.1l-.3.2c-.2.1-.4.2-.5.4l-.4.4c0 .1-.1.1-.1.2s0 .1-.1.2c0 .1-.1.2-.1.3l-.3.6c-.1.4.3-.3.4-.4-.2.5-.4 1.1-.6 1.6v.8c0 .1.1.2.1.1.1 0 .1-.2.2-.3.2-.5.5-1 .6-1.6.2-.2-.1.4.1.1V30l.1-.1c.1-.1.1-.2.2-.3-.1.2.1 0 .1.1l.3-.3c.4-.3.8-.5 1.3-.7h.4c.1 0 .2.1.1.1h.3c.2 0 .5.1.7.2l-.1-.1z" class="st11"/><path id="path74" d="M54.9 30.1c-.2.2-.2.3-.3.4-.1 0-.2 0-.3.1 0 .1-.1.2-.2.3-.1.1-.1.2-.1.3.1-.2 0-.2 0-.2-.3.8-.4 1.1-.6 1.7v-.4c0 .2 0 .4-.1.6 0 .2 0 .4-.1.5-.1.2-.1.5-.2.7 0 .2-.1.3-.1.5-.1.2-.2.3-.3.1-.2-.4-.2-.9-.2-1.3 0 .1-.1.2-.1.4v.6c0 .3 0 .6-.1.4 0-.1-.1-.2-.1-.4 0 .5.1 1.1.2 1.6.1.6.3 1.1.5 1.7.1 0 .1 0 0-.2 0-.2-.1-.3-.1-.4v-.3c0-.1 0-.2.1-.3.1-.1.2-.2.2-.7V35c.1-.4.3 0 .4-.4v-.7c.1-.2.2-.1.3-.6 0-.2.1-.3.1-.4s.1-.3.1-.4c.1-.2.2-.3.2-.5.1-.1.2-.2.2-.4l.1-.2.1-.2c.1-.6.3-1.1.6-1.6l-.1.1c0 .3 0 .3-.1.4z" class="st12"/><path id="path76" d="M53.7 33.5c0 .5-.2.4-.3.6-.1.1 0 .7 0 .7-.1.4-.3 0-.4.4v.8c0 .5-.1.6-.2.7 0 .1-.1.1-.1.3v.3c0 .1 0 .3.1.4v.2c-.2-.1.1.5.2.7.1.2.2.3.3.5.1.1.2.3.3.4.1.1.2.2.3.4.1.1.2.3.4.4.1.1.2.2.4.3-.2-.2-.3-.4-.4-.5-.1-.2-.2-.3-.2-.4-.1-.2-.2-.4-.2-.6 0-.2-.1-.4-.1-.6s-.1-.4-.1-.6v-.7c0-.3.3 0 .3-.5-.1-.5-.1-1 0-1.5 0-.2.2-.5.4-.6.1-.1.1-.2.1-.3 0-.2.1-.3.1-.5v-.6c0-.1 0-.2.1-.3v-.1c0-.2 0-.4.1-.5 0-.2 0-.3.1-.5l-.1.2-.1.2c-.1.1-.2.2-.2.4-.1.1-.2.3-.2.5 0 .1-.1.2-.1.4-.5-.3-.5-.2-.5 0z" class="st14"/><path id="path78" d="M61.1 37.3c0-.2.1-.4.1-.6 0-.2.1-.5.2-.7v-.2c-.1.2-.2.4-.3.3-.1.2-.2.5-.2.7-.1.1-.1.2-.2.2l-.2.2c-.1.2-.3.3-.4.5l-.3.3c-.1.1-.2.2-.3.4-.1.1-.2.3-.4.5s-.4.4-.6.5c-.4.3-.4.2-.5.1-.1-.1-.1-.1-.2-.1h-.2c-.1 0-.2 0-.3.1-.2 0-.4.1-.7.1-.2 0-.4-.1-.5-.2 0-.1.1-.1.1-.2v-.1c-.1-.1-.1-.1-.2-.1-.3-.2-.6-.4-.8-.7 0-.1-.1-.1-.1-.2s-.1-.1-.1-.2-.1-.1-.1-.2v-.2c-.1-.2-.1-.5-.1-.7 0-.2.1-.3.1-.4-.2-.6-.4-1.4-.6-2.2-.1.6 0 1.4-.1 1.5-.1 0-.1.1-.2.3v.7c0 .5.1 1.1.3 1.6.1.1.1.3.2.4.1.1.1.2.1.3 0 .1.1.2.1.3s.1.2.2.3l.1.1.1.1.3.3c.1 0 .1.1.2.1.1.1.2.1.3.1.1 0 .2.1.3.1s.3.1.4.1h-1.2c.1.1.1.1.2.1s.2.1.4.1.3.1.5.1h.6c.2 0 .3-.1.5-.1.2-.1.3-.1.4-.2.2-.1.3-.2.5-.2s.3-.1.5-.2.3-.2.5-.3c.5-.4.9-.8 1.1-1.4.1-.2.2-.3.2-.5l.3-.6z" class="st15"/><path id="path80" d="M56.1 39.2c.1.1.1.1.2.1v.1c0 .1-.2.1-.1.2 0 .1.2.1.5.2.2 0 .5 0 .7-.1.1 0 .2-.1.3-.1h.2c.1 0 .1 0 .2.1s.1.2.5-.1c.2-.2.4-.3.6-.5.2-.1.3-.3.4-.5.1-.1.2-.3.3-.4l.3-.3c.1-.2.3-.3.4-.5l.2-.2c.1-.1.1-.2.2-.2.1-.2.2-.5.2-.7l-.1-.1c-.1.1-.2.3-.2.4-.1.2-.2.5-.3.7-.1.1-.1 0-.1-.2V36c-.1.2-.1.3-.2.4 0 .1 0 .1-.1.2v-.1c-.1.2-.2.3-.3.4l-.3.3c0 .1 0 .1-.1.2 0-.1 0-.1.1-.2-.1.1-.2.3-.3.4-.1.2-.2.3-.3.5-.1.1-.2.3-.4.4-.1.1-.1.1-.2.1s-.1.1-.2.1c-.3.2-.7.3-1 .4h-.4c-.1 0-.1-.1-.1-.2h-.4l.1-.1c-.1 0-.1-.1-.2-.1 0-.1 0-.1-.1-.1h.1c.1 0 .1 0 .1.1-.1 0-.1-.1-.2-.1h.1c-.1-.1-.2-.2-.3-.4-.1 0-.1 0-.1-.1.1 0 .1 0 .1.1v-.1h-.1l-.1-.1c-.1-.1-.1-.1-.2-.1-.1-.1-.2-.2-.3-.4v-.4c0-.2-.1-.3-.1-.5-.1.1-.1.2-.1.4s0 .5.1.7v.2c0 .1.1.1.1.2s.1.1.1.2 0 .1.1.2c.1.3.4.6.7.7z" class="st16"/></g></g><path id="path86" d="M58 33.8c-.7 0-1.3-.9-1.3-2.1 0-.5.1-.9.3-1.3-.2-.1-.4-.1-.6-.1-1.3 0-2.3 1.7-2.3 3.8s1 3.8 2.3 3.8 2.3-1.7 2.3-3.8v-.7c-.2.2-.4.3-.7.4z" class="st17"/><path id="path88" d="M58.1 33.6c-1.3-.1-1.2-2.3-.8-3.1 0-.1 0-.2-.1-.2-3.5-1.1-3.8 4.8-2.5 6.7.5.9 1.6 1.3 2.6.8.1 0 .1-.1.2-.1 1.4-.9 1.6-2.9 1.5-4.3 0-.2-.3-.1-.4-.1l-.5.3c-.5 0-.4.4-.1.4.3 0 .6-.2.8-.4-.1 0-.3 0-.4-.1.2 1.2-.1 2.5-.8 3.5-.9 1-2 .5-2.6-.5-.6-1-.7-2.2-.5-3.3.2-1.1.9-3 2.4-2.6 0-.1-.1-.1-.1-.2-.5 1.1-.5 3.4 1.1 3.6.3 0 .5-.4.2-.4z" class="st18"/><path id="path90" d="M50.4 45.5l-5.8 7.6-5.7-7.6 5.7-5.7 5.8 5.7z" class="st0"/><path id="path92" d="M50.2 45.5c-1.9 2.5-3.8 5.1-5.8 7.6h.5c-1.5-2-3.1-4-4.6-6.1-.3-.5-.6-.9-1-1.3-.1-.1-.1-.2-.2-.2.1.2-.1.2.1 0 .4-.3.8-.7 1.1-1.1l1.8-1.8 2.7-2.7h-.5l5.8 5.8c.2.2.6-.1.5-.2l-5.8-5.8c-.2-.1-.3-.1-.5 0l-5.8 5.8c-.1.1-.1.1 0 .2 1.9 2.5 3.8 5.1 5.8 7.6.2.1.3.1.5 0 1.9-2.5 3.8-5.1 5.8-7.6.2-.4-.3-.4-.4-.2z" class="st1"/><path id="path94" fill="#dabd9d" d="M50.1 45.6l-5.4 7.1-.1-12.6 5.5 5.5z"/><path id="path96" fill="#336390" d="M35.6 13.6c-1.5-.7-1.9 0-.5.6 2.5 1.6 4.5 3.6 6.1 6.1 1.4 2.4 2.6 5 3.4 7.7-.3-3-1.3-5.8-2.8-8.4-1.7-2.4-3.8-4.4-6.2-6zm18.5-.8c1.5-.7 1.9 0 .5.6-2.5 1.6-4.5 3.6-6.1 6.1-1.4 2.4-2.6 5-3.4 7.7.3-3 1.3-5.8 2.8-8.4 1.6-2.4 3.7-4.5 6.2-6z"/><path id="path98" d="M38.1 55.7c1.3.6 2.9.6 4.2 0 .1-.1-.3-.8-.6-.7-1.3.6-2.7.6-4 0-.2-.1.2.6.4.7zm8.4 0c1.3.7 2.9.7 4.2 0 .1-.1-.4-.8-.6-.7-1.3.6-2.7.6-4 0-.2-.1.2.6.4.7zm-4 3.5c1.3.7 2.9.7 4.2 0 .1-.1-.4-.8-.6-.7-1.2.7-2.8.7-4 0-.1 0 .3.6.4.7zm-5.9 3.3c1.3.6 2.9.6 4.2 0 .1 0-.3-.8-.6-.7-1.3.5-2.7.5-4 0-.2-.1.2.6.4.7zm11.3-.2c1.3.6 2.9.6 4.2 0 .1-.1-.3-.8-.6-.7-1.3.6-2.7.6-4 0-.2 0 .2.7.4.7z" class="st1"/><g id="g104" fill="#333d4a" fill-opacity="1"><path id="path100" fill="#333d4a" fill-opacity="1" d="M103.1 50.1c0-11.2 7-15.6 12.7-15.6 3.3-.2 6.4 1.2 8.5 3.8v-8.4h-3.8v-4.8h10.7c1 0 1.4.7 1.4 1.9v31.3c.1.8.6 1.4 1.4 1.5h2v4.7h-10c-.8 0-1.4-1.2-1.5-3.3-2.3 2.5-5.6 3.9-9 3.8-6 0-12.4-3.5-12.4-14.9zm21.2 7.6V41.4c-1.7-.8-3.6-1.3-5.5-1.3-3.9 0-7.4 2.3-7.4 9.8 0 8.1 3.3 10.1 6.7 10.1 2.3.1 4.5-.8 6.2-2.3zm12.8-1.7c0-6.2 4.8-9 11.7-9 2-.1 4 .2 6 .7v-3.1c0-3-1.6-4.4-5.1-4.4-2.5-.1-5 .9-6.8 2.6h-3.8v-6c3.9-1.6 8-2.4 12.2-2.3 7.7 0 11.7 2.5 11.7 9.2v14.7c.1.8.6 1.3 1.4 1.4h1.6v3.9c-1.5.8-3.3 1.2-5 1.1-3.4 0-5.2-1.4-5.9-3.7-2.2 2.7-5 3.7-8.6 3.7-5.4.1-9.4-2.9-9.4-8.8zm17.7 2v-6.3c-1.4-.2-2.9-.3-4.3-.3-3.3 0-5.4 1.4-5.4 4.3s1.7 4.4 4.5 4.4c1.9 0 3.8-.8 5.2-2.1zm9.6-23h3.5v-7.9h8.2V35h6v5h-6v16.2c0 3.2 1.1 3.7 4.2 3.7h2v4.4c-1.7.5-3.5.7-5.3.7-5.7 0-9.1-1.8-9.1-7.9V39.9h-3.5V35zm19.1 21c0-6.2 4.8-9 11.7-9 2-.1 4 .2 6 .7v-3.1c0-3-1.6-4.4-5.1-4.4-2.5-.1-5 .9-6.8 2.6h-3.8v-6c3.9-1.6 8-2.4 12.2-2.3 7.7 0 11.7 2.5 11.7 9.2v14.7c.1.8.6 1.3 1.4 1.4h1.6v3.9c-1.5.8-3.3 1.2-5 1.1-3.4 0-5.2-1.4-5.9-3.7-2.2 2.7-5 3.7-8.6 3.7-5.4.1-9.4-2.9-9.4-8.8zm17.7 2v-6.3c-1.4-.2-2.9-.3-4.3-.3-3.3 0-5.4 1.4-5.4 4.3s1.7 4.4 4.5 4.4c1.9 0 3.8-.8 5.2-2.1zm14.4 2.4c-.1-2.5 2-4.6 4.5-4.7s4.6 2 4.7 4.5-2 4.6-4.5 4.7h-.1c-2.5 0-4.6-2-4.6-4.5zm28.3-15.1L238 64.5h-7l-6.7-23.1c-.2-.9-.9-1.5-1.8-1.6h-1.1v-5h13.1v5H232l3.9 14.8h.1l5.7-19.7h6.3l5.7 19.7h.1l3-11c.7-2.6.5-3.7-1.9-3.7h-.8v-5h12.3v5h-1c-1 0-1.9.7-2.1 1.7l-6.7 22.9h-7L244 45.3h-.1zm21.9 4.6c0-9.5 6.9-15.4 15.6-15.4 8.6 0 15.6 5.9 15.6 15.4S290.1 65 281.4 65s-15.6-5.6-15.6-15.1zm22.7.1c0-6.7-3.1-10-7.2-10s-7.2 3.3-7.2 10 3.1 9.8 7.2 9.8 7.2-3.2 7.2-9.8z" class="st3"/><path id="path102" fill="#333d4a" fill-opacity="1" d="M297 59.9h2c.7-.1 1.3-.7 1.4-1.4v-17c-.1-.8-.6-1.4-1.4-1.5h-2.2v-5h10.1c1 0 1.6.8 1.7 4.3 2-2.4 4.3-4.6 8.2-4.6.6 0 1.2.1 1.8.3v6.1h-1.4c-4.3 0-6.9.9-8.5 1.8v17h4.1v4.7H297v-4.7zm22.1 0h2.2c.7-.1 1.3-.7 1.4-1.4v-27c-.1-.8-.6-1.4-1.4-1.5H319v-4.8h10.6c1 0 1.4.7 1.4 1.9v31.5c.1.7.7 1.3 1.4 1.4h2.3v4.7h-15.6v-4.8zm16.1-9.8c0-11.2 7-15.6 12.7-15.6 3.3-.2 6.4 1.2 8.5 3.8v-8.4h-3.8v-4.8h10.7c1 0 1.4.7 1.4 1.9v31.3c.1.8.6 1.4 1.4 1.5h2v4.7h-10c-.8 0-1.4-1.2-1.5-3.3-2.3 2.5-5.6 3.9-9 3.8-6 0-12.4-3.5-12.4-14.9zm21.2 7.6V41.4c-1.7-.8-3.6-1.3-5.5-1.3-3.9 0-7.4 2.3-7.4 9.8 0 8.1 3.3 10.1 6.7 10.1 2.3 0 4.5-.8 6.2-2.3z" class="st3"/></g></svg>