<svg xmlns="http://www.w3.org/2000/svg" role="img" viewBox="30.67 165.91 355.42 64.17"><title>Datameer (Authorization) logo</title><g fill-rule="evenodd"><path fill="#fbfbfb" d="M0.000 200.000 L 0.000 400.000 200.000 400.000 L 400.000 400.000 400.000 200.000 L 400.000 0.000 200.000 0.000 L 0.000 0.000 0.000 200.000 M66.525 173.458 C 67.666 173.820,68.771 174.270,68.980 174.458 C 69.189 174.646,69.602 174.800,69.897 174.800 C 70.771 174.800,74.547 177.782,76.498 180.012 C 78.239 182.003,78.719 182.783,79.814 185.400 C 81.306 188.969,81.097 188.087,82.074 194.935 C 82.411 197.293,82.404 198.828,82.047 201.135 C 81.786 202.821,81.470 204.920,81.345 205.800 C 81.220 206.680,80.956 207.571,80.759 207.780 C 80.562 207.989,80.400 208.444,80.400 208.791 C 80.400 210.228,76.921 216.019,75.021 217.745 C 69.349 222.897,67.761 223.255,51.200 223.114 L 37.800 223.000 37.696 198.400 C 37.639 184.870,37.679 173.575,37.784 173.300 C 38.106 172.456,63.810 172.597,66.525 173.458 M140.738 175.325 C 140.986 175.624,141.223 177.996,141.287 180.825 L 141.400 185.800 144.600 185.912 C 148.597 186.052,148.805 186.276,148.515 190.129 C 148.264 193.457,148.188 193.539,145.597 193.290 C 144.522 193.187,143.175 193.220,142.602 193.364 L 141.560 193.625 141.680 203.371 C 141.823 214.986,141.756 214.800,145.806 214.800 L 148.289 214.800 148.489 216.700 C 148.599 217.745,148.580 219.590,148.445 220.800 L 148.200 223.000 142.367 223.000 C 131.458 223.000,130.856 222.085,130.706 205.281 L 130.600 193.400 127.685 193.282 L 124.769 193.164 124.885 189.682 L 125.000 186.200 127.800 186.000 L 130.600 185.800 130.713 180.825 C 130.855 174.581,130.662 174.800,136.000 174.800 C 139.065 174.800,140.427 174.951,140.738 175.325 M49.467 182.667 C 49.320 182.813,49.200 189.653,49.200 197.867 L 49.200 212.800 55.525 212.800 C 60.990 212.800,62.070 212.693,63.474 212.015 C 65.304 211.131,68.800 207.469,68.800 206.437 C 68.800 206.065,69.025 205.535,69.300 205.260 C 70.036 204.524,69.995 192.533,69.251 190.961 C 67.918 188.142,67.414 187.320,66.244 186.063 C 64.586 184.282,62.461 183.388,58.600 182.845 C 55.077 182.349,49.885 182.248,49.467 182.667 M109.800 185.368 C 115.323 186.218,116.699 186.761,119.008 189.002 C 121.571 191.491,121.522 191.172,121.763 206.800 C 121.863 213.290,122.129 219.320,122.353 220.200 C 122.876 222.252,122.644 222.440,119.342 222.645 C 114.293 222.957,112.002 222.510,111.732 221.159 C 111.505 220.026,110.686 219.613,110.207 220.389 C 109.917 220.857,108.054 221.742,105.600 222.576 C 103.556 223.271,95.240 223.447,94.095 222.819 C 93.713 222.610,92.680 222.119,91.800 221.729 C 88.230 220.146,86.608 217.236,86.603 212.400 C 86.596 205.327,90.196 202.160,99.600 200.965 C 108.921 199.781,110.800 198.948,110.800 196.000 C 110.800 192.603,104.960 190.826,101.143 193.063 C 99.867 193.810,99.633 194.121,98.846 196.112 L 98.407 197.223 93.103 197.112 L 87.800 197.000 87.848 195.470 C 87.892 194.094,88.464 192.498,89.307 191.400 C 90.515 189.829,91.326 189.000,92.103 188.545 C 94.783 186.973,97.556 185.947,100.098 185.586 C 101.668 185.364,103.038 185.096,103.143 184.991 C 103.482 184.652,106.114 184.801,109.800 185.368 M176.958 185.401 C 179.134 185.729,181.114 186.153,181.358 186.344 C 181.601 186.534,182.259 186.799,182.820 186.932 C 183.939 187.199,186.653 189.622,187.600 191.200 C 188.085 192.009,188.249 194.720,188.459 205.400 C 188.602 212.660,188.847 219.381,189.005 220.335 C 189.412 222.803,189.195 222.895,183.730 222.575 C 178.979 222.297,178.951 222.290,178.277 221.115 L 177.600 219.935 176.193 220.805 C 172.701 222.962,163.595 224.185,160.895 222.859 C 160.513 222.671,159.480 222.181,158.600 221.770 C 153.965 219.604,151.747 213.971,153.462 208.726 C 154.170 206.561,157.549 202.800,158.785 202.800 C 159.145 202.800,159.611 202.635,159.820 202.432 C 160.207 202.057,163.872 201.229,166.400 200.945 C 170.652 200.467,175.530 199.389,176.500 198.713 C 179.080 196.913,177.357 192.509,174.000 192.323 C 168.996 192.046,166.537 193.057,165.545 195.801 C 165.267 196.570,164.850 197.212,164.620 197.227 C 162.796 197.345,155.044 197.151,154.768 196.980 C 154.577 196.862,154.529 195.918,154.663 194.883 C 155.559 187.927,165.543 183.681,176.958 185.401 M218.674 185.377 C 222.645 186.217,224.334 187.202,226.103 189.710 C 226.567 190.367,226.706 190.319,228.010 189.053 C 234.104 183.135,246.097 183.989,249.440 190.579 C 251.163 193.976,251.215 194.554,251.105 209.069 L 251.000 223.000 246.600 223.116 C 244.180 223.180,241.795 223.132,241.300 223.009 L 240.400 222.785 240.400 211.925 C 240.400 195.372,240.016 194.200,234.600 194.200 C 228.742 194.200,228.326 195.252,228.031 210.800 L 227.800 223.000 222.833 223.113 C 220.101 223.175,217.698 223.058,217.493 222.853 C 217.281 222.641,217.094 216.952,217.060 209.648 L 217.000 196.815 215.692 195.508 C 213.162 192.977,207.627 194.032,205.845 197.384 C 205.298 198.414,205.184 200.468,205.099 210.800 L 205.000 223.000 199.496 223.111 L 193.992 223.223 194.096 204.711 L 194.200 186.200 198.995 186.086 C 204.285 185.961,204.800 186.173,204.800 188.476 C 204.800 189.897,205.108 189.887,206.719 188.415 C 208.246 187.020,209.932 186.171,212.636 185.434 C 215.277 184.715,215.534 184.712,218.674 185.377 M277.624 185.349 C 279.067 185.651,280.597 186.086,281.024 186.315 C 281.451 186.545,282.438 187.009,283.218 187.346 C 287.710 189.290,291.531 195.855,292.232 202.835 C 292.702 207.507,293.635 207.200,278.986 207.200 L 266.400 207.200 266.419 208.500 C 266.513 214.863,276.892 217.453,281.111 212.165 L 282.200 210.800 286.700 210.800 C 290.803 210.800,291.200 210.865,291.200 211.536 C 291.200 212.978,288.755 217.133,286.868 218.897 C 285.025 220.622,284.023 221.214,280.651 222.575 C 277.460 223.863,266.743 223.126,265.770 221.552 C 265.651 221.358,265.273 221.200,264.932 221.200 C 263.410 221.200,259.259 217.092,257.858 214.200 C 255.829 210.011,254.827 199.812,256.300 198.340 C 256.575 198.065,256.813 197.471,256.829 197.020 C 256.845 196.569,257.203 195.660,257.623 195.000 C 258.044 194.340,258.553 193.431,258.754 192.981 C 259.768 190.706,264.240 187.315,267.600 186.273 C 272.876 184.636,273.807 184.550,277.624 185.349 M318.790 185.424 C 327.383 187.217,333.200 194.543,333.200 203.571 C 333.200 207.425,334.038 207.200,319.720 207.200 L 307.200 207.200 307.200 208.139 C 307.200 214.846,319.221 217.654,322.448 211.700 C 322.909 210.849,323.179 210.800,327.444 210.800 C 332.771 210.800,332.807 210.833,331.213 214.173 C 329.187 218.417,326.275 220.931,321.429 222.620 C 319.513 223.288,310.191 223.432,309.800 222.800 C 309.664 222.580,309.266 222.400,308.916 222.400 C 306.379 222.400,300.549 217.740,298.908 214.400 C 294.120 204.654,297.439 191.387,305.624 187.556 C 306.381 187.202,307.480 186.684,308.067 186.406 C 309.114 185.910,313.423 184.941,315.000 184.848 C 315.440 184.822,317.145 185.081,318.790 185.424 M360.174 185.190 C 361.197 185.579,361.200 185.595,361.200 190.390 L 361.200 195.200 358.061 195.200 C 350.033 195.200,348.827 197.407,348.450 212.800 L 348.200 223.000 343.000 223.000 L 337.800 223.000 337.689 205.400 C 337.552 183.624,336.954 186.000,342.565 186.000 C 347.668 186.000,347.600 185.959,347.600 189.033 C 347.600 190.337,347.757 190.800,348.200 190.800 C 348.530 190.800,348.800 190.635,348.800 190.434 C 348.800 189.178,353.990 185.643,355.876 185.614 C 356.358 185.606,356.864 185.420,357.000 185.200 C 357.315 184.691,358.848 184.686,360.174 185.190 M375.916 185.560 C 380.276 187.793,380.356 193.634,376.051 195.436 C 374.414 196.121,373.086 196.153,371.895 195.538 C 371.403 195.284,370.730 194.955,370.400 194.808 C 369.209 194.276,368.339 191.926,368.564 189.845 C 368.971 186.079,372.693 183.909,375.916 185.560 M373.400 186.400 C 373.259 186.628,373.604 186.800,374.200 186.800 C 374.796 186.800,375.141 186.628,375.000 186.400 C 374.864 186.180,374.504 186.000,374.200 186.000 C 373.896 186.000,373.536 186.180,373.400 186.400 M370.789 188.221 C 370.075 189.554,370.155 191.715,370.960 192.864 C 371.569 193.734,371.600 193.619,371.600 190.489 C 371.600 186.846,371.570 186.762,370.789 188.221 M373.475 188.258 C 372.909 188.825,373.229 189.600,374.029 189.600 C 374.589 189.600,374.817 189.383,374.729 188.933 C 374.587 188.197,373.904 187.830,373.475 188.258 M377.200 188.669 C 377.200 189.036,376.901 189.667,376.537 190.070 C 375.756 190.933,376.341 192.800,377.391 192.800 C 377.869 192.800,378.000 192.282,378.000 190.400 C 378.000 189.067,377.822 188.000,377.600 188.000 C 377.380 188.000,377.200 188.301,377.200 188.669 M373.200 192.508 C 373.200 193.452,373.419 193.999,373.867 194.170 C 375.422 194.767,375.389 192.919,373.822 191.618 C 373.279 191.168,373.200 191.282,373.200 192.508 M270.600 193.744 C 268.482 194.977,267.569 195.780,267.009 196.901 C 266.361 198.200,266.203 199.592,266.700 199.613 C 269.898 199.748,279.234 199.787,279.900 199.668 C 281.799 199.328,280.287 195.669,277.514 193.895 C 276.251 193.087,271.893 192.992,270.600 193.744 M311.400 193.865 C 308.546 195.369,305.913 199.483,307.700 199.646 C 315.242 200.333,322.124 199.854,321.784 198.665 C 320.433 193.946,315.538 191.683,311.400 193.865 M106.200 206.601 C 104.880 206.902,103.080 207.166,102.200 207.188 C 96.049 207.337,95.248 215.047,101.310 215.754 C 106.730 216.385,109.842 213.850,110.088 208.600 C 110.219 205.787,110.080 205.715,106.200 206.601 M174.000 206.440 C 173.010 206.631,171.120 206.908,169.800 207.055 C 161.955 207.929,161.676 215.705,169.489 215.705 C 174.552 215.705,176.608 213.837,176.857 209.011 C 177.018 205.868,177.008 205.859,174.000 206.440"/><path fill="#27282e" d="M38.400 198.000 L 38.400 222.800 50.846 222.800 C 63.416 222.800,65.067 222.641,68.095 221.144 C 68.477 220.955,68.974 220.800,69.201 220.800 C 71.140 220.800,78.800 212.853,78.800 210.841 C 78.800 210.592,78.964 210.077,79.165 209.695 C 81.543 205.162,82.122 192.918,80.164 188.540 C 79.854 187.846,79.603 187.126,79.606 186.940 C 79.645 184.820,73.355 177.315,70.400 175.956 C 64.341 173.170,64.557 173.200,50.887 173.200 L 38.400 173.200 38.400 198.000 M131.729 176.255 C 131.389 176.394,131.321 177.639,131.485 180.746 C 131.782 186.387,131.573 186.800,128.410 186.800 C 125.744 186.800,125.489 187.023,125.486 189.352 C 125.482 193.032,125.289 192.800,128.348 192.800 L 131.097 192.800 131.325 195.100 C 131.450 196.365,131.572 201.540,131.595 206.600 C 131.659 220.884,133.095 222.820,143.600 222.795 C 147.468 222.786,147.528 222.734,147.600 219.395 C 147.699 214.816,147.946 215.202,144.900 215.187 C 140.683 215.168,140.763 215.408,140.893 203.116 L 141.000 193.000 144.261 192.884 L 147.522 192.769 147.661 191.054 C 147.971 187.234,147.794 187.015,144.302 186.883 C 140.390 186.736,140.310 186.607,140.475 180.784 C 140.571 177.418,140.477 176.360,140.067 176.203 C 139.403 175.950,132.371 175.994,131.729 176.255 M60.836 182.352 C 61.366 182.568,62.278 182.846,62.861 182.970 C 64.116 183.237,67.938 186.162,68.294 187.128 C 68.430 187.497,68.645 187.890,68.771 188.000 C 71.004 189.949,71.660 202.543,69.718 206.200 C 69.484 206.640,69.061 207.496,68.778 208.102 C 67.563 210.700,64.686 212.706,60.919 213.581 C 58.431 214.159,49.535 214.039,49.106 213.422 C 48.718 212.865,48.712 182.226,49.100 181.817 C 49.502 181.394,59.616 181.854,60.836 182.352 M100.600 186.264 C 94.981 186.940,90.075 190.242,88.911 194.134 C 88.084 196.897,87.935 196.800,92.981 196.800 L 97.563 196.800 98.330 195.064 C 100.247 190.730,108.849 189.837,111.220 193.726 C 112.509 195.840,112.048 198.626,110.256 199.557 C 108.646 200.393,105.401 201.191,103.600 201.195 C 100.931 201.199,93.877 202.823,91.800 203.910 C 86.490 206.691,85.456 215.321,89.934 219.495 C 93.548 222.864,102.315 223.739,106.895 221.187 C 107.277 220.974,107.862 220.800,108.195 220.800 C 108.528 220.800,108.801 220.665,108.803 220.500 C 108.805 220.166,111.065 218.800,111.614 218.800 C 111.806 218.800,112.082 219.430,112.226 220.200 L 112.489 221.600 117.202 221.600 L 121.916 221.600 121.484 220.100 C 121.239 219.249,120.954 212.975,120.826 205.600 C 120.605 192.862,120.581 192.567,119.653 190.947 C 117.454 187.109,109.609 185.181,100.600 186.264 M167.400 186.238 C 160.796 187.177,155.200 191.463,155.200 195.581 L 155.200 196.800 160.000 196.800 C 164.606 196.800,164.800 196.766,164.800 195.962 C 164.800 192.160,172.421 189.817,176.528 192.355 C 179.707 194.320,178.929 199.438,175.334 200.211 C 174.711 200.346,173.787 200.623,173.281 200.828 C 172.776 201.032,171.516 201.200,170.481 201.199 C 167.778 201.197,160.747 202.795,158.600 203.899 C 153.601 206.468,152.246 214.324,156.014 218.892 C 159.847 223.538,170.496 223.983,176.271 219.738 C 177.809 218.607,178.688 218.855,179.125 220.543 L 179.451 221.800 183.225 221.840 C 188.083 221.891,188.999 221.721,188.311 220.893 C 187.924 220.428,187.775 217.106,187.699 207.239 C 187.586 192.736,187.048 189.267,184.900 189.213 C 184.625 189.206,184.400 189.047,184.400 188.861 C 184.400 188.559,183.505 188.122,180.000 186.710 C 178.963 186.292,169.508 185.938,167.400 186.238 M212.800 186.245 C 211.158 186.554,207.618 188.509,206.182 189.900 C 204.398 191.628,204.000 191.541,204.000 189.424 C 204.000 188.447,203.811 187.530,203.579 187.387 C 202.931 186.986,196.713 186.880,195.696 187.252 L 194.792 187.583 194.896 205.092 L 195.000 222.600 199.400 222.600 L 203.800 222.600 204.031 211.000 C 204.287 198.149,204.322 197.902,206.225 195.679 C 208.512 193.007,213.395 192.430,215.850 194.542 C 217.798 196.217,217.987 197.610,217.994 210.310 L 218.000 222.020 218.900 222.349 C 219.914 222.721,226.132 222.613,226.779 222.213 C 227.056 222.042,227.200 218.418,227.200 211.631 C 227.200 196.167,228.496 192.874,234.600 192.826 C 240.279 192.781,241.163 195.100,241.184 210.092 L 241.200 221.985 242.172 222.229 C 242.707 222.363,244.552 222.373,246.272 222.251 C 247.992 222.130,249.625 222.023,249.900 222.015 C 250.584 221.994,250.611 197.999,249.931 194.567 C 249.249 191.128,246.251 187.200,244.307 187.200 C 244.006 187.200,243.567 187.007,243.331 186.771 C 242.484 185.924,235.420 185.808,233.310 186.607 C 231.215 187.400,229.004 188.901,227.871 190.300 C 226.867 191.540,226.368 191.437,224.929 189.697 C 222.579 186.856,217.395 185.380,212.800 186.245 M270.800 186.234 C 252.389 189.534,251.185 217.264,269.246 222.035 C 273.152 223.067,280.227 222.566,281.780 221.147 C 281.989 220.956,282.413 220.800,282.722 220.800 C 284.669 220.800,289.120 215.608,290.182 212.100 C 290.622 210.644,282.756 210.701,282.092 212.159 C 280.881 214.815,272.953 217.466,271.800 215.600 C 271.664 215.380,271.191 215.200,270.750 215.200 C 268.584 215.200,265.600 211.299,265.600 208.468 C 265.600 205.956,265.365 206.001,278.580 205.994 C 291.995 205.987,291.824 206.020,291.453 203.541 C 291.309 202.584,291.092 201.080,290.971 200.200 C 290.715 198.342,290.527 197.821,288.964 194.641 C 287.611 191.886,284.811 188.913,282.574 187.856 C 281.709 187.446,280.674 186.943,280.276 186.737 C 279.479 186.326,272.389 185.949,270.800 186.234 M310.800 186.437 C 310.030 186.661,308.950 186.950,308.400 187.079 C 302.860 188.380,297.200 196.919,297.200 203.979 C 297.200 218.391,311.909 227.334,324.373 220.501 C 327.305 218.894,331.600 213.500,331.600 211.425 C 331.600 210.786,323.569 211.217,323.318 211.869 C 321.223 217.329,309.930 217.050,307.447 211.478 C 305.013 206.017,305.052 206.000,319.627 206.000 C 330.859 206.000,332.049 205.937,332.282 205.329 C 332.604 204.492,331.687 197.936,331.176 197.420 C 330.969 197.211,330.800 196.707,330.800 196.301 C 330.800 190.344,318.391 184.224,310.800 186.437 M355.841 186.278 C 353.396 186.933,350.281 189.305,348.455 191.905 C 347.201 193.690,346.800 193.233,346.800 190.020 C 346.800 186.788,346.731 186.745,342.000 187.014 C 340.350 187.107,338.865 187.187,338.700 187.192 C 338.535 187.196,338.400 195.210,338.400 205.000 L 338.400 222.800 343.000 222.800 L 347.600 222.800 347.600 212.814 C 347.600 197.659,349.190 194.685,357.313 194.646 L 360.825 194.629 360.713 190.414 L 360.600 186.200 358.600 186.138 C 357.500 186.103,356.259 186.166,355.841 186.278 M372.441 191.220 L 372.482 193.000 372.814 191.600 C 373.009 190.781,372.992 190.042,372.773 189.820 C 372.541 189.584,372.415 190.114,372.441 191.220 M278.463 193.645 C 280.567 195.143,282.546 199.213,281.621 200.140 C 281.128 200.633,268.711 200.989,266.700 200.567 C 263.431 199.881,267.364 193.272,271.400 192.668 C 273.675 192.328,277.321 192.832,278.463 193.645 M319.844 193.820 C 321.060 194.735,322.400 196.967,322.400 198.080 C 322.400 198.388,322.573 198.813,322.783 199.023 C 324.193 200.433,309.620 201.695,307.158 200.377 C 305.641 199.566,307.345 195.372,309.861 193.723 C 312.253 192.156,317.701 192.209,319.844 193.820 M111.116 207.612 C 111.387 213.699,107.218 217.428,101.084 216.584 C 95.166 215.770,94.707 207.627,100.526 206.673 C 107.496 205.530,108.865 205.269,109.098 205.035 C 110.155 203.979,111.003 205.061,111.116 207.612 M177.928 207.200 C 178.274 213.185,175.253 216.547,169.528 216.547 C 164.588 216.547,161.991 213.834,163.400 210.145 C 164.475 207.328,165.403 206.888,172.200 205.966 C 173.960 205.728,175.578 205.361,175.795 205.151 C 176.891 204.093,177.798 204.964,177.928 207.200"/><path fill="#797c7f" d="M38.188 198.000 C 38.188 211.750,38.238 217.375,38.300 210.500 C 38.361 203.625,38.361 192.375,38.300 185.500 C 38.238 178.625,38.188 184.250,38.188 198.000 M66.600 174.285 C 67.040 174.391,67.571 174.640,67.780 174.839 C 67.989 175.037,68.439 175.199,68.780 175.198 C 69.121 175.196,68.884 174.926,68.254 174.598 C 67.624 174.269,66.814 174.021,66.454 174.046 C 65.993 174.079,66.037 174.150,66.600 174.285 M69.600 175.360 C 69.600 175.449,70.275 175.902,71.100 176.368 L 72.600 177.216 71.400 176.210 C 70.299 175.287,69.600 174.957,69.600 175.360 M131.462 175.900 C 131.360 176.065,133.402 176.200,136.000 176.200 C 138.598 176.200,140.640 176.065,140.538 175.900 C 140.436 175.735,138.394 175.600,136.000 175.600 C 133.606 175.600,131.564 175.735,131.462 175.900 M140.551 181.200 C 140.551 183.730,140.616 184.765,140.696 183.500 C 140.775 182.235,140.775 180.165,140.696 178.900 C 140.616 177.635,140.551 178.670,140.551 181.200 M74.585 179.112 C 76.573 181.204,77.594 181.980,76.162 180.312 C 75.129 179.109,74.741 178.732,73.588 177.812 C 73.044 177.379,73.493 177.964,74.585 179.112 M131.342 182.200 C 131.341 184.180,131.408 185.040,131.492 184.112 C 131.576 183.184,131.577 181.564,131.495 180.512 C 131.412 179.460,131.343 180.220,131.342 182.200 M49.067 181.867 C 48.920 182.013,48.803 182.328,48.806 182.567 C 48.810 182.836,48.929 182.816,49.120 182.516 C 49.314 182.210,50.821 181.983,53.214 181.899 L 57.000 181.766 53.167 181.683 C 51.058 181.637,49.213 181.720,49.067 181.867 M77.663 183.017 C 78.123 183.796,78.586 184.347,78.693 184.240 C 78.883 184.050,77.299 181.600,76.986 181.600 C 76.899 181.600,77.203 182.238,77.663 183.017 M59.200 182.400 C 60.742 182.894,61.564 182.894,60.800 182.400 C 60.470 182.187,59.750 182.027,59.200 182.046 L 58.200 182.080 59.200 182.400 M62.433 182.928 C 63.069 183.415,65.600 184.736,65.600 184.581 C 65.600 184.313,63.082 182.803,62.633 182.801 C 62.432 182.801,62.342 182.857,62.433 182.928 M67.029 186.038 C 67.673 186.829,68.281 187.408,68.379 187.325 C 68.478 187.242,67.951 186.595,67.209 185.887 L 65.858 184.600 67.029 186.038 M104.100 185.891 C 104.925 185.978,106.275 185.978,107.100 185.891 C 107.925 185.805,107.250 185.734,105.600 185.734 C 103.950 185.734,103.275 185.805,104.100 185.891 M170.500 185.891 C 171.325 185.978,172.675 185.978,173.500 185.891 C 174.325 185.805,173.650 185.734,172.000 185.734 C 170.350 185.734,169.675 185.805,170.500 185.891 M214.905 185.887 C 215.514 185.979,216.414 185.977,216.905 185.882 C 217.397 185.787,216.900 185.711,215.800 185.714 C 214.700 185.717,214.297 185.795,214.905 185.887 M236.707 185.890 C 237.426 185.979,238.506 185.977,239.107 185.886 C 239.708 185.795,239.120 185.722,237.800 185.724 C 236.480 185.726,235.988 185.801,236.707 185.890 M273.107 185.890 C 273.826 185.979,274.906 185.977,275.507 185.886 C 276.108 185.795,275.520 185.722,274.200 185.724 C 272.880 185.726,272.388 185.801,273.107 185.890 M314.307 185.890 C 315.026 185.979,316.106 185.977,316.707 185.886 C 317.308 185.795,316.720 185.722,315.400 185.724 C 314.080 185.726,313.588 185.801,314.307 185.890 M357.905 185.883 C 358.402 185.979,359.122 185.975,359.505 185.875 C 359.887 185.775,359.480 185.696,358.600 185.701 C 357.720 185.705,357.407 185.787,357.905 185.883 M97.400 186.652 C 96.416 187.133,96.380 187.192,97.200 186.977 C 97.750 186.833,99.010 186.579,100.000 186.411 L 101.800 186.107 100.200 186.086 C 99.320 186.074,98.060 186.329,97.400 186.652 M111.400 186.411 C 112.280 186.582,113.450 186.840,114.000 186.983 C 114.638 187.149,114.512 187.019,113.654 186.622 C 112.914 186.280,111.744 186.023,111.054 186.050 C 109.885 186.097,109.908 186.121,111.400 186.411 M128.231 186.371 C 126.263 186.534,125.410 186.773,125.281 187.200 C 125.135 187.684,125.202 187.704,125.630 187.300 C 125.927 187.020,127.169 186.800,128.456 186.800 C 129.719 186.800,130.864 186.620,131.000 186.400 C 131.136 186.180,131.192 186.032,131.124 186.071 C 131.056 186.109,129.754 186.244,128.231 186.371 M141.119 186.480 C 141.274 186.635,142.750 186.815,144.398 186.880 C 147.365 186.999,147.397 187.012,147.666 188.200 C 147.931 189.367,147.936 189.362,147.869 188.000 L 147.800 186.600 144.318 186.400 C 142.403 186.290,140.963 186.326,141.119 186.480 M164.000 186.659 C 162.708 187.178,162.693 187.203,163.800 186.982 C 164.460 186.850,165.810 186.599,166.800 186.425 L 168.600 186.107 167.000 186.101 C 166.120 186.098,164.770 186.349,164.000 186.659 M178.200 186.411 C 179.080 186.582,180.250 186.840,180.800 186.983 C 181.438 187.149,181.312 187.019,180.454 186.622 C 179.714 186.280,178.544 186.023,177.854 186.050 C 176.685 186.097,176.708 186.121,178.200 186.411 M232.400 186.600 C 231.094 187.347,231.551 187.355,233.254 186.616 C 233.994 186.294,234.330 186.031,234.000 186.030 C 233.670 186.029,232.950 186.286,232.400 186.600 M268.000 186.642 C 267.353 187.039,267.282 187.155,267.800 186.970 C 268.240 186.813,269.320 186.553,270.200 186.392 L 271.800 186.100 270.400 186.064 C 269.630 186.044,268.550 186.304,268.000 186.642 M277.700 186.276 C 278.085 186.376,278.715 186.376,279.100 186.276 C 279.485 186.175,279.170 186.093,278.400 186.093 C 277.630 186.093,277.315 186.175,277.700 186.276 M309.000 186.652 C 307.735 187.270,307.960 187.243,311.000 186.411 C 312.093 186.111,312.111 186.081,311.200 186.073 C 310.650 186.069,309.660 186.329,309.000 186.652 M195.100 186.825 C 194.360 187.264,193.970 222.087,194.700 222.538 C 194.865 222.640,194.951 214.818,194.892 205.155 L 194.784 187.586 195.692 187.254 C 196.756 186.864,202.942 186.993,203.631 187.419 C 203.928 187.603,204.035 187.505,203.919 187.156 C 203.690 186.465,196.181 186.184,195.100 186.825 M338.445 186.946 C 338.119 187.339,338.022 192.465,338.100 205.246 L 338.209 223.000 338.304 205.100 C 338.357 195.255,338.535 187.196,338.700 187.192 C 338.865 187.187,340.350 187.107,342.000 187.014 C 346.731 186.745,346.800 186.788,346.800 190.020 C 346.800 193.220,347.211 193.704,348.404 191.905 C 349.145 190.787,349.155 190.729,348.471 191.500 C 347.310 192.807,347.200 192.667,347.200 189.880 C 347.200 188.453,346.992 187.152,346.720 186.880 C 346.015 186.175,339.039 186.231,338.445 186.946 M115.600 187.350 C 115.600 187.444,116.241 187.899,117.024 188.361 C 117.807 188.823,118.336 189.020,118.199 188.798 C 117.931 188.364,115.600 187.066,115.600 187.350 M183.000 187.874 C 183.660 188.227,184.325 188.710,184.478 188.947 C 184.631 189.183,184.877 189.257,185.023 189.110 C 185.308 188.825,182.873 187.193,182.200 187.218 C 181.980 187.225,182.340 187.521,183.000 187.874 M207.800 188.210 L 206.600 189.216 208.100 188.368 C 208.925 187.902,209.600 187.449,209.600 187.360 C 209.600 186.957,208.901 187.287,207.800 188.210 M223.290 188.102 C 223.889 188.596,224.834 189.540,225.389 190.200 C 225.945 190.860,226.399 191.261,226.400 191.091 C 226.400 190.585,223.136 187.200,222.649 187.202 C 222.402 187.203,222.690 187.608,223.290 188.102 M229.800 188.235 L 228.600 189.266 229.900 188.406 C 230.615 187.933,231.200 187.468,231.200 187.373 C 231.200 187.073,231.031 187.178,229.800 188.235 M246.614 188.616 C 247.502 189.487,248.541 190.650,248.923 191.200 L 249.618 192.200 249.047 191.000 C 248.497 189.845,247.493 188.793,245.800 187.597 C 245.360 187.287,245.726 187.745,246.614 188.616 M264.378 188.361 C 262.434 189.630,261.035 190.865,259.800 192.403 C 259.360 192.952,260.085 192.390,261.412 191.156 C 262.738 189.922,264.403 188.612,265.112 188.246 C 265.820 187.879,266.400 187.494,266.400 187.390 C 266.400 187.072,266.222 187.158,264.378 188.361 M282.000 187.360 C 282.000 187.449,282.675 187.902,283.500 188.368 L 285.000 189.216 283.800 188.210 C 282.699 187.287,282.000 186.957,282.000 187.360 M372.414 187.974 C 371.938 188.863,371.851 192.661,372.300 192.938 C 372.465 193.040,372.535 192.308,372.456 191.311 C 372.351 189.993,372.440 189.578,372.783 189.789 C 373.042 189.950,373.142 190.378,373.004 190.740 C 372.802 191.269,372.853 191.301,373.256 190.900 C 373.533 190.625,374.039 190.403,374.380 190.406 C 374.880 190.411,374.895 190.479,374.457 190.756 C 374.085 190.992,374.052 191.185,374.351 191.370 C 374.597 191.522,375.139 191.063,375.592 190.320 C 376.557 188.737,376.576 188.553,375.800 188.255 C 375.364 188.088,375.200 188.302,375.200 189.039 C 375.200 189.909,375.044 190.035,374.100 189.927 C 372.744 189.771,372.242 187.800,373.477 187.480 C 374.118 187.314,374.123 187.288,373.514 187.246 C 373.137 187.221,372.642 187.548,372.414 187.974 M324.600 188.273 C 326.158 189.843,328.854 192.015,327.800 190.852 C 327.140 190.123,326.060 189.154,325.400 188.699 C 324.740 188.243,324.380 188.052,324.600 188.273 M369.361 190.318 C 369.408 193.124,370.333 194.800,371.833 194.800 C 372.407 194.800,372.740 194.627,372.600 194.400 C 372.464 194.180,372.034 194.000,371.644 194.000 C 370.603 194.000,369.791 192.151,369.860 189.938 C 369.894 188.872,369.786 188.000,369.622 188.000 C 369.457 188.000,369.340 189.043,369.361 190.318 M302.832 190.300 C 300.611 192.385,297.982 196.480,298.032 197.776 C 298.053 198.326,298.129 198.401,298.260 198.000 C 299.047 195.600,300.918 192.654,302.894 190.700 C 305.703 187.923,305.660 187.645,302.832 190.300 M91.956 189.200 C 91.602 189.407,90.821 190.257,90.220 191.088 L 89.128 192.600 90.295 191.371 C 90.936 190.695,91.893 189.840,92.420 189.471 C 93.426 188.766,93.063 188.554,91.956 189.200 M157.521 190.300 C 156.954 190.905,156.198 192.030,155.840 192.800 C 155.482 193.570,155.416 193.859,155.694 193.442 C 155.972 193.025,156.784 191.900,157.497 190.942 C 158.988 188.940,158.996 188.723,157.521 190.300 M205.443 190.040 C 205.026 190.445,204.531 190.681,204.343 190.564 C 204.154 190.448,204.000 190.543,204.000 190.776 C 204.000 191.009,204.188 191.200,204.417 191.200 C 204.911 191.200,206.618 189.677,206.371 189.456 C 206.277 189.372,205.859 189.635,205.443 190.040 M285.200 189.278 C 285.200 189.375,285.854 190.162,286.653 191.027 C 287.824 192.294,287.944 192.360,287.272 191.364 C 286.478 190.189,285.200 188.902,285.200 189.278 M119.663 191.017 C 120.123 191.796,120.586 192.347,120.693 192.240 C 120.883 192.050,119.299 189.600,118.986 189.600 C 118.899 189.600,119.203 190.238,119.663 191.017 M147.709 191.200 C 147.709 192.190,147.787 192.595,147.882 192.100 C 147.978 191.605,147.978 190.795,147.882 190.300 C 147.787 189.805,147.709 190.210,147.709 191.200 M70.101 192.600 C 70.105 193.480,70.187 193.793,70.283 193.295 C 70.379 192.798,70.375 192.078,70.275 191.695 C 70.175 191.313,70.096 191.720,70.101 192.600 M80.880 192.400 C 80.880 192.950,81.024 193.850,81.200 194.400 L 81.520 195.400 81.520 194.400 C 81.520 193.850,81.376 192.950,81.200 192.400 L 80.880 191.400 80.880 192.400 M100.976 192.230 C 100.549 192.576,100.454 192.727,100.765 192.566 C 101.076 192.404,101.886 192.139,102.565 191.977 C 103.700 191.706,103.718 191.679,102.776 191.641 C 102.214 191.618,101.404 191.883,100.976 192.230 M107.787 191.895 C 108.440 191.991,109.520 192.431,110.187 192.872 L 111.400 193.673 110.278 192.637 C 109.507 191.925,108.755 191.619,107.878 191.660 L 106.600 191.720 107.787 191.895 M166.782 192.513 C 165.855 193.243,164.798 194.897,164.816 195.589 C 164.824 195.925,165.073 195.646,165.368 194.968 C 165.663 194.291,166.421 193.352,167.052 192.881 C 167.683 192.410,168.020 192.025,167.800 192.025 C 167.580 192.025,167.122 192.245,166.782 192.513 M273.105 192.683 C 273.602 192.779,274.322 192.775,274.705 192.675 C 275.087 192.575,274.680 192.496,273.800 192.501 C 272.920 192.505,272.607 192.587,273.105 192.683 M314.100 192.676 C 314.485 192.776,315.115 192.776,315.500 192.676 C 315.885 192.575,315.570 192.493,314.800 192.493 C 314.030 192.493,313.715 192.575,314.100 192.676 M99.258 193.331 C 98.717 193.981,97.516 196.800,97.779 196.800 C 97.883 196.800,98.400 195.900,98.926 194.800 C 99.929 192.705,99.985 192.454,99.258 193.331 M140.962 193.354 C 140.845 193.659,140.819 194.694,140.905 195.654 L 141.060 197.400 141.130 195.329 C 141.184 193.730,141.360 193.217,141.900 193.076 C 142.556 192.904,142.555 192.890,141.887 192.846 C 141.496 192.821,141.079 193.049,140.962 193.354 M177.213 193.020 C 177.206 193.251,177.369 193.611,177.576 193.820 C 177.783 194.029,178.020 195.100,178.104 196.200 L 178.256 198.200 178.328 196.176 C 178.373 194.916,178.179 193.860,177.813 193.376 C 177.490 192.949,177.220 192.789,177.213 193.020 M231.800 193.396 C 231.140 193.687,230.151 194.438,229.601 195.063 L 228.603 196.200 229.801 195.148 C 231.893 193.313,234.505 192.847,237.400 193.794 C 237.953 193.974,237.891 193.866,237.200 193.442 C 235.986 192.697,233.430 192.675,231.800 193.396 M268.772 193.784 C 267.313 194.741,265.763 196.696,266.153 197.086 C 266.272 197.206,266.594 196.813,266.867 196.213 C 267.141 195.611,268.268 194.604,269.382 193.965 C 270.492 193.328,271.130 192.816,270.800 192.827 C 270.470 192.838,269.557 193.269,268.772 193.784 M278.265 193.948 C 279.137 194.580,280.150 195.705,280.516 196.448 C 280.922 197.273,281.185 197.523,281.191 197.089 C 281.201 196.306,277.899 192.800,277.151 192.800 C 276.892 192.800,277.393 193.317,278.265 193.948 M310.146 193.567 C 308.735 194.428,306.799 196.785,306.802 197.638 C 306.804 197.947,307.086 197.660,307.430 197.001 C 308.371 195.197,309.234 194.363,311.000 193.552 C 311.880 193.148,312.330 192.814,312.000 192.810 C 311.670 192.806,310.836 193.147,310.146 193.567 M318.760 193.488 C 319.508 193.857,320.476 194.760,320.910 195.496 C 321.344 196.232,321.786 196.747,321.893 196.640 C 322.484 196.050,319.096 192.788,317.914 192.809 C 317.631 192.814,318.012 193.120,318.760 193.488 M88.446 194.439 C 88.201 195.143,88.013 195.918,88.028 196.160 C 88.044 196.402,88.314 195.896,88.630 195.035 C 88.945 194.174,89.133 193.400,89.048 193.315 C 88.962 193.229,88.692 193.735,88.446 194.439 M209.400 193.596 C 208.902 193.808,209.431 193.851,210.800 193.712 C 212.010 193.589,213.075 193.423,213.167 193.344 C 213.511 193.047,210.167 193.270,209.400 193.596 M120.904 205.600 C 120.878 212.310,120.979 218.110,121.128 218.488 C 121.381 219.127,121.333 200.528,121.069 195.600 C 121.004 194.390,120.930 198.890,120.904 205.600 M187.778 206.000 C 187.778 212.930,187.833 215.765,187.899 212.300 C 187.966 208.835,187.966 203.165,187.899 199.700 C 187.833 196.235,187.778 199.070,187.778 206.000 M214.649 194.175 C 215.335 194.474,216.190 195.137,216.549 195.648 C 216.907 196.160,217.200 196.374,217.200 196.125 C 217.200 195.472,214.861 193.597,214.069 193.616 C 213.701 193.624,213.962 193.876,214.649 194.175 M258.432 194.339 C 257.779 195.560,257.914 195.900,258.641 194.863 C 258.993 194.360,259.188 193.854,259.073 193.740 C 258.959 193.625,258.670 193.895,258.432 194.339 M111.454 195.679 C 111.682 197.399,111.600 197.662,110.482 198.779 C 109.263 199.999,109.235 200.408,110.435 199.487 C 111.865 198.389,112.470 195.740,111.597 194.400 C 111.328 193.988,111.283 194.390,111.454 195.679 M206.231 195.672 C 205.444 196.592,204.801 197.537,204.803 197.772 C 204.804 198.007,205.159 197.660,205.591 197.000 C 206.023 196.340,206.876 195.396,207.488 194.902 C 208.100 194.408,208.389 194.003,208.131 194.002 C 207.873 194.001,207.018 194.752,206.231 195.672 M238.872 194.608 C 240.460 196.483,240.592 197.517,240.813 209.800 L 241.028 221.800 241.114 210.133 C 241.206 197.610,240.982 195.980,238.955 194.401 C 238.233 193.840,238.230 193.849,238.872 194.608 M70.600 198.397 C 70.600 200.579,70.722 202.058,70.872 201.683 C 71.021 201.307,71.144 199.830,71.144 198.400 C 71.144 196.970,71.021 195.492,70.872 195.114 C 70.722 194.737,70.600 196.215,70.600 198.397 M250.324 208.161 L 250.447 221.898 249.524 222.064 C 249.016 222.156,246.953 222.224,244.939 222.215 C 242.925 222.207,241.361 222.335,241.463 222.500 C 241.744 222.957,249.144 222.858,250.026 222.386 C 250.820 221.961,251.227 197.023,250.472 195.112 C 250.322 194.734,250.256 200.606,250.324 208.161 M356.300 194.682 C 356.795 194.778,357.605 194.778,358.100 194.682 C 358.595 194.587,358.190 194.509,357.200 194.509 C 356.210 194.509,355.805 194.587,356.300 194.682 M351.933 195.809 C 351.126 196.337,350.326 197.002,350.156 197.285 C 349.914 197.688,349.972 197.698,350.425 197.333 C 350.743 197.076,351.812 196.403,352.802 195.838 C 353.791 195.272,354.330 194.818,354.000 194.828 C 353.670 194.839,352.740 195.280,351.933 195.809 M131.293 196.800 C 131.293 197.570,131.375 197.885,131.476 197.500 C 131.576 197.115,131.576 196.485,131.476 196.100 C 131.375 195.715,131.293 196.030,131.293 196.800 M330.816 196.476 C 330.807 196.848,330.980 197.264,331.200 197.400 C 331.420 197.536,331.625 198.132,331.654 198.724 C 331.700 199.632,331.736 199.663,331.879 198.923 C 331.973 198.441,331.776 197.541,331.441 196.923 C 331.034 196.172,330.827 196.024,330.816 196.476 M81.693 197.600 C 81.693 198.370,81.775 198.685,81.876 198.300 C 81.976 197.915,81.976 197.285,81.876 196.900 C 81.775 196.515,81.693 196.830,81.693 197.600 M217.500 209.137 C 217.613 222.508,217.644 222.811,218.908 222.775 L 219.800 222.749 218.900 222.388 L 218.000 222.026 217.994 210.113 C 217.991 203.561,217.856 197.992,217.694 197.737 C 217.532 197.483,217.445 202.613,217.500 209.137 M256.849 198.000 C 256.816 198.330,256.689 199.050,256.567 199.600 C 256.375 200.464,256.407 200.503,256.799 199.888 C 257.048 199.497,257.175 198.777,257.081 198.288 C 256.986 197.800,256.882 197.670,256.849 198.000 M281.279 198.600 C 281.334 199.040,281.239 199.625,281.066 199.900 C 280.887 200.186,280.939 200.400,281.189 200.400 C 281.867 200.400,282.115 199.327,281.622 198.524 C 281.205 197.845,281.184 197.850,281.279 198.600 M204.318 198.900 C 204.082 199.187,203.842 222.719,204.078 222.481 C 204.326 222.230,204.744 198.799,204.500 198.800 C 204.445 198.800,204.363 198.845,204.318 198.900 M297.473 199.353 C 297.323 199.745,297.211 200.366,297.225 200.733 C 297.242 201.175,297.381 201.074,297.637 200.434 C 297.849 199.903,297.961 199.282,297.885 199.054 C 297.809 198.827,297.624 198.961,297.473 199.353 M322.400 199.334 C 322.400 200.247,321.515 200.394,315.467 200.487 L 309.800 200.574 315.000 200.706 C 321.656 200.875,324.735 200.196,322.783 198.989 C 322.572 198.859,322.400 199.014,322.400 199.334 M131.278 207.800 C 131.242 212.640,131.344 216.808,131.506 217.063 C 131.668 217.318,131.752 214.168,131.692 210.063 C 131.531 198.882,131.352 197.906,131.278 207.800 M290.868 200.000 C 290.862 200.550,291.011 201.360,291.200 201.800 L 291.544 202.600 291.532 201.800 C 291.526 201.360,291.376 200.550,291.200 200.000 L 290.880 199.000 290.868 200.000 M306.400 199.557 C 306.400 200.152,307.921 200.882,308.721 200.672 C 309.223 200.539,309.173 200.481,308.529 200.446 C 308.049 200.421,307.374 200.117,307.029 199.771 C 306.683 199.426,306.400 199.329,306.400 199.557 M140.895 206.400 C 140.824 213.654,141.160 215.200,142.808 215.200 C 143.073 215.200,142.864 214.856,142.344 214.436 C 141.432 213.699,141.393 213.428,141.182 206.536 L 140.964 199.400 140.895 206.400 M107.106 200.228 C 106.981 200.353,106.006 200.602,104.939 200.781 C 103.570 201.010,103.353 201.118,104.200 201.147 C 104.860 201.169,106.210 200.933,107.200 200.621 C 108.190 200.309,108.625 200.041,108.167 200.027 C 107.708 200.012,107.231 200.102,107.106 200.228 M332.147 202.800 L 332.200 205.800 319.800 205.902 C 306.597 206.012,306.334 206.052,306.432 207.976 C 306.449 208.319,306.638 208.124,306.851 207.542 L 307.239 206.484 319.682 206.427 C 326.525 206.396,332.277 206.276,332.462 206.161 C 332.876 205.906,332.837 202.174,332.407 200.800 C 332.202 200.146,332.112 200.838,332.147 202.800 M348.200 200.800 C 348.050 201.273,348.017 201.750,348.127 201.860 C 348.237 201.970,348.450 201.673,348.600 201.200 C 348.750 200.727,348.783 200.250,348.673 200.140 C 348.563 200.030,348.350 200.327,348.200 200.800 M81.000 202.000 C 80.846 202.910,80.811 203.744,80.921 203.854 C 81.031 203.964,81.246 203.310,81.400 202.400 C 81.554 201.490,81.589 200.656,81.479 200.546 C 81.369 200.436,81.154 201.090,81.000 202.000 M171.000 200.800 L 169.400 201.086 171.000 201.137 C 171.880 201.165,172.870 201.013,173.200 200.800 C 173.915 200.338,173.581 200.338,171.000 200.800 M227.196 211.182 L 227.000 222.164 226.000 222.442 L 225.000 222.720 226.113 222.760 C 227.653 222.815,227.626 223.042,227.503 210.994 L 227.393 200.200 227.196 211.182 M271.718 200.698 C 273.433 200.773,276.133 200.772,277.718 200.697 C 279.303 200.621,277.900 200.559,274.600 200.560 C 271.300 200.561,270.003 200.622,271.718 200.698 M256.142 204.200 C 256.141 206.180,256.208 207.040,256.292 206.112 C 256.376 205.184,256.377 203.564,256.295 202.512 C 256.212 201.460,256.143 202.220,256.142 204.200 M98.800 201.600 C 97.996 201.857,97.957 201.923,98.600 201.932 C 99.040 201.938,99.760 201.789,100.200 201.600 C 101.219 201.162,100.168 201.162,98.800 201.600 M165.400 201.600 L 164.600 201.944 165.400 201.944 C 165.840 201.944,166.560 201.789,167.000 201.600 L 167.800 201.256 167.000 201.256 C 166.560 201.256,165.840 201.411,165.400 201.600 M160.800 202.633 C 159.265 203.261,159.911 203.205,163.200 202.424 C 164.580 202.097,164.583 202.092,163.400 202.076 C 162.740 202.068,161.570 202.319,160.800 202.633 M347.774 212.400 C 347.774 218.010,347.830 220.305,347.899 217.500 C 347.968 214.695,347.968 210.105,347.899 207.300 C 347.830 204.495,347.774 206.790,347.774 212.400 M70.093 204.000 C 70.093 204.770,70.175 205.085,70.276 204.700 C 70.376 204.315,70.376 203.685,70.276 203.300 C 70.175 202.915,70.093 203.230,70.093 204.000 M156.751 204.842 C 155.467 206.046,155.383 206.180,156.438 205.342 C 157.229 204.714,158.219 203.986,158.638 203.724 C 159.057 203.461,159.198 203.236,158.951 203.224 C 158.705 203.211,157.715 203.939,156.751 204.842 M109.067 205.067 C 108.902 205.232,107.919 205.496,106.883 205.654 L 105.000 205.941 106.800 205.806 C 107.790 205.732,109.116 205.540,109.747 205.380 L 110.893 205.089 110.710 208.044 C 110.610 209.670,110.398 211.360,110.238 211.800 C 110.079 212.240,110.239 212.100,110.593 211.490 C 112.093 208.903,110.775 203.358,109.067 205.067 M175.858 205.107 C 175.738 205.301,176.036 205.446,176.520 205.430 C 177.351 205.402,177.399 205.561,177.374 208.319 C 177.357 210.155,177.475 211.009,177.693 210.620 C 178.887 208.486,177.095 203.104,175.858 205.107 M278.834 205.900 C 265.257 206.025,265.568 205.958,265.663 208.749 L 265.726 210.600 265.963 208.600 L 266.200 206.600 278.564 206.516 C 286.480 206.462,291.077 206.283,291.344 206.016 C 291.573 205.787,291.589 205.642,291.380 205.694 C 291.171 205.746,285.525 205.838,278.834 205.900 M87.996 207.300 C 87.560 208.015,87.202 208.765,87.201 208.967 C 87.200 209.423,87.256 209.348,88.314 207.500 C 89.366 205.663,89.097 205.494,87.996 207.300 M102.200 206.419 C 101.642 206.671,101.885 206.707,103.000 206.538 C 103.880 206.404,104.675 206.228,104.767 206.147 C 105.110 205.844,102.968 206.071,102.200 206.419 M169.000 206.400 L 168.200 206.744 169.000 206.732 C 169.440 206.726,170.250 206.576,170.800 206.400 L 171.800 206.080 170.800 206.068 C 170.250 206.062,169.440 206.211,169.000 206.400 M98.500 207.470 C 98.005 207.815,97.603 208.301,97.606 208.549 C 97.611 208.875,97.693 208.878,97.906 208.558 C 98.068 208.315,98.740 207.827,99.400 207.474 C 100.060 207.121,100.330 206.834,100.000 206.837 C 99.670 206.840,98.995 207.124,98.500 207.470 M154.432 207.539 C 154.195 207.984,154.001 208.584,154.002 208.874 C 154.004 209.163,154.277 208.878,154.610 208.240 C 154.942 207.603,155.136 207.002,155.040 206.906 C 154.943 206.810,154.670 207.095,154.432 207.539 M164.906 207.901 C 163.409 209.300,162.560 211.682,163.201 212.687 C 163.595 213.305,163.626 213.267,163.439 212.402 C 163.119 210.920,164.560 208.265,166.101 207.498 C 166.840 207.130,167.117 206.840,166.742 206.826 C 166.381 206.812,165.554 207.295,164.906 207.901 M297.246 207.600 C 297.227 208.150,297.387 208.870,297.600 209.200 C 298.094 209.964,298.094 209.142,297.600 207.600 L 297.280 206.600 297.246 207.600 M68.800 207.491 C 68.800 207.725,67.989 208.774,66.999 209.823 C 65.141 211.790,64.789 212.433,66.210 211.266 C 67.436 210.258,69.346 207.612,69.056 207.322 C 68.915 207.182,68.800 207.258,68.800 207.491 M79.646 208.676 C 79.621 209.158,79.420 209.664,79.200 209.800 C 78.980 209.936,78.800 210.257,78.800 210.513 C 78.800 210.769,79.083 210.575,79.428 210.082 C 79.773 209.589,79.974 208.873,79.874 208.493 C 79.737 207.967,79.682 208.011,79.646 208.676 M256.456 208.600 C 256.456 209.040,256.611 209.760,256.800 210.200 L 257.144 211.000 257.144 210.200 C 257.144 209.760,256.989 209.040,256.800 208.600 L 256.456 207.800 256.456 208.600 M153.728 212.400 C 153.728 213.830,153.801 214.415,153.889 213.700 C 153.978 212.985,153.978 211.815,153.889 211.100 C 153.801 210.385,153.728 210.970,153.728 212.400 M86.920 212.400 C 86.920 213.610,86.995 214.105,87.087 213.500 C 87.178 212.895,87.178 211.905,87.087 211.300 C 86.995 210.695,86.920 211.190,86.920 212.400 M96.256 211.000 C 96.129 211.329,96.188 212.004,96.387 212.500 C 96.702 213.281,96.753 213.202,96.775 211.900 C 96.802 210.309,96.633 210.017,96.256 211.000 M281.442 212.593 C 281.084 213.139,280.118 213.941,279.296 214.375 C 278.473 214.809,278.053 215.173,278.362 215.182 C 279.099 215.205,281.474 213.383,282.009 212.384 C 282.606 211.269,282.215 211.412,281.442 212.593 M307.612 211.869 C 307.598 212.396,310.730 215.200,311.332 215.200 C 311.545 215.200,310.987 214.669,310.091 214.020 C 309.195 213.371,308.274 212.516,308.043 212.120 C 307.813 211.724,307.619 211.611,307.612 211.869 M63.200 212.633 C 62.642 212.943,62.465 213.185,62.800 213.181 C 63.130 213.178,63.749 212.910,64.176 212.587 C 65.139 211.859,64.545 211.887,63.200 212.633 M321.796 213.204 C 321.166 213.862,320.748 214.400,320.867 214.400 C 321.237 214.400,323.299 212.366,323.115 212.182 C 323.020 212.086,322.426 212.546,321.796 213.204 M49.018 213.304 C 49.261 213.935,58.757 214.286,60.288 213.720 C 60.839 213.516,58.952 213.345,55.305 213.268 C 52.076 213.200,49.294 213.058,49.122 212.952 C 48.950 212.845,48.903 213.004,49.018 213.304 M108.819 214.105 L 107.895 215.400 109.026 214.312 C 109.649 213.714,110.064 213.131,109.950 213.017 C 109.836 212.903,109.327 213.393,108.819 214.105 M288.925 214.832 C 288.450 215.700,288.229 216.306,288.434 216.179 C 288.877 215.905,290.118 213.584,289.924 213.391 C 289.850 213.316,289.400 213.965,288.925 214.832 M96.800 213.910 C 96.800 214.624,99.214 216.402,100.131 216.364 C 100.777 216.337,100.673 216.233,99.725 215.959 C 99.024 215.756,98.079 215.118,97.625 214.541 C 97.171 213.964,96.800 213.680,96.800 213.910 M163.600 213.910 C 163.600 214.624,166.014 216.402,166.931 216.364 C 167.577 216.337,167.473 216.233,166.525 215.959 C 165.824 215.756,164.879 215.118,164.425 214.541 C 163.971 213.964,163.600 213.680,163.600 213.910 M299.210 213.805 C 299.267 216.079,307.433 222.614,309.287 221.869 C 309.617 221.737,309.558 221.652,309.120 221.632 C 307.108 221.538,302.351 218.084,300.545 215.405 C 299.805 214.308,299.204 213.588,299.210 213.805 M329.663 215.383 C 329.203 216.162,328.899 216.800,328.986 216.800 C 329.299 216.800,330.883 214.350,330.693 214.160 C 330.586 214.053,330.123 214.604,329.663 215.383 M75.748 215.824 C 75.379 216.387,73.935 217.663,72.538 218.659 C 71.142 219.655,70.000 220.561,70.000 220.672 C 70.000 221.137,75.032 217.225,75.927 216.064 C 76.464 215.369,76.794 214.800,76.660 214.800 C 76.527 214.800,76.117 215.261,75.748 215.824 M154.036 215.840 C 153.998 216.727,155.743 219.387,157.027 220.400 C 157.445 220.730,157.111 220.197,156.284 219.216 C 155.456 218.235,154.620 216.885,154.426 216.216 C 154.166 215.323,154.063 215.223,154.036 215.840 M173.887 215.446 C 173.751 215.582,173.046 215.833,172.320 216.005 C 171.172 216.277,171.133 216.323,172.024 216.359 C 172.586 216.382,173.396 216.136,173.824 215.813 C 174.251 215.490,174.495 215.220,174.367 215.213 C 174.238 215.206,174.022 215.311,173.887 215.446 M271.863 215.700 C 272.100 216.086,276.454 216.081,277.062 215.694 C 277.316 215.532,276.209 215.400,274.601 215.400 C 272.993 215.400,271.761 215.535,271.863 215.700 M312.938 215.694 C 313.509 216.057,317.153 216.042,318.085 215.672 C 318.462 215.522,317.354 215.400,315.623 215.400 C 313.892 215.400,312.684 215.532,312.938 215.694 M260.049 216.781 C 260.529 217.430,261.209 218.071,261.561 218.205 C 261.912 218.339,261.580 217.808,260.822 217.025 C 259.144 215.291,258.888 215.210,260.049 216.781 M101.905 216.683 C 102.402 216.779,103.122 216.775,103.505 216.675 C 103.887 216.575,103.480 216.496,102.600 216.501 C 101.720 216.505,101.407 216.587,101.905 216.683 M168.900 216.676 C 169.285 216.776,169.915 216.776,170.300 216.676 C 170.685 216.575,170.370 216.493,169.600 216.493 C 168.830 216.493,168.515 216.575,168.900 216.676 M147.677 219.467 C 147.627 221.323,147.424 222.404,147.100 222.535 C 146.708 222.693,146.711 222.744,147.113 222.768 C 147.877 222.816,148.057 221.991,147.898 219.158 L 147.754 216.600 147.677 219.467 M327.143 218.509 C 326.341 219.219,325.351 220.014,324.943 220.276 C 324.534 220.539,324.408 220.764,324.661 220.776 C 324.915 220.789,325.995 219.997,327.061 219.016 C 329.278 216.976,329.346 216.558,327.143 218.509 M132.000 218.369 C 132.000 219.146,135.089 222.002,135.917 221.991 C 136.308 221.986,136.033 221.702,135.271 221.327 C 134.540 220.967,133.505 220.029,132.971 219.243 C 132.437 218.457,132.000 218.064,132.000 218.369 M284.984 219.511 C 283.638 220.717,283.981 220.611,285.754 219.272 C 286.389 218.792,286.749 218.405,286.554 218.411 C 286.359 218.417,285.653 218.912,284.984 219.511 M109.901 219.537 C 109.296 219.901,108.801 220.332,108.801 220.494 C 108.800 220.656,109.372 220.440,110.072 220.015 C 110.771 219.589,111.491 219.333,111.672 219.444 C 111.852 219.556,112.000 219.457,112.000 219.224 C 112.000 218.634,111.198 218.754,109.901 219.537 M176.749 219.500 C 176.244 220.143,176.260 220.153,176.943 219.615 C 177.728 218.998,178.800 219.828,178.800 221.053 C 178.800 221.328,178.968 221.657,179.174 221.784 C 179.406 221.927,179.409 221.528,179.182 220.736 C 178.633 218.823,177.666 218.331,176.749 219.500 M262.601 219.202 C 262.869 219.636,265.200 220.934,265.200 220.650 C 265.200 220.556,264.559 220.101,263.776 219.639 C 262.993 219.177,262.464 218.980,262.601 219.202 M89.578 219.739 C 90.361 220.729,95.795 223.139,96.240 222.694 C 96.357 222.576,95.767 222.266,94.927 222.005 C 93.073 221.430,91.338 220.616,90.000 219.697 C 89.039 219.036,89.023 219.038,89.578 219.739 M188.028 219.876 C 188.013 220.358,188.180 220.864,188.400 221.000 C 188.873 221.292,188.873 220.901,188.400 219.800 C 188.069 219.029,188.055 219.031,188.028 219.876 M112.134 220.800 L 112.200 221.800 117.000 221.818 L 121.800 221.837 117.126 221.706 C 112.672 221.582,112.443 221.534,112.261 220.688 C 112.096 219.926,112.078 219.942,112.134 220.800 M68.200 221.200 C 68.064 221.420,67.558 221.608,67.076 221.618 C 66.594 221.628,65.660 221.900,65.000 222.222 C 63.716 222.850,63.878 222.833,67.149 222.004 C 68.537 221.652,69.779 220.800,68.904 220.800 C 68.653 220.800,68.336 220.980,68.200 221.200 M107.000 221.200 C 106.864 221.420,106.358 221.621,105.876 221.646 C 105.211 221.682,105.167 221.737,105.693 221.874 C 106.073 221.974,106.789 221.773,107.282 221.428 C 107.775 221.083,107.969 220.800,107.713 220.800 C 107.457 220.800,107.136 220.980,107.000 221.200 M172.800 221.425 C 171.909 221.762,171.691 221.958,172.200 221.963 C 172.640 221.968,173.450 221.714,174.000 221.400 C 175.222 220.701,174.683 220.713,172.800 221.425 M266.400 221.400 C 266.950 221.714,267.670 221.971,268.000 221.970 C 268.330 221.969,267.994 221.706,267.254 221.384 C 265.551 220.645,265.094 220.653,266.400 221.400 M182.505 221.887 C 183.114 221.979,184.014 221.977,184.505 221.882 C 184.997 221.787,184.500 221.711,183.400 221.714 C 182.300 221.717,181.897 221.795,182.505 221.887 M102.600 222.400 L 101.800 222.744 102.600 222.744 C 103.040 222.744,103.760 222.589,104.200 222.400 L 105.000 222.056 104.200 222.056 C 103.760 222.056,103.040 222.211,102.600 222.400 M137.400 222.400 C 137.840 222.589,138.560 222.744,139.000 222.744 L 139.800 222.744 139.000 222.400 C 138.560 222.211,137.840 222.056,137.400 222.056 L 136.600 222.056 137.400 222.400 M169.200 222.400 C 168.396 222.657,168.357 222.723,169.000 222.732 C 169.440 222.738,170.160 222.589,170.600 222.400 C 171.619 221.962,170.568 221.962,169.200 222.400 M269.400 222.400 C 270.596 222.914,271.595 222.914,270.800 222.400 C 270.470 222.187,269.840 222.022,269.400 222.034 L 268.600 222.056 269.400 222.400 M277.400 222.400 L 276.600 222.744 277.400 222.744 C 277.840 222.744,278.560 222.589,279.000 222.400 L 279.800 222.056 279.000 222.056 C 278.560 222.056,277.840 222.211,277.400 222.400 M310.600 222.400 C 311.040 222.589,311.670 222.744,312.000 222.744 C 312.378 222.744,312.304 222.617,311.800 222.400 C 311.360 222.211,310.730 222.056,310.400 222.056 C 310.022 222.056,310.096 222.183,310.600 222.400 M318.600 222.400 C 317.511 222.677,317.493 222.707,318.400 222.725 C 318.950 222.735,319.760 222.589,320.200 222.400 C 321.186 221.976,320.266 221.976,318.600 222.400 M221.905 222.683 C 222.402 222.779,223.122 222.775,223.505 222.675 C 223.887 222.575,223.480 222.496,222.600 222.501 C 221.720 222.505,221.407 222.587,221.905 222.683"/><path fill="#9d9fa2" d="M37.784 173.300 C 37.294 174.580,37.806 222.935,38.310 223.037 C 38.590 223.094,38.636 223.049,38.410 222.937 C 37.760 222.614,37.849 173.328,38.500 173.065 C 38.892 172.907,38.889 172.856,38.487 172.832 C 38.206 172.814,37.889 173.025,37.784 173.300 M63.200 173.189 C 64.410 173.338,66.203 173.754,67.184 174.112 C 68.166 174.471,69.047 174.687,69.142 174.592 C 69.237 174.497,69.064 174.331,68.757 174.224 C 65.503 173.084,64.342 172.819,62.800 172.865 L 61.000 172.918 63.200 173.189 M70.224 175.387 C 71.239 176.156,71.834 176.163,71.200 175.400 C 70.926 175.070,70.420 174.800,70.075 174.800 C 69.572 174.800,69.602 174.917,70.224 175.387 M131.262 175.325 C 131.014 175.624,130.777 177.996,130.713 180.825 L 130.600 185.800 127.800 186.000 L 125.000 186.200 124.884 189.700 C 124.821 191.625,124.911 193.200,125.084 193.201 C 125.258 193.201,125.342 191.671,125.271 189.801 L 125.141 186.400 127.928 186.400 C 131.320 186.400,131.200 186.621,131.200 180.367 L 131.200 175.600 136.000 175.600 L 140.800 175.600 140.806 180.500 C 140.814 186.530,140.690 186.336,144.612 186.482 L 147.800 186.600 147.919 189.591 C 148.018 192.062,147.918 192.671,147.343 193.091 C 146.615 193.623,147.068 193.805,147.849 193.294 C 148.502 192.867,148.844 187.408,148.266 186.641 C 147.928 186.194,146.917 185.993,144.600 185.912 L 141.400 185.800 141.287 180.825 C 141.145 174.581,141.338 174.800,136.000 174.800 C 132.935 174.800,131.573 174.951,131.262 175.325 M72.000 176.305 C 72.000 176.503,72.471 176.917,73.046 177.224 C 74.442 177.972,77.443 181.348,78.281 183.115 C 78.652 183.896,79.027 184.319,79.115 184.054 C 79.295 183.515,77.798 181.367,75.639 179.066 C 73.957 177.274,72.000 175.789,72.000 176.305 M49.462 182.300 C 49.360 182.465,51.014 182.601,53.138 182.601 C 55.262 182.602,58.170 182.731,59.600 182.888 L 62.200 183.173 59.400 182.611 C 56.406 182.010,49.769 181.802,49.462 182.300 M48.992 198.000 L 49.000 213.000 55.600 213.016 L 62.200 213.032 55.705 212.906 L 49.210 212.780 49.097 197.890 L 48.985 183.000 48.992 198.000 M65.709 185.566 C 67.812 187.513,69.452 190.632,69.724 193.200 C 69.864 194.527,69.875 194.513,69.936 192.924 C 69.971 192.002,69.843 191.150,69.652 191.032 C 69.460 190.914,69.200 190.298,69.073 189.664 C 68.849 188.544,65.075 184.000,64.369 184.000 C 64.176 184.000,64.779 184.705,65.709 185.566 M79.873 186.400 C 80.221 187.390,80.643 188.740,80.811 189.400 L 81.118 190.600 81.159 189.324 C 81.182 188.622,81.020 187.936,80.800 187.800 C 80.580 187.664,80.400 187.238,80.400 186.853 C 80.400 186.468,80.139 185.804,79.821 185.376 C 79.349 184.745,79.359 184.935,79.873 186.400 M103.126 185.007 C 103.013 185.121,101.864 185.346,100.573 185.507 C 98.984 185.705,100.603 185.800,105.589 185.800 C 112.763 185.800,112.870 185.788,109.776 185.330 C 106.322 184.819,103.454 184.680,103.126 185.007 M168.000 185.250 C 164.819 185.818,162.688 186.421,162.948 186.682 C 163.073 186.806,163.765 186.658,164.487 186.354 C 165.436 185.954,167.730 185.800,172.759 185.800 C 179.546 185.800,179.838 185.462,173.400 185.059 C 171.640 184.948,169.210 185.035,168.000 185.250 M212.477 185.470 C 209.974 186.139,207.093 187.676,206.886 188.452 C 206.786 188.823,206.846 188.855,207.070 188.552 C 210.175 184.347,222.437 184.976,225.359 189.491 C 226.352 191.025,226.659 191.085,227.653 189.939 C 228.703 188.728,228.583 188.489,227.457 189.547 L 226.514 190.433 225.789 189.316 C 223.575 185.907,217.453 184.138,212.477 185.470 M234.452 185.412 C 233.271 185.700,232.101 186.152,231.852 186.417 C 231.509 186.782,231.628 186.780,232.351 186.408 C 234.394 185.354,241.257 185.470,244.200 186.608 C 244.776 186.831,244.886 186.793,244.594 186.473 C 243.454 185.224,237.697 184.621,234.452 185.412 M270.701 185.348 C 268.982 185.757,269.305 185.800,274.101 185.801 C 277.835 185.801,279.695 185.963,280.400 186.350 C 280.997 186.677,281.221 186.708,280.957 186.426 C 279.795 185.189,273.948 184.574,270.701 185.348 M311.422 185.445 C 309.893 185.749,308.453 186.204,308.222 186.457 C 307.909 186.799,308.007 186.833,308.600 186.591 C 316.557 183.343,326.724 187.071,330.428 194.596 C 331.137 196.037,331.795 197.139,331.889 197.044 C 331.983 196.950,331.552 195.824,330.930 194.542 C 327.472 187.411,319.722 183.797,311.422 185.445 M357.000 185.200 C 356.864 185.420,356.358 185.606,355.876 185.614 C 354.117 185.641,350.768 187.746,349.200 189.810 C 348.870 190.244,349.357 189.933,350.282 189.117 C 353.466 186.311,358.966 184.644,360.591 185.993 C 361.022 186.351,361.200 186.364,361.200 186.039 C 361.200 185.085,357.525 184.351,357.000 185.200 M371.800 185.552 C 368.080 187.260,367.158 193.361,370.400 194.808 C 370.730 194.955,371.403 195.284,371.895 195.538 C 373.839 196.543,376.812 195.667,378.300 193.652 C 381.446 189.389,376.599 183.349,371.800 185.552 M96.400 186.400 C 95.867 186.745,95.867 186.788,96.400 186.788 C 96.730 186.788,97.270 186.613,97.600 186.400 C 98.133 186.055,98.133 186.012,97.600 186.012 C 97.270 186.012,96.730 186.187,96.400 186.400 M113.200 186.122 C 113.200 186.241,113.875 186.558,114.700 186.827 C 116.998 187.576,119.516 189.477,120.383 191.120 C 120.889 192.078,121.171 192.341,121.182 191.865 C 121.205 190.942,117.195 186.983,115.937 186.686 C 115.422 186.564,114.595 186.339,114.100 186.186 C 113.605 186.032,113.200 186.004,113.200 186.122 M194.267 186.267 C 194.120 186.413,194.000 194.783,194.000 204.867 L 194.000 223.200 195.100 223.146 C 196.043 223.099,196.072 223.066,195.300 222.918 L 194.400 222.744 194.400 204.815 C 194.400 188.835,194.469 186.859,195.033 186.643 C 196.284 186.162,203.483 186.377,203.924 186.908 C 204.155 187.187,204.402 188.194,204.472 189.145 L 204.600 190.873 205.594 189.737 C 206.141 189.112,206.330 188.825,206.014 189.100 C 205.145 189.857,204.800 189.707,204.800 188.574 C 204.800 186.182,204.408 186.000,199.253 186.000 C 196.657 186.000,194.413 186.120,194.267 186.267 M337.797 186.900 C 337.676 187.395,337.628 195.720,337.689 205.400 L 337.800 223.000 339.000 223.058 C 340.148 223.113,340.152 223.108,339.096 222.931 L 337.992 222.746 338.096 204.673 L 338.200 186.600 342.367 186.485 C 347.227 186.351,347.185 186.321,347.194 189.970 C 347.200 192.481,347.217 192.522,347.940 191.770 C 348.502 191.185,348.550 190.969,348.140 190.871 C 347.789 190.787,347.600 190.132,347.600 189.003 C 347.600 185.963,347.662 186.000,342.565 186.000 C 338.178 186.000,338.007 186.032,337.797 186.900 M372.400 186.600 C 372.674 186.930,373.371 187.214,373.949 187.232 L 375.000 187.263 373.878 187.672 C 372.396 188.213,372.484 189.800,373.996 189.800 C 374.782 189.800,375.035 189.555,375.196 188.637 C 375.380 187.590,375.454 187.540,375.949 188.137 C 376.392 188.672,376.404 189.024,376.012 189.970 C 375.746 190.614,375.646 191.514,375.791 191.971 C 376.084 192.895,375.413 193.131,375.065 192.226 C 374.944 191.911,374.436 191.433,373.936 191.166 C 373.094 190.715,373.107 190.773,374.114 191.970 C 375.268 193.342,375.423 193.815,374.836 194.178 C 374.176 194.585,373.201 193.930,373.168 193.057 C 373.151 192.586,373.046 192.425,372.935 192.700 C 372.319 194.226,371.912 192.938,372.082 190.000 C 372.209 187.807,372.128 186.800,371.823 186.800 C 371.092 186.800,369.997 188.344,370.046 189.305 C 370.089 190.122,370.110 190.130,370.294 189.400 C 371.001 186.597,371.600 187.056,371.600 190.400 C 371.600 193.744,371.001 194.203,370.294 191.400 C 370.110 190.670,370.089 190.678,370.046 191.495 C 369.989 192.600,371.131 194.000,372.089 194.000 C 372.480 194.000,372.800 194.180,372.800 194.400 C 372.800 195.194,370.918 194.777,369.976 193.775 C 368.501 192.204,368.611 188.858,370.193 187.207 C 371.515 185.828,371.714 185.773,372.400 186.600 M375.000 186.400 C 375.141 186.628,374.796 186.800,374.200 186.800 C 373.604 186.800,373.259 186.628,373.400 186.400 C 373.536 186.180,373.896 186.000,374.200 186.000 C 374.504 186.000,374.864 186.180,375.000 186.400 M93.438 187.800 C 92.628 188.350,91.818 188.800,91.638 188.800 C 91.459 188.800,90.972 189.270,90.556 189.844 C 90.140 190.419,89.620 191.094,89.400 191.344 C 87.991 192.949,87.253 196.797,88.310 197.028 C 88.591 197.090,88.635 197.049,88.410 196.937 C 86.359 195.919,90.446 189.668,94.600 187.468 C 95.260 187.118,95.600 186.825,95.356 186.816 C 95.112 186.807,94.249 187.250,93.438 187.800 M159.828 187.875 C 157.229 189.575,154.793 192.468,154.809 193.838 C 154.814 194.294,155.112 193.958,155.552 193.000 C 156.473 190.991,158.037 189.428,160.600 187.956 C 161.700 187.324,162.330 186.816,162.000 186.827 C 161.670 186.838,160.693 187.310,159.828 187.875 M183.121 187.502 C 183.841 187.888,185.053 188.813,185.815 189.558 C 186.577 190.303,187.200 190.783,187.200 190.625 C 187.200 189.825,183.418 186.800,182.417 186.800 C 182.085 186.800,182.401 187.116,183.121 187.502 M229.700 187.470 C 229.205 187.815,228.800 188.263,228.800 188.465 C 228.800 188.666,229.025 188.638,229.300 188.402 C 229.575 188.166,230.160 187.715,230.600 187.399 C 231.040 187.084,231.220 186.829,231.000 186.834 C 230.780 186.838,230.195 187.124,229.700 187.470 M246.634 188.083 C 250.545 191.518,250.876 193.258,250.722 209.600 L 250.600 222.600 246.032 222.714 C 240.320 222.856,240.813 223.969,240.806 210.931 C 240.798 196.097,240.293 194.378,235.741 193.658 C 231.447 192.979,227.894 195.860,228.064 199.884 L 228.128 201.400 228.283 200.000 C 228.728 195.971,230.658 194.200,234.600 194.200 C 240.016 194.200,240.400 195.372,240.400 211.925 L 240.400 222.785 241.300 223.009 C 241.795 223.132,244.180 223.180,246.600 223.116 L 251.000 223.000 251.105 209.069 C 251.228 192.747,250.911 190.998,247.284 188.008 C 245.325 186.394,244.780 186.456,246.634 188.083 M263.200 188.468 C 261.990 189.383,260.508 190.687,259.906 191.366 C 257.926 193.601,258.753 193.152,261.403 190.553 C 262.835 189.149,264.230 187.994,264.503 187.987 C 265.249 187.968,266.701 186.800,265.976 186.802 C 265.659 186.803,264.410 187.552,263.200 188.468 M283.853 188.176 C 286.676 190.077,288.555 192.404,289.971 195.753 C 290.633 197.319,291.180 198.307,291.187 197.949 C 291.239 195.307,286.595 188.954,283.474 187.397 C 281.536 186.430,281.670 186.705,283.853 188.176 M304.600 188.164 C 301.641 190.121,297.385 195.518,298.176 196.309 C 298.293 196.427,298.674 195.841,299.022 195.008 C 299.871 192.977,303.336 189.372,305.800 187.957 C 306.900 187.325,307.530 186.815,307.200 186.824 C 306.870 186.833,305.700 187.436,304.600 188.164 M374.729 188.933 C 374.817 189.383,374.589 189.600,374.029 189.600 C 373.573 189.600,373.200 189.360,373.200 189.067 C 373.200 187.842,374.496 187.728,374.729 188.933 M378.000 190.400 C 378.000 192.282,377.869 192.800,377.391 192.800 C 376.341 192.800,375.756 190.933,376.537 190.070 C 376.901 189.667,377.200 189.036,377.200 188.669 C 377.200 188.301,377.380 188.000,377.600 188.000 C 377.822 188.000,378.000 189.067,378.000 190.400 M81.450 192.800 C 81.775 195.041,82.002 195.360,81.994 193.567 C 81.991 192.815,81.808 191.930,81.588 191.600 C 81.309 191.181,81.267 191.542,81.450 192.800 M100.291 193.229 C 99.471 193.905,98.800 194.746,98.800 195.098 C 98.800 195.449,98.485 196.092,98.100 196.527 C 97.549 197.148,97.528 197.277,98.000 197.128 C 98.330 197.025,98.803 196.326,99.051 195.575 C 99.598 193.918,101.031 192.782,103.074 192.387 L 104.600 192.092 103.191 192.046 C 102.165 192.012,101.377 192.334,100.291 193.229 M106.573 192.297 C 113.220 192.812,112.458 198.847,105.600 200.010 C 103.950 200.290,102.843 200.603,103.139 200.706 C 105.151 201.403,110.555 199.278,111.156 197.554 C 112.246 194.427,110.149 191.938,106.538 192.072 L 104.600 192.144 106.573 192.297 M167.427 192.779 C 166.298 193.523,165.242 194.966,165.216 195.800 C 165.209 196.020,165.537 195.652,165.945 194.983 C 166.887 193.438,168.308 192.505,170.040 192.294 L 171.400 192.128 170.000 192.067 C 169.196 192.031,168.101 192.334,167.427 192.779 M174.050 192.357 C 178.772 193.149,179.039 198.838,174.395 199.705 L 173.400 199.891 174.362 199.946 C 174.891 199.975,175.926 199.541,176.662 198.980 C 179.602 196.737,177.795 191.913,174.069 192.057 L 172.600 192.114 174.050 192.357 M272.707 193.090 C 273.426 193.179,274.506 193.177,275.107 193.086 C 275.708 192.995,275.120 192.922,273.800 192.924 C 272.480 192.926,271.988 193.001,272.707 193.090 M313.700 193.087 C 314.305 193.178,315.295 193.178,315.900 193.087 C 316.505 192.995,316.010 192.920,314.800 192.920 C 313.590 192.920,313.095 192.995,313.700 193.087 M130.711 205.230 C 130.841 219.117,130.940 219.542,134.567 221.784 C 136.395 222.914,136.820 223.004,140.567 223.054 L 144.600 223.109 140.800 222.853 C 135.577 222.501,133.458 221.384,131.700 218.055 C 131.333 217.360,131.200 213.991,131.200 205.378 C 131.200 198.926,131.065 193.564,130.900 193.461 C 130.735 193.359,130.650 198.655,130.711 205.230 M141.200 202.820 C 141.200 212.604,141.507 214.800,142.872 214.800 C 143.121 214.800,142.981 214.421,142.562 213.959 C 141.581 212.876,141.138 194.139,142.079 193.542 C 142.468 193.296,142.423 193.211,141.900 193.206 C 141.253 193.200,141.200 193.922,141.200 202.820 M188.227 206.400 C 188.264 213.550,188.429 219.985,188.593 220.700 L 188.891 222.000 184.035 222.000 C 179.343 222.000,179.169 221.969,178.832 221.084 C 178.448 220.074,177.200 218.865,177.200 219.503 C 177.200 220.376,171.401 222.637,168.400 222.934 C 167.202 223.052,167.260 223.081,168.806 223.136 C 170.752 223.205,173.933 222.201,176.193 220.805 L 177.600 219.935 178.277 221.115 C 178.951 222.290,178.979 222.297,183.730 222.575 C 189.198 222.895,189.414 222.803,188.998 220.335 C 188.837 219.381,188.583 212.930,188.432 206.000 L 188.159 193.400 188.227 206.400 M268.926 194.260 C 266.500 195.833,264.855 200.052,266.700 199.968 C 267.118 199.950,267.199 199.856,266.900 199.735 C 265.281 199.082,268.347 194.000,270.360 194.000 C 270.576 194.000,270.864 193.820,271.000 193.600 C 271.430 192.905,270.616 193.164,268.926 194.260 M277.334 193.679 C 278.789 194.712,279.427 195.420,279.924 196.552 C 280.202 197.185,280.535 197.599,280.663 197.471 C 281.129 197.005,279.336 194.610,277.986 193.893 C 277.224 193.489,276.930 193.392,277.334 193.679 M310.028 194.208 C 308.577 195.233,306.936 197.469,307.339 197.872 C 307.470 198.004,307.744 197.681,307.946 197.155 C 308.381 196.029,309.727 194.747,311.400 193.865 C 312.060 193.517,312.330 193.234,312.000 193.236 C 311.670 193.238,310.782 193.675,310.028 194.208 M317.600 193.327 C 317.600 193.434,318.214 193.883,318.965 194.326 C 320.946 195.495,322.639 199.378,321.317 199.721 C 320.689 199.884,320.684 199.913,321.276 199.954 C 323.150 200.082,321.296 194.588,319.208 193.822 C 318.873 193.700,318.375 193.495,318.100 193.366 C 317.825 193.238,317.600 193.221,317.600 193.327 M121.223 204.633 C 121.236 210.775,121.379 216.520,121.541 217.400 C 121.703 218.280,121.772 213.335,121.695 206.411 C 121.618 199.486,121.475 193.741,121.377 193.644 C 121.280 193.546,121.210 198.492,121.223 204.633 M209.605 193.895 C 208.138 194.169,206.472 195.490,205.775 196.932 C 205.237 198.043,205.236 198.106,205.766 197.443 C 206.099 197.027,206.423 196.571,206.486 196.429 C 206.814 195.690,209.304 194.395,211.033 194.065 C 212.279 193.827,212.560 193.693,211.800 193.699 C 211.140 193.705,210.152 193.793,209.605 193.895 M258.132 194.100 C 257.480 194.992,256.661 196.794,256.833 196.959 C 256.925 197.047,257.386 196.327,257.858 195.360 C 258.720 193.592,258.812 193.170,258.132 194.100 M213.800 194.285 C 214.240 194.391,215.107 194.955,215.726 195.538 C 216.452 196.223,216.759 196.359,216.592 195.923 C 216.256 195.049,214.628 193.987,213.714 194.046 C 213.116 194.085,213.130 194.124,213.800 194.285 M70.101 198.400 C 70.097 201.823,70.137 202.031,70.505 200.502 C 70.781 199.353,70.782 198.123,70.509 196.702 C 70.117 194.664,70.105 194.716,70.101 198.400 M356.307 195.090 C 357.026 195.179,358.106 195.177,358.707 195.086 C 359.308 194.995,358.720 194.922,357.400 194.924 C 356.080 194.926,355.588 195.001,356.307 195.090 M82.134 198.000 C 82.134 199.650,82.205 200.325,82.291 199.500 C 82.378 198.675,82.378 197.325,82.291 196.500 C 82.205 195.675,82.134 196.350,82.134 198.000 M352.401 196.100 C 351.677 196.595,350.619 197.630,350.050 198.400 C 349.240 199.498,349.419 199.389,350.881 197.900 C 351.906 196.855,353.017 196.000,353.349 196.000 C 353.681 196.000,354.064 195.820,354.200 195.600 C 354.618 194.923,353.784 195.155,352.401 196.100 M217.060 209.674 C 217.094 216.962,217.281 222.641,217.493 222.853 C 217.698 223.058,220.101 223.175,222.833 223.113 L 227.800 223.000 227.849 221.895 C 227.894 220.859,227.886 220.853,227.721 221.807 L 227.545 222.824 222.672 222.712 L 217.800 222.600 217.600 209.933 C 217.490 202.966,217.310 197.176,217.200 197.066 C 217.090 196.956,217.027 202.630,217.060 209.674 M297.269 198.503 C 296.977 199.497,296.815 200.825,296.909 201.455 C 297.052 202.414,297.090 202.353,297.140 201.074 C 297.173 200.234,297.391 199.190,297.625 198.753 C 297.859 198.316,297.994 197.674,297.925 197.327 C 297.856 196.980,297.561 197.510,297.269 198.503 M332.220 198.800 C 332.533 200.719,332.918 206.380,332.742 206.486 C 332.664 206.533,326.840 206.668,319.800 206.786 L 307.000 207.000 306.934 208.000 C 306.877 208.881,306.892 208.893,307.062 208.100 L 307.256 207.200 319.748 207.200 C 328.931 207.200,332.367 207.073,332.720 206.720 C 333.394 206.046,333.313 201.377,332.590 199.200 C 332.081 197.667,332.026 197.607,332.220 198.800 M256.267 198.267 C 256.120 198.413,256.011 198.908,256.025 199.367 C 256.049 200.133,256.082 200.123,256.434 199.242 C 256.826 198.263,256.744 197.789,256.267 198.267 M280.800 198.772 C 280.800 199.255,280.463 199.609,279.900 199.718 C 279.128 199.866,279.157 199.899,280.100 199.946 C 281.021 199.991,281.200 199.837,281.200 199.000 C 281.200 198.450,281.110 198.000,281.000 198.000 C 280.890 198.000,280.800 198.347,280.800 198.772 M204.704 199.800 C 204.542 200.680,204.407 206.202,204.404 212.071 C 204.400 221.895,204.344 222.756,203.700 222.924 C 203.180 223.060,203.235 223.119,203.913 223.154 C 205.230 223.221,205.222 223.311,205.106 210.196 C 205.047 203.497,204.869 198.907,204.704 199.800 M291.246 199.400 C 291.315 201.031,291.915 202.387,291.954 201.000 C 291.973 200.340,291.813 199.530,291.600 199.200 C 291.281 198.706,291.218 198.741,291.246 199.400 M268.691 199.889 C 269.401 199.977,270.661 199.979,271.491 199.892 C 272.321 199.805,271.740 199.733,270.200 199.731 C 268.660 199.729,267.981 199.800,268.691 199.889 M170.400 200.400 C 169.425 200.712,169.430 200.721,170.600 200.732 C 171.260 200.738,172.160 200.589,172.600 200.400 C 173.694 199.930,171.867 199.930,170.400 200.400 M348.497 201.594 C 348.158 202.681,348.000 206.291,348.000 212.964 C 348.000 220.430,347.882 222.781,347.500 222.909 C 347.212 223.006,347.255 223.059,347.600 223.033 C 348.110 222.996,348.237 221.455,348.443 212.795 C 348.576 207.188,348.821 202.015,348.988 201.300 C 349.410 199.486,349.096 199.674,348.497 201.594 M255.746 204.200 C 255.747 206.400,255.814 207.249,255.895 206.087 C 255.976 204.924,255.976 203.124,255.893 202.087 C 255.811 201.049,255.745 202.000,255.746 204.200 M98.271 201.062 C 98.127 201.206,97.332 201.471,96.504 201.649 C 95.128 201.946,95.153 201.955,96.800 201.756 C 97.790 201.636,99.320 201.395,100.200 201.219 L 101.800 200.900 100.167 200.850 C 99.268 200.823,98.415 200.918,98.271 201.062 M164.600 201.170 C 164.160 201.345,162.949 201.614,161.909 201.768 C 160.869 201.921,159.895 202.246,159.744 202.491 C 159.558 202.792,159.716 202.839,160.234 202.636 C 160.655 202.471,161.990 202.152,163.200 201.927 C 164.410 201.702,166.120 201.379,167.000 201.209 L 168.600 200.900 167.000 200.875 C 166.120 200.862,165.040 200.994,164.600 201.170 M81.453 202.541 C 81.286 203.388,81.241 204.175,81.355 204.288 C 81.658 204.591,82.097 202.585,81.914 201.732 C 81.820 201.290,81.637 201.611,81.453 202.541 M91.893 202.935 C 88.940 204.660,86.385 207.928,86.930 209.285 C 87.071 209.637,87.147 209.598,87.168 209.161 C 87.254 207.437,90.765 203.241,92.172 203.182 C 93.087 203.143,95.036 202.065,94.200 202.060 C 93.760 202.058,92.722 202.451,91.893 202.935 M69.664 203.676 C 69.629 204.488,69.420 205.264,69.200 205.400 C 68.980 205.536,68.807 205.952,68.816 206.324 C 68.827 206.776,69.033 206.629,69.440 205.879 C 69.774 205.262,69.976 204.182,69.888 203.479 C 69.731 202.226,69.727 202.230,69.664 203.676 M227.770 210.800 C 227.770 215.530,227.828 217.465,227.898 215.100 C 227.969 212.735,227.969 208.865,227.898 206.500 C 227.828 204.135,227.770 206.070,227.770 210.800 M292.070 203.871 C 291.944 206.872,292.283 206.800,278.371 206.800 L 266.000 206.800 266.013 208.500 C 266.020 209.442,266.311 210.556,266.667 211.000 L 267.308 211.800 266.989 211.000 C 266.814 210.560,266.591 209.525,266.493 208.700 L 266.316 207.200 278.944 207.200 C 293.261 207.200,292.607 207.362,292.292 203.885 L 292.140 202.200 292.070 203.871 M156.127 204.751 C 152.970 207.827,152.096 211.498,153.479 215.884 C 154.102 217.860,156.574 221.200,157.414 221.200 C 157.600 221.200,157.150 220.615,156.414 219.900 C 151.778 215.396,152.391 207.820,157.701 203.973 C 158.592 203.328,159.052 202.800,158.725 202.800 C 158.398 202.800,157.229 203.678,156.127 204.751 M80.860 205.881 C 80.799 206.776,80.660 207.193,79.355 210.400 C 77.062 216.035,70.612 222.000,66.813 222.000 C 66.392 222.000,65.936 222.180,65.800 222.400 C 65.664 222.620,64.528 222.831,63.276 222.870 C 61.141 222.935,61.111 222.950,62.787 223.097 C 67.109 223.478,73.572 220.041,76.886 215.600 C 78.241 213.784,80.400 209.601,80.400 208.791 C 80.400 208.444,80.594 207.966,80.831 207.729 C 81.068 207.492,81.185 206.781,81.091 206.149 C 80.966 205.312,80.904 205.239,80.860 205.881 M176.248 205.486 C 176.121 205.612,174.168 206.043,171.909 206.442 C 169.649 206.841,168.790 207.084,170.000 206.982 C 171.210 206.880,173.173 206.623,174.361 206.412 C 177.177 205.913,177.250 205.988,177.023 209.129 C 176.889 210.975,176.934 211.429,177.167 210.600 C 177.992 207.674,177.393 204.341,176.248 205.486 M109.546 206.029 C 112.410 207.176,108.954 214.701,105.151 215.599 L 103.800 215.918 105.044 215.959 C 108.032 216.057,110.800 211.939,110.800 207.394 C 110.800 205.697,110.740 205.601,109.700 205.625 C 108.605 205.651,108.604 205.652,109.546 206.029 M103.400 206.608 C 101.499 207.008,101.291 207.117,102.400 207.131 C 103.170 207.141,104.880 206.905,106.200 206.608 C 108.036 206.194,108.271 206.071,107.200 206.085 C 106.430 206.095,104.720 206.330,103.400 206.608 M296.859 207.400 C 296.685 213.268,304.025 222.400,308.916 222.400 C 309.266 222.400,309.664 222.580,309.800 222.800 C 309.936 223.020,311.072 223.174,312.324 223.141 L 314.600 223.082 312.400 222.795 C 303.973 221.695,298.735 216.454,297.216 207.600 L 296.907 205.800 296.859 207.400 M66.819 209.272 C 65.839 210.392,64.424 211.565,63.675 211.878 C 62.926 212.191,62.406 212.540,62.520 212.653 C 63.131 213.265,67.382 209.902,68.399 208.002 C 69.028 206.826,68.794 207.015,66.819 209.272 M98.385 208.410 L 97.000 209.619 98.590 208.587 C 100.471 207.364,100.656 207.200,100.152 207.200 C 99.942 207.200,99.147 207.744,98.385 208.410 M165.185 208.356 C 162.161 210.880,163.828 216.107,167.600 215.931 L 169.000 215.866 167.516 215.710 C 165.295 215.476,163.850 213.608,164.109 211.307 C 164.296 209.647,164.807 208.930,166.666 207.724 C 167.070 207.461,167.213 207.236,166.985 207.224 C 166.757 207.211,165.947 207.720,165.185 208.356 M256.034 209.000 C 256.022 209.440,256.187 210.070,256.400 210.400 C 256.914 211.195,256.914 210.196,256.400 209.000 L 256.056 208.200 256.034 209.000 M307.200 209.915 C 307.200 213.196,312.894 216.246,317.221 215.282 C 318.918 214.904,318.848 214.884,315.680 214.843 C 311.483 214.789,308.000 212.861,308.000 210.593 C 308.000 210.293,307.820 209.936,307.600 209.800 C 307.380 209.664,307.200 209.716,307.200 209.915 M86.524 212.200 C 86.526 213.520,86.601 214.012,86.690 213.293 C 86.779 212.574,86.777 211.494,86.686 210.893 C 86.595 210.292,86.522 210.880,86.524 212.200 M96.909 211.600 C 96.909 212.590,96.987 212.995,97.082 212.500 C 97.178 212.005,97.178 211.195,97.082 210.700 C 96.987 210.205,96.909 210.610,96.909 211.600 M280.859 212.507 L 279.519 214.200 280.923 212.745 C 281.696 211.945,282.569 211.195,282.864 211.077 C 283.273 210.914,283.258 210.857,282.800 210.839 C 282.470 210.825,281.597 211.576,280.859 212.507 M290.364 211.169 C 290.843 211.472,290.846 211.728,290.388 212.863 C 288.006 218.768,283.455 222.092,276.600 222.933 C 275.798 223.031,276.013 223.100,277.251 223.140 C 278.992 223.196,280.297 222.821,283.576 221.320 C 287.591 219.482,293.321 210.781,290.500 210.806 C 289.935 210.811,289.908 210.881,290.364 211.169 M322.400 211.800 C 322.106 212.350,321.760 212.806,321.632 212.814 C 321.121 212.846,319.035 214.796,319.511 214.798 C 319.791 214.799,320.811 214.010,321.776 213.045 C 322.742 212.079,323.772 211.194,324.066 211.076 C 324.380 210.951,324.257 210.850,323.768 210.832 C 323.268 210.813,322.721 211.200,322.400 211.800 M331.329 211.058 C 331.763 211.184,331.966 211.499,331.829 211.835 C 331.141 213.531,331.091 213.792,331.530 213.391 C 332.363 212.630,332.279 211.042,331.400 210.939 C 330.731 210.861,330.720 210.881,331.329 211.058 M256.832 211.663 C 256.721 213.992,262.781 221.200,264.850 221.200 C 265.147 221.200,264.451 220.568,263.305 219.796 C 260.731 218.063,258.016 214.499,257.061 211.600 C 256.900 211.112,256.857 211.124,256.832 211.663 M174.909 213.873 C 173.556 215.256,172.918 215.613,171.709 215.664 C 170.319 215.723,170.298 215.740,171.442 215.885 C 172.912 216.071,175.221 214.839,176.199 213.345 C 177.219 211.789,176.770 211.972,174.909 213.873 M268.567 213.362 C 269.428 214.153,270.328 214.789,270.567 214.776 C 270.805 214.764,270.661 214.539,270.246 214.276 C 269.832 214.014,268.932 213.378,268.246 212.862 C 267.429 212.247,267.539 212.419,268.567 213.362 M97.200 213.918 C 97.200 214.734,99.557 216.060,100.699 215.887 C 101.769 215.725,101.764 215.718,100.555 215.660 C 99.801 215.624,98.893 215.183,98.255 214.545 C 97.675 213.965,97.200 213.683,97.200 213.918 M330.073 215.504 C 328.867 217.578,328.059 218.462,326.032 219.931 C 325.068 220.629,324.447 221.200,324.651 221.200 C 325.781 221.200,329.542 217.600,330.575 215.531 C 331.468 213.740,331.110 213.721,330.073 215.504 M145.700 215.096 L 148.000 215.240 148.000 218.993 C 148.000 222.689,147.984 222.750,146.995 222.922 C 146.075 223.083,146.083 223.093,147.095 223.049 C 148.352 222.993,148.893 220.528,148.489 216.700 L 148.289 214.800 145.844 214.876 L 143.400 214.951 145.700 215.096 M272.892 215.289 C 274.143 215.550,275.293 215.548,276.292 215.283 C 277.623 214.930,277.401 214.883,274.400 214.889 C 271.146 214.894,271.081 214.912,272.892 215.289 M86.809 215.639 C 86.782 217.591,91.348 222.785,92.276 221.857 C 92.385 221.748,91.963 221.393,91.337 221.068 C 89.749 220.241,88.587 218.902,87.634 216.800 C 87.185 215.810,86.814 215.287,86.809 215.639 M109.400 220.411 C 107.248 221.689,105.255 222.373,102.400 222.815 L 100.600 223.093 102.200 223.141 C 104.334 223.204,109.581 221.401,110.207 220.389 C 110.686 219.613,111.505 220.026,111.732 221.159 C 112.002 222.510,114.293 222.957,119.342 222.645 C 122.584 222.444,122.858 222.242,122.394 220.400 L 122.041 219.000 122.121 220.400 L 122.200 221.800 117.292 221.912 C 112.879 222.013,112.362 221.953,112.159 221.312 C 111.461 219.108,111.546 219.136,109.400 220.411 M158.576 221.813 C 159.004 222.136,159.668 222.400,160.053 222.400 C 160.438 222.400,160.864 222.580,161.000 222.800 C 161.136 223.020,162.182 223.171,163.324 223.136 C 164.802 223.090,164.997 223.032,164.000 222.934 C 162.312 222.767,159.545 221.987,159.020 221.530 C 158.811 221.349,158.451 221.206,158.220 221.213 C 157.989 221.220,158.149 221.490,158.576 221.813 M265.770 221.552 C 266.184 222.221,269.957 223.200,271.875 223.136 C 273.371 223.086,273.488 223.042,272.400 222.939 C 270.240 222.733,266.786 221.901,266.558 221.532 C 266.445 221.349,266.173 221.200,265.953 221.200 C 265.733 221.200,265.651 221.358,265.770 221.552 M323.042 221.532 C 322.797 221.929,319.237 222.757,317.000 222.937 C 315.673 223.044,315.763 223.077,317.525 223.133 C 319.607 223.199,323.400 222.248,323.830 221.552 C 323.949 221.358,323.867 221.200,323.647 221.200 C 323.427 221.200,323.155 221.349,323.042 221.532 M93.746 222.563 C 94.395 222.924,95.695 223.176,96.746 223.144 L 98.600 223.087 96.600 222.789 C 95.500 222.625,94.150 222.363,93.600 222.208 C 92.692 221.952,92.706 221.985,93.746 222.563"/><path fill="#848488" d="M44.300 173.099 C 47.435 173.167,52.565 173.167,55.700 173.099 C 58.835 173.032,56.270 172.976,50.000 172.976 C 43.730 172.976,41.165 173.032,44.300 173.099 M65.600 184.925 C 65.600 184.994,66.185 185.579,66.900 186.225 L 68.200 187.400 67.025 186.100 C 65.930 184.888,65.600 184.616,65.600 184.925 M370.800 186.600 C 370.499 186.962,370.467 187.200,370.718 187.200 C 370.946 187.200,371.231 186.975,371.351 186.700 C 371.501 186.357,371.778 186.482,372.233 187.100 C 372.599 187.595,373.054 188.000,373.246 188.000 C 373.438 188.000,373.203 187.550,372.725 187.000 C 371.714 185.837,371.475 185.787,370.800 186.600 M360.884 190.471 C 360.811 194.159,360.705 194.766,360.100 194.924 C 359.444 195.096,359.445 195.110,360.113 195.154 C 361.130 195.220,361.247 194.629,361.099 190.172 L 360.967 186.200 360.884 190.471 M204.109 188.800 C 204.109 189.790,204.187 190.195,204.282 189.700 C 204.378 189.205,204.378 188.395,204.282 187.900 C 204.187 187.405,204.109 187.810,204.109 188.800 M104.300 191.882 C 104.795 191.978,105.605 191.978,106.100 191.882 C 106.595 191.787,106.190 191.709,105.200 191.709 C 104.210 191.709,103.805 191.787,104.300 191.882 M171.100 191.882 C 171.595 191.978,172.405 191.978,172.900 191.882 C 173.395 191.787,172.990 191.709,172.000 191.709 C 171.010 191.709,170.605 191.787,171.100 191.882 M126.700 193.089 C 127.415 193.178,128.585 193.178,129.300 193.089 C 130.015 193.001,129.430 192.928,128.000 192.928 C 126.570 192.928,125.985 193.001,126.700 193.089 M143.491 193.089 C 144.201 193.177,145.461 193.179,146.291 193.092 C 147.121 193.005,146.540 192.933,145.000 192.931 C 143.460 192.929,142.781 193.000,143.491 193.089 M155.152 196.913 C 155.325 197.086,157.612 197.175,160.233 197.111 L 165.000 196.996 159.919 196.798 C 157.124 196.689,154.979 196.741,155.152 196.913 M90.900 197.096 C 92.165 197.175,94.235 197.175,95.500 197.096 C 96.765 197.016,95.730 196.951,93.200 196.951 C 90.670 196.951,89.635 197.016,90.900 197.096 M81.693 200.000 C 81.693 200.770,81.775 201.085,81.876 200.700 C 81.976 200.315,81.976 199.685,81.876 199.300 C 81.775 198.915,81.693 199.230,81.693 200.000 M227.693 201.200 C 227.693 201.970,227.775 202.285,227.876 201.900 C 227.976 201.515,227.976 200.885,227.876 200.500 C 227.775 200.115,227.693 200.430,227.693 201.200 M269.900 200.298 C 271.935 200.371,275.265 200.371,277.300 200.298 C 279.335 200.225,277.670 200.166,273.600 200.166 C 269.530 200.166,267.865 200.225,269.900 200.298 M310.880 200.298 C 312.794 200.371,316.034 200.371,318.080 200.298 C 320.126 200.226,318.560 200.166,314.600 200.165 C 310.640 200.165,308.966 200.224,310.880 200.298 M296.914 204.200 C 296.917 205.300,296.995 205.703,297.087 205.095 C 297.179 204.486,297.177 203.586,297.082 203.095 C 296.987 202.603,296.911 203.100,296.914 204.200 M270.700 206.699 C 273.175 206.769,277.225 206.769,279.700 206.699 C 282.175 206.628,280.150 206.571,275.200 206.571 C 270.250 206.571,268.225 206.628,270.700 206.699 M286.311 206.693 C 287.251 206.778,288.691 206.777,289.511 206.691 C 290.330 206.605,289.560 206.536,287.800 206.537 C 286.040 206.539,285.370 206.609,286.311 206.693 M316.900 206.699 C 319.705 206.768,324.295 206.768,327.100 206.699 C 329.905 206.630,327.610 206.574,322.000 206.574 C 316.390 206.574,314.095 206.630,316.900 206.699 M153.309 212.400 C 153.309 213.390,153.387 213.795,153.482 213.300 C 153.578 212.805,153.578 211.995,153.482 211.500 C 153.387 211.005,153.309 211.410,153.309 212.400 M285.891 211.089 C 286.601 211.177,287.861 211.179,288.691 211.092 C 289.521 211.005,288.940 210.933,287.400 210.931 C 285.860 210.929,285.181 211.000,285.891 211.089 M325.507 211.090 C 326.226 211.179,327.306 211.177,327.907 211.086 C 328.508 210.995,327.920 210.922,326.600 210.924 C 325.280 210.926,324.788 211.001,325.507 211.090 M168.505 216.287 C 169.114 216.379,170.014 216.377,170.505 216.282 C 170.997 216.187,170.500 216.111,169.400 216.114 C 168.300 216.117,167.897 216.195,168.505 216.287 M44.300 223.099 C 47.435 223.167,52.565 223.167,55.700 223.099 C 58.835 223.032,56.270 222.976,50.000 222.976 C 43.730 222.976,41.165 223.032,44.300 223.099 M98.900 223.076 C 99.285 223.176,99.915 223.176,100.300 223.076 C 100.685 222.975,100.370 222.893,99.600 222.893 C 98.830 222.893,98.515 222.975,98.900 223.076 M197.700 223.094 C 198.745 223.176,200.455 223.176,201.500 223.094 C 202.545 223.012,201.690 222.944,199.600 222.944 C 197.510 222.944,196.655 223.012,197.700 223.094 M340.500 223.076 C 340.885 223.176,341.515 223.176,341.900 223.076 C 342.285 222.975,341.970 222.893,341.200 222.893 C 340.430 222.893,340.115 222.975,340.500 223.076"/></g></svg>