<svg xmlns="http://www.w3.org/2000/svg" role="img" viewBox="-4.40 -4.40 228.54 43.04"><title>Determined AI (Experimentation &amp; Parameter Tuning) logo</title><path fill="#2b4258" d="M78.06 15.81c.07 4.2-2.48 8.42-8.25 8.42h-6.48V7.71h6.48c5.65 0 8.19 4.03 8.25 8.1zm-11.64 5.42h3.39c3.75 0 5.23-2.73 5.16-5.44s-1.58-5.14-5.16-5.14h-3.39zm16.24-1.79c.19 1.44 1.44 2.48 3.46 2.48a4.76 4.76 0 0 0 3.11-1.09l1.84 1.82a7.16 7.16 0 0 1-5 1.88c-4 0-6.38-2.47-6.38-6.19a5.81 5.81 0 0 1 6.17-6.08c3.89 0 6.32 2.4 5.87 7.18zM89 17.06c-.19-1.5-1.36-2.26-3-2.26a3.13 3.13 0 0 0-3.25 2.26zm8.32-7.73v3.3h3.21v2.48H97.3v5a1.45 1.45 0 0 0 1.51 1.65 3.38 3.38 0 0 0 1.39-.36l.8 2.45a6.59 6.59 0 0 1-2.38.5c-2.52.09-4.17-1.34-4.17-4.24v-5h-2.17v-2.48h2.17v-3zm7.62 10.11c.19 1.44 1.44 2.48 3.46 2.48a4.76 4.76 0 0 0 3.11-1.09l1.84 1.82a7.13 7.13 0 0 1-5 1.88c-4 0-6.39-2.47-6.39-6.19a5.82 5.82 0 0 1 6.18-6.08c3.88 0 6.31 2.4 5.86 7.18zm6.32-2.38c-.19-1.5-1.37-2.26-3-2.26a3.13 3.13 0 0 0-3.26 2.26zm7.45-4.45l.21 1.34a3.45 3.45 0 0 1 3.28-1.65 4.44 4.44 0 0 1 3 1.11l-1.3 2.5a2.85 2.85 0 0 0-2.07-.76 2.69 2.69 0 0 0-2.9 3v6.13h-2.87V12.61zm15.11 11.62V18c0-1.54-.8-2.93-2.38-2.93A2.65 2.65 0 0 0 129 18v6.22h-2.88V12.59h2.67L129 14a3.35 3.35 0 0 1 3-1.6 3.47 3.47 0 0 1 3.44 2.17 4.21 4.21 0 0 1 3.89-2.12c3.29 0 4.92 2 4.92 5.51v6.27h-2.87V18c0-1.53-.64-2.83-2.19-2.83a2.65 2.65 0 0 0-2.5 2.83v6.22zm16.34-14.9a1.7 1.7 0 0 1-3.4 0 1.7 1.7 0 0 1 3.4 0zM147 12.56v11.67h2.88V12.56zm13.86 11.67v-6.08c0-1.77-1-3.11-2.8-3.11a3.05 3.05 0 0 0-3 3.25v5.94h-2.85V12.59h2.57l.19 1.58a5.2 5.2 0 0 1 3.81-1.75c2.73 0 4.93 2.05 4.93 5.7v6.11zm7.62-4.79c.19 1.44 1.44 2.48 3.46 2.48a4.76 4.76 0 0 0 3.11-1.09l1.84 1.82a7.13 7.13 0 0 1-5 1.88c-4 0-6.39-2.47-6.39-6.19a5.81 5.81 0 0 1 6.17-6.08c3.89 0 6.32 2.4 5.87 7.18zm6.31-2.38c-.18-1.5-1.36-2.26-3-2.26a3.13 3.13 0 0 0-3.25 2.26zm16.86-9.3v16.47H189l-.19-1.61a4.22 4.22 0 0 1-3.81 1.87 5.7 5.7 0 0 1-6-6.08c0-4 2.52-6.08 5.91-6.08a4.8 4.8 0 0 1 3.81 1.86V7.76zm-9.73 10.65a3.34 3.34 0 1 0 6.67 0 3.32 3.32 0 0 0-3.37-3.4 3.21 3.21 0 0 0-3.3 3.4z"/><path fill="#f0651b" d="M211.13 21.12h-8.62l-1.41 3.11h-3.37l7.39-16.52h3.4l7.39 16.52h-3.39zm-4.31-10l-3.06 7h6.12zm10.09-3.41H220v16.52h-3.09z"/><path fill="#f0651b" fill-rule="evenodd" d="M11.87 3a3.25 3.25 0 1 1-3.06 3.44A3.24 3.24 0 0 1 11.87 3M18 .39a1.76 1.76 0 0 1 1.87 1.67A1.78 1.78 0 1 1 18 .39zM40.87 10a1.78 1.78 0 1 1-1.67 1.88A1.79 1.79 0 0 1 40.87 10zM2.53 15.42A2.68 2.68 0 1 1 0 18.25a2.67 2.67 0 0 1 2.53-2.83zm6.7 6.1a1.78 1.78 0 1 1-1.67 1.88 1.79 1.79 0 0 1 1.67-1.88zm22.52 7.29a2.78 2.78 0 1 1-2.12 1.1 9.6 9.6 0 0 0-1.69-3.49h-.34a3.43 3.43 0 0 1-3.6-3.21 3.48 3.48 0 0 1 .31-1.64 11.51 11.51 0 0 0-3.54-3.12 3.42 3.42 0 0 1-1.23.3 3.47 3.47 0 1 1 3-2.18A10.66 10.66 0 0 0 25.82 20a3.43 3.43 0 0 1 1.39-.39 3.38 3.38 0 0 1 2 .51 12.35 12.35 0 0 0 4.22-3.76 1.33 1.33 0 0 1 0-.28 2.6 2.6 0 1 1 1.69 2.29 15.13 15.13 0 0 0-4.44 3.46 3.71 3.71 0 0 1 .21 1 3.47 3.47 0 0 1-1 2.63 9.14 9.14 0 0 0 1.86 3.35zm-14.94-8.18a2.9 2.9 0 1 1-2.72 3.06 2.93 2.93 0 0 1 .15-1.11 5.58 5.58 0 0 0-2.86-3 3.23 3.23 0 1 1 2.09-3.21 3.32 3.32 0 0 1-.23 1.41 6 6 0 0 0 2.84 2.92h.05a3.87 3.87 0 0 1 .68-.07zm19 1a2.56 2.56 0 0 1 .92.12 6.21 6.21 0 0 0 3.72-3.08 2 2 0 1 1 2.11 2 2.26 2.26 0 0 1-.45 0 8 8 0 0 0-3.75 3.11 1.36 1.36 0 0 1 0 .2 2.47 2.47 0 1 1-2.6-2.33zM20.1 5.75a2.5 2.5 0 0 1 1.13.2 5.24 5.24 0 0 0 3-2.08 2.3 2.3 0 0 1-.05-.45 3.22 3.22 0 1 1 3.39 3A3.19 3.19 0 0 1 25.71 6a4.36 4.36 0 0 0-3 2.11 2.48 2.48 0 1 1-2.61-2.36zm15.11-.82a2.49 2.49 0 0 1 .28 5 2.57 2.57 0 0 1-1.14-.2A5.55 5.55 0 0 0 31.08 12a3.11 3.11 0 0 1 .06.44 3.18 3.18 0 1 1-3.36-3 3.15 3.15 0 0 1 1.82.45 6.7 6.7 0 0 0 3.27-2.29 2.49 2.49 0 0 1 2.34-2.67zM4.49 7.25A2.68 2.68 0 1 1 2 10.08a2.68 2.68 0 0 1 2.49-2.83z"/></svg>