<svg xmlns="http://www.w3.org/2000/svg" role="img" viewBox="-7.99 -7.99 415.74 415.74"><title>Domino Data Lab Domino Data Science Platform (Model Serving) logo</title><path d="M260.7 5.7c-1 .3-11.8 6.2-24 13.2-12.2 7-29.8 17.2-39.2 22.5-21.3 12.3-21 11.9-21 20 0 7.4 2.1 10.7 8.2 12.7s6 2 82.6-42.2c12.2-7.1 12.6-20.5.7-25.3-4.2-1.7-4.3-1.7-7.3-.9zM62.5 100c0 26.1.1 36.8.2 23.8.2-13.1.2-34.5 0-47.5-.1-13.1-.2-2.4-.2 23.7zm26-.5c0 25.3.1 35.5.2 22.7.2-12.8.2-33.5 0-46-.1-12.5-.2-2-.2 23.3zm189.8-36.8c13.1.2 34.3.2 47 0 12.8-.1 2.1-.2-23.8-.2-25.8 0-36.3.1-23.2.2zm.5 26c12.8.2 33.5.2 46 0 12.5-.1 2-.2-23.3-.2s-35.5.1-22.7.2zm-201.5 224c12.6.2 32.8.2 45 0 12.2-.1 2-.2-22.8-.2-24.7 0-34.7.1-22.2.2z" fill="#6d92be"/><path d="M0 116.2v116.3l2-3.3c2.1-3.5 7.2-6.2 11.5-6.2 3.6 0 2.5-.6 68.9 37.8 17.1 9.9 19 11.9 18.3 19.6-.4 4.2-1 5.5-4.2 8.4-5.5 5.1-11.9 4.4-23.5-2.5-4.7-2.8-21.5-12.6-37.5-21.7-16.6-9.6-30.4-18.1-32.2-20.1L0 241v159h116.3c114.1 0 116.1 0 113.1-1.9-3.8-2.3-6.7-8.2-6.2-12.5.5-4.4 45.4-82.1 48.7-84.3 8.8-5.7 20.3.5 20.3 11 0 5.8-43.6 82.7-48.7 85.8-2.9 1.9-1.5 1.9 76.8 1.9H400V283.7c0-115.7 0-116.2-2-113-2.3 3.8-6.7 6.3-11.2 6.3-3.7 0-81.8-44.1-85-48-4.2-5.2-3.5-12.5 1.8-17.8 6.2-6.2 10.5-5.1 36.9 10.3 12.1 7 29.7 17.1 39 22.5 11.1 6.5 17.6 10.9 18.7 12.7 1.7 2.7 1.7-1 1.8-77V0H283.8C168 0 167.5 0 170.7 2c3.9 2.3 6.3 6.7 6.3 11.3 0 3.3-2.3 7.6-39.5 72.1-7.2 12.6-10.4 15.6-16.3 15.6-7.5 0-13.2-5.6-13.2-12.9 0-5.1-1.1-2.9 21.8-42.6 6.3-11 13.9-24.3 16.9-29.5 2.9-5.2 6.9-11 8.8-12.8L159 0H0v116.2zM268 6.6c11.9 4.8 11.5 18.2-.7 25.3-76.6 44.2-76.5 44.2-82.6 42.2-6.1-2-8.2-5.3-8.2-12.7 0-8.1-.3-7.7 21-20 9.4-5.3 27-15.5 39.2-22.5C263.1 3.8 262 4.2 268 6.6zm-184.7 39c5.5 4 5.7 5.5 5.7 53.7 0 27.1-.4 45.6-1 47.9-3.1 11.1-19.1 12.2-24.5 1.8-2.5-4.9-2.2-94.2.3-99 3.6-6.7 13.3-8.9 19.5-4.4zm267.2 17.8c9.9 4.2 10 19.2.2 23.7-6.5 2.9-91.9 2.9-98.4 0-9.7-4.5-9.7-19.4 0-23.6 4.8-2.1 93.2-2.2 98.2-.1zM27.8 128.5c1.6 1.3 5.8 7.5 9.4 13.7 3.5 6.2 13.7 23.9 22.6 39.4C77.4 212.1 78 213.9 74 220.5c-3.9 6.4-12.9 8.2-18.8 3.8-1.3-1-12.7-19.6-25.3-41.3-24.7-42.6-25.3-44.1-21.3-50.9 3.8-6.4 13.7-8.3 19.2-3.6zM345 176.8c1.4 1.1 4.7 5.7 7.4 10.3 27.3 47.3 40 69.9 40.8 72.6 2.4 8.8-7.4 17.8-16.5 15.2-4.6-1.2-7.3-4.5-14.9-17.9-3.6-6.3-13.5-23.4-21.9-38-14.4-24.8-15.4-26.8-15.4-31.7 0-10.6 12-16.8 20.5-10.5zM332 246c.8.5 2.6 2 4 3.5l2.5 2.7.3 48.2.3 48.2-2.4 3.4c-6.3 9.5-21.3 7.1-23.5-3.8-.4-1.8-.5-24.2-.2-49.7l.5-46.4 3-3.1c4.3-4.5 10.2-5.7 15.5-3zm-182.4 68.2c8.9 4.9 9 17.4.1 22.8-4.3 2.6-93.1 3.1-99.2.6-10.6-4.5-9.3-21.2 2-24.6 6.1-1.8 93.6-.7 97.1 1.2zm70.9 11.8c3.7 2.3 6.5 7.4 6.5 11.8 0 5.3-3.8 9.2-16 16.2-65.6 37.9-67.6 39-71.9 39-11.6 0-17.7-13.3-9.8-21.4 2.5-2.6 62.4-37.9 77.7-45.8 4.5-2.4 9.5-2.3 13.5.2z" fill="#fefefe"/><path d="M158.5 1.4c-3.9 1.7-4 1.9-12.8 17.1-4 7.1-11.8 20.6-17.2 30C106.2 87 106.2 87 109.8 93.9c3.7 7.3 13.1 8.9 19.2 3.3 1.6-1.5 10.4-15.8 19.5-31.7 9.2-16 18.7-32.5 21.2-36.8 2.5-4.4 5.1-9.5 5.8-11.4 3.6-10.6-6.8-20.4-17-15.9zM70.3 44.5c-7.4 3.2-7.3 2.3-7.3 55.9v47.8l3.9 3.9c5.4 5.4 11.3 5.6 16.9.5l3.7-3.4.3-48.4c.2-47.1.2-48.4-1.8-51.6-3.3-5.4-9.7-7.3-15.7-4.7zm179.2 21.8c-6.1 6.1-5.5 14.8 1.4 19.4l3.4 2.3h47.1c45 0 47.2-.1 50.3-2 7.4-4.5 8.3-13.9 1.9-19.7L350 63h-97.2l-3.3 3.3zm56.7 43.2c-4.7 2.1-7.9 9.3-6.3 14.5 1.2 4 3.6 6.5 9.6 10 15 8.6 65.7 37.8 69 39.7 10.7 6.2 23.2-1 21.1-12.1-1.1-5.9-3.6-7.6-43.6-30.7-40.8-23.5-43.1-24.5-49.8-21.4zM14 127.8c-4.4 2.1-7.3 7.4-6.7 12.3.6 4.6 42.7 78.1 47.3 82.6 6.1 5.9 16.7 3.6 20-4.4 2.2-5.2 1.4-7.9-7.4-23.2-4.4-7.5-13.2-22.8-19.7-34.1-18.3-32-18.4-32.1-22.1-33.6-4.4-1.8-7.2-1.8-11.4.4zm316.4 49.1c-3.9 2.4-6.8 8.3-6 12.3.3 1.6 5.7 11.8 11.9 22.6s16.5 28.7 22.8 39.6c12.1 21.2 14.3 23.6 20.9 23.6 7.5 0 13.4-6.3 12.8-13.5-.5-5.6-44.7-82.4-48.8-84.9-3.7-2.1-9.8-2-13.6.3zM5.1 226.5c-5.5 4.7-6.2 14.4-1.4 18.7 1.8 1.6 69.4 40.8 77 44.7 17.6 8.9 28.2-13.3 11-23.2-2.3-1.3-19.9-11.5-39.2-22.6-39.1-22.5-40.8-23.1-47.4-17.6zm313.8 20.9c-5.9 4-5.9 4.5-5.9 54.5 0 42.3.1 45.9 1.8 49 5.2 9.6 18.5 8.9 22.7-1.2 2.3-5.7 2.3-90.8-.1-96.6-3-7.6-11.9-10.3-18.5-5.7zm-44.4 53c-4.3 1.8-3.7.9-28.2 43.4-20.4 35.3-22.3 39.1-22.3 43.4 0 10.8 14.2 16.9 21.3 9 5.2-5.8 46-79 46.4-83.2.9-9.6-8.4-16.4-17.2-12.6zM50 314.8c-9.9 5.4-8.1 20.1 2.8 23.2 7.5 2 91 1.3 95.9-.9 9.2-4.2 10-16 1.4-21.8l-3.4-2.3h-46.6c-43.4 0-46.9.1-50.1 1.8zm155.9 12.1c-18.1 9.7-75.7 43.6-77.1 45.4-6.5 8.2-.5 20.2 10 20.2 4.9-.1 1.8 1.7 78.9-42.9 11-6.3 11.3-19.7.6-24.2-4.6-2-6.3-1.8-12.4 1.5z" fill="#5b5f69"/></svg>