<svg xmlns="http://www.w3.org/2000/svg" role="img" viewBox="-7.99 -7.99 415.74 415.74"><title>Domino Data Lab Domino Data Science Platform (Interactive Workbench) logo</title><g fill="#6d92be"><path d="M2607 3943c-10-3-118-62-240-132-122-70-298-172-392-225-213-123-210-119-210-200 0-74 21-107 82-127 61-20 60-20 826 422 122 71 126 205 7 253-42 17-43 17-73 9zM625 3000c0-261 1-368 2-238 2 131 2 345 0 475-1 131-2 24-2-237zM885 3005c0-253 1-355 2-227 2 128 2 335 0 460-1 125-2 20-2-233zM2783 3373c131-2 343-2 470 0 128 1 21 2-238 2-258 0-363-1-232-2zM2788 3113c128-2 335-2 460 0 125 1 20 2-233 2-253 0-355-1-227-2zM773 873c126-2 328-2 450 0 122 1 20 2-228 2-247 0-347-1-222-2z" transform="matrix(.1 0 0 -.1 0 400)"/></g><g fill="#fefefe"><path d="M0 2838 l0 -1163 20 33 c21 35 72 62 115 62 36 0 25 6 689 -378 171 -99 190 -119 183 -196 -4 -42 -10 -55 -42 -84 -55 -51 -119 -44 -235 25 -47 28 -215 126 -375 217 -166 96 -304 181 -322 201 l-33 35 0 -795 0 -795 1163 0 c1141 0 1161 0 1131 19 -38 23 -67 82 -62 125 5 44 454 821 487 843 88 57 203 -5 203 -110 0 -58 -436 -827 -487 -858 -29 -19 -15 -19 768 -19 l797 0 0 1163 c0 1157 0 1162 -20 1130 -23 -38 -67 -63 -112 -63 -37 0 -818 441 -850 480 -42 52 -35 125 18 178 62 62 105 51 369 -103 121 -70 297 -171 390 -225 111 -65 176 -109 187 -127 17 -27 17 10 18 770 l0 797 -1162 0 c-1158 0 -1163 0 -1131 -20 39 -23 63 -67 63 -113 0 -33 -23 -76 -395 -721 -72 -126 -104 -156 -163 -156 -75 0 -132 56 -132 129 0 51 -11 29 218 426 63 110 139 243 169 295 29 52 69 110 88 128 l35 32 -795 0 -795 0 0 -1162z m2680 1096 c119 -48 115 -182 -7 -253 -766 -442 -765 -442 -826 -422 -61 20 -82 53 -82 127 0 81 -3 77 210 200 94 53 270 155 392 225 264 151 253 147 313 123z m-1847 -390 c55 -40 57 -55 57 -537 0 -271 -4 -456 -10 -479 -31 -111 -191 -122 -245 -18 -25 49 -22 942 3 990 36 67 133 89 195 44z m2672 -178 c99 -42 100 -192 2 -237 -65 -29 -919 -29 -984 0 -97 45 -97 194 0 236 48 21 932 22 982 1z m-3227 -651 c16 -13 58 -75 94 -137 35 -62 137 -239 226 -394 176 -305 182 -323 142 -389 -39 -64 -129 -82 -188 -38 -13 10 -127 196 -253 413 -247 426 -253 441 -213 509 38 64 137 83 192 36z m3172 -483 c14 -11 47 -57 74 -103 273 -473 400 -699 408 -726 24 -88 -74 -178 -165 -152 -46 12 -73 45 -149 179 -36 63 -135 234 -219 380 -144 248 -154 268 -154 317 0 106 120 168 205 105z m-130 -692 c8 -5 26 -20 40 -35 l25 -27 3 -482 3 -482 -24 -34 c-63 -95 -213 -71 -235 38 -4 18 -5 242 -2 497 l5 464 30 31 c43 45 102 57 155 30z m-1824 -682 c89 -49 90 -174 1 -228 -43 -26 -931 -31 -992 -6 -106 45 -93 212 20 246 61 18 936 7 971 -12z m709 -118 c37 -23 65 -74 65 -118 0 -53 -38 -92 -160 -162 -656 -379 -676 -390 -719 -390 -116 0 -177 133 -98 214 25 26 624 379 777 458 45 24 95 23 135 -2z" transform="matrix(.1 0 0 -.1 0 400)"/></g><g fill="#5b5f69"><path d="M1585 3986c-39-17-40-19-128-171-40-71-118-206-172-300-223-385-223-385-187-454 37-73 131-89 192-33 16 15 104 158 195 317 92 160 187 325 212 368 25 44 51 95 58 114 36 106-68 204-170 159zM703 3555c-74-32-73-23-73-559l0-478 39-39c54-54 113-56 169-5l37 34 3 484c2 471 2 484-18 516-33 54-97 73-157 47zM2495 3337c-61-61-55-148 14-194l34-23 471 0c450 0 472 1 503 20 74 45 83 139 19 197l-36 33-486 0-486 0-33-33zM3062 2905c-47-21-79-93-63-145 12-40 36-65 96-100 150-86 657-378 690-397 107-62 232 10 211 121-11 59-36 76-436 307-408 235-431 245-498 214zM140 2722c-44-21-73-74-67-123 6-46 427-781 473-826 61-59 167-36 200 44 22 52 14 79-74 232-44 75-132 228-197 341-183 320-184 321-221 336-44 18-72 18-114-4zM3304 2231c-39-24-68-83-60-123 3-16 57-118 119-226 62-108 165-287 228-396 121-212 143-236 209-236 75 0 134 63 128 135-5 56-447 824-488 849-37 21-98 20-136-3zM51 1735c-55-47-62-144-14-187 18-16 694-408 770-447 176-89 282 133 110 232-23 13-199 115-392 226-391 225-408 231-474 176zM3189 1526c-59-40-59-45-59-545 0-423 1-459 18-490 52-96 185-89 227 12 23 57 23 908-1 966-30 76-119 103-185 57zM2745 996c-43-18-37-9-282-434-204-353-223-391-223-434 0-108 142-169 213-90 52 58 460 790 464 832 9 96-84 164-172 126zM500 852c-99-54-81-201 28-232 75-20 910-13 959 9 92 42 100 160 14 218l-34 23-466 0c-434 0-469-1-501-18zM2059 731c-181-97-757-436-771-454-65-82-5-202 100-202 49 1 18-17 789 429 110 63 113 197 6 242-46 20-63 18-124-15z" transform="matrix(.1 0 0 -.1 0 400)"/></g></svg>