<svg xmlns="http://www.w3.org/2000/svg" role="img" viewBox="-0.58 -0.58 30.16 23.76"><title>Dotscience (Model Serving) logo</title><path d="M12.9 22.7c-.1 0-.3 0-.4-.1-.4-.2-.8-.5-.5-2v-.1H7.7c-.3 0-.6-.3-.6-.6s.3-.6.6-.6h5.5c.5 0 .8-.4.8-.8 0-.5-.4-.8-.8-.8H9.7c-.3 0-.5-.3-.5-.6s.2-.5.5-.6h5.8c.5 0 .8-.4.8-.8 0-.5-.4-.8-.8-.8H3.3c-.3 0-.6-.3-.6-.6s.3-.6.6-.6h17.2c.5 0 .8-.4.8-.8 0-.5-.4-.8-.8-.8h-11c-.3 0-.5-.3-.5-.6s.3-.5.6-.5h7c.5 0 .8-.4.8-.8s-.4-.8-.8-.8H.6C.3 9.3 0 9 0 8.7c0-.3.3-.6.6-.6h12.1c.5 0 .8-.4.8-.8 0-.5-.4-.8-.8-.8H8.2c-.3 0-.6-.3-.6-.6s.3-.6.6-.6h6.7c.5 0 .8-.4.8-.8 0-.5-.4-.8-.8-.8H5.6c-.3 0-.6-.2-.6-.5s.3-.6.6-.6h6.3s.1 0 .1-.1v-.1c-.4-1.8 0-2.1.5-2.3.1-.1.2-.1.4-.1.3 0 .7.1 1.2.4L28 9.8c.6.4 1 1 1.1 1.6-.1.6-.5 1.1-1.1 1.6l-13.9 9.4c-.5.1-.9.3-1.2.3zm9.2-13.4c-.5 0-.8.4-.8.8 0 .5.4.8.8.8.5 0 .8-.4.8-.8s-.4-.8-.8-.8zm-2.7 0c-.5 0-.8.4-.8.8 0 .5.4.8.8.8.5 0 .8-.4.8-.8.1-.4-.3-.8-.8-.8zM5.5 16.4c-.4 0-.7.3-.7.7 0 .4.3.7.7.7.4 0 .7-.3.7-.7 0-.4-.3-.7-.7-.7zm.1-5.8c-.4 0-.7.3-.7.7 0 .4.3.7.7.7.4 0 .7-.3.7-.7 0-.3-.3-.7-.7-.7z"/></svg>