<svg xmlns="http://www.w3.org/2000/svg" role="img" viewBox="-5.42 -10.42 619.84 213.34"><title>Dremio (Analytics Engine) logo</title><g fill="none" fill-rule="evenodd"><path d="M522.22 57.966c0 3.43333-1.18267 6.18267-3.54267 8.144-2.31066 2.012-5.08133 2.992-8.26266 2.992-3.17867 0-5.95067-.98-8.26134-2.992-2.36266-1.96133-3.54-4.71067-3.54-8.144 0-3.48267 1.17734-6.18133 3.54-8.19333C504.464 47.81 507.236 46.83 510.41467 46.83c3.18133 0 5.952.98 8.26266 2.94267 2.36 2.012 3.54267 4.71066 3.54267 8.19333" fill="#393C42"/><path fill="#393C42" d="M500.616 78.475h19.756v66.628h-19.756z"/><path d="M301.95 93.979c-1.79467-.44267-3.95067-.88267-6.36133-1.37467-2.46534-.49066-5.08267-.68533-7.904-.68533-1.232 0-2.76934.09733-4.51734.29333-1.79466.244-3.128.44134-4.00266.736v52.15334H258.946V80.487c3.592-1.22666 7.90133-2.35466 12.828-3.43466 4.928-1.08 10.42-1.61867 16.47333-1.61867 1.08 0 2.41334.048 3.95334.196 1.54133.09733 3.07866.29333 4.61733.48933 1.54133.24534 3.08.492 4.61733.78534 1.54134.29466 2.824.68533 3.90267 1.128L301.95 93.979" fill="#393C42"/><path d="M582.31467 110.85667c0-5.98534-1.23334-10.696-3.696-14.08134-2.516-3.43333-6.056-5.15066-10.67334-5.15066-4.62 0-8.16 1.71733-10.72933 5.15066-2.512 3.38534-3.79467 8.096-3.79467 14.08134 0 5.936 1.28267 10.69466 3.79467 14.17733 2.56933 3.536 6.10933 5.25067 10.72933 5.25067 4.61734 0 8.15734-1.71467 10.67334-5.25067 2.46266-3.48267 3.696-8.24133 3.696-14.17733m20.68266 0c0 5.34933-.824 10.25333-2.46267 14.71866-1.644 4.46534-4.00666 8.244-7.08666 11.432-3.076 3.13867-6.72133 5.59334-11.03067 7.31067-4.312 1.71733-9.136 2.6-14.472 2.6-5.236 0-10.00933-.88267-14.31866-2.6-4.312-1.71733-8.008-4.172-11.03334-7.31067-3.08-3.188-5.49333-6.96666-7.23733-11.432-1.69067-4.46533-2.56533-9.36933-2.56533-14.71866 0-5.396.87466-10.256 2.66933-14.66934 1.74667-4.416 4.20933-8.19333 7.33733-11.284 3.08-3.14 6.82667-5.54533 11.08534-7.26266 4.31066-1.76533 8.97866-2.6 14.06266-2.6 5.184 0 9.904.83467 14.21334 2.6 4.25866 1.71733 7.956 4.12267 11.03466 7.26266 3.07867 3.09067 5.49067 6.868 7.18533 11.284 1.744 4.41334 2.61867 9.27334 2.61867 14.66934" fill="#393C42"/><path d="M356.905 104.083c-.05067-1.61867-.36267-3.236-.87333-4.80667-.512-1.52-1.28534-2.94266-2.31067-4.12-1.02267-1.228-2.35867-2.208-3.95067-2.99333-1.54-.78533-3.54266-1.17733-5.90266-1.17733-2.25734 0-4.20934.392-5.79734 1.128-1.644.73733-2.976 1.668-4.10666 2.89466-1.07734 1.22534-1.89867 2.6-2.51467 4.22-.56133 1.61867-.976 3.236-1.28 4.85467h26.736zm-47.47333 7.41067c0-6.08534.97733-11.38267 2.928-15.89734 1.896-4.56266 4.46133-8.33866 7.64266-11.33333 3.18667-3.04133 6.828-5.34666 10.936-6.916 4.10667-1.52133 8.36134-2.308 12.67467-2.308 10.15867 0 18.168 2.94534 24.01733 8.88133 5.90267 5.93734 8.82667 14.62134 8.82667 26.15067 0 1.12667-.052 2.356-.10267 3.68-.10533 1.372-.20666 2.55067-.308 3.58H330.169c.46 3.976 2.412 7.11333 5.84667 9.46933 3.44 2.35467 8.05733 3.48267 13.85866 3.48267 3.69334 0 7.33467-.29333 10.928-.93067 3.544-.68666 6.46667-1.472 8.724-2.40533l2.72134 15.70133c-1.07734.49067-2.51334 1.03067-4.30934 1.52134-1.85066.53733-3.84933.98-6.056 1.372-2.208.39333-4.61733.736-7.136.98266-2.51333.24534-5.07866.392-7.59333.392-6.41333 0-12.00667-.932-16.78133-2.74666-4.72-1.81734-8.67467-4.27067-11.80134-7.45734-3.13066-3.14133-5.44133-6.86933-6.92933-11.18533-1.49067-4.368-2.20933-9.028-2.20933-14.03333z" fill="#393C42"/><path d="M426.902 108.89167c0-6.22934-.81867-10.644-2.51467-13.24534-1.69466-2.6-4.568-3.87466-8.61866-3.87466-1.28534 0-2.56534.04933-3.95467.19466-1.336.09734-2.668.29467-3.90133.44267v52.69333h-20.268v-65.94c1.74533-.44266 3.748-.88266 6.05466-1.37333 2.31067-.44133 4.77467-.884 7.34-1.27733 2.564-.392 5.23334-.68533 7.95467-.88267 2.71733-.244 5.38933-.34266 8.004-.34266 5.13467 0 9.34133.636 12.52267 1.864 3.232 1.276 5.904 2.74666 7.952 4.51333 2.92933-2.01067 6.212-3.58134 10.00933-4.70933 3.74533-1.128 7.18666-1.668 10.36533-1.668 5.69733 0 10.368.736 14.06133 2.256 3.64534 1.52 6.57067 3.68 8.72534 6.428 2.20533 2.796 3.69733 6.084 4.516 9.86133.76933 3.828 1.18 8.04533 1.18 12.70533v38.56533h-20.21867v-36.21066c0-6.22934-.81867-10.644-2.51333-13.24534-1.644-2.6-4.51734-3.87466-8.624-3.87466-1.07733 0-2.56533.24533-4.516.784-1.948.49066-3.54133 1.128-4.82133 1.91333.612 2.012 1.02266 4.12267 1.22933 6.32933.152 2.20667.25867 4.56267.25867 7.06534v37.23866H426.902v-36.21066" fill="#393C42"/><path d="M223.89667 129.64667c-1.02667.19733-2.25867.344-3.79734.44266-1.54133.14667-3.23333.19467-5.03066.19467-5.54134 0-9.69867-1.81467-12.52-5.444-2.77067-3.632-4.20934-8.44-4.20934-14.376 0-12.46133 4.824-18.692 14.42134-18.692 2.05066 0 4.10533.24533 6.156.78533 2.05466.48934 3.69866 1.17467 4.98 1.912v35.17734zm0-77.58533v26.316c-2.25867-.932-4.51734-1.668-6.724-2.208-2.20667-.48934-4.72-.73467-7.54267-.73467-5.08133 0-9.59867.78267-13.49733 2.45333-3.952 1.61733-7.28667 4.02267-10.008 7.11333-2.71867 3.14-4.77067 6.91734-6.20934 11.38134-1.436 4.46533-2.20666 9.41866-2.20666 14.964 0 5.44533.87333 10.35333 2.51333 14.71733 1.69467 4.368 4.10667 8.09733 7.28933 11.188 3.18134 3.04267 7.02934 5.448 11.64934 7.06533 4.61733 1.668 9.852 2.45334 15.75466 2.45334 2.464 0 5.028-.1 7.7-.29334 2.66667-.24666 5.284-.492 7.84934-.884 2.56533-.34533 5.028-.73733 7.39066-1.228 2.36134-.44133 4.41467-.93066 6.26-1.472V46.83067l-20.21866 5.23067z" fill="#393C42"/><path d="M51.00233 122.63067c-5.924 2.68667-17.45333 8.7-16.36 15.21733 1.504 4.00667 6.19867-.228 7.93067-1.91333 3.736-3.50934 6.69733-8.384 8.42933-13.304m35.36-14.39733c-3.91867 10.25066-15.356 15.12666-18.54533 13.396-1.596-.86667.136-4.10134.18133-6.33334-2.324.91067-6.152 2.596-8.476 3.55334 5.56 4.14533 8.43067 11.29866 8.38534 18.088 0 6.96933-2.86934 13.39333-8.248 17.81333 9.56933 14.16666 4.696 26.376-8.47467 35.89866l-.82133.54667-.27334-.956c-1.95733-6.74267-4.42-12.43733-9.068-17.81467-2.324-2.68666-4.968-5.148-7.564-7.608C30.041 161.58267 26.761 158.304 23.661 154.796c-13.032-13.85067-18.18267-37.86-16.49467-56.40266.864-9.56667 3.78267-18.724 8.24667-27.19867C18.96767 64.452 23.47833 58.256 28.67433 52.7 40.157 40.39734 55.377 30.692 71.55433 25.90934c14.216-4.23467 30.48267-4.96534 44.01867 2.00533 2.18666 1.13867 5.468 3.14267 7.29066 4.64667 1.14134 1.04666 2.27734 2.14133 3.372 3.18933.136.09067.27467.228.36534.36267l63.29466-32.3c5.23867-2.596 9.15733-2.596 10.75333-.72667 1.868 2.18534-.728 6.74-4.41866 9.42933l-54.228 39.36267c.956 3.14267-.63867 7.69867-3.00933 10.38667 7.248 2.50533.86666 13.12-2.32267 16.90266-9.068 10.752-25.7 19.18-40.50933 25.33067-3.96534 1.68533-6.24267 2.416-9.79867 3.73467" fill="#393C42"/><path d="M135.98666 71.104c4.056-5.10266 1.23067-8.064-1.59466-5.19333-5.56 5.69333-13.98934 7.652-21.59867 6.42267-11.12133-1.868-11.61867-3.55334-9.752-5.19467 13.124 4.78533 28.388-1.456 34.72133-11.79867 2.73467-3.91733-6.424-7.06133-11.84533-14.396C99.988 5.95467 18.83067 36.48 11.084 97.66534c-2.37067 18.404 2.77867 38.768 15.44933 53.11866 9.476 10.75333 19.77467 15.21867 25.60667 32.12133 11.348-9.75066 9.56933-20.77466 1.27867-30.43333 14.16933-7.38133 12.11866-26.56267 2.14-32.39333-4.64667 17.084-21.32667 29.704-25.2 17.58533-2.50534-12.34667 17.81866-20.54533 50.39866-32.892 27.25067-10.20666 44.84-18.63466 55.22933-33.668" fill="#55BFCE"/><path d="M135.98666 71.10334c4.056-5.10267 1.23067-8.064-1.59466-5.19334-4.78267 4.92-11.984 7.06267-18.54667 6.74267C104.636 71.83267 95.704 69.646 87.50267 70.51 71.36933 72.15 55.64933 82.35533 47.22 90.966c-14.21733 14.58-29.89333 44.82933-14.08 50.708-1.18533-.73067-2.14267-2.05067-2.78133-4.01067-2.50534-12.34666 17.81866-20.54533 50.39866-32.892 27.25067-10.20666 44.84-18.63466 55.22933-33.668" fill="#FFF"/><path d="M66.22033 94.97633c8.38534 4.1 6.7 18.496 5.46934 22.09734 15.90266-4.512 11.164-28.064 18.548-35.264-9.252-.27334-26.56934 9.02-24.01734 13.16666" fill="#55BFCE"/><path d="M93.10667 52.33267c2.27733-1.184 5.05866-.364 6.28933 1.91466 1.184 2.232.31733 5.01067-1.916 6.24134-2.232 1.184-5.056.36266-6.24267-1.91334-1.22933-2.23333-.364-5.012 1.86934-6.24266" fill="#393C42"/><path d="M131.70333 54.29267l63.796-44.42c1.776-1.27467 4.148-4.00934 3.18933-5.33067-.95466-1.32-3.736-.592-6.10533.456L123.59 42.26467c-2.23067 4.64666 2.28 14.44266 8.11333 12.028" fill="#55BFCE"/><path d="M126.099 45.49967l66.66666-39.22534c2.916-1.732 4.056-1.68666 5.83067-1.86933-1.00133-1.13733-3.736-.45467-6.01333.592l-68.992 37.26667c-1.684 3.508.50267 10.024 4.19333 11.892-1.32133-2.87067-2.18666-5.87734-1.68533-8.656" fill="#FFF"/><path d="M27.898 62.94767c2.18667-.364 3.87467 1.14 3.828 3.37333 0 2.23067-1.776 4.328-3.96267 4.692-2.14266.36267-3.83066-1.14-3.78266-3.32667 0-2.232 1.77466-4.328 3.91733-4.73866" fill="#25ABAD"/><path d="M40.84 48.688c1.91467-.31867 3.41733 1.00267 3.37067 2.96267-.04534 2.00533-1.59467 3.82533-3.508 4.19066-1.91334.32-3.41867-1.00266-3.372-2.96133.04533-1.95867 1.59466-3.828 3.50933-4.192" fill="#25ABAD"/><path d="M79.98333 29.828c1.96.09067 3.144 1.73067 2.64267 3.644-.456 1.91467-2.41467 3.372-4.328 3.28-1.91733-.09067-3.1-1.732-2.644-3.644.45467-1.91467 2.41467-3.372 4.32933-3.28" fill="#25ABAD"/><path d="M91.96733 27.86833c1.59467.364 2.368 1.82134 1.732 3.37067-.63866 1.50267-2.46133 2.46133-4.00933 2.14133-1.59467-.364-2.372-1.82266-1.73333-3.37066.63733-1.50267 2.46-2.46134 4.01066-2.14134" fill="#25ABAD"/><path d="M40.97667 57.61667c1.41066-.228 2.552.77466 2.50533 2.23333 0 1.45733-1.18533 2.824-2.59733 3.05333-1.412.27334-2.50534-.72933-2.50534-2.188.04534-1.45733 1.184-2.82533 2.59734-3.09866" fill="#25ABAD"/><path d="M20.79 74.38333c1.45867-.272 2.644.77467 2.59867 2.28 0 1.548-1.22934 2.96-2.68934 3.23334-1.504.228-2.644-.77467-2.644-2.27734.048-1.54933 1.23067-3.00666 2.73467-3.236" fill="#25ABAD"/><path d="M140.088 33.38067l-2.96 1.59466c.22533 4.328 3.78 9.568 6.33067 10.43334-2.004-3.052-3.82534-8.33867-3.37067-12.028m15.90267-8.60934l-2.596 1.412c.31866 3.872 3.508 8.51867 5.10266 8.792-1.23066-1.86666-2.82533-7.06-2.50666-10.204m15.72133-8.52l-2.00533 1.09334c-.04534 2.55066 1.824 6.37733 3.91733 6.92533-1.00133-1.59467-2.232-4.876-1.912-8.01867m15.12933-8.15466l-1.73333.956c.13867 1.68666 2.09733 4.82933 3.19067 5.33066-.41067-1.22933-1.64-3.73466-1.45734-6.28666" fill="#25ABAD"/></g></svg>