<svg xmlns="http://www.w3.org/2000/svg" role="img" viewBox="3.87 29.37 383.76 103.76"><title>Elevo Data Manager (Stream Processing) logo</title><path fill="#4e6ffc" fill-rule="evenodd" d="M128.655 38.829c-1.987 2.196-2.564 79.605-.62 83.237.979 1.829 2.33 1.934 24.929 1.934 25.81 0 27.036-.246 27.036-5.416 0-5.057-2.108-5.584-22.329-5.584H139V86h13.929c15.648 0 17.432-.672 16.875-6.353-.463-4.723-3.322-5.615-18.054-5.632L139 74V49h17.545c21.402 0 26.599-2.765 20.21-10.75-1.817-2.272-46.001-1.74-48.1.579m61.902.394c-2.599 3.71-2.259 72.633.386 78.461 3.331 7.336 14.122 10.198 17.724 4.701 2.033-3.102.289-7.588-3.201-8.236-4.493-.833-4.466-.599-4.466-38.116 0-33.338-.122-35.834-1.829-37.378-2.61-2.362-6.753-2.089-8.614.568m-149.615.551c-42.887 16.242-37.855 76.731 7.023 84.427 40.993 7.029 67.127-44.24 37.6-73.766-11.047-11.047-31.01-15.817-44.623-10.661M69.468 51.91c10.631 5.233 17.296 15.282 18.282 27.564.718 8.946.089 8.787-15.768-3.989-8.113-6.536-15.167-11.484-16.369-11.483-1.17.001-9.034 5.36-17.613 12L22.5 88l-.292-6.35c-1.122-24.374 24.899-40.749 47.26-29.74m163.25 11.123c-26.666 6.691-27.536 54.538-1.127 61.871 16.146 4.482 39.021-6.149 30.838-14.333-2.263-2.262-5.511-1.943-10.906 1.072C239.832 118.177 225 111.627 225 99.93c0-.424 8.31-.919 18.466-1.101 20.746-.37 21.285-.552 22.219-7.514 2.472-18.431-14.432-32.933-32.967-28.282m112-.003c-13.801 3.473-19.076 11.998-19.161 30.97-.099 21.82 8.425 32 26.796 32 18.427 0 28.14-11.096 28.014-32-.14-23.201-15.05-36.154-35.649-30.97m-75.063 1.799c-2.706 2.99-2.142 4.921 9.447 32.373 11.811 27.976 11.681 27.759 16.622 27.783 3.94.018 3.122 1.512 16.17-29.53C323.636 67.517 324.258 63 316.362 63c-4 0-10.443 12.441-19.072 36.829-1.99 5.625-1.987 5.631-10.227-14.739-9.361-23.142-12.011-26.225-17.408-20.261m-22.751 10.436c2.94 1.511 5.69 5.303 6.517 8.985l.617 2.75h-14.626c-12.926 0-14.555-.184-14.019-1.582.334-.87.607-1.96.607-2.423 0-6.169 13.923-11.318 20.904-7.73m114.198.998c9.724 6.477 9.818 31.15.138 36.096-13.701 7.001-24.272-1.187-24.218-18.758.05-16.292 12.352-25.149 24.08-17.338M70.252 87.928c14.392 11.509 14.177 10.884 6.165 17.937-13.145 11.57-32.636 10.725-45.167-1.958-2.338-2.366-4.25-4.635-4.25-5.043 0-1.58 28.406-22.773 29.44-21.964.583.456 6.798 5.419 13.812 11.028"/></svg>