<svg xmlns="http://www.w3.org/2000/svg" role="img" viewBox="-16.43 292.07 932.36 316.36"><title>Feedzai Agile Machine Learning (Interactive Workbench) logo</title><path fill="#41A1DA" d="M46.506 472.874l-.302 117.783H19.28l.301-117.783H1.986V447.36h17.595v-14.896c0-24.056 5.959-33.199 11.265-38.506 7.685-7.684 17.909-14.047 33.931-14.047 5.723 0 13.96 1.486 21.186 6.453L75.535 408.86c-4.581-2.665-7.783-3.582-12.82-3.201-6.548.487-11.728 5.052-13.733 9.15-2 4.005-2.744 10.64-2.744 25.519v7.031h27.233v25.514H46.506zm142.092-2.183c-4.487-17.158-18.676-28.644-35.841-28.644-23.67 0-34.081 17.855-35.837 28.644h71.678zm32.087 22.501H116.579c.913 16.456 16.63 32.634 38.157 32.634 16.926 0 28.933-8.782 35.514-19.085l23.772 13.008c-4.196 7.148-27.715 30.782-60.013 30.782-35.68 0-67.338-27.746-67.338-65.244 0-36.069 26.859-67.86 67.346-67.86 41.898 0 66.81 37.741 66.81 68.192l-.142 7.573zm121.105-22.501c-4.486-17.158-18.678-28.644-35.838-28.644-23.674 0-34.083 17.855-35.84 28.644h71.678zm32.087 22.501H269.771c.911 16.456 16.633 32.634 38.157 32.634 16.923 0 28.932-8.782 35.518-19.085l23.765 13.008c-4.192 7.148-27.712 30.782-60.009 30.782-35.683 0-67.338-27.746-67.338-65.244 0-36.069 26.849-67.86 67.344-67.86 41.9 0 66.812 37.741 66.812 68.192l-.143 7.573zm84.476 31.575c-21.608 0-39.188-18.154-39.188-40.421 0-22.344 17.58-40.5 39.188-40.5 21.607 0 39.109 18.156 39.109 40.5 0 22.266-17.502 40.421-39.109 40.421m39.109-140.985v53.534c-8.641-12.147-21.679-19.615-39.109-19.615-42.252 0-67.742 33.019-67.742 66.645 0 33.244 25.192 66.201 64.521 66.201 19.628 0 33.392-7.326 42.33-19.262v16.044h26.666V383.782h-26.666zM769.323 489.46c-2.416 19.857-18.823 35.307-38.745 35.307-21.598 0-39.104-18.154-39.104-40.421 0-22.344 17.506-40.5 39.104-40.5 19.922 0 36.329 15.459 38.745 35.3.297 1.687.37 3.453.37 5.2 0 1.766-.073 3.432-.37 5.114m0-68.468v15.822c-8.641-11.869-21.53-19.123-38.745-19.123-42.256 0-67.738 33.028-67.738 66.654 0 33.244 25.186 66.201 64.586 66.201 19.344 0 32.97-7.096 41.897-18.668v15.45h26.664V420.992h-26.664z"/><path fill="#41A1DA" d="M769.323 479.146v10.314c.297-1.666.37-3.364.37-5.114 0-1.768-.073-3.514-.37-5.2m-219.338-58.615h100.937l-60.193 101.167h58.814v25.631H544.717l60.42-100.473h-55.152zm280.219 0h27.153v126.798h-27.153z"/><path fill="#91C259" d="M786.021 377.287c28.72 2.625 46.998-20.237 54.171-30.107-7.43-6.915-23.207-21.325-23.207-21.325l81.553-15.572-7.296 82.51-21.359-19.509c-26.609 16.573-61.632 21.673-83.862 4.003"/></svg>