<svg xmlns="http://www.w3.org/2000/svg" role="img" viewBox="-0.66 -0.66 34.52 34.45"><title>Gigaspaces InsightEdge (Analytics Engine) logo</title><defs><linearGradient id="a" x1="39.725" x2="39.725" y1="8.095" y2="16.966" gradientTransform="scale(.45489 2.19835)" gradientUnits="userSpaceOnUse"><stop offset="0%" stop-color="#01BEF1"/><stop offset="100%" stop-color="#006FBA"/></linearGradient><linearGradient id="b" x1="56.772" x2="56.772" y1="9.441" y2="17.811" gradientTransform="scale(.48208 2.07436)" gradientUnits="userSpaceOnUse"><stop offset="0%" stop-color="#00C0F3"/><stop offset="100%" stop-color="#0189CB"/></linearGradient><linearGradient id="c" x1="13.719" x2="13.719" y1="14.155" y2="20.434" gradientTransform="scale(.64259 1.5562)" gradientUnits="userSpaceOnUse"><stop offset="0%" stop-color="#008DCE"/><stop offset="100%" stop-color="#0071BB"/></linearGradient></defs><g transform="translate(-.905 -1.867)" fill="none" fill-rule="evenodd"><rect width="4.035" height="10.601" x="3.509" y="6.017" fill="#bcbec0" rx="2.018" transform="rotate(45 5.526 11.317)"/><rect width="4.035" height="17.101" x="5.526" y="10.249" fill="#f7941f" rx="2.018" transform="rotate(45 7.544 18.8)"/><rect width="4.035" height="11.212" x="17.018" y="1.785" fill="#ec028c" rx="2.018" transform="rotate(45 19.035 7.391)"/><rect width="4.035" height="8.551" x="27.807" y="11.601" fill="#bcbec0" rx="2.018" transform="rotate(45 29.825 15.876)"/><rect width="4.035" height="19.501" x="16.053" y="17.796" fill="url(#a)" rx="2.018" transform="rotate(45 18.07 27.546)"/><rect width="4.035" height="17.363" x="25.351" y="19.584" fill="url(#b)" rx="2.018" transform="rotate(45 27.368 28.266)"/><rect width="4.035" height="24.561" x="21.36" y="-.003" fill="#bfd72f" rx="2.018" transform="rotate(45 23.377 12.277)"/><rect width="4.035" height="9.772" x="6.798" y="22.027" fill="url(#c)" rx="2.018" transform="rotate(45 8.816 26.913)"/><ellipse cx="12.939" cy="3.967" fill="#00c0f3" rx="2.105" ry="2.094" transform="rotate(45 12.939 3.967)"/></g></svg>