<svg xmlns="http://www.w3.org/2000/svg" role="img" viewBox="-3.15 -3.15 163.80 144.30"><title>Immuta (Authorization) logo</title><path fill="none" stroke="#000" stroke-width="5" d="M2.5 2.5h152.702v133.048H2.5z"/><path d="M58.57218 43.21212h3.74408l9.11243 15.57835V43.21212h2.69794V61.8338h-3.74408l-9.11243-15.57835V61.8338h-2.69794zm29.42956 1.70875q-3.0283 0-4.81775 2.04552-1.77568 2.04551-1.77568 5.57527 0 3.5173 1.77568 5.56281 1.78945 2.04552 4.81775 2.04552t4.79022-2.04552q1.77569-2.04552 1.77569-5.5628 0-3.52977-1.7757-5.57528-1.76191-2.04552-4.79021-2.04552zm0-2.04551q4.3222 0 6.91003 2.63173 2.58782 2.61926 2.58782 7.03457 0 4.40285-2.58782 7.03458-2.58782 2.61926-6.91003 2.61926-4.33597 0-6.93755-2.61926-2.58783-2.61926-2.58783-7.03458 0-4.41531 2.58783-7.03457 2.60158-2.63173 6.93755-2.63173zM34.64862 75.14212h2.78053V93.7638h-2.78053zm8.31405 0h4.14327l5.24446 12.67222 5.272-12.67222h4.14326V93.7638h-2.7117V77.41214l-5.29953 12.772h-2.7943l-5.29952-12.772V93.7638h-2.69794zm31.20525 2.48206l-3.7716 9.26718h7.55697zm-1.5692-2.48206h3.15218l7.83228 18.62168h-2.89065l-1.87204-4.77703h-9.26384L67.6846 93.7638h-2.93195zm27.48869 15.965v-5.00153h-4.54245v-2.07047h7.29544v7.99498q-1.6105 1.03523-3.55137 1.57155-1.94086.52386-4.14325.52386-4.81776 0-7.54322-2.54443-2.71171-2.55689-2.71171-7.1094 0-4.565 2.71171-7.10943 2.72546-2.5569 7.54322-2.5569 2.00968 0 3.8129.44903 1.81698.449 3.3449 1.3221v2.68162q-1.5417-1.18491-3.27608-1.78359-1.73439-.59869-3.64772-.59869-3.77161 0-5.67118 1.90832-1.8858 1.90832-1.8858 5.68753 0 3.76674 1.8858 5.67506 1.89957 1.90831 5.67118 1.90831 1.47285 0 2.62911-.2245 1.15627-.23698 2.07852-.72342zm7.84605-15.965h12.99415v2.12036h-10.21363v5.5129h9.78691v2.12035h-9.78691v6.74772h10.4614v2.12035h-13.24192z" style="text-align:center" stroke-width=".671" text-anchor="middle"/></svg>