<svg xmlns="http://www.w3.org/2000/svg" role="img" viewBox="-23.78 -23.78 1236.56 242.56"><title>Immuta (Data Catalog) logo</title><path fill="#1c2029" d="M790.88 32.38H823v63.81c0 43.37-27.45 69.59-64.18 69.59-37.3 0-62.62-26.22-62.62-69.59V32.38h31.7v63.81c0 25.25 10.82 40.29 30.92 40.29 19.72 0 32.09-15 32.09-40.29zm-458.3 96.19l-45.81-96.19h-35.18v131.08h31.7V96.57l31.51 66.89h35.37l31.51-66.89v66.89h31.89V32.38H378.2zm305.05-96.19h-35.37l-45.62 96.19-45.81-96.19h-35.18v131.08h31.7V96.57l31.51 66.89h35.37l31.51-66.89v66.89h31.89zm356.64 0H869v29.3h46.6v101.78h32.08V61.68h46.59zm170.8 131.08h-33.83l-8.5-20.43h-63.4l-8.7 20.43H1017l56.25-131.08h35.37zm-53.35-46.26l-20.49-49-20.87 49zM195.84 0v195.84H0V0zM154.5 32.38h-31.7v131.08h31.7zm1031.13 0l-7.68 13-7.68-13h-4v21.08h4.48V41.08l6 10.15h2.21l6-10.15v12.38h4.49V32.38zm-41.35 4h6.61v17.08h4.78V36.35h6.6v-4h-18z"/></svg>