<svg xmlns="http://www.w3.org/2000/svg" role="img" viewBox="-23.50 -23.50 1274.00 308.00"><title>Lightbend Akka (Monitoring and Alerting) logo</title><path d="M355 64.6a7.11 7.11 0 1 1 14.22 0v106.56h45.34a6.61 6.61 0 0 1 6.48 6.66 6.45 6.45 0 0 1-6.48 6.48H362a7.19 7.19 0 0 1-7-7.2V64.6zm92.77-2.52c0-4.5 3.6-7.38 8.1-7.38 4.68 0 8.28 2.88 8.28 7.38v2.34c0 4.32-3.6 7.38-8.28 7.38-4.5 0-8.1-3.06-8.1-7.38v-2.34zM449 97.36a7 7 0 0 1 6.84-7 6.92 6.92 0 0 1 7 7v80.82a6.77 6.77 0 0 1-6.84 7 6.92 6.92 0 0 1-7-7V97.36zm51.33 105.11a6.41 6.41 0 0 1-3.6-5.76 6.61 6.61 0 0 1 6.3-6.12 5.59 5.59 0 0 1 3.06.9A58.76 58.76 0 0 0 539 201.57c20.52 0 33.84-11.34 33.84-33.12v-11c-8.1 10.8-19.44 19.62-36.54 19.62-22.32 0-43.74-16.74-43.74-43.56v-.36c0-27.18 21.6-43.92 43.74-43.92 17.46 0 28.8 8.64 36.36 18.72V97.36a6.87 6.87 0 0 1 6.84-7 7 7 0 0 1 7 7v70.74c0 14.4-4.32 25.38-11.88 32.94-8.28 8.28-20.7 12.42-35.46 12.42a72.88 72.88 0 0 1-38.83-10.99zm72.9-69.12V133c0-19.08-16.56-31.5-34.2-31.5s-32.22 12.24-32.22 31.32v.36c0 18.72 14.94 31.68 32.22 31.68 17.63 0 34.19-12.78 34.19-31.5zM618.4 59a6.93 6.93 0 1 1 13.86 0v48.42c6.12-10.08 15.84-18.18 31.86-18.18 22.5 0 35.64 15.12 35.64 37.26v51.66a6.93 6.93 0 1 1-13.86 0v-48.22c0-17.28-9.36-28.08-25.74-28.08-16 0-27.9 11.7-27.9 29.16v47.16a6.77 6.77 0 0 1-6.84 7 6.92 6.92 0 0 1-7-7V59zm114.12 100.64v-56.16H725a6.31 6.31 0 0 1-6.12-6.12 6.18 6.18 0 0 1 6.12-6.12h7.56v-22a6.88 6.88 0 0 1 6.84-7 7.15 7.15 0 0 1 7 7v22h24.1a6.34 6.34 0 0 1 6.3 6.12 6.22 6.22 0 0 1-6.3 6.12h-24.12v54.36c0 11.34 6.3 15.48 15.66 15.48 4.86 0 7.38-1.26 8.46-1.26a6 6 0 0 1 5.94 5.94 5.79 5.79 0 0 1-4 5.4 35 35 0 0 1-13.68 2.52c-14.9 0-26.24-7.38-26.24-26.28zM806.5 59a6.93 6.93 0 1 1 13.86 0v51c7.56-11.16 18.54-20.7 35.64-20.7 22.32 0 44.46 17.64 44.46 48.24v.36c0 30.42-22 48.42-44.46 48.42-17.28 0-28.44-9.36-35.64-19.8v11.7a6.88 6.88 0 0 1-6.84 7 7 7 0 0 1-7-7V59zm79.74 79v-.36c0-22-15.12-36-32.76-36-17.28 0-33.66 14.58-33.66 35.82v.36c0 21.6 16.38 36 33.66 36 18 .04 32.76-13.28 32.76-35.82zm78.66 48.46c-25.56 0-46.44-19.62-46.44-48.42v-.36c0-26.82 18.9-48.42 44.64-48.42 27.54 0 43.2 22.5 43.2 47.16a6.45 6.45 0 0 1-6.48 6.48H932.5c2 20.16 16.2 31.5 32.76 31.5 11.52 0 20-4.5 26.82-10.8a6 6 0 0 1 10.08 4.32 6 6 0 0 1-2.16 4.5c-8.83 8.46-19.26 14.04-35.1 14.04zm27.54-53.82C991 115.72 981.28 101 962.74 101c-16.2 0-28.44 13.5-30.24 31.68h59.94zm36.9-35.28a7 7 0 0 1 6.84-7 6.92 6.92 0 0 1 7 7v10.08c6.12-10.08 15.84-18.18 31.86-18.18 22.5 0 35.64 15.12 35.64 37.26v51.66a6.93 6.93 0 1 1-13.86 0v-48.24c0-17.28-9.36-28.08-25.74-28.08-16 0-27.9 11.7-27.9 29.16v47.16a6.77 6.77 0 0 1-6.84 7 6.92 6.92 0 0 1-7-7V97.36zm197.27 80.81a6.93 6.93 0 1 1-13.86 0v-12.6c-7.56 11.16-18.54 20.7-35.64 20.7-22.32 0-44.46-17.64-44.46-48.24v-.36c0-30.42 22.14-48.42 44.46-48.42 17.28 0 28.44 9.36 35.64 19.8V59a6.77 6.77 0 0 1 6.84-7 6.92 6.92 0 0 1 7 7v119.17zm-79.74-40.68v.36c0 22 15.3 36 32.76 36 17.28 0 33.66-14.58 33.66-36v-.35c0-21.42-16.38-35.82-33.66-35.82-17.99 0-32.75 13.32-32.75 35.82z" fill="#ff931e"/><g fill="#ff931e"><path d="M1 195v56a10 10 0 0 0 10 10h280a10 10 0 0 0 10-10v-56a557.85 557.85 0 0 1-150 20A557.85 557.85 0 0 1 1 195z"/><path d="M291 1H11A10 10 0 0 0 1 11v165a539.94 539.94 0 0 0 150 21 539.94 539.94 0 0 0 150-21V11a10 10 0 0 0-10-10z"/></g></svg>