<svg xmlns="http://www.w3.org/2000/svg" role="img" viewBox="-3.78 56.97 235.56 46.31"><title>LucidWorks Fusion AI (Pre-defined Models as a Service) logo</title><style>svg {enable-background:new 0 0 228 160}</style><path d="M55.094 92.119V68.384h4.172v20.067h10.501v3.668H55.094zm29.057 0v-2.302c-1.223 1.367-3.38 2.733-6.114 2.733-3.668 0-5.538-1.942-5.538-5.466V74.857h3.74v10.861c0 2.661 1.367 3.524 3.452 3.524 1.87 0 3.524-1.079 4.387-2.23V74.857h3.74v17.19H84.15v.072zm7.121-8.631c0-5.179 3.668-8.991 8.919-8.991 3.38 0 5.394 1.438 6.617 3.093l-2.445 2.302c-.935-1.367-2.302-2.014-3.956-2.014-3.165 0-5.179 2.374-5.179 5.682s2.086 5.754 5.179 5.754c1.654 0 3.021-.719 3.956-2.014l2.445 2.302c-1.223 1.654-3.237 3.093-6.617 3.093-5.251-.144-8.919-3.956-8.919-9.207zm17.621-13.018c0-1.295 1.079-2.302 2.302-2.302 1.295 0 2.302 1.007 2.302 2.302 0 1.295-1.007 2.302-2.302 2.302-1.295 0-2.302-1.007-2.302-2.302zm.432 21.649V74.857h3.74v17.19h-3.74v.072zm20.283 0v-2.374c-1.295 1.726-3.309 2.805-5.538 2.805-4.387 0-7.624-3.38-7.624-8.991 0-5.538 3.237-9.062 7.624-9.062 2.158 0 4.1 1.007 5.538 2.805v-8.991h3.74v23.735h-3.74v.073zm0-5.178v-6.833c-.863-1.295-2.661-2.302-4.459-2.302-2.949 0-4.819 2.373-4.819 5.754 0 3.309 1.87 5.682 4.819 5.682 1.725-.072 3.595-1.007 4.459-2.301zm23.231 5.178l-4.028-12.659-3.956 12.587h-3.884l-5.322-17.19h3.884l3.596 12.515 4.1-12.515h3.309l4.1 12.515 3.668-12.515h3.884l-5.322 17.19h-4.028v.072zm10.141-8.631c0-4.891 3.38-8.991 8.847-8.991 5.538 0 8.847 4.1 8.847 8.991 0 4.963-3.38 9.062-8.847 9.062s-8.847-4.099-8.847-9.062zm13.81 0c0-3.021-1.798-5.682-4.963-5.682s-4.963 2.661-4.963 5.682c0 3.093 1.798 5.754 4.963 5.754 3.165-.072 4.963-2.733 4.963-5.754zm7.192 8.631V74.857h3.74v2.517c1.295-1.654 3.38-2.949 5.61-2.949v3.668c-.288-.072-.719-.072-1.151-.072-1.582 0-3.668 1.079-4.387 2.302v11.724h-3.812v.072zm23.232 0l-5.25-7.121-2.374 2.445v4.603h-3.74V68.312h3.74v14.816l7.552-8.271h4.603l-7.192 7.768 7.336 9.422h-4.675v.072zm5.61-2.301l1.726-2.733c1.223 1.223 3.596 2.445 5.826 2.445s3.38-.935 3.38-2.302c0-3.38-10.429-.935-10.429-7.552 0-2.805 2.445-5.25 6.761-5.25 2.949 0 5.107 1.007 6.689 2.445l-1.582 2.661c-1.007-1.151-2.949-2.086-5.107-2.086-1.942 0-3.237.863-3.237 2.086 0 3.093 10.429.791 10.429 7.624 0 3.021-2.517 5.322-7.192 5.322-2.805.073-5.466-.862-7.264-2.66z" fill="#2d3135"/><path fill="#ae2028" d="M36.466 84.279l-22.728 5.035-5.035-22.728-7.768 1.726 6.761 30.496 30.496-6.761z"/><path fill="#dc3032" d="M19.27741 80.62483l-3.45214-15.58832 15.58833-3.45214 3.45214 15.58833z"/></svg>