<svg xmlns="http://www.w3.org/2000/svg" role="img" viewBox="31.73 31.73 442.78 105.53"><title>Moogsoft (AIOPs) logo</title><path fill="none" d="M0 0h506.26v169.38H0z"/><path d="M109.53 45.16a4.88 4.88 0 0 1 1.56.62 7.94 7.94 0 0 1 1.33.9q.28.24.53.48a7.45 7.45 0 0 1 1 1.31c.06.09.13.18.19.27s.21.26.31.41a14.51 14.51 0 0 1 1.49 3 18.16 18.16 0 0 1 .61 1.94 16.62 16.62 0 0 1 .38 5.87 21.12 21.12 0 0 1-.54 2.94 10.66 10.66 0 0 1-2.83 5l3.77-2.65a10 10 0 0 1 5.46-1.53 7.94 7.94 0 0 1 2.41.34l7.16 2.31c2.33.75 2.86 2.83 1.19 4.61l-4 4.31a11.36 11.36 0 0 1-7.31 3.13h-.16l-4.43-.12c-2.44-.06-4.83-.65-5.31-1.31a1.16 1.16 0 0 0-.2-.24 15.44 15.44 0 0 0 1.07 1.81c1 1.52 1.14 4.67.41 7l-3.14 10.06a17.58 17.58 0 0 0-.11 8.52l.91 3.2a8.52 8.52 0 0 1-1.89 7.46l-4.43 4.54a14.33 14.33 0 0 1-7.52 3.65l-4.64.49a8.43 8.43 0 0 1-.88 0 14.63 14.63 0 0 1-7.24-2l-5.27-3.52a8.52 8.52 0 0 1-3.4-6.9l.22-3.32a17.58 17.58 0 0 0-1.88-8.31l-5.22-9.21c-1.2-2.13-1.67-5.25-1.06-6.93a15.79 15.79 0 0 0 .67-2 1.09 1.09 0 0 0-.14.28c-.33.74-2.54 1.81-4.92 2.38l-4.31 1a8.17 8.17 0 0 1-1.89.2 11.41 11.41 0 0 1-6.08-1.71l-4.84-3.38c-2-1.4-1.91-3.54.21-4.76l6.52-3.75a9.6 9.6 0 0 1 4.6-1.07 8.73 8.73 0 0 1 3.35.6l4.24 1.81a10.66 10.66 0 0 1-3.81-4.31 21.14 21.14 0 0 1-1.14-2.77 16.62 16.62 0 0 1-.85-5.82 18.14 18.14 0 0 1 .19-2 14.51 14.51 0 0 1 .85-3.2c.06-.16.14-.31.21-.46s.1-.2.13-.3a7.45 7.45 0 0 1 .74-1.5q.19-.29.42-.58a7.94 7.94 0 0 1 1.11-1.15 4.08 4.08 0 0 1 1.47-.94h.07c.27.11.22.75.23 1a19.86 19.86 0 0 0 .32 3.34 12.81 12.81 0 0 0 .43 1.66c.17.4.2.75.31.94a9.55 9.55 0 0 0 1.06 2.11 16.14 16.14 0 0 0 1 1.35 10.51 10.51 0 0 0 5.64 3.65 8.52 8.52 0 0 1 1.68.48 7.8 7.8 0 0 1 4.73-2.65L96.81 60h.56a8.07 8.07 0 0 1 4.62 1.64 8.52 8.52 0 0 1 1.54-.82 10.51 10.51 0 0 0 4.76-4.74 16.13 16.13 0 0 0 .66-1.52 9.54 9.54 0 0 0 .6-2.29c.07-.21 0-.55.11-1a12.83 12.83 0 0 0 .08-1.71 19.85 19.85 0 0 0-.39-3.33c0-.22-.22-.83 0-1a.25.25 0 0 1 .14 0m0-4.76a5 5 0 0 0-2.9.91 5.28 5.28 0 0 0-2 5.73v.25a14.73 14.73 0 0 1 .27 2.21v.13a8.37 8.37 0 0 1 0 1c0 .3-.07.57-.09.77v.33a4.87 4.87 0 0 1-.32 1.14 11.55 11.55 0 0 1-.47 1.09 6.43 6.43 0 0 1-2 2.28 12.18 12.18 0 0 0-4.68-1 10.14 10.14 0 0 0-1.06.05L79.7 57.1a11.82 11.82 0 0 0-5.42 2.11 6.39 6.39 0 0 1-2.4-1.8 11.54 11.54 0 0 1-.69-1 5 5 0 0 1-.56-1.06l-.11-.32c-.06-.21-.14-.45-.24-.73a8.35 8.35 0 0 1-.23-.93v-.12a14.75 14.75 0 0 1-.2-2.22v-.34a5.3 5.3 0 0 0-3.11-5.2 4.92 4.92 0 0 0-2-.4 7 7 0 0 0-4.57 2.09A12.72 12.72 0 0 0 58.42 49c-.25.32-.46.62-.66.92a12.16 12.16 0 0 0-1.18 2.35v.07c-.12.24-.23.48-.33.74a19.2 19.2 0 0 0-1.11 4.2 23 23 0 0 0-.24 2.55 20.64 20.64 0 0 0 .67 6.07 13.2 13.2 0 0 0-4.67 1.54l-6.52 3.75a7.33 7.33 0 0 0-.56 12.79l4.84 3.38a16.14 16.14 0 0 0 8.8 2.57 12.89 12.89 0 0 0 3-.34l3.05-.73a15.54 15.54 0 0 0 1.45 3.67l5.17 9.18a13 13 0 0 1 1.28 5.66l-.22 3.32a13.18 13.18 0 0 0 5.51 11.18l5.27 3.52a19.29 19.29 0 0 0 9.88 2.85 13.22 13.22 0 0 0 1.38-.07l4.64-.49a18.92 18.92 0 0 0 10.49-4.99l4.43-4.54a13.18 13.18 0 0 0 3.06-12.08l-.91-3.21a13 13 0 0 1 .08-5.8l3.11-10.09a15.55 15.55 0 0 0 .65-3.89l3.14.08h.29A16.13 16.13 0 0 0 133 78.52l4-4.31a7.33 7.33 0 0 0-3.21-12.4l-7.16-2.31a12.6 12.6 0 0 0-3.87-.57h-1a20.67 20.67 0 0 0-.61-6.09 23 23 0 0 0-.76-2.43 19.32 19.32 0 0 0-2-3.92c-.12-.18-.28-.4-.44-.61v-.06a12.09 12.09 0 0 0-1.62-2c-.28-.28-.55-.52-.83-.76a12.81 12.81 0 0 0-2.12-1.44 7.91 7.91 0 0 0-3.84-1.21zm6.87 34.23z"/><path d="M188.37 104.01l-14.3-42.71h-10.15v50.51h5.63V67.28h1.01L185.24 110h6.28l14.67-42.72h1.02v44.53h5.62V61.3h-10.15l-14.31 42.71z"/><path d="M237.37 74.59c-5.66 0-9.69 1.5-12.07 4.45s-3.58 7.8-3.58 14.46 1.12 11.52 3.35 14.53 6.34 4.52 12.27 4.52 10-1.5 12.27-4.52 3.36-7.85 3.36-14.53-1.19-11.48-3.54-14.46-6.38-4.45-12.06-4.45zm8.07 30.05c-1.26 2.1-4 3.17-8.07 3.17s-6.8-1.07-8.1-3.2-1.92-5.89-1.92-11.22.71-9 2.15-11 4.06-3 7.87-3 6.45 1 7.85 3 2.12 5.72 2.12 11.06-.64 9.07-1.91 11.19zm29.76-30.05c-5.68 0-9.7 1.5-12.09 4.45s-3.58 7.8-3.58 14.46 1.12 11.52 3.37 14.53 6.32 4.52 12.27 4.52 10-1.5 12.27-4.52 3.35-7.85 3.35-14.53-1.18-11.48-3.54-14.46-6.39-4.45-12.05-4.45zm8.07 30.05c-1.26 2.1-4 3.17-8.07 3.17s-6.82-1.07-8.1-3.2-1.97-5.92-1.97-11.22.71-9 2.15-11 4.06-3 7.89-3 6.43 1 7.85 3 2.12 5.72 2.12 11.06-.61 9.07-1.87 11.19zm76.2-10.63c-1.8-1.35-4.86-2.42-9.2-3.17s-7.1-1.5-8.31-2.19a3.87 3.87 0 0 1-1.83-3.61q0-5.55 8-5.55a94.69 94.69 0 0 1 12.73 1.2l.14-4.68-2-.36a77.46 77.46 0 0 0-11.16-1 16.27 16.27 0 0 0-9.38 2.56c-2.51 1.71-3.76 4.33-3.76 7.89s.89 6 2.71 7.3 4.84 2.31 9.12 3 7.05 1.39 8.33 2.15 1.89 2.19 1.89 4.31a4.88 4.88 0 0 1-2.23 4.52 12.66 12.66 0 0 1-6.46 1.35 91.89 91.89 0 0 1-12.55-1.25l-.28 4.74 2.19.37a66.33 66.33 0 0 0 10.65 1c4.63 0 8.14-.87 10.56-2.62s3.5-4.55 3.5-8.28-.86-6.31-2.66-7.68zm24.59-19.42c-5.68 0-9.7 1.5-12.09 4.45s-3.58 7.8-3.58 14.46 1.12 11.52 3.37 14.53 6.32 4.52 12.27 4.52 10-1.5 12.27-4.52 3.35-7.85 3.35-14.53-1.18-11.48-3.54-14.46-6.39-4.45-12.05-4.45zm8.07 30.05c-1.26 2.1-4 3.17-8.07 3.17s-6.82-1.07-8.1-3.2-1.94-5.89-1.94-11.22.71-9 2.15-11 4.06-3 7.89-3 6.43 1 7.85 3 2.1 5.72 2.1 11.06-.62 9.07-1.88 11.19zm59.8-24.57v-4.75h-11.61V64.15h-5.39v11.16h-20.48v-3.2c0-3.36.37-5.63 1.14-6.78a4.14 4.14 0 0 1 3.79-1.76c1.78 0 4 .05 6.75.16l.07-4.54-7.37-.5c-3.65 0-6.2.93-7.66 2.8s-2.19 5.39-2.19 10.56v3.28h-4.61v4.75h4.61v31.75h5.47V80.07h20.47v17.16a15.37 15.37 0 0 0 10 14.4l2.39.85.14.05v-.07l1.85-5-2.53-.91a10 10 0 0 1-6.52-9.33V80.07zm-124.8-10.24a8.67 8.67 0 0 1-7.12 5.64 6.55 6.55 0 0 1-1 .07h-.14l-1.1-.23a27.72 27.72 0 0 0-6.5-.73q-13.65 0-13.64 12.5c0 5.59 1.91 9.26 5.75 11l-.64 1.16c-1.23 2.24-1.83 3.77-1.83 4.59 0 2.44.68 4.13 2 5a20.21 20.21 0 0 0-4.45 4.2 8.3 8.3 0 0 0-1.32 4.86q0 6.28 3.47 8.65c2.3 1.57 6.37 2.37 12.21 2.37q16.21 0 16.22-11.61 0-6.36-3.08-8.55c-2-1.46-5.39-2.19-10.06-2.19s-7.48-.18-8.4-.53-1.39-1.32-1.39-2.81a15.39 15.39 0 0 1 1.32-4.17 20 20 0 0 0 3.58.28c4.86 0 8.44-.91 10.7-2.72s3.38-5 3.38-9.6c0-3.28-.8-5.7-2.4-7.3.34-.09.68-.21 1-.34a13.46 13.46 0 0 0 7.85-7.94l.82-2.21-4.45-1.64zm-20.49 41.25l7.89.37c3.54 0 5.93.36 7.16 1.09s1.82 2.35 1.82 4.86-.84 4.29-2.51 5.36-4.47 1.62-8.33 1.62-6.52-.5-8-1.5-2.15-2.8-2.15-5.38a6 6 0 0 1 .85-3.35 12.65 12.65 0 0 1 3.22-3.07zm11.09-17.88q-1.9 1.82-6.36 1.82c-3 0-5.09-.61-6.37-1.82s-1.94-3.26-1.94-6.12.64-4.93 1.94-6.18 3.42-1.87 6.37-1.87 5.09.62 6.36 1.83 1.91 3.28 1.91 6.16-.69 4.98-1.96 6.19zm143.25-31.3a5 5 0 1 1-4.85 5 4.85 4.85 0 0 1 4.85-5zm0 9.26a4.24 4.24 0 1 0-4-4.22 4.07 4.07 0 0 0 4 4.22zm.15-3.39h-1.09v2h-1.07v-5.59h2c1.33 0 2.1.44 2.1 1.75a1.58 1.58 0 0 1-.94 1.71l1 2.12H462zm-1.11-.87h1.11c.66 0 .94-.28.94-.94s-.37-.94-1.14-.94h-.89z"/></svg>