<svg xmlns="http://www.w3.org/2000/svg" role="img" viewBox="22.27 35.02 363.22 337.72"><title>Neural Magic Inferece Engine (Image &amp; Visual Analysis) logo</title><path fill="#fff" d="M0 0h407v407H0z"/><g clip-path="url(#clip0_55374:1222)"><path d="M280.384 198.791l44.07-27.879.141 194.868L72.9853 166.759l-.0704 198.809-43.3664-34.144-.0704-252.0317L280.313 277.568l.071-78.777z"/><path d="M269.823 200.269L78.1243 48.6276 38.9115 73.0564 269.894 256.096l-.071-55.827zM335.296 42.08l-139.674 88.634L232.512 160l139.673-88.704-36.889-29.216zM83.0523 187.668l-.1408 178.252 43.6475-27.737.071-115.879-43.5777-34.636z"/><path d="M378.521 338.042l-43.507 27.737-.07-213.171-62.093 39.424-32.102-25.766 137.772-87.1555V338.042z"/></g><defs><clipPath id="clip0_55374:1222"><path fill="#fff" d="M0 0h352v323.84H0z" transform="translate(28 42.08)"/></clipPath></defs></svg>