<svg xmlns="http://www.w3.org/2000/svg" role="img" viewBox="-2.02 -2.02 104.91 52.91"><title>OmniSci Immerse (Dashboards and Charts) logo</title><path d="M47.87469 17V7.90569c0-.46149-.03109-.9058-.09363-1.33413-.06255-.42833-.17727-.7958-.34344-1.10358-.16728-.3074-.39081-.55433-.67208-.7408-.28126-.18646-.65135-.28008-1.10914-.28008-.43781 0-.81789.09869-1.1406.29647-.32346.19739-.594.4611-.81271.79033-.21872.32964-.38045.70803-.48444 1.13635-.10437.42833-.15618.87304-.15618 1.33413V17h-5.12494V7.51013c0-.94403-.17727-1.69068-.53144-2.23954-.35417-.54887-.9167-.8235-1.68722-.8235-.8127 0-1.44296.34056-1.89077 1.02089-.44817.6811-.6717 1.51513-.6717 2.50324V17H28V.4611h4.96876v2.27308h.06255c.18726-.35108.4219-.69164.70316-1.02127.2809-.32924.61952-.62025 1.01552-.87264.39562-.2524.83824-.45564 1.32823-.60972C36.5671.07724 37.1041 0 37.68735 0c1.12506 0 2.0784.24225 2.85928.7248.78162.48333 1.39078 1.17497 1.82822 2.07531.52071-.85665 1.1876-1.53698 2.00031-2.04254C45.1875.25278 46.17674 0 47.34362 0c1.06251 0 1.95294.20324 2.67201.60933.7187.40687 1.29678.93389 1.73422 1.58145.43744.64756.75498 1.37236.95297 2.17362.198.80203.29718 1.5869.29718 2.3554V17h-5.12531m28.75924-.00429V7.90369c0-.46136-.03813-.90011-.11361-1.3174-.07626-.41653-.20066-.78468-.37397-1.10331-.1737-.31785-.41787-.57057-.73175-.75699-.31466-.18642-.71058-.28002-1.18699-.28002-.47718 0-.89428.0936-1.25207.28002-.35779.18642-.65588.44421-.89428.77337-.23878.32955-.41787.70823-.53649 1.13645-.11939.42822-.17909.87243-.17909 1.3334V17H66V.46098h5.17042v2.27251h.06509c.19526-.351.44984-.69692.76449-1.03739.31388-.34008.68284-.63102 1.10572-.87281.4225-.24102.88311-.43875 1.38186-.5928C74.98633.07722 75.51743 0 76.08126 0c1.08377 0 2.00501.19773 2.7641.5928.75872.39545 1.37109.90557 1.83748 1.53152.46601.62555.80185 1.34471 1.00828 2.15668C81.89678 5.09376 82 5.90613 82 6.7181v10.27761h-5.36607M95 17h5V1h-5zM53.10995 37.22838c-.42856-.40583-.9309-.748-1.5089-1.02612-.57802-.27775-1.18835-.4172-1.83024-.4172-.49283 0-.94725.09625-1.3648.28874-.41753.1925-.6263.52443-.6263.9943 0 .44902.23007.76997.69057.96208.46013.1925 1.20394.40658 2.23143.6419.59892.12807 1.2043.30995 1.81426.54527.61033.2353 1.16096.54489 1.65341.92987.49245.38499.88831.85561 1.18834 1.4115.29966.55625.44948 1.2186.44948 1.98858 0 1.00528-.20382 1.8552-.60995 2.54977-.40689.69532-.9366 1.25651-1.58953 1.68431-.6533.4278-1.38608.73777-2.19947.92988-.81378.1925-1.62718.28874-2.4402.28874-1.30584 0-2.58506-.20879-3.8373-.62522-1.25222-.4172-2.29568-1.03181-3.13075-1.8446l2.95431-3.11096c.4704.51306 1.0484.94087 1.73365 1.28266.68487.34254 1.41308.51344 2.1835.51344.4282 0 .85105-.10117 1.26859-.30466.41715-.2031.62592-.56156.62592-1.07462 0-.49184-.25706-.85523-.77042-1.09054-.51375-.23493-1.31688-.48123-2.40825-.73777-.5571-.12807-1.11343-.29934-1.66976-.51344-.5571-.21333-1.0545-.50207-1.49332-.86584-.43883-.36338-.79743-.8124-1.0754-1.34707-.27874-.53428-.41754-1.1758-.41754-1.92455 0-.96246.20306-1.78018.60995-2.4539.40651-.67335.93128-1.22392 1.57356-1.65173.64227-.42742 1.35338-.74269 2.13521-.94617.78107-.2031 1.5572-.30503 2.32801-.30503 1.1986 0 2.3706.18757 3.51597.56156 1.145.37438 2.11392.93556 2.90602 1.68394l-2.89005 2.98288M8.47253 12.59672c-2.2626 0-4.09663-1.83407-4.09663-4.09672 0-2.26227 1.83403-4.09672 4.09663-4.09672 2.26222 0 3.87988 1.83445 3.87988 4.09672 0 2.26265-1.61766 4.09672-3.87988 4.09672zM8.4998 0C3.80561 0 0 3.8057 0 8.5 0 13.19469 3.8056 17 8.49981 17 13.19439 17 17 13.19469 17 8.5 17 3.8057 13.1944 0 8.49981 0zm69.60392 43.35733c-.67731.76355-1.64298 1.2391-2.7737 1.2391-2.22454 0-4.02773-1.83402-4.02773-4.09624 0-2.2626 1.80319-4.09663 4.02773-4.09663 1.13072 0 2.09639.47556 2.7737 1.2391L81 34.23192C79.5135 32.84615 77.53223 32 75.35686 32 70.7416 32 67 35.8056 67 40.50019 67 45.19439 70.7416 49 75.35686 49c2.17537 0 4.15663-.84615 5.64314-2.2319l-2.89627-3.41077M101 23.99982C101 25.6569 99.65662 27 98 27s-3-1.3431-3-3.00018C95 22.3431 96.34338 21 98 21s3 1.3431 3 2.99982M95 48h5V32h-5z" fill="#333" fill-rule="evenodd"/></svg>