<svg xmlns="http://www.w3.org/2000/svg" role="img" viewBox="-1.76 -1.63 85.02 45.77"><title>One Convergence DKube (Workflows) logo</title><path fill="none" d="M0-99.52144h400v245H0z" pointer-events="none"/><defs><linearGradient id="a" x1="34.641" x2="0" y1="17.321" y2="17.321" gradientTransform="scale(2.35856 1.2284)" gradientUnits="userSpaceOnUse"><stop offset="0%" stop-color="#B57CFF"/><stop offset="100%" stop-color="#7E46FF"/></linearGradient></defs><path fill="url(#a)" d="M73.31414 31.97577c-4.18383 4.49193-10.64171 6.34044-16.703 4.783-6.05958-1.56086-10.69278-6.26215-11.983-12.16173a13.51832 13.51832 0 0 1-.19574-1.08596v-4.44426a19.88258 19.88258 0 0 1 .19745-1.08596c1.5132-6.8834 7.52682-12.01023 14.81874-12.6332 7.29193-.62299 14.15321 3.40255 16.90726 9.92001l5.33107-1.37022C78.46138 5.55701 70.18392.01658 60.92093.00126c-8.0681.01022-15.48938 4.2349-19.37704 11.0298C36.67579 2.51871 26.42557-1.74512 16.63662.6702 6.84597 3.08382 0 11.56383 0 21.27618c0 9.71236 6.84597 18.19237 16.63662 20.606 9.78895 2.41531 20.03918-1.84852 24.90727-10.36087 3.6817 6.44937 10.57363 10.60937 18.2179 11.00086 7.64426.3915 14.95661-3.0451 19.32938-9.08256 1.08085-1.48086 1.95745-3.08937 2.61107-4.78469l-5.33107-1.37022a15.8979 15.8979 0 0 1-3.05703 4.69107zM22.1243 37.29833c-8.68427 0-15.91152-6.41362-16.60088-14.73193-.69106-8.3183 5.38554-15.7515 13.96087-17.07407 8.57363-1.32425 16.76769 3.9064 18.82386 12.01364.1685.66553.28936 1.34298.36425 2.02553v3.5115c-.03234.29617-.08.58723-.12766.8783-.06808.38638-.14638.76936-.2417 1.14553C36.47494 32.226 29.8026 37.266 22.1311 37.28131z"/></svg>