<svg xmlns="http://www.w3.org/2000/svg" role="img" viewBox="-19.98 -19.98 1038.96 460.96"><title>OpenVINO Toolkit (AI/ML Modules and Extensions) logo</title><path fill="#00aae8" d="M0 5.882h78.711v78.711H0z"/><path d="M76.75095 415.9668V132.49344H2.24116v283.47334zm495.23802 2.80111v-69.46777c-10.92437 0-20.16807-.56023-26.89075-1.68068-7.84314-1.12044-13.7255-3.92156-17.64706-7.84313-3.92157-3.92157-6.44258-9.52381-7.84314-16.80672-1.12044-7.0028-1.68067-16.2465-1.68067-27.45098v-99.15965h54.06162v-63.86553h-54.06162V21.8492h-74.7899v274.22965c0 23.2493 1.96078 42.85713 5.88235 58.5434 3.92157 15.40616 10.64426 28.0112 19.88795 37.53501 9.2437 9.52381 21.56863 16.2465 36.41456 20.44818 15.12605 4.20168 34.17367 6.16246 56.86274 6.16246zm428.01113-2.80112V.00047h-74.7899V415.9668zM371.14866 160.22454c-20.72828-22.40896-49.85993-33.61344-86.83472-33.61344-17.92716 0-34.17366 3.64145-49.0196 10.92436-14.56582 7.28292-27.17086 17.36695-36.97478 30.2521l-4.20168 5.32213v-40.61624h-73.66946v283.47334h74.22968V264.98642 270.30855c.84034-26.61064 7.28292-46.21848 19.60784-58.82352 13.16527-13.44537 29.13165-20.16806 47.33893-20.16806 21.56863 0 38.09523 6.72269 49.0196 19.60784 10.64426 12.88515 16.2465 31.09243 16.2465 54.34173V415.68668h75.35013V254.90239c.2801-40.33613-10.36415-72.2689-31.09244-94.67785zM886.55474 273.6699c0-20.44818-3.64145-39.4958-10.64425-57.42296-7.28291-17.64706-17.36695-33.33333-29.97199-46.7787-12.88515-13.44538-28.2913-23.80953-46.21848-31.37255-17.92716-7.56303-37.81512-11.20448-59.38374-11.20448-20.44818 0-39.7759 3.92157-57.70307 11.48459-17.92717 7.84314-33.61344 18.20728-46.7787 31.37254-13.16527 13.16527-23.80953 28.85154-31.37255 46.7787-7.84314 17.92718-11.4846 37.2549-11.4846 57.70308s3.64146 39.7759 10.92438 57.70307c7.2829 17.92717 17.64705 33.61344 30.5322 46.7787 12.88516 13.16527 28.85154 23.80953 47.33893 31.37255 18.4874 7.84314 38.93557 11.7647 60.7843 11.7647 63.30532 0 102.521-28.85153 126.0504-55.74228l-53.7815-40.89636c-11.20448 13.44538-38.09523 31.65266-71.70867 31.65266-21.0084 0-38.37534-4.7619-51.5406-14.56582-13.16527-9.52381-22.12886-22.96919-26.89076-39.4958l-.84034-2.521h222.68904zm-222.12881-26.05042c0-20.72829 23.80952-56.86274 75.07001-57.14285 51.2605 0 75.35013 36.13445 75.35013 56.86274z"/></svg>