<svg xmlns="http://www.w3.org/2000/svg" role="img" viewBox="-1.12 -1.12 58.45 48.95"><title>Open Data Hub (AI/ML Modules and Extensions) logo</title><g fill="#4d5258" stroke-width=".006"><path fill="#bbb" d="M2.70683 36.58222c-1.43547 0-2.52209 1.01285-2.52209 2.3812 0 1.36164 1.08662 2.39462 2.5221 2.39462 1.43539 0 2.522-1.03968 2.522-2.39462 0-1.36164-1.08661-2.3812-2.522-2.3812zm.01412.92565c.78477 0 1.42198.6305 1.42198 1.45555 0 .82504-.63728 1.46897-1.42198 1.46897-.78478 0-1.44888-.64392-1.44888-1.46897 0-.82503.65704-1.45555 1.44888-1.45555zm5.20198-.8921H5.93077v4.69531h1.0598v-1.34152h.93236c1.19396 0 1.8781-.6305 1.8781-1.72385 0-1.03968-.68386-1.62994-1.8781-1.62994zm-.05646 2.4684h-.87872v-1.58971h.87872c.59 0 .92564.26161.92564.78479 0 .53657-.33522.80491-.92564.80491zm2.6103-2.4684v4.69531h3.64887v-.8787H11.5365v-1.03967h2.26717v-.8787h-2.26717v-1.01955h2.51538v-.8787zm4.48044 0v4.69531h1.01287v-3.01171l2.27388 3.01171h.96587v-4.69531h-1.00617v3.01841l-2.28058-3.01841z"/><path d="M23.84038 36.61577h-1.99215v4.69531h1.95192c1.48233 0 2.50861-.96589 2.50861-2.34766 0-1.38847-1.0128-2.34765-2.46838-2.34765zm.02823 3.8032h-.95917v-2.9111h.91224c.80489 0 1.40857.59698 1.40857 1.46226 0 .85858-.57658 1.44884-1.36164 1.44884zm6.47816.89211h1.13355l-2.00556-4.69531h-1.09332l-2.03916 4.69531h1.0934l.3691-.91223h2.17324zm-2.19343-1.7641l.74455-1.82447.73785 1.82447zm2.87425-2.93121v.89881h1.4287v3.7965h1.0598v-3.7965h1.43547v-.89881zm7.48095 4.69531h1.13362l-2.00563-4.69531H36.5432l-2.03908 4.69531h1.09333l.3691-.91223h2.1733zm-2.19336-1.7641l.74455-1.82447.73778 1.82447zm5.4331-2.93121v4.69531h1.05981v-1.8513h2.12631v1.8513h1.0598v-4.69531h-1.0598v1.95861h-2.1263v-1.95861zm6.25226 2.72999v-2.73h-1.0598v2.73c0 1.2409.83171 2.01228 2.13302 2.01228 1.29453 0 2.1062-.77138 2.1062-2.01228v-2.73h-1.0598v2.73c0 .67743-.41569 1.08663-1.0464 1.08663-.63023 0-1.07322-.40919-1.07322-1.08663zm6.28345-2.73h-2.15983v4.69532h2.23358c1.09333 0 1.77084-.49634 1.77084-1.30127 0-.6171-.37546-1.07322-.97928-1.18724.50319-.12746.8116-.52317.8116-1.03298 0-.72442-.64364-1.17382-1.6769-1.17382zm-.05646 1.89155h-1.04632v-1.02627h1.04632c.39592 0 .64434.1811.64434.50305 0 .32866-.24842.52316-.64434.52316zm0 1.9385h-1.04632v-1.12017h1.04632c.5032 0 .80497.2079.80497.55005 0 .36218-.30206.57016-.80497.57016z"/></g><path d="M1.92777 46.13215h.26888l-.96805-2.1649H.9717l-.97108 2.1649h.26253l.24136-.55358h1.1783zM.6072 45.34969l.48554-1.11339.4919 1.1134zm1.93216-1.38245v2.1649h.24771v-2.1649zm2.56514 0h-.81336v2.1649h.24771v-.6866h.566c.53495 0 .84434-.27524.84434-.75154 0-.46084-.3091-.72679-.84434-.72679zm-.00706 1.24946h-.55683v-1.0206h.55683c.38957 0 .6154.1732.6154.50411 0 .34017-.22583.51646-.6154.51646zm1.24704-1.37936v2.2948h.24136v-2.2948zm2.08862 2.2948L8.43 45.05589c-.0031-.34637-.22584-.55979-.6281-.55979-.27807 0-.4545.08038-.66481.21956l.10233.17008c.17008-.12061.33734-.18865.5166-.18865.28794 0 .43614.14539.43614.3835v.10205h-.53494c-.38322.0031-.60905.1825-.60905.46699 0 .27834.21666.49175.5533.49175.2597 0 .46719-.08659.59705-.26288v.25357zm-.78555-.19174c-.22866 0-.37404-.1206-.37404-.3 0-.18244.14256-.266.41426-.266h.50743v.19796c-.06352.23198-.27242.36804-.54765.36804zm2.09434-.10515c-.08963.05223-.17643.08039-.25971.0835-.13903 0-.21666-.0804-.21666-.27835v-.8969h.5166v-.18864h-.5166v-.42682h-.23784v.42682h-.235v.18865h.235v.9371c0 .32167.17644.46388.41427.46084.12986 0 .25336-.04305.36769-.1206zm1.01012-1.7907c.08328 0 .1729.03106.24771.0835l.0988-.18555c-.0988-.07424-.22583-.11447-.34933-.11447-.27242-.00309-.52295.19175-.52295.54434v.1825h-.21031v.18865h.2103v1.38863h.23784v-1.38863h.4672v-.18865h-.4672v-.21341c0-.19175.12985-.30001.28794-.2969zm1.05917.45155c-.48273 0-.82578.33713-.82578.81957 0 .48865.34298.82576.82578.82576.48272 0 .8257-.33713.8257-.82576 0-.48244-.34298-.81957-.8257-.81957zm0 .21341c.34016 0 .58435.25054.58435.60926 0 .36494-.24419.61237-.58435.61237-.34017 0-.58435-.24743-.58435-.61237 0-.35872.24418-.60926.58435-.60926zm1.48818.15771v-.36183H13.058v1.62678h.24136v-.86596c.02823-.32781.24136-.54123.58435-.53502v-.235c-.27523.00308-.47637.13295-.58435.37114zm2.99402-.37112c-.31264.00309-.5413.13917-.64293.42372-.07057-.2691-.27806-.42372-.58435-.42372-.29358.00309-.51307.12371-.62175.37728v-.36804h-.23783v1.62678h.23783v-.80102c0-.35258.20113-.5969.53495-.60615.2844 0 .45167.17318.45167.46698v.9402h.24418v-.80103c0-.35258.19479-.5969.53213-.60615.28159 0 .45167.17318.45167.46698v.9402h.24136v-1.00206c0-.39584-.22583-.63403-.60623-.63403zm2.87425 0c-.28441 0-.50743.13296-.6281.35872v-.34948h-.24137v2.22678h.24136v-.94947c.12068.22576.3437.35872.63375.35872.46085 0 .77631-.33713.77631-.81957 0-.48554-.32181-.82576-.78252-.82576zm-.04235 1.43193c-.34298 0-.58434-.25357-.58434-.61237 0-.35569.24136-.61236.58434-.61236.34017 0 .58153.25978.58153.61236 0 .3557-.24136.61237-.58153.61237zm1.90973-1.43193c-.48273 0-.82579.33713-.82579.81957 0 .48865.343.82576.82579.82576.48272 0 .8257-.33713.8257-.82576 0-.48244-.34298-.81957-.8257-.81957zm0 .21341c.34016 0 .58435.25054.58435.60926 0 .36494-.24419.61237-.58435.61237-.34017 0-.58435-.24743-.58435-.61237 0-.35872.24418-.60926.58435-.60926zm.9111-.20414l.60905 1.62678h.25054l.47637-1.33297.4792 1.33297h.25053l.6034-1.62678h-.25053l-.47637 1.38245-.4792-1.38245h-.25336l-.47284 1.38245-.48272-1.38245zm3.54033-.00927c-.47285.00309-.80722.33713-.80722.82266 0 .48555.33099.82267.81025.82267.27241 0 .50107-.09894.65563-.2691l-.13338-.13917c-.12704.13296-.30277.2072-.5039.2072-.31829 0-.55047-.2103-.5907-.53198H26.247c.02823-.55054-.23501-.91235-.76079-.91235zm-.56883.7206c.03529-.31546.2569-.51956.56883-.51956.31828 0 .5286.2041.54412.51956zm1.98496-.34948v-.36183h-.24137v1.62678h.24137v-.86596c.02823-.32781.24136-.54123.58435-.53502v-.235c-.27524.00308-.47638.13295-.58435.37114zm1.54972-.37112c-.47284.00309-.80722.33713-.80722.82266 0 .48555.331.82267.81033.82267.27241 0 .50107-.09894.65563-.2691l-.13268-.13917c-.12704.13296-.30276.2072-.5039.2072-.31829 0-.55047-.2103-.5907-.53198h1.32982c.02823-.55054-.23501-.91235-.76078-.91235zm-.56882.7206c.03529-.31546.25689-.51956.56882-.51956.31829 0 .5286.2041.54412.51956zm2.99938-1.37936v1.0206c-.12068-.23197-.34652-.36493-.63728-.36493-.46085 0-.78245.33713-.78245.82267s.32181.82885.78555.82885c.29077 0 .51307-.13296.63375-.36183v.34948h.24136v-2.2948zm-.58788 2.09997c-.34652 0-.5907-.25668-.5907-.61547 0-.35873.24418-.61858.5907-.61858.34299 0 .58788.25978.58788.61858 0 .35872-.24419.61547-.58788.61547zm3.16452-1.44121c-.28441 0-.50743.13296-.6281.35872v-1.0175h-.24137v2.2948h.24136v-.34948c.12068.22577.343.35873.63375.35873.46085 0 .77631-.33713.77631-.81957 0-.48555-.32181-.82577-.78245-.82577zm-.04235 1.43193c-.34298 0-.58435-.25357-.58435-.61237 0-.35569.24137-.61236.58435-.61236.34017 0 .58153.25978.58153.61236 0 .3557-.24136.61237-.58153.61237zm1.71304.43608l.74843-1.85874h-.24771L35.1143 45.86l-.5413-1.35462h-.25336l.67398 1.61441-.07058.15463c-.06351.15463-.17008.23508-.29711.23508-.08046 0-.15456-.0247-.22866-.07728l-.10233.19175c.0988.08039.20749.1175.34299.1175.21666 0 .38674-.12992.48837-.37728zm2.8434-2.40306c-.63374 0-1.13503.4794-1.13503 1.08865 0 .60926.50107 1.09173 1.13504 1.09173.63093 0 1.13193-.48244 1.13193-1.09173 0-.60926-.50107-1.08865-1.13193-1.08865zm0 .22887c.48273 0 .87837.3804.87837.85979 0 .47933-.39592.86595-.87836.86595-.48273 0-.8845-.3866-.8845-.86595 0-.47941.40227-.85979.8845-.85979zm2.43247.30618c-.28441 0-.50743.13296-.6281.35872v-.34948h-.24137v2.22678h.24136v-.94947c.12068.22576.343.35872.63375.35872.46085 0 .77624-.33713.77624-.81957 0-.48554-.32181-.82576-.78245-.82576zm-.04235 1.43193c-.34298 0-.58435-.25357-.58435-.61237 0-.35569.24137-.61236.58435-.61236.34017 0 .58153.25978.58153.61236 0 .3557-.24136.61237-.58153.61237zm1.8911-1.43193c-.47285.00309-.80716.33713-.80716.82266 0 .48555.331.82267.81026.82267.27241 0 .50107-.09894.65563-.2691l-.13339-.13917c-.12703.13296-.30276.2072-.5039.2072-.31828 0-.55047-.2103-.5907-.53198h1.3299c.02823-.55054-.23501-.91235-.76086-.91235zm-.56883.7206c.03529-.31546.25689-.51956.56882-.51956.3183 0 .5286.2041.54413.51956zm2.61588-.7206c-.29711.00309-.5166.1206-.63093.36804v-.3588h-.24136v1.62678h.24136v-.87215c.02823-.31546.22584-.52888.54765-.53191.28795 0 .46085.17319.46085.46388v.94019h.24136v-1.00205c0-.39585-.22866-.63403-.61822-.63403zm3.26191-.11753l.10516-.21955c-.17926-.12061-.43615-.201-.68668-.201-.44815 0-.74844.21652-.74844.55669 0 .77627 1.21853.47009 1.21542 1.04843 0 .21031-.19478.33713-.50742.33713-.24419 0-.51942-.11136-.72056-.30311l-.1115.21341c.20395.19486.51307.33092.82888.33092.46367 0 .78245-.23197.78245-.5907.0031-.78555-1.21549-.49175-1.21549-1.05462 0-.18554.18279-.2969.46085-.2969.1729 0 .40227.05293.59705.1794zm1.29376.11753c-.48272 0-.82578.33713-.82578.81957 0 .48865.34298.82576.82578.82576.48272 0 .82578-.33713.82578-.82576 0-.48244-.3437-.81957-.82578-.81957zm0 .21341c.34016 0 .58435.25054.58435.60926 0 .36494-.24419.61237-.58435.61237-.34017 0-.58435-.24743-.58435-.61237 0-.35872.24418-.60926.58435-.60926zm2.41912-.20414v.79793c0 .35258-.19831.60001-.53495.60615-.28159 0-.45167-.17318-.45167-.46388v-.9402h-.24136v1.00205c0 .39275.22866.63404.60905.63404.29359-.0031.51025-.12372.61822-.37729v.36804h.24137v-1.62677zm1.06848.36185v-.36183h-.24136v1.62678h.24136v-.86596c.02823-.32781.24137-.54123.58435-.53502v-.235c-.27523.00308-.47637.13295-.58435.37114zm2.0446.03712l.13267-.16698c-.1482-.15152-.36486-.24122-.6281-.24122-.47002 0-.80722.34017-.80722.82266 0 .48555.3338.82267.80722.82267.28158 0 .50742-.10515.6528-.28145l-.13903-.14227c-.11433.13606-.29076.2103-.5039.2103-.33734 0-.5787-.24742-.5787-.60925 0-.35873.24136-.60616.5787-.60616.19761 0 .36205.07114.48555.19175zm1.16022-.40824c-.47284.00309-.80715.33713-.80715.82266 0 .48555.331.82267.81026.82267.27241 0 .50107-.09894.65563-.2691l-.13339-.13917c-.12703.13296-.30276.2072-.5039.2072-.31828 0-.55047-.2103-.5907-.53198h1.3299c.02822-.55054-.23502-.91235-.76086-.91235zm-.56882.7206c.03529-.31546.25689-.51956.56882-.51956.31829 0 .5286.2041.54413.51956z" fill="#58595b" stroke-width=".01"/><g><path fill="#a586f3" d="M31.67976.00078c-.5968.00849-1.07308.50031-1.06243 1.09707v20.317c-.05408.62942.44225 1.17021 1.07398 1.17021.63173 0 1.1716-.54079 1.11753-1.1702V16.6273l.02573-.37832c0-3.39729 2.72322-6.13205 6.12051-6.13205 3.39728 0 6.13205 2.73476 6.13205 6.13205.00062.01131.00093.02263.00167.03392a1.05942 1.05942 0 00-.00166.08156v6.7749c0 .59633.48341 1.07975 1.07974 1.07975.59633 0 1.07975-.48342 1.07975-1.07975v-6.7749a1.02308 1.02308 0 00-.0019-.0599 1.04534 1.04534 0 00.0019-.05558c.00001-4.56228-3.72927-8.28-8.29155-8.28-2.45853 0-4.67139 1.08-6.1898 2.78959V1.09785c.01078-.60577-.47966-1.10143-1.08552-1.09707z" color="#000" style="text-indent:0;text-align:start;text-decoration-line:none;text-decoration-style:solid;text-decoration-color:#000;text-transform:none;text-orientation:mixed;shape-padding:0;isolation:auto;mix-blend-mode:normal;solid-color:#000;solid-opacity:1" overflow="visible"/><path fill="#5ed3ee" d="M29.03079.0584c-.00234.00003-.00474 0-.0071 0-.5968.00848-1.07308.50031-1.06242 1.09707v15.09352c0 2.58267-1.60234 4.88206-4.0303 5.76251-2.42796.88046-5.14642.14623-6.80185-1.83615-1.65541-1.98236-1.88822-4.77765-.58895-7.0097 1.29927-2.23207 3.84483-3.4053 6.38611-2.94478.58617.10715 1.14843-.28053 1.2567-.86649.10828-.58596-.2783-1.14896-.86406-1.25837-3.42658-.62095-6.8861.97447-8.638 3.9841-1.7519 3.00964-1.43529 6.80805.79682 9.48102 2.23212 2.67296 5.90698 3.65847 9.18076 2.4713 2.75718-.99984 4.7442-3.36639 5.30276-6.16862 0 0 .12202-.2937.1595-.56394.03749-.27024 0-1.05088 0-1.05088V1.15559c.0109-.60758-.48232-1.10408-1.08997-1.0972z" color="#000" style="text-indent:0;text-align:start;text-decoration-line:none;text-decoration-style:solid;text-decoration-color:#000;text-transform:none;text-orientation:mixed;shape-padding:0;isolation:auto;mix-blend-mode:normal;solid-color:#000;solid-opacity:1" overflow="visible"/><g fill="none" stroke-width=".365" transform="translate(-449.265 -83.342) scale(5.91262)"><circle cx="79.677" cy="16.823" r=".645" stroke="#c6ea70"/><path stroke="#dff3b1" stroke-linecap="round" stroke-linejoin="round" d="M80.80866 18.2343a1.80887 1.80887 0 01-2.30919-.03848 1.80887 1.80887 0 01-.38924-2.27646 1.80887 1.80887 0 012.16521-.80353"/><path stroke="#f2fadf" stroke-linecap="round" stroke-linejoin="round" d="M82.21627 17.24864a2.45586 2.44252 0 01-2.46822 2.0164 2.45586 2.44252 0 01-2.38375-2.11455 2.45586 2.44252 0 011.73311-2.6685"/></g></g></svg>