<svg xmlns="http://www.w3.org/2000/svg" role="img" viewBox="-15.19 -15.19 789.88 789.88"><title>Paperspace Gradient (Interactive Workbench) logo</title><style>svg {enable-background:new 0 0 759.7 759.7}</style><circle cx="379.8" cy="379.8" r="379.8" fill="#0e1219"/><path fill="none" stroke="#fff" stroke-miterlimit="10" stroke-width="24.492" d="M623.2 355.2c0 122.5-149.2 265.7-278.1 265.7S147.6 485.7 147.6 363.2s126-225 254.9-225c128.8 0 220.7 94.5 220.7 217z" opacity=".25"/><path fill="none" stroke="#fff" stroke-miterlimit="10" stroke-width="24.492" d="M607.1 357.3c0 111.3-139.1 238.3-259.3 238.3s-184.2-119.7-184.2-231 108.1-201 228.2-201c120.2-.1 215.3 82.4 215.3 193.7z" opacity=".54"/><path fill="none" stroke="#fff" stroke-miterlimit="10" stroke-width="24.492" d="M588 363.2c0 110.9-124.4 205.1-237.3 205.1s-167-86.2-167-197.1 79.7-179.7 192.5-179.7S588 252.2 588 363.2z"/><path fill="#fff" d="M326.9 261h99.7c37.3 0 68 23.9 68 65.1 0 52.3-41.2 83.7-92.5 83.7h-51.6l-14.7 84.3h-50L326.9 261zm72.9 108.8c25.5 0 45.4-13.1 45.4-39.6 0-20.6-16-29.1-33.7-29.1h-41.8l-12.1 68.6h42.2z"/></svg>