<svg xmlns="http://www.w3.org/2000/svg" role="img" viewBox="259.97 169.97 729.56 360.56"><title>Penguin (Hardware Stacks) logo</title><style>svg {enable-background:new 0 0 1250 703}</style><path d="M488.8 326c.1 5-1.1 10-3.6 14.4-2.4 4.2-6 7.7-10.3 9.9-4.8 2.5-10.1 3.8-15.5 3.6h-21v36.2h-14.1v-92.2h35.2c4.1 0 8.2.7 12.1 2.1 3.5 1.3 6.8 3.3 9.5 5.9 2.5 2.5 4.5 5.5 5.9 8.8 1.3 3.6 1.9 7.4 1.8 11.3zm-13.9 0c.2-4.2-1.4-8.3-4.4-11.3-3.3-2.9-7.5-4.4-11.9-4.2h-20.1v30.6h20.1c4.3.2 8.6-1.3 11.9-4.2 3-2.8 4.7-6.8 4.6-10.9h-.2zm89.8 64.1h-58.9v-92.2h58.9v12.6h-44.8v26.8h38.2v12.6h-38.2v27.6h44.8v12.6zm88.4 0h-12.8l-42.5-64.7v64.7h-14v-92.2h12.9l42.5 64.6v-64.4h14l-.1 92zm87.3-35.7c.1 5.1-.5 10.1-1.8 15-1.3 4.1-3.5 7.8-6.4 10.9-6.5 6.9-15.7 10.7-25.1 10.5-3.1 0-6.1-.4-9.1-1.1-2.9-.7-5.6-1.9-8.2-3.4-2.5-1.5-4.9-3.3-6.9-5.3-2.8-2.7-4.9-5.9-6.4-9.5-1.3-3.5-2.1-7.1-2.3-10.8-.3-3.9-.4-9.5-.4-16.8 0-5.6 0-10 .2-13.3.1-3 .5-6 1-9 .5-2.7 1.4-5.2 2.6-7.7 1.3-2.6 3.1-4.9 5.2-7 6.3-6.4 15-9.9 24-9.6 5.7-.1 11.4 1.1 16.5 3.7 4.6 2.4 8.5 5.9 11.3 10.2 2.9 4.4 4.8 9.4 5.7 14.6h-14.2c-.7-3-1.9-5.9-3.7-8.4-1.7-2.3-3.9-4.2-6.5-5.5-2.9-1.3-6-2-9.1-1.9-2.6 0-5.2.5-7.5 1.5-2.3.9-4.4 2.4-6.1 4.2-2.3 2.6-3.8 5.8-4.4 9.3-.9 6.4-1.3 12.8-1.1 19.3 0 4.9 0 8.7.2 11.5.1 2.6.4 5.1.8 7.6.3 1.9.8 3.7 1.6 5.4.8 1.5 1.7 2.9 2.8 4.2 1.7 1.8 3.8 3.2 6 4.2 2.4 1 5 1.5 7.6 1.5 5.7.2 11.2-2.1 15-6.5 3.3-4.1 5-9.2 4.7-14.4v-5.5h-19.7v-11.9h33.5l.2 14zm85.1 4.6c.2 5.9-1.3 11.7-4.2 16.8-2.8 4.8-6.9 8.7-11.9 11.2-10.6 5.3-23.1 5.3-33.8 0-4.9-2.5-9-6.4-11.9-11.2-2.9-5.1-4.4-10.9-4.2-16.8v-60.8h14v60.3c-.1 3.7.7 7.3 2.3 10.6 1.4 2.9 3.7 5.2 6.5 6.8 3.1 1.7 6.5 2.5 10 2.4 3.5.1 7-.8 10.1-2.4 2.9-1.6 5.2-4 6.7-6.9 1.6-3.3 2.4-6.9 2.3-10.6v-60.1h14V359h.1zm36.6 31.1H848v-92.2h14.1v92.2zm93.2 0h-12.8l-42.4-64.7v64.7h-14v-92.2H899l42.4 64.8v-64.6h14l-.1 92zm-481.1 69.2c-.5 3.2-1.6 6.3-3.1 9.2-1.4 2.6-3.2 4.9-5.4 6.7-2.2 1.8-4.7 3.3-7.4 4.2-2.9.9-5.9 1.4-8.9 1.4-2.3 0-4.6-.3-6.9-.8-2.2-.5-4.3-1.4-6.2-2.6-1.9-1.2-3.7-2.6-5.3-4.2-2-2-3.6-4.5-4.7-7.1-1-2.7-1.6-5.5-1.8-8.4-.2-2.9-.3-7.2-.3-12.6V435c.1-2.3.4-4.6.8-6.9.4-2 1.1-4 2-5.8 1-2 2.3-3.8 3.9-5.3 2.4-2.4 5.2-4.3 8.4-5.5 3.2-1.3 6.6-1.9 10.1-1.9 6-.2 11.8 1.8 16.4 5.6 4.6 4.1 7.6 9.8 8.4 15.9h-10.8c-.7-3.4-2.4-6.4-4.9-8.8-2.6-2.2-5.9-3.3-9.2-3.2-2 0-3.9.3-5.8 1.1-1.7.7-3.3 1.7-4.6 3.1-.9.9-1.6 1.9-2.1 3.1-.6 1.3-1.1 2.7-1.3 4.2-.4 1.9-.6 3.8-.7 5.7v17.5c.1 1.9.3 3.8.7 5.7.2 1.5.6 2.9 1.3 4.2.6 1.1 1.3 2.2 2.1 3.2 1.3 1.3 2.9 2.4 4.6 3.1 1.8.8 3.8 1.1 5.8 1.1 2.3 0 4.6-.5 6.6-1.5 1.9-1 3.6-2.4 4.8-4.2 1.3-1.9 2.2-4 2.7-6.2l10.8.1zm61-14.1c0 5.5 0 9.8-.3 12.6-.2 2.9-.8 5.7-1.8 8.4s-2.6 5.1-4.6 7.1c-10.2 9.9-26.5 9.9-36.7 0-2-2-3.6-4.5-4.7-7.1-1-2.7-1.6-5.5-1.8-8.4-.3-2.9-.3-7.2-.3-12.6v-10.1c.1-2.3.3-4.6.8-6.9.4-2 1-4 2-5.8 1-2 2.3-3.8 3.9-5.3 4.8-4.9 11.4-7.6 18.3-7.4 6.9-.2 13.6 2.5 18.4 7.4 2 2 3.6 4.5 4.7 7.2 1 2.7 1.5 5.5 1.7 8.4.3 2.8.4 7.1.4 12.5zm-10.5 0c.1-4.9-.2-9.8-.8-14.7-.4-2.6-1.6-5-3.4-7-1.3-1.4-2.9-2.4-4.6-3.1-3.7-1.5-7.9-1.5-11.6 0-1.8.7-3.3 1.8-4.7 3.1-1.7 2-2.9 4.4-3.3 7-.7 4.8-.9 9.7-.8 14.6v8.8c.1 2 .3 3.9.7 5.8.2 1.3.6 2.6 1.1 3.9.6 1.1 1.3 2.2 2.1 3.1 1.3 1.4 2.9 2.4 4.7 3.2 1.8.8 3.8 1.1 5.7 1.1 3.9.2 7.7-1.4 10.4-4.2 1.2-1.2 2.1-2.6 2.6-4.2.7-2.1 1.1-4.3 1.2-6.5.5-2.7.7-6.3.7-10.9zm87.1 35h-10.7v-46.7l-16 34h-7.8l-16.4-34v46.7h-10.7v-69.8h10.7l20.4 43.4 19.9-43.4H612l-.2 69.8zm66.2-48.7c.1 3.8-.9 7.6-2.7 10.9-1.8 3.2-4.6 5.8-7.8 7.5-3.6 1.9-7.7 2.8-11.8 2.8H640v27.4h-10.7v-69.8h26.5c3.1 0 6.3.5 9.2 1.6 2.7 1 5.1 2.5 7.2 4.4 1.9 1.9 3.5 4.2 4.5 6.7.9 2.8 1.4 5.7 1.3 8.5zm-10.5 0c.1-3.1-1.1-6.2-3.4-8.4-2.5-2.2-5.7-3.3-9-3.1h-15.3v23.2h15.3c3.3.2 6.5-.9 9-3.1 2.4-2.1 3.6-5.3 3.4-8.6zm71.7 25.1c.1 4.4-1.1 8.8-3.3 12.6-2.1 3.6-5.2 6.5-9 8.4-8.1 4-17.6 4-25.6 0-3.7-1.9-6.8-4.8-8.9-8.4-2.2-3.8-3.3-8.2-3.3-12.6v-46.1h10.6v45.6c-.1 2.8.5 5.5 1.8 8 1.1 2.2 2.9 4.1 5 5.3 2.3 1.3 4.9 1.9 7.6 1.8 2.7.1 5.3-.6 7.6-1.8 2.2-1.2 4-3 5.1-5.2 1.2-2.5 1.8-5.3 1.8-8v-45.7h10.6v46.1zm59.3-36.7h-19.2v60.3h-10.6v-60.3h-19.2v-9.5h49v9.5zm22 60.3h-10.7v-69.8h10.7v69.8zm70 0h-9.7L848.6 431v49.2H838v-69.8h9.8l32.3 49v-49h10.6v69.8h-.2zm65.7-27.1c.1 3.9-.4 7.7-1.4 11.4-.9 3.1-2.6 6-4.9 8.4-5 5.3-12 8.2-19.2 7.9-2.3 0-4.6-.3-6.9-.8-4.3-1.1-8.3-3.4-11.4-6.6-2-2-3.6-4.5-4.7-7.1-1-2.7-1.6-5.5-1.8-8.4 0-2.9-.3-7.2-.3-12.6v-10.1c.1-2.3.4-4.6.8-6.9.4-2 1-4 2-5.8 1-2 2.3-3.8 3.9-5.3 4.8-4.9 11.4-7.6 18.3-7.4 4.4-.1 8.7.9 12.6 2.8 3.5 1.8 6.5 4.5 8.6 7.8 2.1 3.4 3.6 7.1 4.2 11.1h-10.3c-.5-2.3-1.5-4.5-2.8-6.5-1.3-1.8-3-3.2-5-4.2-2.2-1-4.5-1.5-6.9-1.4-2 0-3.9.4-5.7 1.1s-3.3 1.8-4.7 3.1c-1.7 2-2.9 4.4-3.4 7-.7 4.9-1 9.8-.8 14.7v8.7c.1 1.9.3 3.8.6 5.7.2 1.4.7 2.9 1.3 4.2.6 1.1 1.3 2.2 2.1 3.2 1.3 1.3 2.9 2.4 4.6 3.1 1.8.8 3.8 1.1 5.7 1.1 4.3.2 8.5-1.6 11.4-4.9 2.5-3.1 3.8-7.1 3.5-11.1v-3.9h-14.9v-9h25.4l.1 10.7z"/><linearGradient id="a" x1="625" x2="625" y1="604.931" y2="272.4" gradientTransform="translate(0 -88)" gradientUnits="userSpaceOnUse"><stop offset="0" stop-color="#f3a010"/><stop offset="1" stop-color="#f9d300"/></linearGradient><path fill="url(#a)" d="M730.1 203c-242.6 0-411.8 91.5-411.8 187.2 0 45.3 39.7 90.9 121.1 126.7 2.5 1-165.3-21.7-165.3-129.1 0-133.7 213.3-203.4 411.9-203.4 127.1 0 257.4 34.8 289.8 56.6.1-.1-89.2-38-245.7-38z"/></svg>