<svg xmlns="http://www.w3.org/2000/svg" role="img" viewBox="-7.84 -7.84 58.80 75.92"><title>Perceptilabs Modeling and Visualization Tool (Pre-defined Models as a Service) logo</title><style>svg {fill:none}</style><path fill="#000" d="M-6.302-6.333h55.854v73.076H-6.302z"/><path fill="#fff" d="M44.93996 29.8l-4.3-8.2-.5-4.9c-.1-2.6-.7-5.2-2-7.5-1.3-2.5-3.3-4.7-5.7-6.2v13.1l2.6 2.6c.2-.1.4-.1.6-.1 1.3 0 2.3 1 2.3 2.3 0 1.3-1 2.3-2.3 2.3-1.3 0-2.3-1-2.3-2.3 0-.2 0-.4.1-.6l-3.3-3.3V1.9c-.1 0-.1999-.1-.2999-.2-.8-.3-1.6-.6-2.5-.9v24.3l2.6 2.6c.2-.1.4-.1.6-.1 1.3 0 2.2999 1 2.2999 2.3 0 1.3-.9999 2.3-2.2999 2.3s-2.3-1-2.3-2.3c0-.2 0-.4.1-.6l-3.3-3.3V.3c-.9-.2-1.9-.3-2.8-.3v33.3c.7.4 1.2 1.1 1.2 2 0 1.3-1.0001 2.3-2.3001 2.3s-2.2999-1-2.2999-2.3c0-.9.5-1.6 1.2-2V0c-1 0-1.9.1-2.8.2V26l-3.3 3.3c.1.2.1.4.1.6 0 1.3-1 2.3-2.3 2.3-1.3 0-2.3-1-2.3-2.3 0-1.3 1-2.3 2.3-2.3.2 0 .4 0 .6.1l2.6-2.6V.6c-1 .2-1.9.5-2.8.7v15.6l-3.3 3.3c.1.2.1.4.1.6 0 1.3-1 2.3-2.3 2.3-1.3 0-2.3-1-2.3-2.3 0-1.3 1-2.3 2.3-2.3.2 0 .4 0 .6.1l2.6-2.6V2.1c-3.7 1.8-6.7 4.8-8.4 8.6l-.1.3c-1.7 4.1-1.8 8.6-.2 12.7l2.2 5.6c0 .1.1.2.2.3l1.8 2.9c.2.4.3.8.3 1.2l-1 6.9 20.1 18.4 4.1-9.8c.3-.6.9-1.1 1.6-1.2l6.0999-.7c1.3-.1 2.4-.8 3.3-1.8.8-1 1.2-2.3 1.1-3.6l-.6-6.8c-.1-.8.4-1.6 1.1-1.9l2.3-1c1.1-.4 1.6-1.5 1.2-2.4z"/></svg>