<svg xmlns="http://www.w3.org/2000/svg" role="img" viewBox="-3.62 6.38 409.24 97.24"><title>Pipeline.ai (Interactive Workbench) logo</title><g fill-rule="evenodd"><path fill="#fc1c04" d="M349.605 16.513c-.216.17-.743.313-1.278.347-.651.042-.91.126-.91.296 0 .163-.205.244-.643.255-.384.01-.721.125-.839.286-.109.149-.383.297-.608.329-.27.038-.402.158-.387.349.013.16-.081.292-.209.292-.127 0-.381.15-.564.333-.184.183-.285.333-.225.333.06 0-.064.15-.275.334-.212.183-.456.333-.544.333-.087 0-.118.107-.067.238.05.131-.032.337-.181.458-.229.185-.25.183-.131-.013.096-.161.079-.196-.054-.114-.108.066-.155.185-.107.264.049.079.008.194-.092.256-.099.061-.14.216-.091.345.051.131-.013.233-.145.233-.13 0-.277.068-.329.151-.051.083.076.118.282.079l.375-.072-.375.196c-.206.108-.375.319-.375.468 0 .149-.147.377-.327.506-.264.191-.288.284-.125.486.164.202.158.223-.028.111-.159-.096-.204-.068-.146.093.046.127-.061.392-.239.587-.183.202-.336.633-.353 1-.018.365-.147.731-.298.845-.187.14-.269.482-.276 1.147-.009.937-.3 1.454-.575 1.019-.069-.11-.1.157-.068.592.052.726-.016.863-.412.821-.053-.006-.104.079-.113.188-.008.11-.07.38-.137.6-.096.318-.073.373.113.266.129-.074.044.083-.19.349-.233.266-.446.703-.473.97-.028.268-.21.703-.406.967-.284.385-.311.509-.132.619.136.084.154.162.048.2-.097.034-.202.249-.233.478-.032.23-.196.623-.363.876-.168.252-.266.608-.218.791.055.212.005.333-.138.333-.35 0-.462.32-.217.623.137.169.147.229.025.156-.136-.082-.214.078-.25.51-.033.401-.129.612-.265.585-.308-.063-.462.466-.186.641.166.105.173.148.024.149-.115.002-.208.144-.208.316 0 .172-.108.402-.239.511-.131.109-.239.324-.24.479-.001.604-.117.957-.392 1.197-.181.158-.3.534-.322 1.025-.025.563-.095.752-.254.69-.279-.106-.285.152-.012.428.167.168.156.19-.054.11-.213-.081-.261.023-.25.548.009.478-.053.644-.237.632-.175-.011-.25.147-.249.525.001.298-.063.542-.144.542-.08 0-.112.223-.072.496.058.397.028.459-.148.313-.263-.218-.26-.225-.299.568-.017.345-.177.795-.354 1-.178.205-.341.594-.363.864-.022.27-.131.547-.243.616-.112.07-.216.449-.231.843-.036.979-.032.967-.314.967-.138 0-.256.056-.263.125-.007.068-.038.26-.07.426-.046.245-.012.264.184.101.195-.162.22-.149.135.074-.058.151-.17.274-.249.274-.079 0-.102.106-.052.237.052.136-.058.317-.26.425-.193.103-.311.253-.262.332.049.079-.005.182-.12.229-.159.064-.149.128.04.261.184.131.193.178.032.18-.149.002-.193.162-.139.506.064.403.024.495-.198.459-.201-.033-.305.115-.376.537-.147.871-.338 1.341-.504 1.239-.082-.051-.148-.017-.148.075s.079.215.175.275c.12.074.115.179-.015.336-.104.125-.14.306-.081.401.059.096-.011.174-.157.174-.364 0-.676.837-.387 1.041.17.12.172.169.007.236-.115.046-.209.183-.209.303s-.103.258-.23.306c-.143.055-.234.354-.24.787-.007.499-.103.764-.339.929-.23.161-.328.42-.326.856.004.936-.02 1.109-.141.988-.192-.192-.536.476-.485.941.027.246-.016.447-.095.447s-.144.117-.144.26c0 .142-.065.219-.146.169-.08-.05-.127.133-.104.405.028.327-.086.634-.337.904-.278.3-.373.59-.354 1.086.016.45-.046.676-.188.676-.286 0-.512.642-.478 1.36.021.462-.029.573-.237.518-.223-.058-.268.134-.291 1.224-.017.797-.104 1.339-.227 1.415-.151.094-.153.18-.007.356.105.127.213.8.239 1.495.04 1.078.088 1.255.327 1.209.198-.038.262.039.218.264-.037.192.105.448.36.648.253.199.37.411.295.532-.087.141-.036.168.168.09.209-.08.318-.017.38.219.048.183.153.292.233.242.08-.049.105.017.055.148-.104.269.172.411.712.367.202-.017.328.032.281.108-.047.076-.03.227.037.335.084.136.161.097.248-.125.12-.306.127-.305.138.027.01.296.116.35.694.35.379 0 .742.096.816.215.073.119.46.245.859.281.528.047.658.018.476-.104-.204-.138-.179-.17.135-.172.211-.001.344.064.294.145-.141.227.77.119 1.238-.147.229-.131.481-.219.56-.196.079.023.248-.093.375-.256.215-.277.225-.277.131-.007-.127.364.041.375.389.027.226-.225.23-.288.03-.417-.154-.099-.053-.116.292-.05.479.092.576.034 1.044-.625.284-.399.684-.909.889-1.133.205-.223.26-.34.123-.259-.214.125-.218.106-.027-.128.122-.151.167-.365.099-.475-.078-.126-.053-.156.069-.081.112.069.192.018.192-.123 0-.133.107-.283.237-.333.162-.062.227-.318.204-.809-.026-.574.036-.753.305-.89.229-.117.339-.34.342-.696.002-.288.152-.687.333-.887.181-.2.309-.394.285-.431-.084-.125.177-.981.398-1.303.174-.255.178-.375.017-.574-.164-.203-.161-.226.019-.118.163.099.214.03.19-.259-.057-.685-.008-.805.283-.693.211.081.253.039.171-.172-.059-.156-.026-.279.075-.279.12 0 .112-.085-.025-.25-.13-.156-.141-.25-.032-.25.097 0 .2-.206.229-.458.029-.252.137-.443.24-.424.112.021.17-.165.145-.458-.023-.271.024-.493.105-.493.08 0 .146-.11.146-.244 0-.563.576-.59 12.547-.59 13.317 0 12.525-.073 12.49 1.164-.008.273.055.54.141.593.085.053.155.017.155-.08s.065-.177.145-.177c.079 0 .119.3.088.667-.046.541-.002.667.23.669.231.002.242.032.055.15-.313.198-.097.747.242.617.154-.059.215-.029.151.073-.058.095-.013.285.101.422.157.188.16.297.016.442-.145.144-.114.276.126.534.174.189.339.605.364.926.026.321.137.696.247.834.109.137.251.569.315.959s.185.667.268.615c.084-.052.152-.01.152.092 0 .103.057.152.125.109.069-.042.118.193.108.524-.025.852.085 1.158.45 1.253.224.059.285.17.206.376-.071.187-.048.253.066.183.097-.06.219-.001.269.131.065.168.007.214-.19.152-.159-.049-.063.11.216.361.275.246.407.398.292.336-.361-.193-.214.137.34.76.294.332.704.655.91.72.207.065.452.261.546.436.123.23.309.302.671.26.291-.034.655.059.871.222.459.346 1.25.413 1.593.136.208-.168.233-.167.13.005-.098.163.018.198.486.146.339-.037.674-.162.745-.277.072-.116.419-.226.773-.246.859-.047 1.334-.25 1.032-.441-.152-.096-.073-.141.247-.143.621-.003 1.162-.305 1.054-.587-.06-.154.019-.206.245-.162.197.038.374-.046.436-.207.057-.149.241-.408.408-.576.328-.327.42-.728.126-.546-.102.062-.089-.034.029-.224.115-.184.305-.297.422-.252.129.049.26-.102.33-.383.072-.286.047-.488-.064-.525-.128-.043-.13-.206-.008-.556.095-.272.134-.643.087-.823-.048-.181-.018-.328.065-.328s.151-.113.151-.25c0-.138-.068-.25-.151-.25-.083 0-.114-.141-.07-.312.045-.172.007-.585-.086-.919-.097-.351-.102-.566-.013-.511.084.052.153-.019.153-.157s-.099-.311-.221-.385c-.299-.18-.503-.715-.456-1.193.023-.233-.03-.351-.13-.289-.093.057-.224.017-.29-.091-.073-.117-.049-.15.06-.083.1.061.228.036.286-.058.057-.093.02-.169-.082-.169-.102 0-.141-.074-.085-.165.059-.094-.008-.122-.156-.065-.249.095-.356-.264-.269-.907.017-.122-.068-.342-.188-.491-.161-.199-.164-.236-.01-.144.3.18.257.046-.128-.397-.19-.219-.295-.514-.243-.678.051-.161.013-.341-.084-.4-.096-.06-.138-.171-.092-.246.047-.075-.027-.229-.164-.342-.136-.113-.248-.389-.248-.612 0-.276-.066-.368-.208-.288-.163.092-.165.07-.007-.1.159-.172.117-.317-.198-.691-.314-.374-.379-.598-.304-1.058.058-.358.026-.583-.082-.583-.097 0-.289-.226-.427-.502-.138-.277-.181-.46-.096-.407.086.052.156.021.156-.071s-.077-.214-.17-.271c-.093-.058-.123-.18-.066-.271.056-.092-.041-.204-.217-.25-.251-.066-.303-.194-.244-.596.059-.404.026-.483-.156-.373-.196.118-.196.096-.002-.143.143-.177.161-.282.046-.282-.256 0-.647-.853-.563-1.228.051-.226.009-.275-.154-.177-.187.113-.188.09-.002-.139.253-.311.131-.623-.242-.623-.138 0-.202-.078-.142-.174.059-.096.016-.283-.094-.417-.142-.171-.146-.242-.015-.242.103 0 .187-.08.187-.177 0-.097-.08-.127-.177-.066-.098.06-.164.008-.147-.116.062-.456-.015-.641-.269-.641-.143 0-.211-.079-.152-.174.059-.096.022-.277-.082-.402-.124-.15-.131-.264-.02-.332.1-.062.022-.272-.194-.521-.259-.297-.349-.593-.317-1.035.036-.505-.054-.72-.485-1.161-.383-.392-.455-.542-.26-.542.381 0 .335-.287-.113-.716-.284-.272-.376-.531-.353-.997.022-.457-.058-.691-.294-.856-.229-.161-.327-.43-.333-.925-.006-.433-.097-.732-.24-.787-.127-.048-.23-.23-.23-.403 0-.174-.094-.317-.209-.319-.161-.002-.16-.033.007-.138.275-.175-.016-1.026-.351-1.026-.162 0-.215-.195-.184-.68.039-.61.02-.649-.185-.375-.214.285-.222.281-.134-.071.052-.206.01-.478-.094-.603s-.21-.493-.237-.818c-.027-.325-.144-.706-.262-.847-.117-.142-.234-.505-.258-.807-.069-.829-.075-.841-.343-.738-.263.101-.282.041-.284-.894 0-.36-.134-.729-.35-.963-.237-.257-.338-.564-.312-.946.026-.388-.058-.635-.267-.787-.205-.149-.294-.403-.273-.781.02-.352-.08-.672-.269-.861-.165-.165-.325-.551-.355-.856-.055-.564-.3-.992-.5-.872-.06.037-.07-.084-.022-.267.048-.184.01-.334-.084-.334s-.15-.131-.124-.291c.026-.161-.037-.4-.14-.532-.149-.192-.137-.212.063-.098.14.079.097-.035-.097-.26-.209-.243-.328-.584-.301-.86.024-.252-.03-.459-.122-.459-.091 0-.112-.087-.046-.195.081-.131.03-.16-.157-.088-.294.113-.334-.026-.284-.979.016-.291-.085-.607-.233-.729-.143-.119-.26-.361-.26-.539 0-.177-.064-.283-.143-.235-.078.049-.106-.099-.062-.329.05-.261-.034-.542-.223-.751-.166-.184-.309-.602-.317-.928-.009-.356-.131-.679-.302-.804-.157-.115-.3-.426-.318-.691-.026-.4-.635-1.323-.635-.962 0 .063-.15-.02-.333-.186-.365-.331-.433-.584-.157-.584.097 0 .123.087.057.193-.078.127-.045.147.1.057.139-.086.177-.069.106.046-.061.1-.036.228.058.286.322.199.168-.397-.163-.629-.183-.128-.283-.282-.222-.343.06-.06.003-.111-.127-.112-.194-.002-.196-.028-.012-.145.171-.108.107-.225-.269-.492-.271-.193-.552-.297-.625-.231-.073.066-.075.019-.003-.104.147-.254-.774-1.192-1.17-1.192-.136 0-.24-.159-.24-.367 0-.285-.044-.322-.2-.167-.228.229-.531.273-.399.058.166-.267-.317-.69-.857-.752-.297-.034-.664-.164-.815-.29-.151-.125-.692-.25-1.203-.277-.538-.028-1.046-.156-1.21-.305-.169-.153-.323-.19-.384-.092-.055.09-.007.199.109.244.115.044.046.072-.153.063-.278-.014-.33-.08-.221-.283.224-.419-4.529-.406-5.062.014m41.089.63c-.254.22-.561.296-1.056.261-.798-.057-1.372.181-1.243.517.06.156.003.196-.181.126-.2-.077-.232-.043-.126.133.123.204.103.204-.148.001-.257-.209-.301-.195-.385.125-.051.198-.189.361-.304.361-.116 0-.303.224-.417.498-.114.275-.284.449-.382.389-.108-.067-.135-.005-.071.163.057.15.021.324-.081.387-.112.069-.138.038-.066-.078.065-.106.042-.193-.052-.193-.283 0-.548.626-.306.724.164.066.164.086-.001.097-.115.007-.208.153-.208.326 0 .172-.114.407-.253.522-.27.224-.269.671.003.87.1.074.077.124-.06.125-.16.002-.195.129-.118.434.07.279.047.393-.066.323-.119-.074-.173 7.709-.173 25.163 0 17.453.054 25.236.173 25.162.113-.069.136.044.066.324-.077.304-.042.431.118.433.137.001.16.051.06.125-.35.257-.127 1.189.231.967.06-.037.094.226.073.585-.02.36.039.654.131.654s.113.087.047.195c-.081.131-.029.16.157.088.181-.069.277-.021.277.139v.328c0 .241.738.77.985.705.203-.053.284.023.276.258-.006.186.11.352.264.376.151.023.431.199.622.39.265.266.504.333 1.009.284.434-.042.864.045 1.252.253.727.39 1.242.404 1.506.043.145-.198.463-.276 1.136-.278.515-.002.898-.065.851-.14-.046-.076.045-.088.203-.027.223.085.263.045.177-.177-.061-.16-.042-.246.043-.193.084.052.198.021.253-.068.056-.089.206-.121.335-.072.128.049.4-.101.603-.335.203-.234.451-.378.552-.32.101.057.132.047.068-.024-.063-.07.072-.326.3-.568.298-.316.392-.564.333-.877-.07-.362-.024-.432.268-.416.193.01.387-.085.429-.213.043-.127.006-.186-.082-.132-.088.055-.16-.007-.16-.136s.061-.198.135-.152c.075.046.118-12.313.097-27.465-.025-18.23-.094-27.55-.205-27.55-.091 0-.335-.168-.541-.375-.207-.206-.307-.375-.224-.375.083 0 .064-.187-.042-.415-.106-.228-.253-.416-.328-.417-.074 0-.081-.088-.015-.193.071-.115.046-.148-.063-.081-.099.062-.294-.051-.433-.249-.163-.233-.458-.375-.829-.4-.664-.044-.942-.182-.939-.463.002-.121.063-.103.158.047.085.135.213.187.284.116.224-.224-.332-.433-.982-.37-.446.043-.75-.039-1.063-.285-.359-.282-.496-.309-.753-.149-.192.12-.313.131-.313.027 0-.268-.418-.194-.806.142m-37.816 15.203c-.052.2.002.322.144.323.178.002.173.039-.022.167-.211.138-.196.179.094.259.277.076.335.208.297.682-.039.496-.001.571.24.479.229-.088.244-.067.077.101-.114.115-.208.282-.208.371 0 .088.045.115.101.06.201-.201.505.287.428.689-.063.329-.023.39.196.306.161-.062.28-.021.288.097.007.112.038.335.068.496.031.161-.012.25-.096.198-.083-.051-.152-.202-.152-.334s-.079-.24-.176-.24c-.19 0-.083.249.296.692.129.151.242.506.25.788.008.283.151.638.318.789.168.152.259.349.204.439-.056.089.002.228.129.308.166.105.172.146.021.148-.115.002-.208.082-.208.179 0 .097.086.123.192.058.123-.076.147-.046.067.084-.069.111-.024.329.099.484.496.62.626.98.426 1.18-.146.146-.092.283.22.563.299.27.408.531.395.955-.011.378.084.654.27.786.194.137.269.369.229.711-.042.357.05.618.307.875.229.229.369.578.373.927.003.314.122.647.27.756.145.107.233.288.194.403-.039.115-.003.208.078.208.082 0 .134.221.115.49-.021.296.085.598.268.763.198.18.281.442.241.761-.034.267.014.486.107.486.092 0 .114.088.048.195-.081.131-.03.16.157.089.26-.1.392.491.295 1.319-.013.102.091.28.23.396.139.115.252.312.252.438 0 .127.094.231.208.233.139.001.125.056-.041.164-.152.098-3.204.162-7.773.164l-7.522.002-.079-.416c-.052-.272-.005-.417.137-.417.344 0 .452-.323.209-.623-.187-.231-.186-.252.01-.134.182.109.215.045.15-.291-.093-.487.084-.868.403-.869.142 0 .212-.239.208-.708-.004-.39.05-.708.121-.708.318 0 .699-.858.456-1.027-.181-.127-.188-.185-.029-.25.115-.046.209-.182.209-.3 0-.119.116-.312.258-.43.157-.13.239-.415.209-.723-.036-.357.065-.624.339-.897.302-.3.347-.439.2-.616-.139-.167-.14-.258-.003-.343.102-.063.146-.22.097-.348-.05-.128-.013-.233.081-.233.095 0 .127-.073.072-.161-.055-.089.053-.257.24-.374.413-.258.439-.465.058-.465-.245 0-.24-.031.042-.236.177-.13.271-.288.208-.351-.141-.142.234-.574.407-.469.069.042.125-.004.125-.101s-.075-.176-.167-.176c-.091 0-.166-.08-.166-.177 0-.097.081-.126.181-.064.113.07.169-.036.148-.282-.055-.654-.007-.811.244-.811.328 0 .503-.323.291-.536-.179-.178-.029-.57.444-1.161.123-.155.168-.373.099-.485-.08-.129-.056-.159.067-.084.106.066.192.04.192-.057s-.084-.177-.187-.177c-.128 0-.12-.08.024-.254.116-.139.163-.301.105-.36-.059-.058.043-.21.226-.339.227-.158.332-.422.332-.829 0-.361.108-.677.273-.797.163-.119.303-.526.35-1.018.042-.451.156-.894.252-.986.119-.114.132-.093.041.067-.091.159-.071.195.061.114.108-.066.155-.185.107-.264-.049-.079-.013-.191.08-.249.093-.057.17-.179.17-.271 0-.092-.083-.116-.184-.053-.124.076-.119-.006.013-.254.108-.201.153-.491.101-.645-.052-.153.121-.029.385.276.302.348.449.673.396.875"/><path fill="#040404" d="M64.333 14.667c0 .27-.111.333-.583.333-.407 0-.583.075-.583.25 0 .139-.148.25-.334.25-.222 0-.333.111-.333.333 0 .223-.111.334-.333.334-.223 0-.334.111-.334.333 0 .185-.111.333-.25.333-.174 0-.25.176-.25.584 0 .472-.063.583-.333.583-.32 0-.333.111-.333 2.749 0 2.568.022 2.762.333 2.956.183.115.333.378.333.585 0 .224.102.377.25.377.138 0 .25.085.25.189 0 .263.799.977 1.092.977.133 0 .242.15.242.334 0 .193.111.333.265.333.146 0 .456.15.689.333.382.301.676.334 3 .334 2.437 0 2.582-.018 2.664-.334.063-.239.227-.333.583-.333s.521-.094.584-.333c.048-.185.227-.334.401-.334.172 0 .314-.104.314-.232s.112-.275.25-.328c.137-.053.25-.194.25-.314s.15-.347.333-.504c.183-.157.333-.462.333-.678 0-.215.15-.528.334-.694.299-.27.333-.513.333-2.359 0-1.946-.018-2.057-.333-2.057-.278 0-.334-.111-.334-.667 0-.472-.07-.667-.242-.667-.145 0-.286-.234-.352-.583-.06-.321-.205-.583-.321-.583-.117 0-.252-.15-.3-.334-.062-.239-.227-.333-.585-.333-.288 0-.538-.105-.593-.25-.053-.138-.202-.25-.332-.25s-.275-.15-.323-.333c-.083-.316-.227-.334-2.769-.334-2.572 0-2.683.014-2.683.334m138.5 0c0 .27-.111.333-.588.333-.37 0-.625.093-.685.25-.052.137-.2.25-.328.25s-.232.15-.232.333c0 .223-.111.334-.333.334-.216 0-.334.111-.334.314 0 .173-.149.352-.333.401-.243.063-.333.227-.333.602 0 .348-.082.516-.25.516-.212 0-.25.415-.25 2.738 0 2.212.048 2.786.25 2.988.137.138.25.375.25.528 0 .152.15.316.333.364.183.048.333.198.333.333 0 .27.64.868.939.877.104.003.228.155.276.339.048.183.21.333.36.333s.434.15.63.333c.326.304.589.334 2.926.334 2.427 0 2.572-.019 2.654-.334.062-.235.228-.333.562-.333.304 0 .539-.12.653-.333.098-.184.289-.334.423-.334s.244-.103.244-.23.15-.27.333-.318c.184-.048.334-.207.334-.353s.15-.415.333-.599c.183-.183.336-.464.339-.625.003-.16.115-.437.25-.615.361-.478.356-4.426-.006-4.426-.176 0-.25-.178-.25-.599 0-.459-.078-.62-.333-.686-.239-.063-.333-.228-.333-.584 0-.348-.095-.521-.318-.579-.175-.046-.356-.226-.401-.401-.06-.226-.232-.318-.599-.318-.347 0-.516-.082-.516-.25 0-.139-.148-.25-.333-.25-.222 0-.333-.111-.333-.333 0-.32-.111-.334-2.667-.334-2.556 0-2.667.014-2.667.334M4.584 17.375c-.284 1.581-.002 58.148.291 58.312.19.106.292.364.292.738 0 .464.064.575.333.575.183 0 .333.109.333.241 0 .294.715 1.092.978 1.092.104 0 .189.113.189.25 0 .139.148.25.333.25.184 0 .334.105.334.233 0 .326.376.434 1.513.434.766 0 .987.056.987.25 0 .189.203.25.833.25.63 0 .833-.061.833-.25 0-.2.25-.25 1.25-.25 1.139 0 1.25-.03 1.25-.333 0-.27.111-.334.584-.334.395 0 .583-.077.583-.238 0-.132.15-.287.333-.345.184-.058.334-.216.334-.35 0-.134.108-.285.239-.336.132-.05.287-.304.344-.564.057-.26.212-.514.344-.564.204-.079.239-1.352.239-8.597v-8.506h11.57c8.896 0 11.585-.046 11.636-.201.041-.122.586-.244 1.373-.308.93-.076 1.364-.186 1.507-.382.138-.189.449-.275.99-.275.649 0 .804-.06.876-.334.062-.237.227-.333.573-.333.278 0 .527-.107.582-.25.052-.138.229-.25.392-.25s.335-.15.383-.333c.064-.246.227-.334.618-.334s.555-.088.619-.333c.048-.183.191-.333.317-.333.127 0 .231-.113.231-.25 0-.139.148-.25.333-.25.223 0 .334-.111.334-.334 0-.207.111-.333.293-.333.161 0 .387-.15.501-.333.115-.184.32-.334.456-.334.381 0 1.25-1.002 1.25-1.441 0-.237.098-.392.25-.392.137 0 .25-.113.25-.25 0-.139.148-.25.333-.25.222 0 .333-.111.333-.333 0-.184.105-.334.233-.334.254 0 .434-.35.434-.847 0-.175.112-.319.25-.319.181 0 .25-.186.25-.667 0-.556.056-.667.333-.667.27 0 .334-.111.334-.583s.063-.583.333-.583.333-.111.333-.584c0-.407.076-.583.25-.583.197 0 .25-.231.25-1.082 0-.901.056-1.117.334-1.29.299-.187.333-.389.333-2.001 0-1.416.049-1.794.231-1.794.325 0 .431-.534.433-2.194.003-1.586-.082-1.972-.432-1.972-.184 0-.232-.378-.232-1.834 0-1.722-.02-1.833-.333-1.833-.302 0-.334-.111-.334-1.172 0-.888-.06-1.195-.25-1.268-.145-.055-.25-.305-.25-.593 0-.358-.094-.523-.333-.585-.25-.066-.333-.228-.333-.651 0-.453-.066-.564-.334-.564-.27 0-.333-.111-.333-.589 0-.369-.093-.624-.25-.684-.138-.053-.25-.201-.25-.328 0-.128-.15-.233-.333-.233-.207 0-.334-.111-.334-.293 0-.161-.15-.387-.333-.501-.188-.118-.333-.389-.333-.624 0-.258-.095-.415-.25-.415-.138 0-.25-.12-.25-.266 0-.146-.15-.304-.334-.352-.183-.048-.333-.186-.333-.307s-.15-.267-.333-.325c-.184-.058-.334-.213-.334-.345 0-.131-.095-.238-.213-.238-.117 0-.341-.15-.498-.334-.157-.183-.474-.333-.704-.333-.307 0-.418-.089-.418-.333 0-.186-.111-.334-.25-.334-.138 0-.25-.112-.25-.25 0-.176-.178-.25-.599-.25-.459 0-.619-.078-.686-.333-.066-.25-.227-.333-.651-.333-.371 0-.564-.08-.564-.233 0-.254-.35-.434-.847-.434-.176 0-.32-.113-.32-.25 0-.192-.213-.25-.916-.25-.673 0-.917-.062-.917-.232 0-.365-.392-.435-2.43-.435-1.581 0-1.903-.042-1.903-.25 0-.22-1.999-.25-16.993-.25H4.682l-.098.542m179.476-.292c-.062.163-.322.25-.744.25-.538 0-.649.057-.649.334 0 .268-.111.333-.572.333-.426 0-.6.085-.678.333-.059.184-.214.334-.345.334-.131 0-.239.094-.239.21 0 .115-.15.303-.333.418-.183.114-.333.357-.333.54 0 .182-.151.482-.335.666-.491.491-.448 55.547.043 55.906.16.117.292.281.292.363 0 .082.15.243.333.358.183.114.333.386.333.604 0 .256.118.427.334.483.183.048.333.207.333.353 0 .192.161.265.583.265.473 0 .584.064.584.334 0 .301.111.333 1.172.333.888 0 1.195.061 1.267.25.137.356 1.727.356 1.727 0 0-.194.221-.25.987-.25 1.137 0 1.513-.108 1.513-.434 0-.128.15-.233.334-.233.183 0 .333-.096.333-.213 0-.118.226-.299.501-.403.358-.135.53-.332.602-.688.059-.295.228-.533.415-.582.221-.058.315-.232.315-.58 0-.289.105-.538.25-.594.221-.085.25-3.279.25-27.356 0-24.078-.029-27.272-.25-27.357-.145-.055-.25-.305-.25-.593 0-.358-.094-.523-.333-.585-.239-.063-.333-.228-.333-.584 0-.348-.095-.521-.318-.579-.175-.046-.356-.226-.401-.401-.059-.223-.232-.318-.58-.318-.356 0-.52-.094-.583-.333-.073-.279-.227-.334-.936-.334-.644 0-.849-.06-.849-.25 0-.205-.297-.25-1.672-.25-1.332 0-1.691.051-1.768.25m-35.512 11.584c-.081.311-.227.333-2.216.333-1.739 0-2.147.046-2.226.25-.071.187-.37.25-1.184.25-.978 0-1.089.034-1.089.333 0 .293-.111.334-.916.334-.806 0-.917.04-.917.333 0 .278-.111.333-.667.333-.481 0-.666.07-.666.25 0 .169-.169.25-.516.25-.375 0-.539.091-.603.334-.065.25-.227.333-.651.333-.453 0-.564.066-.564.333 0 .223-.111.334-.333.334-.185 0-.333.111-.333.25 0 .137-.147.25-.327.25-.18 0-.461.138-.625.306-.164.169-.43.354-.59.412-.16.057-.292.219-.292.36 0 .14-.115.255-.255.255s-.298.112-.351.25c-.053.137-.2.25-.328.25s-.232.15-.232.333c0 .223-.111.334-.334.334-.222 0-.333.111-.333.333 0 .183-.109.333-.242.333-.146 0-.287.234-.352.584-.063.334-.209.583-.341.583-.128 0-.232.112-.232.25 0 .137-.119.25-.265.25-.146 0-.305.15-.353.333-.048.184-.183.334-.299.334-.117 0-.26.255-.319.567-.058.312-.217.61-.352.661-.152.059-.245.319-.245.683 0 .478-.063.589-.333.589s-.334.111-.334.583c0 .387-.078.583-.231.583-.133 0-.279.252-.343.592-.061.326-.219.634-.352.685-.177.068-.24.391-.24 1.222 0 .989-.042 1.14-.334 1.216-.293.077-.333.228-.333 1.27 0 .889-.057 1.182-.228 1.182-.181 0-.253.671-.349 3.246-.159 4.27.032 9.421.349 9.421.169 0 .228.278.228 1.082 0 .901.056 1.116.333 1.29.264.164.334.388.334 1.073 0 .512.093.958.229 1.094.127.126.284.474.349.773.066.299.225.584.354.633.129.05.234.232.234.406 0 .173.15.465.334.649.183.183.333.449.333.592 0 .389.72 1.572.958 1.573.115.001.209.151.209.335 0 .222.111.333.333.333.243 0 .333.111.333.411 0 .248.232.643.584.995.32.32.583.66.583.755 0 .095.15.172.333.172.223 0 .334.111.334.334 0 .183.107.333.238.333.132 0 .287.15.345.333.058.184.213.334.345.334.131 0 .238.112.238.25 0 .137.113.25.25.25.138 0 .4.15.584.333.183.183.474.333.647.333.174 0 .353.149.401.334.048.183.207.333.353.333s.265.112.265.25c0 .175.176.25.584.25.472 0 .583.063.583.333s.111.334.583.334c.388 0 .584.078.584.232 0 .269.355.434.93.434.247 0 .403.097.403.25 0 .175.176.25.583.25.361 0 .711.127.917.334.253.252.556.333 1.25.333.665 0 .917.063.917.228 0 .282.85.434 2.44.437.903.001 1.214.062 1.287.252.08.209.574.25 3.017.25 2.487 0 2.922-.038 2.922-.25 0-.152.155-.25.396-.25.751 0 1.438-.209 1.438-.438 0-.145.189-.229.515-.229.376 0 .54-.091.603-.333.048-.185.227-.334.401-.334.248 0 .314-.123.314-.583 0-.472.063-.583.333-.583.24 0 .334-.111.334-.397 0-.218.112-.489.25-.603.198-.165.25-.648.25-2.342 0-1.675-.054-2.188-.25-2.385-.138-.137-.25-.393-.25-.569 0-.176-.15-.455-.334-.621-.183-.166-.333-.435-.333-.598 0-.163-.15-.344-.333-.402-.184-.058-.334-.213-.334-.345 0-.131-.11-.238-.244-.238s-.324-.15-.422-.334c-.117-.218-.349-.333-.673-.333-.309 0-.494-.086-.494-.231 0-.309-.525-.431-1.875-.433-.888-.002-1.125-.055-1.125-.253 0-.209-.35-.25-2.147-.25-2.007 0-2.153-.021-2.235-.333-.072-.278-.227-.333-.936-.333-.643 0-.849-.061-.849-.25 0-.175-.176-.25-.583-.25-.472 0-.583-.064-.583-.334 0-.185-.111-.333-.25-.333-.138 0-.4-.15-.584-.333-.183-.184-.483-.334-.666-.334-.186 0-.334-.111-.334-.25 0-.137-.112-.25-.25-.25-.139 0-.25-.148-.25-.333 0-.331.111-.333 16.198-.333h16.198l.551-.375.551-.375.001-4.195c.001-4.315-.036-4.722-.433-4.722-.188 0-.232-.478-.232-2.529 0-2.028-.05-2.583-.254-2.808-.159-.176-.292-.787-.359-1.653-.071-.917-.18-1.402-.33-1.46-.134-.051-.224-.345-.224-.734 0-.538-.057-.649-.333-.649-.293 0-.334-.111-.334-.917 0-.704-.058-.917-.25-.917-.151 0-.25-.155-.25-.394 0-.217-.15-.585-.333-.818-.183-.233-.333-.588-.333-.788 0-.224-.129-.398-.334-.451-.237-.062-.333-.228-.333-.573 0-.278-.107-.527-.25-.582-.138-.053-.25-.19-.25-.306 0-.115-.15-.4-.333-.633-.184-.233-.334-.543-.334-.689 0-.155-.139-.266-.333-.266-.188 0-.333-.111-.333-.255 0-.14-.113-.298-.25-.351-.138-.053-.25-.2-.25-.328s-.137-.369-.305-.537c-.167-.167-.352-.43-.411-.583-.059-.153-.222-.279-.362-.279-.141 0-.256-.115-.256-.255 0-.141-.125-.304-.279-.362-.153-.059-.416-.245-.583-.412-.167-.167-.454-.304-.638-.304-.185 0-.333-.111-.333-.25 0-.138-.113-.25-.25-.25-.138 0-.25-.115-.25-.254 0-.14-.187-.326-.417-.413-.229-.087-.416-.229-.416-.316s-.23-.208-.512-.27c-.281-.062-.551-.218-.601-.346-.053-.138-.323-.235-.655-.235-.455 0-.566-.065-.566-.333 0-.271-.111-.333-.59-.333-.36 0-.73-.13-.948-.334-.265-.246-.588-.333-1.243-.333-.676 0-.885-.059-.885-.25 0-.203-.276-.25-1.481-.25-1.34 0-1.489-.032-1.568-.333-.083-.319-.227-.334-3.285-.334-3.057 0-3.201.015-3.285.334m145.119 0c0 .316-.111.333-2.149.333-1.756 0-2.167.046-2.245.25-.072.187-.369.25-1.173.25-.931 0-1.092.045-1.183.333-.088.275-.253.334-.944.334-.697 0-.852.055-.925.333-.065.25-.227.333-.651.333-.39 0-.564.077-.564.25 0 .175-.176.25-.583.25-.472 0-.583.064-.583.334 0 .268-.111.333-.572.333-.426 0-.6.085-.678.333-.059.184-.214.334-.345.334-.131 0-.239.112-.239.25 0 .139-.148.25-.333.25-.183 0-.47.137-.638.304-.167.167-.43.353-.583.412-.153.058-.279.221-.279.362 0 .144-.145.255-.333.255-.186 0-.334.111-.334.25 0 .137-.112.25-.25.25-.137 0-.25.12-.25.266 0 .146-.15.304-.333.352-.183.048-.333.22-.333.382s-.15.334-.334.382c-.242.063-.333.227-.333.602 0 .348-.082.516-.25.516-.138 0-.25.112-.25.25 0 .137-.12.25-.266.25-.146 0-.303.143-.348.318-.046.175-.227.355-.401.401-.227.059-.318.232-.318.599 0 .347-.082.515-.25.515-.181 0-.25.186-.25.667 0 .556-.056.667-.334.667-.267 0-.333.111-.333.564 0 .423-.083.585-.333.651-.244.063-.334.227-.334.608 0 .309-.101.559-.25.616-.188.073-.25.376-.25 1.226 0 .989-.041 1.14-.333 1.216-.293.077-.333.228-.333 1.25 0 1.023-.041 1.174-.334 1.25-.325.085-.333.228-.333 6.285 0 6.058.008 6.2.333 6.285.293.077.334.228.334 1.224 0 .989.043 1.149.333 1.241.279.089.333.253.333 1 0 .572.09.983.25 1.143.138.138.25.406.25.595 0 .19.15.496.334.679.183.183.333.484.333.668 0 .185.15.464.333.621.184.157.334.447.334.644 0 .198.112.453.25.567.137.114.25.348.25.52 0 .202.118.313.333.313.222 0 .333.111.333.334 0 .222.111.333.334.333.26 0 .333.111.333.505 0 .28.104.545.234.595.128.049.271.235.317.412.047.177.204.321.35.321s.266.113.266.25c0 .138.107.25.238.25.132 0 .287.15.345.334.058.183.204.333.325.333.121 0 .259.15.307.333.048.184.206.334.352.334s.266.112.266.25c0 .137.112.25.25.25.137 0 .4.15.583.333.184.183.484.333.667.333.222 0 .333.111.333.334 0 .188.111.333.256.333.14 0 .298.112.351.25.059.154.312.25.661.25.455 0 .566.065.566.333 0 .27.111.334.583.334.387 0 .583.078.583.232 0 .251.349.434.829.434.166 0 .346.113.398.25.059.153.311.25.648.25.345 0 .658.125.837.334.22.257.491.333 1.195.333.672 0 .95.072 1.064.274.122.218.508.291 1.883.356 1.219.057 1.769.148 1.863.309.206.352 5.754.331 5.89-.022.052-.138.266-.25.474-.25.734 0 1.419-.211 1.419-.438 0-.145.19-.229.516-.229.367 0 .539-.092.599-.318.045-.175.226-.355.401-.401.226-.059.318-.232.318-.599 0-.347.081-.515.25-.515.148 0 .25-.153.25-.377 0-.207.15-.47.333-.585.306-.19.333-.388.333-2.375 0-1.96-.031-2.194-.333-2.452-.183-.157-.333-.404-.333-.55 0-.145-.11-.41-.245-.588s-.247-.45-.25-.604c-.003-.154-.155-.328-.339-.386-.183-.058-.333-.213-.333-.345 0-.131-.15-.238-.333-.238-.184 0-.334-.105-.334-.233 0-.254-.35-.434-.847-.434-.175 0-.319-.104-.319-.231 0-.308-.525-.431-1.858-.433-.828-.002-1.131-.066-1.203-.253-.078-.203-.479-.25-2.165-.25-1.929 0-2.075-.022-2.156-.333-.073-.278-.227-.333-.936-.333-.644 0-.849-.061-.849-.25 0-.175-.176-.25-.583-.25-.473 0-.584-.064-.584-.334 0-.208-.111-.333-.296-.333-.163 0-.425-.15-.582-.333-.157-.184-.436-.334-.62-.334-.187 0-.335-.11-.335-.25 0-.139-.148-.25-.333-.25-.223 0-.334-.111-.334-.333 0-.331.111-.333 16.346-.333h16.347l.487-.488.487-.487-.001-3.221c-.002-3.927-.126-5.471-.44-5.471-.18 0-.226-.507-.226-2.5 0-2.278-.029-2.53-.333-2.833-.273-.273-.333-.556-.333-1.563 0-.89-.069-1.287-.25-1.437-.138-.114-.25-.38-.25-.59 0-.556-.169-.91-.435-.91-.168 0-.232-.235-.232-.849 0-.709-.055-.864-.333-.936-.251-.066-.334-.228-.334-.651 0-.311-.072-.564-.16-.564-.088 0-.241-.3-.34-.667-.105-.392-.28-.667-.423-.667-.161 0-.243-.174-.243-.515 0-.376-.091-.54-.334-.603-.183-.048-.333-.223-.333-.389s-.113-.415-.25-.552c-.138-.138-.25-.375-.25-.528 0-.152-.143-.315-.318-.36-.175-.046-.355-.227-.401-.401-.046-.175-.203-.318-.349-.318-.171 0-.265-.146-.265-.411 0-.24-.139-.485-.334-.589-.183-.098-.333-.289-.333-.423s-.069-.244-.153-.244c-.085 0-.457-.3-.827-.667-.371-.366-.827-.666-1.013-.666-.191 0-.34-.11-.34-.25 0-.139-.148-.25-.334-.25-.222 0-.333-.111-.333-.334 0-.222-.111-.333-.333-.333-.184 0-.334-.109-.334-.242 0-.146-.234-.287-.583-.352-.334-.063-.583-.209-.583-.341 0-.154-.197-.232-.584-.232-.472 0-.583-.063-.583-.333 0-.276-.111-.333-.641-.333-.429 0-.74-.11-.942-.334-.23-.254-.514-.333-1.193-.333-.681 0-.891-.059-.891-.25 0-.203-.275-.25-1.48-.25-1.341 0-1.489-.032-1.568-.333-.083-.319-.227-.334-3.353-.334-3.154 0-3.265.012-3.265.334M81.56 29.25c-.052.137-.238.25-.411.25-.205 0-.316.117-.316.333 0 .27-.111.334-.583.334-.46 0-.583.066-.583.314 0 .173-.149.352-.334.401-.242.063-.333.227-.333.602 0 .405-.072.516-.333.516-.293 0-.334.111-.334.917 0 .663-.063.916-.227.916-.418 0-.439 1.373-.437 28.732.001 27.351.018 28.435.436 28.435.166 0 .228.252.228.917 0 .805.041.916.334.916.267 0 .333.111.333.564 0 .424.083.586.333.651.184.048.334.207.334.353 0 .172.146.266.415.266.235 0 .506.145.623.333.115.183.34.333.502.333.161 0 .293.108.293.24 0 .535 5.492.613 5.888.083.108-.143.327-.309.487-.369.16-.061.292-.225.292-.365 0-.181.17-.255.583-.255.541 0 .583-.038.583-.516 0-.375.091-.539.334-.603.184-.048.333-.227.333-.401 0-.172.112-.314.25-.314.198 0 .25-.239.25-1.155 0-1.009.042-1.169.333-1.261.325-.103.334-.253.334-5.845 0-5.628.006-5.739.333-5.739.222 0 .333.111.333.334 0 .318.111.333 2.422.333 1.999 0 2.439.044 2.518.25.078.203.47.25 2.078.25 1.651 0 1.982-.042 1.982-.25 0-.207.315-.25 1.834-.25 1.722 0 1.833-.02 1.833-.333 0-.299.111-.334 1.063-.334.741 0 1.126-.075 1.27-.25.114-.137.342-.25.507-.25.478 0 .827-.183.827-.434 0-.156.198-.232.599-.232.458 0 .619-.078.686-.334.061-.236.227-.333.567-.333.265 0 .481-.077.481-.17 0-.094.188-.256.417-.36.229-.105.416-.291.416-.413 0-.123.113-.224.25-.224.139 0 .25-.148.25-.333 0-.222.111-.333.334-.333.183 0 .333-.077.333-.171 0-.094.195-.245.434-.336.649-.247 1.399-1.025 1.399-1.451 0-.233.101-.376.266-.376.146 0 .305-.15.353-.333.048-.183.191-.333.317-.333.127 0 .231-.15.231-.334 0-.222.111-.333.333-.333.268 0 .334-.111.334-.564 0-.424.083-.585.333-.651.183-.048.333-.207.333-.353s.113-.265.25-.265c.175 0 .25-.176.25-.584 0-.472.064-.583.334-.583s.333-.111.333-.583c0-.388.078-.584.232-.584.269 0 .435-.355.435-.93 0-.247.096-.403.25-.403.192 0 .25-.213.25-.917 0-.805.04-.916.333-.916.293 0 .333-.111.333-.917 0-.667.063-.917.23-.917.256 0 .434-.696.442-1.729.003-.378.116-.833.25-1.011.371-.489.366-11.678-.005-11.82-.163-.063-.25-.322-.25-.747 0-.988-.182-1.693-.437-1.693-.167 0-.23-.25-.23-.918 0-.712-.075-.982-.333-1.204-.186-.159-.333-.491-.333-.753 0-.258-.105-.509-.234-.558-.128-.049-.28-.34-.338-.645-.057-.306-.215-.599-.35-.65-.135-.052-.245-.241-.245-.419 0-.502-.179-.853-.434-.853-.128 0-.233-.15-.233-.333 0-.183-.103-.333-.23-.333s-.27-.15-.318-.334c-.048-.183-.207-.333-.353-.333-.155 0-.265-.14-.265-.335 0-.184-.15-.463-.334-.62-.183-.157-.333-.382-.333-.499 0-.117-.112-.213-.25-.213s-.25-.119-.25-.265c0-.146-.143-.303-.318-.349-.175-.046-.355-.226-.401-.401-.046-.175-.203-.318-.349-.318-.146 0-.265-.113-.265-.25 0-.138-.142-.25-.314-.25-.174 0-.353-.149-.401-.333-.052-.199-.228-.334-.435-.334-.191 0-.441-.15-.556-.333-.114-.183-.302-.333-.418-.333-.115 0-.21-.113-.21-.25 0-.156-.157-.25-.416-.25-.229 0-.417-.079-.417-.176 0-.096-.253-.281-.563-.41-.31-.129-.607-.351-.662-.491-.058-.153-.302-.257-.603-.257-.338 0-.505-.082-.505-.25 0-.174-.176-.25-.584-.25-.361 0-.71-.127-.916-.333-.253-.253-.556-.333-1.25-.333-.806 0-.917-.041-.917-.334 0-.308-.111-.333-1.5-.333-1.222 0-1.5-.046-1.5-.25 0-.215-.517-.25-3.655-.25-3.026 0-3.698.043-3.905.25-.175.176-.604.25-1.444.25-1.054 0-1.204.039-1.281.333-.072.274-.239.338-.943.36-1.309.039-1.593-.014-1.946-.367-.179-.179-.468-.326-.642-.326-.173 0-.358-.113-.411-.25-.08-.208-.556-.25-2.856-.25s-2.777.042-2.857.25m137.607 23.153c0 23.5.007 23.93.434 23.93.128 0 .232.15.232.334 0 .222.111.333.334.333.27 0 .333.111.333.583 0 .363.081.584.213.584.117 0 .341.15.498.333.157.183.474.333.704.333.307 0 .418.089.418.334 0 .301.111.333 1.167.333.926 0 1.167.052 1.167.25 0 .192.213.25.916.25.704 0 .917-.058.917-.25 0-.199.242-.25 1.182-.25 1.042 0 1.193-.04 1.27-.333.061-.234.227-.334.556-.334.314 0 .503-.104.57-.315.055-.173.247-.354.428-.401.236-.062.327-.229.327-.601 0-.348.082-.516.25-.516.138 0 .25-.141.25-.314 0-.174.149-.353.334-.401.33-.086.333-.227.333-17.353V41.667h6.981c6.84 0 6.982.006 7.067.333.077.293.228.333 1.25.333 1.023 0 1.174.041 1.25.334.064.242.228.333.603.333.347 0 .516.082.516.25 0 .137.141.25.314.25.173 0 .352.149.401.333.048.184.206.334.352.334s.266.112.266.25c0 .137.112.25.25.25.139 0 .25.148.25.333 0 .222.111.333.333.333.301 0 .334.111.334 1.149 0 .86.062 1.173.246 1.244.214.082.252 1.946.292 14.281.041 13.074.067 14.203.326 14.392.154.113.331.407.393.653.062.246.217.448.344.448.128 0 .232.145.232.322 0 .177.15.37.333.428.184.058.334.213.334.345 0 .161.188.238.583.238.472 0 .583.064.583.334 0 .301.111.333 1.172.333.888 0 1.195.061 1.268.25.067.175.34.25.911.25.614 0 .816-.062.816-.25 0-.199.242-.25 1.182-.25 1.042 0 1.193-.04 1.27-.333.048-.185.227-.334.401-.334.172 0 .314-.076.314-.17 0-.094.206-.261.458-.372.555-.243.702-.431.706-.897.001-.214.135-.39.336-.442.242-.064.333-.228.333-.603 0-.347.082-.516.25-.516.22 0 .25-1.898.25-16.088 0-14.147-.03-16.1-.25-16.185-.172-.066-.251-.337-.252-.869-.003-1.012-.149-1.524-.434-1.524-.166 0-.231-.238-.231-.849 0-.709-.055-.864-.333-.936-.25-.066-.333-.228-.333-.651 0-.37-.08-.564-.232-.564-.132 0-.278-.25-.341-.584-.065-.349-.206-.583-.352-.583-.133 0-.242-.145-.242-.322 0-.177-.15-.37-.333-.428-.184-.058-.334-.213-.334-.345 0-.131-.112-.238-.25-.238-.139 0-.25-.148-.25-.334 0-.222-.111-.333-.333-.333-.237 0-.333-.111-.333-.383 0-.489-.295-.784-.784-.784-.272 0-.383-.096-.383-.333 0-.222-.111-.333-.333-.333-.186 0-.334-.111-.334-.25s-.148-.25-.333-.25c-.222 0-.333-.111-.333-.334 0-.244-.111-.333-.416-.333-.234 0-.505-.145-.623-.333-.127-.204-.389-.334-.673-.334-.26 0-.508-.11-.561-.25-.053-.137-.297-.25-.542-.25-.254 0-.548-.143-.685-.333-.158-.218-.432-.333-.794-.333-.323 0-.703-.139-.911-.334-.263-.244-.589-.333-1.226-.333-.617 0-.895-.072-.963-.25-.084-.22-2-.25-15.851-.25h-15.755v23.403M66.375 29.609c-.115.047-.208.192-.208.322 0 .181-.274.236-1.183.236-1.042 0-1.192.039-1.269.333-.057.217-.227.333-.49.333-.523 0-1.392.888-1.392 1.423 0 .254-.095.411-.25.411-.137 0-.25.103-.25.23s-.15.27-.333.318c-.331.087-.333.227-.333 21.591 0 21.358.002 21.506.333 21.611.183.058.333.181.333.273 0 .092.113.28.25.417.138.138.25.402.25.587 0 .192.138.373.318.42.175.046.356.227.401.401.059.223.232.318.58.318.356 0 .52.095.583.334.077.293.227.333 1.269.333.94 0 1.183.051 1.183.25 0 .356 1.636.356 1.773 0 .071-.187.37-.25 1.177-.25.941 0 1.092-.043 1.168-.333.048-.185.227-.334.401-.334.173 0 .314-.096.314-.213 0-.118.23-.3.511-.406.323-.122.581-.38.703-.703.106-.281.288-.511.406-.511.131 0 .213-.217.213-.564 0-.424.083-.585.334-.651.331-.087.333-.227.333-20.756 0-20.767-.009-21.196-.434-21.196-.155 0-.233-.196-.233-.583 0-.407-.075-.583-.25-.583-.137 0-.252-.094-.255-.209-.008-.316-.777-1.125-1.07-1.125-.142 0-.258-.112-.258-.25 0-.137-.141-.25-.314-.25-.174 0-.353-.149-.401-.333-.076-.292-.227-.333-1.209-.333-.766 0-1.181-.075-1.308-.235-.204-.258-1.065-.458-1.393-.323m138.5 0c-.115.047-.208.192-.208.322 0 .182-.283.236-1.25.236-1.139 0-1.25.029-1.25.333 0 .258-.111.333-.492.333-.27 0-.552.1-.625.221-.073.122-.265.269-.425.328-.202.075-.292.288-.292.696 0 .478-.063.589-.333.589-.185 0-.333.111-.333.25 0 .137-.113.25-.25.25-.221 0-.25 2.51-.25 21.588 0 19.036.029 21.6.25 21.685.137.052.25.182.25.288 0 .105.15.285.333.4.188.118.333.389.333.623 0 .269.094.416.266.416.146 0 .305.15.353.333.065.25.227.333.651.333.453 0 .564.066.564.334 0 .303.111.333 1.25.333 1 0 1.25.05 1.25.25 0 .189.203.25.833.25.63 0 .833-.061.833-.25 0-.194.221-.25.987-.25 1.137 0 1.513-.108 1.513-.434 0-.128.15-.233.334-.233.183 0 .333-.096.333-.213 0-.118.226-.299.501-.403.363-.137.53-.331.605-.703.071-.355.199-.514.415-.514.244 0 .312-.124.312-.566 0-.348.096-.602.25-.661.221-.085.25-2.566.25-20.94 0-18.374-.029-20.855-.25-20.939-.154-.06-.25-.313-.25-.662 0-.454-.065-.565-.333-.565-.183 0-.333-.109-.333-.243 0-.269-.759-1.091-1.008-1.091-.087 0-.159-.112-.159-.25 0-.137-.132-.25-.293-.25-.162 0-.387-.15-.502-.333-.173-.277-.388-.333-1.281-.333-.737 0-1.116-.072-1.207-.23-.147-.252-1.012-.464-1.342-.328m-165.542.789c0 .131.246.278.568.338.312.059.609.217.661.352.052.135.283.245.515.245.24 0 .51.143.628.334.115.183.303.333.418.333.116 0 .21.098.21.219 0 .12.15.379.334.576.183.197.333.48.333.63 0 .15.15.312.333.36.251.066.334.227.334.651 0 .39.077.564.25.564.212 0 .25.417.25 2.75s-.038 2.75-.25 2.75c-.176 0-.25.178-.25.599 0 .459-.078.619-.334.686-.25.066-.333.227-.333.651 0 .453-.066.564-.333.564-.189 0-.334.111-.334.255 0 .141-.112.299-.25.351-.137.053-.25.192-.25.309 0 .117-.15.252-.333.3-.183.048-.333.207-.333.353s-.115.265-.256.265c-.14 0-.298.113-.351.25-.052.138-.186.25-.296.25-.111 0-.362.15-.559.334-.287.268-.588.333-1.531.333-1.063 0-1.174.032-1.174.333 0 .33-.111.334-9.833.334h-9.834v-16.5h11c9.275 0 11 .036 11 .231M154.667 42c0 .27.111.333.583.333.399 0 .583.077.583.243 0 .145.234.286.584.352.334.062.583.208.583.341 0 .127.15.231.333.231.223 0 .334.111.334.333 0 .186.111.334.25.334.137 0 .25.107.25.238 0 .132.15.287.333.345.183.058.333.213.333.345 0 .131.15.238.334.238.268 0 .333.111.333.566 0 .349.096.602.25.661.148.057.25.308.25.617 0 .381.09.544.333.608.277.072.334.227.334.917 0 .689.056.844.333.916.184.049.333.228.333.401 0 .305-.338.314-11 .314h-11v-.647c0-.507.073-.666.334-.734.239-.063.333-.228.333-.585 0-.289.105-.538.25-.594.148-.057.25-.307.25-.617 0-.38.09-.544.333-.608.184-.048.334-.191.334-.317 0-.127.15-.381.333-.564.183-.184.333-.446.333-.584 0-.137.113-.25.25-.25.139 0 .25-.148.25-.333 0-.217.111-.333.32-.333.497 0 .847-.18.847-.435 0-.128.15-.232.333-.232.186 0 .334-.111.334-.25 0-.166.166-.25.494-.25.323 0 .556-.115.672-.333.142-.265.349-.334 1.006-.334.717 0 .828-.044.828-.333 0-.323.111-.333 3.75-.333s3.75.01 3.75.333m145.048 0c.067.255.227.333.686.333.413 0 .599.076.599.243 0 .145.234.286.583.352.334.062.584.208.584.341 0 .127.15.231.333.231.222 0 .333.111.333.333 0 .186.111.334.25.334.138 0 .25.119.25.265 0 .146.15.305.334.353.183.048.333.191.333.318s.112.23.25.23c.156 0 .25.158.25.419 0 .23.15.546.333.703.208.178.334.492.334.832 0 .435.067.546.333.546.293 0 .333.111.333.917 0 .704.058.917.25.917.139 0 .25.148.25.333 0 .33-.111.333-10.916.333H284.5v-.666c0-.482.069-.667.25-.667.173 0 .25-.174.25-.564 0-.424.083-.585.333-.651.246-.064.334-.227.334-.618s.088-.555.333-.619c.183-.048.333-.22.333-.383s.113-.339.25-.392c.138-.053.25-.286.25-.518 0-.275.093-.422.266-.422.146 0 .305-.15.353-.333.048-.184.227-.333.401-.333.172 0 .464-.15.647-.334.183-.183.446-.333.583-.333.138 0 .25-.113.25-.25 0-.168.169-.25.516-.25.375 0 .539-.091.603-.333.073-.282.227-.334.984-.334.786 0 .897-.041.897-.333 0-.323.111-.333 3.648-.333 3.507 0 3.65.012 3.734.333m-200.182.333c1.173 0 1.467.049 1.467.243 0 .151.235.28.625.342.344.055.737.171.875.259.138.087.362.209.5.271.138.063.348.25.468.416.12.166.288.303.375.303.086 0 .307.15.49.333.184.183.446.333.584.333.137 0 .25.113.25.25 0 .138.15.4.333.584.183.183.333.445.333.583 0 .137.113.25.25.25.138 0 .25.101.25.224s.15.36.334.526c.184.167.333.513.333.776 0 .261.15.624.333.807.245.245.334.556.334 1.167 0 .63.061.833.25.833.212 0 .25.417.25 2.75 0 2.334-.038 2.75-.25 2.75-.2 0-.25.25-.25 1.25 0 .958-.055 1.25-.233 1.25-.299 0-.434.366-.434 1.181 0 .46-.072.653-.242.653-.145 0-.286.231-.35.571-.059.315-.213.613-.341.662-.129.05-.234.315-.234.595 0 .394-.073.505-.333.505-.222 0-.333.111-.333.333 0 .186-.111.334-.25.334s-.25.148-.25.333c0 .222-.111.333-.334.333-.185 0-.333.111-.333.25 0 .138-.12.25-.266.25-.146 0-.304.15-.352.334-.048.183-.191.333-.317.333s-.323.15-.437.333c-.155.249-.389.334-.918.334-.52 0-.71.067-.71.25 0 .212-.424.25-2.816.25-2.348 0-2.831-.042-2.911-.25-.072-.187-.371-.25-1.184-.25-.978 0-1.089-.034-1.089-.334 0-.268-.111-.333-.572-.333-.426 0-.599-.085-.678-.333-.058-.184-.213-.334-.345-.334-.204 0-.238-1.365-.238-9.5 0-8.097.035-9.5.236-9.5.131 0 .288-.23.349-.511.062-.281.218-.552.347-.601.138-.053.234-.323.234-.655 0-.536.032-.566.584-.566.407 0 .583-.075.583-.25 0-.139.148-.25.333-.25.184 0 .484-.15.667-.333.271-.272.558-.334 1.542-.336.664-.002 1.32-.073 1.457-.16.156-.099.307-.098.408.003.088.087.82.159 1.626.159"/></g></svg>