<svg xmlns="http://www.w3.org/2000/svg" role="img" viewBox="44.74 -2.76 312.52 250.77"><title>Portworx PX-Enterprise (Object Storage) logo</title><defs><linearGradient id="b" x1="161.288" x2="242.015" y1="86.205" y2="86.205" gradientUnits="userSpaceOnUse"><stop offset="0" stop-color="#f47a3a"/><stop offset=".114" stop-color="#ef7437"/><stop offset=".669" stop-color="#dc5a2c"/><stop offset="1" stop-color="#d55028"/></linearGradient><linearGradient id="c" x1="161.619" x2="244.898" y1="30.897" y2="30.897" gradientUnits="userSpaceOnUse"><stop offset="0" stop-color="#d54927"/><stop offset=".245" stop-color="#d84e29"/><stop offset=".54" stop-color="#e05d30"/><stop offset=".857" stop-color="#ee753a"/><stop offset="1" stop-color="#f58240"/></linearGradient><linearGradient id="d" x1="182.244" x2="182.244" y1="157.902" y2="110.057" gradientUnits="userSpaceOnUse"><stop offset="0" stop-color="#e56f30"/><stop offset=".372" stop-color="#d1552b"/><stop offset=".745" stop-color="#c14127"/><stop offset="1" stop-color="#bc3a26"/></linearGradient><radialGradient id="a" cx="343.301" cy="197.342" r="8.256" gradientUnits="userSpaceOnUse"><stop offset="0" stop-color="#e75d25"/><stop offset="1" stop-color="#d54d2a"/></radialGradient></defs><path fill="#515254" fill-rule="evenodd" d="M50.9454 188.82946h5.10225v6.60335a15.71337 15.71337 0 0 1 6.28557-5.438 19.111 19.111 0 0 1 8.691-2.05244 20.32235 20.32235 0 0 1 15.11763 6.07822 21.95083 21.95083 0 0 1 .07524 30.05858 19.78223 19.78223 0 0 1-14.77819 6.1 20.06091 20.06091 0 0 1-8.84077-1.88917 17.072 17.072 0 0 1-6.55048-5.5393v19.43028H50.9454v-53.35152zm5.10225 19.8803a16.66286 16.66286 0 0 0 4.55091 11.78111 14.11932 14.11932 0 0 0 10.69953 4.88621 14.72447 14.72447 0 0 0 10.867-4.63925 15.59156 15.59156 0 0 0 4.56372-11.36583 16.51472 16.51472 0 0 0-4.55049-11.825 14.65655 14.65655 0 0 0-11.06576-4.802 14.07385 14.07385 0 0 0-10.50531 4.81539 15.74363 15.74363 0 0 0-4.5596 11.14937zm47.69249.21217a16.0596 16.0596 0 0 0 4.30822 11.38341 14.19115 14.19115 0 0 0 10.79616 4.61274 13.95874 13.95874 0 0 0 10.66-4.59079 16.20259 16.20259 0 0 0 4.27689-11.4672 15.82347 15.82347 0 0 0-4.33441-11.46719 14.71393 14.71393 0 0 0-11.06577-4.49348 13.66036 13.66036 0 0 0-10.30665 4.61661 16.00048 16.00048 0 0 0-4.33445 11.4059zm-5.2744.097a20.52844 20.52844 0 0 1 5.93218-14.8 18.88645 18.88645 0 0 1 14.05842-6.1529A20.63931 20.63931 0 0 1 139.056 208.52a21.0576 21.0576 0 0 1-5.89711 15.02073 19.01943 19.01943 0 0 1-14.31436 6.21475 19.37084 19.37084 0 0 1-14.45986-6.09534 20.29947 20.29947 0 0 1-5.91893-14.64114zm52.29184 20.11007h-5.17776v-40.29954h4.87765v4.65264a13.136 13.136 0 0 1 4.13567-3.91535 9.89963 9.89963 0 0 1 2.47624-.97555 10.98047 10.98047 0 0 1 2.80285-.3487l.0352 5.60114q-4.8729.45078-7.01375 2.9-2.13817 2.45643-2.1361 8.05544zm22.48442 0v-35.108h-7.654v-5.178h7.654v-13.052h5.173v13.052h7.654v5.178h-7.654v35.108h-5.173zm44.19577-23.50039l-7.092 23.50659H205.013l-13.9599-40.3042 9.46846.01532 7.14448 22.9834 7.01844-23.012 5.70412.03216 6.98366 22.9504 7.17733-22.954 9.39875-.01532-14.03413 40.30424h-5.31912l-7.15732-23.50659zm28.10677 3.39106a22.21587 22.21587 0 0 1 1.42075-7.9403 20.42368 20.42368 0 0 1 4.33459-6.81028 22.05286 22.05286 0 0 1 6.73435-4.855 18.725 18.725 0 0 1 7.97012-1.79333 21.06483 21.06483 0 0 1 8.14778 1.55147 20.45685 20.45685 0 0 1 6.774 4.67073 21.71957 21.71957 0 0 1 4.5215 6.81414 20.2652 20.2652 0 0 1 1.61139 7.87584 22.7359 22.7359 0 0 1-1.45443 8.04411 20.85824 20.85824 0 0 1-4.16976 6.78915 22.05371 22.05371 0 0 1-3.22527 2.90114 22.57493 22.57493 0 0 1-3.6884 2.21009 19.68147 19.68147 0 0 1-8.13605 1.72762 20.64071 20.64071 0 0 1-8.15524-1.59027 19.99482 19.99482 0 0 1-6.70578-4.71449 22.75962 22.75962 0 0 1-4.41548-6.86742 24.81543 24.81543 0 0 1-1.16343-3.95055 20.55831 20.55831 0 0 1-.40061-4.06264zm9.1366-.0704a12.40308 12.40308 0 0 0 3.36165 8.88977 11.00231 11.00231 0 0 0 8.34229 3.515 10.72315 10.72315 0 0 0 8.2041-3.5436 12.60385 12.60385 0 0 0 3.33322-8.93284 12.43393 12.43393 0 0 0-3.32535-8.93615 11.48668 11.48668 0 0 0-16.52058.0715 12.42366 12.42366 0 0 0-3.39533 8.9363zm46.66874-17.50787a11.4581 11.4581 0 0 1 2.414-1.84731 11.24847 11.24847 0 0 1 5.62931-1.40239h1.00261v9.20741h-1.00261a8.898 8.898 0 0 0-3.49473.65695 6.35827 6.35827 0 0 0-2.43082 1.74446c-1.49281 1.76918-1.76048 4.799-1.76048 7.00906v22.32562h-8.85139V188.822h8.49413v2.61939zm31.6864 24.09479l-8.703 13.612-10.05031-.01532 13.61516-20.8981-12.07307-19.39866 10.09186-.01519 25.43492 40.31708-10.03981-.01532z"/><path fill="url(#a)" fill-rule="evenodd" d="M335.305 198.31l4.931 7.539 11.06-17.015H340.89l-5.585 9.476z"/><path fill="url(#b)" fill-rule="evenodd" d="M161.288 137.837l42.157-27.943 41.453-27.475-36.092-23.923 36.092 23.923V34.574l-36.092 23.922-47.518 31.496v47.845z"/><path fill="url(#c)" fill-rule="evenodd" d="M208.806 58.496l36.092-23.922-47.127-31.236-.06-.04-36.092 23.922.147.098 47.04 31.178z"/><path fill="url(#d)" fill-rule="evenodd" d="M203.199 157.902l-41.911-20.065 41.911-27.78v47.845z"/></svg>