<svg xmlns="http://www.w3.org/2000/svg" role="img" viewBox="-1.85 -1.48 96.46 31.71"><title>Preset (Data Exploration) logo</title><g fill="none" fill-rule="evenodd"><path fill="#000" d="M35.97897 12.35432v5.9015c0 1.63367.98372 2.68975 2.5062 2.68975 1.52167 0 2.50538-1.05608 2.50538-2.68975v-5.9015c0-1.63286-.98371-2.68894-2.50539-2.68894-1.52247 0-2.50619 1.05608-2.50619 2.68894zm2.50058-4.7286c2.70983 0 4.59789 1.9446 4.59309 4.7286v5.9015c0 2.697-1.86482 4.73022-4.33654 4.73022-1.0262.03303-2.02194-.35122-2.76274-1.06575v6.02234c-.00962.2771-.24052.4938-.5155.48414h-1.05588a.32772.32772 0 01-.03447 0c-.2758-.00967-.49066-.24167-.48104-.51798V12.35432c0-2.784 1.88806-4.7286 4.59308-4.7286zm12.60383.2005c.01603-.00081.03126-.00081.0465-.00081.27499.00967.49145.24247.48103.51958v1.0013a.24974.24974 0 010 .03465c-.00962.27791-.24132.49541-.51791.48575h-1.2539c-1.6251 0-2.62725.99727-2.62725 2.60275v9.71097c0 .01128 0 .02175-.0008.03222-.00962.27872-.24132.49622-.51791.48656H45.60439c-.27579-.00967-.49145-.24167-.48263-.51878v-9.71097c0-2.69137 1.98025-4.64323 4.70852-4.64323h1.2531zm3.51067 4.58675v2.25958h2.50538c1.52007 0 2.50379-.93364 2.50379-2.37478 0-1.5821-.98372-2.60275-2.50379-2.60275-1.56737 0-2.50538 1.02064-2.50538 2.71795zm2.50538 4.30005l-2.50538.00564v1.5088c0 1.63367.98371 2.68976 2.50538 2.68976 1.45113 0 2.42281-1.0585 2.47573-2.6978-.0008-.02015-.0008-.0411.0008-.06204.01844-.26664.24934-.46802.5155-.4487h1.09196c.27579.00968.49065.24248.48103.51879-.0898 2.83233-1.92574 4.73022-4.56502 4.73022-2.7483 0-4.59307-1.90111-4.59307-4.73022v-5.8145c0-2.84764 1.84476-4.76003 4.59307-4.76003 2.70342 0 4.59308 1.90997 4.59308 4.64483 0 2.55764-1.93376 4.41525-4.59308 4.41525zM68.264 14.27066c1.93697.82247 4.14652 1.7561 4.14652 4.61664 0 2.33691-1.90089 4.10027-4.4223 4.10027-2.8341 0-4.67005-1.80283-4.79191-4.71491v-.0435c.00882-.27711.24051-.4938.5155-.48495h1.05588a.89437.89437 0 01.06574 0c.26697.01853.4682.25134.44976.51959.07697 1.80605.96287 2.68894 2.70502 2.68894 1.4832 0 2.33462-.75078 2.33462-2.0598 0-1.43873-1.35812-2.01953-2.9319-2.69137-1.89929-.81038-4.05432-1.73113-4.05432-4.46922 0-2.33691 1.86641-4.09866 4.33813-4.09866 2.75713 0 4.40948 1.61433 4.53535 4.43216v.02498c-.00481.2771-.2309.49783-.5075.4938h-1.06228a.41559.41559 0 01-.06333 0c-.26858-.01692-.47142-.24972-.45458-.51878-.08418-1.52008-.96528-2.40055-2.36108-2.40055-1.3966 0-2.33542.8281-2.33542 2.059 0 1.34447 1.31643 1.9011 2.8381 2.54636zm7.79332-1.8577v2.25959h2.5062c1.52167 0 2.50618-.93364 2.50618-2.37478 0-1.5821-.98451-2.60275-2.50619-2.60275-1.56737 0-2.50619 1.02064-2.50619 2.71795zm2.5062 4.30006l-2.5062.00564v1.5088c0 1.63367.98452 2.68976 2.5062 2.68976 1.45111 0 2.4228-1.0585 2.47812-2.6978a.40049.40049 0 010-.06204c.01924-.26664.25014-.46802.51551-.4487h1.08954c.2758.00968.49146.24248.48184.51879-.0898 2.83233-1.92414 4.73022-4.56502 4.73022-2.7483 0-4.59388-1.90111-4.59388-4.73022v-5.8145c0-2.84764 1.84557-4.76003 4.59388-4.76003 2.71224 0 4.58987 1.90997 4.59308 4.64483 0 2.55764-1.93135 4.41525-4.59308 4.41525zm11.185 4.03793a.55123.55123 0 01.07296 0c.26618.01772.46821.25053.44897.51878v1.00372a.29823.29823 0 010 .03786c-.01042.2763-.24132.49058-.5155.48011h-.37602c-2.66332 0-4.25154-1.8858-4.25154-5.04439V4.45537a.21605.21605 0 010-.03223c.00882-.27791.23972-.49622.51631-.48816h1.08714c.2766.00966.49386.24328.48424.52039v3.49127h2.22078c.27579.00967.49145.24167.48183.51878v.97311a.22708.22708 0 010 .03303c-.00882.27792-.23971.49622-.5163.48817h-2.19192v7.7873c0 1.99295.72796 3.00392 2.16385 3.00392h.3752zm1.10005-15.2863h-.35837v-.2167h.9725v.2167h-.35918v.97472h-.25495v-.97472zm1.76628.52272v-.5663c-.05612.24166-.17477.63558-.28621 1.00775h-.21887c-.08579-.32464-.20845-.77334-.25816-1.01098.01122.13937.01443.377.01443.58645v.42453h-.2333V5.24787h.376c.0914.30934.18841.69761.2309.87322.02807-.15466.15794-.5655.25736-.87322h.3752v1.18417h-.24532l-.01203-.44467z"/><path fill="#2FC096" d="M17.0813.37249h-5.5792l-2.20875 4.785h7.78794c4.05112 0 7.33498 3.29955 7.33498 7.37003 0 4.07127-3.28386 7.37083-7.33498 7.37083h-3.04094l-2.21516 4.77372c.07536.00725.15153.01128.22769.01128h5.02841c6.68077-.00161 12.09642-5.44475 12.09481-12.15744C29.1753 5.814 23.76046.37329 17.0813.37249m0 9.76414H8.09155l-8.0918 17.58286h5.22003l5.9111-12.79786h5.9504c1.31483-.03706 2.35146-1.13906 2.31378-2.46017-.03528-1.26875-1.05106-2.28939-2.31378-2.32483"/></g></svg>