<svg xmlns="http://www.w3.org/2000/svg" role="img" viewBox="-2.53 -4.28 404.82 72.32"><title>Promethium Intelligent Edge (Data Catalog) logo</title><g fill-rule="evenodd"><path fill="#191919" d="M6.421 15.825c-.309.597-.395 38.902-.088 39.092.092.056.167.246.167.42 0 .73 2.038 1.34 2.644.792.242-.219.73-.611 1.084-.871l.646-.472-.116-.935c-.064-.514-.135-3.747-.158-7.184-.024-3.438-.102-6.532-.173-6.877-.271-1.304 1.421-2.696 2.94-2.42 1.934.351 7.426.084 8.8-.428 1.552-.579 2.881-.942 3.452-.942.79 0 2.189-.561 2.406-.965.113-.21.643-.583 1.177-.828.867-.398.991-.518 1.152-1.118.114-.421.428-.9.842-1.283.949-.876 1.204-2.424 1.094-6.639-.088-3.375-.14-3.602-1.072-4.594-.349-.372-.822-1.063-1.051-1.536-.293-.603-.566-.919-.917-1.058-1.262-.501-2.345-1.053-2.468-1.259-.39-.652-.857-.887-1.772-.89-.51-.002-1.939-.113-3.177-.247-1.568-.169-4.204-.244-8.704-.246l-6.454-.004-.254.492m35.726-.015c-.721.412-.758.467-.583.857.231.517.355 35.484.13 36.918-.144.919.207 1.769.848 2.054.068.03.125.13.125.22 0 .921 2.293.693 2.639-.263.137-.38.194-2.858.194-8.489 0-10.215-.181-9.714 3.5-9.669 3.834.046 4.362.223 5.019 1.688.264.589.728 1.359 1.03 1.712.32.374.644 1.012.776 1.525.174.679.408 1.058 1.011 1.64.61.588.85.979 1.073 1.752.28.968.652 1.578.962 1.578.275 0 .553.403.865 1.25.169.459.548 1.096.842 1.417.611.665 1.086 1.617 1.094 2.192.006.422.35.975.607.975.187 0 .957.806 1.115 1.166.385.878.739 1.227 1.443 1.422.411.114 1.181.328 1.713.476 1.329.37 1.596.346 1.787-.159.403-1.059.032-2.405-.664-2.405-.086 0-.338-.244-.56-.542-.371-.497-.463-.749-.722-1.958-.049-.229-.372-.615-.716-.857-.462-.324-.688-.644-.857-1.216-.205-.695-.998-1.761-1.311-1.761-.066 0-.215-.318-.331-.708-.493-1.659-.724-2.151-1.069-2.283-.474-.182-.839-.63-1.094-1.342-.324-.903-.672-1.485-1.241-2.076-.333-.346-.634-.929-.83-1.608-.17-.586-.405-1.294-.522-1.572-.419-.991.702-1.741 2.613-1.75 1.187-.005 1.967-.316 1.967-.783 0-.206.727-.878.949-.878.098 0 .478-.309.843-.688.366-.378.756-.772.867-.875.691-.636.899-.951 1.179-1.784.173-.512.577-1.322.899-1.799 1.169-1.738.937-6.188-.375-7.185-.196-.149-.695-1.335-.695-1.65 0-.311-.454-.846-1.219-1.435-.238-.184-.436-.422-.44-.531-.011-.285-.915-.886-1.332-.886-.196 0-.649-.299-1.008-.665-1.059-1.08-5.417-1.519-14.751-1.484l-5 .018-.77.441m85.786-.355c-1.021.152-.959-1.001-.944 17.337.008 9.235.059 17.429.114 18.208.058.814.021 1.842-.087 2.417-.236 1.251.046 1.899 1.011 2.325.352.155.751.393.886.528.217.217.338.215 1.02-.017 1.167-.396 1.358-.535 1.556-1.135.255-.774.162-30.196-.097-30.785-.237-.536.24-1.266 1.049-1.604 1.017-.425 1.561.255 1.881 2.354.214 1.401.722 2.714 1.108 2.862.29.111.737.996.737 1.459 0 .965.618 2.547 1.213 3.107.553.52.628.701.821 1.97.184 1.208.293 1.49.808 2.083.671.774.837 1.163 1.256 2.936.226.953.424 1.38.835 1.797.639.649 1.067 1.798 1.067 2.868 0 .721.7 1.835 1.153 1.835.175 0 .513 1.049.514 1.595.002.899.354 1.774.974 2.418.615.641.87 1.299 1.366 3.529.117.527.275.958.351.958.269 0 .987.741 1.399 1.443.445.761.743.806 1.038.158.095-.21.444-.51.774-.667.801-.38 1.027-.788 1.231-2.224.168-1.182.682-2.178 1.136-2.201.194-.009.73-1.692.73-2.291 0-.535.424-1.413.982-2.035.512-.569 1.018-1.941 1.018-2.757 0-.603.592-1.713.98-1.836s.631-.717.779-1.907c.151-1.202.498-1.995 1.14-2.6.449-.423.566-.703.76-1.833.224-1.302.781-2.507 1.241-2.683.238-.091.441-.67.872-2.483.296-1.245.533-1.751.821-1.751.398 0 .866-1.259.973-2.617.148-1.88.839-3.083 1.9-3.309.248-.053.623-.167.834-.252.569-.231.607-.211 1.012.509.355.632.315 2.726-.063 3.338-.32.517-.609 3.073-.519 4.581.123 2.051.122 21.284-.001 22.667l-.089 1 1.032.901 1.031.901.941-.333c1.645-.584 1.506 1.321 1.515-20.686.007-16.909-.023-19.275-.246-19.708l-.255-.492h-5.802l-.344.484c-.19.267-.345.562-.345.658 0 .324-.69 1.343-.97 1.433-.275.087-.863 1.723-.863 2.398 0 .523-.488 1.532-1.009 2.09-.531.567-.991 1.717-.991 2.475 0 .625-.414 1.416-1.082 2.072-.525.515-.752 1.135-.752 2.057 0 .711-.412 1.534-1.069 2.131-.394.359-.597.692-.597.979 0 .239-.072.706-.159 1.037-.088.332-.198.793-.244 1.024-.047.232-.339.719-.65 1.083-.57.669-.687.947-1.219 2.913-.213.785-.451 1.234-.863 1.631-.6.578-1.032 1.688-1.032 2.652 0 .642-.516 1.755-.964 2.081-.167.12-.407.481-.533.802-.127.321-.546.895-.93 1.275l-.7.691-.603-.676c-.332-.372-.604-.796-.606-.941-.005-.624-.616-2.197-1.034-2.662-.513-.573-.963-1.55-.963-2.093 0-.771-.495-2.035-.878-2.239-.493-.264-.738-.837-1.046-2.447-.213-1.115-.34-1.397-.859-1.92-.581-.584-1.043-1.652-1.048-2.425-.004-.539-.648-1.88-1.013-2.108-.177-.111-.323-.296-.323-.411 0-.116-.066-.21-.148-.21-.154 0-.203-.181-.562-2.064-.17-.889-.335-1.263-.735-1.666-.7-.705-.991-1.347-1.105-2.437-.112-1.081-.404-1.751-.871-2.002-.415-.223-.659-.777-.917-2.081-.638-3.228-2.796-4.195-7.729-3.462m54.313.052c-.059.096-.407.294-.773.44-.558.223-.649.324-.557.618.06.193.18.653.268 1.021.197.825.127 36.207-.072 36.609-.183.371 1.583 2.197 2.016 2.083.159-.042.626-.162 1.039-.268.622-.159 17.481-.159 21.416 0 1.947.078 2.727-.669 2.51-2.404-.205-1.643.088-1.604-11.843-1.593-5.317.005-9.757.004-9.867-.002-.111-.006-.392-.202-.625-.435l-.425-.424v-6.665c0-7.2.034-7.507.888-8.067.372-.244 1.313-.269 9.072-.243 8.929.03 9.031.023 9.682-.628.347-.347.177-1.982-.239-2.297-.27-.204-1.715-.242-9.272-.247L186.512 33l-.59-.517-.589-.518V19.701l.589-.517.59-.517h9.756c8.233 0 9.793-.038 9.994-.238.321-.321.311-1.972-.016-2.604l-.255-.492h-11.819c-8.018 0-11.854.056-11.926.174m30.046.269c-.758.38-.792.427-.79 1.102.006 1.751-.36 1.656 6.915 1.785 6.104.107 6.594.161 7.291.791.275.249.292 1.301.292 17.733 0 18.43-.03 17.561.663 18.98.083.171.434.265 1.112.298l.991.049.367-.885.367-.885V37.361c0-11.604.057-17.49.172-17.704.457-.854.825-.904 6.995-.95 6.574-.049 6.91-.097 7.063-1.019.206-1.25.151-1.412-.653-1.898l-.757-.457-14.618.023-14.619.023-.791.397m38.897-.05l-.368.392v38.573l.428.904c.392.83.472.903.964.885 2.16-.079 2.131.056 2.112-9.813-.019-9.802.004-9.973 1.362-10.339.679-.183 20.355-.241 21.066-.062.203.051.548.33.767.622l.397.529.083 9c.092 9.946.047 9.561 1.173 9.899 1.039.311 1.389.239 1.741-.358.175-.298.495-.729.711-.958.313-.332.368-.518.273-.917-.257-1.07-.256-35.794.001-36.895.131-.562.18-1.021.109-1.021-.07 0-.409-.191-.753-.424-.54-.367-.774-.417-1.727-.375-1.614.071-1.523-.439-1.526 8.496-.002 8.167-.013 8.278-.873 8.802-.529.323-.844.333-10.296.332-10.698-.001-11.239-.028-11.94-.586l-.476-.38-.084-7.974c-.097-9.315.016-8.725-1.677-8.725-.938 0-1.152.058-1.467.393m42.456-.117c-.328.396-.342 39.206-.013 39.983.269.639 2.118 1.182 2.387.702.079-.141.497-.605.929-1.031l.785-.774-.242-.786c-.363-1.185-.426-35.206-.066-36.226.378-1.072.325-1.214-.636-1.7-1.067-.54-2.76-.63-3.144-.168m15.297.029c-.252.279-.275 1.546-.275 14.803 0 15.606.005 15.715.859 16.621.432.459.725 1.169.869 2.105.2 1.307.411 1.742.994 2.057.344.185.693.582.917 1.043.199.409.493.79.653.846.42.148 1.208.911 1.208 1.171 0 .316.938.843 1.736.976.812.135 1.495.463 1.797.864.57.756.808.79 5.904.845 4.113.045 4.949.013 5.478-.208.344-.143.754-.261.912-.261.157 0 .363-.17.458-.377.173-.38.282-.448 1.807-1.114.463-.203 1.189-.687 1.614-1.077.424-.39 1.032-.907 1.349-1.15.571-.435 1.445-1.777 1.445-2.217 0-.125.375-.604.833-1.065.755-.759.833-.909.833-1.596 0-.417.108-1.522.24-2.456.132-.934.319-2.298.416-3.031.109-.829.179-6.051.185-13.802l.009-12.469-.599-.406c-.476-.324-.811-.407-1.639-.407-1.749 0-1.612-1.246-1.612 14.623 0 14.575-.033 15.244-.792 16.043-.54.569-.779 1.078-1.043 2.221-.169.735-.343 1.058-.715 1.333-.769.569-1.616 1.45-1.616 1.681 0 .115-.169.288-.375.385-.568.264-1.657.681-2.125.812-.229.064-.53.238-.667.387-.722.78-1.26.881-4.36.822l-2.943-.057-.569-.583c-.597-.613-1.598-1.167-2.108-1.167-.442 0-2.308-1.789-2.714-2.601-.191-.384-.523-.792-.736-.906-.577-.308-.892-1.132-1.163-3.036-.319-2.244-.488-3.107-.718-3.676-.319-.792-.263-23.948.061-24.723.297-.71.298-.724.08-.724-.093 0-.467-.188-.83-.417-.851-.537-2.614-.602-3.058-.112m41.933.147c-.311.67-.298 38.482.014 39.525.249.833.402.948 1.473 1.108.774.115.78.112 1.288-.609.281-.399.568-.801.639-.892.136-.178-.054-26.215-.214-29.363-.124-2.434.591-3.865 1.485-2.971.137.138.33.25.428.25.098 0 .179.069.179.152 0 .084.367.515.817.958.968.956 1.348 1.786 1.352 2.952.003 1.096.296 1.925.962 2.72.509.608 1.035 1.977 1.035 2.691 0 .577.333 1.258.845 1.727.591.542.739.908.9 2.217.135 1.098.423 1.779.893 2.115.52.371.816 1.004 1.039 2.218.118.642.314 1.285.436 1.43.121.145.221.317.221.382 0 .066.184.319.41.562.499.538.635.897 1.021 2.692.166.769.404 1.482.53 1.583.856.691 1.342 1.864 1.365 3.303.004.296.226.671.641 1.084.696.693 1.033 1.339 1.033 1.981 0 .671.622 1.863 1.04 1.996.207.065.608.295.892.511.668.509.869.495 1.008-.065.062-.252.288-.738.503-1.08.214-.342.39-.686.39-.764 0-.078.188-.242.417-.365.229-.122.416-.313.416-.424 0-.111.113-.295.25-.409.158-.131.25-.498.25-.996 0-1.126.602-2.648 1.054-2.665.274-.011.613-.491.613-.869 0-.689.482-2.714.66-2.773.095-.032.173-.134.173-.226s.159-.296.352-.452c.346-.28.766-1.202.921-2.019.257-1.361.501-1.943 1.025-2.452.604-.587 1.036-1.702 1.036-2.677 0-.679.599-1.827 1.024-1.962.292-.093.64-.995.641-1.659 0-.557.558-1.979.915-2.333.749-.742.903-1.136 1.252-3.194.15-.889.776-2.051 1.106-2.054.254-.003.514-.734.639-1.801.248-2.123 1.272-2.998 2.269-1.938l.404.43.083 15.945c.091 17.458.046 16.744 1.061 16.921.287.05.747.132 1.022.183.459.083.562.005 1.237-.93l.737-1.02-.154-.938c-.237-1.451-.038-36.517.21-36.938.539-.913-5.102-1.889-5.976-1.034-.121.118-.45.309-.73.423-.666.273-.983.851-1.246 2.278-.213 1.155-.909 2.582-1.259 2.583-.206 0-.449.715-.825 2.417-.206.935-.384 1.299-.892 1.833-.547.574-.665.841-.85 1.917-.227 1.316-.479 1.868-1.104 2.417-.212.186-.466.7-.577 1.166-.451 1.899-.722 2.6-1.228 3.168-.58.652-1.095 1.892-1.093 2.632.001.602-.322 1.216-1.04 1.977-.478.507-.593.776-.678 1.59-.131 1.251-.481 2.084-1.084 2.576-.387.316-.532.645-.761 1.724-.515 2.427-1.002 2.971-2.133 2.382-.35-.183-.637-.4-.637-.482 0-.083-.113-.15-.25-.15s-.25-.061-.25-.135c0-.075-.14-.286-.311-.469-.576-.618-1.356-2.953-1.356-4.059 0-.17-.227-.521-.505-.781-.695-.65-1.003-1.311-1.114-2.389-.11-1.083-.386-1.683-1.104-2.403-.373-.374-.593-.819-.752-1.521-.355-1.564-.706-2.472-1.045-2.709-.368-.258-.98-1.528-.98-2.034 0-.879-.411-1.912-.993-2.493-.517-.518-.641-.792-.831-1.849-.253-1.399-.616-2.325-.914-2.325-.316 0-.946-1.267-1.101-2.217-.262-1.601-.365-1.863-.995-2.533-.392-.417-.668-.9-.737-1.291-.061-.344-.169-.625-.241-.625-.072 0-.232-.188-.354-.417l-.223-.417-2.93.002-2.931.001-.208.449M22.811 18.95c.942.22 1.342.407 1.715.803.268.285.878.723 1.356.975.831.439 1.451 1.23 1.451 1.852 0 .129.305.889.677 1.691.841 1.812.782 2.582-.331 4.312-.177.275-.327.65-.334.834-.02.526-.592 1.336-1.216 1.721-.314.195-.656.54-.76.767-.463 1.015-1.586 1.2-8.452 1.391-5.188.144-4.963.174-5.879-.768-.692-.712-.727-.794-.619-1.433.188-1.113.276-8.655.115-9.855-.17-1.272.072-1.704 1.27-2.272.908-.43 9.188-.444 11.007-.018m35.66.053c.45.132.856.396 1.083.706.199.272.75.667 1.224.878.478.212.997.592 1.166.853.169.26.537.675.819.924 1.287 1.137 1.269 6.426-.025 7.708-3.009 2.979-2.956 2.965-11.922 3.197-5.697.147-5.307.691-5.312-7.41-.004-6.246.003-6.297.975-6.921.554-.356 10.736-.3 11.992.065"/><path fill="#28a64f" d="M294.292 4.678c-.344.181-.625.398-.625.481 0 .083-.097.25-.215.371-1.687 1.731-.925 4.636 1.411 5.382l.968.31.835-.82c.46-.45 1.023-.985 1.251-1.188.365-.323.416-.505.416-1.477V6.628l-1.186-1.147c-1.329-1.285-1.729-1.397-2.855-.803M98.503 17.042c-.002.751.067 1.291.164 1.291.214 0 .214-2.001 0-2.333-.112-.173-.163.146-.164 1.042m5.122.72c-.602.327-.58.443.167.854l.625.344.363-.379.363-.378-.374-.352c-.438-.412-.535-.419-1.144-.089m-9.07.25c-.119.118-.132.391-.039.793.079.336.145 1.193.147 1.903.004 1.398.32 1.834.362.5.072-2.32-.11-3.557-.47-3.196m-5.608.097c-.247.246-.126 2.224.136 2.224.194 0 .25-.216.248-.958-.003-.95-.165-1.485-.384-1.266m18.771 1.632l-.468.407.427.433c.711.72 1.653-.164.963-.905-.395-.424-.358-.427-.922.065m-25.885-.094c-.438.077-.583.186-.583.436 0 .449 2.187.609 2.354.173.242-.63-.402-.851-1.771-.609m31.011.172l-.572.305.807.357c.807.357.809.357 1.118.025.712-.765-.271-1.264-1.353-.687m-12.469.134c-.297.107-.279 1.948.022 2.198.313.259.436-.092.436-1.238 0-.91-.087-1.093-.458-.96m-15.599 1.518c-.366.405-.348.726.059 1.075.678.581 1.423-.333.807-.989-.442-.47-.512-.477-.866-.086m212.47 13.946c0 7.883.021 11.084.046 7.112.025-3.971.025-10.421 0-14.333-.025-3.912-.046-.663-.046 7.221M90.708 21.622c-.255.089-.27.618-.03 1.066.24.449.655.117.655-.524 0-.466-.242-.676-.625-.542m13.482.267c-.333.401.168.896.535.528.222-.221.243-.338.094-.518-.241-.291-.394-.293-.629-.01m7.321 1.556c-.425.297-.437.586-.04.946.403.364.615.348 1.012-.077.588-.632-.246-1.378-.972-.869M41.737 26.75c0 1.925.025 2.69.054 1.699.03-.99.03-2.565 0-3.5-.03-.934-.054-.124-.054 1.801m55.346-2.924c-.358.146-.367.142 1.016.431.452.095.964-.187.806-.443-.112-.181-1.367-.174-1.822.012m-10.468 1.608c-.544.295-.516.564.089.859.771.376 1.397-.221.858-.817-.333-.367-.346-.368-.947-.042m21.323.043c-.558.616-.107 1.064.855.847.931-.21 1.195-.824.353-.824-.184 0-.47-.073-.636-.161-.224-.12-.371-.085-.572.138m-26.73-.033c-.555.223-.093 1.007.542.917.617-.087 1.417-.386 1.417-.529 0-.236-1.565-.546-1.959-.388m24.419 1.818c-.06.06-.343.158-.627.216-.674.138-.659.404.033.573.303.074.716.176.919.227.5.125 1.008-.373.769-.754-.177-.283-.9-.457-1.094-.262m7.906.105c-.333.333-.24.917.163 1.022.374.098 1.304-.34 1.304-.615 0-.476-1.094-.78-1.467-.407m-24.516.119c-.53.336-.054.681.936.678 1.083-.003 1.477-.171 1.327-.564-.115-.298-1.835-.385-2.263-.114m22.606 1.923c-.315.23-.39.591-.123.591.092 0 .167.113.167.25 0 .535.813.008.828-.536.009-.346-.55-.541-.872-.305M354.372 30c0 .321.034.452.076.292.042-.161.042-.423 0-.584-.042-.16-.076-.029-.076.292m-258.83 1.274c-.482.237-.875.493-.875.569 0 .076-.169.423-.375.771-2.773 4.68 3.199 9.994 6.585 5.861.912-1.112 1.489-4.696.825-5.124-.086-.055-.21-.27-.274-.476-.064-.206-.187-.375-.273-.375-.085 0-.157-.131-.16-.292-.023-1.233-3.604-1.846-5.453-.934m69.997.726c0 .321.034.452.076.292.042-.161.042-.423 0-.584-.042-.16-.076-.029-.076.292m-50.174.81c-.334.641-.335.665-.033.939.656.594 1.246.024.939-.905-.261-.791-.507-.8-.906-.034m65.866 2.607c.001 1.191.027 1.657.059 1.034.033-.622.032-1.597 0-2.166-.033-.569-.059-.06-.059 1.132m-139.507 0c0 .733.03 1.012.065.62s.035-.992-.001-1.333c-.036-.341-.065-.021-.064.713m81.109-.475l-.508.428.429.398c.6.556 1.057.501 1.299-.155.301-.814-.516-1.263-1.22-.671m-51.287-.067c-.366.474-.375.629-.055.95.331.33 1.176.206 1.176-.173 0-.07.131-.153.291-.184.221-.042.145-.147-.311-.429-.692-.427-.876-.455-1.101-.164m3.292.217c-.346.244-.471.408-.312.408.147 0 .36.112.474.25.271.327.743.317 1.267-.027l.422-.276-.42-.39c-.522-.484-.703-.479-1.431.035m3.967-.044l-.445.369.393.291c.499.371.879.368 1.454-.012l.458-.301-.493-.364c-.61-.451-.805-.449-1.367.017m3.809.015l-.47.384.422.277c.554.362 1.039.349 1.537-.043l.405-.319-.488-.348c-.614-.437-.822-.43-1.406.049m3.858-.015l-.445.369.393.291c.534.397 1.918.13 1.912-.369-.006-.536-1.318-.741-1.86-.291m20.98.012l-.797.357.749.305c.721.294.767.294 1.256.006.518-.307.66-.561.311-.561-.107 0-.313-.105-.458-.232-.226-.2-.374-.182-1.061.125m3.983-.144c-.174.131-.398.266-.499.3-.27.09.275.58.788.709.3.075.557.009.845-.217l.414-.326-.444-.358c-.518-.417-.676-.432-1.104-.108m7.676.111c-.636.695.516 1.29 1.302.673l.381-.301-.411-.366c-.5-.445-.867-.447-1.272-.006m-28.759.092l-.564.234.564.289c.554.284 1.914.009 1.525-.309-.44-.358-.989-.436-1.525-.214m13.171.196c-.293.186.664.304 1.477.181.549-.083.559-.095.167-.206-.567-.162-1.368-.149-1.644.025m11.807 1.654l-.374.303.397.612c.491.758.506.757.938-.012l.353-.628-.356-.288c-.443-.36-.498-.359-.958.013m-3.598 3.627c-.124.493.165.907.441.631.118-.118.119-.314.004-.617-.211-.555-.309-.558-.445-.014m-69.991 5.071c0 2.887.023 4.068.05 2.625.028-1.444.028-3.807 0-5.25-.027-1.444-.05-.263-.05 2.625m71.792-3.3c-.676.676.156 1.529.982 1.006l.498-.315-.446-.446c-.491-.49-.732-.547-1.034-.245m-8.233.222c-1.174.321-1.284.44-.624.678 1.351.488 2.549.109 1.905-.603-.165-.182-.344-.321-.398-.31-.055.011-.452.117-.883.235m-16.437.359c.126.656 2.348.742 2.44.094.052-.361.005-.375-1.22-.375-1.106 0-1.267.037-1.22.281m-7.752 1.748c-.147.562.032.678.867.56 1.413-.199 1.471-.268.502-.602-1.151-.398-1.255-.394-1.369.042m5.365-.033c-.256.282-.243.323.202.652l.475.352.329-.353c.27-.289.294-.411.134-.667-.244-.39-.778-.383-1.14.016m21.243-.028c-.399.659.365 1.06 1.257.662.708-.317.717-.331.373-.572-.602-.421-1.402-.466-1.63-.09m3.821 1.699c-.453.367-.466.531-.069.89.577.522 1.336.148 1.115-.55-.173-.545-.614-.689-1.046-.34m-13.623.325c-.308.126-.3.145.115.254.487.128.865-.009.711-.258-.114-.183-.369-.182-.826.004m-7.199 1.363c-.207.777-.053 1.199.378 1.034.287-.111.295-.636.019-1.282l-.203-.476-.194.724m-5.858.199c-.45.479-.459.881-.027 1.112.575.308 1.475-.368 1.112-.833-.486-.624-.707-.68-1.085-.279m15.36.292c-.174.175-.086.844.206 1.556.106.259.174.169.361-.472.286-.978-.043-1.607-.567-1.084m-5.63.144c-.054.086-.047.47.014.854.109.681.117.688.331.302.424-.765.094-1.868-.345-1.156m13.091 1.447l-.356.452.444.464.445.465.34-.432c.306-.389.316-.473.101-.854-.335-.594-.565-.616-.974-.095m5.402.098c-1.174.413-1.096.677.26.88.93.138 1.319-.16.96-.736-.238-.38-.469-.408-1.22-.144m-31.798.069c-.41.41-.089.685.904.775 1.228.112 1.511.025 1.445-.442-.052-.361-2.039-.643-2.349-.333m7.468.221c-.057.179-.012.647.1 1.041.13.456.229.608.273.418.037-.164.17-.496.295-.736.158-.305.178-.531.064-.743-.214-.4-.602-.39-.732.02m5.93.906c-.018.339-.74 1.094-1.067 1.114-.109.007.101.146.467.308.92.407 1.189.086.845-1.008-.125-.401-.236-.587-.245-.414m9.15.685c-.114.138-.31.25-.437.25-.458 0-.214.428.396.695.951.416 1.623-.268.903-.919-.377-.341-.594-.348-.862-.026m-5.458.176c-.251.273-.271.682-.042.824.092.057.167.264.167.46 0 .48.293.18.488-.5.184-.641-.243-1.188-.613-.784"/><path fill="#9cb1a4" d="M293.459 3.792c-.251.156-.57.522-.708.813-.139.292-.626.889-1.085 1.328-1.252 1.201-1.239 2.318.042 3.605.482.483.966 1.081 1.076 1.329.644 1.442 3.401 1.484 4.832.074.293-.288.715-.701.939-.917.436-.421.607-1.106.61-2.442.003-1.392-.241-1.911-1.427-3.04L296.644 3.5l-1.364.004c-.987.004-1.49.083-1.821.288m3.265 1.125c.39.412.801.75.913.75.112 0 .289.187.393.416.105.23.253.417.33.417.599 0-.01 2.847-.685 3.202-.225.118-.675.496-1 .839-1.073 1.134-2.493.758-3.753-.993-.795-1.106-1.041-2.625-.489-3.022.234-.168 1.067-1.319 1.067-1.475 0-.334 1.193-.8 2.216-.865.165-.011.619.318 1.008.731M103.833 10.5c-.345.111-.288.136.334.148.541.01.68-.031.5-.148-.282-.182-.265-.182-.834 0m-12.791.115c.16.042.423.042.583 0 .16-.042.029-.076-.292-.076-.32 0-.452.034-.291.076m6.096.839c-.85.09-1.389 1.074-1.618 2.952-.096.788-.136.847-.603.896-1.134.117-1.738.376-2.03.869-.161.273-.361.496-.445.496-.085 0-.314.168-.51.375-.793.834-.85.847-1.597.376-.537-.339-.859-.424-1.46-.385l-.77.05-.294 1.167c-.564 2.244-.416 2.778.92 3.336.667.279.771 1.088.215 1.666-.108.112-.364.401-.57.642-.253.298-.539.439-.884.439-.935 0-2.031.362-2.119.701-.08.305-.093.305-.399-.024-.827-.887-3.932-1.028-4.745-.216-.948.948.374 3.031 1.699 2.676.968-.26 3.264-.428 3.708-.272.212.074.662.136 1 .138.786.003.935.111 1.208.874.411 1.149 1.008 1.552 1.816 1.229.374-.15.9-.272 1.169-.272 1.212 0 1.632-.618 1.414-2.075-.128-.85-.038-.821-2.309-.76-1.061.029-1.26-.104-1.265-.842-.005-.845.295-.996 1.325-.666 1.087.349 1.478.279 1.689-.305.086-.24.22-.586.297-.769.257-.611.52-1.52.52-1.798 0-.329-1.084-1.452-1.402-1.452-.49 0-.627-.435-.391-1.245l.225-.773.436.342c.239.189.673.343.965.343.851 0 1.155.516 1.161 1.97.007 1.362.089 1.504 1.218 2.101.456.24.734.514.788.775.449 2.173 4.311 2.577 4.331.453.004-.494.379-1.133.664-1.133.806 0 1.338-.967 1.338-2.43 0-1.551.267-1.962 1.014-1.562.601.322 2.262.286 2.605-.056.472-.471.392-1.905-.13-2.327-.717-.581-3.822.215-3.822.98 0 .621-1.227 1.004-1.4.437-.049-.16-.009-.592.089-.958.247-.919.236-1.219-.072-2.084-.147-.412-.381-1.386-.52-2.164-.332-1.862-.428-1.929-2.459-1.715m-10.455.869l-.4.101.4.179c.414.186.817.137.817-.099 0-.209-.375-.292-.817-.181m21.276.203c.141.141.341.146.742.017l.549-.176-.742-.017c-.561-.013-.694.03-.549.176m-65.807 1.021c-.934.452-1.498.896-1.879 1.478-.271.413-.289 1.751-.287 20.661l.002 20.22.464.653c.64.9 1.581 1.253 3.366 1.265 2.845.019 2.849.004 2.849-11.071 0-4.451.064-7.773.151-7.827.083-.051 1.45-.097 3.038-.102 3.263-.009 3.311.009 3.311 1.252 0 .833.474 1.77 1.035 2.047.294.145.53.517.793 1.25.206.574.62 1.306.921 1.627.617.657 1.084 1.5 1.084 1.955 0 .466.464 1.025 1.055 1.272.482.202.563.344.852 1.505.294 1.183.853 2.101 1.278 2.101.211 0 .648.93.648 1.378 0 .406.779 1.289 1.138 1.289.112 0 .285.206.386.458 1.073 2.688 1.212 2.778 4.31 2.786l2.25.006.791-.55c.9-.624.943-.773.408-1.396-.224-.261-.47-.883-.593-1.5-.181-.913-.287-1.106-.781-1.43-.534-.35-1.075-1.269-1.075-1.827 0-.569-.577-1.429-1.106-1.651-.653-.272-.822-.55-.981-1.611-.096-.637-.266-.945-.841-1.52-.397-.397-.774-.937-.837-1.202-.262-1.09-.857-1.88-1.424-1.891-.201-.004-.35-.337-.568-1.261-.3-1.274-.337-1.327-1.702-2.423-.114-.092-.208-.418-.208-.724 0-.305-.045-.779-.099-1.053-.123-.615-.006-.668 1.812-.815 1.484-.119 2.19-.453 2.459-1.161.087-.227.345-.44.614-.507 1.198-.295 2.646-1.834 2.955-3.142.065-.273.412-.785.772-1.137.883-.866.904-.988.904-5.313v-3.781l-.49-.511c-.269-.281-.561-.511-.648-.511-.256 0-.601-.551-.607-.969-.011-.819-1.902-2.928-2.804-3.128-.899-.2-1.019-.258-1.108-.536-.329-1.023-.696-1.17-3.691-1.47-1.55-.156-2.932-.371-3.069-.478-.769-.598-2.435-.77-8.004-.829-2.518-.026-4.917-.093-5.329-.147-.579-.077-.925-.015-1.515.271m86.015-.116c-1.228.255-1.88.835-2.176 1.936-.355 1.318-.124 40.81.242 41.35.771 1.137 4.125 1.586 5.425.725 1.023-.677 1.009-.451 1.053-17.225.028-10.962.09-15.085.229-15.223.281-.281.36-.047.57 1.688.208 1.723.446 2.275 1.157 2.682.409.235.485.401.572 1.245.115 1.114.581 2.724.788 2.724.077 0 .14.083.14.185 0 .101.168.317.375.479.38.3.632 1.005.956 2.68.151.783.294 1.028.923 1.583.718.634.743.689.744 1.62.002 1.419.66 2.787 1.34 2.787.208 0 .314.191.392.708.387 2.579.515 3.001 1.118 3.689.799.913.983 1.293.994 2.05.014.937.531 2.084 1.113 2.469.541.359.877 1.063.88 1.845.005 1.394.464 2.315 1.415 2.839.183.101.357.343.386.538.214 1.437 2.405 1.327 3.948-.198.695-.687.885-1.099 1.238-2.69.116-.524.354-.993.64-1.262.583-.549 1.038-1.353 1.038-1.834 0-1.143.373-2.478.724-2.589.665-.21 1.265-1.562 1.272-2.868.004-.683.189-1.039.92-1.77.315-.314.618-.782.676-1.041.057-.258.21-.907.339-1.441.129-.535.235-1.09.235-1.234 0-.145.287-.508.637-.807.73-.625 1.03-1.429 1.03-2.757 0-.858.035-.928.809-1.647.727-.673.821-.844.92-1.667.165-1.371.476-2.323.793-2.424.704-.223 1.305-1.774 1.309-3.379.003-1.239.232-1.824.597-1.521.204.169.239 2.368.239 15.008 0 15.71-.003 15.655.755 16.425.723.735 4.016.996 4.988.395 1.069-.66 1.002.701 1.052-21.549l.044-20.295-.359-.835c-.607-1.411-.828-1.492-4.094-1.492-2.205 0-2.888.053-3.162.245-.444.311-1.331 1.692-1.484 2.309-.068.276-.279.533-.511.621-.6.228-1.061 1.115-1.062 2.043-.001 1.194-.315 2.282-.658 2.282-.52 0-.975.709-1.178 1.834-.335 1.856-.412 2.078-.783 2.243-.499.222-1.097 1.346-1.243 2.34-.245 1.654-.344 1.916-.916 2.418-.617.542-1.056 1.546-1.056 2.415 0 1.069-.192 1.558-.766 1.95-.636.435-.841.86-.99 2.05-.137 1.095-.396 1.917-.603 1.917-.611 0-1.473 1.73-1.475 2.961-.001.25-.132.65-.292.887-.16.237-.534.796-.832 1.241-.298.445-.542 1.008-.542 1.251 0 .243-.148.613-.329.822l-.33.38-.17-.448c-.094-.247-.171-.628-.171-.847 0-1.171-.365-2.106-.996-2.552-.575-.407-.646-.545-.826-1.612-.108-.641-.233-1.361-.278-1.6-.045-.238-.377-.73-.737-1.094-.547-.553-.7-.866-.928-1.9-.15-.682-.311-1.413-.359-1.625-.047-.212-.346-.662-.665-1-.807-.856-1.044-1.386-1.044-2.331 0-.874-.747-2.2-1.24-2.2-.278 0-.363-.251-.512-1.5-.172-1.442-.432-2.143-1.006-2.717-.549-.549-1.076-1.834-1.076-2.625 0-.671-.426-1.566-.959-2.015-.648-.545-.672-.598-.887-1.993-.251-1.627-.488-2.039-1.485-2.582-.46-.25-.835-.551-.835-.669 0-.586-1.043-1.035-2.072-.891-.544.076-1.2.106-1.459.065-.258-.04-.676-.101-.928-.136s-.946.037-1.541.161m53.68.067c-1.083.396-1.62.859-2.032 1.752-.434.941-.49 39.18-.059 40.662.583 2.005.06 1.941 15.177 1.885 15.437-.057 14.234.261 14.234-3.759v-1.976l-.511-.489-.511-.49L197.281 51l-10.864-.083-.05-5.834c-.053-6.287.022-7.068.681-7.102 1.605-.084 15.746.083 16.225.191.618.139 2.06-.339 2.06-.683 0-.077.247-.257.549-.401.86-.407 1.118-1.007 1.118-2.599 0-2.598.37-2.512-11.333-2.639l-9.25-.1V19.917l9.916-.084c6.959-.058 10.044-.14 10.343-.275 1.071-.482 1.914-2.8 1.281-3.523-.137-.157-.349-.566-.47-.91-.121-.344-.281-.625-.354-.625-.073 0-.133-.109-.133-.242 0-.694-1.084-1.126-2.366-.942-1.307.187-20.718.149-21.467-.042-.25-.064-.778.025-1.32.224m30.663-.019c-1.862.62-2.643 2.035-2.352 4.261.258 1.973.025 1.912 7.925 2.081 3.392.073 6.186.143 6.209.156.148.083.015 32.771-.137 33.595-.204 1.101-.104 1.46.799 2.884 1.307 2.061 4.847 1.964 5.553-.151.142-.424.357-.891.479-1.038.157-.189.193-.567.125-1.308-.053-.573-.128-7.717-.167-15.876-.039-8.158-.124-15.553-.189-16.433l-.119-1.599 1.04-.109c.572-.06 3.048-.109 5.503-.109 7.567 0 8.321-.238 8.321-2.633 0-2.607-1.91-4.252-4.5-3.874-1.328.193-26.371.152-27.167-.045-.234-.058-.813.028-1.323.198m38.573-.034c-.684.364-1.904 1.55-2.103 2.046-.187.466-.23 38.843-.045 40 .358 2.243 4.291 3.261 6.031 1.561.461-.45.548-2.233.501-10.302l-.047-8.167.582-.276c1.519-.723 1.465-.712 2.32-.493.611.157 2.98.199 9.496.17 4.775-.022 8.738.016 8.807.085.069.069.167 4.113.218 8.986.102 9.73.115 9.852 1.081 10.45 1.163.718 4.232.266 5.071-.748.668-.808.667-.755.669-21.378l.003-19.872-.875-.886c-1.996-2.024-4.417-2.004-5.424.044l-.451.918-.084 8.084-.083 8.083h-10.528c-5.79 0-10.587-.059-10.659-.131-.072-.073-.135-3.785-.139-8.25l-.007-8.119-.39-.704c-.719-1.299-2.587-1.821-3.944-1.101m42.386.103c-.246.203-.621.744-.833 1.202l-.386.833V35.5c0 22.003-.041 21.134 1.025 21.947 1.297.989 4.642.297 5.35-1.107l.375-.744V35.532c0-21.206.006-21.032-.703-21.032-.072 0-.13-.1-.13-.222 0-.881-3.799-1.472-4.698-.73m15.601-.145c-1.535.669-1.571 1.031-1.567 16.147.004 15.255.105 17.641.786 18.72.254.401.516.73.584.73.167 0 .627 1.128.627 1.536 0 .529.515 1.253 1.123 1.579.363.194.675.554.878 1.011.207.468.473.769.781.886.633.241 1.051.643 1.051 1.01 0 .372.591.776 1.538 1.051.426.123.777.347.872.556.547 1.196 4.768 1.699 11.34 1.35 3.831-.203 4.175-.294 4.685-1.24.235-.438.412-.55.968-.614 1.053-.122 2.141-.717 2.444-1.337.15-.306.567-.707.969-.932.701-.39.875-.654 1.608-2.446.155-.378.484-.792.749-.945.556-.318.731-.863 1.002-3.111.154-1.273.259-1.628.573-1.916.825-.761.816-.616.912-15.355.097-14.928.113-14.639-.823-15.606-1.546-1.599-5.17-1.752-5.17-.219 0 .133-.067.242-.149.242-.386 0-.438 1.492-.517 14.677l-.084 14.093-.458.544c-.252.3-.459.627-.459.727 0 .101-.099.301-.22.446-.191.228-.488 1.362-.867 3.305-.08.407-.216.569-.551.651-.571.14-1.184.793-1.303 1.389-.087.434-.173.478-1.231.635-.625.093-1.686.331-2.358.529-2.387.706-2.309.697-3.72.418-2.442-.483-2.664-.534-3.136-.725-.258-.104-.68-.189-.937-.189-.475 0-.771-.244-1.088-.893-.095-.196-.413-.47-.705-.607-.293-.138-.619-.437-.725-.667-.107-.229-.304-.649-.439-.934-.135-.284-.484-.621-.774-.75l-.529-.232-.195-2.084c-.128-1.363-.203-6.687-.217-15.397-.012-7.323-.064-13.526-.116-13.785-.339-1.696-3.376-3.021-5.152-2.248m41.643.221c-1.102.962-1.055-.02-1.048 21.756.005 19.579.034 21.158.396 21.635 1.029 1.359 4.539 1.058 5.725-.491l.464-.607.035-14.348c.035-13.815.084-15.236.526-15.236.249 0 .387.503.524 1.917.155 1.594.496 2.378 1.262 2.903.439.301.57.507.57.9 0 1.263.407 2.521 1.011 3.125.581.581.836 1.227 1.077 2.727.146.911.716 2.063 1.079 2.178.517.165.661.489.86 1.935.197 1.436.562 2.215 1.118 2.392.433.137.687.802.692 1.806.004 1.001.405 1.981 1.106 2.706.367.378.565.838.789 1.833.165.731.334 1.458.377 1.617.043.159.411.646.818 1.083.5.538.739.941.739 1.25 0 2.866 3.87 4.345 4.893 1.869.189-.454.512-.861.855-1.073.574-.354 1.086-1.337 1.086-2.085 0-.873.423-1.956 1.002-2.565.627-.66.938-1.452 1.092-2.788.155-1.346.229-1.563.534-1.563.489-.001 1.205-1.336 1.205-2.248 0-1.19.303-2.042.768-2.158.575-.145 1.223-1.538 1.229-2.641.004-.663.415-1.557.972-2.114.59-.591.777-1.07 1.042-2.673.191-1.149.257-1.285.814-1.682.662-.471 1.008-1.468 1.008-2.899 0-.611.097-.822.625-1.362.846-.865.924-1.047 1.296-3.021.649-3.44.719-2.009.733 14.792.014 17.002-.019 16.444 1.034 17.049 1.038.596 4.003.251 4.913-.571.734-.664.733-.623.733-21.624V15.317l-.792-.783c-1.084-1.074-2.191-1.464-3.424-1.208-.655.136-1.12.138-1.712.005-1.026-.23-1.377-.139-2.078.54-.311.3-.903.771-1.316 1.046-.851.566-1.144 1.245-1.166 2.7-.011.803-.061.906-.67 1.396-.753.605-1.176 1.381-1.176 2.16 0 .922-.373 1.841-1.008 2.482-.62.627-.841 1.255-1.077 3.065-.064.49-.233.913-.431 1.084-1.013.87-1.13 1.061-1.231 2.001-.183 1.702-.407 2.316-.926 2.531-.577.239-.937.962-1.079 2.166-.121 1.033-.383 1.831-.601 1.831-.271 0-.778.629-.962 1.192-.292.897-.685 2.637-.685 3.036 0 .234-.187.478-.516.672-.724.428-1.142 1.44-1.147 2.775-.005 1.648-.579 1.827-1.163.364-.119-.3-.438-.731-.708-.959-.39-.328-.52-.609-.63-1.371-.241-1.658-.564-2.576-1.099-3.127-.61-.629-1.07-1.701-1.07-2.494 0-.958-.438-1.722-1.257-2.188-.177-.101-.371-.438-.431-.75-.06-.311-.199-1.054-.308-1.65-.194-1.067-.658-1.833-1.11-1.833-.229 0-.482-.777-.651-2-.155-1.124-.401-1.686-1.03-2.352-.464-.491-.627-.866-.882-2.032-.356-1.632-.694-2.383-1.132-2.523-.459-.145-.866-1.16-.866-2.156 0-1.125-.351-1.828-1.087-2.178-.367-.174-.579-.393-.579-.597 0-.443-.503-1.662-.685-1.662-.082 0-.149-.096-.149-.214 0-.56-1.03-.861-3.083-.9-1.1-.021-2.34-.079-2.755-.13-.657-.079-.824-.031-1.282.368m-344.415.101c-1.129.975-1.048-.726-1.045 22.025.004 22.702-.076 21.071 1.07 21.768 1.001.609 4.191.323 4.962-.445.661-.658.71-1.333.712-9.855.002-5.135.064-8.236.165-8.299.09-.055 2.433-.129 5.209-.165 5.072-.065 6.807-.206 6.926-.562.035-.105.158-.192.272-.192.114 0 .306-.184.426-.408.236-.439 1.283-.759 2.491-.759.734 0 1.427-.465 1.576-1.059.062-.245.309-.482.644-.615.897-.358 1.46-.824 1.466-1.212.006-.389.352-.943.596-.953.771-.031 1.316-1.223 1.484-3.244.061-.733.221-1.923.356-2.643.188-1.003.202-1.433.06-1.834-.101-.288-.256-1.311-.344-2.273-.232-2.546-.797-4-1.555-4-.128 0-.352-.297-.497-.66-.377-.942-.739-1.302-1.599-1.59-.416-.139-1.033-.514-1.37-.835-.338-.32-.688-.582-.778-.582-.09 0-.189-.072-.219-.161-.031-.088-1.181-.286-2.556-.44-1.375-.153-2.526-.345-2.557-.426-.261-.674-1.669-.813-8.961-.88-6.475-.06-6.521-.058-6.934.299m76.599.517c-.051.133-.045.321.015.417.137.222.755.229.755.008 0-.092.121-.167.27-.167.222 0 .233-.045.063-.25-.265-.319-.982-.324-1.103-.008m28.625-.019c-.274.331.528.748.879.457.135-.113.205-.311.155-.442-.116-.3-.789-.31-1.034-.015m169.395.282c.275.172.746.439 1.047.593.915.466.879-.374.877 20.477l-.002 19.579-.461.67c-.696 1.009-1.641 1.413-3.011 1.285-1.987-.185-2.026-.392-2.039-10.776-.01-7.434-.039-8.307-.296-8.833l-.285-.583-9.832-.049c-6.553-.033-10.113.01-10.676.13-1.426.302-1.412.202-1.403 10.121.009 9.079-.003 9.213-.905 9.804-1.154.756-3.764-.112-3.764-1.253 0-.149-.075-.345-.166-.436-.214-.214-.196 1.703-.178-19.672.008-10.279-.03-18.806-.085-18.95-.546-1.423 3.083-3.017 4.301-1.889.831.77.82.647.801 8.95l-.018 7.816.381.38.38.381 10.563.049c9.741.045 10.586.026 10.875-.234.297-.269.312-.666.312-8.002 0-9.724-.038-9.598 3-9.865.046-.004.309.134.584.307m31.291.31c.619.31 1.125.642 1.125.736 0 .095.107.291.237.436.18.201.202.44.09 1.013-.201 1.034-.2 23.407.001 24.801.088.614.253 2.038.365 3.165.199 1.994.22 2.065.761 2.584.306.293.717.796.912 1.117.721 1.182 2.391 2.611 3.424 2.932.528.163.998.343 1.044.399.962 1.185 5.55 1.431 6.954.374.514-.388.999-.559 2.453-.867.441-.093.799-.317 1.084-.677.596-.754 1.2-1.358 1.726-1.726.289-.203.451-.471.455-.75.008-.646.543-2.081 1.048-2.809.82-1.183.831-1.389.934-16.174.068-9.818.149-13.916.279-14 .101-.066.266-.276.367-.468.243-.462 2.169-.821 2.744-.512 1.798.966 2.262 1.555 2.102 2.67-.067.472-.133 6.183-.146 12.691-.025 11.818-.059 12.693-.566 14.417-.324 1.103-.761 3.545-.765 4.279-.001.292-.115.643-.253.78-.137.138-.25.318-.25.401 0 .082-.168.242-.375.355-.206.113-.496.481-.644.82-.148.338-.402.915-.565 1.281-.163.367-.486.817-.718 1-.232.184-.891.753-1.464 1.265-.73.654-1.319 1.019-1.972 1.224-.593.187-1.125.499-1.465.859-.9.954-1.144.987-7.297.973-4.583-.009-5.658-.055-6-.256-.229-.134-.844-.522-1.367-.862-.522-.341-1.051-.619-1.175-.619-.455 0-1.054-.411-1.541-1.057-.275-.364-.643-.745-.819-.845-.501-.286-.891-.704-1.182-1.268-.149-.286-.516-.666-.816-.843-.53-.312-.933-.92-.933-1.406 0-.502-.563-1.863-1.054-2.547-.785-1.095-.808-1.524-.89-16.919-.09-16.969-.202-16.031 1.944-16.411 1.091-.194.837-.244 2.208.444M54 14.671c.962.09 2.987.274 4.5.41 3.698.33 3.702.331 4.481 1.087.373.362.942.768 1.265.903.659.275 2.921 2.504 2.921 2.878 0 .301.818 1.718.993 1.718 1.104 0 1.043 7.515-.07 8.57-.201.191-.543.778-.759 1.305-.216.527-.454.958-.528.958-.075 0-.136.1-.136.222s-.188.322-.417.445c-.229.122-.417.295-.417.384 0 .238-.766.905-1.196 1.042-.406.129-1.304.955-1.304 1.199 0 .287-.752.52-2.011.625-.951.08-1.378.198-1.733.481l-.47.376.225 1.133c.187.939.348 1.271.939 1.928.406.451.869 1.216 1.072 1.771.237.644.604 1.215 1.08 1.676.396.384.773.909.838 1.167.188.754.838 1.94 1.299 2.374.236.221.428.51.428.642 0 .334.853 1.868 1.038 1.868.4 0 1.053 1.033 1.207 1.909.082.467.319.854.817 1.333 2.059 1.983 1.646 4.021-.809 3.993-2.829-.033-3.343-.28-4.188-2.008-.252-.514-.646-1.021-.919-1.182-.264-.156-.479-.38-.479-.497 0-.118-.074-.214-.164-.214-.09 0-.213-.207-.273-.459-.158-.658-.535-1.361-1.141-2.125-.291-.366-.633-1.004-.759-1.416-.15-.49-.499-1.011-1.004-1.5-.582-.564-.853-.999-1.086-1.75-.208-.667-.496-1.168-.865-1.506-.582-.534-1.042-1.281-1.042-1.696 0-.271-.575-1.154-1.009-1.548-.151-.138-.369-.55-.485-.917-.628-1.994-.787-2.073-4.379-2.18-2.376-.07-2.47-.06-2.834.303l-.376.377-.083 8.416c-.081 8.125-.096 8.44-.432 9.084-1.139 2.184-5.678.146-5.139-2.308.187-.85.223-35.599.038-36.626-.23-1.278.042-1.777 1.315-2.415l.968-.484 4.666.045c2.567.025 5.455.119 6.417.209m79.667.202c0 .07.074.127.164.127.204 0 .747.42 1.42 1.099.395.399.561.777.73 1.667.244 1.279.702 2.38 1.167 2.8.4.362.769 1.285.99 2.477.134.718.344 1.16.836 1.75.555.667.69.985.864 2.038.211 1.282.398 1.694 1.188 2.624.252.296.505.821.562 1.166.189 1.138.647 2.283 1.251 3.129.649.908.994 1.77.994 2.477 0 .5.589 1.773.821 1.773.284 0 .795 1.107.91 1.972.149 1.127.374 1.642 1.03 2.361.388.427.612.92.829 1.834.561 2.352 1.027 2.527 1.997.75.251-.459.626-1.063.835-1.343.208-.279.465-.842.571-1.25.498-1.913.789-2.63 1.348-3.324.564-.7.993-1.74.993-2.411 0-.37.434-1.286.801-1.691.514-.567.865-1.213.865-1.59 0-.797.55-2.28 1.057-2.849.502-.565 1.11-2.155 1.11-2.902 0-.323.601-1.349 1.059-1.806.113-.114.306-.536.427-.937.705-2.329.911-2.851 1.197-3.03.174-.108.317-.286.317-.394 0-.107.056-.221.125-.251.269-.12.708-1.352.708-1.986 0-.711.304-1.449.747-1.817.148-.123.535-.677.86-1.232.969-1.654.839-1.604 4.215-1.604h2.937l.454.7.454.7v19.464c0 20.636.001 20.597-.779 21.33-.83.78-3.558.449-4.34-.525-.241-.3-.725-1.85-.628-2.008.055-.088.146-28.558.094-29.27-.016-.225-.983-.596-1.202-.461-.288.178-.592 1.161-.692 2.237-.118 1.267-.415 2.035-1.088 2.808-.436.5-1.032 2.105-1.032 2.781 0 .376-.472 1.242-1.02 1.872-.261.3-.509.712-.55.917-.458 2.258-.646 2.773-1.242 3.413-.543.581-.648.834-.84 2.015-.12.743-.323 1.437-.45 1.543-.127.105-.231.265-.231.355 0 .091-.187.312-.417.492-.229.18-.416.46-.416.621 0 .162-.055.349-.123.416-.108.108-.357 1.055-.653 2.476-.053.252-.278.627-.5.833-.56.518-1.055 1.565-1.162 2.458-.128 1.067-.364 1.602-.981 2.218-.379.379-.573.762-.653 1.286-.242 1.594-.304 1.723-1.323 2.734-1.057 1.049-1.963 1.606-2.073 1.275-.033-.099-.166-.18-.296-.18-.13 0-.236-.062-.236-.138 0-.076-.411-.593-.914-1.148-.956-1.057-1.253-1.611-1.253-2.338 0-.691-.351-1.559-.996-2.459-.713-.997-1.004-1.625-1.004-2.169 0-.659-.649-2.105-1.236-2.755-.449-.496-.57-.795-.666-1.649-.153-1.349-.332-1.8-.997-2.511-.55-.588-.934-1.575-.934-2.404 0-.49-.69-1.844-1.171-2.298-.289-.273-.723-1.509-.936-2.667-.108-.588-.426-1.17-.935-1.71-.446-.473-.792-1.36-.792-2.03 0-.768-.383-1.633-.994-2.244-.278-.278-.538-.669-.576-.868-.735-3.763-1.012-4.35-1.696-3.595-.306.339-.318.866-.356 15.459-.042 16.391-.036 16.243-.691 17.028-.564.676-2.986.833-3.959.256-1.133-.671-1.065.675-1.071-21.26-.006-20.883-.032-20.171.743-20.682.761-.502 6.434-.453 6.434.055m72.802.079c1.191 1.435.958 3.685-.438 4.231-.214.083-4.648.15-9.952.15h-9.566l-.34.365c-.456.49-.527 11.624-.077 12.219.245.324.497.335 9.369.416l9.118.084.778.466.778.466.055 1.117c.087 1.738-1.468 2.92-3.353 2.549-1.356-.267-16.003-.236-16.343.035-.712.568-1.063 13.02-.395 14.039l.269.411 10.272.001c10.786.001 11.288.033 11.756.746.583.891.258 3.61-.511 4.273-.541.466-.723.472-13.331.484l-12.434.012-.641-.424c-1.238-.82-1.149.801-1.156-21.106-.006-22.027-.12-20.024 1.17-20.616.984-.452 1.049-.454 12.994-.418l11.592.035.386.465m36.976-.013c.489.247.888.549.888.672 0 .122.075.222.167.222.442 0 .185 2.465-.292 2.795-.826.573-1.065.596-7.346.693-5.957.092-6.233.11-6.464.427-.208.284-.241 2.785-.233 17.833.009 18.271.018 18.036-.684 19.093-.411.62-2.55.704-3.22.128-.974-.838-.94-.144-.926-19.228l.013-17.509-.358-.324c-.337-.305-.727-.33-6.549-.422-3.405-.054-6.341-.159-6.524-.234-.86-.348-1.084-.752-1.084-1.953 0-1.628.21-1.903 1.924-2.53.361-.132 4.736-.175 15.154-.149l14.646.036.888.45m53.691-.095c1.31.671 1.206-1.1 1.206 20.462 0 19.769-.007 20.027-.536 20.595-.168.181-.306.372-.306.426 0 .738-3.397 1.025-4.035.341-.772-.829-.786-1.221-.792-21.356-.007-20.314-.034-19.602.795-20.478.577-.61 2.468-.605 3.668.01m58.305-.304c1.781.051 2.008.187 2.683 1.613.237.502.638 1.114.891 1.361.474.464.985 1.702.985 2.388 0 .569.455 1.566 1.066 2.34.481.608.934 1.833.934 2.527 0 .41.535 1.457.868 1.699.399.29.965 1.56.965 2.165 0 .755.336 1.55 1.001 2.367.474.582.66 1.011.83 1.917.228 1.213.426 1.633 1.196 2.539.252.296.532.821.622 1.166.09.346.275 1.058.411 1.584.146.563.483 1.248.82 1.667.561.696.951 1.813.957 2.742.002.258.208.776.458 1.153 1.001 1.504 1.295 1.895 1.426 1.897.075.001.246.111.379.245.497.496 1.233-.41 1.235-1.519.001-1.063.313-1.859 1.007-2.566.362-.37.663-.838.669-1.04.036-1.245.557-2.68 1.241-3.418.205-.221.454-.675.553-1.009.099-.335.327-1.108.507-1.718.219-.742.519-1.313.902-1.719.604-.641.953-1.522.953-2.41 0-.658.204-1.055 1.026-1.993.468-.534.641-.881.641-1.286 0-.844.477-2.07 1.082-2.776.298-.348.588-.875.645-1.17.239-1.254.607-2.292 1.05-2.955.26-.39.592-.887.737-1.103.146-.217.401-.993.568-1.725.326-1.426.53-1.74 1.528-2.347.352-.213.677-.435.723-.493.193-.241.687-.298 1.555-.18.508.069 1.397.069 1.976 0 2.052-.243 3.696.958 3.444 2.517-.067.412-.122 9.134-.123 19.382-.002 19.818.009 19.535-.798 19.967-.213.114-.387.267-.387.339 0 .268-1.375.498-2.306.385-2.114-.256-2.027.509-2.033-17.838-.006-16.677.019-16.233-.879-15.752-.318.17-.427.438-.603 1.487-.23 1.37-.497 2.033-1.088 2.697-.442.495-.632.998-1.009 2.666-.199.882-.45 1.468-.852 1.989-.551.717-1.064 2.042-1.064 2.753 0 .337-.724 1.564-1.053 1.783-.225.15-.608 1.301-.611 1.837-.003.6-.554 1.845-1.15 2.602-.5.634-.942 1.796-1.108 2.915-.052.346-.3.871-.552 1.167-.755.888-.969 1.328-1.088 2.236-.147 1.121-.475 1.89-1.101 2.574-.277.304-.503.652-.503.775 0 .207-.256 1.136-.7 2.536-.102.321-.465.921-.807 1.333-.343.413-.752 1.013-.909 1.334-.598 1.215-1.1 1.284-2.616.355-.607-.371-1.302-1.484-1.302-2.084 0-.322-.748-1.758-1.054-2.025-.358-.311-.571-.834-.941-2.312-.284-1.133-.491-1.595-.912-2.043-.596-.631-.926-1.507-.926-2.456 0-.609-.522-1.624-1.168-2.27-.178-.178-.369-.532-.425-.786-.364-1.662-.838-2.928-1.277-3.417-.572-.637-.962-1.488-.966-2.108-.004-.722-.478-1.862-1.053-2.534-.417-.487-.613-.96-.854-2.061-.244-1.111-.432-1.562-.848-2.029-.534-.601-.878-1.565-1.212-3.397-.266-1.459-.458-1.806-1.151-2.091-.346-.142-.779-.494-.963-.781-.183-.287-.408-.527-.5-.533-.294-.021-.296 2.97-.002 3.675.228.545.259 2.164.254 13.061-.003 7.477.061 12.785.159 13.304.536 2.828-3.794 5.004-5.035 2.529-.273-.543-.292-1.87-.292-20.514V15.717l.471-.651.471-.651 1.404.041c.772.023 2.09.061 2.928.084m-334.774.199c1.962.332 4.127.595 4.891.595.65-.001 1.484.451 1.91 1.034.12.164.291.299.382.299.761 0 2.332 1.057 2.845 1.915.302.505.607.918.677.918.071 0 .128.094.128.21 0 .115.138.296.308.402 1.616 1.01 1.527 10.444-.115 12.154-.344.358-.803.967-1.02 1.353-.246.438-.619.808-.992.983-.329.154-.783.501-1.009.77-.504.602-1.171.961-1.789.964-.582.003-2.109.487-2.883.914-1.296.715-1.89.787-6.875.828l-4.791.04-.523.433-.524.434.031 7.132c.017 3.923.074 7.413.127 7.755.295 1.9-1.037 3.202-3.252 3.175-2.739-.032-2.526 1.785-2.526-21.575v-19.52l.458-.726.458-.725 6.334-.001c4.74-.001 6.689.06 7.75.239m78.318 2.094c.012.875-.129 1.5-.338 1.5-.081 0-.141-.768-.134-1.708.013-1.818.447-1.627.472.208m-1.963-.974c.233.268.311.623.311 1.406 0 1.593.318 2.227 1.119 2.232.508.004.715.475.712 1.617-.003 1.348-.069 1.412-1.412 1.353-1.44-.064-1.601-.261-1.213-1.477.234-.73.242-.917.054-1.218-.123-.195-.31-.768-.417-1.272-.107-.504-.296-1.242-.42-1.64-.353-1.131.541-1.837 1.266-1.001m-15.781.322c-.062.1-.028.265.074.367.136.136.185.088.185-.181 0-.403-.087-.465-.259-.186m26.667 0c-.195.314.21.567.509.318.211-.175.221-.248.049-.357-.292-.185-.425-.176-.558.039m-20.941.186c.155.155.244.155.4 0 .155-.156.111-.2-.2-.2s-.356.044-.2.2m17.958 1.406l.439.44-.486.486-.486.486-.563-.301c-.91-.485-1.026-.64-.697-.925.837-.723 1.216-.763 1.793-.186m-9.764 2.334c.004 1.48-.044 1.876-.238 1.951-.271.104-.352-.239-.486-2.056-.065-.888-.153-1.145-.493-1.437l-.413-.356.609-.326c.87-.465 1.013-.152 1.021 2.224m-15.883-2.163c-.21.211-.111.389.217.389.223 0 .297-.08.232-.25-.103-.267-.269-.319-.449-.139m10.275 1.186c.123 1.196-.182 1.678-.804 1.271-.373-.245-.376-.265-.126-1.117.14-.477.279-.96.309-1.073.143-.531.53.043.621.919m21.985-1.018c-.601.242-.943 2.146-.491 2.736.361.472 2.503 1.029 3.334.868 1.34-.26 1.346-3.049.007-3.049-.648 0-1.873-.304-2.13-.528-.172-.151-.391-.16-.72-.027M82.25 18.5c-.183.079-.653.149-1.044.155-.954.016-1.408.796-1.051 1.806.389 1.103.611 1.241 1.926 1.198 1.623-.053 1.586-.068 1.586.599 0 1.555 2.449 1.94 3.007.473.456-1.2.175-1.808-1.013-2.191-.872-.28-.906-.315-1.048-1.04-.223-1.145-1.131-1.529-2.363-1m24.773.669c-.306.306-.523.713-.554 1.042l-.052.539h-1.276c-1.983 0-2.739 1.268-1.711 2.869.13.203.237.518.237.699 0 .538.583.834 1.3.66 1.57-.38 1.49-.389 1.612.168.235 1.069.056 1.208-1.483 1.153-1.693-.06-1.929.085-1.929 1.19 0 1.067.206 1.262 1.774 1.678 1.675.444 2.192.278 2.556-.825.332-1.005.512-1.099 1.723-.893 1.281.217 1.499.056 2.005-1.486.052-.157.304-.33.56-.383 1.088-.227 1.529-.586 1.641-1.337.217-1.444-.506-1.991-2.356-1.783l-.721.082-.049.854-.05.854h-1.528c-1.797 0-1.806-.005-1.538-.942.299-1.048.578-1.308 1.405-1.308.97 0 1.129-.25 1.051-1.644-.103-1.808-1.405-2.398-2.617-1.187m1.735.407c.8.8-.213 2.058-1.109 1.376-.521-.396-.54-.914-.052-1.367.559-.518.651-.519 1.161-.009m-97.008.105l-.5.36.02 5.844.02 5.845.49.438.49.438 4.823-.051c6.849-.073 6.77-.062 7.876-1.114 1.785-1.697 1.864-1.795 1.864-2.3 0-.27.102-.693.227-.941.532-1.054.471-2.447-.217-4.948-.396-1.44-.632-1.756-1.618-2.168-.353-.148-.829-.434-1.058-.637-1.166-1.031-1.134-1.026-6.75-1.078-5.065-.046-5.177-.04-5.667.312m34.759-.023c-.513.512-.469 12.076.048 12.647.3.331.436.337 5.5.259 6.367-.099 6.973-.184 7.988-1.121.413-.381 1.123-1.006 1.578-1.389C62.869 29.005 63 28.608 63 25.881v-2.318l-.52-.531c-.286-.293-.586-.532-.666-.532-.081 0-.147-.1-.147-.222 0-.31-.802-.991-1.5-1.274-.321-.131-.677-.366-.792-.524-.74-1.017-.997-1.059-6.985-1.12-5.451-.056-5.531-.052-5.881.298m30.702.076c-.313.36-.314.392-.034.738.365.45.519.454.791.018.458-.734-.202-1.393-.757-.756m6.455.015c.301.791-.15 1.084-1.668 1.084-1.453 0-1.314-1.156.162-1.348 1.316-.172 1.342-.168 1.506.264m30.667-.082c.703.702-.053 1.441-1.083 1.059-.367-.137-.798-.289-.958-.34-.805-.253.025-.795 1.583-1.034.069-.01.275.131.458.315m3.105-.081c-.366.366-.341.623.084.889.629.393 1.129-.275.587-.785-.37-.346-.421-.354-.671-.104m-16.556 1.243c-.114 1.257-.196 1.501-.467 1.397-.303-.116-.354-2.054-.061-2.347.341-.341.603.129.528.95m-78.873-.894c.387.064.648.223.75.457.173.393 1.568 1.161 2.518 1.386 1.426.337 1.789 7.565.414 8.251-.749.374-1.358.964-1.358 1.316 0 .489-.428.534-6.166.646-4.756.093-5.627.073-5.875-.133-.378-.314-.458-11.763-.084-11.914.296-.12 9.086-.127 9.801-.009m34.771.005c.664.08.998.23 1.444.651.319.301 1.023.709 1.565.906.84.307 1.016.444 1.193.934.144.397.41.677.863.908l.655.334v4.596l-.663.491c-.364.269-.664.575-.666.679-.005.209-.917.939-1.394 1.115-.168.063-.39.335-.492.607-.282.746-1.067.839-7.109.839-4.686 0-5.319-.031-5.408-.264-.139-.36-.129-11.653.01-11.792.14-.14 8.84-.144 10.002-.004m29.082 1.502c.351.318.382.692.09 1.075-.706.927-1.829.203-1.514-.975.124-.462.959-.52 1.424-.1m5.718.387c.055.088-.059.471-.253.851-.384.753-.657.64-.912-.378-.202-.804.728-1.182 1.165-.473m13.753.259c0 .366-.846.942-1.089.741-.33-.275-.402-.813-.143-1.072.285-.286 1.232-.032 1.232.331m7.228 1.257c.749.59.082 1.644-.887 1.401-.513-.129-.457-.072-.59-.602-.22-.877.727-1.389 1.477-.799m-13.626.392c.211.55-.22.905-.911.75-1.576-.354-1.892-.707-.774-.866 1.08-.154 1.595-.118 1.685.116m-19.678.085c-.123.199.19.397.412.26.187-.116.064-.415-.169-.415-.081 0-.19.069-.243.155m8.481 1.498c.676.747-.22 1.68-1.141 1.187-.596-.319-.669-.675-.228-1.11.473-.467.989-.496 1.369-.077m21.647.094c.906.379.779.689-.444 1.083-1.131.365-1.935-.351-1.234-1.099.402-.43.616-.428 1.678.016m-26.32.116c.806.202.605.457-.68.863-1.11.351-1.121.35-1.384-.141-.495-.925.234-1.18 2.064-.722m38.403.164c-.043.123-.03.41.029.639l.108.417.089-.448c.098-.491-.09-.994-.226-.608m-47.84 1.045c-.061.544-.05 1.096.023 1.227.233.416.323-.136.2-1.223l-.113-.993-.11.989m39.917-.449c-.462.082-1.045.799-1.045 1.288 0 .631-.69.865-1.648.558l-.807-.258-.299.507c-.479.811-.422 1.859.129 2.37.252.234.46.478.461.543.004.196.893 1.103 1.315 1.343.55.312 1.139-.15 1.457-1.141.545-1.701.699-1.924 1.476-2.132 1.411-.377 2.508-1.827 1.628-2.151-.162-.06-.52-.273-.795-.474-.528-.385-1.254-.561-1.872-.453m1.058.963c.621.474.599.701-.117 1.231-.977.722-1.894-.364-1.034-1.224.521-.521.477-.52 1.151-.007m-23.303.114c.535.535-.083.966-1.384.966-1.179 0-1.657-.456-.988-.945.377-.276 2.102-.291 2.372-.021m15.621.147c.19.597-.492 1.165-1.145.955-.881-.283-1.609-.643-1.609-.796 0-.543 2.585-.691 2.754-.159M81 28.166c-.138.089-.613.163-1.058.165-1.432.004-1.818.375-1.738 1.669.098 1.59 1.151 3.513 1.597 2.917.069-.092.461-.484.873-.872l.749-.705.747.664c.814.725 1.363.982 1.462.685.034-.104.132-.189.217-.189.408 0 2.161-1.396 2.268-1.807.334-1.275-.261-2.822-1.014-2.636-.194.048-.679.169-1.078.269-.677.171-1.814.072-2.525-.22-.138-.056-.363-.029-.5.06m31.564 1.26c.135.352-.324 1.407-.613 1.407-.477 0-.917-1.153-.544-1.428.427-.315 1.032-.304 1.157.021m-32.686.174c.055.055.016.284-.087.509l-.186.409-.205-.382c-.271-.508.095-.919.478-.536m14.89.734c-.728.259-.842.368-1.059 1.02-.134.401-.348.848-.476.992-.128.145-.233.418-.233.606 0 .358-.487.538-2.167.803-.412.065-.965.228-1.229.363-.508.261-1.867-.262-2.396-.922-.187-.233-.208-.231-.208.022 0 .155-.062.282-.138.282-.076 0-.487.231-.914.514l-.775.513-.461-.322c-.819-.573-2.712-.595-2.712-.032 0 .088-.113.16-.25.16-.138 0-.25.076-.25.169 0 .093-.3-.029-.668-.272-.879-.582-1.777-.588-2.64-.017l-.642.426-.411-.381c-.938-.87-2.086-.913-3.024-.113-.238.204-.361.216-.583.061-1.357-.944-2.048-.953-2.701-.036-.76 1.067-.178 2.997.903 2.997.459 0 1.766-.511 1.766-.69 0-.215.355-.173.654.076.78.653 2.004.616 3.001-.09.387-.274.43-.271.988.074.775.479 1.948.482 2.699.007l.557-.353.484.344c.649.462 2.031.487 2.84.051.543-.292.619-.297.894-.057.843.739 2.419.745 3.152.011.189-.189.313-.185.77.022.668.302 2.111.605 2.886.605.476 0 .575.061.575.355 0 .195.169.627.375.958.206.332.496.828.644 1.103.759 1.404 6.995 1.631 7.427.27.167-.524.632-1.353.759-1.353.07 0 .128-.113.128-.25 0-.138.059-.25.13-.25.071 0 .375-.225.676-.499.566-.517.664-.552 2.194-.782.718-.108 1.116-.073 1.834.164.967.319 1.716.22 2.612-.344.31-.195.435-.19.867.033 1.503.778 3.187.091 3.187-1.301 0-1.353-1.629-1.932-3.155-1.119l-.571.304-.947-.5-.948-.5-.981.315c-1.387.446-3.092.199-3.973-.575-.332-.291-.675-.529-.764-.529-.088 0-.161-.113-.161-.25 0-.138-.072-.25-.16-.25-.088 0-.238-.282-.333-.625-.25-.903-.328-.977-1.329-1.274-1.259-.373-4.616-.334-5.743.066m20.619.031c-.363.175-.427.302-.958 1.909-.676 2.047.123 3.081 1.98 2.561 1.266-.354 1.175-3.316-.135-4.373-.411-.331-.405-.33-.887-.097m-15.165.803c.351.21.708.539.793.731.086.193.291.576.455.851.615 1.026.911 2.595.621 3.289-.142.339-.258.771-.258.959 0 2.516-5.249 4.234-6.553 2.145-.107-.17-.259-.31-.34-.31-1.113 0-1.865-3.467-1.192-5.493.787-2.369 4.214-3.518 6.474-2.172m16.142 1.411c.426 1.191-.188 2.07-.99 1.42-.462-.373-.465-.583-.029-1.571.417-.942.64-.909 1.019.151m6.876.483c-.054.217-.298.499-.541.625-.244.126-.609.417-.813.646l-.369.417-.27-.377c-.888-1.244-2.734-.916-3.255.578-.403 1.156 1.204 2.694 2.179 2.085.179-.112.408-.203.511-.203.103 0 .327-.179.499-.397l.313-.398.598.565c.329.31.702.564.828.564.127 0 .296.117.376.261.125.222.238.18.761-.283 1.088-.963 1.14-2.414.127-3.567-.284-.324-.517-.662-.517-.75 0-.329-.331-.147-.427.234m-51.043 1.48c1 .581 1.079.806.463 1.32-.844.705-1.909.122-1.423-.779.278-.515.442-.75.525-.75.042 0 .237.094.435.209m16.013.581c.529.584-.778 1.388-1.504.923-.904-.578-.918-.644-.247-1.182.677-.543 1.079-.484 1.751.259m32.184-.265l.572.525-.52.475c-.641.585-.881.594-1.385.05-.491-.53-.491-.539.054-1.107.558-.583.582-.582 1.279.057m3.698-.008c.624 1.206-.391 1.991-1.39 1.076l-.601-.551.57-.521c.719-.657 1.083-.658 1.421-.004m-47.812.025c.669.455.674.506.098.959-.32.252-.594.331-.92.266-.436-.087-1.268-.699-1.113-.817 1.238-.94 1.174-.926 1.935-.408m4.098.142c.845.886-1 1.528-1.874.653-.285-.285-.283-.309.057-.608.709-.623 1.253-.636 1.817-.045m3.781-.081c.581.489.513.704-.361 1.14-.386.192-.583.207-.858.064-.378-.196-1.014-.8-.915-.87.032-.023.275-.205.539-.406.626-.474.964-.459 1.595.072m28.402-.091c.549.433.556.737.024 1.086-.476.312-1.092.219-1.696-.256l-.387-.305.457-.31c.465-.315.875-.527 1.06-.548.057-.007.3.143.542.333m-21.061.072c.114.137.311.25.437.25.357 0 .271.267-.181.564-.537.351-.965.34-1.595-.043l-.513-.312.634-.344c.775-.419.952-.436 1.218-.115m17.167-.11c0 .077.205.233.455.347l.455.207-.627.379c-.657.397-1.317.399-1.783.005-.138-.116-.4-.241-.584-.279-.26-.053-.169-.145.417-.42.769-.36 1.667-.489 1.667-.239m-2.75.537c.297.12.287.136-.1.145-.239.006-.674.095-.967.197-.572.199-2.17-.105-1.901-.363.331-.316 2.167-.304 2.968.021m8.75.693c-.604.32-.644 1.312-.101 2.482.23.494.44 1.123.467 1.398.109 1.084 1.151.669 1.835-.731.369-.756.549-2.823.27-3.103-.232-.233-2.053-.267-2.471-.046m1.75.797c.27.298.279.405.086.991-.286.866-.647.992-1.126.394-.433-.542-.511-1.386-.127-1.386.138 0 .25-.075.25-.166 0-.29.603-.18.917.167m-37.256 1.225c-.645.328-.994 1.22-.994 2.543 0 1.37.078 1.474 1.23 1.64 1.179.171 2.429.925 1.533.925-.593 0-1.165 2.297-.699 2.812.789.871 4.627.536 4.881-.426l.123-.47.092.496c.119.646.672.915 1.885.919.862.002.979.044 1.115.402.084.22.289.501.457.625.292.216.716.991.716 1.309 0 .084-.319.244-.708.356-1.301.374-1.579 1.117-1.045 2.788.136.424.285.97.332 1.212.126.653 1.921.772 1.921.127 0-.083.085-.15.19-.15.404 0 .57-.524.477-1.5-.105-1.091.006-1.333.75-1.637.886-.361 1.094-.971.838-2.448-.342-1.967-.573-2.1-2.864-1.652-.616.121-.827-.251-.635-1.123l.114-.519 1.168.098c2.11.177 2.599-.238 2.194-1.865-.144-.576-.191-.607-1.482-.954-.733-.198-1.465-.414-1.625-.481-.175-.073-.292-.048-.292.063 0 .101-.104.184-.231.184-.206 0-.935 1.277-.935 1.637 0 .246-.726.521-1.5.568-.689.042-.755.084-.805.522-.053.462-.062.467-.291.14-.144-.206-.512-.379-.945-.445-.995-.152-2.459-.608-2.459-.766 0-.626 1.707-1.017 2.54-.582.444.232.83.318 1.247.279.608-.057 1.009-2.885.499-3.523-.712-.891-2.75-1.307-3.797-.776-.741.377-1.169.348-1.501-.098-.208-.28-1.12-.421-1.494-.23m31.91.275c-1.332.854-1.883 2.698-1.325 4.432.098.304.014.378-.644.562-.845.237-1.233.156-1.365-.283-.523-1.753-1.091-2.073-2.72-1.533-1.881.623-1.85.597-1.85 1.579 0 1.176.213 1.326 1.883 1.326 1.223 0 1.346.031 1.501.376.319.714-.078 1.204-.832 1.029-1.62-.376-2.063-.199-2.368.941-.626 2.342-.155 3.171 1.774 3.124 1.185-.029 1.21-.021 1.3.417.268 1.295 1.247 2.074 2.269 1.803.751-.2.849-.373.974-1.714.067-.721.151-1.415.186-1.544.044-.164-.242-.314-.953-.5-1.181-.309-1.568-.634-1.568-1.316v-.49l1.375-.084c1.661-.1 1.625-.118 1.625.795 0 .955.339 1.151 1.787 1.035 1.309-.105 1.291-.086 1.291-1.317 0-1.152-.275-1.499-1.435-1.812-.363-.098-.7-.305-.75-.46-.168-.529-.461-1.116-.704-1.409-.299-.362-.188-.48.692-.74.794-.234 1.286.033 1.286.699 0 1.07 1.676 1.579 2.741.833.261-.183.67-.452.909-.597.238-.145.433-.34.433-.433 0-.427-2.097-2.386-2.554-2.386-.169 0-.628-.822-.753-1.348-.286-1.208-1.212-1.621-2.205-.985m1.243 1.573c.317 1.262.268 1.455-.356 1.395-.435-.042-.531-.117-.488-.385.152-.945.228-1.353.287-1.542.133-.421.375-.189.557.532m-32.694.882c-.039.254-.071.086-.072-.372-.002-.459.03-.666.069-.461.04.205.041.58.003.833M114.167 42c0 .092.099.167.222.167.63 0 .708.858.122 1.347l-.567.474-.405-.436c-.591-.638-.33-1.707.419-1.716.115-.002.209.072.209.164m-7.491.542c.67.803.184 1.175-1.329 1.016-1.601-.167-1.682-.499-.264-1.082.925-.381 1.231-.368 1.593.066m-15.399.15l.382.359-.366.318c-.219.19-.503.281-.705.226-.186-.05-.649-.091-1.029-.093-.762-.002-1.013-.298-.719-.847.259-.485 1.909-.459 2.437.037m-17.648.166c-.048.126-.044.64.008 1.144l.097.915.119-.914c.118-.897-.03-1.651-.224-1.145m3.82.098c-.041.07-.021.273.044.452.112.308.122.306.213-.042.093-.353-.106-.671-.257-.41M121.465 44c-.054.504-.034.985.046 1.07.242.255.325-.263.185-1.153l-.131-.834-.1.917m-38.672.588c1.072.334 1.013.475-.305.734-1.327.261-1.836-.046-1.374-.829.203-.343.341-.426.538-.32.146.078.659.265 1.141.415m4.796-.319c.629.412.488.974-.367 1.457-.279.158-1.227-.686-1.111-.989.075-.194.775-.696 1.02-.73.026-.004.232.114.458.262m9.874.02c-.936.074-1.559.863-2.006 2.539-.036.135-.434.435-.886.667-1.021.524-1.232.958-1.082 2.223.132 1.118-.268 1.782-1.072 1.782-.611 0-1.306.729-1.154 1.211.211.673 1.869 1.763 3.334 2.192.856.251 1.882-2.605 1.897-5.283.007-1.104.025-1.119 1.431-1.169l.982-.034.198 1.083c.226 1.235.147 1.416-.687 1.572-1.113.209-1.473 1.139-1.021 2.641.273.907-.217 1.551-1.257 1.65-.791.076-.868.993-.195 2.304.652 1.266.712 1.31 1.899 1.366 1.153.055.989.177 1.696-1.26.246-.5.47-1.912.559-3.523.132-2.385.347-2.771 1.018-1.83.6.84.813 1.019 1.555 1.297 1.965.736 3.075.315 3.054-1.159-.02-1.38-.847-1.813-2.478-1.3-1.291.406-1.435.251-1.4-1.503.031-1.574-.132-1.944-.998-2.256-.697-.252-1.004-.595-1.011-1.131-.011-.754-.962-2.237-1.393-2.171-.108.016-.55.058-.983.092m11.47.042c.1.001.345.143.543.315l.361.313-.432.283c-.749.491-1.444.498-1.784.018-.373-.526.131-1.199.769-1.028.198.053.442.098.543.099m3.77 2.078c.362.432.361.466-.014.899-.728.839-2.168-.14-1.481-1.007.423-.533.993-.492 1.495.108m-13.807.13c.331.526-.186.824-1.126.648-1.187-.222-1.287-.445-.33-.74.977-.301 1.219-.285 1.456.092m-19.655.142c-.062.1-.035.258.059.352.21.211.533.033.533-.293 0-.28-.429-.323-.592-.059m-3.741.402c0 .138.075.25.167.25.091 0 .166-.112.166-.25 0-.137-.075-.25-.166-.25-.092 0-.167.113-.167.25m9.333-.13c-.512.184-.998.785-1.102 1.365-.169.94-.261.987-1.437.741-1.256-.263-1.706-.04-2.076 1.029-.493 1.424-.185 1.724 2.127 2.074 1.726.261 2.087.134 2.252-.789.145-.809.506-1.206 1.095-1.206.533 0 1.085-.467 1.229-1.04.262-1.044-1.147-2.512-2.088-2.174m6.555 1.332c.07.372.021.615-.161.798-.59.59-.987-.663-.529-1.669l.198-.435.195.386c.108.212.241.626.297.92m-5.493-.114c.472.561.436.85-.153 1.236-1.093.716-1.886-.255-1.063-1.301.446-.567.695-.554 1.216.065m18.933.454c.004.262-.092.375-.318.375-.452 0-.53-.203-.306-.797.22-.583.614-.317.624.422m-4.066-.22c.296.295.299.822.011 1.649l-.222.638-.182-.471c-.544-1.411-.305-2.515.393-1.816m-5.611.16c.145.174.145.41.001.958-.225.855-.241 1.337-.07 2.176.213 1.047.003 1.519-.631 1.415-1.639-.268-2.177-.606-1.241-.779 1.23-.227 1.688-1.297 1.253-2.925-.172-.644-.166-.785.042-.916.331-.21.422-.2.646.071m18.266.443c-.275.077-.849.224-1.275.326-1.376.33-1.855 1.921-.809 2.688.488.357 3.382.168 3.799-.249.703-.703-.378-3.369-1.185-2.923-.016.01-.255.081-.53.158m-4.649.989l.439.664-.395.417c-1.004 1.058-2.071-.281-1.091-1.37.454-.504.537-.481 1.047.289m-31.501.195c-.433.619.149 1.361.64.818.269-.296.269-.341.004-.746-.341-.52-.33-.519-.644-.072m37.095-.083c.391.354.384.535-.039.985-.415.442-2.323.092-2.323-.426 0-.558 1.873-1.001 2.362-.559m-30.622.154c.265.266.232.432-.186.921-.297.348-2.169.058-2.443-.378-.46-.73 1.945-1.226 2.629-.543m5.927.569c0 .354-.109.718-.25.835-.138.114-.253.329-.257.478-.003.15-.207-.13-.453-.622l-.447-.894.369-.299c.583-.472 1.038-.252 1.038.502m27.774-.483c-.247.353-.245.409.019.725.158.188.296.364.307.39.012.025.151-.152.311-.396.429-.655-.191-1.355-.637-.719m-12.408 1.886c.272.373.266.403-.188.837l-.469.45-.771-.363c-.857-.402-.952-.633-.402-.976.896-.56 1.393-.546 1.83.052m-5.912.087c.156.25.141.458-.071.997-.335.854-.484.856-.737.012-.332-1.109.273-1.865.808-1.009m-20.026.159c-.125.203.349.573.564.44.296-.182.192-.588-.149-.588-.178 0-.365.067-.415.148m36.488.02c-.131.212.335.402.593.243.141-.087.132-.158-.033-.262-.298-.189-.435-.184-.56.019M81.17 54.247c-.169.202-.176.314-.03.46.282.282.612-.085.406-.451-.141-.254-.173-.255-.376-.009m26.755-.024c-.327.239-.231.61.158.61.321 0 .462-.282.293-.583-.12-.216-.187-.22-.451-.027m5.908.277c0 .311.045.356.2.2.156-.156.156-.244 0-.4-.155-.156-.2-.111-.2.2m-15.15 2.023c-.055.058-.55.066-1.1.017-1.002-.089-.921-.335.119-.362.248-.006.548-.116.666-.244.182-.198.231-.178.315.125.055.197.055.405 0 .464m12.753-.308c-.274.2-.264.232.14.448.383.205.468.198.721-.055.478-.479-.274-.822-.861-.393m-28.509.101c-.136.22.371.366.852.245.311-.078.362-.142.195-.247-.296-.188-.93-.186-1.047.002m3.909 1.849c-.391.242.22.489.645.262l.397-.213-.428-.082c-.236-.045-.512-.03-.614.033m21.073.004c-.31.109-.309.117.014.29.243.13.438.121.727-.034l.395-.211-.409-.078c-.225-.043-.552-.028-.727.033m-16.242 1.998c-.578.09-.387.117.833.122 1.044.003 1.413-.038 1.083-.122-.601-.153-.932-.153-1.916 0m10.166-.002c-.297.096-.062.14.82.152.68.009 1.205-.012 1.166-.046-.169-.151-1.609-.228-1.986-.106"/><path fill="#7c7c79" d="M295.347 4.227c.038.032.295.11.57.171.365.082.432.066.25-.057-.225-.152-.987-.259-.82-.114m-1.389.399c-.252.157-.458.347-.458.424 0 .156-.832 1.307-1.067 1.476-.554.398-.306 1.916.494 3.029.439.61.83 1.077.869 1.038.039-.039-.236-.501-.612-1.026-1.005-1.403-.91-2.828.268-4.037.118-.121.215-.288.215-.371 0-.083.281-.3.625-.481.343-.181.512-.331.375-.333-.138-.001-.457.125-.709.281m2.818.541c.245.275.473.5.507.5.033 0-.106-.225-.309-.5-.204-.275-.431-.5-.507-.5-.075 0 .064.225.309.5m.974.833c.166.183.33.333.365.333.035 0-.017-.15-.115-.333-.098-.183-.262-.333-.365-.333-.103 0-.051.15.115.333m.5 1.734c0 .679.056 1.199.125 1.157.069-.043.125-.598.125-1.234s-.056-1.157-.125-1.157-.125.555-.125 1.234m-.71 1.817c-.299.201-.661.553-.806.782l-.262.417.392-.417c.216-.229.597-.523.847-.653.251-.13.456-.299.456-.375 0-.178.01-.182-.627.246m-3.123 1.372c.275.126.612.229.75.23.137 0-.003-.109-.311-.243-.709-.308-1.114-.296-.439.013m-15.074 3.433c-1.99.33-2.01.424-2.01 9.707 0 7.336-.015 7.733-.312 8.002-.289.26-1.134.279-10.875.234l-10.563-.049-.38-.381-.381-.38.018-7.816c.019-8.303.03-8.18-.801-8.95-1.218-1.128-4.847.466-4.301 1.889.055.144.093 8.671.085 18.95-.018 21.375-.036 19.458.178 19.672.091.091.166.287.166.436 0 1.141 2.61 2.009 3.764 1.253.902-.591.914-.725.905-9.804-.009-9.919-.023-9.819 1.403-10.121.563-.12 4.123-.163 10.676-.13l9.832.049.285.583c.257.526.286 1.399.296 8.833.013 10.384.052 10.591 2.039 10.776 1.37.128 2.315-.276 3.011-1.285l.461-.67.002-19.579c.002-20.851.038-20.011-.877-20.477-.301-.154-.772-.421-1.047-.593-.275-.173-.538-.311-.584-.307-.046.004-.491.075-.99.158m30.657.015c-2.146.38-2.034-.558-1.944 16.411.082 15.395.105 15.824.89 16.919.491.684 1.054 2.045 1.054 2.547 0 .486.403 1.094.933 1.406.3.177.667.557.816.843.291.564.681.982 1.182 1.268.176.1.544.481.819.845.487.646 1.086 1.057 1.541 1.057.124 0 .653.278 1.175.619.523.34 1.138.728 1.367.862.342.201 1.417.247 6 .256 6.153.014 6.397-.019 7.297-.973.34-.36.872-.672 1.465-.859.653-.205 1.242-.57 1.972-1.224.573-.512 1.232-1.081 1.464-1.265.232-.183.555-.633.718-1 .163-.366.417-.943.565-1.281.148-.339.438-.707.644-.82.207-.113.375-.273.375-.355 0-.083.113-.263.25-.401.138-.137.252-.488.253-.78.004-.734.441-3.176.765-4.279.507-1.724.541-2.599.566-14.417.013-6.508.079-12.219.146-12.691.16-1.115-.304-1.704-2.102-2.67-.575-.309-2.501.05-2.744.512-.101.192-.266.402-.367.468-.13.084-.211 4.182-.279 14-.103 14.785-.114 14.991-.934 16.174-.505.728-1.04 2.163-1.048 2.809-.004.279-.166.547-.455.75-.526.368-1.13.972-1.726 1.726-.285.36-.643.584-1.084.677-1.454.308-1.939.479-2.453.867-1.404 1.057-5.992.811-6.954-.374-.046-.056-.516-.236-1.044-.399-1.033-.321-2.703-1.75-3.424-2.932-.195-.321-.606-.824-.912-1.117-.541-.519-.562-.59-.761-2.584-.112-1.127-.277-2.551-.365-3.165-.201-1.394-.202-23.767-.001-24.801.112-.573.09-.812-.09-1.013-.13-.145-.237-.341-.237-.436 0-.133-1.913-1.217-2.333-1.322-.046-.011-.496.052-1 .142m-268.051.53c-1.273.638-1.545 1.137-1.315 2.415.185 1.027.149 35.776-.038 36.626-.539 2.454 4 4.492 5.139 2.308.336-.644.351-.959.432-9.084l.083-8.416.376-.377c.364-.363.458-.373 2.834-.303 3.592.107 3.751.186 4.379 2.18.116.367.334.779.485.917.434.394 1.009 1.277 1.009 1.548 0 .415.46 1.162 1.042 1.696.369.338.657.839.865 1.506.233.751.504 1.186 1.086 1.75.505.489.854 1.01 1.004 1.5.126.412.468 1.05.759 1.416.606.764.983 1.467 1.141 2.125.06.252.183.459.273.459.09 0 .164.096.164.214 0 .117.215.341.479.497.273.161.667.668.919 1.182.845 1.728 1.359 1.975 4.188 2.008 2.455.028 2.868-2.01.809-3.993-.498-.479-.735-.866-.817-1.333-.154-.876-.807-1.909-1.207-1.909-.185 0-1.038-1.534-1.038-1.868 0-.132-.192-.421-.428-.642-.461-.434-1.111-1.62-1.299-2.374-.065-.258-.442-.783-.838-1.167-.476-.461-.843-1.032-1.08-1.676-.203-.555-.666-1.32-1.072-1.771-.591-.657-.752-.989-.939-1.928l-.225-1.133.47-.376c.355-.283.782-.401 1.733-.481 1.259-.105 2.011-.338 2.011-.625 0-.244.898-1.07 1.304-1.199.43-.137 1.196-.804 1.196-1.042 0-.089.188-.262.417-.384.229-.123.417-.323.417-.445s.061-.222.136-.222c.074 0 .312-.431.528-.958.216-.527.558-1.114.759-1.305 1.113-1.055 1.174-8.57.07-8.57-.175 0-.993-1.417-.993-1.718 0-.374-2.262-2.603-2.921-2.878-.323-.135-.892-.541-1.265-.903-.779-.756-.783-.757-4.481-1.087-1.513-.136-3.538-.32-4.5-.41-.962-.09-3.85-.184-6.417-.209l-4.666-.045-.968.484m88.384-.399c-2.839.088-3.22.178-3.65.866-.35.562-.27 39.772.084 40.513.637 1.336 3.811 1.751 4.753.623.655-.785.649-.637.691-17.028.038-14.593.05-15.12.356-15.459.684-.755.961-.168 1.696 3.595.038.199.298.59.576.868.611.611.994 1.476.994 2.244 0 .67.346 1.557.792 2.03.509.54.827 1.122.935 1.71.213 1.158.647 2.394.936 2.667.481.454 1.171 1.808 1.171 2.298 0 .829.384 1.816.934 2.404.665.711.844 1.162.997 2.511.096.854.217 1.153.666 1.649.587.65 1.236 2.096 1.236 2.755 0 .544.291 1.172 1.004 2.169.645.9.996 1.768.996 2.459 0 .727.297 1.281 1.253 2.338.503.555.914 1.072.914 1.148 0 .076.106.138.236.138s.263.081.296.18c.11.331 1.016-.226 2.073-1.275 1.019-1.011 1.081-1.14 1.323-2.734.08-.524.274-.907.653-1.286.617-.616.853-1.151.981-2.218.107-.893.602-1.94 1.162-2.458.222-.206.447-.581.5-.833.296-1.421.545-2.368.653-2.476.068-.067.123-.254.123-.416 0-.161.187-.441.416-.621.23-.18.417-.401.417-.492 0-.09.104-.25.231-.355.127-.106.33-.8.45-1.543.192-1.181.297-1.434.84-2.015.596-.64.784-1.155 1.242-3.413.041-.205.289-.617.55-.917.548-.63 1.02-1.496 1.02-1.872 0-.676.596-2.281 1.032-2.781.673-.773.97-1.541 1.088-2.808.1-1.076.404-2.059.692-2.237.219-.135 1.186.236 1.202.461.052.712-.039 29.182-.094 29.27-.097.158.387 1.708.628 2.008.782.974 3.51 1.305 4.34.525.78-.733.779-.694.779-21.33V15.9l-.454-.7-.454-.7h-2.937c-3.376 0-3.246-.05-4.215 1.604-.325.555-.712 1.109-.86 1.232-.443.368-.747 1.106-.747 1.817 0 .634-.439 1.866-.708 1.986-.069.03-.125.144-.125.251 0 .108-.143.286-.317.394-.286.179-.492.701-1.197 3.03-.121.401-.314.823-.427.937-.458.457-1.059 1.483-1.059 1.806 0 .747-.608 2.337-1.11 2.902-.507.569-1.057 2.052-1.057 2.849 0 .377-.351 1.023-.865 1.59-.367.405-.801 1.321-.801 1.691 0 .671-.429 1.711-.993 2.411-.559.694-.85 1.411-1.348 3.324-.106.408-.363.971-.571 1.25-.209.28-.584.884-.835 1.343-.97 1.777-1.436 1.602-1.997-.75-.217-.914-.441-1.407-.829-1.834-.656-.719-.881-1.234-1.03-2.361-.115-.865-.626-1.972-.91-1.972-.232 0-.821-1.273-.821-1.773 0-.707-.345-1.569-.994-2.477-.604-.846-1.062-1.991-1.251-3.129-.057-.345-.31-.87-.562-1.166-.79-.93-.977-1.342-1.188-2.624-.174-1.053-.309-1.371-.864-2.038-.492-.59-.702-1.032-.836-1.75-.221-1.192-.59-2.115-.99-2.477-.465-.42-.923-1.521-1.167-2.8-.169-.89-.335-1.268-.73-1.667-.673-.679-1.216-1.099-1.42-1.099-.09 0-.164-.057-.164-.127 0-.365-.765-.451-3.334-.371m52.158.006c-.662.15-1.559.607-1.875.956-.278.307-.294 1.426-.289 20.022.007 21.907-.082 20.286 1.156 21.106l.641.424 12.434-.012c12.608-.012 12.79-.018 13.331-.484.769-.663 1.094-3.382.511-4.273-.468-.713-.97-.745-11.756-.746l-10.272-.001-.269-.411c-.668-1.019-.317-13.471.395-14.039.34-.271 14.987-.302 16.343-.035 1.885.371 3.44-.811 3.353-2.549l-.055-1.117-.778-.466-.778-.466-9.118-.084c-8.872-.081-9.124-.092-9.369-.416-.45-.595-.379-11.729.077-12.219l.34-.365h9.566c5.304 0 9.738-.067 9.952-.15 1.396-.546 1.629-2.796.438-4.231l-.386-.465-11.592-.035c-6.376-.02-11.776.006-12 .056m30.266.094c-1.714.627-1.924.902-1.924 2.53 0 1.201.224 1.605 1.084 1.953.183.075 3.119.18 6.524.234 5.822.092 6.212.117 6.549.422l.358.324-.013 17.509c-.014 19.084-.048 18.39.926 19.228.67.576 2.809.492 3.22-.128.702-1.057.693-.822.684-19.093-.008-15.048.025-17.549.233-17.833.231-.317.507-.335 6.464-.427 6.281-.097 6.52-.12 7.346-.693.477-.33.734-2.795.292-2.795-.092 0-.167-.1-.167-.222 0-.123-.399-.425-.888-.672l-.888-.45-14.646-.036c-10.418-.026-14.793.017-15.154.149m81.326-.158c-.455.126-.848.57-1.157 1.309-.358.858-.385 37.858-.028 39.519.322 1.502.637 1.765 2.144 1.79 1.14.02 2.458-.375 2.458-.735 0-.054.138-.245.306-.426.169-.181.358-.535.421-.786.255-1.017.131-39.135-.128-39.532-.536-.817-2.826-1.466-4.016-1.139m56.555.622l-.471.651V35.65c0 18.644.019 19.971.292 20.514 1.241 2.475 5.571.299 5.035-2.529-.098-.519-.162-5.827-.159-13.304.005-10.897-.026-12.516-.254-13.061-.294-.705-.292-3.696.002-3.675.092.006.317.246.5.533.184.287.617.639.963.781.693.285.885.632 1.151 2.091.334 1.832.678 2.796 1.212 3.397.416.467.604.918.848 2.029.241 1.101.437 1.574.854 2.061.575.672 1.049 1.812 1.053 2.534.004.62.394 1.471.966 2.108.439.489.913 1.755 1.277 3.417.056.254.247.608.425.786.646.646 1.168 1.661 1.168 2.27 0 .949.33 1.825.926 2.456.421.448.628.91.912 2.043.37 1.478.583 2.001.941 2.312.306.267 1.054 1.703 1.054 2.025 0 .6.695 1.713 1.302 2.084 1.516.929 2.018.86 2.616-.355.157-.321.566-.921.909-1.334.342-.412.705-1.012.807-1.333.444-1.4.7-2.329.7-2.536 0-.123.226-.471.503-.775.626-.684.954-1.453 1.101-2.574.119-.908.333-1.348 1.088-2.236.252-.296.5-.821.552-1.167.166-1.119.608-2.281 1.108-2.915.596-.757 1.147-2.002 1.15-2.602.003-.536.386-1.687.611-1.837.329-.219 1.053-1.446 1.053-1.783 0-.711.513-2.036 1.064-2.753.402-.521.653-1.107.852-1.989.377-1.668.567-2.171 1.009-2.666.591-.664.858-1.327 1.088-2.697.176-1.049.285-1.317.603-1.487.898-.481.873-.925.879 15.752.006 18.347-.081 17.582 2.033 17.838.931.113 2.306-.117 2.306-.385 0-.072.174-.225.387-.339.807-.432.796-.149.798-19.967.001-10.248.056-18.97.123-19.382.252-1.559-1.392-2.76-3.444-2.517-.579.069-1.468.069-1.976 0-.868-.118-1.362-.061-1.555.18-.046.058-.371.28-.723.493-.998.607-1.202.921-1.528 2.347-.167.732-.422 1.508-.568 1.725-.145.216-.477.713-.737 1.103-.443.663-.811 1.701-1.05 2.955-.057.295-.347.822-.645 1.17-.605.706-1.082 1.932-1.082 2.776 0 .405-.173.752-.641 1.286-.822.938-1.026 1.335-1.026 1.993 0 .888-.349 1.769-.953 2.41-.383.406-.683.977-.902 1.719-.18.61-.408 1.383-.507 1.718-.099.334-.348.788-.553 1.009-.684.738-1.205 2.173-1.241 3.418-.006.202-.307.67-.669 1.04-.694.707-1.006 1.503-1.007 2.566-.002 1.109-.738 2.015-1.235 1.519-.133-.134-.304-.244-.379-.245-.131-.002-.425-.393-1.426-1.897-.25-.377-.456-.895-.458-1.153-.006-.929-.396-2.046-.957-2.742-.337-.419-.674-1.104-.82-1.667-.136-.526-.321-1.238-.411-1.584-.09-.345-.37-.87-.622-1.166-.77-.906-.968-1.326-1.196-2.539-.17-.906-.356-1.335-.83-1.917-.665-.817-1.001-1.612-1.001-2.367 0-.605-.566-1.875-.965-2.165-.333-.242-.868-1.289-.868-1.699 0-.694-.453-1.919-.934-2.527-.611-.774-1.066-1.771-1.066-2.34 0-.686-.511-1.924-.985-2.388-.253-.247-.654-.859-.891-1.361-.675-1.426-.902-1.562-2.683-1.613-.838-.023-2.156-.061-2.928-.084l-1.404-.041-.471.651m-344.513.16l-.458.726v19.52c0 23.36-.213 21.543 2.526 21.575 2.215.027 3.547-1.275 3.252-3.175-.053-.342-.11-3.832-.127-7.755l-.031-7.132.524-.434.523-.433 4.791-.04c4.985-.041 5.579-.113 6.875-.828.774-.427 2.301-.911 2.883-.914.618-.003 1.285-.362 1.789-.964.226-.269.68-.616 1.009-.77.373-.175.746-.545.992-.983.217-.386.676-.995 1.02-1.353 1.642-1.71 1.731-11.144.115-12.154-.17-.106-.308-.287-.308-.402 0-.116-.057-.21-.128-.21-.07 0-.375-.413-.677-.918-.513-.858-2.084-1.915-2.845-1.915-.091 0-.262-.135-.382-.299-.426-.583-1.26-1.035-1.91-1.034-.764 0-2.929-.263-4.891-.595-1.061-.179-3.01-.24-7.75-.239l-6.334.001-.458.725m92.469.274c.051.321.153.996.225 1.5l.132.917.012-.917c.006-.504-.095-1.179-.226-1.5l-.237-.583.094.583m-76.677.082c1.191.135 2.583.246 3.093.248.915.003 1.382.238 1.772.89.145.243 1.889 1.11 2.249 1.119.364.008.703.37 1.138 1.215.228.442.703 1.117 1.057 1.5.943 1.022.991 1.234 1.07 4.704.094 4.147-.163 5.755-1.032 6.458-.367.297-.672.755-.841 1.264-.242.729-.35.838-1.234 1.246-.534.247-1.064.624-1.18.84-.226.423-1.162.743-3.236 1.109-.629.111-1.717.436-2.417.722l-1.273.52-4.416.019c-4.892.022-5.028.047-5.827 1.056-.464.585-.524.763-.414 1.222.071.295.152 3.349.181 6.786.029 3.438.101 6.708.16 7.267l.109 1.017-.638.483c-.35.266-.821.652-1.045.858-.493.453-.407.451-1.526.042-.502-.184-.931-.334-.954-.334-.62 0-.903-38.826-.292-40.008l.254-.492 6.538.002c4.649.001 7.163.072 8.704.247m35.161.005c4.32.299 4.726.39 5.618 1.256.373.361.826.657 1.007.657.396 0 1.294.61 1.305.886.004.109.202.347.44.531.765.589 1.219 1.124 1.219 1.435 0 .315.499 1.501.695 1.65 1.432 1.089 1.509 6.622.106 7.669-.187.14-.794 1.551-.798 1.856-.004.3-2.437 2.806-2.724 2.806-.22 0-.946.674-.946.878 0 .468-.78.778-1.969.783-1.301.006-1.684.134-2.399.801-.348.324-.415.488-.293.715.086.162.348.897.58 1.633.313.992.589 1.512 1.063 2.005.383.399.755 1.021.927 1.551.316.972.653 1.434 1.198 1.643.345.132.576.624 1.069 2.283.116.39.265.708.331.708.313 0 1.106 1.066 1.311 1.761.169.572.395.892.857 1.216.344.242.667.628.716.857.259 1.209.351 1.461.722 1.958.222.298.488.542.591.542.479 0 .796.562.796 1.41 0 1.457-.378 1.651-2.167 1.111-.321-.097-.956-.28-1.412-.408-.793-.221-1.13-.54-1.527-1.447-.158-.36-.928-1.166-1.115-1.166-.248 0-.601-.546-.607-.937-.009-.578-.614-1.779-1.162-2.303-.28-.269-.51-.548-.51-.62 0-.333-.895-1.974-1.077-1.974-.314 0-.693-.512-.926-1.25-.44-1.395-.558-1.603-1.188-2.102-.51-.404-.709-.725-.937-1.512-.163-.566-.524-1.275-.831-1.636-.298-.35-.758-1.118-1.022-1.707-.67-1.493-1.332-1.705-5.102-1.633-3.647.071-3.417-.581-3.417 9.658 0 8.902-.016 9.044-1.014 9.243-1.099.22-1.819.003-1.819-.549 0-.098-.065-.178-.144-.178-.436 0-.993-1.261-.884-2 .202-1.369.111-36.537-.095-37.022-.177-.413-.15-.455.468-.734.36-.162.655-.359.655-.436 0-.241 10.485-.159 14.411.112m76.722.205c1.255.94 1.639 1.627 1.961 3.513.156.909.437 1.489.824 1.696.456.244.915 1.335.915 2.175 0 .805.336 1.505 1.102 2.293.355.366.565.747.565 1.026 0 .994.709 2.933 1.208 3.306.363.271.957 1.549.961 2.065.006.864.708 2.467 1.081 2.467.309 0 .602.681.849 1.974.262 1.375.56 2.193.797 2.193.332 0 .765.754.941 1.641.258 1.301.531 2.2.738 2.43.096.107.348.388.561.626.223.25.508.94.676 1.641.209.868.446 1.387.841 1.837l.55.628.701-.693c.386-.381.805-.956.932-1.277.126-.321.357-.675.512-.788.434-.316.985-1.494.985-2.107 0-.928.431-2.05 1.022-2.658.382-.394.655-.917.855-1.638.518-1.866.655-2.217 1.026-2.642.722-.827.806-1.019 1.095-2.492.255-1.296.364-1.553.821-1.938.637-.537 1.014-1.381 1.014-2.273 0-.781.415-1.74.855-1.975.406-.217.978-1.349.981-1.94.005-.816.402-1.836.95-2.438.565-.62 1.048-1.607 1.048-2.138 0-.675.588-2.311.863-2.398.28-.09.97-1.109.97-1.433 0-.096.155-.391.345-.658l.344-.484h5.802l.255.492c.223.432.254 2.803.254 19.646 0 21.325.063 20.144-1.099 20.63-1.258.525-1.406.496-2.459-.486l-.975-.909.081-.978c.123-1.491.134-19.161.013-21.811-.107-2.356.044-3.99.519-5.584.676-2.268.199-4.144-.936-3.683-.217.088-.581.201-.811.251-1.084.236-1.773 1.468-1.939 3.471-.112 1.348-.552 2.454-.979 2.459-.278.004-.518.523-.81 1.753-.431 1.813-.634 2.392-.872 2.483-.46.176-1.017 1.381-1.241 2.683-.194 1.13-.311 1.41-.76 1.833-.642.605-.989 1.398-1.14 2.6-.148 1.19-.391 1.784-.779 1.907s-.98 1.233-.98 1.836c0 .816-.506 2.188-1.018 2.757-.558.622-.982 1.5-.982 2.035 0 .676-.543 2.282-.772 2.282-.125 0-.228.061-.228.135 0 .075-.156.304-.348.509-.238.256-.4.754-.512 1.573-.185 1.356-.43 1.832-1.127 2.193-.266.137-.621.424-.79.636-.523.66-.672.659-1.072-.003-.359-.593-1.266-1.543-1.473-1.543-.122 0-.51-1.229-.513-1.622-.006-.719-.657-2.317-1.136-2.79-.627-.619-1.029-1.541-1.029-2.362 0-.65-.32-1.726-.513-1.726-.491 0-1.121-1.087-1.189-2.054-.075-1.068-.682-2.613-1.026-2.613-.296 0-.524-.477-.837-1.75-.481-1.957-.627-2.307-1.264-3.033-.538-.613-.642-.876-.836-2.123-.203-1.305-.273-1.47-.845-2-.533-.493-.665-.766-.909-1.877-.332-1.518-.705-2.498-.994-2.609-.395-.152-.864-1.372-1.087-2.834-.124-.812-.325-1.575-.446-1.696s-.22-.283-.22-.359c0-.385-.652-.541-1.238-.297-.995.416-1.092.722-.919 2.912.083 1.054.149 8.034.147 15.512-.004 15.289.054 14.558-1.185 14.901-.336.094-.668.226-.736.295-.224.224-.611.133-1.137-.268-.284-.216-.681-.445-.883-.508-.665-.211-.91-.998-.695-2.23.103-.593.142-1.538.086-2.099-.238-2.388-.141-35.26.104-35.505.64-.639 5.728-.619 6.589.027m72.431-.048c.346.528.37 2.346.035 2.681-.195.194-1.889.242-10.073.279l-9.838.046-.511.49-.511.489v12.209l.511.489.511.49 9.031.048c10.4.055 9.693-.059 9.818 1.577.055.723.019.958-.149.958-.122 0-.222.063-.222.14 0 .512-.947.565-9.555.535-9.553-.032-9.137-.077-9.67 1.046-.422.889-.415 13.407.008 14.123.42.711.079.689 10.467.667 11.175-.023 11.659.016 11.908.978.35 1.356.083 2.678-.541 2.678-.174 0-.57.12-.881.267-.407.194-.761.235-1.275.147-1.659-.283-20.321-.279-21.34.005-.936.26-1.621.219-1.621-.097 0-.086-.305-.461-.679-.835-.503-.503-.645-.752-.545-.959.188-.389.25-35.939.064-36.681-.083-.329-.199-.756-.258-.949-.091-.294.001-.395.558-.618.366-.146.714-.344.773-.44.072-.118 3.903-.174 11.911-.174h11.805l.269.411m36.436-.282c0 .071.262.27.583.443.617.333.717.72.483 1.886-.16.8-.671.867-7.066.917-6.166.049-6.541.1-6.995.949-.115.214-.172 6.1-.172 17.704v17.383l-.367.885-.367.885-.991-.049c-1.045-.051-1.025-.036-1.511-1.157-.235-.542-.264-2.511-.264-18.099 0-16.453-.017-17.506-.292-17.755-.709-.642-1.155-.688-7.041-.74-6.095-.052-6.95-.147-7.077-.784-.271-1.357-.229-1.723.22-1.931.242-.113.628-.306.857-.431.465-.252 30-.357 30-.106m11.369.246c.163.285.234 2.286.297 8.35l.084 7.974.475.379c.696.554 1.41.589 12.091.588 9.301 0 9.617-.011 10.146-.333.86-.524.871-.635.873-8.802.003-8.935-.088-8.425 1.526-8.496.953-.042 1.187.008 1.727.375.344.233.68.424.747.424.067 0 .038.356-.065.791-.225.953-.265 35.943-.042 36.892.181.772-1.024 2.638-1.709 2.646-2.155.024-2.09.324-2.186-10.079l-.083-9-.396-.528c-.218-.29-.556-.57-.75-.622-.607-.161-20.314-.107-21.013.058-1.435.338-1.447.424-1.43 10.365.017 9.761-.018 9.93-2.047 9.776-.593-.045-.695-.124-1.059-.82l-.403-.772V16.12l.37-.393c.54-.575 2.522-.588 2.847-.019m42.86.056c.811.454.973.881.599 1.579-.269.502-.236 35.375.034 36.383l.206.772-.701.674c-.385.371-.701.714-.701.763 0 .325-.563.591-1.047.494-2.072-.416-1.869 1.85-1.869-20.945 0-16.367.037-19.645.228-19.875.39-.469 2.297-.378 3.251.155M312 15.75c.363.229.737.417.83.417.235 0 .203.338-.08.833-.312.546-.371 23.843-.062 24.614.275.687.455 1.582.723 3.593.264 1.975.572 2.805 1.159 3.119.213.114.545.522.736.906.406.812 2.272 2.601 2.714 2.601.51 0 1.511.554 2.109 1.167l.569.583 2.918.059c3.082.062 3.661-.049 4.392-.837.142-.154.742-.437 1.334-.631 1.349-.442 1.825-.68 1.825-.914 0-.272.991-1.427 1.225-1.427.496 0 1.265-1.475 1.272-2.44.002-.196.297-.713.656-1.148 1.012-1.225 1.013-1.228 1.019-16.509.006-15.88-.18-14.403 1.813-14.403.65 0 1.181.058 1.181.128 0 .071.192.245.427.387l.427.26-.012 12.571c-.013 12.38-.05 13.411-.605 16.892-.13.818-.237 1.849-.237 2.29 0 .739-.065.867-.833 1.639-.458.461-.833.94-.833 1.065 0 .43-.868 1.778-1.413 2.194-.301.229-.925.771-1.387 1.204-.462.433-1.202.925-1.645 1.094-1.303.495-1.589.668-1.77 1.066-.095.207-.301.377-.458.377-.158 0-.568.118-.912.261-.529.221-1.365.253-5.478.208-5.089-.055-5.334-.09-5.9-.839-.269-.358-1.037-.705-2.121-.959-.847-.199-1.416-.567-1.416-.916 0-.236-.81-1.002-1.208-1.142-.16-.056-.454-.437-.653-.846-.225-.464-.573-.858-.923-1.047-.538-.29-1.044-1.351-1.052-2.209-.005-.47-.407-1.429-.758-1.805-.909-.974-.906-.926-.906-16.708 0-16.7-.164-15.165 1.612-15.165.845 0 1.196.085 1.721.417m45.306.082c.203.274.417.741.476 1.038.06.297.377.829.705 1.182.629.679.768 1.008 1.006 2.381.18 1.036.799 2.4 1.09 2.4.316 0 .687.926.932 2.324.186 1.066.301 1.323.823 1.833.583.57.995 1.61.995 2.51 0 .508.613 1.776.984 2.036.299.21.823 1.539 1.096 2.779.141.646.718 1.685.933 1.685.272 0 .773 1.242.879 2.179.124 1.104.418 1.737 1.103 2.377.278.26.505.619.505.799 0 1.359.833 3.509 1.695 4.376 1.837 1.846 2.631 1.482 3.234-1.481.224-1.102.355-1.401.759-1.724.625-.5.973-1.342 1.096-2.651.054-.573.162-1.042.24-1.042.079 0 .143-.064.143-.143 0-.079.26-.419.577-.755.363-.385.611-.841.67-1.231.18-1.189.631-2.337 1.149-2.924.508-.577 1.104-2.051 1.104-2.732 0-.51.454-1.496.803-1.745.535-.383.816-1.015 1.045-2.357.197-1.154.296-1.376.852-1.915.529-.514.671-.808.896-1.862.348-1.624.595-2.336.812-2.336.252 0 1.092-1.387 1.092-1.801 0-1.28.685-2.765 1.412-3.062.278-.113.604-.303.725-.421.825-.808 6.454.071 6.091.951-.359.87-.404 3.391-.36 20.08.027 10.039.011 18.255-.035 18.257-.046.002-.345.38-.666.839-.529.757-.63.826-1.084.738-.275-.053-.735-.138-1.022-.188-1.015-.177-.97.54-1.061-16.949l-.083-15.973-.468-.402c-1.087-.935-1.979-.101-2.223 2.08-.12 1.068-.295 1.477-.805 1.878-.469.369-.836 1.28-1.095 2.723-.213 1.186-.469 1.735-1.087 2.334-.358.347-.806 1.645-.996 2.891-.072.465-.258.852-.521 1.081-.659.573-1.055 1.35-1.055 2.068 0 .94-.414 2.003-1.023 2.625-.542.555-.97 1.541-.976 2.251-.002.23-.115.632-.252.894-.137.263-.249.576-.249.697 0 .12-.188.366-.417.546-.229.18-.417.402-.417.492 0 .09-.1.247-.222.349-.123.101-.325.842-.45 1.645-.208 1.338-.279 1.51-.843 2.044-.706.667-.985 1.377-.985 2.504 0 .498-.092.865-.25.996-.137.114-.25.272-.25.351 0 .078-.254.405-.566.726-.311.32-.737.996-.947 1.503-.415 1-.639 1.106-1.202.569-.202-.194-.576-.427-.83-.518-.505-.182-1.121-1.298-1.121-2.031 0-.632-.334-1.285-.991-1.941-.529-.528-.616-.744-.809-2-.197-1.291-.269-1.461-.855-2.028-.61-.591-1.179-2.179-1.179-3.295 0-.258-.704-1.454-.983-1.669-.322-.25-.643-1.05-.836-2.084-.227-1.215-.525-1.848-1.043-2.218-.458-.327-.752-1.008-.878-2.032-.149-1.207-.402-1.826-.952-2.333-.479-.44-.808-1.13-.808-1.694 0-.714-.526-2.083-1.035-2.691-.666-.795-.959-1.624-.962-2.72-.004-1.163-.387-1.996-1.354-2.942-.449-.438-.815-.869-.815-.958 0-.089-.081-.162-.179-.162-.098 0-.295-.116-.437-.258-1.095-1.095-1.991 2.179-1.38 5.042.174.818.328 27.216.159 27.216-.048 0-.236.282-.417.625-.465.884-.653 1.042-1.24 1.042-1.022 0-1.57-.374-1.798-1.227-.303-1.133-.303-38.835 0-39.488l.208-.449 2.927-.001 2.927-.002.369.499M103.75 17.528c-1.036.575-1.025.767.079 1.356l.563.301.486-.486.486-.486-.439-.44c-.483-.482-.675-.522-1.175-.245m-9.61.355l-.609.326.422.363c.364.314.438.552.544 1.77l.122 1.408.02-1.167c.011-.641-.045-1.445-.124-1.786-.107-.459-.086-.669.08-.807.258-.214.363.095.457 1.343.053.704.058.693.08-.166.035-1.386-.209-1.702-.992-1.284m10.629-.032l.374.352-.363.378-.363.379-.625-.344c-.747-.411-.769-.527-.167-.854.609-.33.706-.323 1.144.089M89.306 19.25c.046.901.011 1.083-.208 1.083-.198 0-.268-.178-.277-.708l-.013-.708-.218.583c-.2.536-.189.606.138.868.608.486.952-.031.825-1.243-.136-1.306-.316-1.215-.247.125m-77.502-.289c-1.069.519-1.405 1.014-1.275 1.877.202 1.331.155 9.149-.059 9.862-.225.752.03 1.362.901 2.158.639.582.568.577 5.462.44 6.931-.194 7.953-.358 8.49-1.362.125-.234.509-.611.852-.839.593-.392 1.158-1.222 1.158-1.7 0-.299.534-1.397.679-1.397.416 0 .684-2.122.359-2.847-.806-1.8-1.038-2.377-1.038-2.584 0-.578-.623-1.405-1.332-1.769-.412-.211-1.041-.645-1.397-.964-1.063-.953-1.613-1.038-7.187-1.108-4.537-.058-5.057-.036-5.613.233m34.675-.022c-.972.622-.979.674-.975 6.92.005 8.091-.371 7.559 5.229 7.409 9.093-.244 8.997-.218 12.005-3.196 1.294-1.282 1.312-6.571.025-7.708-.282-.249-.645-.656-.806-.904-.161-.248-.696-.636-1.189-.861-.493-.226-1.056-.634-1.251-.908-.561-.788-1.32-.889-7.267-.965-4.787-.061-5.378-.039-5.771.213m61.118.646c-.488.453-.469.971.052 1.367.896.682 1.909-.576 1.109-1.376-.51-.51-.602-.509-1.161.009m-84.43.162c.321.182.771.497 1 .7.229.203.705.489 1.058.637.986.412 1.222.728 1.618 2.168.688 2.501.749 3.894.217 4.948-.125.248-.227.671-.227.941 0 .505-.079.603-1.864 2.3-1.106 1.052-1.027 1.041-7.876 1.114l-4.823.051-.49-.438-.49-.438-.02-5.845-.02-5.844.5-.36c.737-.53 10.465-.473 11.417.066m35.375.058c.344.214.719.518.833.675.115.158.471.393.792.524.698.283 1.5.964 1.5 1.274 0 .122.066.222.147.222.08 0 .38.239.666.532l.52.531v2.318c0 2.727-.131 3.124-1.377 4.173-.455.383-1.165 1.008-1.578 1.389-1.015.937-1.621 1.022-7.988 1.121-5.064.078-5.2.072-5.5-.259-.517-.571-.561-12.135-.048-12.647.572-.573 11.082-.444 12.033.147m24.625-.247c.457.241.592.226.423-.047-.06-.098-.274-.177-.475-.175-.35.002-.348.011.052.222m25.473.118c.69.741-.252 1.625-.963.905l-.427-.433.468-.407c.564-.492.527-.489.922-.065m-27.368-.044c-.045.072.175.102.49.065.314-.037.571-.096.571-.132 0-.125-.981-.064-1.061.067m31.098.127c-.203.143-.37.312-.369.375 0 .152 1.49.764 1.597.657.045-.046-.239-.212-.633-.369l-.715-.286.583-.311c.444-.236.502-.313.246-.318-.186-.004-.505.11-.709.252m1.802-.167c-.003.096.088.268.202.382.132.132.147.249.041.325-.091.065-.275.268-.41.451-.181.246-.126.228.208-.071.25-.222.454-.451.454-.51 0-.187-.49-.759-.495-.577m-33.06.845c.474.723 2.726.43 2.714-.354-.002-.091-.079-.035-.173.125-.229.395-2.277.43-2.426.042-.053-.138-.165-.25-.249-.25-.084 0-.024.197.134.437m13.936.813c.001.458.033.626.072.373.038-.254.037-.629-.003-.834-.039-.205-.071.003-.069.461m-10.61.292c-.315 1.178.808 1.902 1.514.975.292-.383.261-.757-.09-1.075-.464-.419-.637-.329-.22.115.616.656-.129 1.57-.807.989-.407-.349-.425-.67-.059-1.075.24-.265.243-.304.019-.304-.141 0-.301.168-.357.375m6.22-.023c-.208.139-.207.158.009.135.541-.058.667.03.671.471.005.393.03.417.176.165.284-.488-.383-1.089-.856-.771m13.452.228c-.589.589.13 1.422.783.908.498-.391.567-.738.177-.887-.403-.155-.462-.123-.251.131.149.18.128.297-.094.518-.436.437-.865-.152-.448-.614.328-.362.187-.41-.167-.056m-13.6.836c.001.516.461.783.671.389.185-.347.179-.365-.057-.171-.221.183-.292.169-.439-.083-.096-.166-.175-.226-.175-.135m20.841.769c-.322.301-.393.994-.129 1.259.412.412 1.778-.122 1.778-.694 0-.689-1.108-1.068-1.649-.565m1.271.306c.201.32-.248 1.009-.657 1.009-.267 0-.798-.511-.798-.767 0-.632 1.098-.815 1.455-.242m-14.955-.092c0 .036.293.094.652.128.359.034.617.005.574-.066-.079-.128-1.226-.186-1.226-.062m-1.084.268c-.112.181.424.424 1.441.653.574.129.671.104.84-.212.168-.316.16-.333-.071-.143-.145.12-.454.175-.694.125-1.383-.289-1.374-.285-1.016-.431.321-.131.319-.136-.031-.148-.201-.006-.412.064-.469.156m-10.214 1.563c-.441.435-.368.791.228 1.11.921.493 1.817-.44 1.141-1.187-.38-.419-.896-.39-1.369.077m21.338.006c-.426.449-.365.789.193 1.088.664.355 2.33-.318 2.021-.817-.161-.261-.424-.209-.32.063.109.284-.376.574-1.046.625-.864.066-1.164-.394-.593-.911.202-.183.373-.218.542-.112.135.086.396.151.579.145.261-.009.224-.061-.166-.24-.68-.311-.777-.298-1.21.159m-20.145.073c.539.596-.087 1.193-.858.817-.605-.295-.633-.564-.089-.859.601-.326.614-.325.947.042m-4.604.134c.338.137.241.35-.25.544l-.458.181.499-.097c.924-.181 1.125-.759.251-.722-.17.007-.184.037-.042.094m-2.117.223c.007.645.648 1.008 1.159.657.193-.132.137-.16-.244-.122-.387.038-.54-.042-.706-.368-.116-.229-.21-.304-.209-.167m32.611 1.427c-.864.864.058 1.945 1.04 1.22.582-.431.563-.633-.023-.249-.521.341-1.136.179-1.136-.3 0-.446.296-.764.71-.764.171 0 .264-.075.207-.167-.16-.259-.336-.202-.798.26m-24.524.128c-.871.636 1.236 1.419 2.189.813.11-.07-.32-.098-.956-.062-.976.055-1.174.02-1.267-.22-.237-.618 2.074-.898 2.426-.294.093.16.172.213.175.117.016-.564-1.915-.831-2.567-.354m15.697-.028c-.476.174-.581.378-.288.559.094.058.151.013.125-.101-.025-.115.197-.259.505-.326.302-.066.596-.166.653-.223.155-.156-.478-.098-.995.091m2.07.123c.159.256.143.37-.089.601-.278.278-.449.277-1.439-.012-.239-.069-.359-.058-.281.026.417.449 1.424.532 1.787.146.354-.378.342-1.077-.019-1.077-.086 0-.068.142.041.316m4.712 1.922c-.367.27.063 1.428.53 1.428.241 0 .645-.64.497-.788-.051-.051-.14.031-.198.181-.131.343-.569.361-.569.024 0-.137-.075-.25-.167-.25-.267 0-.192-.36.125-.601.16-.122.25-.224.199-.227-.052-.003-.239.102-.417.233m.885.067c.341.358.423.349.277-.031-.057-.151-.209-.274-.337-.274-.177 0-.162.073.06.305m-33.018.155c-.043.07.014.299.126.509l.205.382.186-.409c.103-.225.142-.454.087-.509-.141-.141-.51-.124-.604.027m17.855 1.162c.392.035.992.035 1.334-.001.341-.036.02-.065-.713-.064-.733 0-1.013.03-.621.065m-1.555.289c-.415.313-.119.317.426.005.267-.152.323-.24.157-.244-.143-.003-.406.104-.583.239m4.093.005c.547.313.818.317.407.006-.178-.135-.436-.245-.574-.244-.145 0-.075.1.167.238m15.672 1.359c-.402.909-.347 1.179.064.314.311-.656.498-.73.75-.298.228.392.235-.044.008-.469-.264-.494-.448-.393-.822.453m-21.158-.011c-.218.317-.357.615-.309.663.048.048.249-.188.447-.525.467-.791.373-.885-.138-.138m22.167.652c.043.602-.01.727-.36.837-.22.07-.461.005-.667-.181-.176-.16-.321-.235-.321-.167 0 .308.755.726 1.037.575.454-.243.675-.768.465-1.108-.163-.264-.176-.26-.154.044m-22.75.739c-.185.77-.156 2.666.049 3.179l.165.416.007-.417c.003-.229-.059-.698-.139-1.041-.085-.368-.08-.912.012-1.322.086-.384.131-.853.1-1.042-.042-.258-.092-.2-.194.227m8.284 1.318c.009 1.357.015 1.376.241.81.198-.497.197-.695-.01-1.39l-.242-.81.011 1.39m-30.347-.609c-.313.314-.238.494.115.274.255-.159.401-.143.745.082.327.215.407.225.338.047-.049-.129-.215-.279-.37-.334-.154-.055-.357-.139-.453-.186-.095-.046-.263.006-.375.117m14.874.418l-.659.588.614-.435c.726-.515.842-.526 1.427-.144.245.161.388.198.317.082-.413-.669-1.016-.702-1.699-.091m32.706-.148c-.545.568-.545.577-.054 1.107.511.552 1.606.308 1.606-.357 0-.056-.137.021-.305.173-.709.642-1.876-.044-1.209-.71.424-.424.82-.444 1.115-.056.123.162.224.203.227.093.005-.185-.614-.718-.834-.718-.054 0-.3.211-.546.468m3.556.053l-.57.521.601.551c.999.915 2.014.13 1.39-1.076-.338-.654-.702-.653-1.421.004m-47.838.063c-.649.479-.525.573.141.107.244-.17.555-.352.693-.404.216-.081.215-.095-.01-.107-.142-.007-.513.175-.824.404m7.709-.042c-.295.206-.538.44-.539.52-.002.079.254-.052.569-.292.691-.527.822-.535 1.446-.09l.487.346-.378.315c-.207.173-.295.317-.194.32.612.019.749-.618.228-1.057-.636-.534-.927-.546-1.619-.062m29.583-.172c.206.1.375.237.375.305 0 .067.131.169.292.225.174.061.103-.067-.176-.316-.257-.229-.557-.412-.667-.406-.109.006-.03.093.176.192m11.879.305c.475.886-.484 1.47-1.25.76l-.429-.398.508-.428c.539-.453.904-.433 1.171.066M76 34.757c0 .059.159.235.353.392l.354.286-.402.264c-.221.145-.549.3-.729.346-.304.077-.302.084.027.102.34.019 1.236-.554 1.225-.784-.007-.146-.828-.746-.828-.606m14.574.169c-.317.253-.317.255.018.095.21-.101.436-.105.584-.012.373.236.554.185.324-.092-.265-.319-.52-.317-.926.009m16.453.101c-.398.183-.691.365-.651.404.04.04.478-.111.973-.336.496-.225.789-.407.651-.405-.138.003-.575.154-.973.337m-15.132.257c.065.065-.129.249-.43.41-.302.161-.452.295-.334.299.278.009 1.036-.488 1.036-.679 0-.081-.088-.147-.195-.147-.107 0-.141.053-.077.117m11.035.029c-.168.27 1.329.575 1.849.376.459-.176.461-.18.054-.166-1.115.038-1.582-.029-1.333-.19.203-.131.182-.162-.115-.164-.201-.001-.406.063-.455.144m2.32.02c.183.079.483.144.667.144h.333l-.333-.144c-.184-.078-.484-.143-.667-.143h-.333l.333.143m3.824.059c-.097.105-.359.324-.583.487l-.408.295.5-.247c.752-.373.968-.543.81-.639-.079-.047-.222 0-.319.104m1.54-.117c-.147.147.583.684 1.109.816.441.111 1.423-.334 1.209-.548-.053-.053-.244.037-.424.2-.391.354-1.091.238-1.515-.251-.152-.176-.323-.273-.379-.217m-22.697.392c-.275.182-.647.331-.825.332-.22.001-.271.056-.156.17.19.19 1.056-.174 1.4-.589.273-.329.179-.31-.419.087m-15.25-.027c0 .283-.757.499-1.094.313-.289-.16-.299-.149-.094.101.126.154.313.279.416.279.265-.002 1.234-.82.98-.827-.115-.003-.208.057-.208.134m7.426.115c-.178.135-.472.245-.653.245-.181 0-.284.045-.23.099.171.171 1.091-.107 1.188-.359.112-.292.101-.292-.305.015m10.167-.01c.178.134.398.244.49.244.092 0 .021-.11-.157-.244-.178-.135-.398-.245-.49-.245-.092 0-.021.11.157.245m16.932.012c.151.155.366.251.477.214.111-.037-.013-.163-.275-.281-.447-.2-.46-.196-.202.067m-24.859-.011c0 .228 1.052.603 1.219.435.131-.13.058-.181-.259-.181-.242 0-.486-.075-.543-.167-.104-.168-.417-.234-.417-.087m33.167.915c0 .089.103.122.229.074.125-.048.345.029.488.172.38.381.553.317.2-.074-.312-.344-.917-.457-.917-.172m.758 1.262c-.38.705-.441.71-.822.065-.166-.281-.34-.473-.387-.426-.1.101.588 1.106.754 1.102.227-.005.458-.258.665-.727.302-.687.158-.696-.21-.014m-22.413-.34c-.001.212.639.988.735.892.04-.039-.11-.293-.331-.565-.222-.271-.404-.418-.404-.327m6.912 1.042c-.595.728-.604.751-.105.292.478-.44.957-1.084.806-1.084-.03 0-.345.357-.701.792m-5.303.721c.203.212.412.344.463.292.051-.051-.115-.225-.37-.386l-.464-.292.371.386m16.303.029c-.036.115-.103.433-.15.708-.046.275-.107.642-.137.816-.029.173.035.346.142.384.123.044.163-.052.109-.26-.16-.613.223-1.025.435-.467.099.259.137.541.085.625-.052.084-.015.152.082.152.228 0 .225-.496-.009-1.426-.182-.721-.424-.953-.557-.532m-32.209 1.042c.001.458.033.626.072.372.038-.253.037-.628-.003-.833-.039-.205-.071.002-.069.461m16.897-.459c.362.265 2.023.261 2.502-.006.306-.17.114-.202-1.211-.202-1.301 0-1.526.036-1.291.208m17.099 2.011c-.113.072-.235.352-.27.623-.035.27-.028.379.015.241.245-.766.658-.84 1.272-.227.241.242.437.373.434.292-.009-.244-.435-.731-.638-.731-.105 0-.19-.075-.19-.167 0-.198-.334-.214-.623-.031m-8.294.454c-.591.27-.161.328.519.07.38-.145.513-.118.789.157.41.41.147.837-.537.873-.38.019-.389.032-.071.093.867.169 1.268-.424.726-1.074-.353-.423-.699-.452-1.426-.119m-16.333.077c-.065.105.335.167 1.083.167s1.148-.062 1.083-.167c-.056-.092-.544-.167-1.083-.167-.539 0-1.027.075-1.083.167m15.287.363c-.284.283.064.64.608.624.406-.011.396-.028-.14-.221-.537-.194-.555-.222-.25-.399.18-.105.249-.192.153-.195-.096-.003-.263.083-.371.191m-15.476.192c.058.168.105.337.105.375 0 .039.207.061.459.051.343-.015.374-.039.125-.098-.184-.043-.438-.203-.564-.355-.213-.256-.223-.254-.125.027m25.659.383c-.294.205-.436.215-.75.053-.387-.201-.387-.201-.054.131.31.308 1.25.02 1.25-.383 0-.103-.04-.085-.446.199m-27.742.814c-.662.359-.695.676-.123 1.158.507.426.644.421 1.186-.045.41-.351.363-.78-.119-1.096-.483-.316-.397-.315-.944-.017m-4.395.337c.275.126.65.234.833.239.277.009.291.038.084.172-.216.139-.211.162.031.164.606.006.43-.312-.311-.565-.942-.321-1.33-.327-.637-.01m5.366.058c.16.256.136.378-.134.667l-.329.353-.475-.352c-.445-.329-.458-.37-.202-.652.362-.399.896-.406 1.14-.016m19.913-.035c-.161.301.245 1.055.568 1.055.07 0-.035-.173-.233-.385-.277-.295-.316-.43-.166-.58.108-.108.151-.242.096-.297-.055-.055-.174.038-.265.207m1.471-.054c.229.121.452.19.495.155.117-.096-.374-.375-.662-.375-.137 0-.063.099.167.22m-27.333.775c-.561.18.045.18.75 0 .449-.114.457-.127.083-.13-.229-.002-.604.057-.833.13m27 .097l-.417.251.417-.109c.229-.06.488-.176.575-.257.254-.238-.111-.165-.575.115m3 .53c-.965.301-.672 1.707.355 1.707.318 0 .987-.562.972-.818-.024-.433-.902-1.021-1.327-.889m.919.714c.221.698-.538 1.072-1.115.55-.397-.359-.384-.523.069-.89.432-.349.873-.205 1.046.34m-15.146-.227c-.957.295-.857.518.33.74.94.176 1.457-.122 1.126-.648-.237-.377-.479-.393-1.456-.092m1.303.208c.154.249-.224.386-.711.258-.415-.109-.423-.128-.115-.254.457-.186.712-.187.826-.004m-8.045.76c-.109.239-.19.599-.181.801.012.246.086.147.223-.297l.206-.665.18.498c.1.274.184.385.188.248.004-.138-.088-.423-.206-.634l-.213-.384-.197.433m-6.019.691c-.823 1.046-.03 2.017 1.063 1.301.589-.386.625-.675.153-1.236-.521-.619-.77-.632-1.216-.065m19.525.097c-.224.594-.146.797.306.797.379 0 .436-.587.1-1.03-.191-.251-.232-.227-.406.233m-18.259.297c.363.465-.537 1.141-1.112.833-.432-.231-.423-.633.027-1.112.378-.401.599-.345 1.085.279m8.597-.056c-.239.096-.256.651-.034 1.139.109.241.125.165.056-.274-.075-.48-.03-.646.212-.787.31-.18.151-.234-.234-.078m13.179 1.264c-.608.675-.407 1.792.322 1.792.102 0-.02-.215-.272-.478l-.459-.479.428-.48.428-.48.333.394c.397.47.419.743.082 1.023-.137.114-.25.284-.25.376 0 .093.198-.028.439-.27l.439-.439-.441-.667c-.512-.773-.595-.796-1.049-.292m-12.89.296c-.175.423-.172.686.016 1.464.126.522.255.817.287.656.032-.162-.03-.56-.138-.885-.151-.459-.149-.704.01-1.087.113-.273.168-.534.122-.579-.046-.046-.179.148-.297.431m5.347-.254c0 .092.108.354.239.583.131.23.238.342.238.25 0-.091-.107-.354-.238-.583-.131-.229-.239-.342-.239-.25m12.53.39c-.727.273-1.013.863-.416.857.217-.001.236-.037.075-.139-.278-.177-.019-.397.783-.667.775-.261.903-.244 1.153.155.353.566-.03.869-.96.761l-.76-.089.667.221c1.029.339 1.833-.477 1.112-1.13-.365-.33-.712-.324-1.654.031M81.2 50.2c-.11.11-.195.316-.189.458.006.155.072.106.164-.124.211-.525 2.364-.5 2.465.029.088.464-.271.598-1.389.521l-1.001-.069 1 .214c1.042.224 1.286.16 1.592-.412.366-.683-2.019-1.24-2.642-.617m7.333.167c-.256.256-.253.497.012.859.185.253.213.203.213-.384 0-.372-.006-.675-.013-.675-.006 0-.102.09-.212.2m.918.716c-.065.184-.164.446-.221.584-.084.202-.049.198.183-.022.157-.15.257-.412.221-.584-.06-.293-.071-.292-.183.022m4.656.753c-.263.263-.659.502-.881.53-.58.073-.502.361.141.518 1.219.298 1.389.29.716-.036-.366-.178-.576-.329-.467-.336.287-.017 1.094-.8 1.025-.993-.032-.089-.272.053-.534.317m10.522.207c.732.779.179 1.429-.837.985-.61-.267-.854-.695-.396-.695.127 0 .323-.112.437-.25.274-.33.081-.316-.516.036-.67.396-.608.619.288 1.04l.771.363.469-.45c.497-.476.35-1.044-.341-1.324-.137-.056-.082.075.125.295m-5.87.134c.179.198.303.52.278.716-.041.315-.026.324.13.071.199-.322-.064-.889-.487-1.051-.163-.063-.136.026.079.264m-.391 3.757c-.118.128-.418.238-.666.244-1.04.027-1.121.273-.119.362 1.111.098 1.245.039 1.1-.481-.084-.303-.133-.323-.315-.125"/></g></svg>