<svg xmlns="http://www.w3.org/2000/svg" role="img" viewBox="-7.99 -7.99 415.74 220.49"><title>ProphetStor Federator.AI (AIOPs) logo</title><g fill-rule="evenodd"><path fill="#a6b729" d="M112.027 33.365l-.666.406v51.224l.696.696.696.696h4.652c5.113 0 6.9-.378 7.165-1.514.056-.237.123-8.634.15-18.659.055-20.287-.047-18.903 1.447-19.612.645-.306 2.454-.338 19.325-.338h18.613l.445-.474c.709-.754.695-11.841-.016-12.434-.742-.619-51.491-.61-52.507.009m167.297 27.234c-1.687.854-1.515-1.234-1.58 19.255-.063 20.003.001 18.998-1.249 19.923-.574.425-.706.428-19.58.53-18.32.099-19.017.116-19.432.492-.419.38-.431.552-.431 6.298v5.908l.666.406c.653.398 1.105.405 26.269.406l25.604.001.445-.474.445-.474-.001-25.677c0-25.238-.007-25.69-.406-26.343l-.406-.666h-4.762c-4.376.001-4.829.034-5.582.415"/><path fill="#0e0e0e" d="M0 102.354v102.354h400V0H0v102.354m164.993-69.909c1.223.633 1.23.671 1.23 7.027 0 6.442-.075 6.879-1.314 7.634-.605.369-1.398.385-19.423.386h-18.792l-.348.768c-.317.698-.357 2.423-.45 19.089-.091 16.277-.14 18.401-.433 19.038-.775 1.683-1.438 1.84-7.809 1.841-5.84.001-6.451-.138-7.487-1.703l-.546-.825-.053-26.096c-.06-29.392-.223-26.594 1.573-27.148 1.451-.447 52.988-.457 53.852-.011m-.187 25.721c2.884.864 2.88.84 2.808 15.967-.067 14.059-.003 13.461-1.535 14.222-.924.459-26.235.726-27.725.293-1.586-.462-1.507.323-1.507-14.851 0-15.893-.106-15.182 2.355-15.674 1.281-.256 24.737-.217 25.604.043m50.953.55c1.002 1.002 1.025 1.324 1.025 14.57s-.023 13.567-1.025 14.569l-.579.579h-12.83c-14.591 0-13.631.115-14.544-1.75l-.507-1.037.056-12.578c.062-13.995.021-13.592 1.457-14.511.63-.404.955-.414 13.507-.417l12.861-.004.579.579m74.337-.02c.33.195.828.812 1.107 1.371l.506 1.016v26.009c-.001 25.435-.01 26.024-.401 26.665-.841 1.379 1.06 1.289-27.378 1.288-28.052-.001-26.877.05-28.153-1.226l-.772-.772V100.88l.676-.676c1.372-1.372.818-1.338 21.401-1.316 10.177.011 18.572-.057 18.656-.151.572-.638.617-2.011.63-19.24.015-20.766-.026-20.397 2.298-20.918 1.689-.378 10.748-.286 11.43.117m-26.739.129c.644.194.927.441 1.33 1.161l.513.915v12.896c0 14.519.058 13.951-1.485 14.463-1.018.338-24.607.507-25.804.185-2.773-.747-2.724-.462-2.655-15.333l.056-12.037.504-.734c.276-.404.871-.973 1.32-1.265l.817-.529 12.293.015c8.957.012 12.514.083 13.111.263m-219.099 69.55c.597.125 1.223.347 1.392.493.169.146.722.371 1.228.5 2.129.544 2.267.624 2.661 1.543.218.507.637 1.032.99 1.241 1.154.681 1.155.69 1.22 9.914.071 10.094.21 9.39-2.372 11.986-2.06 2.072-2.612 2.355-4.849 2.488-.903.053-1.941.188-2.307.3l-.665.203v18.791l-.735.671c-1.059.966-1.19 1.015-3.026 1.129-1.244.077-1.859.021-2.439-.222-1.469-.615-1.39.844-1.328-24.345.061-24.631-.03-22.883 1.26-24.254l.626-.666h3.63c1.996 0 4.117.103 4.714.228m222.642.28c.255.324.811.616 1.536.804 1.538.401 1.883.613 2.186 1.344.148.356.544.76.921.939 1.092.519 1.212 1.008 1.293 5.293.089 4.708.036 5.029-1.022 6.177-1.172 1.271-2.378 1.287-4.811.062-2.182-1.098-2.315-1.365-2.315-4.635 0-2.122-.05-2.49-.38-2.788-.814-.737-.951-.056-.944 4.662.008 4.945.09 5.328 1.442 6.781.585.627 1.018 1.329 1.169 1.894.191.716.374.953.907 1.176.612.256 1.011.834 1.363 1.981.059.192.468.533.908.757.667.34.875.61 1.254 1.624.251.669.722 1.473 1.049 1.786 1.25 1.197 1.318 1.694 1.318 9.609 0 8.028.012 7.955-1.447 8.773-.445.249-.944.745-1.117 1.109-.656 1.385-2.537 1.804-7.262 1.619-3.498-.138-4.296-.371-5.038-1.471-.303-.45-.952-1.101-1.442-1.447-1.201-.849-1.366-1.569-1.38-6.024-.019-5.767.359-6.46 3.437-6.305 3.787.19 4.484 1.02 4.769 5.683.176 2.888.314 3.37.896 3.147.542-.208.618-7.273.118-10.979-.118-.876-.219-1.03-.945-1.436-.615-.344-.89-.674-1.126-1.347-.202-.576-.559-1.061-1.004-1.366-.381-.26-.966-.962-1.302-1.56-.336-.599-1.011-1.503-1.499-2.009-.608-.631-.951-1.203-1.087-1.817-.142-.637-.409-1.068-.927-1.495-1.179-.971-1.249-1.483-1.249-9.082 0-7.476.028-7.648 1.336-8.142.379-.143.68-.479.877-.98.339-.864.932-1.233 2.598-1.615.619-.142 1.268-.382 1.443-.534.951-.826 4.869-.961 5.477-.188m-224.903 7.281l-.48.196.094 6.499c.101 7.031.137 7.321.909 7.515.789.198.776.325.776-7.225 0-7.86.059-7.54-1.299-6.985m32.074 4.395c.514.433.936.545 2.651.709 2.317.221 2.952.445 3.347 1.182.152.285.62.735 1.04.999.611.386.825.699 1.081 1.577.218.753.474 1.179.815 1.362.93.497 1.13 1.321 1.129 4.639-.001 3.525-.18 4.36-1.141 5.321-.385.385-.704.904-.709 1.154-.005.25-.129.79-.276 1.201-.396 1.108.235 3.512 1.116 4.253.906.762 1.001 1.491 1.006 7.715.006 7.062.108 6.887-4.191 7.165-4.001.258-3.984.289-3.992-7.598-.007-6.908.08-6.484-1.431-6.924-1.595-.464-1.525-.757-1.64 6.801-.08 5.258-.163 6.787-.382 7.051-.969 1.165-6.384.863-7.387-.412-.636-.808-.66-33.549-.026-34.59 1.176-1.927 7.306-3.022 8.99-1.605m64.952.021c.481.462.826.562 2.467.721 2.468.239 2.94.439 3.379 1.434.221.5.531.847.824.92.888.223 1.418 1.144 1.699 2.954.151.972.466 2.042.742 2.525.756 1.323.732 5.834-.035 6.437-.397.312-.583.745-.792 1.84-.44 2.31-1.565 3.658-3.552 4.256-.513.154-1.062.465-1.22.691-.448.639-1.264.966-2.822 1.131-1.857.195-1.733-.267-1.736 6.463-.004 6.297-.095 6.974-.998 7.429-1.528.77-6.162.516-6.933-.38l-.466-.542.01-16.928c.01-18.293-.035-17.567 1.144-18.543 1.342-1.111 7.251-1.402 8.289-.408m28.215.07c.374.334.737.633.807.666.07.032.426.425.79.873l.663.814v11.904l.709.687.71.688.212-.558c.128-.339.212-2.908.213-6.533.001-6.748.07-7.207 1.216-8.115 1.494-1.183 4.771-1.304 5.787-.213.21.225.459.409.555.409.8 0 .834.733.834 18.29v16.897l-.466.542c-.771.896-5.405 1.15-6.933.38-.905-.456-.994-1.129-.994-7.467 0-3.571-.084-6.113-.212-6.451l-.212-.558-.71.687-.709.688v11.709l-.767.747c-1.654 1.609-5.614 1.609-7.267 0l-.768-.747v-32.817l.691-.873c1.869-2.362 4.288-3.044 5.851-1.649m41.691.059c.921.98 1.102 1.431 1.101 2.75-.004 3.201-.585 3.75-3.975 3.75-1.979 0-2.725.078-3.284.345l-.724.345v7.013l.724.345c.437.208 1.225.345 1.995.345 2.096 0 3.72 1.435 4.169 3.684.261 1.303-2.3 3.48-4.093 3.48-1.157 0-1.296.053-2.019.758l-.776.758v6.888l.525.199c.289.11 1.077.2 1.752.2 2.82 0 4.274 1.047 4.584 3.3.335 2.431-1.232 3.048-7.719 3.041-5.312-.006-6.111-.137-7.177-1.174l-.767-.747v-32.817l.691-.873c.38-.48 1.083-1.184 1.564-1.564l.873-.691h11.93l.626.665m31.152.088c3.296 1.651 2.873 5.342-.716 6.246-1.864.469-1.699-.995-1.699 15.011 0 15.989.106 14.965-1.595 15.448-1.291.366-4.387.497-5.224.221-1.451-.479-1.369.443-1.369-15.475 0-16.445.203-14.972-2.08-15.076-1.81-.083-2.09-.26-3.026-1.919-1.133-2.007-.922-2.773 1.237-4.489l.901-.716 6.033-.002 6.033-.002 1.505.753m62.459-.535c2.026.467 3 1.942 2.668 4.04-.329 2.081-.853 2.614-2.781 2.824-1.85.202-1.711-1.01-1.711 14.871 0 17.282.409 15.752-4.21 15.765-4.568.012-4.176 1.483-4.18-15.674-.003-16.027.133-14.879-1.763-14.879-2.082 0-2.635-.547-2.875-2.839-.179-1.71.034-2.546.89-3.499l.742-.827 6.159.005c3.421.003 6.56.097 7.061.213m55.901.003c.505.117 1.059.339 1.23.494.171.155 1.35.417 2.62.583 2.474.323 3.234.649 3.441 1.476.082.326.424.667.922.921 1.52.776 1.514.746 1.514 7.657 0 6.772-.032 6.972-1.256 7.795l-.642.433.573.216c1.261.476 1.318.84 1.39 8.888.074 8.363.041 8.587-1.328 8.967-1.961.544-4.325.128-5.441-.959l-.768-.747v-4.603c0-4.979-.205-6.648-.954-7.785l-.462-.7-.213.56c-.13.342-.213 2.91-.213 6.596 0 7.972.153 7.692-4.21 7.705-2.709.007-3.477-.204-3.919-1.075-.393-.777-.381-33.511.012-34.453.768-1.836 4.329-2.746 7.704-1.969m-27.025 1.218c1.215.165 1.395.257 2.179 1.111.47.511.954.93 1.076.93.321 0 .76.952 1.059 2.3.183.824.403 1.268.74 1.489l.48.314v23.74l-.497.432c-.302.262-.593.845-.74 1.483-.323 1.399-.659 1.89-1.483 2.162-.474.156-.796.453-1.033.951-.483 1.013-1.288 1.284-4.266 1.436-5.142.263-7.193-.266-8.453-2.183-.437-.665-1.018-1.417-1.291-1.672-1.215-1.135-1.167-.601-1.232-13.852-.069-14.336-.116-13.878 1.614-15.646.662-.677 1.256-1.394 1.319-1.594.475-1.496 5.199-2.125 10.528-1.401m-219.698.27c.364.19.816.579 1.002.864.187.285.601.653.92.818.705.365 1.102 1.1 1.29 2.392.077.535.208.972.289.972.799 0 .851.783.851 12.861v11.673l-.487.578c-.268.319-.596 1.104-.729 1.747-.165.795-.411 1.317-.772 1.637-.291.259-.921.856-1.4 1.327-1.12 1.102-1.573 1.188-6.234 1.179-3.369-.007-3.889-.054-4.714-.427-.875-.396-2.655-2.206-2.655-2.699 0-.119-.366-.638-.812-1.154-1.266-1.462-1.257-1.348-1.192-14.49.064-12.98.044-12.747 1.235-13.938.265-.266.828-1.004 1.251-1.641 1.295-1.951 2.137-2.184 7.604-2.104 3.179.047 4.01.121 4.553.405M73 147.509c-.068.178-.124 1.865-.124 3.748 0 4.138.016 4.174 1.663 3.881l1.152-.206.128-.934c.162-1.186.14-4.185-.041-5.358-.175-1.14-2.423-2.055-2.778-1.131m32.659-.067c-.17.171-.234 3.434-.234 11.971 0 12.825-.064 12.188 1.17 11.777l.57-.19v-23.273l-.636-.259c-.477-.195-.694-.201-.87-.026m32.451-.12c-.285.284-.154 7.578.14 7.822 1.069.887 1.921-2.81 1.352-5.862-.288-1.547-.987-2.465-1.492-1.96m188.43.119c-.336.336-.336 23.513 0 23.848.177.177.372.165.789-.051.771-.398.818-1.089.818-11.873 0-10.784-.047-11.474-.818-11.873-.417-.215-.612-.228-.789-.051m32.561-.012c-.373.373-.347 7.403.029 7.714.684.568 1.69-2.328 1.504-4.33-.208-2.226-.982-3.935-1.533-3.384"/><path fill="#bbb" d="M139.765 61.222l-.768.405v23.279l.843.843.843.843h23.28l.414-.811c.614-1.205.651-24.09.039-24.644-.632-.572-23.557-.493-24.651.085M35.412 130.86c-.397.652-.405 1.095-.406 22.732l-.001 22.066.503.503c.743.743 2.678.728 3.576-.028l.629-.53v-9.418c0-11.636-.394-10.564 4.055-11.023 1.025-.105 1.863-.303 2.066-.486.187-.17.844-.574 1.46-.899.911-.482 1.234-.803 1.734-1.728.337-.625.798-1.34 1.023-1.589.389-.429.413-.793.481-7.339.085-8.173.204-7.58-2.323-11.535-.716-1.121-2.21-1.39-7.731-1.391l-4.66-.001-.406.666m225.009-.3c-.798.232-1.241.51-1.637 1.027-.3.39-.928 1.151-1.397 1.692-1.202 1.387-1.352 2.261-1.266 7.356l.071 4.196.968 2.051c.533 1.128 1.031 2.364 1.108 2.747.085.426.47 1.02.992 1.531.469.46 1.047 1.158 1.284 1.552.237.394.72.993 1.074 1.331.354.338.975 1.167 1.381 1.842.406.676 1.034 1.523 1.397 1.884.626.621 1.306 2.38 2.122 5.486.636 2.422.046 7.045-1.048 8.223-1.816 1.953-4.262-.413-4.262-4.121 0-1.8-1.202-2.976-3.04-2.976h-1.251l-.413.81c-1.698 3.329.452 9.147 4.018 10.873 1.317.638 5.92.712 7.019.113.979-.533 3.656-3.318 4.015-4.176.806-1.93.289-12.389-.651-13.169-.172-.143-.718-1.126-1.212-2.184-.495-1.057-1.137-2.11-1.429-2.339-.291-.229-.805-.905-1.142-1.501-.336-.597-.827-1.226-1.09-1.399-.264-.172-.688-.664-.943-1.091-.255-.428-.812-1.147-1.238-1.597-.623-.66-.877-1.194-1.312-2.748-.296-1.061-.672-2.186-.834-2.501-1.82-3.52.739-10.501 3.251-8.869 1.809 1.175 1.779 1.11 1.779 3.814v2.42l.849.615c1.196.866 3.192.906 3.844.076.482-.612.617-5.03.209-6.8-.826-3.583-6.269-5.606-11.216-4.168m-214.445.665c1.11.422 2.125 1.764 2.553 3.374.337 1.272.505 13.041.208 14.667-.428 2.344-.75 3.311-1.154 3.458-.751.274-3.265.787-4.983 1.018-1.33.178-1.878.354-2.42.777-1.326 1.037-1.285.676-1.285 11.38 0 11.112.166 10.229-1.9 10.109l-1.069-.061-.052-22.211c-.029-12.216-.009-22.326.044-22.467.125-.327 9.208-.367 10.058-.044m221.21.001c.441.123.954.472 1.228.837.259.344.977 1.179 1.596 1.856l1.126 1.229.068 2.559c.095 3.531.091 3.542-1.313 3.542-1.908 0-1.928-.029-1.929-2.925 0-2.735-.293-3.641-1.297-4.023-.263-.1-.914-.558-1.445-1.018-1.25-1.082-1.135-1.115-3.113.873-2.031 2.04-2.115 2.287-2.122 6.229-.006 2.969.176 3.721 1.11 4.587.407.378.626.892.859 2.022.398 1.919.535 2.164 1.46 2.599.436.206.784.53.822.766.144.9.527 1.538 1.141 1.901.424.25.889.859 1.351 1.768.388.767 1.005 1.618 1.378 1.902.44.336.752.807.9 1.361.492 1.841.857 2.601 1.481 3.089l.649.508.062 4.965c.069 5.565.051 5.734-.672 6.063-.284.129-.696.537-.916.905-.22.368-.795.951-1.279 1.296-.484.344-.969.825-1.079 1.069-.523 1.159-5.57 1.158-6.17-.001-.193-.374-.662-.759-1.228-1.01-.774-.342-.991-.576-1.407-1.516-.302-.684-.683-1.199-.99-1.339-.573-.261-.753-1.115-.753-3.573 0-2.094.03-2.138 1.423-2.138 1.606 0 1.784.24 1.895 2.559.16 3.363 1.884 5.11 4.651 4.711 2.491-.358 3.13-1.432 3.25-5.468.141-4.708-.034-5.967-.975-6.997-.529-.579-.851-1.188-1.029-1.941-.199-.842-.489-1.337-1.246-2.131-.542-.569-1.098-1.319-1.235-1.667-.295-.748-.975-1.553-1.313-1.553-.33 0-.838-.613-1.019-1.228-.172-.586-.886-1.432-1.213-1.437-.536-.007-.747-.438-1.041-2.121-.38-2.181-.694-2.972-1.46-3.682l-.585-.543v-8.352l.587-.463c.324-.254.712-.758.863-1.119.373-.894 2.248-2.912 2.806-3.02.942-.183 5.397-.132 6.123.069m-225.459 1.709c-.866.186-1.358.442-1.945 1.012l-.785.762-.058 7.927c-.072 9.702-.233 9.221 3.13 9.308 2.033.053 2.763-.255 3.063-1.293.116-.402.357-.955.535-1.228.727-1.115.802-1.828.799-7.642l-.003-5.752-1.701-1.689c-.936-.929-1.741-1.681-1.789-1.672-.047.01-.608.129-1.246.267m2.309 2.148l.795.795-.012 6.217c-.014 7.192-.103 8.031-.923 8.736-.776.668-2.893.565-3.685-.179l-.498-.467v-7.204c0-8.206-.027-8.069 1.696-8.455 1.517-.34 1.787-.283 2.627.557m23.467 7.281l-.768.537v32.893l1.01.435c1.407.605 3.069.593 3.647-.026.415-.446.432-.687.497-7.216.081-8.148.213-8.622 2.271-8.179 2.579.555 2.806 1.274 2.808 8.911l.002 6.054.5.47c.614.576 2.588.534 3.867-.083l.784-.378-.09-5.649c-.101-6.361-.82-10.051-1.958-10.051-.679 0-.593-.856.175-1.743.448-.517.869-1.189.935-1.492.067-.304.259-1.013.427-1.576 1.068-3.568.274-9.917-1.363-10.909-.282-.171-.839-.674-1.237-1.117-.94-1.048-1.508-1.159-6.646-1.303l-4.094-.114-.767.536m64.739-.281c-1.541.451-1.433-.843-1.433 17.273 0 18.397-.182 16.669 1.795 17.045.696.132 1.457.136 2.145.011 1.946-.354 1.791.217 1.791-6.622 0-7.516.276-8.338 2.886-8.605.608-.062 1.337-.193 1.618-.292.281-.098.924-.283 1.428-.413 1.475-.377 3.547-2.631 3.862-4.199.362-1.801.305-7.592-.092-9.337-.433-1.901-2.604-4.254-4.303-4.663-1.323-.319-8.765-.47-9.697-.198m31.004.282l-.503.503v32.982l.665.406c1.004.612 2.681.558 3.563-.115l.685-.522.024-6.387c.031-8.202.027-8.187 2.367-8.464 2.474-.293 2.727.547 2.727 9.064 0 6.791-.154 6.227 1.792 6.58 1.099.2 2.978-.026 3.479-.418.388-.303.373-33.165-.015-33.487-.595-.494-2.326-.724-3.487-.464-1.818.407-1.733.052-1.815 7.498-.08 7.139-.156 7.656-1.207 8.2-.809.418-2.496.191-3.222-.434l-.541-.464-.102-6.963-.102-6.962-.497-.527c-.722-.769-3.053-.785-3.811-.026m32.548 0l-.502.503v32.982l.665.406c.611.373 1.041.406 5.307.406l4.641.001.61-.513.61-.513-.304-1.166c-.389-1.489-.662-1.681-2.42-1.7-4.102-.044-4.204-.183-4.172-5.689.035-6.217.016-6.181 3.494-6.337 2.012-.09 2.142-.124 2.766-.716l.654-.62-.384-.752c-.549-1.078-.741-1.174-2.562-1.296-3.801-.254-3.992-.546-3.992-6.096 0-5.955.34-6.332 5.725-6.332h2.264l.406-.665c1.344-2.204.819-2.405-6.267-2.405h-6.036l-.503.502m30.215-.002c-1.005 1.07.052 2.57 1.811 2.57 2.703 0 2.682-.132 2.682 16.886v13.954l.473.445c.662.622 2.38.614 3.629-.015l.913-.461.102-14.125.103-14.125.478-.769c.263-.423.908-1.014 1.433-1.313 1.019-.579 2.202-1.592 2.501-2.142.142-.26.004-.453-.626-.87l-.809-.535h-12.22l-.47.5m62.943.031c-.801 1.222.086 2.539 1.709 2.539 1.395 0 2.037.451 2.691 1.893.378.833.396 1.481.4 14.92.003 10.991.06 14.092.26 14.248.841.654 3.955.64 5.028-.024.184-.113.244-3.58.246-14.211l.002-14.062.493-1.059c.548-1.178.924-1.483 2.593-2.103 2.004-.745 2.044-1.952.082-2.446-.555-.14-3.237-.226-7.027-.226H289.3l-.348.531m64.107-.26c-.429.14-.866.39-.97.555-.313.495-.254 33.06.06 33.305.861.669 4.389.617 5.073-.076.096-.097.209-3.078.251-6.624.083-6.915.186-7.69 1.097-8.287.813-.533 1.385-.244 2.648 1.339 1.44 1.805 1.515 2.238 1.521 8.742l.004 4.762.665.406c.987.602 2.799.566 3.394-.067.436-.464.445-.596.445-6.438 0-6.666-.14-7.865-1.008-8.646-1.421-1.278-1.504-2.125-.326-3.31 1.307-1.315 1.942-8.323 1.028-11.34-.396-1.304-2.759-3.542-4.312-4.083-1.323-.46-8.36-.636-9.57-.238m-249.988.324c-1.437.668-3.007 2.399-3.546 3.908-.262.732-.63 1.7-.819 2.15-.301.717-.352 1.97-.407 10.133-.069 10.138-.004 10.975 1.002 12.86.328.615.597 1.285.597 1.49 0 .479 1.805 2.302 3.07 3.101 1.685 1.064 6.83.592 8.462-.776 2.824-2.368 2.627-1.067 2.551-16.91-.068-14.218.008-13.486-1.473-14.23-.349-.176-.957-.624-1.351-.997-1.207-1.142-6.227-1.595-8.086-.729m221.157-.106c-1.07.382-2.936 2.102-3.579 3.298-.302.563-.719 1.268-.927 1.567-.355.512-.377 1.205-.377 12.089v11.546l.523.705c.287.388.687 1.074.888 1.526.341.768 2.239 2.619 3.201 3.124 1.766.926 6.886.378 7.977-.854.338-.381.999-.929 1.468-1.218 1.5-.925 1.501-.932 1.501-14.716 0-13.501-.039-13.984-1.191-14.86-.396-.301-1.083-.885-1.528-1.297-1.21-1.123-5.868-1.656-7.956-.91m-246.592.625c.197.087.358.281.358.432 0 .468.938 1.391 1.663 1.635.905.304 1.18 1.645 1.193 5.826.016 4.577-.282 6.291-1.156 6.657-1.548.646-1.583 2.864-.057 3.627 1.006.504 1.194 1.882 1.21 8.9.015 6.338.115 5.998-1.765 5.992-1.552-.005-1.46.424-1.534-7.164-.084-8.739-.188-9.005-3.539-9.005-2.726 0-2.646-.25-2.771 8.7l-.102 7.37-1.172.061c-2.224.116-2.001 1.983-2.001-16.735 0-12.884.054-16.377.256-16.467.378-.17 8.998-.013 9.417.171m31.115-.08c.422.117.768.331.768.474 0 .354 1.55 1.352 2.555 1.647 1.158.339 1.158.335 1.077 14.832-.075 13.436-.076 13.444-.997 13.646-.329.072-.849.338-1.156.591-.307.253-.728.522-.936.598-.207.076-.426.323-.485.549-.143.549-.844.716-2.924.696-2.588-.026-3.141-.173-3.419-.909-.161-.425-.476-.712-1.017-.925-1.346-.529-1.353-.541-1.788-2.769-.382-1.963-.416-2.93-.421-11.962-.006-10.002.013-10.336.81-13.938.059-.267.402-.549.908-.748.502-.197.974-.583 1.229-1.005.337-.556.581-.708 1.289-.808 1.481-.208 3.701-.193 4.507.031m32.412-.035c.745.213 4.081 3.423 4.383 4.216.224.591.281 7.334.076 9.042-.119.995-.171 1.072-.929 1.37-.619.243-.883.505-1.151 1.146-.417.995-.368.977-3.27 1.23-3.32.289-3.422.355-4.938 3.184-.273.51-.346 1.636-.431 6.653l-.103 6.039-.693.066c-.382.037-.911.012-1.177-.055l-.484-.121v-32.554l.461-.185c.598-.24 7.437-.266 8.256-.031m25.474 7.129c.131 8.849.133 8.853 3.394 8.86 1.892.004 2.544-.244 3.383-1.288l.69-.859.103-6.858.102-6.857.717-.173c.445-.107.929-.09 1.279.046l.563.219v16.257c0 18.071.132 16.51-1.399 16.503-1.284-.005-1.231.284-1.3-7.063l-.065-6.751-.614-.782c-.88-1.121-1.472-1.368-3.285-1.368-3.438 0-3.415-.058-3.528 8.803-.064 4.964-.16 7.107-.323 7.212-.283.183-2.018.206-2.468.033-.344-.132-.52-32.774-.179-33.115.079-.08.747-.118 1.484-.086l1.339.06.107 7.207m41.654-6.798c0 .389-.177.416-3.48.531-5.52.192-5.779.59-5.589 8.599.138 5.811.488 6.292 4.594 6.314 1.722.01 2.099.069 2.205.345.267.697-.233.86-2.855.93-3.879.103-3.937.214-3.97 7.602-.026 5.807.86 6.889 5.65 6.896 1.123.002 1.829.97 1.061 1.457-.452.286-9.26.228-9.551-.064-.27-.269-.374-32.72-.106-32.988.403-.403 12.041-.038 12.041.378m30.507-.298c.235.38-.282.738-1.439.997-3.041.681-2.968.247-2.968 17.55 0 16.24.214 14.682-2.001 14.566l-1.172-.061-.102-15.046c-.123-18.096.046-17.185-3.203-17.193-1.237-.003-1.727-.298-1.392-.84.167-.27 12.11-.243 12.277.027m62.891-.084c.701.187.558.415-.512.814-1.378.515-1.906.892-2.246 1.606-.164.343-.473.946-.688 1.34-.375.686-.392 1.322-.392 14.898v14.181l-.61.122c-.335.067-.659.122-.721.122-.062 0-.386-.055-.721-.122l-.61-.122v-28.312l-.82-1.487c-.986-1.785-1.581-2.146-3.539-2.146-1.31 0-1.806-.283-1.463-.837.126-.205 11.573-.258 12.322-.057m27.931.083c.415.115.81.368.876.562.133.389 1.437 1.265 2.597 1.745 1.025.424 1.028.483.952 14.89-.071 13.405.016 12.649-1.551 13.505-1.615.882-1.999 1.162-2.195 1.596-.304.674-1.362.931-3.205.777-2.42-.202-2.721-.295-3.001-.927-.137-.31-.502-.68-.81-.822-1.552-.713-1.573-.732-1.716-1.554-.077-.447-.26-1.09-.406-1.428-.337-.777-.51-19.853-.202-22.21.386-2.955.893-4.291 1.635-4.306.48-.009.937-.409 1.324-1.158.272-.525.488-.668 1.106-.733 1.619-.169 3.871-.138 4.596.063m32.376-.019c.279.106.569.386.643.621.075.236.521.669.99.963.47.293 1.315 1.004 1.878 1.579l1.023 1.045v8.32l-.636.548c-2.031 1.749-2.211 4.071-.464 5.973 1.177 1.281 1.203 1.446 1.203 7.89 0 6.458.054 6.237-1.526 6.232-1.591-.005-1.499.369-1.589-6.446-.092-6.953-.063-6.808-1.703-8.462-1.804-1.818-3.782-1.744-5.124.191l-.601.866-.064 6.73-.064 6.73-.596.119c-.731.146-.686.147-1.43-.002l-.609-.122v-32.572l.46-.185c.616-.248 7.565-.263 8.209-.018m-289.589 1.243c-.954.75-1.066 1.506-1.066 7.161 0 6.894.379 7.786 3.054 7.187 2.622-.587 3.191-1.874 3.177-7.187-.012-4.421-.15-5.03-1.27-5.628-.424-.226-.919-.627-1.101-.893-.664-.967-1.992-1.271-2.794-.64m64.719.138c-.297.184-.895.942-1.33 1.683l-.791 1.349-.067 3.695-.067 3.696.8 1.524c1.437 2.739 3.33 3.224 4.757 1.221.241-.34.555-.617.697-.617 1.995 0 2.147-10.055.165-10.898-.304-.13-.93-.632-1.391-1.117-.937-.988-1.782-1.151-2.773-.536m221.216.037c-.563.257-1.043.719-1.535 1.479l-.717 1.106-.062 4.095-.063 4.094.703 1.331c1.342 2.542 3.644 3.008 4.445.899.101-.263.502-.612.893-.776 1.266-.529 1.446-1.17 1.441-5.139-.004-3.945-.197-4.716-1.357-5.415-.373-.224-1.061-.779-1.531-1.232-.967-.935-1.086-.959-2.217-.442m-253.442.487c-.697.826-1.032 1.614-1.218 2.859-.079.531-.278 1.077-.442 1.214-.864.716-.886.978-.886 10.516 0 9.35.013 9.51.815 10.437.195.225.453.916.573 1.535.651 3.36 2.857 4.164 5.204 1.897 1.16-1.122 1.187-1.438 1.186-14.036-.001-13.671-.052-13.926-2.95-14.787-1.424-.422-1.648-.387-2.282.365m220.917.013c-.351.373-.821 1.041-1.045 1.484-.224.443-.593 1.021-.819 1.283-.399.462-.413.799-.473 11.007l-.062 10.531.513.968c.282.532.611 1.355.732 1.829s.311.918.422.987c.112.068.333.437.493.82.447 1.069 2.396 1 3.081-.11.072-.115.439-.339.817-.497 1.49-.623 1.427-.08 1.5-13.106.08-14.482.041-14.696-2.873-15.562-1.44-.427-1.557-.408-2.286.366m-252.036.524c.061.098.615.418 1.231.709 1.755.831 1.84 1.058 1.913 5.138.08 4.401-.069 4.769-2.292 5.666-1.614.652-1.605.654-2.22-.498-.559-1.046-.803-7.653-.343-9.294.393-1.404 1.327-2.343 1.711-1.721m65.997.887c1.78 1.159 1.88 1.444 1.88 5.33 0 3.638.03 3.562-1.972 4.962l-1.355.947-.513-.472c-1.884-1.734-1.889-9.989-.007-11.308.59-.412.442-.453 1.967.541m220.625.019c2.078 1.432 2.755 3.742 2.117 7.219-.245 1.338-.365 1.511-2.088 3.006l-1.186 1.028-.493-.463c-1.883-1.769-1.991-9.616-.153-11.062.662-.52.651-.522 1.803.272m-253.184-.159c2.026.602 1.891-.354 1.891 13.318v11.936l-.461.531c-.298.344-.893.643-1.684.849l-1.223.317-.555-.621c-1.035-1.158-1.065-1.471-1.151-12.005-.116-14.103.135-15.23 3.183-14.325m220.916.03c.713.23 1.204.547 1.507.972l.45.631v11.602c0 13.4.168 12.354-2.123 13.252l-1.26.494-.535-.494c-1.19-1.097-1.187-1.067-1.266-11.65-.092-12.379-.034-13.286.93-14.352.821-.909.864-.918 2.297-.455"/><path fill="#7d7d7d" d="M139.455 59.801c-1.787.686-1.688-.131-1.675 13.833.013 13.716-.009 13.481 1.319 13.98 1.41.529 24.507.562 25.486.036 1.611-.865 1.625-.985 1.632-14.266l.006-11.672-.505-.743c-1.149-1.691-.417-1.605-13.542-1.593-11.182.01-11.687.027-12.721.425m49.611.808l-.53.63v23.983l.523.685.522.685H215.14l.414-.811c.4-.785.413-1.176.413-12.495 0-11.32-.013-11.71-.413-12.496l-.414-.81h-25.544l-.53.629m-24.65.528c.612.554.575 23.439-.039 24.644l-.414.811h-23.28l-.843-.843-.843-.843V61.627l.768-.405c1.094-.578 24.019-.657 24.651-.085m73.491.135l-.445.474v11.539c0 11.286.009 11.559.427 12.423l.428.884H261.6l.827-.788.828-.787V61.626l-.811-.414c-.785-.401-1.175-.414-12.451-.414h-11.641l-.445.474M35.568 129.801c-1.004.585-.972-.179-.972 23.736v22.339l.598.598c.998.998 3.429.852 4.673-.281l.461-.42v-9.458c0-7.324.057-9.503.255-9.658.519-.406 1.735-.706 3.47-.858 1.561-.137 1.889-.238 2.661-.817.484-.364 1.185-.841 1.558-1.06.372-.22.833-.683 1.023-1.029.191-.346.599-.954.907-1.351.904-1.164.973-1.793.974-8.923.001-7.572-.064-8.062-1.31-9.825-2.18-3.086-2.559-3.217-9.329-3.207-2.749.003-4.755.09-4.969.214m224.755.161c-1.266.37-1.396.469-3.095 2.384-1.419 1.6-1.568 2.168-1.695 6.458-.149 5.044.327 8.1 1.462 9.397.152.173.485.897.742 1.609.33.918.668 1.448 1.163 1.826.383.292.876.882 1.095 1.311.218.428.809 1.243 1.313 1.81.503.567 1.054 1.299 1.224 1.628.17.329.75 1.101 1.288 1.717 2.5 2.856 2.615 13.648.146 13.648-.94 0-1.735-2.006-1.735-4.38 0-4.228-5.495-5.631-6.576-1.679-.845 3.087.141 7.141 2.232 9.175 2.101 2.045 2.822 2.276 6.766 2.17 3.302-.088 3.414-.133 5.535-2.216 2.162-2.124 2.155-2.1 2.24-7.722.093-6.146-.188-8.023-1.401-9.37-.203-.225-.617-1.034-.921-1.796-.351-.88-.797-1.59-1.221-1.945-.367-.307-.958-1.033-1.312-1.613-.354-.58-.871-1.203-1.149-1.385-.277-.182-.736-.787-1.019-1.345-.282-.558-.787-1.217-1.122-1.464-1.996-1.476-2.781-10.859-1.063-12.714.642-.694.743-.696 1.713-.024l.778.54v4.911l.723.682c1.385 1.306 4.213 1.564 5.228.478 1.403-1.502 1.022-8.338-.531-9.522-.388-.296-.888-.835-1.113-1.197-.999-1.617-6.292-2.366-9.695-1.372m-213.854.609c1.059.297 1.414.505 1.74 1.015 2.527 3.955 2.408 3.362 2.323 11.535-.068 6.546-.092 6.91-.481 7.339-.225.249-.686.964-1.023 1.589-.5.925-.823 1.246-1.734 1.728-.616.325-1.273.729-1.46.899-.203.183-1.041.381-2.066.486-4.449.459-4.055-.613-4.055 11.023v9.418l-.629.53c-.898.756-2.833.771-3.576.028l-.503-.503.001-22.066c.001-21.637.009-22.08.406-22.732l.406-.666 4.66.001c3.892.001 4.88.063 5.991.376m221.093-.051c1.492.419 3.736 2.735 4.075 4.208.408 1.77.273 6.188-.209 6.8-.652.83-2.648.79-3.844-.076l-.849-.615v-2.42c0-2.704.03-2.639-1.779-3.814-2.512-1.632-5.071 5.349-3.251 8.869.162.315.538 1.44.834 2.501.435 1.554.689 2.088 1.312 2.748.426.45.983 1.169 1.238 1.597.255.427.679.919.943 1.091.263.173.754.802 1.09 1.399.337.596.851 1.272 1.142 1.501.292.229.934 1.282 1.429 2.339.494 1.058 1.04 2.041 1.212 2.184.94.78 1.457 11.239.651 13.169-.359.858-3.036 3.643-4.015 4.176-1.099.599-5.702.525-7.019-.113-3.566-1.726-5.716-7.544-4.018-10.873l.413-.81h1.251c1.838 0 3.04 1.176 3.04 2.976 0 3.708 2.446 6.074 4.262 4.121 1.094-1.178 1.684-5.801 1.048-8.223-.816-3.106-1.496-4.865-2.122-5.486-.363-.361-.991-1.208-1.397-1.884-.406-.675-1.027-1.504-1.381-1.842-.354-.338-.837-.937-1.074-1.331-.237-.394-.815-1.092-1.284-1.552-.522-.511-.907-1.105-.992-1.531-.077-.383-.575-1.619-1.108-2.747l-.968-2.051-.071-4.196c-.086-5.095.064-5.969 1.266-7.356.469-.541 1.097-1.302 1.397-1.692.998-1.301 5.844-1.89 8.778-1.067m-226.153 4.006c-1.723.386-1.696.249-1.696 8.455v7.204l.498.467c.792.744 2.909.847 3.685.179.82-.705.909-1.544.923-8.736l.012-6.217-.795-.795c-.84-.84-1.11-.897-2.627-.557m2.277.971l.569.593-.07 6.874-.07 6.873-.522.522c-.514.514-.541.518-1.842.26l-1.321-.261-.054-7.14c-.06-7.915-.124-7.539 1.36-7.995 1.295-.399 1.307-.397 1.95.274m24.254 5.829c-2.446.874-2.249-.78-2.183 18.346l.057 16.275 1.111.563c.914.463 1.38.563 2.624.563 2.873 0 2.792.225 2.918-8.086.125-8.276.088-8.156 2.187-7.179 1.705.794 1.702.783 1.702 7.694 0 6.19.041 6.517.894 7.208.883.715 3.971.423 5.299-.501l.563-.392v-10.008l-.909-2.685c-.578-1.711-1.099-2.885-1.435-3.235l-.527-.551.492-.461c2.042-1.919 2.998-9.268 1.587-12.204-.379-.788-.79-1.648-.914-1.91-.123-.263-.504-.676-.846-.919-.342-.242-.946-.78-1.343-1.195-.801-.839-.722-.816-4.294-1.28-3.023-.394-5.951-.412-6.983-.043m65.223-.137c-3.235.443-2.969-1.188-2.969 18.165v16.317l.57.569c1.035 1.036 4.793 1.104 5.869.107l.522-.483v-5.898c0-7.203.195-7.825 2.459-7.834.396-.002 1.041-.174 1.433-.382.392-.208 1.201-.54 1.797-.736 1.519-.5 3.389-2.427 3.885-4.003.468-1.488.508-8.413.06-10.435-.449-2.03-3.044-4.607-4.848-4.817-.662-.076-1.849-.269-2.637-.427-1.319-.265-4.678-.343-6.141-.143m30.604 0c-.478.174-1.238.924-1.555 1.534-.456.877-.426 32.628.032 33.282.52.742 1.39 1.068 2.853 1.068 3.1 0 3.173-.172 3.174-7.467.002-7.439.099-7.823 2.081-8.194 1.529-.287 1.808 1.031 1.808 8.542v5.909l.478.479c1.002 1.002 4.876.935 5.913-.102l.569-.569v-16.317c0-16.142-.005-16.324-.424-17.002-.89-1.441-4.88-1.607-6.021-.251l-.515.612v5.986c0 6.127-.17 7.712-.911 8.481-.371.386-1.737-.012-2.378-.694l-.498-.531-.103-6.585c-.114-7.317-.116-7.332-1.527-8.001-.658-.312-2.337-.414-2.976-.18m32.429.053c-.234.095-.672.465-.973.823l-.548.651.053 16.71.052 16.709.696.469c.676.456.828.469 5.588.469 6.302 0 6.949-.257 6.526-2.591-.318-1.762-.999-2.322-2.82-2.322-3.864 0-4.008-.202-3.916-5.5l.067-3.91.647-.646c.608-.608.76-.653 2.568-.771 2.964-.193 4.05-1.193 3.253-2.994-.677-1.532-1.281-1.942-2.864-1.944-1.486-.002-3.328-.684-3.573-1.321-.215-.561-.153-7.469.071-7.887.404-.755 2.26-1.23 4.811-1.23 2.69 0 2.907-.116 3.488-1.866.369-1.112.071-2.139-.796-2.747-.484-.339-11.518-.43-12.33-.102m29.845.24c-2.171 1.39-.91 4.475 1.83 4.475 2.157 0 2.015-1.099 2.016 15.625v14.294l.623.623c.83.83 3.563.801 5.113-.054l.917-.506.103-14.258.102-14.258.512-.549c.281-.301.939-.766 1.461-1.031 2.859-1.456 3.048-3.551.404-4.484-1.562-.551-12.184-.451-13.081.123m62.933.066c-1.719 1.593-.609 4.409 1.737 4.409 1.1 0 1.218.048 1.704.685l.523.684v28.345l.573.574c.98.98 4.71 1.093 5.874.178l.505-.397.055-14.283.055-14.283.557-.729c.434-.57.793-.786 1.637-.984 1.321-.309 1.556-.486 2.03-1.53 1.213-2.665-.243-3.173-9.095-3.173h-5.612l-.543.504m64.569-.284c-.613.108-1.29.357-1.505.551-.989.895-.963.417-.963 17.658v16.198l.569.569c.984.984 4.711 1.1 5.877.184l.514-.405v-5.828c0-7.632.488-9.941 1.767-8.362.271.334.837 1.017 1.256 1.519l.764.912.102 5.761c.082 4.576.163 5.834.395 6.113.918 1.104 3.848 1.348 4.797.399l.54-.54-.001-6.676c-.001-7.422-.05-7.779-1.225-8.926-1.02-.996-1.019-1.127.018-2.252 1.12-1.215 1.199-1.681 1.194-7.064-.004-5.178-.141-5.91-1.256-6.755-.371-.281-.997-.852-1.391-1.268-1.32-1.395-7.889-2.421-11.452-1.788m-249.449.388c-2.189.254-3.757 1.592-5.209 4.445-1.225 2.407-1.273 2.974-1.201 14.219l.064 9.899.488.921c.269.507.749 1.442 1.067 2.079 1.468 2.936 3.529 3.941 7.836 3.818 3.543-.101 3.622-.129 5.619-1.952 1.932-1.763 1.872-1.258 1.875-15.733.004-13.145-.056-14.029-1.023-14.988-2.127-2.113-2.85-2.476-5.374-2.704-2.31-.208-2.383-.208-4.142-.004m220.509.002c-1.612.293-3.321 1.716-4.799 3.996-1.259 1.942-1.322 2.724-1.241 15.277l.065 10.16.738 1.099c.406.605.933 1.428 1.171 1.83 2.006 3.384 9.198 4.379 12.037 1.664.553-.529 1.264-1.146 1.579-1.371.414-.296.711-.833 1.071-1.937l.498-1.529v-11.446c0-14.131.046-13.822-2.403-16.022-1.147-1.031-1.734-1.409-2.375-1.531-1.396-.266-5.282-.383-6.341-.19m-247.231.593c.67.14 1.107.406 1.638.998.398.443.955.946 1.237 1.117 1.637.992 2.431 7.341 1.363 10.909-.168.563-.36 1.272-.427 1.576-.066.303-.487.975-.935 1.492-.768.887-.854 1.743-.175 1.743 1.138 0 1.857 3.69 1.958 10.051l.09 5.649-.784.378c-1.279.617-3.253.659-3.867.083l-.5-.47-.002-6.054c-.002-7.637-.229-8.356-2.808-8.911-2.058-.443-2.19.031-2.271 8.179-.065 6.529-.082 6.77-.497 7.216-.578.619-2.24.631-3.647.026l-1.01-.435v-32.893l.768-.537.767-.536 4.094.114c2.252.063 4.506.201 5.008.305m64.567.034c1.699.409 3.87 2.762 4.303 4.663.397 1.745.454 7.536.092 9.337-.315 1.568-2.387 3.822-3.862 4.199-.504.13-1.147.315-1.428.413-.281.099-1.01.23-1.618.292-2.61.267-2.886 1.089-2.886 8.605 0 6.839.155 6.268-1.791 6.622-.688.125-1.449.121-2.145-.011-1.977-.376-1.795 1.352-1.795-17.045 0-18.116-.108-16.822 1.433-17.273.932-.272 8.374-.121 9.697.198m25.118.11l.497.527.102 6.962.102 6.963.541.464c.726.625 2.413.852 3.222.434 1.051-.544 1.127-1.061 1.207-8.2.082-7.446-.003-7.091 1.815-7.498 1.161-.26 2.892-.03 3.487.464.388.322.403 33.184.015 33.487-.501.392-2.38.618-3.479.418-1.946-.353-1.792.211-1.792-6.58 0-8.517-.253-9.357-2.727-9.064-2.34.277-2.336.262-2.367 8.464l-.024 6.387-.685.522c-.882.673-2.559.727-3.563.115l-.665-.406v-32.982l.503-.503c.758-.759 3.089-.743 3.811.026m41.631-.073c.426.607.401 1.148-.088 1.95l-.406.665h-2.264c-5.385 0-5.725.377-5.725 6.332 0 5.55.191 5.842 3.992 6.096 1.821.122 2.013.218 2.562 1.296l.384.752-.654.62c-.624.592-.754.626-2.766.716-3.478.156-3.459.12-3.494 6.337-.032 5.506.07 5.645 4.172 5.689 1.758.019 2.031.211 2.42 1.7l.304 1.166-.61.513-.61.513-4.641-.001c-4.266 0-4.696-.033-5.307-.406l-.665-.406v-32.982l.502-.503.503-.502h6.036c6.006 0 6.038.002 6.355.455m30.82.08c.63.417.768.61.626.87-.299.55-1.482 1.563-2.501 2.142-.525.299-1.17.89-1.433 1.313l-.478.769-.103 14.125-.102 14.125-.913.461c-1.249.629-2.967.637-3.629.015l-.473-.445v-13.954c0-17.018.021-16.886-2.682-16.886-1.759 0-2.816-1.5-1.811-2.57l.47-.5h12.22l.809.535m62.948-.309c1.962.494 1.922 1.701-.082 2.446-1.669.62-2.045.925-2.593 2.103l-.493 1.059-.002 14.062c-.002 10.631-.062 14.098-.246 14.211-1.073.664-4.187.678-5.028.024-.2-.156-.257-3.257-.26-14.248-.004-13.439-.022-14.087-.4-14.92-.654-1.442-1.296-1.893-2.691-1.893-1.623 0-2.51-1.317-1.709-2.539l.348-.531h6.129c3.79 0 6.472.086 7.027.226m60.173.283c1.553.541 3.916 2.779 4.312 4.083.914 3.017.279 10.025-1.028 11.34-1.178 1.185-1.095 2.032.326 3.31.868.781 1.008 1.98 1.008 8.646 0 5.842-.009 5.974-.445 6.438-.595.633-2.407.669-3.394.067l-.665-.406-.004-4.762c-.006-6.504-.081-6.937-1.521-8.742-1.263-1.583-1.835-1.872-2.648-1.339-.911.597-1.014 1.372-1.097 8.287-.042 3.546-.155 6.527-.251 6.624-.684.693-4.212.745-5.073.076-.314-.245-.373-32.81-.06-33.305.56-.885 8.245-1.116 10.54-.317m-253.404-.084c.915.166 1.392.388 1.932.899.394.373 1.002.821 1.351.997 1.481.744 1.405.012 1.473 14.23.076 15.843.273 14.542-2.551 16.91-1.632 1.368-6.777 1.84-8.462.776-1.265-.799-3.07-2.622-3.07-3.101 0-.205-.269-.875-.597-1.49-1.006-1.885-1.071-2.722-1.002-12.86.055-8.163.106-9.416.407-10.133.189-.45.557-1.418.819-2.15 1.273-3.564 4.668-4.992 9.7-4.078m220.878.001c1.013.177 1.437.375 2.081.973.445.412 1.132.996 1.528 1.297 1.152.876 1.191 1.359 1.191 14.86 0 13.784-.001 13.791-1.501 14.716-.469.289-1.13.837-1.468 1.218-1.091 1.232-6.211 1.78-7.977.854-.962-.505-2.86-2.356-3.201-3.124-.201-.452-.601-1.138-.888-1.526l-.523-.705v-11.546c0-10.884.022-11.577.377-12.089.208-.299.625-1.004.927-1.567 1.648-3.065 4.773-4.176 9.454-3.361M72.716 145.64c-1.398 1.777-1.146 10.745.327 11.655.096.059.811-.15 1.59-.465 2.223-.897 2.372-1.265 2.292-5.666-.073-4.08-.158-4.307-1.913-5.138-.616-.291-1.17-.611-1.231-.709-.201-.326-.665-.186-1.065.323m65.095.023c-1.882 1.319-1.877 9.574.007 11.308l.513.472 1.355-.947c2.002-1.4 1.972-1.324 1.972-4.962 0-3.886-.1-4.171-1.88-5.33-1.525-.994-1.377-.953-1.967-.541m220.789.288c-1.838 1.446-1.73 9.293.153 11.062l.493.463 1.186-1.028c1.723-1.495 1.843-1.668 2.088-3.006.638-3.477-.039-5.787-2.117-7.219-1.152-.794-1.141-.792-1.803-.272m-253.539.497c-1.006 1.146-1.117 2.66-1.025 13.941.086 10.534.116 10.847 1.151 12.005l.555.621 1.223-.317c.791-.206 1.386-.505 1.684-.849l.461-.531v-11.936c0-13.672.135-12.716-1.891-13.318-1.415-.42-1.459-.412-2.158.384m220.777.101c-.964 1.066-1.022 1.973-.93 14.352.079 10.583.076 10.553 1.266 11.65l.535.494 1.26-.494c2.291-.898 2.123.148 2.123-13.252v-11.602l-.45-.631c-.303-.425-.794-.742-1.507-.972-1.433-.463-1.476-.454-2.297.455m-251.058.128c1.533.573 1.577.704 1.572 4.699-.006 4.081-.044 4.174-1.911 4.705-.66.187-1.224.312-1.254.277-1.274-1.484-.928-11.255.363-10.243.136.106.69.359 1.23.562m64.813.291c1.383.939 1.453 1.177 1.448 4.903-.004 2.927-.297 3.417-2.691 4.487-1.192.533-1.79-7.794-.676-9.432.631-.93.482-.933 1.919.042m188.957.214l.826.421-.003 11.613c-.002 6.387-.071 11.715-.154 11.84-.173.261-2.016 1.104-2.414 1.104-.147 0-.481-.3-.742-.666l-.474-.665-.072-9.519c-.115-15.382-.047-15.699 3.033-14.128m31.57-.278c2.447 1.696 2.52 6.755.124 8.717l-.926.759-.411-.452c-.797-.875-.872-1.278-.872-4.649 0-3.275.082-3.761.774-4.554.399-.457.39-.458 1.311.179m-252.836-.02c1.27.448 1.205-.225 1.205 12.481 0 12.838.086 12.002-1.28 12.464-1.338.452-1.482.428-2.026-.335l-.475-.665-.07-9.724c-.107-14.802-.039-15.168 2.646-14.221"/><path fill="#555552" d="M111.141 32.456c-1.796.554-1.633-2.244-1.573 27.148l.053 26.096.546.825c1.036 1.565 1.647 1.704 7.487 1.703 6.371-.001 7.034-.158 7.809-1.841.293-.637.342-2.761.433-19.038.093-16.666.133-18.391.45-19.089l.348-.768h18.792c18.025-.001 18.818-.017 19.423-.386 1.239-.755 1.314-1.192 1.314-7.634 0-6.356-.007-6.394-1.23-7.027-.864-.446-52.401-.436-53.852.011m53.393.9c.711.593.725 11.68.016 12.434l-.445.474h-18.613c-16.871 0-18.68.032-19.325.338-1.494.709-1.392-.675-1.447 19.612-.027 10.025-.094 18.422-.15 18.659-.265 1.136-2.052 1.514-7.165 1.514h-4.652l-.696-.696-.696-.696V33.771l.666-.406c1.016-.619 51.765-.628 52.507-.009m-25.332 24.767c-2.461.492-2.355-.219-2.355 15.674 0 15.174-.079 14.389 1.507 14.851 1.49.433 26.801.166 27.725-.293 1.532-.761 1.468-.163 1.535-14.222.072-15.127.076-15.103-2.808-15.967-.867-.26-24.323-.299-25.604-.043m49.61.435c-1.436.919-1.395.516-1.457 14.511l-.056 12.578.507 1.037c.913 1.865-.047 1.75 14.544 1.75h12.83l.579-.579c1.002-1.002 1.025-1.323 1.025-14.569s-.023-13.568-1.025-14.57l-.579-.579-12.861.004c-12.552.003-12.877.013-13.507.417m89.854.021c-2.324.521-2.283.152-2.298 20.918-.013 17.229-.058 18.602-.63 19.24-.084.094-8.479.162-18.656.151-20.583-.022-20.029-.056-21.401 1.316l-.676.676v12.167l.772.772c1.276 1.276.101 1.225 28.153 1.226 28.438.001 26.537.091 27.378-1.288.391-.641.4-1.23.401-26.665V61.083l-.506-1.016c-.849-1.703-.95-1.728-6.69-1.703-2.741.012-5.372.109-5.847.215m-41.53.497c-.449.292-1.044.861-1.32 1.265l-.504.734-.056 12.037c-.069 14.871-.118 14.586 2.655 15.333 1.197.322 24.786.153 25.804-.185 1.543-.512 1.485.056 1.485-14.463V60.901l-.513-.915c-.804-1.436-.5-1.406-14.441-1.424l-12.293-.015-.817.529m-72.619.72c.383.236.923.764 1.201 1.173l.505.743-.006 11.672c-.007 13.281-.021 13.401-1.632 14.266-.979.526-24.076.493-25.486-.036-1.328-.499-1.306-.264-1.319-13.98-.013-13.964-.112-13.147 1.675-13.833 1.715-.659 23.996-.664 25.062-.005m51.037.994c.4.786.413 1.176.413 12.496 0 11.319-.013 11.71-.413 12.495l-.414.811H189.581l-.522-.685-.523-.685V61.239l.53-.63.53-.629h25.544l.414.81m74.52.06c.399.653.406 1.105.406 26.343l.001 25.677-.445.474-.445.474-25.604-.001c-25.164-.001-25.616-.008-26.269-.406l-.666-.406v-5.908c0-5.746.012-5.918.431-6.298.415-.376 1.112-.393 19.432-.492 18.874-.102 19.006-.105 19.58-.53 1.25-.925 1.186.08 1.249-19.923.065-20.489-.107-18.401 1.58-19.255.753-.381 1.206-.414 5.582-.415h4.762l.406.666m-27.63.362l.811.414v23.391l-.828.787-.827.788h-23.283l-.428-.884c-.418-.864-.427-1.137-.427-12.423V61.746l.445-.474.445-.474h11.641c11.276 0 11.666.013 12.451.414M35.288 128.813c-1.29 1.371-1.199-.377-1.26 24.254-.062 25.189-.141 23.73 1.328 24.345.58.243 1.195.299 2.439.222 1.836-.114 1.967-.163 3.026-1.129l.735-.671v-18.791l.665-.203c.366-.112 1.404-.247 2.307-.3 2.237-.133 2.789-.416 4.849-2.488 2.582-2.596 2.443-1.892 2.372-11.986-.065-9.224-.066-9.233-1.22-9.914-.353-.209-.772-.734-.99-1.241-.394-.919-.532-.999-2.661-1.543-.506-.129-1.059-.354-1.228-.5-.576-.497-2.473-.721-6.106-.721h-3.63l-.626.666m227.261-.435c-.445.104-.952.313-1.126.465-.175.152-.824.392-1.443.534-1.666.382-2.259.751-2.598 1.615-.197.501-.498.837-.877.98-1.308.494-1.336.666-1.336 8.142 0 7.599.07 8.111 1.249 9.082.518.427.785.858.927 1.495.136.614.479 1.186 1.087 1.817.488.506 1.163 1.41 1.499 2.009.336.598.921 1.3 1.302 1.56.445.305.802.79 1.004 1.366.236.673.511 1.003 1.126 1.347.726.406.827.56.945 1.436.5 3.706.424 10.771-.118 10.979-.582.223-.72-.259-.896-3.147-.285-4.663-.982-5.493-4.769-5.683-3.078-.155-3.456.538-3.437 6.305.014 4.455.179 5.175 1.38 6.024.49.346 1.139.997 1.442 1.447.742 1.1 1.54 1.333 5.038 1.471 4.725.185 6.606-.234 7.262-1.619.173-.364.672-.86 1.117-1.109 1.459-.818 1.447-.745 1.447-8.773 0-7.915-.068-8.412-1.318-9.609-.327-.313-.798-1.117-1.049-1.786-.379-1.014-.587-1.284-1.254-1.624-.44-.224-.849-.565-.908-.757-.352-1.147-.751-1.725-1.363-1.981-.533-.223-.716-.46-.907-1.176-.151-.565-.584-1.267-1.169-1.894-1.352-1.453-1.434-1.836-1.442-6.781-.007-4.718.13-5.399.944-4.662.33.298.38.666.38 2.788 0 3.27.133 3.537 2.315 4.635 2.433 1.225 3.639 1.209 4.811-.062 1.058-1.148 1.111-1.469 1.022-6.177-.081-4.285-.201-4.774-1.293-5.293-.377-.179-.773-.583-.921-.939-.303-.731-.648-.943-2.186-1.344-.725-.188-1.281-.48-1.536-.804-.44-.559-2.57-.694-4.351-.277m-215.974 1.598c1.533.425 1.705.573 3.291 2.818 1.246 1.763 1.311 2.253 1.31 9.825-.001 7.13-.07 7.759-.974 8.923-.308.397-.716 1.005-.907 1.351-.19.346-.651.809-1.023 1.029-.373.219-1.074.696-1.558 1.06-.772.579-1.1.68-2.661.817-1.735.152-2.951.452-3.47.858-.198.155-.255 2.334-.255 9.658v9.458l-.461.42c-1.244 1.133-3.675 1.279-4.673.281l-.598-.598v-22.339c0-23.915-.032-23.151.972-23.736.708-.412 9.387-.274 11.007.175m220.979-.109c1.52.467 2.036.774 2.464 1.467.225.362.725.901 1.113 1.197 1.553 1.184 1.934 8.02.531 9.522-1.015 1.086-3.843.828-5.228-.478l-.723-.682v-4.911l-.778-.54c-.97-.672-1.071-.67-1.713.024-1.718 1.855-.933 11.238 1.063 12.714.335.247.84.906 1.122 1.464.283.558.742 1.163 1.019 1.345.278.182.795.805 1.149 1.385s.945 1.306 1.312 1.613c.424.355.87 1.065 1.221 1.945.304.762.718 1.571.921 1.796 1.213 1.347 1.494 3.224 1.401 9.37-.085 5.622-.078 5.598-2.24 7.722-2.121 2.083-2.233 2.128-5.535 2.216-3.944.106-4.665-.125-6.766-2.17-1.913-1.861-2.155-2.48-2.338-5.982-.215-4.09.45-5.424 2.701-5.424 2.391 0 3.981 1.562 3.981 3.91 0 2.374.795 4.38 1.735 4.38 2.469 0 2.354-10.792-.146-13.648-.538-.616-1.118-1.388-1.288-1.717-.17-.329-.721-1.061-1.224-1.628-.504-.567-1.095-1.382-1.313-1.81-.219-.429-.712-1.019-1.095-1.311-.495-.378-.833-.908-1.163-1.826-.257-.712-.59-1.436-.742-1.609-1.135-1.297-1.611-4.353-1.462-9.397.141-4.762.335-5.254 3.193-8.091 1.023-1.016 6.548-1.545 8.828-.846m-225.818 5.356c-1.484.456-1.42.08-1.36 7.995l.054 7.14 1.321.261c1.301.258 1.328.254 1.842-.26l.522-.522.07-6.873.07-6.874-.569-.593c-.643-.671-.655-.673-1.95-.274m1.56 7.698c0 7.55.013 7.423-.776 7.225-.772-.194-.808-.484-.909-7.515l-.094-6.499.48-.196c1.358-.555 1.299-.875 1.299 6.985m23.576-2.355c-2.394 1.245-2.183-.571-2.183 18.721-.001 19.976-.443 17.998 4.093 18.324 4.064.291 3.969.469 4.094-7.724.115-7.558.045-7.265 1.64-6.801 1.511.44 1.424.016 1.431 6.924.008 7.887-.009 7.856 3.992 7.598 4.299-.278 4.197-.103 4.191-7.165-.005-6.224-.1-6.953-1.006-7.715-.881-.741-1.512-3.145-1.116-4.253.147-.411.271-.951.276-1.201.005-.25.324-.769.709-1.154 1.672-1.672 1.681-9.067.012-9.96-.341-.183-.597-.609-.815-1.362-.256-.878-.47-1.191-1.081-1.577-.42-.264-.888-.714-1.04-.999-.395-.737-1.03-.961-3.347-1.182-1.715-.164-2.137-.276-2.651-.709-1.067-.898-5.286-.76-7.199.235m65.295-.523c-.928.218-1.972 1.023-2.322 1.79-.185.408-.248 4.718-.255 17.47l-.01 16.928.466.542c.771.896 5.405 1.15 6.933.38.903-.455.994-1.132.998-7.429.003-6.73-.121-6.268 1.736-6.463 1.558-.165 2.374-.492 2.822-1.131.158-.226.707-.537 1.22-.691 1.987-.598 3.112-1.946 3.552-4.256.209-1.095.395-1.528.792-1.84.767-.603.791-5.114.035-6.437-.276-.483-.591-1.553-.742-2.525-.281-1.81-.811-2.731-1.699-2.954-.293-.073-.603-.42-.824-.92-.439-.995-.911-1.195-3.379-1.434-1.641-.159-1.986-.259-2.467-.721-.605-.579-4.884-.773-6.856-.309m30.784.464c-.48.38-1.184 1.084-1.564 1.564l-.691.873v32.817l.768.747c1.653 1.609 5.613 1.609 7.267 0l.767-.747v-11.709l.709-.688.71-.687.212.558c.128.338.212 2.88.212 6.451 0 6.338.089 7.011.994 7.467 1.528.77 6.162.516 6.933-.38l.466-.542v-16.897c0-17.557-.034-18.29-.834-18.29-.096 0-.345-.184-.555-.409-1.016-1.091-4.293-.97-5.787.213-1.146.908-1.215 1.367-1.216 8.115-.001 3.625-.085 6.194-.213 6.533l-.212.558-.71-.688-.709-.687v-11.904l-.663-.814c-.364-.448-.72-.841-.79-.873-.07-.033-.433-.332-.807-.666-1.047-.935-3.048-.896-4.287.085m32.549 0c-.481.38-1.184 1.084-1.564 1.564l-.691.873v32.817l.767.747c1.066 1.037 1.865 1.168 7.177 1.174 6.487.007 8.054-.61 7.719-3.041-.31-2.253-1.764-3.3-4.584-3.3-.675 0-1.463-.09-1.752-.2l-.525-.199v-6.888l.776-.758c.723-.705.862-.758 2.019-.758 1.793 0 4.354-2.177 4.093-3.48-.449-2.249-2.073-3.684-4.169-3.684-.77 0-1.558-.137-1.995-.345l-.724-.345v-7.013l.724-.345c.559-.267 1.305-.345 3.284-.345 3.39 0 3.971-.549 3.975-3.75.001-1.319-.18-1.77-1.101-2.75l-.626-.665h-11.93l-.873.691m30.109.029c-2.159 1.716-2.37 2.482-1.237 4.489.936 1.659 1.216 1.836 3.026 1.919 2.283.104 2.08-1.369 2.08 15.076 0 15.918-.082 14.996 1.369 15.475.837.276 3.933.145 5.224-.221 1.701-.483 1.595.541 1.595-15.448 0-16.006-.165-14.542 1.699-15.011 3.589-.904 4.012-4.595.716-6.246l-1.505-.753-6.033.002-6.033.002-.901.716m62.969.107c-.856.953-1.069 1.789-.89 3.499.24 2.292.793 2.839 2.875 2.839 1.896 0 1.76-1.148 1.763 14.879.004 17.157-.388 15.686 4.18 15.674 4.619-.013 4.21 1.517 4.21-15.765 0-15.881-.139-14.669 1.711-14.871 1.928-.21 2.452-.743 2.781-2.824.576-3.641-.809-4.246-9.729-4.253l-6.159-.005-.742.827m64.563-.59c-.982.282-2.077 1.172-2.404 1.953-.393.942-.405 33.676-.012 34.453.442.871 1.21 1.082 3.919 1.075 4.363-.013 4.21.267 4.21-7.705 0-3.686.083-6.254.213-6.596l.213-.56.462.7c.749 1.137.954 2.806.954 7.785v4.603l.768.747c1.116 1.087 3.48 1.503 5.441.959 1.369-.38 1.402-.604 1.328-8.967-.072-8.048-.129-8.412-1.39-8.888l-.573-.216.642-.433c1.224-.823 1.256-1.023 1.256-7.795 0-6.911.006-6.881-1.514-7.657-.498-.254-.84-.595-.922-.921-.207-.827-.967-1.153-3.441-1.476-1.27-.166-2.449-.428-2.62-.583-.721-.653-4.866-.956-6.53-.478m-29.019 1.076c-1.737.28-3.032.892-3.234 1.527-.063.2-.657.917-1.319 1.594-1.73 1.768-1.683 1.31-1.614 15.646.065 13.251.017 12.717 1.232 13.852.273.255.854 1.007 1.291 1.672 1.26 1.917 3.311 2.446 8.453 2.183 2.978-.152 3.783-.423 4.266-1.436.237-.498.559-.795 1.033-.951.824-.272 1.16-.763 1.483-2.162.147-.638.438-1.221.74-1.483l.497-.432v-23.74l-.48-.314c-.337-.221-.557-.665-.74-1.489-.299-1.348-.738-2.3-1.059-2.3-.122 0-.606-.419-1.076-.93-.784-.854-.964-.946-2.179-1.111-2.575-.35-5.588-.402-7.294-.126m-249.199.24c3.572.464 3.493.441 4.294 1.28.397.415 1.001.953 1.343 1.195.342.243.723.656.846.919.124.262.535 1.122.914 1.91 1.411 2.936.455 10.285-1.587 12.204l-.492.461.527.551c.336.35.857 1.524 1.435 3.235l.909 2.685v10.008l-.563.392c-1.328.924-4.416 1.216-5.299.501-.853-.691-.894-1.018-.894-7.208 0-6.911.003-6.9-1.702-7.694-2.099-.977-2.062-1.097-2.187 7.179-.126 8.311-.045 8.086-2.918 8.086-1.244 0-1.71-.1-2.624-.563l-1.111-.563-.057-16.275c-.031-8.95-.007-16.475.052-16.721.413-1.71 3.722-2.284 9.114-1.582m27.498-.124c-1.385.295-2.045.751-2.86 1.979-.423.637-.986 1.375-1.251 1.641-1.191 1.191-1.171.958-1.235 13.938-.065 13.142-.074 13.028 1.192 14.49.446.516.812 1.035.812 1.154 0 .493 1.78 2.303 2.655 2.699.825.373 1.345.42 4.714.427 4.661.009 5.114-.077 6.234-1.179.479-.471 1.109-1.068 1.4-1.327.361-.32.607-.842.772-1.637.133-.643.461-1.428.729-1.747l.487-.578v-11.673c0-12.078-.052-12.861-.851-12.861-.081 0-.212-.437-.289-.972-.188-1.292-.585-2.027-1.29-2.392-.319-.165-.733-.533-.92-.818-.749-1.143-7.025-1.841-10.299-1.144m36.883.087c.788.158 1.975.351 2.637.427 1.804.21 4.399 2.787 4.848 4.817.448 2.022.408 8.947-.06 10.435-.496 1.576-2.366 3.503-3.885 4.003-.596.196-1.405.528-1.797.736-.392.208-1.037.38-1.433.382-2.264.009-2.459.631-2.459 7.834v5.898l-.522.483c-1.076.997-4.834.929-5.869-.107l-.57-.569v-16.317c0-18.483-.093-17.443 1.601-17.884 1.829-.477 5.487-.544 7.509-.138m27.439.037c1.411.669 1.413.684 1.527 8.001l.103 6.585.498.531c.641.682 2.007 1.08 2.378.694.741-.769.911-2.354.911-8.481v-5.986l.515-.612c1.141-1.356 5.131-1.19 6.021.251.419.678.424.86.424 17.002v16.317l-.569.569c-1.037 1.037-4.911 1.104-5.913.102l-.478-.479v-5.909c0-7.511-.279-8.829-1.808-8.542-1.982.371-2.079.755-2.081 8.194-.001 6.502-.005 6.527-1.231 7.161-1.37.708-4.066.28-4.796-.762-.458-.654-.488-32.405-.032-33.282.816-1.568 2.819-2.167 4.531-1.354m41.783-.025c.867.608 1.165 1.635.796 2.747-.581 1.75-.798 1.866-3.488 1.866-2.551 0-4.407.475-4.811 1.23-.224.418-.286 7.326-.071 7.887.245.637 2.087 1.319 3.573 1.321 1.583.002 2.187.412 2.864 1.944.797 1.801-.289 2.801-3.253 2.994-1.808.118-1.96.163-2.568.771l-.647.646-.067 3.91c-.092 5.298.052 5.5 3.916 5.5 2.9 0 4.168 3.371 1.74 4.627-1.07.553-10.166.402-11.034-.183l-.696-.469-.052-16.709-.053-16.71.548-.651c.301-.358.739-.728.973-.823.812-.328 11.846-.237 12.33.102m30.596.015c2.644.933 2.455 3.028-.404 4.484-.522.265-1.18.73-1.461 1.031l-.512.549-.102 14.258-.103 14.258-.917.506c-1.55.855-4.283.884-5.113.054l-.623-.623v-14.294c-.001-16.724.141-15.625-2.016-15.625-2.74 0-4.001-3.085-1.83-4.475.897-.574 11.519-.674 13.081-.123m63.047-.079c2.191.362 2.819 1.259 2.055 2.937-.474 1.044-.709 1.221-2.03 1.53-.844.198-1.203.414-1.637.984l-.557.729-.055 14.283-.055 14.283-.505.397c-1.164.915-4.894.802-5.874-.178l-.573-.574v-28.345l-.523-.684c-.486-.637-.604-.685-1.704-.685-2.346 0-3.456-2.816-1.737-4.409l.543-.504h5.612c3.275 0 6.206.098 7.04.236m58.966.284c2.499.371 2.977.555 3.86 1.488.394.416 1.02.987 1.391 1.268 1.115.845 1.252 1.577 1.256 6.755.005 5.383-.074 5.849-1.194 7.064-1.037 1.125-1.038 1.256-.018 2.252 1.175 1.147 1.224 1.504 1.225 8.926l.001 6.676-.54.54c-.949.949-3.879.705-4.797-.399-.232-.279-.313-1.537-.395-6.113l-.102-5.761-.764-.912c-.419-.502-.985-1.185-1.256-1.519-1.279-1.579-1.767.73-1.767 8.362v5.828l-.514.405c-1.166.916-4.893.8-5.877-.184l-.569-.569v-16.198c0-17.241-.026-16.763.963-17.658.869-.786 4.769-.894 9.097-.251m-252.899.092c2.524.228 3.247.591 5.374 2.704.967.959 1.027 1.843 1.023 14.988-.003 14.475.057 13.97-1.875 15.733-1.997 1.823-2.076 1.851-5.619 1.952-4.307.123-6.368-.882-7.836-3.818-.318-.637-.798-1.572-1.067-2.079l-.488-.921-.064-9.899c-.072-11.245-.024-11.812 1.201-14.219 1.452-2.853 3.02-4.191 5.209-4.445 1.759-.204 1.832-.204 4.142.004m222.708.188c.641.122 1.228.5 2.375 1.531 2.449 2.2 2.403 1.891 2.403 16.022v11.446l-.498 1.529c-.36 1.104-.657 1.641-1.071 1.937-.315.225-1.026.842-1.579 1.371-2.839 2.715-10.031 1.72-12.037-1.664-.238-.402-.765-1.225-1.171-1.83l-.738-1.099-.065-10.16c-.095-14.696.202-15.915 4.585-18.786.987-.647 5.131-.805 7.796-.297m-258.059 4.76c-.806 1.321-.576 8.731.302 9.754.03.035.594-.09 1.254-.277 1.867-.531 1.905-.624 1.911-4.705.005-3.995-.039-4.126-1.572-4.699-.54-.203-1.094-.456-1.23-.562-.175-.137-.371.008-.665.489m64.789.322c-1.114 1.638-.516 9.965.676 9.432 2.394-1.07 2.687-1.56 2.691-4.487.005-3.726-.065-3.964-1.448-4.903-1.437-.975-1.288-.972-1.919-.042m188.559.055c-.706.84-.802 2.77-.716 14.329l.072 9.519.474.665c.261.366.595.666.742.666.398 0 2.241-.843 2.414-1.104.083-.125.152-5.453.154-11.84l.003-11.613-.826-.421c-1.658-.846-1.766-.855-2.317-.201m32.576-.256c-.692.793-.774 1.279-.774 4.554 0 3.371.075 3.774.872 4.649l.411.452.926-.759c2.396-1.962 2.323-7.021-.124-8.717-.921-.637-.912-.636-1.311-.179m-253.555.362c-.601.764-.696 2.917-.616 14.018l.07 9.724.475.665c.544.763.688.787 2.026.335 1.366-.462 1.28.374 1.28-12.464 0-12.706.065-12.033-1.205-12.481-1.218-.43-1.56-.396-2.03.203m-30.535.379c.872.261.928.322 1.059 1.174.181 1.173.203 4.172.041 5.358l-.128.934-1.152.206c-1.647.293-1.663.257-1.663-3.881 0-4.454-.048-4.355 1.843-3.791m32.446 11.897V171l-.57.19c-1.234.411-1.17 1.048-1.17-11.777 0-12.729-.03-12.408 1.104-11.945l.636.259v11.636m31.778-11.819c1.053.939 1.128 6.399.102 7.35-.951.882-1.072.464-1.072-3.708 0-4.215.064-4.452.97-3.642m189.072 1.503c.073.698.132 5.341.132 10.318 0 10.784-.047 11.475-.818 11.873-1.038.537-1.024.694-1.024-11.873s-.014-12.409 1.024-11.873c.483.25.57.448.686 1.555m32.231-.278c.801 2.714-.002 7.299-1.116 6.374-.376-.311-.402-7.341-.029-7.714.36-.359.794.148 1.145 1.34"/><path fill="#fff" d="M35.918 131.269c-.053.141-.073 10.251-.044 22.467l.052 22.211 1.069.061c2.066.12 1.9 1.003 1.9-10.109 0-10.704-.041-10.343 1.285-11.38.542-.423 1.09-.599 2.42-.777 1.718-.231 4.232-.744 4.983-1.018.404-.147.726-1.114 1.154-3.458.297-1.626.129-13.395-.208-14.667-.428-1.61-1.443-2.952-2.553-3.374-.85-.323-9.933-.283-10.058.044m225.145-.112c-.558.108-2.433 2.126-2.806 3.02-.151.361-.539.865-.863 1.119l-.587.463v8.352l.585.543c.766.71 1.08 1.501 1.46 3.682.294 1.683.505 2.114 1.041 2.121.327.005 1.041.851 1.213 1.437.181.615.689 1.228 1.019 1.228.338 0 1.018.805 1.313 1.553.137.348.693 1.098 1.235 1.667.757.794 1.047 1.289 1.246 2.131.178.753.5 1.362 1.029 1.941.941 1.03 1.116 2.289.975 6.997-.12 4.036-.759 5.11-3.25 5.468-2.767.399-4.491-1.348-4.651-4.711-.111-2.319-.289-2.559-1.895-2.559-1.393 0-1.423.044-1.423 2.138 0 2.458.18 3.312.753 3.573.307.14.688.655.99 1.339.416.94.633 1.174 1.407 1.516.566.251 1.035.636 1.228 1.01.6 1.159 5.647 1.16 6.17.001.11-.244.595-.725 1.079-1.069.484-.345 1.059-.928 1.279-1.296.22-.368.632-.776.916-.905.723-.329.741-.498.672-6.063l-.062-4.965-.649-.508c-.624-.488-.989-1.248-1.481-3.089-.148-.554-.46-1.025-.9-1.361-.373-.284-.99-1.135-1.378-1.902-.462-.909-.927-1.518-1.351-1.768-.614-.363-.997-1.001-1.141-1.901-.038-.236-.386-.56-.822-.766-.925-.435-1.062-.68-1.46-2.599-.233-1.13-.452-1.644-.859-2.022-.934-.866-1.116-1.618-1.11-4.587.007-3.942.091-4.189 2.122-6.229 1.978-1.988 1.863-1.955 3.113-.873.531.46 1.182.918 1.445 1.018 1.004.382 1.297 1.288 1.297 4.023.001 2.896.021 2.925 1.929 2.925 1.404 0 1.408-.011 1.313-3.542l-.068-2.559-1.126-1.229c-.619-.677-1.337-1.512-1.596-1.856-.698-.929-4.693-1.421-7.351-.906M44.762 134.34l1.701 1.689.003 5.752c.003 5.814-.072 6.527-.799 7.642-.178.273-.419.826-.535 1.228-.3 1.038-1.03 1.346-3.063 1.293-3.363-.087-3.202.394-3.13-9.308l.058-7.927.785-.762c.729-.708 1.149-.876 3.191-1.279.048-.009.853.743 1.789 1.672m23.457 8.466c-.202.09-.256 3.583-.256 16.467 0 18.718-.223 16.851 2.001 16.735l1.172-.061.102-7.37c.125-8.95.045-8.7 2.771-8.7 3.351 0 3.455.266 3.539 9.005.074 7.588-.018 7.159 1.534 7.164 1.88.006 1.78.346 1.765-5.992-.016-7.018-.204-8.396-1.21-8.9-1.526-.763-1.491-2.981.057-3.627 1.691-.707 1.658-11.913-.037-12.483-.725-.244-1.663-1.167-1.663-1.635 0-.526-8.743-1.065-9.775-.603m36.025.06c-.708.1-.952.252-1.289.808-.255.422-.727.808-1.229 1.005-.506.199-.849.481-.908.748-.797 3.602-.816 3.936-.81 13.938.005 9.032.039 9.999.421 11.962.435 2.228.442 2.24 1.788 2.769.541.213.856.5 1.017.925.448 1.186 6.04 1.373 6.343.213.059-.226.278-.473.485-.549.208-.076.629-.345.936-.598.307-.253.827-.519 1.156-.591.921-.202.922-.21.997-13.646.081-14.497.081-14.493-1.077-14.832-1.005-.295-2.555-1.293-2.555-1.647 0-.583-2.809-.852-5.275-.505m28.663.027l-.461.185v32.554l.484.121c.266.067.795.092 1.177.055l.693-.066.103-6.039c.085-5.017.158-6.143.431-6.653 1.516-2.829 1.618-2.895 4.938-3.184 2.902-.253 2.853-.235 3.27-1.23.268-.641.532-.903 1.151-1.146.758-.298.81-.375.929-1.37.205-1.708.148-8.451-.076-9.042-.302-.793-3.638-4.003-4.383-4.216-.819-.235-7.658-.209-8.256.031m30.8-.083c-.341.341-.165 32.983.179 33.115.45.173 2.185.15 2.468-.033.163-.105.259-2.248.323-7.212.113-8.861.09-8.803 3.528-8.803 1.813 0 2.405.247 3.285 1.368l.614.782.065 6.751c.069 7.347.016 7.058 1.3 7.063 1.531.007 1.399 1.568 1.399-16.503v-16.257l-.563-.219c-.35-.136-.834-.153-1.279-.046l-.717.173-.102 6.857-.103 6.858-.69.859c-.839 1.044-1.491 1.292-3.383 1.288-3.261-.007-3.263-.011-3.394-8.86l-.107-7.207-1.339-.06c-.737-.032-1.405.006-1.484.086m32.543.005c-.268.268-.164 32.719.106 32.988.291.292 9.099.35 9.551.064.768-.487.062-1.455-1.061-1.457-4.79-.007-5.676-1.089-5.65-6.896.033-7.388.091-7.499 3.97-7.602 2.622-.07 3.122-.233 2.855-.93-.106-.276-.483-.335-2.205-.345-4.106-.022-4.456-.503-4.594-6.314-.19-8.009.069-8.407 5.589-8.599 3.303-.115 3.48-.142 3.48-.531 0-.416-11.638-.781-12.041-.378m30.271.053c-.335.542.155.837 1.392.84 3.249.008 3.08-.903 3.203 17.193l.102 15.046 1.172.061c2.215.116 2.001 1.674 2.001-14.566 0-17.303-.073-16.869 2.968-17.55 1.157-.259 1.674-.617 1.439-.997-.167-.27-12.11-.297-12.277-.027m62.846 0c-.343.554.153.837 1.463.837 1.958 0 2.553.361 3.539 2.146l.82 1.487v28.312l.61.122c.335.067.659.122.721.122.062 0 .386-.055.721-.122l.61-.122v-14.181c0-13.576.017-14.212.392-14.898.215-.394.524-.997.688-1.34.34-.714.868-1.091 2.246-1.606 1.07-.399 1.213-.627.512-.814-.749-.201-12.196-.148-12.322.057m35.657-.037c-.618.065-.834.208-1.106.733-.387.749-.844 1.149-1.324 1.158-.742.015-1.249 1.351-1.635 4.306-.308 2.357-.135 21.433.202 22.21.146.338.329.981.406 1.428.143.822.164.841 1.716 1.554.308.142.673.512.81.822.28.632.581.725 3.001.927 1.843.154 2.901-.103 3.205-.777.196-.434.58-.714 2.195-1.596 1.567-.856 1.48-.1 1.551-13.505.076-14.407.073-14.466-.952-14.89-1.16-.48-2.464-1.356-2.597-1.745-.227-.664-2.558-.93-5.472-.625m28.763.062l-.46.185v32.572l.609.122c.744.149.699.148 1.43.002l.596-.119.064-6.73.064-6.73.601-.866c1.342-1.935 3.32-2.009 5.124-.191 1.64 1.654 1.611 1.509 1.703 8.462.09 6.815-.002 6.441 1.589 6.446 1.58.005 1.526.226 1.526-6.232 0-6.444-.026-6.609-1.203-7.89-1.747-1.902-1.567-4.224.464-5.973l.636-.548v-8.32l-1.023-1.045c-.563-.575-1.408-1.286-1.878-1.579-.469-.294-.915-.727-.99-.963-.074-.235-.364-.515-.643-.621-.644-.245-7.593-.23-8.209.018m-279.6 1.098c.375.157.832.502 1.014.767.182.266.677.667 1.101.893 1.12.598 1.258 1.207 1.27 5.628.014 5.313-.555 6.6-3.177 7.187-2.675.599-3.054-.293-3.054-7.187 0-7.001.496-8.27 2.846-7.288m65.712.801c.461.485 1.087.987 1.391 1.117.886.377 1.137 1.146 1.287 3.943.232 4.342-.313 6.955-1.452 6.955-.142 0-.456.277-.697.617-1.427 2.003-3.32 1.518-4.757-1.221l-.8-1.524.067-3.696.067-3.695.791-1.349c1.349-2.301 2.66-2.667 4.103-1.147m220.66-.057c.47.453 1.158 1.008 1.531 1.232 1.16.699 1.353 1.47 1.357 5.415.005 3.969-.175 4.61-1.441 5.139-.391.164-.792.513-.893.776-.801 2.109-3.103 1.643-4.445-.899l-.703-1.331.063-4.094.062-4.095.717-1.106c.492-.76.972-1.222 1.535-1.479 1.131-.517 1.25-.493 2.217.442m-253.377-.32c2.898.861 2.949 1.116 2.95 14.787.001 12.598-.026 12.914-1.186 14.036-2.347 2.267-4.553 1.463-5.204-1.897-.12-.619-.378-1.31-.573-1.535-.802-.927-.815-1.087-.815-10.437 0-9.538.022-9.8.886-10.516.164-.137.363-.683.442-1.214.186-1.245.521-2.033 1.218-2.859.634-.752.858-.787 2.282-.365m220.921.012c2.914.866 2.953 1.08 2.873 15.562-.073 13.026-.01 12.483-1.5 13.106-.378.158-.745.382-.817.497-.685 1.11-2.634 1.179-3.081.11-.16-.383-.381-.752-.493-.82-.111-.069-.301-.513-.422-.987s-.45-1.297-.732-1.829l-.513-.968.062-10.531c.06-10.208.074-10.545.473-11.007.226-.262.595-.84.819-1.283.991-1.962 1.674-2.341 3.331-1.85"/></g></svg>