<svg xmlns="http://www.w3.org/2000/svg" role="img" viewBox="-7.99 -7.99 415.74 220.49"><title>ProphetStor Federator.AI (AIOPs) logo</title><g fill-rule="evenodd"><path fill="#a6b729" d="M112.027 33.365 L 111.361 33.771 111.361 59.383 L 111.361 84.995 112.057 85.691 L 112.753 86.387 117.405 86.387 C 122.518 86.387,124.305 86.009,124.570 84.873 C 124.626 84.636,124.693 76.239,124.720 66.214 C 124.775 45.927,124.673 47.311,126.167 46.602 C 126.812 46.296,128.621 46.264,145.492 46.264 L 164.105 46.264 164.550 45.790 C 165.259 45.036,165.245 33.949,164.534 33.356 C 163.792 32.737,113.043 32.746,112.027 33.365 M279.324 60.599 C 277.637 61.453,277.809 59.365,277.744 79.854 C 277.681 99.857,277.745 98.852,276.495 99.777 C 275.921 100.202,275.789 100.205,256.915 100.307 C 238.595 100.406,237.898 100.423,237.483 100.799 C 237.064 101.179,237.052 101.351,237.052 107.097 L 237.052 113.005 237.718 113.411 C 238.371 113.809,238.823 113.816,263.987 113.817 L 289.591 113.818 290.036 113.344 L 290.481 112.870 290.480 87.193 C 290.480 61.955,290.473 61.503,290.074 60.850 L 289.668 60.184 284.906 60.184 C 280.530 60.185,280.077 60.218,279.324 60.599"/><path fill="#0e0e0e" d="M0.000 102.354 L 0.000 204.708 200.000 204.708 L 400.000 204.708 400.000 102.354 L 400.000 0.000 200.000 0.000 L 0.000 0.000 0.000 102.354 M164.993 32.445 C 166.216 33.078,166.223 33.116,166.223 39.472 C 166.223 45.914,166.148 46.351,164.909 47.106 C 164.304 47.475,163.511 47.491,145.486 47.492 L 126.694 47.492 126.346 48.260 C 126.029 48.958,125.989 50.683,125.896 67.349 C 125.805 83.626,125.756 85.750,125.463 86.387 C 124.688 88.070,124.025 88.227,117.654 88.228 C 111.814 88.229,111.203 88.090,110.167 86.525 L 109.621 85.700 109.568 59.604 C 109.508 30.212,109.345 33.010,111.141 32.456 C 112.592 32.009,164.129 31.999,164.993 32.445 M164.806 58.166 C 167.690 59.030,167.686 59.006,167.614 74.133 C 167.547 88.192,167.611 87.594,166.079 88.355 C 165.155 88.814,139.844 89.081,138.354 88.648 C 136.768 88.186,136.847 88.971,136.847 73.797 C 136.847 57.904,136.741 58.615,139.202 58.123 C 140.483 57.867,163.939 57.906,164.806 58.166 M215.759 58.716 C 216.761 59.718,216.784 60.040,216.784 73.286 C 216.784 86.532,216.761 86.853,215.759 87.855 L 215.180 88.434 202.350 88.434 C 187.759 88.434,188.719 88.549,187.806 86.684 L 187.299 85.647 187.355 73.069 C 187.417 59.074,187.376 59.477,188.812 58.558 C 189.442 58.154,189.767 58.144,202.319 58.141 L 215.180 58.137 215.759 58.716 M290.096 58.696 C 290.426 58.891,290.924 59.508,291.203 60.067 L 291.709 61.083 291.709 87.092 C 291.708 112.527,291.699 113.116,291.308 113.757 C 290.467 115.136,292.368 115.046,263.930 115.045 C 235.878 115.044,237.053 115.095,235.777 113.819 L 235.005 113.047 235.005 106.964 L 235.005 100.880 235.681 100.204 C 237.053 98.832,236.499 98.866,257.082 98.888 C 267.259 98.899,275.654 98.831,275.738 98.737 C 276.310 98.099,276.355 96.726,276.368 79.497 C 276.383 58.731,276.342 59.100,278.666 58.579 C 280.355 58.201,289.414 58.293,290.096 58.696 M263.357 58.825 C 264.001 59.019,264.284 59.266,264.687 59.986 L 265.200 60.901 265.200 73.797 C 265.200 88.316,265.258 87.748,263.715 88.260 C 262.697 88.598,239.108 88.767,237.911 88.445 C 235.138 87.698,235.187 87.983,235.256 73.112 L 235.312 61.075 235.816 60.341 C 236.092 59.937,236.687 59.368,237.136 59.076 L 237.953 58.547 250.246 58.562 C 259.203 58.574,262.760 58.645,263.357 58.825 M44.258 128.375 C 44.855 128.500,45.481 128.722,45.650 128.868 C 45.819 129.014,46.372 129.239,46.878 129.368 C 49.007 129.912,49.145 129.992,49.539 130.911 C 49.757 131.418,50.176 131.943,50.529 132.152 C 51.683 132.833,51.684 132.842,51.749 142.066 C 51.820 152.160,51.959 151.456,49.377 154.052 C 47.317 156.124,46.765 156.407,44.528 156.540 C 43.625 156.593,42.587 156.728,42.221 156.840 L 41.556 157.043 41.556 166.439 L 41.556 175.834 40.821 176.505 C 39.762 177.471,39.631 177.520,37.795 177.634 C 36.551 177.711,35.936 177.655,35.356 177.412 C 33.887 176.797,33.966 178.256,34.028 153.067 C 34.089 128.436,33.998 130.184,35.288 128.813 L 35.914 128.147 39.544 128.147 C 41.540 128.147,43.661 128.250,44.258 128.375 M266.900 128.655 C 267.155 128.979,267.711 129.271,268.436 129.459 C 269.974 129.860,270.319 130.072,270.622 130.803 C 270.770 131.159,271.166 131.563,271.543 131.742 C 272.635 132.261,272.755 132.750,272.836 137.035 C 272.925 141.743,272.872 142.064,271.814 143.212 C 270.642 144.483,269.436 144.499,267.003 143.274 C 264.821 142.176,264.688 141.909,264.688 138.639 C 264.688 136.517,264.638 136.149,264.308 135.851 C 263.494 135.114,263.357 135.795,263.364 140.513 C 263.372 145.458,263.454 145.841,264.806 147.294 C 265.391 147.921,265.824 148.623,265.975 149.188 C 266.166 149.904,266.349 150.141,266.882 150.364 C 267.494 150.620,267.893 151.198,268.245 152.345 C 268.304 152.537,268.713 152.878,269.153 153.102 C 269.820 153.442,270.028 153.712,270.407 154.726 C 270.658 155.395,271.129 156.199,271.456 156.512 C 272.706 157.709,272.774 158.206,272.774 166.121 C 272.774 174.149,272.786 174.076,271.327 174.894 C 270.882 175.143,270.383 175.639,270.210 176.003 C 269.554 177.388,267.673 177.807,262.948 177.622 C 259.450 177.484,258.652 177.251,257.910 176.151 C 257.607 175.701,256.958 175.050,256.468 174.704 C 255.267 173.855,255.102 173.135,255.088 168.680 C 255.069 162.913,255.447 162.220,258.525 162.375 C 262.312 162.565,263.009 163.395,263.294 168.058 C 263.470 170.946,263.608 171.428,264.190 171.205 C 264.732 170.997,264.808 163.932,264.308 160.226 C 264.190 159.350,264.089 159.196,263.363 158.790 C 262.748 158.446,262.473 158.116,262.237 157.443 C 262.035 156.867,261.678 156.382,261.233 156.077 C 260.852 155.817,260.267 155.115,259.931 154.517 C 259.595 153.918,258.920 153.014,258.432 152.508 C 257.824 151.877,257.481 151.305,257.345 150.691 C 257.203 150.054,256.936 149.623,256.418 149.196 C 255.239 148.225,255.169 147.713,255.169 140.114 C 255.169 132.638,255.197 132.466,256.505 131.972 C 256.884 131.829,257.185 131.493,257.382 130.992 C 257.721 130.128,258.314 129.759,259.980 129.377 C 260.599 129.235,261.248 128.995,261.423 128.843 C 262.374 128.017,266.292 127.882,266.900 128.655 M41.997 135.936 L 41.517 136.132 41.611 142.631 C 41.712 149.662,41.748 149.952,42.520 150.146 C 43.309 150.344,43.296 150.471,43.296 142.921 C 43.296 135.061,43.355 135.381,41.997 135.936 M74.071 140.331 C 74.585 140.764,75.007 140.876,76.722 141.040 C 79.039 141.261,79.674 141.485,80.069 142.222 C 80.221 142.507,80.689 142.957,81.109 143.221 C 81.720 143.607,81.934 143.920,82.190 144.798 C 82.408 145.551,82.664 145.977,83.005 146.160 C 83.935 146.657,84.135 147.481,84.134 150.799 C 84.133 154.324,83.954 155.159,82.993 156.120 C 82.608 156.505,82.289 157.024,82.284 157.274 C 82.279 157.524,82.155 158.064,82.008 158.475 C 81.612 159.583,82.243 161.987,83.124 162.728 C 84.030 163.490,84.125 164.219,84.130 170.443 C 84.136 177.505,84.238 177.330,79.939 177.608 C 75.938 177.866,75.955 177.897,75.947 170.010 C 75.940 163.102,76.027 163.526,74.516 163.086 C 72.921 162.622,72.991 162.329,72.876 169.887 C 72.796 175.145,72.713 176.674,72.494 176.938 C 71.525 178.103,66.110 177.801,65.107 176.526 C 64.471 175.718,64.447 142.977,65.081 141.936 C 66.257 140.009,72.387 138.914,74.071 140.331 M139.023 140.352 C 139.504 140.814,139.849 140.914,141.490 141.073 C 143.958 141.312,144.430 141.512,144.869 142.507 C 145.090 143.007,145.400 143.354,145.693 143.427 C 146.581 143.650,147.111 144.571,147.392 146.381 C 147.543 147.353,147.858 148.423,148.134 148.906 C 148.890 150.229,148.866 154.740,148.099 155.343 C 147.702 155.655,147.516 156.088,147.307 157.183 C 146.867 159.493,145.742 160.841,143.755 161.439 C 143.242 161.593,142.693 161.904,142.535 162.130 C 142.087 162.769,141.271 163.096,139.713 163.261 C 137.856 163.456,137.980 162.994,137.977 169.724 C 137.973 176.021,137.882 176.698,136.979 177.153 C 135.451 177.923,130.817 177.669,130.046 176.773 L 129.580 176.231 129.590 159.303 C 129.600 141.010,129.555 141.736,130.734 140.760 C 132.076 139.649,137.985 139.358,139.023 140.352 M167.238 140.422 C 167.612 140.756,167.975 141.055,168.045 141.088 C 168.115 141.120,168.471 141.513,168.835 141.961 L 169.498 142.775 169.498 148.727 L 169.498 154.679 170.207 155.366 L 170.917 156.054 171.129 155.496 C 171.257 155.157,171.341 152.588,171.342 148.963 C 171.343 142.215,171.412 141.756,172.558 140.848 C 174.052 139.665,177.329 139.544,178.345 140.635 C 178.555 140.860,178.804 141.044,178.900 141.044 C 179.700 141.044,179.734 141.777,179.734 159.334 L 179.734 176.231 179.268 176.773 C 178.497 177.669,173.863 177.923,172.335 177.153 C 171.430 176.697,171.341 176.024,171.341 169.686 C 171.341 166.115,171.257 163.573,171.129 163.235 L 170.917 162.677 170.207 163.364 L 169.498 164.052 169.498 169.906 L 169.498 175.761 168.731 176.508 C 167.077 178.117,163.117 178.117,161.464 176.508 L 160.696 175.761 160.696 159.353 L 160.696 142.944 161.387 142.071 C 163.256 139.709,165.675 139.027,167.238 140.422 M208.929 140.481 C 209.850 141.461,210.031 141.912,210.030 143.231 C 210.026 146.432,209.445 146.981,206.055 146.981 C 204.076 146.981,203.330 147.059,202.771 147.326 L 202.047 147.671 202.047 151.177 L 202.047 154.684 202.771 155.029 C 203.208 155.237,203.996 155.374,204.766 155.374 C 206.862 155.374,208.486 156.809,208.935 159.058 C 209.196 160.361,206.635 162.538,204.842 162.538 C 203.685 162.538,203.546 162.591,202.823 163.296 L 202.047 164.054 202.047 167.498 L 202.047 170.942 202.572 171.141 C 202.861 171.251,203.649 171.341,204.324 171.341 C 207.144 171.341,208.598 172.388,208.908 174.641 C 209.243 177.072,207.676 177.689,201.189 177.682 C 195.877 177.676,195.078 177.545,194.012 176.508 L 193.245 175.761 193.245 159.353 L 193.245 142.944 193.936 142.071 C 194.316 141.591,195.019 140.887,195.500 140.507 L 196.373 139.816 202.338 139.816 L 208.303 139.816 208.929 140.481 M240.081 140.569 C 243.377 142.220,242.954 145.911,239.365 146.815 C 237.501 147.284,237.666 145.820,237.666 161.826 C 237.666 177.815,237.772 176.791,236.071 177.274 C 234.780 177.640,231.684 177.771,230.847 177.495 C 229.396 177.016,229.478 177.938,229.478 162.020 C 229.478 145.575,229.681 147.048,227.398 146.944 C 225.588 146.861,225.308 146.684,224.372 145.025 C 223.239 143.018,223.450 142.252,225.609 140.536 L 226.510 139.820 232.543 139.818 L 238.576 139.816 240.081 140.569 M302.540 140.034 C 304.566 140.501,305.540 141.976,305.208 144.074 C 304.879 146.155,304.355 146.688,302.427 146.898 C 300.577 147.100,300.716 145.888,300.716 161.769 C 300.716 179.051,301.125 177.521,296.506 177.534 C 291.938 177.546,292.330 179.017,292.326 161.860 C 292.323 145.833,292.459 146.981,290.563 146.981 C 288.481 146.981,287.928 146.434,287.688 144.142 C 287.509 142.432,287.722 141.596,288.578 140.643 L 289.320 139.816 295.479 139.821 C 298.900 139.824,302.039 139.918,302.540 140.034 M358.441 140.037 C 358.946 140.154,359.500 140.376,359.671 140.531 C 359.842 140.686,361.021 140.948,362.291 141.114 C 364.765 141.437,365.525 141.763,365.732 142.590 C 365.814 142.916,366.156 143.257,366.654 143.511 C 368.174 144.287,368.168 144.257,368.168 151.168 C 368.168 157.940,368.136 158.140,366.912 158.963 L 366.270 159.396 366.843 159.612 C 368.104 160.088,368.161 160.452,368.233 168.500 C 368.307 176.863,368.274 177.087,366.905 177.467 C 364.944 178.011,362.580 177.595,361.464 176.508 L 360.696 175.761 360.696 171.158 C 360.696 166.179,360.491 164.510,359.742 163.373 L 359.280 162.673 359.067 163.233 C 358.937 163.575,358.854 166.143,358.854 169.829 C 358.854 177.801,359.007 177.521,354.644 177.534 C 351.935 177.541,351.167 177.330,350.725 176.459 C 350.332 175.682,350.344 142.948,350.737 142.006 C 351.505 140.170,355.066 139.260,358.441 140.037 M331.416 141.255 C 332.631 141.420,332.811 141.512,333.595 142.366 C 334.065 142.877,334.549 143.296,334.671 143.296 C 334.992 143.296,335.431 144.248,335.730 145.596 C 335.913 146.420,336.133 146.864,336.470 147.085 L 336.950 147.399 336.950 159.269 L 336.950 171.139 336.453 171.571 C 336.151 171.833,335.860 172.416,335.713 173.054 C 335.390 174.453,335.054 174.944,334.230 175.216 C 333.756 175.372,333.434 175.669,333.197 176.167 C 332.714 177.180,331.909 177.451,328.931 177.603 C 323.789 177.866,321.738 177.337,320.478 175.420 C 320.041 174.755,319.460 174.003,319.187 173.748 C 317.972 172.613,318.020 173.147,317.955 159.896 C 317.886 145.560,317.839 146.018,319.569 144.250 C 320.231 143.573,320.825 142.856,320.888 142.656 C 321.363 141.160,326.087 140.531,331.416 141.255 M111.718 141.525 C 112.082 141.715,112.534 142.104,112.720 142.389 C 112.907 142.674,113.321 143.042,113.640 143.207 C 114.345 143.572,114.742 144.307,114.930 145.599 C 115.007 146.134,115.138 146.571,115.219 146.571 C 116.018 146.571,116.070 147.354,116.070 159.432 L 116.070 171.105 115.583 171.683 C 115.315 172.002,114.987 172.787,114.854 173.430 C 114.689 174.225,114.443 174.747,114.082 175.067 C 113.791 175.326,113.161 175.923,112.682 176.394 C 111.562 177.496,111.109 177.582,106.448 177.573 C 103.079 177.566,102.559 177.519,101.734 177.146 C 100.859 176.750,99.079 174.940,99.079 174.447 C 99.079 174.328,98.713 173.809,98.267 173.293 C 97.001 171.831,97.010 171.945,97.075 158.803 C 97.139 145.823,97.119 146.056,98.310 144.865 C 98.575 144.599,99.138 143.861,99.561 143.224 C 100.856 141.273,101.698 141.040,107.165 141.120 C 110.344 141.167,111.175 141.241,111.718 141.525 M73.000 147.509 C 72.932 147.687,72.876 149.374,72.876 151.257 C 72.876 155.395,72.892 155.431,74.539 155.138 L 75.691 154.932 75.819 153.998 C 75.981 152.812,75.959 149.813,75.778 148.640 C 75.603 147.500,73.355 146.585,73.000 147.509 M105.659 147.442 C 105.489 147.613,105.425 150.876,105.425 159.413 C 105.425 172.238,105.361 171.601,106.595 171.190 L 107.165 171.000 107.165 159.363 L 107.165 147.727 106.529 147.468 C 106.052 147.273,105.835 147.267,105.659 147.442 M138.110 147.322 C 137.825 147.606,137.956 154.900,138.250 155.144 C 139.319 156.031,140.171 152.334,139.602 149.282 C 139.314 147.735,138.615 146.817,138.110 147.322 M326.540 147.441 C 326.204 147.777,326.204 170.954,326.540 171.289 C 326.717 171.466,326.912 171.454,327.329 171.238 C 328.100 170.840,328.147 170.149,328.147 159.365 C 328.147 148.581,328.100 147.891,327.329 147.492 C 326.912 147.277,326.717 147.264,326.540 147.441 M359.101 147.429 C 358.728 147.802,358.754 154.832,359.130 155.143 C 359.814 155.711,360.820 152.815,360.634 150.813 C 360.426 148.587,359.652 146.878,359.101 147.429"/><path fill="#bbb" d="M139.765 61.222 L 138.997 61.627 138.997 73.266 L 138.997 84.906 139.840 85.749 L 140.683 86.592 152.323 86.592 L 163.963 86.592 164.377 85.781 C 164.991 84.576,165.028 61.691,164.416 61.137 C 163.784 60.565,140.859 60.644,139.765 61.222 M35.412 130.860 C 35.015 131.512,35.007 131.955,35.006 153.592 L 35.005 175.658 35.508 176.161 C 36.251 176.904,38.186 176.889,39.084 176.133 L 39.713 175.603 39.713 166.185 C 39.713 154.549,39.319 155.621,43.768 155.162 C 44.793 155.057,45.631 154.859,45.834 154.676 C 46.021 154.506,46.678 154.102,47.294 153.777 C 48.205 153.295,48.528 152.974,49.028 152.049 C 49.365 151.424,49.826 150.709,50.051 150.460 C 50.440 150.031,50.464 149.667,50.532 143.121 C 50.617 134.948,50.736 135.541,48.209 131.586 C 47.493 130.465,45.999 130.196,40.478 130.195 L 35.818 130.194 35.412 130.860 M260.421 130.560 C 259.623 130.792,259.180 131.070,258.784 131.587 C 258.484 131.977,257.856 132.738,257.387 133.279 C 256.185 134.666,256.035 135.540,256.121 140.635 L 256.192 144.831 257.160 146.882 C 257.693 148.010,258.191 149.246,258.268 149.629 C 258.353 150.055,258.738 150.649,259.260 151.160 C 259.729 151.620,260.307 152.318,260.544 152.712 C 260.781 153.106,261.264 153.705,261.618 154.043 C 261.972 154.381,262.593 155.210,262.999 155.885 C 263.405 156.561,264.033 157.408,264.396 157.769 C 265.022 158.390,265.702 160.149,266.518 163.255 C 267.154 165.677,266.564 170.300,265.470 171.478 C 263.654 173.431,261.208 171.065,261.208 167.357 C 261.208 165.557,260.006 164.381,258.168 164.381 L 256.917 164.381 256.504 165.191 C 254.806 168.520,256.956 174.338,260.522 176.064 C 261.839 176.702,266.442 176.776,267.541 176.177 C 268.520 175.644,271.197 172.859,271.556 172.001 C 272.362 170.071,271.845 159.612,270.905 158.832 C 270.733 158.689,270.187 157.706,269.693 156.648 C 269.198 155.591,268.556 154.538,268.264 154.309 C 267.973 154.080,267.459 153.404,267.122 152.808 C 266.786 152.211,266.295 151.582,266.032 151.409 C 265.768 151.237,265.344 150.745,265.089 150.318 C 264.834 149.890,264.277 149.171,263.851 148.721 C 263.228 148.061,262.974 147.527,262.539 145.973 C 262.243 144.912,261.867 143.787,261.705 143.472 C 259.885 139.952,262.444 132.971,264.956 134.603 C 266.765 135.778,266.735 135.713,266.735 138.417 L 266.735 140.837 267.584 141.452 C 268.780 142.318,270.776 142.358,271.428 141.528 C 271.910 140.916,272.045 136.498,271.637 134.728 C 270.811 131.145,265.368 129.122,260.421 130.560 M45.976 131.225 C 47.086 131.647,48.101 132.989,48.529 134.599 C 48.866 135.871,49.034 147.640,48.737 149.266 C 48.309 151.610,47.987 152.577,47.583 152.724 C 46.832 152.998,44.318 153.511,42.600 153.742 C 41.270 153.920,40.722 154.096,40.180 154.519 C 38.854 155.556,38.895 155.195,38.895 165.899 C 38.895 177.011,39.061 176.128,36.995 176.008 L 35.926 175.947 35.874 153.736 C 35.845 141.520,35.865 131.410,35.918 131.269 C 36.043 130.942,45.126 130.902,45.976 131.225 M267.186 131.226 C 267.627 131.349,268.140 131.698,268.414 132.063 C 268.673 132.407,269.391 133.242,270.010 133.919 L 271.136 135.148 271.204 137.707 C 271.299 141.238,271.295 141.249,269.891 141.249 C 267.983 141.249,267.963 141.220,267.962 138.324 C 267.962 135.589,267.669 134.683,266.665 134.301 C 266.402 134.201,265.751 133.743,265.220 133.283 C 263.970 132.201,264.085 132.168,262.107 134.156 C 260.076 136.196,259.992 136.443,259.985 140.385 C 259.979 143.354,260.161 144.106,261.095 144.972 C 261.502 145.350,261.721 145.864,261.954 146.994 C 262.352 148.913,262.489 149.158,263.414 149.593 C 263.850 149.799,264.198 150.123,264.236 150.359 C 264.380 151.259,264.763 151.897,265.377 152.260 C 265.801 152.510,266.266 153.119,266.728 154.028 C 267.116 154.795,267.733 155.646,268.106 155.930 C 268.546 156.266,268.858 156.737,269.006 157.291 C 269.498 159.132,269.863 159.892,270.487 160.380 L 271.136 160.888 271.198 165.853 C 271.267 171.418,271.249 171.587,270.526 171.916 C 270.242 172.045,269.830 172.453,269.610 172.821 C 269.390 173.189,268.815 173.772,268.331 174.117 C 267.847 174.461,267.362 174.942,267.252 175.186 C 266.729 176.345,261.682 176.344,261.082 175.185 C 260.889 174.811,260.420 174.426,259.854 174.175 C 259.080 173.833,258.863 173.599,258.447 172.659 C 258.145 171.975,257.764 171.460,257.457 171.320 C 256.884 171.059,256.704 170.205,256.704 167.747 C 256.704 165.653,256.734 165.609,258.127 165.609 C 259.733 165.609,259.911 165.849,260.022 168.168 C 260.182 171.531,261.906 173.278,264.673 172.879 C 267.164 172.521,267.803 171.447,267.923 167.411 C 268.064 162.703,267.889 161.444,266.948 160.414 C 266.419 159.835,266.097 159.226,265.919 158.473 C 265.720 157.631,265.430 157.136,264.673 156.342 C 264.131 155.773,263.575 155.023,263.438 154.675 C 263.143 153.927,262.463 153.122,262.125 153.122 C 261.795 153.122,261.287 152.509,261.106 151.894 C 260.934 151.308,260.220 150.462,259.893 150.457 C 259.357 150.450,259.146 150.019,258.852 148.336 C 258.472 146.155,258.158 145.364,257.392 144.654 L 256.807 144.111 256.807 139.935 L 256.807 135.759 257.394 135.296 C 257.718 135.042,258.106 134.538,258.257 134.177 C 258.630 133.283,260.505 131.265,261.063 131.157 C 262.005 130.974,266.460 131.025,267.186 131.226 M41.727 132.935 C 40.861 133.121,40.369 133.377,39.782 133.947 L 38.997 134.709 38.939 142.636 C 38.867 152.338,38.706 151.857,42.069 151.944 C 44.102 151.997,44.832 151.689,45.132 150.651 C 45.248 150.249,45.489 149.696,45.667 149.423 C 46.394 148.308,46.469 147.595,46.466 141.781 L 46.463 136.029 44.762 134.340 C 43.826 133.411,43.021 132.659,42.973 132.668 C 42.926 132.678,42.365 132.797,41.727 132.935 M44.036 135.083 L 44.831 135.878 44.819 142.095 C 44.805 149.287,44.716 150.126,43.896 150.831 C 43.120 151.499,41.003 151.396,40.211 150.652 L 39.713 150.185 39.713 142.981 C 39.713 134.775,39.686 134.912,41.409 134.526 C 42.926 134.186,43.196 134.243,44.036 135.083 M67.503 142.364 L 66.735 142.901 66.735 159.348 L 66.735 175.794 67.745 176.229 C 69.152 176.834,70.814 176.822,71.392 176.203 C 71.807 175.757,71.824 175.516,71.889 168.987 C 71.970 160.839,72.102 160.365,74.160 160.808 C 76.739 161.363,76.966 162.082,76.968 169.719 L 76.970 175.773 77.470 176.243 C 78.084 176.819,80.058 176.777,81.337 176.160 L 82.121 175.782 82.031 170.133 C 81.930 163.772,81.211 160.082,80.073 160.082 C 79.394 160.082,79.480 159.226,80.248 158.339 C 80.696 157.822,81.117 157.150,81.183 156.847 C 81.250 156.543,81.442 155.834,81.610 155.271 C 82.678 151.703,81.884 145.354,80.247 144.362 C 79.965 144.191,79.408 143.688,79.010 143.245 C 78.070 142.197,77.502 142.086,72.364 141.942 L 68.270 141.828 67.503 142.364 M132.242 142.083 C 130.701 142.534,130.809 141.240,130.809 159.356 C 130.809 177.753,130.627 176.025,132.604 176.401 C 133.300 176.533,134.061 176.537,134.749 176.412 C 136.695 176.058,136.540 176.629,136.540 169.790 C 136.540 162.274,136.816 161.452,139.426 161.185 C 140.034 161.123,140.763 160.992,141.044 160.893 C 141.325 160.795,141.968 160.610,142.472 160.480 C 143.947 160.103,146.019 157.849,146.334 156.281 C 146.696 154.480,146.639 148.689,146.242 146.944 C 145.809 145.043,143.638 142.690,141.939 142.281 C 140.616 141.962,133.174 141.811,132.242 142.083 M163.246 142.365 L 162.743 142.868 162.743 159.359 L 162.743 175.850 163.408 176.256 C 164.412 176.868,166.089 176.814,166.971 176.141 L 167.656 175.619 167.680 169.232 C 167.711 161.030,167.707 161.045,170.047 160.768 C 172.521 160.475,172.774 161.315,172.774 169.832 C 172.774 176.623,172.620 176.059,174.566 176.412 C 175.665 176.612,177.544 176.386,178.045 175.994 C 178.433 175.691,178.418 142.829,178.030 142.507 C 177.435 142.013,175.704 141.783,174.543 142.043 C 172.725 142.450,172.810 142.095,172.728 149.541 C 172.648 156.680,172.572 157.197,171.521 157.741 C 170.712 158.159,169.025 157.932,168.299 157.307 L 167.758 156.843 167.656 149.880 L 167.554 142.918 167.057 142.391 C 166.335 141.622,164.004 141.606,163.246 142.365 M195.794 142.365 L 195.292 142.868 195.292 159.359 L 195.292 175.850 195.957 176.256 C 196.568 176.629,196.998 176.662,201.264 176.662 L 205.905 176.663 206.515 176.150 L 207.125 175.637 206.821 174.471 C 206.432 172.982,206.159 172.790,204.401 172.771 C 200.299 172.727,200.197 172.588,200.229 167.082 C 200.264 160.865,200.245 160.901,203.723 160.745 C 205.735 160.655,205.865 160.621,206.489 160.029 L 207.143 159.409 206.759 158.657 C 206.210 157.579,206.018 157.483,204.197 157.361 C 200.396 157.107,200.205 156.815,200.205 151.265 C 200.205 145.310,200.545 144.933,205.930 144.933 L 208.194 144.933 208.600 144.268 C 209.944 142.064,209.419 141.863,202.333 141.863 L 196.297 141.863 195.794 142.365 M226.009 142.363 C 225.004 143.433,226.061 144.933,227.820 144.933 C 230.523 144.933,230.502 144.801,230.502 161.819 L 230.502 175.773 230.975 176.218 C 231.637 176.840,233.355 176.832,234.604 176.203 L 235.517 175.742 235.619 161.617 L 235.722 147.492 236.200 146.723 C 236.463 146.300,237.108 145.709,237.633 145.410 C 238.652 144.831,239.835 143.818,240.134 143.268 C 240.276 143.008,240.138 142.815,239.508 142.398 L 238.699 141.863 232.589 141.863 L 226.479 141.863 226.009 142.363 M288.952 142.394 C 288.151 143.616,289.038 144.933,290.661 144.933 C 292.056 144.933,292.698 145.384,293.352 146.826 C 293.730 147.659,293.748 148.307,293.752 161.746 C 293.755 172.737,293.812 175.838,294.012 175.994 C 294.853 176.648,297.967 176.634,299.040 175.970 C 299.224 175.857,299.284 172.390,299.286 161.759 L 299.288 147.697 299.781 146.638 C 300.329 145.460,300.705 145.155,302.374 144.535 C 304.378 143.790,304.418 142.583,302.456 142.089 C 301.901 141.949,299.219 141.863,295.429 141.863 L 289.300 141.863 288.952 142.394 M353.059 142.134 C 352.630 142.274,352.193 142.524,352.089 142.689 C 351.776 143.184,351.835 175.749,352.149 175.994 C 353.010 176.663,356.538 176.611,357.222 175.918 C 357.318 175.821,357.431 172.840,357.473 169.294 C 357.556 162.379,357.659 161.604,358.570 161.007 C 359.383 160.474,359.955 160.763,361.218 162.346 C 362.658 164.151,362.733 164.584,362.739 171.088 L 362.743 175.850 363.408 176.256 C 364.395 176.858,366.207 176.822,366.802 176.189 C 367.238 175.725,367.247 175.593,367.247 169.751 C 367.247 163.085,367.107 161.886,366.239 161.105 C 364.818 159.827,364.735 158.980,365.913 157.795 C 367.220 156.480,367.855 149.472,366.941 146.455 C 366.545 145.151,364.182 142.913,362.629 142.372 C 361.306 141.912,354.269 141.736,353.059 142.134 M103.071 142.458 C 101.634 143.126,100.064 144.857,99.525 146.366 C 99.263 147.098,98.895 148.066,98.706 148.516 C 98.405 149.233,98.354 150.486,98.299 158.649 C 98.230 168.787,98.295 169.624,99.301 171.509 C 99.629 172.124,99.898 172.794,99.898 172.999 C 99.898 173.478,101.703 175.301,102.968 176.100 C 104.653 177.164,109.798 176.692,111.430 175.324 C 114.254 172.956,114.057 174.257,113.981 158.414 C 113.913 144.196,113.989 144.928,112.508 144.184 C 112.159 144.008,111.551 143.560,111.157 143.187 C 109.950 142.045,104.930 141.592,103.071 142.458 M324.228 142.352 C 323.158 142.734,321.292 144.454,320.649 145.650 C 320.347 146.213,319.930 146.918,319.722 147.217 C 319.367 147.729,319.345 148.422,319.345 159.306 L 319.345 170.852 319.868 171.557 C 320.155 171.945,320.555 172.631,320.756 173.083 C 321.097 173.851,322.995 175.702,323.957 176.207 C 325.723 177.133,330.843 176.585,331.934 175.353 C 332.272 174.972,332.933 174.424,333.402 174.135 C 334.902 173.210,334.903 173.203,334.903 159.419 C 334.903 145.918,334.864 145.435,333.712 144.559 C 333.316 144.258,332.629 143.674,332.184 143.262 C 330.974 142.139,326.316 141.606,324.228 142.352 M77.636 142.977 C 77.833 143.064,77.994 143.258,77.994 143.409 C 77.994 143.877,78.932 144.800,79.657 145.044 C 80.562 145.348,80.837 146.689,80.850 150.870 C 80.866 155.447,80.568 157.161,79.694 157.527 C 78.146 158.173,78.111 160.391,79.637 161.154 C 80.643 161.658,80.831 163.036,80.847 170.054 C 80.862 176.392,80.962 176.052,79.082 176.046 C 77.530 176.041,77.622 176.470,77.548 168.882 C 77.464 160.143,77.360 159.877,74.009 159.877 C 71.283 159.877,71.363 159.627,71.238 168.577 L 71.136 175.947 69.964 176.008 C 67.740 176.124,67.963 177.991,67.963 159.273 C 67.963 146.389,68.017 142.896,68.219 142.806 C 68.597 142.636,77.217 142.793,77.636 142.977 M108.751 142.897 C 109.173 143.014,109.519 143.228,109.519 143.371 C 109.519 143.725,111.069 144.723,112.074 145.018 C 113.232 145.357,113.232 145.353,113.151 159.850 C 113.076 173.286,113.075 173.294,112.154 173.496 C 111.825 173.568,111.305 173.834,110.998 174.087 C 110.691 174.340,110.270 174.609,110.062 174.685 C 109.855 174.761,109.636 175.008,109.577 175.234 C 109.434 175.783,108.733 175.950,106.653 175.930 C 104.065 175.904,103.512 175.757,103.234 175.021 C 103.073 174.596,102.758 174.309,102.217 174.096 C 100.871 173.567,100.864 173.555,100.429 171.327 C 100.047 169.364,100.013 168.397,100.008 159.365 C 100.002 149.363,100.021 149.029,100.818 145.427 C 100.877 145.160,101.220 144.878,101.726 144.679 C 102.228 144.482,102.700 144.096,102.955 143.674 C 103.292 143.118,103.536 142.966,104.244 142.866 C 105.725 142.658,107.945 142.673,108.751 142.897 M141.163 142.862 C 141.908 143.075,145.244 146.285,145.546 147.078 C 145.770 147.669,145.827 154.412,145.622 156.120 C 145.503 157.115,145.451 157.192,144.693 157.490 C 144.074 157.733,143.810 157.995,143.542 158.636 C 143.125 159.631,143.174 159.613,140.272 159.866 C 136.952 160.155,136.850 160.221,135.334 163.050 C 135.061 163.560,134.988 164.686,134.903 169.703 L 134.800 175.742 134.107 175.808 C 133.725 175.845,133.196 175.820,132.930 175.753 L 132.446 175.632 132.446 159.355 L 132.446 143.078 132.907 142.893 C 133.505 142.653,140.344 142.627,141.163 142.862 M166.637 149.991 C 166.768 158.840,166.770 158.844,170.031 158.851 C 171.923 158.855,172.575 158.607,173.414 157.563 L 174.104 156.704 174.207 149.846 L 174.309 142.989 175.026 142.816 C 175.471 142.709,175.955 142.726,176.305 142.862 L 176.868 143.081 176.868 159.338 C 176.868 177.409,177.000 175.848,175.469 175.841 C 174.185 175.836,174.238 176.125,174.169 168.778 L 174.104 162.027 173.490 161.245 C 172.610 160.124,172.018 159.877,170.205 159.877 C 166.767 159.877,166.790 159.819,166.677 168.680 C 166.613 173.644,166.517 175.787,166.354 175.892 C 166.071 176.075,164.336 176.098,163.886 175.925 C 163.542 175.793,163.366 143.151,163.707 142.810 C 163.786 142.730,164.454 142.692,165.191 142.724 L 166.530 142.784 166.637 149.991 M208.291 143.193 C 208.291 143.582,208.114 143.609,204.811 143.724 C 199.291 143.916,199.032 144.314,199.222 152.323 C 199.360 158.134,199.710 158.615,203.816 158.637 C 205.538 158.647,205.915 158.706,206.021 158.982 C 206.288 159.679,205.788 159.842,203.166 159.912 C 199.287 160.015,199.229 160.126,199.196 167.514 C 199.170 173.321,200.056 174.403,204.846 174.410 C 205.969 174.412,206.675 175.380,205.907 175.867 C 205.455 176.153,196.647 176.095,196.356 175.803 C 196.086 175.534,195.982 143.083,196.250 142.815 C 196.653 142.412,208.291 142.777,208.291 143.193 M238.798 142.895 C 239.033 143.275,238.516 143.633,237.359 143.892 C 234.318 144.573,234.391 144.139,234.391 161.442 C 234.391 177.682,234.605 176.124,232.390 176.008 L 231.218 175.947 231.116 160.901 C 230.993 142.805,231.162 143.716,227.913 143.708 C 226.676 143.705,226.186 143.410,226.521 142.868 C 226.688 142.598,238.631 142.625,238.798 142.895 M301.689 142.811 C 302.390 142.998,302.247 143.226,301.177 143.625 C 299.799 144.140,299.271 144.517,298.931 145.231 C 298.767 145.574,298.458 146.177,298.243 146.571 C 297.868 147.257,297.851 147.893,297.851 161.469 L 297.851 175.650 297.241 175.772 C 296.906 175.839,296.582 175.894,296.520 175.894 C 296.458 175.894,296.134 175.839,295.799 175.772 L 295.189 175.650 295.189 161.494 L 295.189 147.338 294.369 145.851 C 293.383 144.066,292.788 143.705,290.830 143.705 C 289.520 143.705,289.024 143.422,289.367 142.868 C 289.493 142.663,300.940 142.610,301.689 142.811 M329.620 142.894 C 330.035 143.009,330.430 143.262,330.496 143.456 C 330.629 143.845,331.933 144.721,333.093 145.201 C 334.118 145.625,334.121 145.684,334.045 160.091 C 333.974 173.496,334.061 172.740,332.494 173.596 C 330.879 174.478,330.495 174.758,330.299 175.192 C 329.995 175.866,328.937 176.123,327.094 175.969 C 324.674 175.767,324.373 175.674,324.093 175.042 C 323.956 174.732,323.591 174.362,323.283 174.220 C 321.731 173.507,321.710 173.488,321.567 172.666 C 321.490 172.219,321.307 171.576,321.161 171.238 C 320.824 170.461,320.651 151.385,320.959 149.028 C 321.345 146.073,321.852 144.737,322.594 144.722 C 323.074 144.713,323.531 144.313,323.918 143.564 C 324.190 143.039,324.406 142.896,325.024 142.831 C 326.643 142.662,328.895 142.693,329.620 142.894 M361.996 142.875 C 362.275 142.981,362.565 143.261,362.639 143.496 C 362.714 143.732,363.160 144.165,363.629 144.459 C 364.099 144.752,364.944 145.463,365.507 146.038 L 366.530 147.083 366.530 151.243 L 366.530 155.403 365.894 155.951 C 363.863 157.700,363.683 160.022,365.430 161.924 C 366.607 163.205,366.633 163.370,366.633 169.814 C 366.633 176.272,366.687 176.051,365.107 176.046 C 363.516 176.041,363.608 176.415,363.518 169.600 C 363.426 162.647,363.455 162.792,361.815 161.138 C 360.011 159.320,358.033 159.394,356.691 161.329 L 356.090 162.195 356.026 168.925 L 355.962 175.655 355.366 175.774 C 354.635 175.920,354.680 175.921,353.936 175.772 L 353.327 175.650 353.327 159.364 L 353.327 143.078 353.787 142.893 C 354.403 142.645,361.352 142.630,361.996 142.875 M72.407 144.118 C 71.453 144.868,71.341 145.624,71.341 151.279 C 71.341 158.173,71.720 159.065,74.395 158.466 C 77.017 157.879,77.586 156.592,77.572 151.279 C 77.560 146.858,77.422 146.249,76.302 145.651 C 75.878 145.425,75.383 145.024,75.201 144.758 C 74.537 143.791,73.209 143.487,72.407 144.118 M137.126 144.256 C 136.829 144.440,136.231 145.198,135.796 145.939 L 135.005 147.288 134.938 150.983 L 134.871 154.679 135.671 156.203 C 137.108 158.942,139.001 159.427,140.428 157.424 C 140.669 157.084,140.983 156.807,141.125 156.807 C 143.120 156.807,143.272 146.752,141.290 145.909 C 140.986 145.779,140.360 145.277,139.899 144.792 C 138.962 143.804,138.117 143.641,137.126 144.256 M358.342 144.293 C 357.779 144.550,357.299 145.012,356.807 145.772 L 356.090 146.878 356.028 150.973 L 355.965 155.067 356.668 156.398 C 358.010 158.940,360.312 159.406,361.113 157.297 C 361.214 157.034,361.615 156.685,362.006 156.521 C 363.272 155.992,363.452 155.351,363.447 151.382 C 363.443 147.437,363.250 146.666,362.090 145.967 C 361.717 145.743,361.029 145.188,360.559 144.735 C 359.592 143.800,359.473 143.776,358.342 144.293 M104.900 144.780 C 104.203 145.606,103.868 146.394,103.682 147.639 C 103.603 148.170,103.404 148.716,103.240 148.853 C 102.376 149.569,102.354 149.831,102.354 159.369 C 102.354 168.719,102.367 168.879,103.169 169.806 C 103.364 170.031,103.622 170.722,103.742 171.341 C 104.393 174.701,106.599 175.505,108.946 173.238 C 110.106 172.116,110.133 171.800,110.132 159.202 C 110.131 145.531,110.080 145.276,107.182 144.415 C 105.758 143.993,105.534 144.028,104.900 144.780 M325.817 144.793 C 325.466 145.166,324.996 145.834,324.772 146.277 C 324.548 146.720,324.179 147.298,323.953 147.560 C 323.554 148.022,323.540 148.359,323.480 158.567 L 323.418 169.098 323.931 170.066 C 324.213 170.598,324.542 171.421,324.663 171.895 C 324.784 172.369,324.974 172.813,325.085 172.882 C 325.197 172.950,325.418 173.319,325.578 173.702 C 326.025 174.771,327.974 174.702,328.659 173.592 C 328.731 173.477,329.098 173.253,329.476 173.095 C 330.966 172.472,330.903 173.015,330.976 159.989 C 331.056 145.507,331.017 145.293,328.103 144.427 C 326.663 144.000,326.546 144.019,325.817 144.793 M73.781 145.317 C 73.842 145.415,74.396 145.735,75.012 146.026 C 76.767 146.857,76.852 147.084,76.925 151.164 C 77.005 155.565,76.856 155.933,74.633 156.830 C 73.019 157.482,73.028 157.484,72.413 156.332 C 71.854 155.286,71.610 148.679,72.070 147.038 C 72.463 145.634,73.397 144.695,73.781 145.317 M139.778 146.204 C 141.558 147.363,141.658 147.648,141.658 151.534 C 141.658 155.172,141.688 155.096,139.686 156.496 L 138.331 157.443 137.818 156.971 C 135.934 155.237,135.929 146.982,137.811 145.663 C 138.401 145.251,138.253 145.210,139.778 146.204 M360.403 146.223 C 362.481 147.655,363.158 149.965,362.520 153.442 C 362.275 154.780,362.155 154.953,360.432 156.448 L 359.246 157.476 358.753 157.013 C 356.870 155.244,356.762 147.397,358.600 145.951 C 359.262 145.431,359.251 145.429,360.403 146.223 M107.219 146.064 C 109.245 146.666,109.110 145.710,109.110 159.382 L 109.110 171.318 108.649 171.849 C 108.351 172.193,107.756 172.492,106.965 172.698 L 105.742 173.015 105.187 172.394 C 104.152 171.236,104.122 170.923,104.036 160.389 C 103.920 146.286,104.171 145.159,107.219 146.064 M328.135 146.094 C 328.848 146.324,329.339 146.641,329.642 147.066 L 330.092 147.697 330.092 159.299 C 330.092 172.699,330.260 171.653,327.969 172.551 L 326.709 173.045 326.174 172.551 C 324.984 171.454,324.987 171.484,324.908 160.901 C 324.816 148.522,324.874 147.615,325.838 146.549 C 326.659 145.640,326.702 145.631,328.135 146.094"/><path fill="#7d7d7d" d="M139.455 59.801 C 137.668 60.487,137.767 59.670,137.780 73.634 C 137.793 87.350,137.771 87.115,139.099 87.614 C 140.509 88.143,163.606 88.176,164.585 87.650 C 166.196 86.785,166.210 86.665,166.217 73.384 L 166.223 61.712 165.718 60.969 C 164.569 59.278,165.301 59.364,152.176 59.376 C 140.994 59.386,140.489 59.403,139.455 59.801 M189.066 60.609 L 188.536 61.239 188.536 73.231 L 188.536 85.222 189.059 85.907 L 189.581 86.592 202.360 86.592 L 215.140 86.592 215.554 85.781 C 215.954 84.996,215.967 84.605,215.967 73.286 C 215.967 61.966,215.954 61.576,215.554 60.790 L 215.140 59.980 202.368 59.980 L 189.596 59.980 189.066 60.609 M164.416 61.137 C 165.028 61.691,164.991 84.576,164.377 85.781 L 163.963 86.592 152.323 86.592 L 140.683 86.592 139.840 85.749 L 138.997 84.906 138.997 73.266 L 138.997 61.627 139.765 61.222 C 140.859 60.644,163.784 60.565,164.416 61.137 M237.907 61.272 L 237.462 61.746 237.462 73.285 C 237.462 84.571,237.471 84.844,237.889 85.708 L 238.317 86.592 249.958 86.592 L 261.600 86.592 262.427 85.804 L 263.255 85.017 263.255 73.321 L 263.255 61.626 262.444 61.212 C 261.659 60.811,261.269 60.798,249.993 60.798 L 238.352 60.798 237.907 61.272 M35.568 129.801 C 34.564 130.386,34.596 129.622,34.596 153.537 L 34.596 175.876 35.194 176.474 C 36.192 177.472,38.623 177.326,39.867 176.193 L 40.328 175.773 40.328 166.315 C 40.328 158.991,40.385 156.812,40.583 156.657 C 41.102 156.251,42.318 155.951,44.053 155.799 C 45.614 155.662,45.942 155.561,46.714 154.982 C 47.198 154.618,47.899 154.141,48.272 153.922 C 48.644 153.702,49.105 153.239,49.295 152.893 C 49.486 152.547,49.894 151.939,50.202 151.542 C 51.106 150.378,51.175 149.749,51.176 142.619 C 51.177 135.047,51.112 134.557,49.866 132.794 C 47.686 129.708,47.307 129.577,40.537 129.587 C 37.788 129.590,35.782 129.677,35.568 129.801 M260.323 129.962 C 259.057 130.332,258.927 130.431,257.228 132.346 C 255.809 133.946,255.660 134.514,255.533 138.804 C 255.384 143.848,255.860 146.904,256.995 148.201 C 257.147 148.374,257.480 149.098,257.737 149.810 C 258.067 150.728,258.405 151.258,258.900 151.636 C 259.283 151.928,259.776 152.518,259.995 152.947 C 260.213 153.375,260.804 154.190,261.308 154.757 C 261.811 155.324,262.362 156.056,262.532 156.385 C 262.702 156.714,263.282 157.486,263.820 158.102 C 266.320 160.958,266.435 171.750,263.966 171.750 C 263.026 171.750,262.231 169.744,262.231 167.370 C 262.231 163.142,256.736 161.739,255.655 165.691 C 254.810 168.778,255.796 172.832,257.887 174.866 C 259.988 176.911,260.709 177.142,264.653 177.036 C 267.955 176.948,268.067 176.903,270.188 174.820 C 272.350 172.696,272.343 172.720,272.428 167.098 C 272.521 160.952,272.240 159.075,271.027 157.728 C 270.824 157.503,270.410 156.694,270.106 155.932 C 269.755 155.052,269.309 154.342,268.885 153.987 C 268.518 153.680,267.927 152.954,267.573 152.374 C 267.219 151.794,266.702 151.171,266.424 150.989 C 266.147 150.807,265.688 150.202,265.405 149.644 C 265.123 149.086,264.618 148.427,264.283 148.180 C 262.287 146.704,261.502 137.321,263.220 135.466 C 263.862 134.772,263.963 134.770,264.933 135.442 L 265.711 135.982 265.711 138.438 L 265.711 140.893 266.434 141.575 C 267.819 142.881,270.647 143.139,271.662 142.053 C 273.065 140.551,272.684 133.715,271.131 132.531 C 270.743 132.235,270.243 131.696,270.018 131.334 C 269.019 129.717,263.726 128.968,260.323 129.962 M46.469 130.571 C 47.528 130.868,47.883 131.076,48.209 131.586 C 50.736 135.541,50.617 134.948,50.532 143.121 C 50.464 149.667,50.440 150.031,50.051 150.460 C 49.826 150.709,49.365 151.424,49.028 152.049 C 48.528 152.974,48.205 153.295,47.294 153.777 C 46.678 154.102,46.021 154.506,45.834 154.676 C 45.631 154.859,44.793 155.057,43.768 155.162 C 39.319 155.621,39.713 154.549,39.713 166.185 L 39.713 175.603 39.084 176.133 C 38.186 176.889,36.251 176.904,35.508 176.161 L 35.005 175.658 35.006 153.592 C 35.007 131.955,35.015 131.512,35.412 130.860 L 35.818 130.194 40.478 130.195 C 44.370 130.196,45.358 130.258,46.469 130.571 M267.562 130.520 C 269.054 130.939,271.298 133.255,271.637 134.728 C 272.045 136.498,271.910 140.916,271.428 141.528 C 270.776 142.358,268.780 142.318,267.584 141.452 L 266.735 140.837 266.735 138.417 C 266.735 135.713,266.765 135.778,264.956 134.603 C 262.444 132.971,259.885 139.952,261.705 143.472 C 261.867 143.787,262.243 144.912,262.539 145.973 C 262.974 147.527,263.228 148.061,263.851 148.721 C 264.277 149.171,264.834 149.890,265.089 150.318 C 265.344 150.745,265.768 151.237,266.032 151.409 C 266.295 151.582,266.786 152.211,267.122 152.808 C 267.459 153.404,267.973 154.080,268.264 154.309 C 268.556 154.538,269.198 155.591,269.693 156.648 C 270.187 157.706,270.733 158.689,270.905 158.832 C 271.845 159.612,272.362 170.071,271.556 172.001 C 271.197 172.859,268.520 175.644,267.541 176.177 C 266.442 176.776,261.839 176.702,260.522 176.064 C 256.956 174.338,254.806 168.520,256.504 165.191 L 256.917 164.381 258.168 164.381 C 260.006 164.381,261.208 165.557,261.208 167.357 C 261.208 171.065,263.654 173.431,265.470 171.478 C 266.564 170.300,267.154 165.677,266.518 163.255 C 265.702 160.149,265.022 158.390,264.396 157.769 C 264.033 157.408,263.405 156.561,262.999 155.885 C 262.593 155.210,261.972 154.381,261.618 154.043 C 261.264 153.705,260.781 153.106,260.544 152.712 C 260.307 152.318,259.729 151.620,259.260 151.160 C 258.738 150.649,258.353 150.055,258.268 149.629 C 258.191 149.246,257.693 148.010,257.160 146.882 L 256.192 144.831 256.121 140.635 C 256.035 135.540,256.185 134.666,257.387 133.279 C 257.856 132.738,258.484 131.977,258.784 131.587 C 259.782 130.286,264.628 129.697,267.562 130.520 M41.409 134.526 C 39.686 134.912,39.713 134.775,39.713 142.981 L 39.713 150.185 40.211 150.652 C 41.003 151.396,43.120 151.499,43.896 150.831 C 44.716 150.126,44.805 149.287,44.819 142.095 L 44.831 135.878 44.036 135.083 C 43.196 134.243,42.926 134.186,41.409 134.526 M43.686 135.497 L 44.255 136.090 44.185 142.964 L 44.115 149.837 43.593 150.359 C 43.079 150.873,43.052 150.877,41.751 150.619 L 40.430 150.358 40.376 143.218 C 40.316 135.303,40.252 135.679,41.736 135.223 C 43.031 134.824,43.043 134.826,43.686 135.497 M67.940 141.326 C 65.494 142.200,65.691 140.546,65.757 159.672 L 65.814 175.947 66.925 176.510 C 67.839 176.973,68.305 177.073,69.549 177.073 C 72.422 177.073,72.341 177.298,72.467 168.987 C 72.592 160.711,72.555 160.831,74.654 161.808 C 76.359 162.602,76.356 162.591,76.356 169.502 C 76.356 175.692,76.397 176.019,77.250 176.710 C 78.133 177.425,81.221 177.133,82.549 176.209 L 83.112 175.817 83.112 170.813 L 83.112 165.809 82.203 163.124 C 81.625 161.413,81.104 160.239,80.768 159.889 L 80.241 159.338 80.733 158.877 C 82.775 156.958,83.731 149.609,82.320 146.673 C 81.941 145.885,81.530 145.025,81.406 144.763 C 81.283 144.500,80.902 144.087,80.560 143.844 C 80.218 143.602,79.614 143.064,79.217 142.649 C 78.416 141.810,78.495 141.833,74.923 141.369 C 71.900 140.975,68.972 140.957,67.940 141.326 M133.163 141.189 C 129.928 141.632,130.194 140.001,130.194 159.354 L 130.194 175.671 130.764 176.240 C 131.799 177.276,135.557 177.344,136.633 176.347 L 137.155 175.864 137.155 169.966 C 137.155 162.763,137.350 162.141,139.614 162.132 C 140.010 162.130,140.655 161.958,141.047 161.750 C 141.439 161.542,142.248 161.210,142.844 161.014 C 144.363 160.514,146.233 158.587,146.729 157.011 C 147.197 155.523,147.237 148.598,146.789 146.576 C 146.340 144.546,143.745 141.969,141.941 141.759 C 141.279 141.683,140.092 141.490,139.304 141.332 C 137.985 141.067,134.626 140.989,133.163 141.189 M163.767 141.189 C 163.289 141.363,162.529 142.113,162.212 142.723 C 161.756 143.600,161.786 175.351,162.244 176.005 C 162.764 176.747,163.634 177.073,165.097 177.073 C 168.197 177.073,168.270 176.901,168.271 169.606 C 168.273 162.167,168.370 161.783,170.352 161.412 C 171.881 161.125,172.160 162.443,172.160 169.954 L 172.160 175.863 172.638 176.342 C 173.640 177.344,177.514 177.277,178.551 176.240 L 179.120 175.671 179.120 159.354 C 179.120 143.212,179.115 143.030,178.696 142.352 C 177.806 140.911,173.816 140.745,172.675 142.101 L 172.160 142.713 172.160 148.699 C 172.160 154.826,171.990 156.411,171.249 157.180 C 170.878 157.566,169.512 157.168,168.871 156.486 L 168.373 155.955 168.270 149.370 C 168.156 142.053,168.154 142.038,166.743 141.369 C 166.085 141.057,164.406 140.955,163.767 141.189 M196.196 141.242 C 195.962 141.337,195.524 141.707,195.223 142.065 L 194.675 142.716 194.728 159.426 L 194.780 176.135 195.476 176.604 C 196.152 177.060,196.304 177.073,201.064 177.073 C 207.366 177.073,208.013 176.816,207.590 174.482 C 207.272 172.720,206.591 172.160,204.770 172.160 C 200.906 172.160,200.762 171.958,200.854 166.660 L 200.921 162.750 201.568 162.104 C 202.176 161.496,202.328 161.451,204.136 161.333 C 207.100 161.140,208.186 160.140,207.389 158.339 C 206.712 156.807,206.108 156.397,204.525 156.395 C 203.039 156.393,201.197 155.711,200.952 155.074 C 200.737 154.513,200.799 147.605,201.023 147.187 C 201.427 146.432,203.283 145.957,205.834 145.957 C 208.524 145.957,208.741 145.841,209.322 144.091 C 209.691 142.979,209.393 141.952,208.526 141.344 C 208.042 141.005,197.008 140.914,196.196 141.242 M226.041 141.482 C 223.870 142.872,225.131 145.957,227.871 145.957 C 230.028 145.957,229.886 144.858,229.887 161.582 L 229.887 175.876 230.510 176.499 C 231.340 177.329,234.073 177.300,235.623 176.445 L 236.540 175.939 236.643 161.681 L 236.745 147.423 237.257 146.874 C 237.538 146.573,238.196 146.108,238.718 145.843 C 241.577 144.387,241.766 142.292,239.122 141.359 C 237.560 140.808,226.938 140.908,226.041 141.482 M288.974 141.548 C 287.255 143.141,288.365 145.957,290.711 145.957 C 291.811 145.957,291.929 146.005,292.415 146.642 L 292.938 147.326 292.938 161.499 L 292.938 175.671 293.511 176.245 C 294.491 177.225,298.221 177.338,299.385 176.423 L 299.890 176.026 299.945 161.743 L 300.000 147.460 300.557 146.731 C 300.991 146.161,301.350 145.945,302.194 145.747 C 303.515 145.438,303.750 145.261,304.224 144.217 C 305.437 141.552,303.981 141.044,295.129 141.044 L 289.517 141.044 288.974 141.548 M353.543 141.264 C 352.930 141.372,352.253 141.621,352.038 141.815 C 351.049 142.710,351.075 142.232,351.075 159.473 L 351.075 175.671 351.644 176.240 C 352.628 177.224,356.355 177.340,357.521 176.424 L 358.035 176.019 358.035 170.191 C 358.035 162.559,358.523 160.250,359.802 161.829 C 360.073 162.163,360.639 162.846,361.058 163.348 L 361.822 164.260 361.924 170.021 C 362.006 174.597,362.087 175.855,362.319 176.134 C 363.237 177.238,366.167 177.482,367.116 176.533 L 367.656 175.993 367.655 169.317 C 367.654 161.895,367.605 161.538,366.430 160.391 C 365.410 159.395,365.411 159.264,366.448 158.139 C 367.568 156.924,367.647 156.458,367.642 151.075 C 367.638 145.897,367.501 145.165,366.386 144.320 C 366.015 144.039,365.389 143.468,364.995 143.052 C 363.675 141.657,357.106 140.631,353.543 141.264 M104.094 141.652 C 101.905 141.906,100.337 143.244,98.885 146.097 C 97.660 148.504,97.612 149.071,97.684 160.316 L 97.748 170.215 98.236 171.136 C 98.505 171.643,98.985 172.578,99.303 173.215 C 100.771 176.151,102.832 177.156,107.139 177.033 C 110.682 176.932,110.761 176.904,112.758 175.081 C 114.690 173.318,114.630 173.823,114.633 159.348 C 114.637 146.203,114.577 145.319,113.610 144.360 C 111.483 142.247,110.760 141.884,108.236 141.656 C 105.926 141.448,105.853 141.448,104.094 141.652 M324.603 141.654 C 322.991 141.947,321.282 143.370,319.804 145.650 C 318.545 147.592,318.482 148.374,318.563 160.927 L 318.628 171.087 319.366 172.186 C 319.772 172.791,320.299 173.614,320.537 174.016 C 322.543 177.400,329.735 178.395,332.574 175.680 C 333.127 175.151,333.838 174.534,334.153 174.309 C 334.567 174.013,334.864 173.476,335.224 172.372 L 335.722 170.843 335.722 159.397 C 335.722 145.266,335.768 145.575,333.319 143.375 C 332.172 142.344,331.585 141.966,330.944 141.844 C 329.548 141.578,325.662 141.461,324.603 141.654 M77.372 142.247 C 78.042 142.387,78.479 142.653,79.010 143.245 C 79.408 143.688,79.965 144.191,80.247 144.362 C 81.884 145.354,82.678 151.703,81.610 155.271 C 81.442 155.834,81.250 156.543,81.183 156.847 C 81.117 157.150,80.696 157.822,80.248 158.339 C 79.480 159.226,79.394 160.082,80.073 160.082 C 81.211 160.082,81.930 163.772,82.031 170.133 L 82.121 175.782 81.337 176.160 C 80.058 176.777,78.084 176.819,77.470 176.243 L 76.970 175.773 76.968 169.719 C 76.966 162.082,76.739 161.363,74.160 160.808 C 72.102 160.365,71.970 160.839,71.889 168.987 C 71.824 175.516,71.807 175.757,71.392 176.203 C 70.814 176.822,69.152 176.834,67.745 176.229 L 66.735 175.794 66.735 159.348 L 66.735 142.901 67.503 142.364 L 68.270 141.828 72.364 141.942 C 74.616 142.005,76.870 142.143,77.372 142.247 M141.939 142.281 C 143.638 142.690,145.809 145.043,146.242 146.944 C 146.639 148.689,146.696 154.480,146.334 156.281 C 146.019 157.849,143.947 160.103,142.472 160.480 C 141.968 160.610,141.325 160.795,141.044 160.893 C 140.763 160.992,140.034 161.123,139.426 161.185 C 136.816 161.452,136.540 162.274,136.540 169.790 C 136.540 176.629,136.695 176.058,134.749 176.412 C 134.061 176.537,133.300 176.533,132.604 176.401 C 130.627 176.025,130.809 177.753,130.809 159.356 C 130.809 141.240,130.701 142.534,132.242 142.083 C 133.174 141.811,140.616 141.962,141.939 142.281 M167.057 142.391 L 167.554 142.918 167.656 149.880 L 167.758 156.843 168.299 157.307 C 169.025 157.932,170.712 158.159,171.521 157.741 C 172.572 157.197,172.648 156.680,172.728 149.541 C 172.810 142.095,172.725 142.450,174.543 142.043 C 175.704 141.783,177.435 142.013,178.030 142.507 C 178.418 142.829,178.433 175.691,178.045 175.994 C 177.544 176.386,175.665 176.612,174.566 176.412 C 172.620 176.059,172.774 176.623,172.774 169.832 C 172.774 161.315,172.521 160.475,170.047 160.768 C 167.707 161.045,167.711 161.030,167.680 169.232 L 167.656 175.619 166.971 176.141 C 166.089 176.814,164.412 176.868,163.408 176.256 L 162.743 175.850 162.743 159.359 L 162.743 142.868 163.246 142.365 C 164.004 141.606,166.335 141.622,167.057 142.391 M208.688 142.318 C 209.114 142.925,209.089 143.466,208.600 144.268 L 208.194 144.933 205.930 144.933 C 200.545 144.933,200.205 145.310,200.205 151.265 C 200.205 156.815,200.396 157.107,204.197 157.361 C 206.018 157.483,206.210 157.579,206.759 158.657 L 207.143 159.409 206.489 160.029 C 205.865 160.621,205.735 160.655,203.723 160.745 C 200.245 160.901,200.264 160.865,200.229 167.082 C 200.197 172.588,200.299 172.727,204.401 172.771 C 206.159 172.790,206.432 172.982,206.821 174.471 L 207.125 175.637 206.515 176.150 L 205.905 176.663 201.264 176.662 C 196.998 176.662,196.568 176.629,195.957 176.256 L 195.292 175.850 195.292 159.359 L 195.292 142.868 195.794 142.365 L 196.297 141.863 202.333 141.863 C 208.339 141.863,208.371 141.865,208.688 142.318 M239.508 142.398 C 240.138 142.815,240.276 143.008,240.134 143.268 C 239.835 143.818,238.652 144.831,237.633 145.410 C 237.108 145.709,236.463 146.300,236.200 146.723 L 235.722 147.492 235.619 161.617 L 235.517 175.742 234.604 176.203 C 233.355 176.832,231.637 176.840,230.975 176.218 L 230.502 175.773 230.502 161.819 C 230.502 144.801,230.523 144.933,227.820 144.933 C 226.061 144.933,225.004 143.433,226.009 142.363 L 226.479 141.863 232.589 141.863 L 238.699 141.863 239.508 142.398 M302.456 142.089 C 304.418 142.583,304.378 143.790,302.374 144.535 C 300.705 145.155,300.329 145.460,299.781 146.638 L 299.288 147.697 299.286 161.759 C 299.284 172.390,299.224 175.857,299.040 175.970 C 297.967 176.634,294.853 176.648,294.012 175.994 C 293.812 175.838,293.755 172.737,293.752 161.746 C 293.748 148.307,293.730 147.659,293.352 146.826 C 292.698 145.384,292.056 144.933,290.661 144.933 C 289.038 144.933,288.151 143.616,288.952 142.394 L 289.300 141.863 295.429 141.863 C 299.219 141.863,301.901 141.949,302.456 142.089 M362.629 142.372 C 364.182 142.913,366.545 145.151,366.941 146.455 C 367.855 149.472,367.220 156.480,365.913 157.795 C 364.735 158.980,364.818 159.827,366.239 161.105 C 367.107 161.886,367.247 163.085,367.247 169.751 C 367.247 175.593,367.238 175.725,366.802 176.189 C 366.207 176.822,364.395 176.858,363.408 176.256 L 362.743 175.850 362.739 171.088 C 362.733 164.584,362.658 164.151,361.218 162.346 C 359.955 160.763,359.383 160.474,358.570 161.007 C 357.659 161.604,357.556 162.379,357.473 169.294 C 357.431 172.840,357.318 175.821,357.222 175.918 C 356.538 176.611,353.010 176.663,352.149 175.994 C 351.835 175.749,351.776 143.184,352.089 142.689 C 352.649 141.804,360.334 141.573,362.629 142.372 M109.225 142.288 C 110.140 142.454,110.617 142.676,111.157 143.187 C 111.551 143.560,112.159 144.008,112.508 144.184 C 113.989 144.928,113.913 144.196,113.981 158.414 C 114.057 174.257,114.254 172.956,111.430 175.324 C 109.798 176.692,104.653 177.164,102.968 176.100 C 101.703 175.301,99.898 173.478,99.898 172.999 C 99.898 172.794,99.629 172.124,99.301 171.509 C 98.295 169.624,98.230 168.787,98.299 158.649 C 98.354 150.486,98.405 149.233,98.706 148.516 C 98.895 148.066,99.263 147.098,99.525 146.366 C 100.798 142.802,104.193 141.374,109.225 142.288 M330.103 142.289 C 331.116 142.466,331.540 142.664,332.184 143.262 C 332.629 143.674,333.316 144.258,333.712 144.559 C 334.864 145.435,334.903 145.918,334.903 159.419 C 334.903 173.203,334.902 173.210,333.402 174.135 C 332.933 174.424,332.272 174.972,331.934 175.353 C 330.843 176.585,325.723 177.133,323.957 176.207 C 322.995 175.702,321.097 173.851,320.756 173.083 C 320.555 172.631,320.155 171.945,319.868 171.557 L 319.345 170.852 319.345 159.306 C 319.345 148.422,319.367 147.729,319.722 147.217 C 319.930 146.918,320.347 146.213,320.649 145.650 C 322.297 142.585,325.422 141.474,330.103 142.289 M72.716 145.640 C 71.318 147.417,71.570 156.385,73.043 157.295 C 73.139 157.354,73.854 157.145,74.633 156.830 C 76.856 155.933,77.005 155.565,76.925 151.164 C 76.852 147.084,76.767 146.857,75.012 146.026 C 74.396 145.735,73.842 145.415,73.781 145.317 C 73.580 144.991,73.116 145.131,72.716 145.640 M137.811 145.663 C 135.929 146.982,135.934 155.237,137.818 156.971 L 138.331 157.443 139.686 156.496 C 141.688 155.096,141.658 155.172,141.658 151.534 C 141.658 147.648,141.558 147.363,139.778 146.204 C 138.253 145.210,138.401 145.251,137.811 145.663 M358.600 145.951 C 356.762 147.397,356.870 155.244,358.753 157.013 L 359.246 157.476 360.432 156.448 C 362.155 154.953,362.275 154.780,362.520 153.442 C 363.158 149.965,362.481 147.655,360.403 146.223 C 359.251 145.429,359.262 145.431,358.600 145.951 M105.061 146.448 C 104.055 147.594,103.944 149.108,104.036 160.389 C 104.122 170.923,104.152 171.236,105.187 172.394 L 105.742 173.015 106.965 172.698 C 107.756 172.492,108.351 172.193,108.649 171.849 L 109.110 171.318 109.110 159.382 C 109.110 145.710,109.245 146.666,107.219 146.064 C 105.804 145.644,105.760 145.652,105.061 146.448 M325.838 146.549 C 324.874 147.615,324.816 148.522,324.908 160.901 C 324.987 171.484,324.984 171.454,326.174 172.551 L 326.709 173.045 327.969 172.551 C 330.260 171.653,330.092 172.699,330.092 159.299 L 330.092 147.697 329.642 147.066 C 329.339 146.641,328.848 146.324,328.135 146.094 C 326.702 145.631,326.659 145.640,325.838 146.549 M74.780 146.677 C 76.313 147.250,76.357 147.381,76.352 151.376 C 76.346 155.457,76.308 155.550,74.441 156.081 C 73.781 156.268,73.217 156.393,73.187 156.358 C 71.913 154.874,72.259 145.103,73.550 146.115 C 73.686 146.221,74.240 146.474,74.780 146.677 M139.593 146.968 C 140.976 147.907,141.046 148.145,141.041 151.871 C 141.037 154.798,140.744 155.288,138.350 156.358 C 137.158 156.891,136.560 148.564,137.674 146.926 C 138.305 145.996,138.156 145.993,139.593 146.968 M328.550 147.182 L 329.376 147.603 329.373 159.216 C 329.371 165.603,329.302 170.931,329.219 171.056 C 329.046 171.317,327.203 172.160,326.805 172.160 C 326.658 172.160,326.324 171.860,326.063 171.494 L 325.589 170.829 325.517 161.310 C 325.402 145.928,325.470 145.611,328.550 147.182 M360.120 146.904 C 362.567 148.600,362.640 153.659,360.244 155.621 L 359.318 156.380 358.907 155.928 C 358.110 155.053,358.035 154.650,358.035 151.279 C 358.035 148.004,358.117 147.518,358.809 146.725 C 359.208 146.268,359.199 146.267,360.120 146.904 M107.284 146.884 C 108.554 147.332,108.489 146.659,108.489 159.365 C 108.489 172.203,108.575 171.367,107.209 171.829 C 105.871 172.281,105.727 172.257,105.183 171.494 L 104.708 170.829 104.638 161.105 C 104.531 146.303,104.599 145.937,107.284 146.884"/><path fill="#555552" d="M111.141 32.456 C 109.345 33.010,109.508 30.212,109.568 59.604 L 109.621 85.700 110.167 86.525 C 111.203 88.090,111.814 88.229,117.654 88.228 C 124.025 88.227,124.688 88.070,125.463 86.387 C 125.756 85.750,125.805 83.626,125.896 67.349 C 125.989 50.683,126.029 48.958,126.346 48.260 L 126.694 47.492 145.486 47.492 C 163.511 47.491,164.304 47.475,164.909 47.106 C 166.148 46.351,166.223 45.914,166.223 39.472 C 166.223 33.116,166.216 33.078,164.993 32.445 C 164.129 31.999,112.592 32.009,111.141 32.456 M164.534 33.356 C 165.245 33.949,165.259 45.036,164.550 45.790 L 164.105 46.264 145.492 46.264 C 128.621 46.264,126.812 46.296,126.167 46.602 C 124.673 47.311,124.775 45.927,124.720 66.214 C 124.693 76.239,124.626 84.636,124.570 84.873 C 124.305 86.009,122.518 86.387,117.405 86.387 L 112.753 86.387 112.057 85.691 L 111.361 84.995 111.361 59.383 L 111.361 33.771 112.027 33.365 C 113.043 32.746,163.792 32.737,164.534 33.356 M139.202 58.123 C 136.741 58.615,136.847 57.904,136.847 73.797 C 136.847 88.971,136.768 88.186,138.354 88.648 C 139.844 89.081,165.155 88.814,166.079 88.355 C 167.611 87.594,167.547 88.192,167.614 74.133 C 167.686 59.006,167.690 59.030,164.806 58.166 C 163.939 57.906,140.483 57.867,139.202 58.123 M188.812 58.558 C 187.376 59.477,187.417 59.074,187.355 73.069 L 187.299 85.647 187.806 86.684 C 188.719 88.549,187.759 88.434,202.350 88.434 L 215.180 88.434 215.759 87.855 C 216.761 86.853,216.784 86.532,216.784 73.286 C 216.784 60.040,216.761 59.718,215.759 58.716 L 215.180 58.137 202.319 58.141 C 189.767 58.144,189.442 58.154,188.812 58.558 M278.666 58.579 C 276.342 59.100,276.383 58.731,276.368 79.497 C 276.355 96.726,276.310 98.099,275.738 98.737 C 275.654 98.831,267.259 98.899,257.082 98.888 C 236.499 98.866,237.053 98.832,235.681 100.204 L 235.005 100.880 235.005 106.964 L 235.005 113.047 235.777 113.819 C 237.053 115.095,235.878 115.044,263.930 115.045 C 292.368 115.046,290.467 115.136,291.308 113.757 C 291.699 113.116,291.708 112.527,291.709 87.092 L 291.709 61.083 291.203 60.067 C 290.354 58.364,290.253 58.339,284.513 58.364 C 281.772 58.376,279.141 58.473,278.666 58.579 M237.136 59.076 C 236.687 59.368,236.092 59.937,235.816 60.341 L 235.312 61.075 235.256 73.112 C 235.187 87.983,235.138 87.698,237.911 88.445 C 239.108 88.767,262.697 88.598,263.715 88.260 C 265.258 87.748,265.200 88.316,265.200 73.797 L 265.200 60.901 264.687 59.986 C 263.883 58.550,264.187 58.580,250.246 58.562 L 237.953 58.547 237.136 59.076 M164.517 59.796 C 164.900 60.032,165.440 60.560,165.718 60.969 L 166.223 61.712 166.217 73.384 C 166.210 86.665,166.196 86.785,164.585 87.650 C 163.606 88.176,140.509 88.143,139.099 87.614 C 137.771 87.115,137.793 87.350,137.780 73.634 C 137.767 59.670,137.668 60.487,139.455 59.801 C 141.170 59.142,163.451 59.137,164.517 59.796 M215.554 60.790 C 215.954 61.576,215.967 61.966,215.967 73.286 C 215.967 84.605,215.954 84.996,215.554 85.781 L 215.140 86.592 202.360 86.592 L 189.581 86.592 189.059 85.907 L 188.536 85.222 188.536 73.231 L 188.536 61.239 189.066 60.609 L 189.596 59.980 202.368 59.980 L 215.140 59.980 215.554 60.790 M290.074 60.850 C 290.473 61.503,290.480 61.955,290.480 87.193 L 290.481 112.870 290.036 113.344 L 289.591 113.818 263.987 113.817 C 238.823 113.816,238.371 113.809,237.718 113.411 L 237.052 113.005 237.052 107.097 C 237.052 101.351,237.064 101.179,237.483 100.799 C 237.898 100.423,238.595 100.406,256.915 100.307 C 275.789 100.205,275.921 100.202,276.495 99.777 C 277.745 98.852,277.681 99.857,277.744 79.854 C 277.809 59.365,277.637 61.453,279.324 60.599 C 280.077 60.218,280.530 60.185,284.906 60.184 L 289.668 60.184 290.074 60.850 M262.444 61.212 L 263.255 61.626 263.255 73.321 L 263.255 85.017 262.427 85.804 L 261.600 86.592 249.958 86.592 L 238.317 86.592 237.889 85.708 C 237.471 84.844,237.462 84.571,237.462 73.285 L 237.462 61.746 237.907 61.272 L 238.352 60.798 249.993 60.798 C 261.269 60.798,261.659 60.811,262.444 61.212 M35.288 128.813 C 33.998 130.184,34.089 128.436,34.028 153.067 C 33.966 178.256,33.887 176.797,35.356 177.412 C 35.936 177.655,36.551 177.711,37.795 177.634 C 39.631 177.520,39.762 177.471,40.821 176.505 L 41.556 175.834 41.556 166.439 L 41.556 157.043 42.221 156.840 C 42.587 156.728,43.625 156.593,44.528 156.540 C 46.765 156.407,47.317 156.124,49.377 154.052 C 51.959 151.456,51.820 152.160,51.749 142.066 C 51.684 132.842,51.683 132.833,50.529 132.152 C 50.176 131.943,49.757 131.418,49.539 130.911 C 49.145 129.992,49.007 129.912,46.878 129.368 C 46.372 129.239,45.819 129.014,45.650 128.868 C 45.074 128.371,43.177 128.147,39.544 128.147 L 35.914 128.147 35.288 128.813 M262.549 128.378 C 262.104 128.482,261.597 128.691,261.423 128.843 C 261.248 128.995,260.599 129.235,259.980 129.377 C 258.314 129.759,257.721 130.128,257.382 130.992 C 257.185 131.493,256.884 131.829,256.505 131.972 C 255.197 132.466,255.169 132.638,255.169 140.114 C 255.169 147.713,255.239 148.225,256.418 149.196 C 256.936 149.623,257.203 150.054,257.345 150.691 C 257.481 151.305,257.824 151.877,258.432 152.508 C 258.920 153.014,259.595 153.918,259.931 154.517 C 260.267 155.115,260.852 155.817,261.233 156.077 C 261.678 156.382,262.035 156.867,262.237 157.443 C 262.473 158.116,262.748 158.446,263.363 158.790 C 264.089 159.196,264.190 159.350,264.308 160.226 C 264.808 163.932,264.732 170.997,264.190 171.205 C 263.608 171.428,263.470 170.946,263.294 168.058 C 263.009 163.395,262.312 162.565,258.525 162.375 C 255.447 162.220,255.069 162.913,255.088 168.680 C 255.102 173.135,255.267 173.855,256.468 174.704 C 256.958 175.050,257.607 175.701,257.910 176.151 C 258.652 177.251,259.450 177.484,262.948 177.622 C 267.673 177.807,269.554 177.388,270.210 176.003 C 270.383 175.639,270.882 175.143,271.327 174.894 C 272.786 174.076,272.774 174.149,272.774 166.121 C 272.774 158.206,272.706 157.709,271.456 156.512 C 271.129 156.199,270.658 155.395,270.407 154.726 C 270.028 153.712,269.820 153.442,269.153 153.102 C 268.713 152.878,268.304 152.537,268.245 152.345 C 267.893 151.198,267.494 150.620,266.882 150.364 C 266.349 150.141,266.166 149.904,265.975 149.188 C 265.824 148.623,265.391 147.921,264.806 147.294 C 263.454 145.841,263.372 145.458,263.364 140.513 C 263.357 135.795,263.494 135.114,264.308 135.851 C 264.638 136.149,264.688 136.517,264.688 138.639 C 264.688 141.909,264.821 142.176,267.003 143.274 C 269.436 144.499,270.642 144.483,271.814 143.212 C 272.872 142.064,272.925 141.743,272.836 137.035 C 272.755 132.750,272.635 132.261,271.543 131.742 C 271.166 131.563,270.770 131.159,270.622 130.803 C 270.319 130.072,269.974 129.860,268.436 129.459 C 267.711 129.271,267.155 128.979,266.900 128.655 C 266.460 128.096,264.330 127.961,262.549 128.378 M46.575 129.976 C 48.108 130.401,48.280 130.549,49.866 132.794 C 51.112 134.557,51.177 135.047,51.176 142.619 C 51.175 149.749,51.106 150.378,50.202 151.542 C 49.894 151.939,49.486 152.547,49.295 152.893 C 49.105 153.239,48.644 153.702,48.272 153.922 C 47.899 154.141,47.198 154.618,46.714 154.982 C 45.942 155.561,45.614 155.662,44.053 155.799 C 42.318 155.951,41.102 156.251,40.583 156.657 C 40.385 156.812,40.328 158.991,40.328 166.315 L 40.328 175.773 39.867 176.193 C 38.623 177.326,36.192 177.472,35.194 176.474 L 34.596 175.876 34.596 153.537 C 34.596 129.622,34.564 130.386,35.568 129.801 C 36.276 129.389,44.955 129.527,46.575 129.976 M267.554 129.867 C 269.074 130.334,269.590 130.641,270.018 131.334 C 270.243 131.696,270.743 132.235,271.131 132.531 C 272.684 133.715,273.065 140.551,271.662 142.053 C 270.647 143.139,267.819 142.881,266.434 141.575 L 265.711 140.893 265.711 138.438 L 265.711 135.982 264.933 135.442 C 263.963 134.770,263.862 134.772,263.220 135.466 C 261.502 137.321,262.287 146.704,264.283 148.180 C 264.618 148.427,265.123 149.086,265.405 149.644 C 265.688 150.202,266.147 150.807,266.424 150.989 C 266.702 151.171,267.219 151.794,267.573 152.374 C 267.927 152.954,268.518 153.680,268.885 153.987 C 269.309 154.342,269.755 155.052,270.106 155.932 C 270.410 156.694,270.824 157.503,271.027 157.728 C 272.240 159.075,272.521 160.952,272.428 167.098 C 272.343 172.720,272.350 172.696,270.188 174.820 C 268.067 176.903,267.955 176.948,264.653 177.036 C 260.709 177.142,259.988 176.911,257.887 174.866 C 255.974 173.005,255.732 172.386,255.549 168.884 C 255.334 164.794,255.999 163.460,258.250 163.460 C 260.641 163.460,262.231 165.022,262.231 167.370 C 262.231 169.744,263.026 171.750,263.966 171.750 C 266.435 171.750,266.320 160.958,263.820 158.102 C 263.282 157.486,262.702 156.714,262.532 156.385 C 262.362 156.056,261.811 155.324,261.308 154.757 C 260.804 154.190,260.213 153.375,259.995 152.947 C 259.776 152.518,259.283 151.928,258.900 151.636 C 258.405 151.258,258.067 150.728,257.737 149.810 C 257.480 149.098,257.147 148.374,256.995 148.201 C 255.860 146.904,255.384 143.848,255.533 138.804 C 255.674 134.042,255.868 133.550,258.726 130.713 C 259.749 129.697,265.274 129.168,267.554 129.867 M41.736 135.223 C 40.252 135.679,40.316 135.303,40.376 143.218 L 40.430 150.358 41.751 150.619 C 43.052 150.877,43.079 150.873,43.593 150.359 L 44.115 149.837 44.185 142.964 L 44.255 136.090 43.686 135.497 C 43.043 134.826,43.031 134.824,41.736 135.223 M43.296 142.921 C 43.296 150.471,43.309 150.344,42.520 150.146 C 41.748 149.952,41.712 149.662,41.611 142.631 L 41.517 136.132 41.997 135.936 C 43.355 135.381,43.296 135.061,43.296 142.921 M66.872 140.566 C 64.478 141.811,64.689 139.995,64.689 159.287 C 64.688 179.263,64.246 177.285,68.782 177.611 C 72.846 177.902,72.751 178.080,72.876 169.887 C 72.991 162.329,72.921 162.622,74.516 163.086 C 76.027 163.526,75.940 163.102,75.947 170.010 C 75.955 177.897,75.938 177.866,79.939 177.608 C 84.238 177.330,84.136 177.505,84.130 170.443 C 84.125 164.219,84.030 163.490,83.124 162.728 C 82.243 161.987,81.612 159.583,82.008 158.475 C 82.155 158.064,82.279 157.524,82.284 157.274 C 82.289 157.024,82.608 156.505,82.993 156.120 C 84.665 154.448,84.674 147.053,83.005 146.160 C 82.664 145.977,82.408 145.551,82.190 144.798 C 81.934 143.920,81.720 143.607,81.109 143.221 C 80.689 142.957,80.221 142.507,80.069 142.222 C 79.674 141.485,79.039 141.261,76.722 141.040 C 75.007 140.876,74.585 140.764,74.071 140.331 C 73.004 139.433,68.785 139.571,66.872 140.566 M132.167 140.043 C 131.239 140.261,130.195 141.066,129.845 141.833 C 129.660 142.241,129.597 146.551,129.590 159.303 L 129.580 176.231 130.046 176.773 C 130.817 177.669,135.451 177.923,136.979 177.153 C 137.882 176.698,137.973 176.021,137.977 169.724 C 137.980 162.994,137.856 163.456,139.713 163.261 C 141.271 163.096,142.087 162.769,142.535 162.130 C 142.693 161.904,143.242 161.593,143.755 161.439 C 145.742 160.841,146.867 159.493,147.307 157.183 C 147.516 156.088,147.702 155.655,148.099 155.343 C 148.866 154.740,148.890 150.229,148.134 148.906 C 147.858 148.423,147.543 147.353,147.392 146.381 C 147.111 144.571,146.581 143.650,145.693 143.427 C 145.400 143.354,145.090 143.007,144.869 142.507 C 144.430 141.512,143.958 141.312,141.490 141.073 C 139.849 140.914,139.504 140.814,139.023 140.352 C 138.418 139.773,134.139 139.579,132.167 140.043 M162.951 140.507 C 162.471 140.887,161.767 141.591,161.387 142.071 L 160.696 142.944 160.696 159.353 L 160.696 175.761 161.464 176.508 C 163.117 178.117,167.077 178.117,168.731 176.508 L 169.498 175.761 169.498 169.906 L 169.498 164.052 170.207 163.364 L 170.917 162.677 171.129 163.235 C 171.257 163.573,171.341 166.115,171.341 169.686 C 171.341 176.024,171.430 176.697,172.335 177.153 C 173.863 177.923,178.497 177.669,179.268 176.773 L 179.734 176.231 179.734 159.334 C 179.734 141.777,179.700 141.044,178.900 141.044 C 178.804 141.044,178.555 140.860,178.345 140.635 C 177.329 139.544,174.052 139.665,172.558 140.848 C 171.412 141.756,171.343 142.215,171.342 148.963 C 171.341 152.588,171.257 155.157,171.129 155.496 L 170.917 156.054 170.207 155.366 L 169.498 154.679 169.498 148.727 L 169.498 142.775 168.835 141.961 C 168.471 141.513,168.115 141.120,168.045 141.088 C 167.975 141.055,167.612 140.756,167.238 140.422 C 166.191 139.487,164.190 139.526,162.951 140.507 M195.500 140.507 C 195.019 140.887,194.316 141.591,193.936 142.071 L 193.245 142.944 193.245 159.353 L 193.245 175.761 194.012 176.508 C 195.078 177.545,195.877 177.676,201.189 177.682 C 207.676 177.689,209.243 177.072,208.908 174.641 C 208.598 172.388,207.144 171.341,204.324 171.341 C 203.649 171.341,202.861 171.251,202.572 171.141 L 202.047 170.942 202.047 167.498 L 202.047 164.054 202.823 163.296 C 203.546 162.591,203.685 162.538,204.842 162.538 C 206.635 162.538,209.196 160.361,208.935 159.058 C 208.486 156.809,206.862 155.374,204.766 155.374 C 203.996 155.374,203.208 155.237,202.771 155.029 L 202.047 154.684 202.047 151.177 L 202.047 147.671 202.771 147.326 C 203.330 147.059,204.076 146.981,206.055 146.981 C 209.445 146.981,210.026 146.432,210.030 143.231 C 210.031 141.912,209.850 141.461,208.929 140.481 L 208.303 139.816 202.338 139.816 L 196.373 139.816 195.500 140.507 M225.609 140.536 C 223.450 142.252,223.239 143.018,224.372 145.025 C 225.308 146.684,225.588 146.861,227.398 146.944 C 229.681 147.048,229.478 145.575,229.478 162.020 C 229.478 177.938,229.396 177.016,230.847 177.495 C 231.684 177.771,234.780 177.640,236.071 177.274 C 237.772 176.791,237.666 177.815,237.666 161.826 C 237.666 145.820,237.501 147.284,239.365 146.815 C 242.954 145.911,243.377 142.220,240.081 140.569 L 238.576 139.816 232.543 139.818 L 226.510 139.820 225.609 140.536 M288.578 140.643 C 287.722 141.596,287.509 142.432,287.688 144.142 C 287.928 146.434,288.481 146.981,290.563 146.981 C 292.459 146.981,292.323 145.833,292.326 161.860 C 292.330 179.017,291.938 177.546,296.506 177.534 C 301.125 177.521,300.716 179.051,300.716 161.769 C 300.716 145.888,300.577 147.100,302.427 146.898 C 304.355 146.688,304.879 146.155,305.208 144.074 C 305.784 140.433,304.399 139.828,295.479 139.821 L 289.320 139.816 288.578 140.643 M353.141 140.053 C 352.159 140.335,351.064 141.225,350.737 142.006 C 350.344 142.948,350.332 175.682,350.725 176.459 C 351.167 177.330,351.935 177.541,354.644 177.534 C 359.007 177.521,358.854 177.801,358.854 169.829 C 358.854 166.143,358.937 163.575,359.067 163.233 L 359.280 162.673 359.742 163.373 C 360.491 164.510,360.696 166.179,360.696 171.158 L 360.696 175.761 361.464 176.508 C 362.580 177.595,364.944 178.011,366.905 177.467 C 368.274 177.087,368.307 176.863,368.233 168.500 C 368.161 160.452,368.104 160.088,366.843 159.612 L 366.270 159.396 366.912 158.963 C 368.136 158.140,368.168 157.940,368.168 151.168 C 368.168 144.257,368.174 144.287,366.654 143.511 C 366.156 143.257,365.814 142.916,365.732 142.590 C 365.525 141.763,364.765 141.437,362.291 141.114 C 361.021 140.948,359.842 140.686,359.671 140.531 C 358.950 139.878,354.805 139.575,353.141 140.053 M324.122 141.129 C 322.385 141.409,321.090 142.021,320.888 142.656 C 320.825 142.856,320.231 143.573,319.569 144.250 C 317.839 146.018,317.886 145.560,317.955 159.896 C 318.020 173.147,317.972 172.613,319.187 173.748 C 319.460 174.003,320.041 174.755,320.478 175.420 C 321.738 177.337,323.789 177.866,328.931 177.603 C 331.909 177.451,332.714 177.180,333.197 176.167 C 333.434 175.669,333.756 175.372,334.230 175.216 C 335.054 174.944,335.390 174.453,335.713 173.054 C 335.860 172.416,336.151 171.833,336.453 171.571 L 336.950 171.139 336.950 159.269 L 336.950 147.399 336.470 147.085 C 336.133 146.864,335.913 146.420,335.730 145.596 C 335.431 144.248,334.992 143.296,334.671 143.296 C 334.549 143.296,334.065 142.877,333.595 142.366 C 332.811 141.512,332.631 141.420,331.416 141.255 C 328.841 140.905,325.828 140.853,324.122 141.129 M74.923 141.369 C 78.495 141.833,78.416 141.810,79.217 142.649 C 79.614 143.064,80.218 143.602,80.560 143.844 C 80.902 144.087,81.283 144.500,81.406 144.763 C 81.530 145.025,81.941 145.885,82.320 146.673 C 83.731 149.609,82.775 156.958,80.733 158.877 L 80.241 159.338 80.768 159.889 C 81.104 160.239,81.625 161.413,82.203 163.124 L 83.112 165.809 83.112 170.813 L 83.112 175.817 82.549 176.209 C 81.221 177.133,78.133 177.425,77.250 176.710 C 76.397 176.019,76.356 175.692,76.356 169.502 C 76.356 162.591,76.359 162.602,74.654 161.808 C 72.555 160.831,72.592 160.711,72.467 168.987 C 72.341 177.298,72.422 177.073,69.549 177.073 C 68.305 177.073,67.839 176.973,66.925 176.510 L 65.814 175.947 65.757 159.672 C 65.726 150.722,65.750 143.197,65.809 142.951 C 66.222 141.241,69.531 140.667,74.923 141.369 M102.421 141.245 C 101.036 141.540,100.376 141.996,99.561 143.224 C 99.138 143.861,98.575 144.599,98.310 144.865 C 97.119 146.056,97.139 145.823,97.075 158.803 C 97.010 171.945,97.001 171.831,98.267 173.293 C 98.713 173.809,99.079 174.328,99.079 174.447 C 99.079 174.940,100.859 176.750,101.734 177.146 C 102.559 177.519,103.079 177.566,106.448 177.573 C 111.109 177.582,111.562 177.496,112.682 176.394 C 113.161 175.923,113.791 175.326,114.082 175.067 C 114.443 174.747,114.689 174.225,114.854 173.430 C 114.987 172.787,115.315 172.002,115.583 171.683 L 116.070 171.105 116.070 159.432 C 116.070 147.354,116.018 146.571,115.219 146.571 C 115.138 146.571,115.007 146.134,114.930 145.599 C 114.742 144.307,114.345 143.572,113.640 143.207 C 113.321 143.042,112.907 142.674,112.720 142.389 C 111.971 141.246,105.695 140.548,102.421 141.245 M139.304 141.332 C 140.092 141.490,141.279 141.683,141.941 141.759 C 143.745 141.969,146.340 144.546,146.789 146.576 C 147.237 148.598,147.197 155.523,146.729 157.011 C 146.233 158.587,144.363 160.514,142.844 161.014 C 142.248 161.210,141.439 161.542,141.047 161.750 C 140.655 161.958,140.010 162.130,139.614 162.132 C 137.350 162.141,137.155 162.763,137.155 169.966 L 137.155 175.864 136.633 176.347 C 135.557 177.344,131.799 177.276,130.764 176.240 L 130.194 175.671 130.194 159.354 C 130.194 140.871,130.101 141.911,131.795 141.470 C 133.624 140.993,137.282 140.926,139.304 141.332 M166.743 141.369 C 168.154 142.038,168.156 142.053,168.270 149.370 L 168.373 155.955 168.871 156.486 C 169.512 157.168,170.878 157.566,171.249 157.180 C 171.990 156.411,172.160 154.826,172.160 148.699 L 172.160 142.713 172.675 142.101 C 173.816 140.745,177.806 140.911,178.696 142.352 C 179.115 143.030,179.120 143.212,179.120 159.354 L 179.120 175.671 178.551 176.240 C 177.514 177.277,173.640 177.344,172.638 176.342 L 172.160 175.863 172.160 169.954 C 172.160 162.443,171.881 161.125,170.352 161.412 C 168.370 161.783,168.273 162.167,168.271 169.606 C 168.270 176.108,168.266 176.133,167.040 176.767 C 165.670 177.475,162.974 177.047,162.244 176.005 C 161.786 175.351,161.756 143.600,162.212 142.723 C 163.028 141.155,165.031 140.556,166.743 141.369 M208.526 141.344 C 209.393 141.952,209.691 142.979,209.322 144.091 C 208.741 145.841,208.524 145.957,205.834 145.957 C 203.283 145.957,201.427 146.432,201.023 147.187 C 200.799 147.605,200.737 154.513,200.952 155.074 C 201.197 155.711,203.039 156.393,204.525 156.395 C 206.108 156.397,206.712 156.807,207.389 158.339 C 208.186 160.140,207.100 161.140,204.136 161.333 C 202.328 161.451,202.176 161.496,201.568 162.104 L 200.921 162.750 200.854 166.660 C 200.762 171.958,200.906 172.160,204.770 172.160 C 207.670 172.160,208.938 175.531,206.510 176.787 C 205.440 177.340,196.344 177.189,195.476 176.604 L 194.780 176.135 194.728 159.426 L 194.675 142.716 195.223 142.065 C 195.524 141.707,195.962 141.337,196.196 141.242 C 197.008 140.914,208.042 141.005,208.526 141.344 M239.122 141.359 C 241.766 142.292,241.577 144.387,238.718 145.843 C 238.196 146.108,237.538 146.573,237.257 146.874 L 236.745 147.423 236.643 161.681 L 236.540 175.939 235.623 176.445 C 234.073 177.300,231.340 177.329,230.510 176.499 L 229.887 175.876 229.887 161.582 C 229.886 144.858,230.028 145.957,227.871 145.957 C 225.131 145.957,223.870 142.872,226.041 141.482 C 226.938 140.908,237.560 140.808,239.122 141.359 M302.169 141.280 C 304.360 141.642,304.988 142.539,304.224 144.217 C 303.750 145.261,303.515 145.438,302.194 145.747 C 301.350 145.945,300.991 146.161,300.557 146.731 L 300.000 147.460 299.945 161.743 L 299.890 176.026 299.385 176.423 C 298.221 177.338,294.491 177.225,293.511 176.245 L 292.938 175.671 292.938 161.499 L 292.938 147.326 292.415 146.642 C 291.929 146.005,291.811 145.957,290.711 145.957 C 288.365 145.957,287.255 143.141,288.974 141.548 L 289.517 141.044 295.129 141.044 C 298.404 141.044,301.335 141.142,302.169 141.280 M361.135 141.564 C 363.634 141.935,364.112 142.119,364.995 143.052 C 365.389 143.468,366.015 144.039,366.386 144.320 C 367.501 145.165,367.638 145.897,367.642 151.075 C 367.647 156.458,367.568 156.924,366.448 158.139 C 365.411 159.264,365.410 159.395,366.430 160.391 C 367.605 161.538,367.654 161.895,367.655 169.317 L 367.656 175.993 367.116 176.533 C 366.167 177.482,363.237 177.238,362.319 176.134 C 362.087 175.855,362.006 174.597,361.924 170.021 L 361.822 164.260 361.058 163.348 C 360.639 162.846,360.073 162.163,359.802 161.829 C 358.523 160.250,358.035 162.559,358.035 170.191 L 358.035 176.019 357.521 176.424 C 356.355 177.340,352.628 177.224,351.644 176.240 L 351.075 175.671 351.075 159.473 C 351.075 142.232,351.049 142.710,352.038 141.815 C 352.907 141.029,356.807 140.921,361.135 141.564 M108.236 141.656 C 110.760 141.884,111.483 142.247,113.610 144.360 C 114.577 145.319,114.637 146.203,114.633 159.348 C 114.630 173.823,114.690 173.318,112.758 175.081 C 110.761 176.904,110.682 176.932,107.139 177.033 C 102.832 177.156,100.771 176.151,99.303 173.215 C 98.985 172.578,98.505 171.643,98.236 171.136 L 97.748 170.215 97.684 160.316 C 97.612 149.071,97.660 148.504,98.885 146.097 C 100.337 143.244,101.905 141.906,104.094 141.652 C 105.853 141.448,105.926 141.448,108.236 141.656 M330.944 141.844 C 331.585 141.966,332.172 142.344,333.319 143.375 C 335.768 145.575,335.722 145.266,335.722 159.397 L 335.722 170.843 335.224 172.372 C 334.864 173.476,334.567 174.013,334.153 174.309 C 333.838 174.534,333.127 175.151,332.574 175.680 C 329.735 178.395,322.543 177.400,320.537 174.016 C 320.299 173.614,319.772 172.791,319.366 172.186 L 318.628 171.087 318.563 160.927 C 318.468 146.231,318.765 145.012,323.148 142.141 C 324.135 141.494,328.279 141.336,330.944 141.844 M72.885 146.604 C 72.079 147.925,72.309 155.335,73.187 156.358 C 73.217 156.393,73.781 156.268,74.441 156.081 C 76.308 155.550,76.346 155.457,76.352 151.376 C 76.357 147.381,76.313 147.250,74.780 146.677 C 74.240 146.474,73.686 146.221,73.550 146.115 C 73.375 145.978,73.179 146.123,72.885 146.604 M137.674 146.926 C 136.560 148.564,137.158 156.891,138.350 156.358 C 140.744 155.288,141.037 154.798,141.041 151.871 C 141.046 148.145,140.976 147.907,139.593 146.968 C 138.156 145.993,138.305 145.996,137.674 146.926 M326.233 146.981 C 325.527 147.821,325.431 149.751,325.517 161.310 L 325.589 170.829 326.063 171.494 C 326.324 171.860,326.658 172.160,326.805 172.160 C 327.203 172.160,329.046 171.317,329.219 171.056 C 329.302 170.931,329.371 165.603,329.373 159.216 L 329.376 147.603 328.550 147.182 C 326.892 146.336,326.784 146.327,326.233 146.981 M358.809 146.725 C 358.117 147.518,358.035 148.004,358.035 151.279 C 358.035 154.650,358.110 155.053,358.907 155.928 L 359.318 156.380 360.244 155.621 C 362.640 153.659,362.567 148.600,360.120 146.904 C 359.199 146.267,359.208 146.268,358.809 146.725 M105.254 147.087 C 104.653 147.851,104.558 150.004,104.638 161.105 L 104.708 170.829 105.183 171.494 C 105.727 172.257,105.871 172.281,107.209 171.829 C 108.575 171.367,108.489 172.203,108.489 159.365 C 108.489 146.659,108.554 147.332,107.284 146.884 C 106.066 146.454,105.724 146.488,105.254 147.087 M74.719 147.466 C 75.591 147.727,75.647 147.788,75.778 148.640 C 75.959 149.813,75.981 152.812,75.819 153.998 L 75.691 154.932 74.539 155.138 C 72.892 155.431,72.876 155.395,72.876 151.257 C 72.876 146.803,72.828 146.902,74.719 147.466 M107.165 159.363 L 107.165 171.000 106.595 171.190 C 105.361 171.601,105.425 172.238,105.425 159.413 C 105.425 146.684,105.395 147.005,106.529 147.468 L 107.165 147.727 107.165 159.363 M138.943 147.544 C 139.996 148.483,140.071 153.943,139.045 154.894 C 138.094 155.776,137.973 155.358,137.973 151.186 C 137.973 146.971,138.037 146.734,138.943 147.544 M328.015 149.047 C 328.088 149.745,328.147 154.388,328.147 159.365 C 328.147 170.149,328.100 170.840,327.329 171.238 C 326.291 171.775,326.305 171.932,326.305 159.365 C 326.305 146.798,326.291 146.956,327.329 147.492 C 327.812 147.742,327.899 147.940,328.015 149.047 M360.246 148.769 C 361.047 151.483,360.244 156.068,359.130 155.143 C 358.754 154.832,358.728 147.802,359.101 147.429 C 359.461 147.070,359.895 147.577,360.246 148.769"/><path fill="#fff" d="M35.918 131.269 C 35.865 131.410,35.845 141.520,35.874 153.736 L 35.926 175.947 36.995 176.008 C 39.061 176.128,38.895 177.011,38.895 165.899 C 38.895 155.195,38.854 155.556,40.180 154.519 C 40.722 154.096,41.270 153.920,42.600 153.742 C 44.318 153.511,46.832 152.998,47.583 152.724 C 47.987 152.577,48.309 151.610,48.737 149.266 C 49.034 147.640,48.866 135.871,48.529 134.599 C 48.101 132.989,47.086 131.647,45.976 131.225 C 45.126 130.902,36.043 130.942,35.918 131.269 M261.063 131.157 C 260.505 131.265,258.630 133.283,258.257 134.177 C 258.106 134.538,257.718 135.042,257.394 135.296 L 256.807 135.759 256.807 139.935 L 256.807 144.111 257.392 144.654 C 258.158 145.364,258.472 146.155,258.852 148.336 C 259.146 150.019,259.357 150.450,259.893 150.457 C 260.220 150.462,260.934 151.308,261.106 151.894 C 261.287 152.509,261.795 153.122,262.125 153.122 C 262.463 153.122,263.143 153.927,263.438 154.675 C 263.575 155.023,264.131 155.773,264.673 156.342 C 265.430 157.136,265.720 157.631,265.919 158.473 C 266.097 159.226,266.419 159.835,266.948 160.414 C 267.889 161.444,268.064 162.703,267.923 167.411 C 267.803 171.447,267.164 172.521,264.673 172.879 C 261.906 173.278,260.182 171.531,260.022 168.168 C 259.911 165.849,259.733 165.609,258.127 165.609 C 256.734 165.609,256.704 165.653,256.704 167.747 C 256.704 170.205,256.884 171.059,257.457 171.320 C 257.764 171.460,258.145 171.975,258.447 172.659 C 258.863 173.599,259.080 173.833,259.854 174.175 C 260.420 174.426,260.889 174.811,261.082 175.185 C 261.682 176.344,266.729 176.345,267.252 175.186 C 267.362 174.942,267.847 174.461,268.331 174.117 C 268.815 173.772,269.390 173.189,269.610 172.821 C 269.830 172.453,270.242 172.045,270.526 171.916 C 271.249 171.587,271.267 171.418,271.198 165.853 L 271.136 160.888 270.487 160.380 C 269.863 159.892,269.498 159.132,269.006 157.291 C 268.858 156.737,268.546 156.266,268.106 155.930 C 267.733 155.646,267.116 154.795,266.728 154.028 C 266.266 153.119,265.801 152.510,265.377 152.260 C 264.763 151.897,264.380 151.259,264.236 150.359 C 264.198 150.123,263.850 149.799,263.414 149.593 C 262.489 149.158,262.352 148.913,261.954 146.994 C 261.721 145.864,261.502 145.350,261.095 144.972 C 260.161 144.106,259.979 143.354,259.985 140.385 C 259.992 136.443,260.076 136.196,262.107 134.156 C 264.085 132.168,263.970 132.201,265.220 133.283 C 265.751 133.743,266.402 134.201,266.665 134.301 C 267.669 134.683,267.962 135.589,267.962 138.324 C 267.963 141.220,267.983 141.249,269.891 141.249 C 271.295 141.249,271.299 141.238,271.204 137.707 L 271.136 135.148 270.010 133.919 C 269.391 133.242,268.673 132.407,268.414 132.063 C 267.716 131.134,263.721 130.642,261.063 131.157 M44.762 134.340 L 46.463 136.029 46.466 141.781 C 46.469 147.595,46.394 148.308,45.667 149.423 C 45.489 149.696,45.248 150.249,45.132 150.651 C 44.832 151.689,44.102 151.997,42.069 151.944 C 38.706 151.857,38.867 152.338,38.939 142.636 L 38.997 134.709 39.782 133.947 C 40.511 133.239,40.931 133.071,42.973 132.668 C 43.021 132.659,43.826 133.411,44.762 134.340 M68.219 142.806 C 68.017 142.896,67.963 146.389,67.963 159.273 C 67.963 177.991,67.740 176.124,69.964 176.008 L 71.136 175.947 71.238 168.577 C 71.363 159.627,71.283 159.877,74.009 159.877 C 77.360 159.877,77.464 160.143,77.548 168.882 C 77.622 176.470,77.530 176.041,79.082 176.046 C 80.962 176.052,80.862 176.392,80.847 170.054 C 80.831 163.036,80.643 161.658,79.637 161.154 C 78.111 160.391,78.146 158.173,79.694 157.527 C 81.385 156.820,81.352 145.614,79.657 145.044 C 78.932 144.800,77.994 143.877,77.994 143.409 C 77.994 142.883,69.251 142.344,68.219 142.806 M104.244 142.866 C 103.536 142.966,103.292 143.118,102.955 143.674 C 102.700 144.096,102.228 144.482,101.726 144.679 C 101.220 144.878,100.877 145.160,100.818 145.427 C 100.021 149.029,100.002 149.363,100.008 159.365 C 100.013 168.397,100.047 169.364,100.429 171.327 C 100.864 173.555,100.871 173.567,102.217 174.096 C 102.758 174.309,103.073 174.596,103.234 175.021 C 103.682 176.207,109.274 176.394,109.577 175.234 C 109.636 175.008,109.855 174.761,110.062 174.685 C 110.270 174.609,110.691 174.340,110.998 174.087 C 111.305 173.834,111.825 173.568,112.154 173.496 C 113.075 173.294,113.076 173.286,113.151 159.850 C 113.232 145.353,113.232 145.357,112.074 145.018 C 111.069 144.723,109.519 143.725,109.519 143.371 C 109.519 142.788,106.710 142.519,104.244 142.866 M132.907 142.893 L 132.446 143.078 132.446 159.355 L 132.446 175.632 132.930 175.753 C 133.196 175.820,133.725 175.845,134.107 175.808 L 134.800 175.742 134.903 169.703 C 134.988 164.686,135.061 163.560,135.334 163.050 C 136.850 160.221,136.952 160.155,140.272 159.866 C 143.174 159.613,143.125 159.631,143.542 158.636 C 143.810 157.995,144.074 157.733,144.693 157.490 C 145.451 157.192,145.503 157.115,145.622 156.120 C 145.827 154.412,145.770 147.669,145.546 147.078 C 145.244 146.285,141.908 143.075,141.163 142.862 C 140.344 142.627,133.505 142.653,132.907 142.893 M163.707 142.810 C 163.366 143.151,163.542 175.793,163.886 175.925 C 164.336 176.098,166.071 176.075,166.354 175.892 C 166.517 175.787,166.613 173.644,166.677 168.680 C 166.790 159.819,166.767 159.877,170.205 159.877 C 172.018 159.877,172.610 160.124,173.490 161.245 L 174.104 162.027 174.169 168.778 C 174.238 176.125,174.185 175.836,175.469 175.841 C 177.000 175.848,176.868 177.409,176.868 159.338 L 176.868 143.081 176.305 142.862 C 175.955 142.726,175.471 142.709,175.026 142.816 L 174.309 142.989 174.207 149.846 L 174.104 156.704 173.414 157.563 C 172.575 158.607,171.923 158.855,170.031 158.851 C 166.770 158.844,166.768 158.840,166.637 149.991 L 166.530 142.784 165.191 142.724 C 164.454 142.692,163.786 142.730,163.707 142.810 M196.250 142.815 C 195.982 143.083,196.086 175.534,196.356 175.803 C 196.647 176.095,205.455 176.153,205.907 175.867 C 206.675 175.380,205.969 174.412,204.846 174.410 C 200.056 174.403,199.170 173.321,199.196 167.514 C 199.229 160.126,199.287 160.015,203.166 159.912 C 205.788 159.842,206.288 159.679,206.021 158.982 C 205.915 158.706,205.538 158.647,203.816 158.637 C 199.710 158.615,199.360 158.134,199.222 152.323 C 199.032 144.314,199.291 143.916,204.811 143.724 C 208.114 143.609,208.291 143.582,208.291 143.193 C 208.291 142.777,196.653 142.412,196.250 142.815 M226.521 142.868 C 226.186 143.410,226.676 143.705,227.913 143.708 C 231.162 143.716,230.993 142.805,231.116 160.901 L 231.218 175.947 232.390 176.008 C 234.605 176.124,234.391 177.682,234.391 161.442 C 234.391 144.139,234.318 144.573,237.359 143.892 C 238.516 143.633,239.033 143.275,238.798 142.895 C 238.631 142.625,226.688 142.598,226.521 142.868 M289.367 142.868 C 289.024 143.422,289.520 143.705,290.830 143.705 C 292.788 143.705,293.383 144.066,294.369 145.851 L 295.189 147.338 295.189 161.494 L 295.189 175.650 295.799 175.772 C 296.134 175.839,296.458 175.894,296.520 175.894 C 296.582 175.894,296.906 175.839,297.241 175.772 L 297.851 175.650 297.851 161.469 C 297.851 147.893,297.868 147.257,298.243 146.571 C 298.458 146.177,298.767 145.574,298.931 145.231 C 299.271 144.517,299.799 144.140,301.177 143.625 C 302.247 143.226,302.390 142.998,301.689 142.811 C 300.940 142.610,289.493 142.663,289.367 142.868 M325.024 142.831 C 324.406 142.896,324.190 143.039,323.918 143.564 C 323.531 144.313,323.074 144.713,322.594 144.722 C 321.852 144.737,321.345 146.073,320.959 149.028 C 320.651 151.385,320.824 170.461,321.161 171.238 C 321.307 171.576,321.490 172.219,321.567 172.666 C 321.710 173.488,321.731 173.507,323.283 174.220 C 323.591 174.362,323.956 174.732,324.093 175.042 C 324.373 175.674,324.674 175.767,327.094 175.969 C 328.937 176.123,329.995 175.866,330.299 175.192 C 330.495 174.758,330.879 174.478,332.494 173.596 C 334.061 172.740,333.974 173.496,334.045 160.091 C 334.121 145.684,334.118 145.625,333.093 145.201 C 331.933 144.721,330.629 143.845,330.496 143.456 C 330.269 142.792,327.938 142.526,325.024 142.831 M353.787 142.893 L 353.327 143.078 353.327 159.364 L 353.327 175.650 353.936 175.772 C 354.680 175.921,354.635 175.920,355.366 175.774 L 355.962 175.655 356.026 168.925 L 356.090 162.195 356.691 161.329 C 358.033 159.394,360.011 159.320,361.815 161.138 C 363.455 162.792,363.426 162.647,363.518 169.600 C 363.608 176.415,363.516 176.041,365.107 176.046 C 366.687 176.051,366.633 176.272,366.633 169.814 C 366.633 163.370,366.607 163.205,365.430 161.924 C 363.683 160.022,363.863 157.700,365.894 155.951 L 366.530 155.403 366.530 151.243 L 366.530 147.083 365.507 146.038 C 364.944 145.463,364.099 144.752,363.629 144.459 C 363.160 144.165,362.714 143.732,362.639 143.496 C 362.565 143.261,362.275 142.981,361.996 142.875 C 361.352 142.630,354.403 142.645,353.787 142.893 M74.187 143.991 C 74.562 144.148,75.019 144.493,75.201 144.758 C 75.383 145.024,75.878 145.425,76.302 145.651 C 77.422 146.249,77.560 146.858,77.572 151.279 C 77.586 156.592,77.017 157.879,74.395 158.466 C 71.720 159.065,71.341 158.173,71.341 151.279 C 71.341 144.278,71.837 143.009,74.187 143.991 M139.899 144.792 C 140.360 145.277,140.986 145.779,141.290 145.909 C 142.176 146.286,142.427 147.055,142.577 149.852 C 142.809 154.194,142.264 156.807,141.125 156.807 C 140.983 156.807,140.669 157.084,140.428 157.424 C 139.001 159.427,137.108 158.942,135.671 156.203 L 134.871 154.679 134.938 150.983 L 135.005 147.288 135.796 145.939 C 137.145 143.638,138.456 143.272,139.899 144.792 M360.559 144.735 C 361.029 145.188,361.717 145.743,362.090 145.967 C 363.250 146.666,363.443 147.437,363.447 151.382 C 363.452 155.351,363.272 155.992,362.006 156.521 C 361.615 156.685,361.214 157.034,361.113 157.297 C 360.312 159.406,358.010 158.940,356.668 156.398 L 355.965 155.067 356.028 150.973 L 356.090 146.878 356.807 145.772 C 357.299 145.012,357.779 144.550,358.342 144.293 C 359.473 143.776,359.592 143.800,360.559 144.735 M107.182 144.415 C 110.080 145.276,110.131 145.531,110.132 159.202 C 110.133 171.800,110.106 172.116,108.946 173.238 C 106.599 175.505,104.393 174.701,103.742 171.341 C 103.622 170.722,103.364 170.031,103.169 169.806 C 102.367 168.879,102.354 168.719,102.354 159.369 C 102.354 149.831,102.376 149.569,103.240 148.853 C 103.404 148.716,103.603 148.170,103.682 147.639 C 103.868 146.394,104.203 145.606,104.900 144.780 C 105.534 144.028,105.758 143.993,107.182 144.415 M328.103 144.427 C 331.017 145.293,331.056 145.507,330.976 159.989 C 330.903 173.015,330.966 172.472,329.476 173.095 C 329.098 173.253,328.731 173.477,328.659 173.592 C 327.974 174.702,326.025 174.771,325.578 173.702 C 325.418 173.319,325.197 172.950,325.085 172.882 C 324.974 172.813,324.784 172.369,324.663 171.895 C 324.542 171.421,324.213 170.598,323.931 170.066 L 323.418 169.098 323.480 158.567 C 323.540 148.359,323.554 148.022,323.953 147.560 C 324.179 147.298,324.548 146.720,324.772 146.277 C 325.763 144.315,326.446 143.936,328.103 144.427"/></g></svg>