<svg xmlns="http://www.w3.org/2000/svg" role="img" viewBox="-54.30 -54.30 2026.10 2823.60"><title>Pure Storage FlashBlade (Object Storage) logo</title><g><g><g><path fill="#f0401e" d="M 5778.54,6576.47 H 3391.26 c -492.78,0 -952.11,265.13 -1198.4,691.43 L 184.355,10746.3 c -245.7712,426.9 -245.7712,956.9 -0.213,1383.3 l 2008.718,3478.6 c 246.08,427 705.4,692 1198.4,692 H 7407.8 c 492.57,0 951.67,-265 1198.25,-692 l 2008.35,-3478.3 c 246.1,-426.4 246.1,-956.7 0,-1383.6 L 10095,9918.43 C 9853.18,9499.3 9393.85,9234.42 8900.86,9234.42 H 6510.32 L 7817.27,11440 6608.39,13532.7 H 4190.04 l -1209.4,-2094.3 2797.9,-4861.93" transform="matrix(.1667 0 0 -.1667 0 2717.373)"/></g><path fill="#201f1e" d="M2690.44 4841.7c294.3 0 481.71 89.1 481.71 397.2 0 303.1-160.66 387.8-441.71 387.8h-213.9v-785zM2516.54 3263H1749.38V6229.1H2837.6c700.27 0 1123.8-325.8 1123.8-941.4 0-691.2-503.79-1039-1217.44-1039H2516.54V3263M5178.19 6229.1V4288.7c0-338.9 173.9-441.5 419.23-441.5 231.96 0 396.9 138.4 396.9 419.2v1962.7h767.17v-2052c0-601.9-481.57-967.6-1181.87-967.6-771.57 0-1168.47 311.9-1168.47 1034.8v1984.8h767.04M10040 6229.1h1940.3V5560H10807v-450.7h1007.8V4440.4H10807v-508.6h1204.2V3263H10040v2966.1M8064.58 4843.6v784.9h214.29c280.79 0 441.32-84.7 441.32-388 0-307.6-187.28-396.9-481.58-396.9zm1187.57-639.5c-44.42 106.2-115.06 190.4-194.55 230.6 281.57 169.1 451.96 453.8 451.96 854.9 0 615.6-423.65 941.3-1123.93 941.3H7297.4V3264.8h767.18v985.8h197.41c103.12-7.3 168.83-63.9 214.56-168.4l360.26-815h820.55l-405.21 936.9M261.434 440.301c108.367-73.399 356.554-199.199 632.671-199.199 234.125 0 489.235 73.5 489.235 429.898 0 279.5-244.65 370.3-524.078 447.3-335.645 90.8-664.137 216.6-664.137 646.5 0 388 300.57 643.2 737.363 643.2 314.562 0 590.602-146.9 754.962-311l-153.9-185.3c-181.52 157.1-384.41 258.6-604.601 258.6-195.594 0-447.246-84-447.246-377.5 0-276.1 237.66-356.5 538.227-447.4 321.64-101.2 649.99-223.7 649.99-663.9C1669.92 244.602 1376.41 0 887.18 0 551.543 0 240.656 136.301 146.211 213.102l115.223 227.199M3627.23 2366V2128.3H2921.34V41.9023H2645.23V2128.3H1953.1V2366h1674.13M4767.93 234.102c506.78 0 664.21 478.898 664.21 954.098 0 412.4-136.37 982.1-667.74 982.1-510.09 0-698.98-485.7-698.98-961.2 0-461.198 125.83-974.998 702.51-974.998zM4739.94 0c-597.54 0-957.55 401.801-957.55 1198.8 0 898.2 517.16 1209.2 992.62 1209.2 503.23 0 940.09-318.1 940.09-1209.2C5715.1 398.402 5337.7 0 4739.94 0M8557.05 982.004h782.81C8944.99 2117.7 8944.99 2117.7 8944.99 2117.7zM7969.83 41.9023L8787.71 2366H9116.2L9951.46 41.9023H9661.35L9406.31 758.402H8490.6L8242.47 41.9023h-272.64M11818.2 213.102C11626 83.7031 11349.8 0 11045.9 0c-611.5 0-989.1 387.801-989.1 1198.8 0 904.9 524.3 1209.2 989.1 1209.2 237.6 0 541.8-73.5 779.3-377.5L11626 1873.1c-153.7 181.7-335.5 297.2-583.5 297.2-440.4 0-702.6-359.9-702.6-947.1 0-629.298 223.8-996.098 730.5-996.098 181.8 0 387.9 62.898 471.7 122.402V1041.3h-527.7v237.8h803.8V213.102M12291.1 2366h1300v-237.7h-1023.9v-782.9h880.6v-237.5h-880.6V279.504h1048.4V41.9023H12291.1V2366M6762.09 1121.9H6412.6v1016.9h304.11c394.87 0 674.45-45.4 674.45-506.7 0-374-258.59-510.2-629.07-510.2zM7418.12 771c-52.82 116.902-86.57 176.004-159.57 212.703 256.37 114.097 415.79 342.697 415.79 690.397 0 454.4-293.65 691.9-782.96 691.9H6136.56V41.9023H6412.6V898.203h398.48c28.36 0 56.14.899 83.54 2.699l-3.98-1.5c143.21 0 209.52-93.601 268.9-219.3L7455.32 42.6016H7748.9L7418.12 771M14095 2139.5c42.7 0 80.5 4.2 80.5 54.5 0 41.8-41.1 46.9-75.4 46.9h-68.7v-101.4zm-63.6-196.9h-57v346.8h131.5c83.8 0 126.5-29.3 126.5-99.6 0-62.9-38.5-88.8-90.4-94.7l97.2-152.5h-64.5l-89.7 148.3h-53.6zm62 438.2c-135.7 0-241.3-106.4-241.3-258.9 0-142.4 92.1-258.9 241.3-258.9 134 0 239.6 105.6 239.6 258.9 0 152.5-105.6 258.9-239.6 258.9zm0-572.2c-180.1 0-308.3 134.9-308.3 313.3 0 188.5 142.4 313.3 308.3 313.3 164.2 0 306.6-124.8 306.6-313.3 0-188.5-142.4-313.3-306.6-313.3" transform="matrix(.13333 0 0 -.13333 0 2717.373)"/></g></g></svg>