<svg xmlns="http://www.w3.org/2000/svg" role="img" viewBox="-54.30 -54.30 2026.10 2823.60"><title>Pure Storage (Hardware Stacks) logo</title><path fill="#f0401e" d="M963.28262 1621.07545H565.32304c-82.14642 0-158.71673-44.19717-199.77328-115.26138L30.73198 925.96479c-40.97006-71.16423-40.97006-159.51523-.0355-230.59611l334.85328-579.88262C406.5713 44.30516 483.13994.12966 565.32304.12966h669.55722c82.11142 0 158.64339 44.1755 199.74827 115.3564l334.79195 579.83261c41.02487 71.08088 41.02487 159.48189 0 230.64612l-86.58398 138.00593c-40.3114 69.86897-116.8817 114.02447-199.06314 114.02447h-398.50302L1303.13891 810.325l-201.5203-348.85309H698.47967L496.87269 810.59172l466.40993 810.48373"/><path fill="#201f1e" d="M358.71637 2071.82914c39.23901 0 64.22639-11.8797 64.22639-52.95868 0-40.41232-21.4208-51.70537-58.8932-51.70537h-28.51928v104.66405zm-23.1861 210.48807H233.24485V1886.8471H378.3372c93.367 0 149.83625 43.43891 149.83625 125.51686 0 92.1577-67.17032 138.52987-162.32127 138.52987h-30.32191v131.42338m354.8778-395.47011v258.71353c0 45.18554 23.18608 58.8652 55.89593 58.8652 30.92723 0 52.91868-18.45288 52.91868-55.89194v-261.6868h102.28677v273.59317c0 80.25132-64.20773 129.0101-157.57873 129.0101-102.87342 0-155.7921-41.58562-155.7921-137.96988V1886.8471h102.26944m648.22513 0h258.7002v89.2111H1440.8973v60.09183h134.36997v89.18444h-134.36997v67.81164h160.55599v89.1711h-262.8201V1886.8471m-263.38275 184.72871V1966.9251h28.57129c37.43773 0 58.8412 11.29306 58.8412 51.73204 0 41.01231-24.97005 52.91868-64.20907 52.91868zm158.33871 85.26454c-5.92252-14.15965-15.34095-25.38604-25.93935-30.7459 37.54173-22.5461 60.25982-60.50516 60.25982-113.98382 0-82.07795-56.48525-125.50353-149.85358-125.50353h-145.0937v395.47012h102.2881V2150.6405h26.32068c13.74899.97331 22.5101 8.51979 28.60728 22.45277l48.03347 108.66395h109.40393l-54.02665-124.91687M34.857 2658.66767c14.44857 9.78629 47.53934 26.5592 84.35402 26.5592 31.21589 0 65.2297-9.79975 65.2297-57.3183 0-37.26574-32.61918-49.3721-69.87532-59.6385-44.75155-12.10637-88.54938-28.87929-88.54938-86.19785 0-51.73204 40.075-85.75786 98.3126-85.75786 41.94056 0 78.74497 19.58618 100.65909 41.46563l-20.51949 24.70605c-24.20206-20.94614-51.25338-34.47914-80.61145-34.47914-26.07855 0-59.6313 11.19972-59.6313 50.33208 0 36.8124 31.6872 47.53214 71.7618 59.65184 42.88426 13.493 86.66316 29.82592 86.66316 88.51778 0 58.25162-39.13368 90.8644-104.36272 90.8644-44.75048 0-86.20105-18.17301-98.7934-28.41289l15.36269-30.29244m448.76158-256.75345v31.69254h-94.11632v278.1794h-36.81374v-278.1794h-92.2817v-31.69254h223.21176m152.08953 284.24596c67.56897 0 88.55912-63.85147 88.55912-127.20989 0-54.98529-18.18222-130.94339-89.02978-130.94339-68.0103 0-93.195 64.75838-93.195 128.1568 0 61.49153 16.77691 129.99648 93.66566 129.99648zm-3.73191 31.21282c-79.67 0-127.67014-53.57213-127.67014-159.836 0-119.75701 68.95294-161.22264 132.34602-161.22264 67.09566 0 125.3422 42.41227 125.3422 161.22264 0 106.71706-50.31874 159.836-130.01808 159.836m508.93528-130.9306h104.37205l-52.64801-151.42234zm-78.29405 125.34377l109.04794-309.87195h43.79758l111.36521 309.87195h-38.68036l-34.00449-95.5309H1132.0517l-33.08317 95.5309h-36.3511m513.10318-22.82606c-25.62603 17.25276-62.45178 28.41289-102.97076 28.41289-81.5313 0-131.8767-51.7055-131.8767-159.836 0-120.65032 69.90491-161.22264 131.8767-161.22264 31.6792 0 72.2382 9.79975 103.90407 50.33207l-26.55934 20.98615c-20.49282-24.22606-44.73221-39.62568-77.79805-39.62568-58.71854 0-93.67766 47.98547-93.67766 126.27684 0 83.9043 29.83925 132.80975 97.39756 132.80975 24.2394 0 51.7187-8.38619 62.89176-16.31986v-92.23716h-70.35824v-31.70587h107.17066v142.12951m63.05175-287.04589h173.329v31.69254h-136.51658v104.38406h117.4104v31.66587h-117.4104v110.45004h139.78317v31.67944h-176.59559v-309.87195m-737.1829 165.87585h-46.5975V2432.2068h40.54698c52.64802 0 89.92442 6.05318 89.92442 67.5583 0 49.86543-34.4778 68.02497-83.8739 68.02497zm87.46848 46.7855c-7.0425-15.58654-11.54238-23.46661-21.27547-28.3597 34.18181-15.21254 55.43728-45.69178 55.43728-92.05062 0-60.58516-39.15235-92.25103-104.39205-92.25103H818.18754v309.87195h36.80442v-114.17058h53.12934c3.78124 0 7.48514-.11986 11.13838-.35985l-.53065.2c19.0942 0 27.9353 12.47981 35.85244 29.23926l39.43635 84.99793h39.14302l-44.1029-97.11736m890.22841-182.4621c5.6932 0 10.73307-.56 10.73307-7.26649 0-5.5732-5.47987-6.25318-10.05309-6.25318h-9.15977v13.51966zm-8.47979 26.25267h-7.5998v-46.23884h17.53289c11.17305 0 16.86624 3.90657 16.86624 13.27967 0 8.38645-5.1332 11.8397-12.05303 12.62635l12.95968 20.33282h-8.59979l-11.9597-19.77284h-7.14649zm8.26646-58.4252c-18.09288 0-32.17253 14.1863-32.17253 34.51913 0 18.9862 12.2797 34.51914 32.17253 34.51914 17.86622 0 31.94587-14.07965 31.94587-34.51914 0-20.33282-14.07965-34.51913-31.94587-34.51913zm0 76.29142c-24.01273 0-41.10564-17.98622-41.10564-41.77229 0-25.1327 18.9862-41.77229 41.10564-41.77229 21.89279 0 40.87898 16.63959 40.87898 41.7723 0 25.1327-18.9862 41.77228-40.87898 41.77228"/></svg>