<svg xmlns="http://www.w3.org/2000/svg" role="img" viewBox="68.63 20.88 162.50 158.13"><title>Qlik (Data Exploration) logo</title><defs><style>.bef8478c-0ac1-490b-a5f8-48205a612101{fill:#5f5f61}</style></defs><path fill="#60a529" d="M190.79 90.36c-3.32-2.79-6.63-5.58-10-8.36-.32-.26-.28-.44-.1-.74.36-.55.69-1.14 1-1.72A36.64 36.64 0 0 0 185.9 67a38.53 38.53 0 0 0-.05-11 37.77 37.77 0 0 0-22.73-29 38 38 0 0 0-20.31-2.45 37.18 37.18 0 0 0-10.13 3.07A37.6 37.6 0 0 0 119 38.31a37.47 37.47 0 0 0-8.1 23.3c0 1.29 0 2.55.17 3.79a37.68 37.68 0 0 0 44.49 33.21 37 37 0 0 0 14.1-5.81.76.76 0 0 1 1.13 0c3.46 2.93 6.94 5.81 10.39 8.73 1.07.91 2.39 1.23 3.59-.24 2.07-2.53 4.2-5 6.3-7.53a2.13 2.13 0 0 0-.28-3.4zm-42.27-5.62a23.11 23.11 0 1 1 23.22-23.16 23.15 23.15 0 0 1-23.22 23.16z"/><path d="M131.46 166.7c-2.11-1.81-4.19-3.65-6.3-5.45-.32-.26-.31-.44-.09-.76a28.6 28.6 0 0 0 4.66-15.75 25.45 25.45 0 0 0-.54-5.58A28.38 28.38 0 0 0 115.62 120a28.87 28.87 0 0 0-38.92 8.94 27.72 27.72 0 0 0-4 22.42c2.24 9.34 7.9 16 16.67 19.91a28.86 28.86 0 0 0 26.86-2.1.53.53 0 0 1 .76.06q3.52 3.09 7.07 6.14a1.65 1.65 0 0 0 2.66-.1q2.47-2.82 4.93-5.67c1.01-1.15.94-1.92-.19-2.9zm-30.63-5.26a16.66 16.66 0 1 1 16.67-16.66 16.67 16.67 0 0 1-16.67 16.66zm80.96-16.64v-26.58a3.31 3.31 0 0 1 .1-.94 1.66 1.66 0 0 1 1.71-1.28h8.53a1.86 1.86 0 0 1 2 2.14v25.13a3.33 3.33 0 0 0 .09.94c.17.56.45.66.92.3a4 4 0 0 0 .48-.44c3.67-3.88 7.34-7.78 11-11.65a4.43 4.43 0 0 1 3.27-1.4h11c.44 0 1 0 1.2.44s-.24.79-.53 1.09l-11.76 12.14a2.57 2.57 0 0 0-.4 3.33l11.64 19.25c.92 1.53 1.85 3 2.78 4.58a3 3 0 0 1 .2.4c.34.86 0 1.39-.92 1.4h-10.58a3.62 3.62 0 0 1-3.31-1.88q-4.77-8-9.56-16.05c-.21-.36-.33-.38-.63-.1-1.12 1.08-2.27 2.12-3.4 3.19a5 5 0 0 0-1.64 3.79v9a1.79 1.79 0 0 1-1.3 1.95 3.06 3.06 0 0 1-.8.07h-8a1.9 1.9 0 0 1-2.15-2.17zm-30.41 0v26.58a2 2 0 0 1-1.34 2.15 2.41 2.41 0 0 1-.7.07h-8.47a1.9 1.9 0 0 1-2.1-2.12v-53.36a1.93 1.93 0 0 1 2.19-2.18h8a6 6 0 0 1 .85 0 1.82 1.82 0 0 1 1.6 1.78v.4zm21.62 7.39v19.16c0 1.58-.67 2.25-2.25 2.25h-7.93c-1.57 0-2.25-.69-2.25-2.27v-38.21a2 2 0 0 1 2.19-2.24h8a2 2 0 0 1 2.23 2.26c-.05 6.35.01 12.7.01 19.05z" class="bef8478c-0ac1-490b-a5f8-48205a612101"/><path fill="#5f5f60" d="M166.5 125.24h-4.06a1.76 1.76 0 0 1-1.9-1.86v-5.67a1.83 1.83 0 0 1 2-1.8h8.07a1.79 1.79 0 0 1 2 1.88v5.77a1.74 1.74 0 0 1-1.88 1.68c-1.39.02-2.81 0-4.23 0z"/><path fill="#abadac" d="M224.52 122.43a3.61 3.61 0 1 1 3.6-3.59 3.58 3.58 0 0 1-3.6 3.59z"/><path fill="#fcfdfd" d="M224.5 121.93a3 3 0 0 1-3-3.06 3 3 0 1 1 6 0 2.94 2.94 0 0 1-3 3.06z"/><path d="M163.44 61.71a14.84 14.84 0 1 1-14.89-14.91 14.85 14.85 0 0 1 14.89 14.91z" class="bef8478c-0ac1-490b-a5f8-48205a612101"/><path fill="#acafae" d="M225.12 119.09l1.17 1.87a.57.57 0 0 1-.8-.3c-.23-.42-.51-.82-.72-1.25s-.55-.33-.86-.3-.2.37-.21.57a9.2 9.2 0 0 0 0 1c0 .18 0 .29-.25.29s-.25-.1-.25-.28v-3.86c0-.19.08-.27.27-.27h1.55c.75.09 1.07.43 1.1 1.07.04.89-.18 1.2-1 1.46z"/><path fill="#fbfdfd" d="M224.46 118.62h-.45c-.15 0-.32-.09-.32-.32 0-1.53-.25-1.32 1.26-1.2.49 0 .69.3.67.81s-.21.68-.71.7h-.45z"/></svg>