<svg xmlns="http://www.w3.org/2000/svg" role="img" viewBox="-3.83 -3.83 199.16 54.16"><title>R-Brain (Interactive Workbench) logo</title><defs id="defs4"><style id="style2">.cls-5{fill:#fff}</style></defs><g id="Layer_1-2"><g id="g32"><path id="path8" fill="#447ed5" d="M34.52 20.86a10.19 10.19 0 01-9.91-10.43A10.19 10.19 0 0134.52 0a10.2 10.2 0 019.91 10.43 10.2 10.2 0 01-9.91 10.43zm0-15.86a5.27 5.27 0 00-5.13 5.39 5.13 5.13 0 1010.25 0A5.27 5.27 0 0034.52 5z"/><path id="path10" fill="#d43a36" d="M9.91 20.86A10.2 10.2 0 010 10.43 10.2 10.2 0 019.91 0a10.19 10.19 0 019.91 10.43 10.19 10.19 0 01-9.91 10.43zM9.91 5a5.27 5.27 0 00-5.13 5.39 5.27 5.27 0 005.13 5.4A5.27 5.27 0 0015 10.43 5.27 5.27 0 009.91 5z"/><path id="path12" fill="#605ea2" d="M34.52 46.76a10.19 10.19 0 01-9.91-10.43 10.19 10.19 0 019.91-10.43 10.2 10.2 0 019.91 10.43 10.2 10.2 0 01-9.91 10.43zm0-15.83a5.4 5.4 0 105.12 5.4 5.27 5.27 0 00-5.12-5.4z"/><path id="polygon14" fill="#39a892" d="M4.8 25.65l15.26 16.06-4.35 4.58L.45 30.23z"/><g id="g30" fill="#000" fill-opacity="1"><path id="path16" fill="#000" fill-opacity="1" d="M61 38.49V8.28h11.69a9.9 9.9 0 017.15 2.61 9.25 9.25 0 012.73 7A9.4 9.4 0 0181 23.47a8.72 8.72 0 01-4.45 3.24l6.11 11.78h-6l-5.82-11.22h-4.26v11.22zm5.54-16.27h5.66q4.71 0 4.71-4.32t-4.71-4.36h-5.62z" class="cls-5"/><path id="path18" fill="#000" fill-opacity="1" d="M86.17 26.49v-4.32h9.38v4.32z" class="cls-5"/><path id="path20" fill="#000" fill-opacity="1" d="M101.16 38.49V8.28h12.18a8.22 8.22 0 016.13 2.35 7.92 7.92 0 012.32 5.76 6.33 6.33 0 01-3.12 5.74 6.9 6.9 0 013 2.62 7.65 7.65 0 011.17 4.29 9.52 9.52 0 01-2.5 6.91c-1.67 1.67-4.41 2.5-8.24 2.5zm5.53-18h6a3.92 3.92 0 002.65-.84 3.15 3.15 0 001-2.49 3.34 3.34 0 00-.94-2.59 3.84 3.84 0 00-2.67-.86h-6zm0 12.64h6.69c2.62 0 3.94-1.33 3.94-4a3.81 3.81 0 00-1-2.87 3.91 3.91 0 00-2.85-1h-6.73z" class="cls-5"/><path id="path22" fill="#000" fill-opacity="1" d="M126.68 38.49V15.61h5V18h.09a4.92 4.92 0 011.86-2 4.8 4.8 0 014.61-.35l-.82 5.44a4.7 4.7 0 00-1.68-.34q-3.74 0-3.73 5.22v12.52z" class="cls-5"/><path id="path24" fill="#000" fill-opacity="1" d="M153.43 38.49v-2.2h-.08c-.06.08-.13.19-.21.32a4.5 4.5 0 01-.61.67 6.32 6.32 0 01-1.11.86 6.79 6.79 0 01-1.68.7 8.47 8.47 0 01-2.3.3q-3.93 0-5.88-2a6.56 6.56 0 01-1.95-4.81 5.86 5.86 0 011.68-4.53 13.43 13.43 0 015.7-2.59 23 23 0 004.68-1.51 1.79 1.79 0 00.94-1.6 2.1 2.1 0 00-.92-1.73 4.62 4.62 0 00-2.77-.69 4.09 4.09 0 00-3.12 1 6.86 6.86 0 00-1.47 2.74l-4.43-1.94a8.93 8.93 0 013-4.73 9.07 9.07 0 015.94-1.75 9.6 9.6 0 016.52 2.2c1.69 1.46 2.54 3.74 2.54 6.82v14.5zm-5.37-9.37a5.64 5.64 0 00-2.69 1.23 2.4 2.4 0 00-.63 1.62c0 1.56 1.06 2.33 3.19 2.33a5.68 5.68 0 003.63-1 3 3 0 001.21-2.39V27h-.08a1.74 1.74 0 01-.35.53 4.92 4.92 0 01-1.25.65 22.88 22.88 0 01-3.03.94z" class="cls-5"/><path id="path26" fill="#000" fill-opacity="1" d="M162.55 12.29V7h5.33v5.31zm0 26.2V15.61h5.33v22.88z" class="cls-5"/><path id="path28" fill="#000" fill-opacity="1" d="M172.93 38.49V15.61h5.13v2.2h.08a7.11 7.11 0 012.46-2 6.93 6.93 0 013.28-.82 7.23 7.23 0 015.66 2.26 9 9 0 012.05 6.28v15h-5.33V24.89a6 6 0 00-.86-3.56 3.4 3.4 0 00-3-1.18 4 4 0 00-3.08 1.18 4.45 4.45 0 00-1.1 3.17v14z" class="cls-5"/></g></g></g></svg>