<svg xmlns="http://www.w3.org/2000/svg" role="img" viewBox="-7.99 -7.99 415.74 134.74"><title>RSpace ResearchSpace (Data Catalog) logo</title><g fill-rule="evenodd"><path fill="#04acec" d="M193.333 23.083c0 .199-.241.25-1.172.25-.888 0-1.195.061-1.267.25-.066.17-.331.25-.828.25-.54 0-.733.066-.733.25 0 .181-.185.25-.672.25-.443 0-.704.085-.767.25-.055.143-.304.25-.578.25-.318 0-.483.086-.483.25 0 .167-.166.25-.5.25-.333 0-.5.084-.5.25 0 .167-.166.25-.5.25-.333 0-.5.084-.5.25 0 .217-.428.346-.887.266-.076-.013-.087.058-.025.158.064.103-.039.222-.238.274-.192.05-.35.195-.35.322s-.112.23-.25.23c-.137 0-.25.113-.25.25 0 .217-.428.346-.887.266-.076-.013-.095.044-.044.128.125.201-.31.555-.486.397-.075-.068-.087-.039-.028.065.131.23-.28.608-.472.435-.075-.068-.087-.039-.028.065.129.226-.281.613-.459.435-.068-.068-.108-.049-.09.043.094.466-.031.916-.256.916-.137 0-.25.113-.25.25 0 .138-.112.25-.25.25-.137 0-.25.105-.25.233 0 .127-.112.275-.25.328-.137.052-.25.285-.25.517 0 .264-.093.422-.25.422-.166 0-.25.167-.25.5 0 .334-.083.5-.25.5-.166 0-.25.167-.25.5 0 .334-.083.5-.25.5-.185 0-.25.195-.25.75 0 .556-.064.75-.25.75-.199 0-.25.248-.25 1.233 0 .941-.059 1.254-.25 1.328-.306.117-.361 3.087-.066 3.638.101.188.224 1.083.274 1.989.068 1.228.148 1.646.317 1.646.156 0 .225.23.225.75 0 .555.065.75.25.75.167 0 .25.166.25.5 0 .333.084.5.25.5.167 0 .25.166.25.5 0 .333.084.5.25.5.138 0 .25.112.25.25 0 .137.113.25.25.25.138 0 .25.112.25.25 0 .137.113.25.25.25.167 0 .25.166.25.5 0 .333.084.5.25.5.138 0 .25.112.25.25 0 .137.113.25.25.25.138 0 .25.112.25.25 0 .166.167.25.5.25.334 0 .5.083.5.25 0 .137.113.25.25.25.138 0 .25.112.25.25 0 .137.113.25.25.25.138 0 .25.112.25.25 0 .166.167.25.5.25.334 0 .5.083.5.25 0 .137.113.25.25.25.138 0 .25.112.25.25 0 .166.167.25.5.25.334 0 .5.083.5.25 0 .166.167.25.5.25.334 0 .5.083.5.25 0 .185.195.25.75.25.556 0 .75.064.75.25 0 .166.167.25.5.25.334 0 .5.083.5.25 0 .185.195.25.75.25.556 0 .75.064.75.25 0 .185.195.25.75.25.556 0 .75.064.75.25 0 .185.195.25.75.25.556 0 .75.064.75.25 0 .185.195.25.75.25.556 0 .75.064.75.25 0 .194.223.25 1 .25.778 0 1 .055 1 .25 0 .185.195.25.75.25.556 0 .75.064.75.25 0 .194.223.25 1 .25.778 0 1 .055 1 .25 0 .185.195.25.75.25.556 0 .75.064.75.25 0 .185.195.25.75.25.556 0 .75.064.75.25 0 .185.195.25.75.25.556 0 .75.064.75.25 0 .185.195.25.75.25.556 0 .75.064.75.25 0 .185.195.25.75.25.556 0 .75.064.75.25 0 .166.167.25.5.25.334 0 .5.083.5.25 0 .166.167.25.5.25.334 0 .5.083.5.25 0 .166.167.25.5.25.334 0 .5.083.5.25 0 .166.167.25.5.25.334 0 .5.083.5.25 0 .137.113.25.25.25.138 0 .25.112.25.25 0 .166.167.25.5.25.334 0 .5.083.5.25 0 .137.113.25.25.25.138 0 .25.112.25.25 0 .137.113.25.25.25.138 0 .25.112.25.25 0 .137.113.25.25.25.138 0 .25.112.25.25 0 .137.113.25.25.25.138 0 .25.112.25.25 0 .137.113.25.25.25.138 0 .25.112.25.25 0 .137.113.25.25.25.167 0 .25.166.25.5 0 .333.084.5.25.5.138 0 .25.112.25.25 0 .137.113.25.25.25.167 0 .25.166.25.5 0 .333.084.5.25.5.186 0 .25.194.25.75 0 .555.065.75.25.75.204 0 .25.277.25 1.5 0 1.222.047 1.5.25 1.5.197 0 .25.231.25 1.083s-.053 1.083-.25 1.083c-.199 0-.25.248-.25 1.233 0 .941-.059 1.254-.25 1.328-.163.062-.25.322-.25.75 0 .413-.087.687-.238.745-.131.05-.262.302-.291.559-.03.258-.132.455-.227.439-.095-.017-.189.168-.209.41-.02.243-.149.504-.286.58-.137.077-.249.323-.249.548 0 .252-.095.408-.25.408-.137 0-.25.113-.25.25 0 .138-.103.25-.23.25s-.272.158-.322.35c-.059.223-.166.305-.296.225-.122-.076-.16-.057-.096.047.134.216-.286.588-.473.419-.075-.068-.087-.039-.028.065.129.226-.281.613-.459.435-.068-.068-.098-.049-.068.043.065.193-.615.916-.861.916-.092 0-.167.113-.167.25 0 .217-.428.346-.887.266-.076-.013-.087.058-.025.158.064.103-.039.222-.238.274-.192.05-.35.195-.35.322 0 .145-.185.23-.5.23-.333 0-.5.084-.5.25 0 .167-.166.25-.5.25-.333 0-.5.084-.5.25 0 .181-.185.25-.672.25-.443 0-.704.085-.767.25-.066.17-.331.25-.828.25-.54 0-.733.066-.733.25 0 .215-2.022.405-2.875.27-.068-.011-.106.074-.083.189.032.161-.941.218-4.333.252-3.819.039-4.375.013-4.375-.208 0-.198-.218-.253-1-.253-.778 0-1-.055-1-.25 0-.194-.223-.25-1-.25-.778 0-1-.055-1-.25 0-.185-.195-.25-.75-.25-.556 0-.75-.064-.75-.25 0-.166-.167-.25-.5-.25-.334 0-.5-.083-.5-.25 0-.166-.167-.25-.5-.25-.334 0-.5-.083-.5-.25 0-.166-.167-.25-.5-.25-.334 0-.5-.083-.5-.25 0-.166-.167-.25-.5-.25-.334 0-.5-.083-.5-.25 0-.137-.113-.25-.25-.25-.138 0-.25-.112-.25-.25 0-.166-.167-.25-.5-.25-.334 0-.5-.083-.5-.25 0-.137-.113-.25-.25-.25-.138 0-.25-.112-.25-.25 0-.166-.167-.25-.5-.25-.334 0-.5-.083-.5-.25 0-.137-.113-.25-.25-.25-.138 0-.25-.112-.25-.25 0-.137-.113-.25-.25-.25-.138 0-.25-.112-.25-.25 0-.137-.113-.25-.25-.25-.138 0-.25-.112-.25-.25 0-.137-.113-.25-.25-.25-.138 0-.25-.112-.25-.25 0-.137-.113-.25-.25-.25-.138 0-.25-.112-.25-.25 0-.137-.113-.25-.25-.25-.138 0-.25-.112-.25-.25 0-.137-.113-.25-.25-.25-.138 0-.25-.112-.25-.25 0-.137-.113-.25-.25-.25-.138 0-.25-.112-.25-.25 0-.137-.113-.25-.25-.25-.138 0-.25-.112-.25-.25 0-.14-.149-.25-.339-.25-.186 0-.382.113-.434.25-.053.138-.201.25-.328.25-.128 0-.233.113-.233.25 0 .138-.112.25-.25.25-.137 0-.25.113-.25.25 0 .138-.112.25-.25.25-.137 0-.25.113-.25.25 0 .217-.428.346-.887.266-.076-.013-.095.044-.044.128.101.162-.296.573-.427.443-.042-.043-.095.22-.116.585-.03.502.023.662.218.662.141 0 .256.112.256.25 0 .137.113.25.25.25.138 0 .25.112.25.25 0 .137.113.25.25.25.138 0 .25.112.25.25 0 .137.113.25.25.25.138 0 .25.112.25.25 0 .137.113.25.25.25.138 0 .25.112.25.25 0 .137.113.25.25.25.138 0 .25.112.25.25 0 .137.113.25.25.25.138 0 .25.112.25.25 0 .137.113.25.25.25.138 0 .25.112.25.25 0 .137.113.25.25.25.138 0 .25.112.25.25 0 .166.167.25.5.25.334 0 .5.083.5.25 0 .137.113.25.25.25.138 0 .25.112.25.25 0 .137.113.25.25.25.138 0 .25.112.25.25 0 .166.167.25.5.25.334 0 .5.083.5.25 0 .166.167.25.5.25.334 0 .5.083.5.25 0 .137.113.25.25.25.138 0 .25.112.25.25 0 .166.167.25.5.25.334 0 .5.083.5.25 0 .185.195.25.75.25.556 0 .75.064.75.25 0 .166.167.25.5.25.334 0 .5.083.5.25 0 .185.195.25.75.25.556 0 .75.064.75.25 0 .194.223.25 1 .25.778 0 1 .055 1 .25 0 .194.223.25 1 .25.778 0 1 .055 1 .25 0 .21.361.25 2.25.25 1.915 0 2.25.038 2.25.256 0 .221.368.254 2.668.235 1.467-.012 2.628-.084 2.58-.161-.163-.264.197-.315 2.385-.34 1.544-.017 2.179-.081 2.153-.216-.023-.123.335-.209 1.006-.241.777-.037 1.042-.111 1.042-.291 0-.176.205-.242.75-.242.555 0 .75-.065.75-.25 0-.186.194-.25.75-.25.555 0 .75-.065.75-.25 0-.22.785-.37 1.387-.266.076.013.093-.048.039-.135-.126-.204.099-.341.63-.385.231-.019.38-.099.332-.178-.049-.078.069-.183.262-.234.192-.05.35-.195.35-.322 0-.145.185-.23.5-.23.333 0 .5-.084.5-.25 0-.138.112-.25.25-.25.137 0 .25-.113.25-.25 0-.217.428-.346.887-.266.076.013.095-.044.044-.128-.125-.201.31-.555.486-.397.075.068.079.025.009-.096-.084-.145-.008-.25.224-.311.192-.05.35-.195.35-.322s.103-.23.23-.23.272-.158.322-.35c.059-.223.166-.305.296-.225.122.076.16.057.096-.047-.131-.212.287-.592.46-.419.068.068.108.049.09-.043-.094-.466.031-.916.256-.916.137 0 .25-.113.25-.25 0-.138.112-.25.25-.25.166 0 .25-.167.25-.5 0-.334.083-.5.25-.5.166 0 .25-.167.25-.5 0-.334.083-.5.25-.5.166 0 .25-.167.25-.5 0-.324.084-.5.239-.5.148 0 .259-.206.292-.542.031-.324.136-.525.26-.5.115.023.2-.015.189-.083-.114-.719.053-1.875.27-1.875.216 0 .25-.63.25-4.667s-.034-4.667-.25-4.667c-.195 0-.25-.222-.25-1 0-.777-.056-1-.25-1-.167 0-.25-.166-.25-.5 0-.333-.084-.5-.25-.5-.167 0-.25-.166-.25-.5 0-.333-.084-.5-.25-.5-.167 0-.25-.166-.25-.5 0-.333-.084-.5-.25-.5-.138 0-.25-.112-.25-.25 0-.137-.113-.25-.25-.25-.167 0-.25-.166-.25-.5 0-.333-.084-.5-.25-.5-.138 0-.25-.112-.25-.25 0-.137-.113-.25-.25-.25-.138 0-.25-.112-.25-.25 0-.137-.113-.25-.25-.25-.138 0-.25-.112-.25-.25 0-.137-.113-.25-.25-.25-.138 0-.25-.112-.25-.25 0-.137-.113-.25-.25-.25-.138 0-.25-.112-.25-.25 0-.137-.113-.25-.25-.25-.138 0-.25-.112-.25-.25 0-.166-.167-.25-.5-.25-.334 0-.5-.083-.5-.25 0-.137-.113-.25-.25-.25-.138 0-.25-.112-.25-.25 0-.166-.167-.25-.5-.25-.334 0-.5-.083-.5-.25 0-.166-.167-.25-.5-.25-.334 0-.5-.083-.5-.25 0-.166-.167-.25-.5-.25-.334 0-.5-.083-.5-.25 0-.166-.167-.25-.5-.25-.334 0-.5-.083-.5-.25 0-.166-.167-.25-.5-.25-.334 0-.5-.083-.5-.25 0-.166-.167-.25-.5-.25-.334 0-.5-.083-.5-.25 0-.185-.195-.25-.75-.25-.556 0-.75-.064-.75-.25 0-.185-.195-.25-.75-.25-.556 0-.75-.064-.75-.25 0-.185-.195-.25-.75-.25-.556 0-.75-.064-.75-.25 0-.185-.195-.25-.75-.25-.556 0-.75-.064-.75-.25 0-.185-.195-.25-.75-.25-.556 0-.75-.064-.75-.25 0-.194-.223-.25-1-.25-.778 0-1-.055-1-.25 0-.185-.195-.25-.75-.25-.556 0-.75-.064-.75-.25 0-.194-.223-.25-1-.25-.778 0-1-.055-1-.25 0-.185-.195-.25-.75-.25-.556 0-.75-.064-.75-.25 0-.185-.195-.25-.75-.25-.556 0-.75-.064-.75-.25 0-.185-.195-.25-.75-.25-.556 0-.75-.064-.75-.25 0-.166-.167-.25-.5-.25-.334 0-.5-.083-.5-.25 0-.185-.195-.25-.75-.25-.556 0-.75-.064-.75-.25 0-.166-.167-.25-.5-.25-.334 0-.5-.083-.5-.25 0-.166-.167-.25-.5-.25-.334 0-.5-.083-.5-.25 0-.137-.113-.25-.25-.25-.138 0-.25-.112-.25-.25 0-.166-.167-.25-.5-.25-.334 0-.5-.083-.5-.25 0-.137-.113-.25-.25-.25-.138 0-.25-.112-.25-.25 0-.166-.167-.25-.5-.25-.334 0-.5-.083-.5-.25 0-.137-.113-.25-.25-.25-.138 0-.25-.112-.25-.25 0-.137-.113-.25-.25-.25-.167 0-.25-.166-.25-.5 0-.333-.084-.5-.25-.5-.138 0-.25-.112-.25-.25 0-.137-.113-.25-.25-.25-.167 0-.25-.166-.25-.5 0-.333-.084-.5-.25-.5-.167 0-.25-.166-.25-.5 0-.333-.084-.5-.25-.5-.186 0-.25-.194-.25-.75 0-.555-.065-.75-.25-.75-.209 0-.25-.342-.25-2.083s.041-2.083.25-2.083c.194 0 .25-.223.25-1 0-.778.055-1 .25-1 .166 0 .25-.167.25-.5 0-.334.083-.5.25-.5.166 0 .25-.167.25-.5 0-.334.083-.5.25-.5.166 0 .25-.167.25-.5 0-.334.083-.5.25-.5.137 0 .25-.113.25-.25 0-.138.112-.25.25-.25.137 0 .25-.113.25-.25 0-.138.112-.25.25-.25.137 0 .25-.113.25-.25 0-.138.112-.25.25-.25.137 0 .25-.113.25-.25 0-.138.112-.25.25-.25.137 0 .25-.113.25-.25 0-.138.112-.25.25-.25.137 0 .25-.113.25-.25 0-.138.112-.25.25-.25.137 0 .25-.113.25-.25 0-.217.428-.346.887-.266.076.013.087-.058.025-.158-.064-.103.039-.222.238-.274.192-.05.35-.195.35-.322 0-.145.185-.23.5-.23.333 0 .5-.084.5-.25 0-.167.166-.25.5-.25.333 0 .5-.084.5-.25 0-.167.166-.25.5-.25.333 0 .5-.084.5-.25 0-.186.194-.25.75-.25.555 0 .75-.065.75-.25 0-.216 1.58-.396 2.375-.27.068.011.106-.074.083-.189-.032-.161.941-.218 4.333-.252 3.819-.039 4.375-.013 4.375.208 0 .203.244.253 1.25.253 1 0 1.25.05 1.25.25 0 .185.195.25.75.25.556 0 .75.064.75.25 0 .185.195.25.75.25.556 0 .75.064.75.25 0 .166.167.25.5.25.334 0 .5.083.5.25 0 .166.167.25.5.25.334 0 .5.083.5.25 0 .166.167.25.5.25.334 0 .5.083.5.25 0 .166.167.25.5.25.334 0 .5.083.5.25 0 .137.113.25.25.25.138 0 .25.112.25.25 0 .137.113.25.25.25.138 0 .25.112.25.25 0 .166.167.25.5.25.334 0 .5.083.5.25 0 .137.113.25.25.25.138 0 .25.112.25.25 0 .137.113.25.25.25.138 0 .25.112.25.25 0 .137.113.25.25.25.138 0 .25.112.25.25 0 .137.113.25.25.25.138 0 .25.112.25.25 0 .137.113.25.25.25.167 0 .25.166.25.5 0 .333.084.5.25.5.138 0 .25.112.25.25 0 .18.186.25.667.25.481 0 .667-.07.667-.25 0-.138.112-.25.25-.25.137 0 .25-.113.25-.25 0-.138.112-.25.25-.25.137 0 .25-.113.25-.25 0-.138.112-.25.25-.25.137 0 .25-.113.25-.25 0-.208.36-.328.843-.281.051.005.11-.286.131-.647.03-.496-.023-.656-.218-.656-.141 0-.256-.112-.256-.25 0-.137-.113-.25-.25-.25-.167 0-.25-.166-.25-.5 0-.333-.084-.5-.25-.5-.138 0-.25-.112-.25-.25 0-.137-.113-.25-.25-.25-.138 0-.25-.112-.25-.25 0-.137-.113-.25-.25-.25-.138 0-.25-.112-.25-.25 0-.166-.167-.25-.5-.25-.334 0-.5-.083-.5-.25 0-.137-.113-.25-.25-.25-.138 0-.25-.112-.25-.25 0-.137-.113-.25-.25-.25-.138 0-.25-.112-.25-.25 0-.137-.113-.25-.25-.25-.138 0-.25-.112-.25-.25 0-.166-.167-.25-.5-.25-.334 0-.5-.083-.5-.25 0-.166-.167-.25-.5-.25-.334 0-.5-.083-.5-.25 0-.137-.113-.25-.25-.25-.138 0-.25-.112-.25-.25 0-.166-.167-.25-.5-.25-.334 0-.5-.083-.5-.25 0-.166-.167-.25-.5-.25-.334 0-.5-.083-.5-.25 0-.185-.195-.25-.75-.25-.556 0-.75-.064-.75-.25 0-.185-.195-.25-.75-.25-.556 0-.75-.064-.75-.25 0-.185-.195-.25-.75-.25-.556 0-.75-.064-.75-.25 0-.2-.25-.25-1.25-.25s-1.25-.05-1.25-.25c0-.217-.769-.25-5.917-.25s-5.917.033-5.917.25m53.5 18.5c0 .209-.333.25-2 .25-1.666 0-2 .042-2 .25 0 .192-.213.25-.922.25-.665 0-.948.07-1.017.25-.063.164-.323.25-.75.25-.428 0-.688.087-.75.25-.055.143-.304.25-.578.25-.318 0-.483.086-.483.25 0 .167-.166.25-.5.25-.333 0-.5.084-.5.25 0 .167-.166.25-.5.25-.333 0-.5.084-.5.25 0 .217-.428.346-.887.266-.076-.013-.087.058-.025.158.064.103-.039.222-.238.274-.192.05-.35.195-.35.322 0 .196-.433.32-.875.25-.068-.011-.106.037-.083.105.054.163-.658.875-.875.875-.092 0-.167.113-.167.25 0 .138-.112.25-.25.25-.137 0-.25.113-.25.25 0 .138-.112.25-.25.25-.137 0-.25.113-.25.25 0 .138-.112.25-.25.25-.137 0-.25.113-.25.25 0 .138-.112.25-.25.25-.137 0-.25.113-.25.25 0 .138-.107.25-.237.25-.131 0-.273.132-.314.292-.042.16-.085-1.302-.096-3.25l-.019-3.542h-4.334v70.334h4.334l.019-13.292c.011-7.31.054-13.16.096-13 .041.16.183.292.314.292.13 0 .237.112.237.25 0 .137.113.25.25.25.138 0 .25.112.25.25 0 .137.113.25.25.25.138 0 .25.112.25.25 0 .137.113.25.25.25.138 0 .25.112.25.25 0 .137.113.25.25.25.138 0 .25.112.25.25 0 .137.113.25.25.25.138 0 .25.112.25.25 0 .137.113.25.25.25.138 0 .25.112.25.25 0 .137.113.25.25.25.138 0 .25.112.25.25 0 .166.167.25.5.25.334 0 .5.083.5.25 0 .137.113.25.25.25.138 0 .25.112.25.25 0 .166.167.25.5.25.334 0 .5.083.5.25 0 .166.167.25.5.25.334 0 .5.083.5.25 0 .166.167.25.5.25.334 0 .5.083.5.25 0 .166.167.25.5.25.334 0 .5.083.5.25 0 .185.195.25.75.25.556 0 .75.064.75.25 0 .194.223.25 1 .25.778 0 1 .055 1 .25 0 .216.63.25 4.667.25s4.667-.034 4.667-.25c0-.195.222-.25 1-.25.777 0 1-.056 1-.25 0-.186.194-.25.75-.25.555 0 .75-.065.75-.25 0-.22.785-.37 1.387-.266.076.013.093-.048.039-.135-.126-.204.099-.341.63-.385.231-.019.38-.099.332-.178-.049-.078.069-.183.262-.234.192-.05.35-.195.35-.322 0-.145.185-.23.5-.23.333 0 .5-.084.5-.25 0-.217.428-.346.887-.266.076.013.087-.058.025-.158-.064-.103.039-.222.238-.274.192-.05.35-.195.35-.322s.112-.23.25-.23c.137 0 .25-.113.25-.25 0-.138.112-.25.25-.25.137 0 .25-.113.25-.25 0-.138.112-.25.25-.25.137 0 .25-.113.25-.25 0-.138.112-.25.25-.25.137 0 .25-.113.25-.25 0-.138.112-.25.25-.25.137 0 .25-.113.25-.25 0-.138.112-.25.25-.25.137 0 .25-.113.25-.25 0-.138.103-.25.23-.25s.272-.158.322-.35c.052-.199.171-.302.274-.238.1.062.171.051.158-.025-.08-.459.049-.887.266-.887.137 0 .25-.113.25-.25 0-.138.112-.25.25-.25.166 0 .25-.167.25-.5 0-.334.083-.5.25-.5.166 0 .25-.167.25-.5 0-.334.083-.5.25-.5.166 0 .25-.167.25-.5 0-.334.083-.5.25-.5.166 0 .25-.167.25-.5 0-.334.083-.5.25-.5.185 0 .25-.195.25-.75 0-.556.064-.75.25-.75.185 0 .25-.195.25-.75 0-.556.064-.75.25-.75.194 0 .25-.223.25-1 0-.778.055-1 .25-1 .2 0 .25-.25.25-1.25s.05-1.25.25-1.25c.217 0 .25-.741.25-5.667s-.033-5.667-.25-5.667c-.204 0-.25-.277-.25-1.5 0-1.222-.047-1.5-.25-1.5-.195 0-.25-.222-.25-1 0-.777-.056-1-.25-1-.186 0-.25-.194-.25-.75 0-.555-.065-.75-.25-.75-.167 0-.25-.166-.25-.5 0-.333-.084-.5-.25-.5-.186 0-.25-.194-.25-.75 0-.555-.065-.75-.25-.75-.167 0-.25-.166-.25-.5 0-.333-.084-.5-.25-.5-.167 0-.25-.166-.25-.5 0-.333-.084-.5-.25-.5-.138 0-.25-.112-.25-.25 0-.137-.113-.25-.25-.25-.167 0-.25-.166-.25-.5 0-.333-.084-.5-.25-.5-.138 0-.25-.112-.25-.25 0-.137-.113-.25-.25-.25-.138 0-.25-.112-.25-.25 0-.137-.113-.25-.25-.25-.167 0-.25-.166-.25-.5 0-.333-.084-.5-.25-.5-.138 0-.25-.112-.25-.25 0-.137-.113-.25-.25-.25-.138 0-.25-.112-.25-.25 0-.137-.113-.25-.25-.25-.138 0-.25-.112-.25-.25 0-.137-.113-.25-.25-.25-.138 0-.25-.112-.25-.25 0-.166-.167-.25-.5-.25-.334 0-.5-.083-.5-.25 0-.137-.113-.25-.25-.25-.138 0-.25-.112-.25-.25 0-.137-.113-.25-.25-.25-.138 0-.25-.112-.25-.25 0-.166-.167-.25-.5-.25-.334 0-.5-.083-.5-.25 0-.166-.167-.25-.5-.25-.334 0-.5-.083-.5-.25 0-.166-.167-.25-.5-.25-.334 0-.5-.083-.5-.25 0-.166-.167-.25-.5-.25-.334 0-.5-.083-.5-.25 0-.185-.195-.25-.75-.25-.556 0-.75-.064-.75-.25 0-.194-.223-.25-1-.25-.778 0-1-.055-1-.25 0-.208-.334-.25-2-.25-1.667 0-2-.041-2-.25 0-.198-.241-.25-1.167-.25s-1.167.052-1.167.25m40.5 0c0 .199-.241.25-1.172.25-.888 0-1.195.061-1.267.25-.066.17-.331.25-.828.25-.54 0-.733.066-.733.25 0 .22-.785.37-1.387.266-.076-.013-.093.048-.039.135.126.204-.099.341-.63.385-.231.019-.386.089-.346.155.103.166-.158.304-.654.345-.231.019-.38.099-.332.178.049.078-.069.183-.262.234-.192.05-.35.195-.35.322 0 .199-.446.323-.887.246-.076-.013-.087.058-.025.158.064.103-.039.222-.238.274-.192.05-.35.195-.35.322s-.112.23-.25.23c-.137 0-.25.113-.25.25 0 .138-.112.25-.25.25-.137 0-.25.113-.25.25 0 .217-.428.346-.887.266-.076-.013-.095.044-.044.128.125.201-.31.555-.486.397-.075-.068-.087-.039-.028.065.131.23-.28.608-.472.435-.075-.068-.087-.039-.028.065.129.226-.281.613-.459.435-.068-.068-.108-.049-.09.043.094.466-.031.916-.256.916-.137 0-.25.113-.25.25 0 .138-.112.25-.25.25-.155 0-.25.158-.25.417s.095.417.25.417c.138 0 .25.112.25.25 0 .137.113.25.25.25.138 0 .25.112.25.25 0 .137.113.25.25.25.138 0 .25.112.25.25 0 .137.113.25.25.25.138 0 .25.116.25.258 0 .207.184.251.916.222.504-.021.88-.074.835-.118-.133-.134.274-.533.439-.431.084.051.141.032.128-.044-.08-.459.049-.887.266-.887.137 0 .25-.113.25-.25 0-.138.112-.25.25-.25.137 0 .25-.113.25-.25 0-.217.428-.346.887-.266.076.013.087-.058.025-.158-.064-.103.039-.222.238-.274.192-.05.35-.195.35-.322s.112-.23.25-.23c.137 0 .25-.113.25-.25 0-.138.112-.25.25-.25.137 0 .25-.113.25-.25 0-.167.166-.25.5-.25.333 0 .5-.084.5-.25 0-.138.112-.25.25-.25.137 0 .25-.113.25-.25 0-.167.166-.25.5-.25.333 0 .5-.084.5-.25 0-.167.166-.25.5-.25.333 0 .5-.084.5-.25 0-.186.194-.25.75-.25.555 0 .75-.065.75-.25 0-.217 1.156-.384 1.875-.27.068.011.106-.074.083-.189-.031-.155.475-.22 2-.255 1.663-.038 2.042-.092 2.042-.291 0-.135.15-.245.333-.245.185 0 .333.111.333.25 0 .206.306.25 1.75.25 1.445 0 1.75.043 1.75.25 0 .194.223.25 1 .25.778 0 1 .055 1 .25 0 .166.167.25.5.25.334 0 .5.083.5.25 0 .166.167.25.5.25.334 0 .5.083.5.25 0 .166.167.25.5.25.334 0 .5.083.5.25 0 .137.113.25.25.25.138 0 .25.112.25.25 0 .137.113.25.25.25.138 0 .25.112.25.25 0 .137.113.25.25.25.138 0 .25.112.25.25 0 .137.113.25.25.25.138 0 .25.112.25.25 0 .137.113.25.25.25.138 0 .25.112.25.25 0 .137.113.25.25.25.167 0 .25.166.25.5 0 .333.084.5.25.5.167 0 .25.166.25.5 0 .333.084.5.25.5.167 0 .25.166.25.5 0 .333.084.5.25.5.2 0 .25.25.25 1.25s.05 1.25.25 1.25c.218 0 .248.755.231 5.875-.011 3.231-.054 5.743-.096 5.583-.041-.16-.183-.292-.314-.292-.13 0-.237-.112-.237-.25 0-.137-.113-.25-.25-.25-.138 0-.25-.112-.25-.25 0-.166-.167-.25-.5-.25-.334 0-.5-.083-.5-.25 0-.137-.113-.25-.25-.25-.138 0-.25-.112-.25-.25 0-.137-.113-.25-.25-.25-.138 0-.25-.112-.25-.25 0-.166-.167-.25-.5-.25-.334 0-.5-.083-.5-.25 0-.166-.167-.25-.5-.25-.334 0-.5-.083-.5-.25 0-.137-.113-.25-.25-.25-.138 0-.25-.112-.25-.25 0-.185-.195-.25-.75-.25-.556 0-.75-.064-.75-.25 0-.166-.167-.25-.5-.25-.334 0-.5-.083-.5-.25 0-.185-.195-.25-.75-.25-.556 0-.75-.064-.75-.25 0-.2-.25-.25-1.25-.25s-1.25-.05-1.25-.25c0-.216-.63-.25-4.667-.25s-4.667.034-4.667.25c0 .195-.222.25-1 .25-.777 0-1 .056-1 .25 0 .181-.185.25-.672.25-.443 0-.704.085-.767.25-.055.143-.304.25-.578.25-.318 0-.483.086-.483.25 0 .167-.166.25-.5.25-.333 0-.5.084-.5.25 0 .157-.158.25-.422.25-.232 0-.465.113-.517.25-.053.138-.201.25-.328.25-.128 0-.233.113-.233.25 0 .217-.428.346-.887.266-.076-.013-.087.058-.025.158.064.103-.039.222-.238.274-.192.05-.35.195-.35.322s-.112.23-.25.23c-.137 0-.25.113-.25.25 0 .138-.112.25-.25.25-.137 0-.25.113-.25.25 0 .138-.103.25-.23.25s-.272.158-.322.35c-.052.199-.171.302-.274.238-.1-.062-.171-.051-.158.025.08.459-.049.887-.266.887-.137 0-.25.113-.25.25 0 .138-.112.25-.25.25-.166 0-.25.167-.25.5 0 .334-.083.5-.25.5-.166 0-.25.167-.25.5 0 .334-.083.5-.25.5-.166 0-.25.167-.25.5 0 .334-.083.5-.25.5-.184 0-.25.193-.25.733 0 .497-.08.762-.25.828-.195.075-.25.407-.25 1.517 0 1.153-.047 1.422-.25 1.422-.209 0-.25.352-.25 2.167s.041 2.167.25 2.167c.2 0 .25.25.25 1.25s.05 1.25.25 1.25c.195 0 .25.222.25 1 0 .777.056 1 .25 1 .167 0 .25.166.25.5 0 .333.084.5.25.5.167 0 .25.166.25.5 0 .333.084.5.25.5.138 0 .25.112.25.25 0 .137.113.25.25.25.167 0 .25.166.25.5 0 .333.084.5.25.5.138 0 .25.112.25.25 0 .137.113.25.25.25.138 0 .25.112.25.25 0 .137.113.25.25.25.138 0 .25.112.25.25 0 .137.113.25.25.25.138 0 .25.112.25.25 0 .137.113.25.25.25.138 0 .25.112.25.25 0 .137.113.25.25.25.138 0 .25.112.25.25 0 .137.113.25.25.25.138 0 .25.112.25.25 0 .137.113.25.25.25.138 0 .25.112.25.25 0 .166.167.25.5.25.334 0 .5.083.5.25 0 .166.167.25.5.25.334 0 .5.083.5.25 0 .166.167.25.5.25.334 0 .5.083.5.25 0 .166.167.25.5.25.334 0 .5.083.5.25 0 .185.195.25.75.25.556 0 .75.064.75.25 0 .2.25.25 1.25.25s1.25.05 1.25.25c0 .214.519.25 3.667.25 3.148 0 3.667-.036 3.667-.25 0-.215 2.022-.405 2.875-.27.068.011.106-.074.083-.189-.028-.138.226-.225.75-.259.556-.035.792-.122.792-.291 0-.175.207-.241.75-.241.555 0 .75-.065.75-.25 0-.167.166-.25.5-.25.333 0 .5-.084.5-.25 0-.167.166-.25.5-.25.333 0 .5-.084.5-.25 0-.167.166-.25.5-.25.333 0 .5-.084.5-.25 0-.217.428-.346.887-.266.076.013.087-.058.025-.158-.064-.103.039-.222.238-.274.192-.05.35-.195.35-.322s.112-.23.25-.23c.137 0 .25-.113.25-.25 0-.138.112-.25.25-.25.137 0 .25-.113.25-.25 0-.225.45-.35.916-.256.092.018.111-.022.043-.09-.173-.173.207-.591.419-.46.096.06.124.027.061-.074-.061-.099-.035-.228.058-.285.112-.069.169.747.169 2.405v2.51h3.834V73.25c0-18.037-.029-20.417-.25-20.417-.195 0-.25-.222-.25-1 0-.777-.056-1-.25-1-.167 0-.25-.166-.25-.5 0-.333-.084-.5-.25-.5-.167 0-.25-.166-.25-.5 0-.333-.084-.5-.25-.5-.167 0-.25-.166-.25-.5 0-.333-.084-.5-.25-.5-.138 0-.25-.112-.25-.25 0-.137-.113-.25-.25-.25-.138 0-.25-.112-.25-.25 0-.137-.113-.25-.25-.25-.167 0-.25-.166-.25-.5 0-.333-.084-.5-.25-.5-.138 0-.25-.112-.25-.25 0-.166-.167-.25-.5-.25-.334 0-.5-.083-.5-.25 0-.137-.113-.25-.25-.25-.138 0-.25-.112-.25-.25 0-.137-.113-.25-.25-.25-.138 0-.25-.112-.25-.25 0-.166-.167-.25-.5-.25-.334 0-.5-.083-.5-.25 0-.166-.167-.25-.5-.25-.334 0-.5-.083-.5-.25 0-.166-.167-.25-.5-.25-.334 0-.5-.083-.5-.25 0-.185-.195-.25-.75-.25-.556 0-.75-.064-.75-.25 0-.2-.25-.25-1.25-.25s-1.25-.05-1.25-.25c0-.216-.658-.25-4.917-.25-4.259 0-4.917.034-4.917.25m48.55-.016c.023.123-.637.198-2.008.23-1.663.038-2.042.092-2.042.291 0 .189-.231.245-1 .245-.777 0-1 .056-1 .25 0 .186-.194.25-.75.25-.555 0-.75.065-.75.25 0 .22-.785.37-1.387.266-.076-.013-.093.048-.039.135.126.204-.099.341-.63.385-.231.019-.38.099-.332.178.049.078-.069.183-.262.234-.192.05-.35.195-.35.322 0 .145-.185.23-.5.23-.333 0-.5.084-.5.25 0 .217-.428.346-.887.266-.076-.013-.087.058-.025.158.064.103-.039.222-.238.274-.192.05-.35.195-.35.322s-.112.23-.25.23c-.137 0-.25.113-.25.25 0 .138-.112.25-.25.25-.137 0-.25.113-.25.25 0 .138-.112.25-.25.25-.137 0-.25.113-.25.25 0 .215-.415.343-.875.27-.068-.011-.116.037-.105.105.073.46-.055.875-.27.875-.137 0-.25.113-.25.25 0 .138-.112.25-.25.25-.137 0-.25.113-.25.25 0 .138-.112.25-.25.25-.137 0-.25.113-.25.25 0 .138-.103.25-.23.25s-.272.158-.322.35c-.052.199-.171.302-.274.238-.1-.062-.171-.051-.158.025.077.441-.047.887-.246.887-.127 0-.272.158-.322.35-.051.193-.156.311-.234.262-.079-.048-.159.11-.179.353-.02.242-.149.503-.286.579-.137.077-.249.315-.249.53 0 .215-.112.434-.25.487-.137.052-.25.277-.25.5 0 .222-.107.445-.238.495-.131.05-.262.302-.291.559-.03.258-.133.455-.23.438-.097-.017-.195.282-.218.665-.023.397-.144.754-.282.831-.164.092-.241.424-.241 1.043 0 .696-.058.908-.25.908-.194 0-.25.223-.25 1 0 .768-.056 1-.244 1-.197 0-.254.35-.292 1.792-.033 1.253-.105 1.781-.241 1.755-.142-.027-.2.756-.215 2.875-.017 2.517.015 2.912.236 2.912.216 0 .256.311.256 2 0 1.666.042 2 .25 2 .195 0 .25.222.25 1 0 .777.056 1 .25 1 .186 0 .25.194.25.75 0 .555.065.75.25.75.186 0 .25.194.25.75 0 .555.065.75.25.75.186 0 .25.194.25.75 0 .555.065.75.25.75.167 0 .25.166.25.5 0 .333.084.5.25.5.167 0 .25.166.25.5 0 .333.084.5.25.5.138 0 .25.112.25.25 0 .137.113.25.25.25.167 0 .25.166.25.5 0 .333.084.5.25.5.138 0 .25.112.25.25 0 .137.113.25.25.25.167 0 .25.166.25.5 0 .333.084.5.25.5.138 0 .25.112.25.25 0 .137.113.25.25.25.138 0 .25.112.25.25 0 .137.113.25.25.25.138 0 .25.112.25.25 0 .137.113.25.25.25.138 0 .25.112.25.25 0 .137.113.25.25.25.138 0 .25.112.25.25 0 .137.113.25.25.25.138 0 .25.112.25.25 0 .137.113.25.25.25.138 0 .25.112.25.25 0 .137.113.25.25.25.138 0 .25.112.25.25 0 .137.113.25.25.25.138 0 .25.112.25.25 0 .166.167.25.5.25.334 0 .5.083.5.25 0 .137.113.25.25.25.138 0 .25.112.25.25 0 .166.167.25.5.25.334 0 .5.083.5.25 0 .166.167.25.5.25.334 0 .5.083.5.25 0 .166.167.25.5.25.334 0 .5.083.5.25 0 .185.195.25.75.25.556 0 .75.064.75.25 0 .185.195.25.75.25.556 0 .75.064.75.25 0 .194.223.25 1 .25.778 0 1 .055 1 .25 0 .216.658.25 4.917.25 4.259 0 4.917-.034 4.917-.25 0-.195.222-.25 1-.25.777 0 1-.056 1-.25 0-.186.194-.25.75-.25.555 0 .75-.065.75-.25 0-.22.785-.37 1.387-.266.076.013.093-.048.039-.135-.126-.204.099-.341.63-.385.231-.019.38-.099.332-.178-.049-.078.069-.183.262-.234.192-.05.35-.195.35-.322 0-.145.185-.23.5-.23.333 0 .5-.084.5-.25 0-.138.112-.25.25-.25.137 0 .25-.113.25-.25 0-.138.112-.25.25-.25.137 0 .25-.113.25-.25 0-.225.45-.35.916-.256.092.018.111-.022.043-.09-.178-.178.209-.588.435-.459.104.059.133.047.065-.028-.173-.192.205-.603.435-.472.104.059.133.047.065-.028-.173-.192.205-.603.435-.472.104.059.133.047.065-.028-.158-.176.196-.611.397-.486.084.051.141.032.128-.044-.08-.459.049-.887.266-.887.137 0 .25-.113.25-.25 0-.138.112-.25.25-.25.18 0 .25-.186.25-.667 0-.481-.07-.667-.25-.667-.138 0-.25-.112-.25-.25 0-.137-.113-.25-.25-.25-.138 0-.25-.112-.25-.25 0-.137-.113-.25-.25-.25-.138 0-.25-.112-.25-.25 0-.192-.213-.25-.917-.25-.704 0-.917.058-.917.25 0 .138-.112.25-.25.25-.137 0-.25.113-.25.25 0 .138-.103.25-.23.25s-.272.158-.322.35c-.061.232-.166.308-.311.224-.121-.07-.164-.066-.096.009.173.192-.205.603-.435.472-.104-.059-.133-.047-.065.028.173.192-.205.603-.435.472-.104-.059-.133-.047-.065.028.158.176-.196.611-.397.486-.084-.051-.131-.032-.106.044.057.172-.645.887-.871.887-.092 0-.167.113-.167.25 0 .138-.112.25-.25.25-.137 0-.25.113-.25.25 0 .167-.166.25-.5.25-.333 0-.5.084-.5.25 0 .157-.158.25-.422.25-.232 0-.465.113-.517.25-.055.143-.304.25-.578.25-.318 0-.483.086-.483.25 0 .186-.194.25-.75.25-.555 0-.75.065-.75.25 0 .199-.241.25-1.172.25-.888 0-1.195.061-1.267.25-.08.208-.535.25-2.662.25-2.169 0-2.565-.038-2.565-.25 0-.2-.25-.25-1.25-.25s-1.25-.05-1.25-.25c0-.185-.195-.25-.75-.25-.556 0-.75-.064-.75-.25 0-.166-.167-.25-.5-.25-.334 0-.5-.083-.5-.25 0-.166-.167-.25-.5-.25-.334 0-.5-.083-.5-.25 0-.166-.167-.25-.5-.25-.334 0-.5-.083-.5-.25 0-.166-.167-.25-.5-.25-.334 0-.5-.083-.5-.25 0-.137-.113-.25-.25-.25-.138 0-.25-.112-.25-.25 0-.166-.167-.25-.5-.25-.334 0-.5-.083-.5-.25 0-.137-.113-.25-.25-.25-.138 0-.25-.112-.25-.25 0-.137-.113-.25-.25-.25-.138 0-.25-.112-.25-.25 0-.137-.113-.25-.25-.25-.138 0-.25-.112-.25-.25 0-.137-.113-.25-.25-.25-.138 0-.25-.112-.25-.25 0-.137-.113-.25-.25-.25-.167 0-.25-.166-.25-.5 0-.333-.084-.5-.25-.5-.138 0-.25-.112-.25-.25 0-.137-.113-.25-.25-.25-.138 0-.25-.112-.25-.25 0-.137-.113-.25-.25-.25-.167 0-.25-.166-.25-.5 0-.333-.084-.5-.25-.5-.167 0-.25-.166-.25-.5 0-.333-.084-.5-.25-.5-.167 0-.25-.166-.25-.5 0-.333-.084-.5-.25-.5-.167 0-.25-.166-.25-.5 0-.333-.084-.5-.25-.5-.167 0-.25-.166-.25-.5 0-.333-.084-.5-.25-.5-.186 0-.25-.194-.25-.75 0-.555-.065-.75-.25-.75-.195 0-.25-.222-.25-1 0-.777-.056-1-.25-1-.204 0-.25-.277-.25-1.5 0-1.222-.047-1.5-.25-1.5-.214 0-.25-.481-.25-3.333 0-2.852.036-3.333.25-3.333.203 0 .25-.278.25-1.5 0-1.223.046-1.5.25-1.5.194 0 .25-.223.25-1 0-.778.055-1 .25-1 .185 0 .25-.195.25-.75 0-.541.066-.75.239-.75.148 0 .259-.206.292-.542.031-.324.136-.525.26-.5.115.023.2-.015.189-.083-.092-.581.053-1.375.25-1.375.127 0 .272-.158.322-.35.052-.199.171-.302.274-.238.1.062.171.051.158-.025-.08-.459.049-.887.266-.887.166 0 .25-.167.25-.5 0-.334.083-.5.25-.5.137 0 .25-.113.25-.25 0-.138.112-.25.25-.25.166 0 .25-.167.25-.5 0-.334.083-.5.25-.5.137 0 .25-.113.25-.25 0-.138.112-.25.25-.25.137 0 .25-.113.25-.25 0-.138.112-.25.25-.25.137 0 .25-.113.25-.25 0-.138.112-.25.25-.25.137 0 .25-.113.25-.25 0-.138.112-.25.25-.25.137 0 .25-.113.25-.25 0-.138.112-.25.25-.25.137 0 .25-.113.25-.25 0-.167.166-.25.5-.25.333 0 .5-.084.5-.25 0-.138.112-.25.25-.25.137 0 .25-.113.25-.25 0-.167.166-.25.5-.25.333 0 .5-.084.5-.25 0-.217.428-.346.887-.266.076.013.093-.048.039-.135-.126-.204.099-.341.63-.385.231-.019.407-.113.39-.208-.016-.095.214-.197.512-.225.336-.033.542-.144.542-.292 0-.206 1.179-.369 1.875-.259.068.011.106-.074.083-.189-.03-.149.326-.222 1.25-.257.998-.037 1.292-.104 1.292-.291 0-.2.369-.243 2.083-.243 1.741 0 2.083.041 2.083.25 0 .203.278.25 1.5.25 1.223 0 1.5.046 1.5.25 0 .185.195.25.75.25.556 0 .75.064.75.25 0 .166.167.25.5.25.334 0 .5.083.5.25 0 .166.167.25.5.25.334 0 .5.083.5.25 0 .137.113.25.25.25.138 0 .25.112.25.25 0 .166.167.25.5.25.334 0 .5.083.5.25 0 .137.113.25.25.25.138 0 .25.112.25.25 0 .137.113.25.25.25.138 0 .25.112.25.25 0 .166.167.25.5.25.334 0 .5.083.5.25 0 .137.113.25.25.25.167 0 .25.166.25.5 0 .333.084.5.25.5.138 0 .25.112.25.25 0 .137.113.25.25.25.138 0 .25.112.25.25 0 .137.113.25.25.25.138 0 .25.112.25.25 0 .18.186.25.667.25.481 0 .667-.07.667-.25 0-.225.45-.35.916-.256.092.018.111-.022.043-.09-.173-.173.207-.591.419-.46.104.064.123.026.047-.096-.08-.13.002-.237.225-.296.447-.117.541-1.886.1-1.886-.138 0-.25-.112-.25-.25 0-.137-.113-.25-.25-.25-.138 0-.25-.112-.25-.25 0-.137-.113-.25-.25-.25-.138 0-.25-.112-.25-.25 0-.137-.113-.25-.25-.25-.138 0-.25-.112-.25-.25 0-.137-.113-.25-.25-.25-.138 0-.25-.112-.25-.25 0-.137-.113-.25-.25-.25-.138 0-.25-.112-.25-.25 0-.137-.113-.25-.25-.25-.138 0-.25-.112-.25-.25 0-.166-.167-.25-.5-.25-.334 0-.5-.083-.5-.25 0-.137-.113-.25-.25-.25-.138 0-.25-.112-.25-.25 0-.137-.113-.25-.25-.25-.138 0-.25-.112-.25-.25 0-.166-.167-.25-.5-.25-.334 0-.5-.083-.5-.25 0-.166-.167-.25-.5-.25-.334 0-.5-.083-.5-.25 0-.166-.167-.25-.5-.25-.334 0-.5-.083-.5-.25 0-.185-.195-.25-.75-.25-.556 0-.75-.064-.75-.25 0-.194-.223-.25-1-.25-.778 0-1-.055-1-.25 0-.21-.361-.25-2.25-.25-1.923 0-2.25-.037-2.25-.258 0-.213-.208-.253-1.159-.225-.735.021-1.146.1-1.125.217m40.011.016c-.078.203-.47.25-2.078.25-1.651 0-1.983.042-1.983.25 0 .192-.212.25-.908.25-.619 0-.951.077-1.043.241-.077.138-.434.259-.831.282-.383.023-.682.121-.665.218.017.097-.213.2-.511.228-.336.033-.542.144-.542.292 0 .155-.176.239-.5.239-.333 0-.5.084-.5.25 0 .157-.158.25-.422.25-.232 0-.465.113-.517.25-.053.138-.201.25-.328.25-.128 0-.233.113-.233.25 0 .167-.166.25-.5.25-.333 0-.5.084-.5.25 0 .138-.112.25-.25.25-.137 0-.25.113-.25.25 0 .217-.428.346-.887.266-.076-.013-.087.058-.025.158.064.103-.039.222-.238.274-.192.05-.35.195-.35.322s-.112.23-.25.23c-.137 0-.25.113-.25.25 0 .138-.112.25-.25.25-.137 0-.25.113-.25.25 0 .138-.112.25-.25.25-.137 0-.25.113-.25.25 0 .138-.112.25-.25.25-.137 0-.25.075-.25.167 0 .217-.712.929-.875.875-.068-.023-.116.015-.105.083.073.46-.055.875-.27.875-.137 0-.25.113-.25.25 0 .138-.112.25-.25.25-.166 0-.25.167-.25.5 0 .334-.083.5-.25.5-.137 0-.25.105-.25.233 0 .127-.112.275-.25.328-.137.052-.25.285-.25.517 0 .264-.093.422-.25.422-.166 0-.25.167-.25.5 0 .334-.083.5-.25.5-.166 0-.25.167-.25.5 0 .334-.083.5-.25.5-.164 0-.25.165-.25.483 0 .274-.107.523-.25.578-.165.063-.25.324-.25.767 0 .487-.069.672-.25.672-.184 0-.25.193-.25.733 0 .485-.081.763-.241.824-.164.063-.258.405-.292 1.06-.031.609-.12.954-.24.931-.131-.024-.198.56-.216 1.915-.021 1.509-.082 1.981-.269 2.085-.365.205-.357 5.286.008 5.286.209 0 .25.333.25 2 0 1.666.042 2 .25 2 .195 0 .25.222.25 1 0 .777.056 1 .25 1 .186 0 .25.194.25.75 0 .555.065.75.25.75.186 0 .25.194.25.75 0 .555.065.75.25.75.167 0 .25.166.25.5 0 .333.084.5.25.5.167 0 .25.166.25.5 0 .333.084.5.25.5.167 0 .25.166.25.5 0 .333.084.5.25.5.167 0 .25.166.25.5 0 .333.084.5.25.5.167 0 .25.166.25.5 0 .333.084.5.25.5.138 0 .25.112.25.25 0 .137.113.25.25.25.138 0 .25.112.25.25 0 .137.113.25.25.25.167 0 .25.166.25.5 0 .333.084.5.25.5.138 0 .25.112.25.25 0 .137.113.25.25.25.138 0 .25.112.25.25 0 .137.113.25.25.25.138 0 .25.112.25.25 0 .137.113.25.25.25.138 0 .25.112.25.25 0 .137.113.25.25.25.138 0 .25.112.25.25 0 .137.113.25.25.25.138 0 .25.112.25.25 0 .166.167.25.5.25.334 0 .5.083.5.25 0 .137.113.25.25.25.138 0 .25.112.25.25 0 .137.113.25.25.25.138 0 .25.112.25.25 0 .166.167.25.5.25.334 0 .5.083.5.25 0 .166.167.25.5.25.334 0 .5.083.5.25 0 .166.167.25.5.25.334 0 .5.083.5.25 0 .166.167.25.5.25.334 0 .5.083.5.25 0 .185.195.25.75.25.556 0 .75.064.75.25 0 .185.195.25.75.25.556 0 .75.064.75.25 0 .2.25.25 1.25.25 1.009 0 1.25.049 1.25.254 0 .222.642.252 5.164.241 3.912-.01 5.154-.062 5.125-.213-.026-.133.305-.215 1.003-.249.777-.037 1.042-.111 1.042-.291 0-.209 1.173-.373 1.875-.262.068.011.106-.074.083-.189-.025-.124.176-.229.5-.26.336-.033.542-.144.542-.292 0-.209.803-.356 1.387-.255.076.013.087-.058.025-.158-.064-.103.039-.222.238-.274.192-.05.35-.195.35-.322 0-.145.185-.23.5-.23.333 0 .5-.084.5-.25 0-.167.166-.25.5-.25.333 0 .5-.084.5-.25 0-.138.112-.25.25-.25.137 0 .25-.113.25-.25 0-.217.428-.346.887-.266.076.013.087-.058.025-.158-.064-.103.039-.222.238-.274.192-.05.35-.195.35-.322s.112-.23.25-.23c.137 0 .25-.113.25-.25 0-.138.112-.25.25-.25.137 0 .25-.113.25-.25 0-.225.45-.35.916-.256.092.018.111-.022.043-.09-.178-.178.209-.588.435-.459.104.059.133.047.065-.028-.173-.192.205-.603.435-.472.104.059.133.047.065-.028-.141-.157.185-.617.361-.509.064.04.133-.224.154-.585.03-.497-.023-.657-.218-.657-.141 0-.256-.112-.256-.25 0-.137-.113-.25-.25-.25-.138 0-.25-.112-.25-.25 0-.137-.113-.25-.25-.25-.138 0-.25-.112-.25-.25 0-.192-.213-.25-.917-.25-.704 0-.917.058-.917.25 0 .138-.112.25-.25.25-.137 0-.25.113-.25.25 0 .138-.112.25-.25.25-.137 0-.25.113-.25.25 0 .138-.112.25-.25.25-.137 0-.25.113-.25.25 0 .215-.415.343-.875.27-.068-.011-.106.037-.083.105.054.163-.658.875-.875.875-.092 0-.167.113-.167.25 0 .217-.428.346-.887.266-.076-.013-.087.058-.025.158.064.103-.039.222-.238.274-.192.05-.35.195-.35.322 0 .135-.173.23-.422.23-.232 0-.465.113-.517.25-.053.138-.278.25-.5.25-.223 0-.448.113-.5.25-.055.143-.304.25-.578.25-.318 0-.483.086-.483.25 0 .181-.185.25-.672.25-.443 0-.704.085-.767.25-.066.17-.331.25-.828.25-.54 0-.733.066-.733.25 0 .203-.269.25-1.422.25-1.11 0-1.442.055-1.517.25-.08.208-.535.25-2.662.25-2.169 0-2.565-.038-2.565-.25 0-.2-.25-.25-1.25-.25s-1.25-.05-1.25-.25c0-.194-.223-.25-1-.25-.778 0-1-.055-1-.25 0-.166-.167-.25-.5-.25-.334 0-.5-.083-.5-.25 0-.166-.167-.25-.5-.25-.334 0-.5-.083-.5-.25 0-.166-.167-.25-.5-.25-.334 0-.5-.083-.5-.25 0-.166-.167-.25-.5-.25-.334 0-.5-.083-.5-.25 0-.137-.113-.25-.25-.25-.138 0-.25-.112-.25-.25 0-.166-.167-.25-.5-.25-.334 0-.5-.083-.5-.25 0-.137-.113-.25-.25-.25-.138 0-.25-.112-.25-.25 0-.137-.113-.25-.25-.25-.138 0-.25-.112-.25-.25 0-.137-.113-.25-.25-.25-.138 0-.25-.112-.25-.25 0-.137-.113-.25-.25-.25-.138 0-.25-.112-.25-.25 0-.137-.113-.25-.25-.25-.138 0-.25-.112-.25-.25 0-.137-.113-.25-.25-.25-.138 0-.25-.112-.25-.25 0-.137-.113-.25-.25-.25-.167 0-.25-.166-.25-.5 0-.333-.084-.5-.25-.5-.138 0-.25-.112-.25-.25 0-.137-.113-.25-.25-.25-.167 0-.25-.166-.25-.5 0-.333-.084-.5-.25-.5-.138 0-.25-.112-.25-.25 0-.137-.113-.25-.25-.25-.167 0-.25-.166-.25-.5 0-.333-.084-.5-.25-.5-.167 0-.25-.166-.25-.5 0-.333-.084-.5-.25-.5-.186 0-.25-.194-.25-.75 0-.555-.065-.75-.25-.75-.186 0-.25-.194-.25-.75 0-.555-.065-.75-.25-.75-.195 0-.25-.222-.25-1 0-.777-.056-1-.25-1-.204 0-.25-.277-.25-1.5 0-1.222-.047-1.5-.25-1.5-.175 0-.25-.176-.25-.583v-.583H400V65c0-3.333-.059-5.167-.167-5.167-.091 0-.166-.337-.166-.75 0-.555-.065-.75-.25-.75-.186 0-.25-.194-.25-.75 0-.555-.065-.75-.25-.75-.186 0-.25-.194-.25-.75 0-.555-.065-.75-.25-.75-.167 0-.25-.166-.25-.5 0-.333-.084-.5-.25-.5-.167 0-.25-.166-.25-.5 0-.333-.084-.5-.25-.5-.167 0-.25-.166-.25-.5 0-.333-.084-.5-.25-.5-.138 0-.25-.112-.25-.25 0-.137-.113-.25-.25-.25-.167 0-.25-.166-.25-.5 0-.333-.084-.5-.25-.5-.138 0-.25-.112-.25-.25 0-.137-.113-.25-.25-.25-.167 0-.25-.166-.25-.5 0-.333-.084-.5-.25-.5-.138 0-.25-.112-.25-.25 0-.137-.113-.25-.25-.25-.138 0-.25-.112-.25-.25 0-.137-.113-.25-.25-.25-.138 0-.25-.112-.25-.25 0-.137-.113-.25-.25-.25-.138 0-.25-.112-.25-.25 0-.137-.113-.25-.25-.25-.138 0-.25-.112-.25-.25 0-.137-.113-.25-.25-.25-.138 0-.25-.112-.25-.25 0-.137-.113-.25-.25-.25-.138 0-.25-.112-.25-.25 0-.166-.167-.25-.5-.25-.334 0-.5-.083-.5-.25 0-.137-.113-.25-.25-.25-.138 0-.25-.112-.25-.25 0-.166-.167-.25-.5-.25-.334 0-.5-.083-.5-.25 0-.166-.167-.25-.5-.25-.334 0-.5-.083-.5-.25 0-.166-.167-.25-.5-.25-.334 0-.5-.083-.5-.25 0-.166-.167-.25-.5-.25-.334 0-.5-.083-.5-.25 0-.185-.195-.25-.75-.25-.556 0-.75-.064-.75-.25 0-.194-.223-.25-1-.25-.778 0-1-.055-1-.25 0-.21-.361-.25-2.25-.25s-2.25-.04-2.25-.25c0-.196-.232-.25-1.089-.25-.814 0-1.113.063-1.184.25m-126.061 3.834c0 .2.25.25 1.25.25s1.25.05 1.25.25c0 .185.195.25.75.25.556 0 .75.064.75.25 0 .185.195.25.75.25.556 0 .75.064.75.25 0 .166.167.25.5.25.334 0 .5.083.5.25 0 .137.113.25.25.25.138 0 .25.112.25.25 0 .166.167.25.5.25.334 0 .5.083.5.25 0 .137.113.25.25.25.138 0 .25.112.25.25 0 .137.113.25.25.25.138 0 .25.112.25.25 0 .137.113.25.25.25.138 0 .25.112.25.25 0 .137.113.25.25.25.138 0 .25.112.25.25 0 .137.113.25.25.25.138 0 .25.112.25.25 0 .137.113.25.25.25.138 0 .25.112.25.25 0 .137.113.25.25.25.138 0 .25.112.25.25 0 .137.113.25.25.25.167 0 .25.166.25.5 0 .333.084.5.25.5.138 0 .25.112.25.25 0 .137.113.25.25.25.167 0 .25.166.25.5 0 .333.084.5.25.5.167 0 .25.166.25.5 0 .333.084.5.25.5.167 0 .25.166.25.5 0 .333.084.5.25.5.167 0 .25.166.25.5 0 .333.084.5.25.5.186 0 .25.194.25.75 0 .555.065.75.25.75.195 0 .25.222.25 1 0 .777.056 1 .25 1 .204 0 .25.277.25 1.5 0 1.222.047 1.5.25 1.5.216 0 .25.563.25 4.065 0 3.46-.037 4.08-.25 4.162-.195.075-.25.407-.25 1.517 0 1.153-.047 1.422-.25 1.422-.194 0-.25.223-.25 1 0 .778-.055 1-.25 1-.185 0-.25.195-.25.75 0 .556-.064.75-.25.75-.185 0-.25.195-.25.75 0 .556-.064.75-.25.75-.166 0-.25.167-.25.5 0 .334-.083.5-.25.5-.166 0-.25.167-.25.5 0 .315-.085.5-.23.5-.127 0-.272.158-.322.35-.052.199-.171.302-.274.238-.1-.062-.171-.051-.158.025.077.441-.047.887-.246.887-.127 0-.272.158-.322.35-.052.199-.171.302-.274.238-.1-.062-.171-.051-.158.025.08.459-.049.887-.266.887-.137 0-.25.113-.25.25 0 .138-.112.25-.25.25-.137 0-.25.113-.25.25 0 .138-.112.25-.25.25-.137 0-.25.113-.25.25 0 .138-.112.25-.25.25-.137 0-.25.113-.25.25 0 .138-.112.25-.25.25-.137 0-.25.113-.25.25 0 .138-.112.25-.25.25-.137 0-.25.113-.25.25 0 .157-.158.25-.422.25-.232 0-.465.113-.517.25-.053.138-.201.25-.328.25-.128 0-.233.113-.233.25 0 .167-.166.25-.5.25-.333 0-.5.084-.5.25 0 .167-.166.25-.5.25-.333 0-.5.084-.5.25 0 .218-.761.367-1.375.27-.068-.011-.106.074-.083.189.028.138-.226.225-.75.259-.556.035-.792.122-.792.291 0 .195-.335.241-1.75.241-1.444 0-1.75.044-1.75.25 0 .175-.176.25-.583.25s-.583-.075-.583-.25c0-.206-.306-.25-1.75-.25-1.445 0-1.75-.043-1.75-.25 0-.194-.223-.25-1-.25-.778 0-1-.055-1-.25 0-.185-.195-.25-.75-.25-.556 0-.75-.064-.75-.25 0-.166-.167-.25-.5-.25-.334 0-.5-.083-.5-.25 0-.166-.167-.25-.5-.25-.334 0-.5-.083-.5-.25 0-.166-.167-.25-.5-.25-.334 0-.5-.083-.5-.25 0-.137-.113-.25-.25-.25-.138 0-.25-.112-.25-.25 0-.166-.167-.25-.5-.25-.334 0-.5-.083-.5-.25 0-.137-.113-.25-.25-.25-.138 0-.25-.112-.25-.25 0-.137-.113-.25-.25-.25-.138 0-.25-.112-.25-.25 0-.166-.167-.25-.5-.25-.334 0-.5-.083-.5-.25 0-.137-.113-.25-.25-.25-.138 0-.25-.112-.25-.25 0-.137-.113-.25-.25-.25-.138 0-.25-.112-.25-.25 0-.137-.113-.25-.25-.25-.138 0-.25-.112-.25-.25 0-.137-.113-.25-.25-.25-.138 0-.25-.112-.25-.25 0-.137-.113-.25-.25-.25-.167 0-.25-.166-.25-.5 0-.333-.084-.5-.25-.5-.138 0-.25-.112-.25-.25 0-.137-.113-.25-.25-.25-.167 0-.25-.166-.25-.5 0-.333-.084-.5-.25-.5-.22 0-.25-1.564-.25-13.083s.03-13.083.25-13.083c.166 0 .25-.167.25-.5 0-.334.083-.5.25-.5.137 0 .25-.113.25-.25 0-.138.112-.25.25-.25.137 0 .25-.113.25-.25 0-.138.103-.25.23-.25s.272-.158.322-.35c.059-.223.166-.305.296-.225.122.076.16.057.096-.047-.134-.216.286-.588.473-.419.075.068.087.039.028-.065-.131-.23.28-.608.472-.435.075.068.087.039.028-.065-.131-.23.28-.608.472-.435.075.068.079.025.009-.096-.084-.145-.008-.25.224-.311.192-.05.35-.195.35-.322s.112-.23.25-.23c.137 0 .25-.113.25-.25 0-.138.112-.25.25-.25.137 0 .25-.113.25-.25 0-.167.166-.25.5-.25.333 0 .5-.084.5-.25 0-.217.428-.346.887-.266.076.013.087-.058.025-.158-.064-.103.039-.222.238-.274.192-.05.35-.195.35-.322 0-.145.185-.23.5-.23.333 0 .5-.084.5-.25 0-.218.761-.367 1.375-.27.068.011.106-.074.083-.189-.025-.124.176-.229.5-.26.336-.033.542-.144.542-.292 0-.206 1.179-.369 1.875-.259.068.011.106-.074.083-.189-.03-.149.326-.222 1.25-.257.998-.037 1.292-.104 1.292-.291 0-.2.369-.243 2.083-.243 1.741 0 2.083.041 2.083.25m129 0c0 .203.278.25 1.5.25 1.223 0 1.5.046 1.5.25 0 .185.195.25.75.25.556 0 .75.064.75.25 0 .166.167.25.5.25.334 0 .5.083.5.25 0 .166.167.25.5.25.334 0 .5.083.5.25 0 .166.167.25.5.25.334 0 .5.083.5.25 0 .166.167.25.5.25.334 0 .5.083.5.25 0 .137.113.25.25.25.138 0 .25.112.25.25 0 .166.167.25.5.25.334 0 .5.083.5.25 0 .137.113.25.25.25.138 0 .25.112.25.25 0 .137.113.25.25.25.138 0 .25.112.25.25 0 .137.113.25.25.25.138 0 .25.112.25.25 0 .137.113.25.25.25.138 0 .25.112.25.25 0 .137.113.25.25.25.167 0 .25.166.25.5 0 .333.084.5.25.5.138 0 .25.112.25.25 0 .137.113.25.25.25.138 0 .25.112.25.25 0 .137.113.25.25.25.167 0 .25.166.25.5 0 .333.084.5.25.5.167 0 .25.166.25.5 0 .333.084.5.25.5.138 0 .25.112.25.25 0 .137.113.25.25.25.186 0 .25.194.25.75 0 .555.065.75.25.75.167 0 .25.166.25.5 0 .333.084.5.25.5.186 0 .25.194.25.75 0 .555.065.75.25.75.195 0 .25.222.25 1 0 .777.056 1 .25 1 .207 0 .25.305.25 1.75 0 1.444.044 1.75.25 1.75.139 0 .25.148.25.333 0 .331-.111.333-19.583.333h-19.583V64.5c0-1.519.043-1.833.25-1.833.194 0 .25-.223.25-1 0-.778.055-1 .25-1 .185 0 .25-.195.25-.75 0-.556.064-.75.25-.75.185 0 .25-.195.25-.75 0-.556.064-.75.25-.75.166 0 .25-.167.25-.5 0-.334.083-.5.25-.5.166 0 .25-.167.25-.5 0-.334.083-.5.25-.5.166 0 .25-.167.25-.5 0-.315.085-.5.23-.5.127 0 .272-.158.322-.35.052-.199.171-.302.274-.238.1.062.171.051.158-.025-.08-.459.049-.887.266-.887.137 0 .25-.113.25-.25 0-.138.103-.25.23-.25s.272-.158.322-.35c.059-.223.166-.305.296-.225.122.076.16.057.096-.047-.131-.212.287-.592.46-.419.068.068.108.049.09-.043-.094-.466.031-.916.256-.916.137 0 .25-.113.25-.25 0-.225.45-.35.916-.256.092.018.111-.022.043-.09-.173-.173.207-.591.419-.46.104.064.123.026.047-.096-.08-.13.002-.237.225-.296.192-.05.35-.195.35-.322s.112-.23.25-.23c.137 0 .25-.113.25-.25 0-.167.166-.25.5-.25.333 0 .5-.084.5-.25 0-.217.428-.346.887-.266.076.013.093-.048.039-.135-.126-.204.099-.341.63-.385.231-.019.407-.113.39-.208-.016-.095.214-.197.512-.225.336-.033.542-.144.542-.292 0-.173.209-.239.75-.239.555 0 .75-.065.75-.25 0-.2.25-.25 1.25-.25s1.25-.05 1.25-.25c0-.209.342-.25 2.083-.25s2.083.041 2.083.25M59.167 63.075c0 .133-.094.302-.209.375-.869.556-.949 2.217-.107 2.217.318 0 .482.085.482.25 0 .166.167.25.5.25.334 0 .5.083.5.25 0 .137.113.25.25.25.138 0 .25.112.25.25 0 .166.167.25.5.25.334 0 .5.083.5.25 0 .166.167.25.5.25.334 0 .5.083.5.25 0 .166.167.25.5.25.334 0 .5.083.5.25 0 .137.113.25.25.25.138 0 .25.112.25.25 0 .166.167.25.5.25.334 0 .5.083.5.25 0 .166.167.25.5.25.334 0 .5.083.5.25 0 .137.113.25.25.25.138 0 .25.142.25.315 0 .174-.112.359-.25.412-.203.078-.25.481-.25 2.184 0 1.745.041 2.089.25 2.089.186 0 .25.194.25.75 0 .555.065.75.25.75.167 0 .25.166.25.5 0 .333.084.5.25.5.138 0 .25.112.25.25 0 .137.113.25.25.25.138 0 .25.112.25.25 0 .137.113.25.25.25.138 0 .25.112.25.25 0 .137.113.25.25.25.138 0 .25.112.25.25 0 .137.113.25.25.25.138 0 .25.112.25.25 0 .166.167.25.5.25.334 0 .5.083.5.25 0 .185.195.25.75.25.556 0 .75.064.75.25 0 .21.38.25 2.417.25s2.417-.04 2.417-.25c0-.22.785-.37 1.387-.266.076.013.087-.058.025-.158-.064-.103.039-.222.238-.274.192-.05.35-.195.35-.322 0-.145.185-.23.5-.23.333 0 .5-.084.5-.25 0-.138.112-.25.25-.25.137 0 .25-.113.25-.25 0-.175.176-.25.583-.25s.583.075.583.25c0 .166.167.25.5.25.334 0 .5.083.5.25 0 .166.167.25.5.25.334 0 .5.083.5.25 0 .137.113.25.25.25.138 0 .25.112.25.25 0 .166.167.25.5.25.334 0 .5.083.5.25 0 .166.167.25.5.25.334 0 .5.083.5.25 0 .137.113.25.25.25.138 0 .25.112.25.25 0 .166.167.25.5.25.334 0 .5.083.5.25 0 .166.167.25.5.25.334 0 .5.083.5.25 0 .137.113.25.25.25.212 0 .25.398.25 2.583v2.583h-.5c-.333 0-.5.084-.5.25 0 .155-.156.25-.408.25-.225 0-.471.112-.548.249-.076.137-.337.266-.579.286-.243.02-.401.1-.353.179.049.078-.069.183-.262.234-.192.05-.35.195-.35.322 0 .145-.185.23-.5.23-.333 0-.5.084-.5.25 0 .217-.428.346-.887.266-.076-.013-.087.058-.025.158.064.103-.039.222-.238.274-.192.05-.35.195-.35.322 0 .145-.185.23-.5.23-.333 0-.5.084-.5.25 0 .167-.166.25-.5.25-.333 0-.5.084-.5.25 0 .139-.148.25-.333.25-.185 0-.333-.111-.333-.25 0-.137-.113-.25-.25-.25-.138 0-.25-.112-.25-.25 0-.137-.113-.25-.25-.25-.138 0-.25-.112-.25-.25 0-.166-.167-.25-.5-.25-.334 0-.5-.083-.5-.25 0-.166-.167-.25-.5-.25-.334 0-.5-.083-.5-.25 0-.212-.436-.25-2.917-.25s-2.917.038-2.917.25c0 .167-.166.25-.5.25-.333 0-.5.084-.5.25 0 .167-.166.25-.5.25-.333 0-.5.084-.5.25 0 .138-.112.25-.25.25-.137 0-.25.113-.25.25 0 .138-.112.25-.25.25-.137 0-.25.113-.25.25 0 .138-.112.25-.25.25-.137 0-.25.113-.25.25 0 .138-.112.25-.25.25-.137 0-.25.105-.25.233 0 .127-.112.275-.25.328-.137.052-.25.277-.25.5 0 .222-.112.447-.25.5-.163.062-.25.322-.25.75 0 .427-.086.687-.25.75-.203.078-.25.481-.25 2.184 0 1.745.041 2.089.25 2.089.139 0 .25.148.25.333 0 .259-.111.333-.5.333-.333 0-.5.084-.5.25 0 .155-.156.25-.408.25-.225 0-.471.112-.548.249-.076.137-.337.266-.579.286-.243.02-.401.1-.353.179.049.078-.069.183-.262.234-.192.05-.35.195-.35.322 0 .145-.185.23-.5.23-.333 0-.5.084-.5.25 0 .155-.156.25-.408.25-.225 0-.471.112-.548.249-.076.137-.337.266-.579.286-.243.02-.401.1-.353.179.049.078-.069.183-.262.234-.192.05-.35.195-.35.322 0 .145-.185.23-.5.23-.333 0-.5.084-.5.25 0 .175-.176.25-.583.25s-.583-.075-.583-.25c0-.137-.113-.25-.25-.25-.138 0-.25-.112-.25-.25 0-.137-.113-.25-.25-.25-.138 0-.25-.112-.25-.25 0-.166-.167-.25-.5-.25-.334 0-.5-.083-.5-.25 0-.166-.167-.25-.5-.25-.334 0-.5-.083-.5-.25 0-.194-.223-.25-1-.25-.778 0-1-.055-1-.25 0-.198-.241-.25-1.167-.25s-1.167.052-1.167.25c0 .195-.222.25-1 .25-.777 0-1 .056-1 .25 0 .167-.166.25-.5.25-.333 0-.5.084-.5.25 0 .167-.166.25-.5.25-.333 0-.5.084-.5.25 0 .138-.112.25-.25.25-.137 0-.25.113-.25.25 0 .138-.112.25-.25.25-.137 0-.25.113-.25.25 0 .139-.148.25-.333.25-.185 0-.333-.111-.333-.25 0-.166-.167-.25-.5-.25-.334 0-.5-.083-.5-.25 0-.166-.167-.25-.5-.25-.334 0-.5-.083-.5-.25 0-.137-.113-.25-.25-.25-.138 0-.25-.112-.25-.25 0-.166-.167-.25-.5-.25-.334 0-.5-.083-.5-.25 0-.166-.167-.25-.5-.25-.334 0-.5-.083-.5-.25 0-.137-.113-.25-.25-.25-.138 0-.25-.112-.25-.25 0-.166-.167-.25-.5-.25-.334 0-.5-.083-.5-.25 0-.166-.167-.25-.5-.25-.389 0-.5-.074-.5-.333 0-.185.111-.333.25-.333.211 0 .25-.408.25-2.667s-.039-2.667-.25-2.667c-.186 0-.25-.194-.25-.75 0-.555-.065-.75-.25-.75-.138 0-.25-.112-.25-.25 0-.137-.113-.25-.25-.25-.167 0-.25-.166-.25-.5 0-.333-.084-.5-.25-.5-.138 0-.25-.112-.25-.25 0-.137-.113-.25-.25-.25-.138 0-.25-.112-.25-.25 0-.137-.113-.25-.25-.25-.138 0-.25-.112-.25-.25 0-.166-.167-.25-.5-.25-.334 0-.5-.083-.5-.25 0-.166-.167-.25-.5-.25-.334 0-.5-.083-.5-.25 0-.212-.436-.25-2.917-.25s-2.917.038-2.917.25c0 .181-.185.25-.672.25-.443 0-.704.085-.767.25-.053.138-.201.25-.328.25-.128 0-.233.113-.233.25 0 .217-.428.346-.887.266-.076-.013-.087.058-.025.158.063.102-.034.221-.222.27-.184.048-.374.238-.422.422-.056.211-.163.288-.292.209-.125-.078-.16-.057-.091.055.061.099.035.228-.058.285-.093.058-.169-.012-.169-.155 0-.177-.159-.26-.5-.26-.334 0-.5-.083-.5-.25 0-.166-.167-.25-.5-.25-.334 0-.5-.083-.5-.25 0-.166-.167-.25-.5-.25-.334 0-.5-.083-.5-.25 0-.137-.113-.25-.25-.25-.138 0-.25-.112-.25-.25 0-.166-.167-.25-.5-.25-.334 0-.5-.083-.5-.25 0-.166-.167-.25-.5-.25-.334 0-.5-.083-.5-.25 0-.137-.113-.25-.25-.25-.138 0-.25-.112-.25-.25 0-.166-.167-.25-.5-.25-.334 0-.5-.083-.5-.25 0-.137-.113-.25-.25-.25-.139 0-.25-.148-.25-.333 0-.185.111-.333.25-.333.21 0 .25-.38.25-2.417s-.04-2.417-.25-2.417c-.186 0-.25-.194-.25-.75 0-.555-.065-.75-.25-.75-.138 0-.25-.112-.25-.25 0-.137-.113-.25-.25-.25-.167 0-.25-.166-.25-.5 0-.333-.084-.5-.25-.5-.138 0-.25-.112-.25-.25 0-.137-.113-.25-.25-.25-.138 0-.25-.112-.25-.25 0-.137-.113-.25-.25-.25-.138 0-.25-.112-.25-.25 0-.166-.167-.25-.5-.25-.334 0-.5-.083-.5-.25 0-.166-.167-.25-.5-.25-.334 0-.5-.083-.5-.25 0-.185-.195-.25-.75-.25-.556 0-.75-.064-.75-.25 0-.205-.297-.25-1.667-.25s-1.667.045-1.667.25c0 .192-.213.25-.922.25-.665 0-.948.07-1.017.25-.053.138-.278.25-.5.25-.223 0-.448.113-.5.25-.053.138-.201.25-.328.25-.128 0-.233.113-.233.25 0 .138-.112.25-.25.25-.137 0-.25.113-.25.25 0 .138-.112.25-.25.25-.137 0-.25.113-.25.25 0 .138-.112.25-.25.25-.137 0-.25.113-.25.25 0 .138-.103.25-.23.25s-.272.158-.322.35c-.051.193-.158.31-.238.26-.08-.049-.164.224-.186.609-.022.384-.112.723-.199.754-.219.076-.21 6.361.009 6.361.091 0 .166.225.166.5 0 .333.084.5.25.5.138 0 .25.112.25.25 0 .137.113.25.25.25.167 0 .25.166.25.5 0 .333.084.5.25.5.138 0 .25.112.25.25 0 .166.167.25.5.25.334 0 .5.083.5.25 0 .137.113.25.25.25.138 0 .25.112.25.25 0 .166.167.25.5.25.334 0 .5.083.5.25 0 .185.195.25.75.25.556 0 .75.064.75.25 0 .207.324.25 1.917.25s1.917-.043 1.917-.25c0-.186.194-.25.75-.25.555 0 .75-.065.75-.25 0-.167.166-.25.5-.25.333 0 .5-.084.5-.25 0-.167.166-.25.5-.25.333 0 .5-.084.5-.25 0-.138.112-.25.25-.25.137 0 .25-.113.25-.25 0-.138.112-.25.25-.25.137 0 .25-.113.25-.25 0-.139.148-.25.333-.25.185 0 .333.111.333.25 0 .166.167.25.5.25.334 0 .5.083.5.25 0 .166.167.25.5.25.334 0 .5.083.5.25 0 .137.113.25.25.25.138 0 .25.112.25.25 0 .166.167.25.5.25.334 0 .5.083.5.25 0 .166.167.25.5.25.334 0 .5.083.5.25 0 .166.167.25.5.25.334 0 .5.083.5.25 0 .137.113.25.25.25.138 0 .25.112.25.25 0 .166.167.25.5.25.322 0 .5.084.5.237 0 .131.132.273.292.314.278.073.278.078 0 .096-.412.027-.453 5.353-.042 5.353.186 0 .25.194.25.75 0 .555.065.75.25.75.138 0 .25.112.25.25 0 .137.113.25.25.25.167 0 .25.166.25.5 0 .333.084.5.25.5.138 0 .25.112.25.25 0 .137.113.25.25.25.138 0 .25.112.25.25 0 .166.167.25.5.25.334 0 .5.083.5.25 0 .166.167.25.5.25.334 0 .5.083.5.25 0 .166.167.25.5.25.334 0 .5.083.5.25 0 .211.408.25 2.667.25s2.667-.039 2.667-.25c0-.22.785-.37 1.387-.266.076.013.087-.058.025-.158-.064-.103.039-.222.238-.274.192-.05.35-.195.35-.322 0-.199.446-.323.887-.246.076.013.095-.044.044-.128-.125-.201.31-.555.486-.397.075.068.087.039.028-.065-.131-.23.28-.608.472-.435.075.068.085.035.023-.073-.062-.108-.036-.244.057-.301.093-.058.169.012.169.155s.113.26.25.26c.138 0 .25.112.25.25 0 .166.167.25.5.25.334 0 .5.083.5.25 0 .166.167.25.5.25.334 0 .5.083.5.25 0 .166.167.25.5.25.334 0 .5.083.5.25 0 .137.113.25.25.25.138 0 .25.112.25.25 0 .166.167.25.5.25.334 0 .5.083.5.25 0 .166.167.25.5.25.334 0 .5.083.5.25 0 .137.113.25.25.25.138 0 .25.112.25.25 0 .137.132.252.292.255.278.005.278.013 0 .175-.41.239-.45 5.82-.042 5.82.167 0 .25.166.25.5 0 .333.084.5.25.5.167 0 .25.166.25.5 0 .333.084.5.25.5.138 0 .25.112.25.25 0 .137.113.25.25.25.138 0 .25.112.25.25 0 .137.113.25.25.25.138 0 .25.112.25.25 0 .137.113.25.25.25.138 0 .25.112.25.25 0 .137.113.25.25.25.138 0 .25.112.25.25 0 .166.167.25.5.25.275 0 .5.075.5.166 0 .226 7.285.228 7.361.002.031-.091.257-.182.502-.202.246-.02.407-.101.359-.18-.049-.078.069-.183.262-.234.192-.05.35-.195.35-.322s.112-.23.25-.23c.137 0 .25-.113.25-.25 0-.138.112-.25.25-.25.137 0 .25-.113.25-.25 0-.138.112-.25.25-.25.137 0 .25-.113.25-.25 0-.138.112-.25.25-.25.166 0 .25-.167.25-.5 0-.324.084-.5.239-.5.148 0 .259-.206.292-.542.029-.299.139-.525.245-.505.14.026.2-.705.215-2.625.019-2.294-.014-2.662-.235-2.662-.145 0-.256-.144-.256-.333 0-.303.352-.442.887-.349.076.013.087-.058.025-.158-.064-.103.039-.222.238-.274.192-.05.35-.195.35-.322 0-.145.185-.23.5-.23.333 0 .5-.084.5-.25 0-.217.428-.346.887-.266.076.013.087-.058.025-.158-.064-.103.039-.222.238-.274.192-.05.35-.195.35-.322 0-.145.185-.23.5-.23.333 0 .5-.084.5-.25 0-.167.166-.25.5-.25.333 0 .5-.084.5-.25 0-.217.428-.346.887-.266.076.013.087-.058.025-.158-.064-.103.039-.222.238-.274.192-.05.35-.195.35-.322 0-.144.183-.23.487-.23.325 0 .514-.098.564-.292.073-.278.078-.278.096 0 .011.16.132.292.269.292.138 0 .25.112.25.25 0 .137.113.25.25.25.138 0 .25.112.25.25 0 .137.113.25.25.25.138 0 .25.112.25.25 0 .137.113.25.25.25.138 0 .25.112.25.25 0 .166.167.25.5.25.334 0 .5.083.5.25 0 .166.167.25.5.25.334 0 .5.083.5.25 0 .211.408.25 2.667.25s2.667-.039 2.667-.25c0-.186.194-.25.75-.25.555 0 .75-.065.75-.25 0-.217.428-.346.887-.266.076.013.087-.058.025-.158-.064-.103.039-.222.238-.274.192-.05.35-.195.35-.322s.112-.23.25-.23c.137 0 .25-.113.25-.25 0-.138.112-.25.25-.25.137 0 .25-.113.25-.25 0-.138.112-.25.25-.25.166 0 .25-.167.25-.5 0-.334.083-.5.25-.5.166 0 .25-.167.25-.5 0-.334.083-.5.25-.5.194 0 .25-.223.25-1 0-.778.055-1 .25-1 .198 0 .25-.241.25-1.167s-.052-1.167-.25-1.167c-.195 0-.25-.222-.25-1 0-.794-.054-1-.26-1-.143 0-.213-.076-.155-.169.057-.093.186-.119.285-.058.112.069.133.034.055-.091-.08-.13.002-.237.225-.296.192-.05.35-.195.35-.322 0-.145.185-.23.5-.23.333 0 .5-.084.5-.25 0-.167.166-.25.5-.25.333 0 .5-.084.5-.25 0-.217.428-.346.887-.266.076.013.087-.058.025-.158-.064-.103.039-.222.238-.274.192-.05.35-.195.35-.322 0-.145.185-.23.5-.23.333 0 .5-.084.5-.25 0-.217.428-.346.887-.266.076.013.087-.058.025-.158-.064-.103.039-.222.238-.274.192-.05.35-.195.35-.322 0-.144.183-.23.487-.23.325 0 .514-.098.564-.292.073-.278.078-.278.096 0 .011.16.132.292.269.292.138 0 .25.112.25.25 0 .137.113.25.25.25.167 0 .25.166.25.5 0 .444.056.5.5.5.334 0 .5.083.5.25 0 .137.113.25.25.25.138 0 .25.112.25.25 0 .166.167.25.5.25.334 0 .5.083.5.25 0 .185.195.25.75.25.556 0 .75.064.75.25 0 .207.324.25 1.917.25s1.917-.043 1.917-.25c0-.186.194-.25.75-.25.555 0 .75-.065.75-.25 0-.167.166-.25.5-.25.333 0 .5-.084.5-.25 0-.167.166-.25.5-.25.333 0 .5-.084.5-.25 0-.138.112-.25.25-.25.137 0 .25-.113.25-.25 0-.138.112-.25.25-.25.137 0 .25-.113.25-.25 0-.138.103-.25.23-.25s.272-.158.322-.35c.051-.193.156-.311.234-.262.079.048.159-.101.178-.332.044-.531.181-.756.385-.63.087.054.148.037.135-.039-.104-.602.046-1.387.266-1.387.21 0 .25-.38.25-2.417s-.04-2.417-.25-2.417c-.186 0-.25-.194-.25-.75 0-.555-.065-.75-.25-.75-.138 0-.25-.112-.25-.25 0-.137-.113-.25-.25-.25-.167 0-.25-.166-.25-.5 0-.333-.084-.5-.25-.5-.138 0-.25-.112-.25-.25 0-.137-.113-.25-.25-.25-.138 0-.25-.112-.25-.25 0-.137-.113-.25-.25-.25-.138 0-.25-.112-.25-.25 0-.166-.167-.25-.5-.25-.334 0-.5-.083-.5-.25 0-.166-.167-.25-.5-.25-.334 0-.5-.083-.5-.25 0-.185-.195-.25-.75-.25-.556 0-.75-.064-.75-.25 0-.205-.297-.25-1.667-.25s-1.667.045-1.667.25c0 .217-1.156.384-1.875.27-.068-.011-.106.074-.083.189.024.118-.161.231-.427.262-.257.029-.509.16-.559.291-.05.131-.196.238-.323.238-.128 0-.233.113-.233.25 0 .138-.112.25-.25.25-.137 0-.25.113-.25.25 0 .138-.112.25-.25.25-.137 0-.25.113-.25.25 0 .138-.112.25-.25.25-.137 0-.25.113-.25.25 0 .175-.176.25-.583.25s-.583-.075-.583-.25c0-.137-.113-.25-.25-.25-.138 0-.25-.112-.25-.25 0-.166-.167-.25-.5-.25-.334 0-.5-.083-.5-.25 0-.166-.167-.25-.5-.25-.334 0-.5-.083-.5-.25 0-.137-.113-.25-.25-.25-.138 0-.25-.112-.25-.25 0-.166-.167-.25-.5-.25-.334 0-.5-.083-.5-.25 0-.166-.167-.25-.5-.25-.334 0-.5-.083-.5-.25 0-.166-.167-.25-.5-.25-.334 0-.5-.083-.5-.25 0-.137-.113-.25-.25-.25-.138 0-.25-.112-.25-.25 0-.167-.18-.256-.542-.269-.298-.011-.41-.054-.25-.096.236-.061.292-.263.292-1.064 0-.766.056-.987.25-.987.198 0 .25-.241.25-1.167s-.052-1.167-.25-1.167c-.195 0-.25-.222-.25-1 0-.777-.056-1-.25-1-.186 0-.25-.194-.25-.75 0-.555-.065-.75-.25-.75-.138 0-.25-.112-.25-.25 0-.137-.113-.25-.25-.25-.138 0-.25-.112-.25-.25 0-.137-.113-.25-.25-.25-.138 0-.25-.112-.25-.25 0-.137-.113-.25-.25-.25-.138 0-.25-.112-.25-.25 0-.137-.113-.25-.25-.25-.138 0-.25-.112-.25-.25 0-.166-.167-.25-.5-.25-.334 0-.5-.083-.5-.25 0-.166-.167-.25-.5-.25-.334 0-.5-.083-.5-.25 0-.212-.436-.25-2.917-.25s-2.917.038-2.917.25c0 .22-.785.37-1.387.266-.076-.013-.087.058-.025.158.064.103-.039.222-.238.274-.192.05-.35.195-.35.322 0 .206-.468.327-.916.236-.092-.018-.111.022-.043.09.162.163-.2.595-.397.473-.084-.051-.141-.032-.128.044.116.669-.031.887-.599.887-.407 0-.583-.075-.583-.25 0-.137-.113-.25-.25-.25-.138 0-.25-.112-.25-.25 0-.166-.167-.25-.5-.25-.334 0-.5-.083-.5-.25 0-.166-.167-.25-.5-.25-.334 0-.5-.083-.5-.25 0-.166-.167-.25-.5-.25-.334 0-.5-.083-.5-.25 0-.137-.113-.25-.25-.25-.138 0-.25-.112-.25-.25 0-.166-.167-.25-.5-.25-.334 0-.5-.083-.5-.25 0-.166-.167-.25-.5-.25-.334 0-.5-.083-.5-.25 0-.137-.113-.25-.25-.25-.138 0-.25-.112-.25-.25 0-.166-.167-.25-.5-.25-.334 0-.5-.083-.5-.25 0-.137-.113-.25-.25-.25-.138 0-.25.109-.25.242m234.666 1.842c0 .194.223.25 1 .25.778 0 1 .055 1 .25 0 .185.195.25.75.25.556 0 .75.064.75.25 0 .185.195.25.75.25.556 0 .75.064.75.25 0 .166.167.25.5.25.334 0 .5.083.5.25 0 .166.167.25.5.25.334 0 .5.083.5.25 0 .137.113.25.25.25.138 0 .25.112.25.25 0 .166.167.25.5.25.334 0 .5.083.5.25 0 .137.113.25.25.25.138 0 .25.112.25.25 0 .137.113.25.25.25.138 0 .25.112.25.25 0 .166.167.25.5.25.334 0 .5.083.5.25 0 .137.113.25.25.25.138 0 .25.112.25.25 0 .137.113.25.25.25.167 0 .25.166.25.5 0 .333.084.5.25.5.138 0 .25.112.25.25 0 .137.114.25.252.25.222 0 .247.722.209 5.875-.034 4.592-.089 5.866-.252 5.833-.115-.023-.2.015-.189.083.073.46-.055.875-.27.875-.137 0-.25.113-.25.25 0 .138-.112.25-.25.25-.137 0-.25.113-.25.25 0 .138-.112.25-.25.25-.137 0-.25.113-.25.25 0 .138-.112.25-.25.25-.137 0-.25.113-.25.25 0 .217-.428.346-.887.266-.076-.013-.087.058-.025.158.064.103-.039.222-.238.274-.192.05-.35.195-.35.322s-.112.23-.25.23c-.137 0-.25.113-.25.25 0 .155-.156.25-.408.25-.225 0-.471.112-.548.249-.076.137-.337.266-.579.286-.243.02-.407.09-.367.156.103.166-.158.304-.654.345-.231.019-.407.113-.39.208.016.095-.181.197-.439.227-.257.029-.509.16-.559.291-.057.149-.331.238-.732.238-.384 0-.694.096-.775.24-.087.157-.463.253-1.084.278-.522.021-.914.096-.871.166.151.244-.217.3-2.142.327-1.322.018-1.928.086-1.904.212.02.103-.133.212-.339.243-.254.039-.375-.027-.375-.204 0-.221-.271-.262-1.75-.262-1.445 0-1.75-.043-1.75-.25 0-.194-.223-.25-1-.25-.778 0-1-.055-1-.25 0-.166-.167-.25-.5-.25-.334 0-.5-.083-.5-.25 0-.166-.167-.25-.5-.25-.334 0-.5-.083-.5-.25 0-.166-.167-.25-.5-.25-.334 0-.5-.083-.5-.25 0-.137-.113-.25-.25-.25-.138 0-.25-.112-.25-.25 0-.137-.113-.25-.25-.25-.138 0-.25-.112-.25-.25 0-.137-.113-.25-.25-.25-.138 0-.25-.112-.25-.25 0-.137-.113-.25-.25-.25-.138 0-.25-.112-.25-.25 0-.137-.113-.25-.25-.25-.138 0-.25-.112-.25-.25 0-.137-.113-.25-.25-.25-.138 0-.25-.112-.25-.25 0-.137-.113-.25-.25-.25-.167 0-.25-.166-.25-.5 0-.333-.084-.5-.25-.5-.138 0-.25-.112-.25-.25 0-.137-.113-.25-.25-.25-.186 0-.25-.194-.25-.75 0-.555-.065-.75-.25-.75-.186 0-.25-.194-.25-.75 0-.555-.065-.75-.25-.75-.204 0-.25-.277-.25-1.5 0-1.222-.047-1.5-.25-1.5-.139 0-.25-.148-.25-.333 0-.185.111-.333.25-.333.203 0 .25-.278.25-1.5 0-1.223.046-1.5.25-1.5.185 0 .25-.195.25-.75 0-.541.066-.75.239-.75.148 0 .259-.206.292-.542.031-.324.136-.525.26-.5.115.023.2-.015.189-.083-.073-.46.055-.875.27-.875.166 0 .25-.167.25-.5 0-.334.083-.5.25-.5.137 0 .25-.113.25-.25 0-.138.112-.25.25-.25.137 0 .25-.113.25-.25 0-.138.112-.25.25-.25.137 0 .25-.113.25-.25 0-.138.112-.25.25-.25.137 0 .25-.113.25-.25 0-.138.112-.25.25-.25.137 0 .25-.113.25-.25 0-.138.112-.25.25-.25.137 0 .25-.113.25-.25 0-.167.166-.25.5-.25.333 0 .5-.084.5-.25 0-.217.428-.346.887-.266.076.013.093-.048.039-.135-.126-.204.099-.341.63-.385.231-.019.407-.113.39-.208-.016-.095.214-.197.512-.225.336-.033.542-.144.542-.292 0-.181.241-.239 1-.239.777 0 1-.056 1-.25 0-.215.509-.25 3.583-.25 3.074 0 3.583.035 3.583.25"/><path fill="#ec1464" d="M48.333 26.083c0 .167-.166.25-.5.25-.333 0-.5.084-.5.25 0 .167-.166.25-.5.25-.333 0-.5.084-.5.25 0 .138-.112.25-.25.25-.137 0-.25.113-.25.25 0 .138-.112.25-.25.25-.137 0-.25.113-.25.25 0 .138-.112.25-.25.25-.137 0-.25.113-.25.25 0 .138-.112.25-.25.25-.166 0-.25.167-.25.5 0 .334-.083.5-.25.5-.166 0-.25.167-.25.5 0 .334-.083.5-.25.5-.41 0-.369 5.778.042 5.885.278.073.278.078 0 .096-.16.011-.292.132-.292.269 0 .138-.112.25-.25.25-.137 0-.25.113-.25.25 0 .167-.166.25-.5.25-.333 0-.5.084-.5.25 0 .167-.166.25-.5.25-.333 0-.5.084-.5.25 0 .167-.166.25-.5.25-.333 0-.5.084-.5.25 0 .138-.112.25-.25.25-.137 0-.25.113-.25.25 0 .167-.166.25-.5.25-.333 0-.5.084-.5.25 0 .167-.166.25-.5.25-.333 0-.5.084-.5.25 0 .138-.112.25-.25.25-.137 0-.25.113-.25.25 0 .138-.112.25-.25.25-.378 0-.3.493.19 1.2.481.694 1.894.98 1.894.384 0-.167.166-.25.5-.25.333 0 .5-.084.5-.25 0-.138.112-.25.25-.25.137 0 .25-.113.25-.25 0-.167.166-.25.5-.25.333 0 .5-.084.5-.25 0-.167.166-.25.5-.25.333 0 .5-.084.5-.25 0-.138.112-.25.25-.25.137 0 .25-.113.25-.25 0-.167.166-.25.5-.25.333 0 .5-.084.5-.25 0-.166.165-.25.487-.25.325 0 .514-.098.564-.292.073-.278.078-.278.096 0 .011.16.132.292.269.292.138 0 .25.112.25.25 0 .137.113.25.25.25.138 0 .25.112.25.25 0 .166.167.25.5.25.334 0 .5.083.5.25 0 .137.113.25.25.25.138 0 .25.112.25.25 0 .185.195.25.75.25.556 0 .75.064.75.25 0 .211.408.25 2.667.25s2.667-.039 2.667-.25c0-.167.166-.25.5-.25.333 0 .5-.084.5-.25 0-.167.166-.25.5-.25.333 0 .5-.084.5-.25 0-.138.112-.25.25-.25.137 0 .25-.113.25-.25 0-.167.166-.25.5-.25.444 0 .5-.056.5-.5 0-.334.083-.5.25-.5.137 0 .25-.113.25-.25 0-.175.176-.25.583-.25s.583.075.583.25c0 .137.113.25.25.25.138 0 .25.112.25.25 0 .166.167.25.5.25.334 0 .5.083.5.25 0 .166.167.25.5.25.334 0 .5.083.5.25 0 .166.167.25.5.25.334 0 .5.083.5.25 0 .137.113.25.25.25.138 0 .25.112.25.25 0 .166.167.25.5.25.334 0 .5.083.5.25 0 .166.167.25.5.25.334 0 .5.083.5.25 0 .166.167.25.5.25.334 0 .5.083.5.25 0 .137.113.25.25.25.189 0 .25.203.25.833 0 .63-.061.833-.25.833-.207 0-.25.324-.25 1.917s.043 1.917.25 1.917c.195 0 .25.222.25 1 0 .777.056 1 .25 1 .138 0 .25.112.25.25 0 .137.113.25.25.25.167 0 .25.166.25.5 0 .333.084.5.25.5.138 0 .25.112.25.25 0 .137.113.25.25.25.138 0 .25.112.25.25 0 .137.113.25.25.25.138 0 .25.112.25.25 0 .166.167.25.5.25.334 0 .5.083.5.25 0 .137.113.25.25.25.138 0 .25.112.25.25 0 .194.223.25 1 .25.778 0 1 .055 1 .25 0 .207.324.25 1.917.25s1.917-.043 1.917-.25c0-.186.194-.25.75-.25.555 0 .75-.065.75-.25 0-.167.166-.25.5-.25.333 0 .5-.084.5-.25 0-.167.166-.25.5-.25.333 0 .5-.084.5-.25 0-.138.112-.25.25-.25.137 0 .25-.113.25-.25 0-.138.112-.25.25-.25.137 0 .25-.113.25-.25 0-.138.107-.25.237-.25.131 0 .273-.132.314-.292.073-.278.078-.278.096 0 .011.16.132.292.269.292.138 0 .25.112.25.25 0 .166.167.25.5.25.334 0 .5.083.5.25 0 .166.167.25.5.25.334 0 .5.083.5.25 0 .166.167.25.5.25.334 0 .5.083.5.25 0 .137.113.25.25.25.138 0 .25.112.25.25 0 .166.167.25.5.25.334 0 .5.083.5.25 0 .166.167.25.5.25.334 0 .5.083.5.25 0 .166.167.25.5.25.334 0 .5.083.5.25 0 .137.113.25.25.25.214 0 .25.472.25 3.25 0 2.777.037 3.25.25 3.25.167 0 .25.166.25.5 0 .333.084.5.25.5.167 0 .25.166.25.5 0 .333.084.5.25.5.138 0 .25.112.25.25 0 .137.113.25.25.25.138 0 .25.112.25.25 0 .137.113.25.25.25.138 0 .25.112.25.25 0 .137.113.25.25.25.138 0 .25.112.25.25 0 .137.113.25.25.25.138 0 .25.112.25.25 0 .185.195.25.75.25.556 0 .75.064.75.25 0 .194.223.25 1 .25.778 0 1 .055 1 .25 0 .198.241.25 1.167.25s1.167-.052 1.167-.25c0-.195.222-.25 1-.25.777 0 1-.056 1-.25 0-.167.166-.25.5-.25.333 0 .5-.084.5-.25 0-.167.166-.25.5-.25.333 0 .5-.084.5-.25 0-.138.112-.25.25-.25.137 0 .25-.113.25-.25 0-.138.112-.25.25-.25.137 0 .25-.113.25-.25 0-.138.112-.25.25-.25.166 0 .25-.167.25-.5 0-.334.083-.5.25-.5.137 0 .25-.113.25-.25 0-.138.112-.25.25-.25.185 0 .25-.195.25-.75 0-.556.064-.75.25-.75.21 0 .25-.38.25-2.417s-.04-2.417-.25-2.417c-.186 0-.25-.194-.25-.75 0-.555-.065-.75-.25-.75-.167 0-.25-.166-.25-.5 0-.333-.084-.5-.25-.5-.138 0-.25-.112-.25-.25 0-.137-.113-.25-.25-.25-.138 0-.25-.112-.25-.25 0-.137-.113-.25-.25-.25-.138 0-.25-.112-.25-.25 0-.137-.113-.25-.25-.25-.138 0-.25-.112-.25-.25 0-.137-.113-.25-.25-.25-.138 0-.25-.112-.25-.25 0-.166-.167-.25-.5-.25-.334 0-.5-.083-.5-.25 0-.185-.195-.25-.75-.25-.556 0-.75-.064-.75-.25 0-.209-.352-.25-2.167-.25s-2.167.041-2.167.25c0 .186-.194.25-.75.25-.555 0-.75.065-.75.25 0 .167-.166.25-.5.25-.333 0-.5.084-.5.25 0 .138-.112.25-.25.25-.137 0-.25.113-.25.25 0 .167-.166.25-.5.25-.333 0-.5.084-.5.25 0 .138-.107.25-.237.25-.131 0-.273.132-.314.292-.073.278-.078.278-.096 0-.014-.209-.162-.292-.519-.292-.334 0-.5-.083-.5-.25 0-.166-.167-.25-.5-.25-.334 0-.5-.083-.5-.25 0-.137-.113-.25-.25-.25-.138 0-.25-.112-.25-.25 0-.166-.167-.25-.5-.25-.334 0-.5-.083-.5-.25 0-.166-.167-.25-.5-.25-.334 0-.5-.083-.5-.25 0-.166-.167-.25-.5-.25-.334 0-.5-.083-.5-.25 0-.137-.113-.25-.25-.25-.138 0-.25-.112-.25-.25 0-.166-.167-.25-.5-.25-.334 0-.5-.083-.5-.25 0-.166-.167-.25-.5-.25-.489 0-.5-.018-.5-.833 0-.63.061-.833.25-.833.202 0 .25-.269.25-1.417 0-1.148-.048-1.417-.25-1.417-.195 0-.25-.222-.25-1 0-.777-.056-1-.25-1-.167 0-.25-.166-.25-.5 0-.333-.084-.5-.25-.5-.138 0-.25-.112-.25-.25 0-.137-.113-.25-.25-.25-.138 0-.25-.112-.25-.25 0-.137-.113-.25-.25-.25-.138 0-.25-.112-.25-.25 0-.137-.113-.25-.25-.25-.138 0-.25-.112-.25-.25 0-.137-.113-.25-.25-.25-.138 0-.25-.112-.25-.25 0-.137-.113-.25-.25-.25-.138 0-.25-.112-.25-.25 0-.166-.167-.25-.5-.25-.334 0-.5-.083-.5-.25 0-.194-.223-.25-1-.25-.778 0-1-.055-1-.25 0-.202-.269-.25-1.417-.25-1.148 0-1.417.048-1.417.25 0 .195-.222.25-1 .25-.777 0-1 .056-1 .25 0 .167-.166.25-.5.25-.333 0-.5.084-.5.25 0 .138-.112.25-.25.25-.137 0-.25.113-.25.25 0 .167-.166.25-.5.25-.333 0-.5.084-.5.25 0 .138-.107.25-.237.25-.131 0-.273.132-.314.292-.073.278-.078.278-.096 0-.014-.209-.162-.292-.519-.292-.334 0-.5-.083-.5-.25 0-.166-.167-.25-.5-.25-.334 0-.5-.083-.5-.25 0-.137-.113-.25-.25-.25-.138 0-.25-.112-.25-.25 0-.166-.167-.25-.5-.25-.334 0-.5-.083-.5-.25 0-.166-.167-.25-.5-.25-.334 0-.5-.083-.5-.25 0-.166-.167-.25-.5-.25-.334 0-.5-.083-.5-.25 0-.137-.113-.25-.25-.25-.138 0-.25-.112-.25-.25 0-.166-.167-.25-.5-.25-.334 0-.5-.083-.5-.25 0-.166-.167-.25-.5-.25-.334 0-.5-.083-.5-.25 0-.137-.113-.25-.25-.25-.211 0-.25-.389-.25-2.5 0-2.111-.039-2.5-.25-2.5-.186 0-.25-.194-.25-.75 0-.555-.065-.75-.25-.75-.138 0-.25-.112-.25-.25 0-.137-.113-.25-.25-.25-.167 0-.25-.166-.25-.5 0-.333-.084-.5-.25-.5-.138 0-.25-.112-.25-.25 0-.137-.113-.25-.25-.25-.138 0-.25-.112-.25-.25 0-.166-.167-.25-.5-.25-.334 0-.5-.083-.5-.25 0-.137-.113-.25-.25-.25-.138 0-.25-.112-.25-.25 0-.185-.195-.25-.75-.25-.556 0-.75-.064-.75-.25 0-.212-.436-.25-2.917-.25s-2.917.038-2.917.25m-26.5 23.5c0 .167-.166.25-.5.25-.333 0-.5.084-.5.25 0 .138-.112.25-.25.25-.137 0-.25.113-.25.25 0 .167-.166.25-.5.25-.333 0-.5.084-.5.25 0 .167-.166.25-.5.25-.333 0-.5.084-.5.25 0 .167-.166.25-.5.25-.333 0-.5.084-.5.25 0 .138-.112.25-.25.25-.137 0-.25.113-.25.25 0 .167-.166.25-.5.25-.333 0-.5.084-.5.25 0 .167-.166.25-.5.25-.333 0-.5.084-.5.25 0 .138-.107.25-.237.25-.131 0-.273.132-.314.292-.073.278-.078.278-.096 0-.011-.16-.132-.292-.269-.292-.138 0-.25-.112-.25-.25 0-.137-.113-.25-.25-.25-.138 0-.25-.112-.25-.25 0-.137-.113-.25-.25-.25-.138 0-.25-.112-.25-.25 0-.166-.167-.25-.5-.25-.334 0-.5-.083-.5-.25 0-.185-.195-.25-.75-.25-.556 0-.75-.064-.75-.25 0-.209-.352-.25-2.167-.25s-2.167.041-2.167.25c0 .186-.194.25-.75.25-.555 0-.75.065-.75.25 0 .167-.166.25-.5.25-.333 0-.5.084-.5.25 0 .138-.112.25-.25.25-.137 0-.25.113-.25.25 0 .167-.166.25-.5.25-.333 0-.5.084-.5.25 0 .138-.112.25-.25.25-.166 0-.25.167-.25.5 0 .334-.083.5-.25.5-.137 0-.25.113-.25.25 0 .138-.112.25-.25.25-.166 0-.25.167-.25.5 0 .275-.075.5-.166.5C.061 56.333 0 57.5 0 59.5c0 2 .061 3.167.167 3.167.091 0 .166.337.166.75 0 .555.065.75.25.75.138 0 .25.112.25.25 0 .137.113.25.25.25.138 0 .25.112.25.25 0 .137.113.25.25.25.138 0 .25.112.25.25 0 .137.113.25.25.25.138 0 .25.112.25.25 0 .137.113.25.25.25.138 0 .25.112.25.25 0 .137.113.25.25.25.138 0 .25.112.25.25 0 .166.167.25.5.25.334 0 .5.083.5.25 0 .2.25.25 1.25.25s1.25.05 1.25.25c0 .198.241.25 1.167.25s1.167-.052 1.167-.25c0-.195.222-.25 1-.25.777 0 1-.056 1-.25 0-.167.166-.25.5-.25.333 0 .5-.084.5-.25 0-.167.166-.25.5-.25.333 0 .5-.084.5-.25 0-.138.112-.25.25-.25.137 0 .25-.113.25-.25 0-.138.107-.25.237-.25.131 0 .273-.132.314-.292.073-.278.078-.278.096 0 .014.209.162.292.519.292.334 0 .5.083.5.25 0 .137.113.25.25.25.138 0 .25.112.25.25 0 .166.167.25.5.25.334 0 .5.083.5.25 0 .166.167.25.5.25.334 0 .5.083.5.25 0 .166.167.25.5.25.334 0 .5.083.5.25 0 .137.113.25.25.25.138 0 .25.112.25.25 0 .166.167.25.5.25.334 0 .5.083.5.25 0 .166.167.25.5.25.334 0 .5.083.5.25 0 .166.167.25.5.25.389 0 .5.074.5.333 0 .185-.111.333-.25.333-.211 0-.25.408-.25 2.667s.039 2.667.25 2.667c.167 0 .25.166.25.5 0 .333.084.5.25.5.167 0 .25.166.25.5 0 .333.084.5.25.5.138 0 .25.112.25.25 0 .137.113.25.25.25.167 0 .25.166.25.5 0 .444.056.5.5.5.334 0 .5.083.5.25 0 .137.113.25.25.25.138 0 .25.112.25.25 0 .166.167.25.5.25.334 0 .5.083.5.25 0 .166.167.25.5.25.334 0 .5.083.5.25 0 .211.408.25 2.667.25s2.667-.039 2.667-.25c0-.167.166-.25.5-.25.333 0 .5-.084.5-.25 0-.167.166-.25.5-.25.333 0 .5-.084.5-.25 0-.138.112-.25.25-.25.137 0 .25-.113.25-.25 0-.167.166-.25.5-.25.333 0 .5-.084.5-.25 0-.138.107-.25.237-.25.131 0 .273-.132.314-.292.073-.278.078-.278.096 0 .014.209.162.292.519.292.334 0 .5.083.5.25 0 .137.113.25.25.25.138 0 .25.112.25.25 0 .166.167.25.5.25.334 0 .5.083.5.25 0 .166.167.25.5.25.334 0 .5.083.5.25 0 .166.167.25.5.25.334 0 .5.083.5.25 0 .137.113.25.25.25.138 0 .25.112.25.25 0 .166.167.25.5.25.334 0 .5.083.5.25 0 .166.167.25.5.25.389 0 .5.074.5.333 0 .185-.111.333-.25.333-.212 0-.25.436-.25 2.917s.038 2.917.25 2.917c.167 0 .25.166.25.5 0 .333.084.5.25.5.167 0 .25.166.25.5 0 .333.084.5.25.5.138 0 .25.112.25.25 0 .137.113.25.25.25.138 0 .25.112.25.25 0 .137.113.25.25.25.138 0 .25.112.25.25 0 .137.113.25.25.25.138 0 .25.112.25.25 0 .137.113.25.25.25.138 0 .25.112.25.25 0 .166.167.25.5.25.334 0 .5.083.5.25 0 .194.223.25 1 .25.778 0 1 .055 1 .25 0 .205.297.25 1.667.25s1.667-.045 1.667-.25c0-.195.222-.25 1-.25.777 0 1-.056 1-.25 0-.167.166-.25.5-.25.333 0 .5-.084.5-.25 0-.138.112-.25.25-.25.137 0 .25-.113.25-.25 0-.138.112-.25.25-.25.137 0 .25-.113.25-.25 0-.138.112-.25.25-.25.137 0 .25-.113.25-.25 0-.138.112-.25.25-.25.137 0 .25-.113.25-.25 0-.138.112-.25.25-.25.166 0 .25-.167.25-.5 0-.334.083-.5.25-.5.166 0 .25-.167.25-.5 0-.334.083-.5.25-.5.211 0 .25-.408.25-2.667s-.039-2.667-.25-2.667c-.186 0-.25-.194-.25-.75 0-.555-.065-.75-.25-.75-.167 0-.25-.166-.25-.5 0-.333-.084-.5-.25-.5-.138 0-.25-.112-.25-.25 0-.137-.113-.25-.25-.25-.138 0-.25-.112-.25-.25 0-.137-.113-.25-.25-.25-.138 0-.25-.112-.25-.25 0-.137-.113-.25-.25-.25-.138 0-.25-.112-.25-.25 0-.166-.167-.25-.5-.25-.334 0-.5-.083-.5-.25 0-.166-.167-.25-.5-.25-.334 0-.5-.083-.5-.25 0-.185-.195-.25-.75-.25-.556 0-.75-.064-.75-.25 0-.205-.297-.25-1.667-.25s-1.667.045-1.667.25c0 .195-.222.25-1 .25-.777 0-1 .056-1 .25 0 .167-.166.25-.5.25-.333 0-.5.084-.5.25 0 .138-.112.25-.25.25-.137 0-.25.113-.25.25 0 .138-.112.25-.25.25-.137 0-.25.113-.25.25 0 .138-.112.25-.25.25-.137 0-.25.113-.25.25 0 .139-.148.25-.333.25-.185 0-.333-.111-.333-.25 0-.137-.113-.25-.25-.25-.138 0-.25-.112-.25-.25 0-.166-.167-.25-.5-.25-.334 0-.5-.083-.5-.25 0-.166-.167-.25-.5-.25-.334 0-.5-.083-.5-.25 0-.166-.167-.25-.5-.25-.334 0-.5-.083-.5-.25 0-.137-.113-.25-.25-.25-.138 0-.25-.112-.25-.25 0-.166-.167-.25-.5-.25-.334 0-.5-.083-.5-.25 0-.166-.167-.25-.5-.25-.334 0-.5-.083-.5-.25 0-.166-.167-.25-.5-.25-.389 0-.5-.074-.5-.333 0-.185.111-.333.25-.333.212 0 .25-.436.25-2.917s-.038-2.917-.25-2.917c-.167 0-.25-.166-.25-.5 0-.333-.084-.5-.25-.5-.167 0-.25-.166-.25-.5 0-.333-.084-.5-.25-.5-.138 0-.25-.112-.25-.25 0-.137-.113-.25-.25-.25-.138 0-.25-.112-.25-.25 0-.137-.113-.25-.25-.25-.138 0-.25-.112-.25-.25 0-.137-.113-.25-.25-.25-.138 0-.25-.112-.25-.25 0-.166-.167-.25-.5-.25-.334 0-.5-.083-.5-.25 0-.166-.167-.25-.5-.25-.334 0-.5-.083-.5-.25 0-.213-.463-.25-3.167-.25-2.704 0-3.167.037-3.167.25 0 .167-.166.25-.5.25-.333 0-.5.084-.5.25 0 .167-.166.25-.5.25-.333 0-.5.084-.5.25 0 .138-.112.25-.25.25-.137 0-.25.113-.25.25 0 .138-.112.25-.25.25-.137 0-.25.113-.25.25 0 .138-.107.25-.237.25-.131 0-.273.132-.314.292-.073.278-.078.278-.096 0-.014-.209-.162-.292-.519-.292-.334 0-.5-.083-.5-.25 0-.137-.113-.25-.25-.25-.138 0-.25-.112-.25-.25 0-.166-.167-.25-.5-.25-.334 0-.5-.083-.5-.25 0-.166-.167-.25-.5-.25-.334 0-.5-.083-.5-.25 0-.166-.167-.25-.5-.25-.334 0-.5-.083-.5-.25 0-.137-.113-.25-.25-.25-.138 0-.25-.112-.25-.25 0-.166-.167-.25-.5-.25-.334 0-.5-.083-.5-.25 0-.166-.167-.25-.5-.25-.334 0-.5-.083-.5-.25 0-.167-.18-.256-.542-.269-.298-.011-.41-.054-.25-.096.194-.05.292-.239.292-.564 0-.322.084-.487.25-.487.21 0 .25-.38.25-2.417s-.04-2.417-.25-2.417c-.175 0-.25-.176-.25-.583s.075-.583.25-.583c.137 0 .25-.113.25-.25 0-.167.166-.25.5-.25.333 0 .5-.084.5-.25 0-.138.112-.25.25-.25.137 0 .25-.113.25-.25 0-.167.166-.25.5-.25.333 0 .5-.084.5-.25 0-.167.166-.25.5-.25.333 0 .5-.084.5-.25 0-.138.112-.25.25-.25.137 0 .25-.113.25-.25 0-.167.166-.25.5-.25.333 0 .5-.084.5-.25 0-.167.166-.25.5-.25.333 0 .5-.084.5-.25 0-.165.164-.25.482-.25.879 0 .801-1.394-.132-2.371-.492-.515-.684-.574-.684-.213"/><path fill="#545c74" d="M48.333.221c0 .151-.158.198-.5.148-.379-.056-.5-.009-.5.195 0 .188-.151.269-.5.269-.333 0-.5.084-.5.25 0 .138-.112.25-.25.25-.137 0-.25.113-.25.25 0 .138-.112.25-.25.25-.137 0-.25.113-.25.25 0 .138-.112.25-.25.25-.137 0-.25.113-.25.25 0 .138-.112.25-.25.25-.166 0-.25.167-.25.5 0 .334-.083.5-.25.5-.166 0-.25.167-.25.5 0 .334-.083.5-.25.5-.212 0-.248.432-.241 2.917.007 2.432.048 2.917.25 2.917.133 0 .241.15.241.333 0 .185-.111.333-.25.333-.137 0-.25.113-.25.25 0 .167-.166.25-.5.25-.333 0-.5.084-.5.25 0 .138-.112.25-.25.25-.137 0-.25.113-.25.25 0 .167-.166.25-.5.25-.333 0-.5.084-.5.25 0 .167-.166.25-.5.25-.333 0-.5.084-.5.25 0 .167-.166.25-.5.25-.333 0-.5.084-.5.25 0 .138-.112.25-.25.25-.137 0-.25.137-.25.305 0 .24-.1.289-.476.234-.383-.056-.496.003-.574.301-.067.259-.179.339-.37.265-.15-.057-.38-.105-.51-.105s-.236-.112-.236-.25c0-.137-.113-.25-.25-.25-.138 0-.25-.112-.25-.25 0-.137-.113-.25-.25-.25-.138 0-.25-.112-.25-.25 0-.137-.113-.25-.25-.25-.138 0-.25-.121-.25-.269 0-.201-.112-.248-.438-.186-.334.064-.457.007-.522-.242-.069-.262-.218-.32-.771-.298-1.104.043-1.269.009-1.269-.255 0-.205-.297-.25-1.667-.25s-1.667.045-1.667.25c0 .195-.222.25-1 .25-.777 0-1 .056-1 .25 0 .167-.166.25-.5.25-.333 0-.5.084-.5.25 0 .138-.112.25-.25.25-.137 0-.25.113-.25.25 0 .138-.112.25-.25.25-.137 0-.25.113-.25.25 0 .138-.112.25-.25.25-.137 0-.25.113-.25.25 0 .138-.112.25-.25.25-.137 0-.25.113-.25.25 0 .138-.112.25-.25.25-.166 0-.25.167-.25.5 0 .334-.083.5-.25.5-.166 0-.25.167-.25.5 0 .336-.083.5-.252.5-.404 0-.349 5.781.055 5.888.254.067.253.076-.011.093-.16.011-.292.132-.292.269 0 .167-.166.25-.5.25-.333 0-.5.084-.5.25 0 .167-.166.25-.5.25-.333 0-.5.084-.5.25 0 .138-.112.25-.25.25-.137 0-.25.113-.25.25 0 .167-.166.25-.5.25-.333 0-.5.084-.5.25 0 .167-.166.25-.5.25-.333 0-.5.084-.5.25 0 .167-.166.25-.5.25-.333 0-.5.084-.5.25 0 .138-.112.25-.25.25-.137 0-.25.113-.25.25 0 .167-.166.25-.5.25-.333 0-.5.084-.5.25 0 .139-.148.25-.333.25-.185 0-.333-.111-.333-.25 0-.137-.113-.25-.25-.25-.138 0-.25-.112-.25-.25 0-.137-.113-.25-.25-.25-.138 0-.25-.112-.25-.25 0-.137-.113-.25-.25-.25-.138 0-.25-.112-.25-.25 0-.166-.167-.25-.5-.25-.334 0-.5-.083-.5-.25 0-.185-.195-.25-.75-.25-.556 0-.75-.064-.75-.25 0-.21-.38-.25-2.417-.25-2.194 0-2.417.027-2.417.293 0 .245-.123.283-.75.233-.601-.047-.75-.006-.75.208 0 .146-.112.266-.25.266-.137 0-.25.113-.25.25 0 .167-.166.25-.5.25-.333 0-.5.084-.5.25 0 .138-.112.25-.25.25-.137 0-.25.113-.25.25 0 .138-.112.25-.25.25-.137 0-.25.113-.25.25 0 .138-.112.25-.25.25-.166 0-.25.167-.25.5 0 .334-.083.5-.25.5-.166 0-.25.167-.25.5 0 .275-.075.5-.166.5C.061 30.333 0 31.5 0 33.5c0 2 .061 3.167.167 3.167.091 0 .166.225.166.5 0 .373.078.5.305.5.243 0 .29.1.231.5-.056.379-.009.5.195.5.148 0 .269.112.269.25 0 .137.113.25.25.25.138 0 .25.112.25.25 0 .137.113.25.25.25.138 0 .25.112.25.25 0 .137.113.25.25.25.138 0 .25.112.25.25 0 .166.167.25.5.25.334 0 .5.083.5.25 0 .166.167.25.5.25.334 0 .5.083.5.25 0 .213.463.25 3.167.25 2.704 0 3.167-.037 3.167-.25 0-.252.169-.314.708-.259.166.017.292-.083.292-.231 0-.143.112-.26.25-.26.137 0 .25-.113.25-.25 0-.167.166-.25.5-.25.333 0 .5-.084.5-.25 0-.138.107-.25.237-.25.131 0 .273-.132.314-.292.073-.278.078-.278.096 0 .014.209.162.292.519.292.334 0 .5.083.5.25 0 .137.113.25.25.25.138 0 .25.112.25.25 0 .166.167.25.5.25.334 0 .5.083.5.25 0 .166.167.25.5.25.334 0 .5.083.5.25 0 .137.113.25.25.25.138 0 .25.112.25.25 0 .166.167.25.5.25.334 0 .5.083.5.25 0 .166.167.25.5.25.334 0 .5.083.5.25 0 .166.167.25.5.25.334 0 .5.083.5.25 0 .137.113.25.25.25.138 0 .25.107.25.237 0 .131.132.273.292.314.274.072.274.078-.005.096-.27.018-.294.235-.277 2.519l.018 2.5h.653c.614 0 .653.03.653.5 0 .334.083.5.25.5.18 0 .25.186.25.667 0 .367-.075.667-.167.667-.092 0-.167.112-.167.25 0 .137.113.25.25.25.138 0 .25.112.25.25 0 .137.113.25.25.25.138 0 .25.112.25.25 0 .137.113.25.25.25.138 0 .25.112.25.25 0 .137.113.25.25.25.138 0 .25.112.25.25 0 .166.167.25.5.25.334 0 .5.083.5.25 0 .185.195.25.75.25.556 0 .75.064.75.25 0 .209.352.25 2.167.25s2.167-.041 2.167-.25c0-.186.194-.25.75-.25.555 0 .75-.065.75-.25 0-.167.166-.25.5-.25.333 0 .5-.084.5-.25 0-.138.112-.25.25-.25.137 0 .25-.113.25-.25 0-.138.112-.25.25-.25.137 0 .25-.113.25-.25 0-.138.112-.25.25-.25.137 0 .25-.113.25-.25 0-.139.148-.25.333-.25.185 0 .333.111.333.25 0 .166.167.25.5.25.334 0 .5.083.5.25 0 .137.113.25.25.25.138 0 .25.117.25.26 0 .148.126.248.292.231.539-.055.708.007.708.259 0 .166.167.25.5.25.334 0 .5.083.5.25 0 .166.167.25.5.25.334 0 .5.083.5.25 0 .137.113.25.25.25.138 0 .25.112.25.25 0 .166.167.25.5.25.334 0 .5.083.5.25 0 .166.167.25.5.25.461 0 .5.046.5.583 0 .398-.076.583-.241.583-.202 0-.243.485-.25 2.917-.007 2.485.029 2.917.241 2.917.167 0 .25.166.25.5 0 .333.084.5.25.5.167 0 .25.166.25.5 0 .333.084.5.25.5.138 0 .25.112.25.25 0 .137.113.25.25.25.138 0 .25.112.25.25 0 .137.113.25.25.25.138 0 .25.112.25.25 0 .137.113.25.25.25.138 0 .25.117.25.26 0 .148.126.248.292.231.539-.055.708.007.708.259 0 .166.167.25.5.25.334 0 .5.083.5.25 0 .212.436.25 2.917.25s2.917-.038 2.917-.25c0-.186.194-.25.75-.25.555 0 .75-.065.75-.25 0-.138.112-.25.25-.25.137 0 .25-.113.25-.25 0-.167.166-.25.5-.25.333 0 .5-.084.5-.25 0-.138.112-.25.25-.25.137 0 .25-.113.25-.25 0-.138.116-.25.257-.25.202 0 .235-.121.154-.554-.119-.632.459-1.946.855-1.946.129 0 .234-.113.234-.25 0-.138.112-.25.25-.25.211 0 .25-.408.25-2.667s-.039-2.667-.25-2.667c-.167 0-.25-.166-.25-.5 0-.333-.084-.5-.25-.5-.167 0-.25-.166-.25-.5 0-.333-.084-.5-.25-.5-.138 0-.25-.112-.25-.25 0-.137-.113-.25-.25-.25-.169 0-.25-.168-.25-.519 0-.481-.036-.513-.5-.445-.4.059-.5.012-.5-.231 0-.168-.113-.305-.25-.305-.138 0-.25-.112-.25-.25 0-.166-.167-.25-.5-.25-.349 0-.5-.081-.5-.269 0-.204-.121-.251-.5-.195-.388.057-.5.01-.5-.208 0-.252-.286-.285-2.667-.312-2.303-.025-2.667.006-2.667.228 0 .193-.185.256-.75.256-.555 0-.75.065-.75.25 0 .138-.112.25-.25.25-.137 0-.25.113-.25.25 0 .167-.166.25-.5.25-.333 0-.5.084-.5.25 0 .138-.112.25-.25.25-.137 0-.25.113-.25.25 0 .139-.148.25-.333.25-.185 0-.333-.111-.333-.25 0-.137-.113-.25-.25-.25-.138 0-.25-.112-.25-.25 0-.166-.167-.25-.5-.25-.334 0-.5-.083-.5-.25 0-.166-.167-.25-.5-.25-.334 0-.5-.083-.5-.25 0-.166-.167-.25-.5-.25-.334 0-.5-.083-.5-.25 0-.137-.113-.25-.25-.25-.138 0-.25-.112-.25-.25 0-.166-.167-.25-.5-.25-.334 0-.5-.083-.5-.25 0-.166-.167-.25-.5-.25-.349 0-.5-.081-.5-.269 0-.204-.121-.251-.5-.195-.434.063-.5.022-.5-.315 0-.233.099-.387.25-.387.212 0 .25-.435.25-2.915v-2.915l-.667-.106c-.402-.065-.667-.198-.667-.336 0-.125-.112-.228-.25-.228-.137 0-.25-.081-.25-.179 0-.098-.112-.291-.25-.428-.279-.279-.343-1.227-.083-1.227.092 0 .167-.112.167-.25 0-.137-.113-.25-.25-.25-.138 0-.25-.112-.25-.25 0-.137-.113-.25-.25-.25-.138 0-.25-.121-.25-.269 0-.204-.121-.251-.5-.195-.4.059-.5.012-.5-.231 0-.227-.127-.305-.5-.305-.334 0-.5-.083-.5-.25 0-.194-.223-.25-1-.25-.778 0-1-.055-1-.25 0-.198-.241-.25-1.167-.25s-1.167.052-1.167.25c0 .195-.222.25-1 .25-.777 0-1 .056-1 .25 0 .167-.166.25-.5.25-.333 0-.5.084-.5.25 0 .167-.166.25-.5.25-.333 0-.5.084-.5.25 0 .138-.112.25-.25.25-.137 0-.25.113-.25.25 0 .138-.112.25-.25.25-.137 0-.25.113-.25.25 0 .138-.107.25-.237.25-.131 0-.273.132-.314.292-.073.278-.078.278-.096 0-.014-.209-.162-.292-.519-.292-.334 0-.5-.083-.5-.25 0-.166-.167-.25-.5-.25-.334 0-.5-.083-.5-.25 0-.137-.113-.25-.25-.25-.138 0-.25-.121-.25-.269 0-.201-.112-.248-.438-.186-.33.063-.457.007-.519-.231-.057-.216-.232-.314-.563-.314-.316 0-.48-.085-.48-.25 0-.137-.113-.25-.25-.25-.138 0-.25-.112-.25-.25 0-.166-.167-.25-.5-.25-.334 0-.5-.083-.5-.25 0-.166-.167-.25-.5-.25-.349 0-.5-.081-.5-.269 0-.204-.121-.251-.5-.195-.275.04-.5.011-.5-.065 0-.075.112-.137.25-.137.185 0 .25-.195.25-.75 0-.556.064-.75.25-.75.209 0 .25-.352.25-2.167s-.041-2.167-.25-2.167c-.175 0-.25-.176-.25-.583 0-.537.039-.583.5-.583.333 0 .5-.084.5-.25 0-.167.166-.25.5-.25.333 0 .5-.084.5-.25 0-.167.166-.25.5-.25.333 0 .5-.084.5-.25 0-.138.112-.25.25-.25.137 0 .25-.113.25-.25 0-.167.166-.25.5-.25.333 0 .5-.084.5-.25 0-.167.166-.25.5-.25.333 0 .5-.084.5-.25 0-.167.166-.25.5-.25.333 0 .5-.084.5-.25 0-.138.112-.25.25-.25.137 0 .25-.113.25-.25 0-.175.176-.25.583-.25s.583.075.583.25c0 .137.113.25.25.25.138 0 .25.112.25.25 0 .137.113.25.25.25.138 0 .25.112.25.25 0 .166.167.25.5.25.334 0 .5.083.5.25 0 .166.167.25.5.25.334 0 .5.083.5.25 0 .185.195.25.75.25.556 0 .75.064.75.25 0 .205.297.25 1.667.25s1.667-.045 1.667-.25c0-.243.61-.339 1.625-.257.242.02.375-.062.375-.231 0-.18.156-.262.5-.262.333 0 .5-.084.5-.25 0-.138.112-.25.25-.25.137 0 .25-.113.25-.25 0-.138.112-.25.25-.25.137 0 .25-.113.25-.25 0-.138.112-.25.25-.25.137 0 .25-.113.25-.25 0-.138.112-.25.25-.25.137 0 .25-.113.25-.25 0-.138.112-.25.25-.25.166 0 .25-.167.25-.5 0-.334.083-.5.25-.5.166 0 .25-.167.25-.5 0-.334.083-.5.25-.5.41 0 .369-5.778-.042-5.885-.278-.073-.278-.078 0-.096.16-.011.292-.132.292-.269 0-.167.166-.25.5-.25.333 0 .5-.084.5-.25 0-.167.166-.25.5-.25.333 0 .5-.084.5-.25 0-.252.169-.314.708-.259.166.017.292-.083.292-.231 0-.143.112-.26.25-.26.137 0 .25-.113.25-.25 0-.167.166-.25.5-.25.333 0 .5-.084.5-.25 0-.167.166-.25.5-.25.333 0 .5-.084.5-.25 0-.167.166-.25.5-.25.333 0 .5-.084.5-.25 0-.138.112-.25.25-.25.137 0 .25-.113.25-.25 0-.138.062-.25.137-.25.076 0 .105.225.065.5-.068.464-.036.5.445.5.351 0 .519.081.519.25 0 .137.113.25.25.25.138 0 .25.112.25.25 0 .166.167.25.5.25.334 0 .5.083.5.25 0 .185.195.25.75.25.556 0 .75.064.75.25 0 .209.352.25 2.167.25s2.167-.041 2.167-.25c0-.186.194-.25.75-.25.555 0 .75-.065.75-.25 0-.167.166-.25.5-.25.333 0 .5-.084.5-.25 0-.138.112-.25.25-.25.137 0 .25-.113.25-.25 0-.138.112-.25.25-.25.137 0 .25-.113.25-.25 0-.138.112-.25.25-.25.137 0 .25-.113.25-.25 0-.139.148-.25.333-.25.185 0 .333.111.333.25 0 .166.167.25.5.25.334 0 .5.083.5.25 0 .137.113.25.25.25.138 0 .25.112.25.25 0 .166.167.25.5.25.334 0 .5.083.5.25 0 .166.167.25.5.25.334 0 .5.083.5.25 0 .166.167.25.5.25.334 0 .5.083.5.25 0 .137.113.25.25.25.138 0 .25.112.25.25 0 .166.167.25.5.25.334 0 .5.083.5.25 0 .166.167.25.5.25.334 0 .5.083.5.25 0 .166.167.25.5.25.334 0 .5.083.5.25 0 .137.113.25.25.25.139 0 .25.148.25.333 0 .185-.111.333-.249.333-.209 0-.248.32-.238 1.917.01 1.543.058 1.917.25 1.917.17 0 .237.211.237.75 0 .555.065.75.25.75.167 0 .25.166.25.5 0 .333.084.5.25.5.252 0 .314.169.259.708-.017.166.083.292.231.292.143 0 .26.112.26.25 0 .137.113.25.25.25.138 0 .25.112.25.25 0 .137.113.25.25.25.138 0 .25.112.25.25 0 .166.167.25.5.25.334 0 .5.083.5.25 0 .166.167.25.5.25.334 0 .5.083.5.25 0 .194.223.25 1 .25.778 0 1 .055 1 .25 0 .202.269.25 1.417.25 1.148 0 1.417-.048 1.417-.25 0-.195.222-.25 1-.25.777 0 1-.056 1-.25 0-.167.166-.25.5-.25.333 0 .5-.084.5-.25 0-.138.112-.25.25-.25.137 0 .25-.113.25-.25 0-.167.166-.25.5-.25.333 0 .5-.084.5-.25 0-.175.176-.25.583-.25s.583.075.583.25c0 .137.113.25.25.25.138 0 .25.112.25.25 0 .166.167.25.5.25.334 0 .5.083.5.25 0 .166.167.25.5.25.334 0 .5.083.5.25 0 .166.167.25.5.25.334 0 .5.083.5.25 0 .137.113.25.25.25.138 0 .25.112.25.25 0 .166.167.25.5.25.334 0 .5.083.5.25 0 .166.167.25.5.25.334 0 .5.083.5.25 0 .166.167.25.5.25.334 0 .5.083.5.25 0 .137.113.25.25.25.212 0 .25.416.25 2.75 0 2.552.022 2.75.305 2.75.243 0 .29.1.231.5-.056.379-.009.5.195.5.188 0 .269.151.269.5 0 .333.084.5.25.5.138 0 .25.112.25.25 0 .137.113.25.25.25.138 0 .25.112.25.25 0 .137.113.25.25.25.138 0 .25.112.25.25 0 .137.113.25.25.25.138 0 .25.112.25.25 0 .166.167.25.5.25.334 0 .5.083.5.25 0 .166.167.25.5.25.338 0 .5.083.5.254 0 .22.432.252 3.167.238 2.625-.013 3.167-.057 3.167-.254 0-.154.177-.238.5-.238.333 0 .5-.084.5-.25 0-.138.112-.25.25-.25.137 0 .25-.113.25-.25 0-.167.166-.25.5-.25.333 0 .5-.084.5-.25 0-.138.112-.25.25-.25.137 0 .25-.113.25-.25 0-.138.112-.25.25-.25.166 0 .25-.167.25-.5 0-.334.083-.5.25-.5.166 0 .25-.167.25-.5 0-.334.083-.5.25-.5.166 0 .25-.167.25-.5 0-.334.083-.5.25-.5.21 0 .25-.38.25-2.417s-.04-2.417-.25-2.417c-.186 0-.25-.194-.25-.75 0-.555-.065-.75-.25-.75-.167 0-.25-.166-.25-.5 0-.333-.084-.5-.25-.5-.138 0-.25-.112-.25-.25 0-.137-.113-.25-.25-.25-.138 0-.25-.112-.25-.25 0-.137-.113-.25-.25-.25-.138 0-.25-.112-.25-.25 0-.137-.113-.25-.25-.25-.138 0-.25-.112-.25-.25 0-.137-.113-.25-.25-.25-.138 0-.25-.112-.25-.25 0-.166-.167-.25-.5-.25-.334 0-.5-.083-.5-.25 0-.185-.195-.25-.75-.25-.556 0-.75-.064-.75-.25 0-.21-.38-.25-2.417-.25-2.194 0-2.417.027-2.417.293 0 .245-.123.283-.75.233-.601-.047-.75-.006-.75.208 0 .146-.112.266-.25.266-.137 0-.25.113-.25.25 0 .167-.166.25-.5.25-.333 0-.5.084-.5.25 0 .138-.112.25-.25.25-.137 0-.25.113-.25.25 0 .138-.112.25-.25.25-.137 0-.25.113-.25.25 0 .138-.112.25-.25.25-.137 0-.25.113-.25.25 0 .139-.148.25-.333.25-.185 0-.333-.111-.333-.25 0-.166-.167-.25-.5-.25-.334 0-.5-.083-.5-.25 0-.137-.113-.25-.25-.25-.138 0-.25-.112-.25-.25 0-.166-.167-.25-.5-.25-.334 0-.5-.083-.5-.25 0-.166-.167-.25-.5-.25-.334 0-.5-.083-.5-.25 0-.166-.167-.25-.5-.25-.334 0-.5-.083-.5-.25 0-.137-.113-.25-.25-.25-.138 0-.25-.121-.25-.269 0-.201-.112-.248-.438-.186-.33.063-.457.007-.519-.231-.057-.216-.232-.314-.563-.314-.305 0-.48-.086-.48-.237 0-.131-.132-.273-.292-.314-.278-.073-.278-.078 0-.096.243-.016.292-.185.292-1.019 0-.778.055-1 .25-1 .202 0 .25-.269.25-1.417 0-1.148-.048-1.417-.25-1.417-.195 0-.25-.222-.25-1 0-.777-.056-1-.25-1-.167 0-.25-.166-.25-.5 0-.333-.084-.5-.25-.5-.138 0-.25-.112-.25-.25 0-.137-.113-.25-.25-.25-.167 0-.25-.166-.25-.5 0-.333-.084-.5-.25-.5-.138 0-.25-.121-.25-.269 0-.204-.121-.251-.5-.195-.4.059-.5.012-.5-.231 0-.168-.113-.305-.25-.305-.138 0-.25-.112-.25-.25 0-.166-.167-.25-.5-.25-.334 0-.5-.083-.5-.25 0-.185-.195-.25-.75-.25-.545 0-.75-.066-.75-.242 0-.197-.354-.242-1.917-.245-1.577-.002-1.917.04-1.917.242 0 .18-.201.245-.75.245-.555 0-.75.065-.75.25 0 .167-.166.25-.5.25-.333 0-.5.084-.5.25 0 .167-.166.25-.5.25-.333 0-.5.084-.5.25 0 .138-.112.25-.25.25-.137 0-.25.113-.25.25 0 .138-.112.25-.25.25-.137 0-.25.113-.25.25 0 .138-.112.25-.25.25-.137 0-.25.113-.25.25 0 .139-.148.25-.333.25-.196 0-.333-.111-.333-.269 0-.204-.121-.251-.5-.195-.4.059-.5.012-.5-.231 0-.168-.113-.305-.25-.305-.138 0-.25-.112-.25-.25 0-.166-.167-.25-.5-.25-.334 0-.5-.083-.5-.25 0-.166-.167-.25-.5-.25-.334 0-.5-.083-.5-.25 0-.166-.167-.25-.5-.25-.334 0-.5-.083-.5-.25 0-.137-.113-.25-.25-.25-.138 0-.25-.121-.25-.269 0-.201-.112-.248-.438-.186-.33.063-.457.007-.519-.231-.057-.216-.232-.314-.563-.314-.316 0-.48-.085-.48-.25 0-.137-.113-.25-.25-.25-.138 0-.25-.107-.25-.237 0-.131-.132-.273-.292-.314-.278-.073-.278-.078 0-.096.412-.027.453-5.353.042-5.353-.186 0-.25-.194-.25-.75 0-.555-.065-.75-.25-.75-.167 0-.25-.166-.25-.5 0-.333-.084-.5-.25-.5-.138 0-.25-.112-.25-.25 0-.137-.113-.25-.25-.25-.138 0-.25-.112-.25-.25 0-.137-.113-.25-.25-.25-.138 0-.25-.112-.25-.25 0-.137-.113-.25-.25-.25-.138 0-.25-.117-.25-.26 0-.148-.126-.248-.292-.231-.539.055-.708-.007-.708-.259 0-.166-.167-.25-.5-.25-.275 0-.5-.075-.5-.166C54.667.061 53.5 0 51.5 0c-2.52 0-3.167.045-3.167.221m71.5 58.529v35.417h15.834v-25h5.083c4.407 0 5.083.033 5.083.25 0 .137.113.25.25.25.167 0 .25.166.25.5 0 .333.084.5.25.5.167 0 .25.166.25.5 0 .333.084.5.25.5.138 0 .25.112.25.25 0 .137.113.25.25.25.167 0 .25.166.25.5 0 .333.084.5.25.5.167 0 .25.166.25.5 0 .333.084.5.25.5.167 0 .25.166.25.5 0 .333.084.5.25.5.167 0 .25.166.25.5 0 .333.084.5.25.5.167 0 .25.166.25.5 0 .333.084.5.25.5.138 0 .25.112.25.25 0 .137.137.25.305.25.243 0 .29.1.231.5-.056.379-.009.5.195.5.188 0 .269.151.269.5 0 .333.084.5.25.5.167 0 .25.166.25.5 0 .333.084.5.25.5.167 0 .25.166.25.5 0 .333.084.5.25.5.138 0 .25.112.25.25 0 .137.113.25.25.25.167 0 .25.166.25.5 0 .333.084.5.25.5.167 0 .25.166.25.5 0 .333.084.5.25.5.167 0 .25.166.25.5 0 .333.084.5.25.5.167 0 .25.166.25.5 0 .333.084.5.25.5.167 0 .25.166.25.5 0 .333.084.5.25.5.138 0 .25.112.25.25 0 .137.137.25.305.25.243 0 .29.1.231.5-.056.379-.009.5.195.5.188 0 .269.151.269.5 0 .333.084.5.25.5.167 0 .25.166.25.5 0 .333.084.5.25.5.167 0 .25.166.25.5 0 .333.084.5.25.5.138 0 .25.112.25.25 0 .137.113.25.25.25.167 0 .25.166.25.5 0 .333.084.5.25.5.167 0 .25.166.25.5v.5h17.834v-.917c0-.704-.058-.917-.25-.917-.138 0-.25-.112-.25-.25 0-.137-.113-.25-.25-.25-.167 0-.25-.166-.25-.5 0-.333-.084-.5-.25-.5-.252 0-.314-.169-.259-.708.017-.166-.083-.292-.231-.292-.143 0-.26-.112-.26-.25 0-.137-.113-.25-.25-.25-.167 0-.25-.166-.25-.5 0-.333-.084-.5-.25-.5-.252 0-.314-.169-.259-.708.017-.166-.083-.292-.231-.292-.143 0-.26-.112-.26-.25 0-.137-.113-.25-.25-.25-.167 0-.25-.166-.25-.5 0-.333-.084-.5-.25-.5-.167 0-.25-.166-.25-.5 0-.333-.084-.5-.25-.5-.138 0-.25-.112-.25-.25 0-.137-.113-.25-.25-.25-.167 0-.25-.166-.25-.5 0-.333-.084-.5-.25-.5-.167 0-.25-.166-.25-.5 0-.333-.084-.5-.25-.5-.138 0-.25-.112-.25-.25 0-.137-.113-.25-.25-.25-.167 0-.25-.166-.25-.5 0-.333-.084-.5-.25-.5-.167 0-.25-.166-.25-.5 0-.333-.084-.5-.25-.5-.138 0-.25-.112-.25-.25 0-.137-.113-.25-.25-.25-.167 0-.25-.166-.25-.5 0-.333-.084-.5-.25-.5-.167 0-.25-.166-.25-.5 0-.333-.084-.5-.25-.5-.167 0-.25-.166-.25-.5 0-.333-.084-.5-.25-.5-.138 0-.25-.112-.25-.25 0-.137-.113-.25-.25-.25-.167 0-.25-.166-.25-.5 0-.333-.084-.5-.25-.5-.167 0-.25-.166-.25-.5 0-.333-.084-.5-.25-.5-.138 0-.25-.112-.25-.25 0-.137-.113-.25-.25-.25-.167 0-.25-.166-.25-.5 0-.333-.084-.5-.25-.5-.252 0-.314-.169-.259-.708.017-.166-.083-.292-.231-.292-.143 0-.26-.112-.26-.25 0-.137-.113-.25-.25-.25-.167 0-.25-.166-.25-.5 0-.333-.084-.5-.25-.5-.252 0-.314-.169-.259-.708.017-.166-.083-.292-.231-.292-.143 0-.26-.112-.26-.25 0-.137-.113-.25-.25-.25-.175 0-.25-.176-.25-.583 0-.58.004-.583.75-.583.555 0 .75-.065.75-.25 0-.186.194-.25.75-.25.555 0 .75-.065.75-.25 0-.167.166-.25.5-.25.333 0 .5-.084.5-.25 0-.252.169-.314.708-.259.166.017.292-.083.292-.231 0-.143.112-.26.25-.26.137 0 .25-.113.25-.25 0-.167.166-.25.5-.25.333 0 .5-.084.5-.25 0-.138.112-.25.25-.25.137 0 .25-.113.25-.25 0-.138.112-.25.25-.25.137 0 .25-.113.25-.25 0-.138.112-.25.25-.25.137 0 .25-.113.25-.25 0-.138.112-.25.25-.25.137 0 .25-.113.25-.25 0-.138.112-.25.25-.25.137 0 .25-.113.25-.25 0-.138.112-.25.25-.25.137 0 .25-.113.25-.25 0-.138.112-.25.25-.25.137 0 .25-.113.25-.25 0-.138.112-.25.25-.25.137 0 .25-.113.25-.25 0-.138.112-.25.25-.25.166 0 .25-.167.25-.5 0-.334.083-.5.25-.5.137 0 .25-.113.25-.25 0-.138.112-.25.25-.25.166 0 .25-.167.25-.5 0-.334.083-.5.25-.5.166 0 .25-.167.25-.5 0-.344.082-.5.262-.5.169 0 .251-.133.231-.375-.064-.789.013-1.125.257-1.125.185 0 .25-.195.25-.75 0-.556.064-.75.25-.75.2 0 .25-.25.25-1.25s.05-1.25.25-1.25c.361 0 .356-7.914-.005-8.917-.132-.367-.241-1.173-.243-1.792-.002-.887-.055-1.125-.252-1.125-.186 0-.25-.194-.25-.75 0-.555-.065-.75-.25-.75-.186 0-.25-.194-.25-.75 0-.555-.065-.75-.25-.75-.167 0-.25-.166-.25-.5 0-.333-.084-.5-.25-.5-.167 0-.25-.166-.25-.5 0-.333-.084-.5-.25-.5-.167 0-.25-.166-.25-.5 0-.333-.084-.5-.25-.5-.138 0-.25-.112-.25-.25 0-.137-.113-.25-.25-.25-.138 0-.25-.112-.25-.25 0-.137-.113-.25-.25-.25-.167 0-.25-.166-.25-.5 0-.333-.084-.5-.25-.5-.138 0-.25-.112-.25-.25 0-.137-.113-.25-.25-.25-.138 0-.25-.112-.25-.25 0-.137-.113-.25-.25-.25-.138 0-.25-.112-.25-.25 0-.137-.113-.25-.25-.25-.138 0-.25-.112-.25-.25 0-.137-.113-.25-.25-.25-.138 0-.25-.112-.25-.25 0-.137-.113-.25-.25-.25-.138 0-.25-.121-.25-.269 0-.204-.121-.251-.5-.195-.4.059-.5.012-.5-.231 0-.168-.113-.305-.25-.305-.138 0-.25-.112-.25-.25 0-.137-.113-.25-.25-.25-.138 0-.25-.112-.25-.25 0-.166-.167-.25-.5-.25-.334 0-.5-.083-.5-.25 0-.166-.167-.25-.5-.25-.334 0-.5-.083-.5-.25 0-.166-.167-.25-.5-.25-.334 0-.5-.083-.5-.25 0-.185-.195-.25-.75-.25-.556 0-.75-.064-.75-.25 0-.185-.195-.25-.75-.25-.556 0-.75-.064-.75-.25 0-.194-.223-.25-1-.25-.8 0-1-.052-1-.262 0-.198-.155-.256-.625-.234-2.017.093-3.375-.009-3.375-.254 0-.22-2.074-.25-17.667-.25h-17.667V58.75m33-21.333c0 .194.223.25 1 .25.778 0 1 .055 1 .25 0 .166.167.25.5.25.334 0 .5.083.5.25 0 .166.167.25.5.25.334 0 .5.083.5.25 0 .137.113.25.25.25.138 0 .25.112.25.25 0 .137.113.25.25.25.138 0 .25.112.25.25 0 .137.113.25.25.25.138 0 .25.112.25.25 0 .137.113.25.25.25.138 0 .25.112.25.25 0 .137.113.25.25.25.138 0 .25.112.25.25 0 .137.113.25.25.25.167 0 .25.166.25.5 0 .333.084.5.25.5.186 0 .25.194.25.75 0 .542.067.75.241.75.194 0 .25.4.291 2.062.059 2.365.032 2.604-.294 2.604-.153 0-.238.178-.238.5 0 .334-.083.5-.25.5-.166 0-.25.167-.25.5 0 .334-.083.5-.25.5-.166 0-.25.167-.25.5 0 .334-.083.5-.25.5-.137 0-.25.113-.25.25 0 .138-.112.25-.25.25-.137 0-.25.113-.25.25 0 .138-.112.25-.25.25-.137 0-.25.113-.25.25 0 .138-.112.25-.25.25-.137 0-.25.137-.25.305 0 .243-.1.29-.5.231-.379-.056-.5-.009-.5.195 0 .188-.151.269-.5.269-.368 0-.5.078-.5.297 0 .248-.125.29-.75.253-.571-.033-.75.015-.75.203 0 .215-1.171.247-9.083.247h-9.083V37.167h8.583c7.519 0 8.583.031 8.583.25"/><path fill="#5c5c74" d="M35.833 41.821c0 .269.113.601.25.739.138.137.25.33.25.428 0 .098.113.179.25.179.138 0 .25.112.25.25 0 .155.158.25.417.25s.417-.095.417-.25c0-.138-.103-.25-.228-.25-.278 0-1.106-1.161-1.106-1.551 0-.155-.112-.283-.25-.283-.165 0-.25.166-.25.488m-13.561 7.721c.068.114.249.299.402.409.153.111.374.542.491.959.262.935.502.978.502.09 0-.481-.07-.667-.25-.667-.167 0-.25-.166-.25-.5 0-.446-.055-.5-.51-.5-.363 0-.474.06-.385.209"/><path fill="#14b0a8" d="M176.435 42.25c.137.613.233.746.229.319-.001-.175-.079-.432-.172-.569-.123-.183-.139-.115-.057.25M58.35 63.838c-.192.37-.343.839-.333 1.042.015.349.023.351.13.037.223-.652.603-1.337.851-1.537.223-.179.22-.203-.023-.208-.155-.003-.427.288-.625.666"/></g></svg>