<svg xmlns="http://www.w3.org/2000/svg" role="img" viewBox="11.25 -8.25 377.25 416.00"><title>RapidMiner (Workflows) logo</title><g fill-rule="evenodd"><path fill="#848c8c" d="M235.766 44c0 4.07.059 5.735.132 3.7.073-2.035.073-5.365 0-7.4s-.132-.37-.132 3.7m-.009 20c0 2.97.063 4.185.14 2.7.077-1.485.077-3.915 0-5.4-.077-1.485-.14-.27-.14 2.7m-.007 15c.001 2.42.066 3.358.146 2.085.08-1.273.079-3.253-.002-4.4-.08-1.147-.145-.105-.144 2.315m.016 15c0 4.07.059 5.735.132 3.7.073-2.035.073-5.365 0-7.4s-.132-.37-.132 3.7m-.009 20c0 2.97.063 4.185.14 2.7.077-1.485.077-3.915 0-5.4-.077-1.485-.14-.27-.14 2.7m143.936 0c0 .77.082 1.085.183.7.1-.385.1-1.015 0-1.4-.101-.385-.183-.07-.183.7m-143.931 17c0 3.52.062 4.906.136 3.081.074-1.825.074-4.705-.001-6.4-.075-1.695-.136-.201-.135 3.319m-.005 15c0 2.97.063 4.185.14 2.7.077-1.485.077-3.915 0-5.4-.077-1.485-.14-.27-.14 2.7m0 18c0 2.97.063 4.185.14 2.7.077-1.485.077-3.915 0-5.4-.077-1.485-.14-.27-.14 2.7m0 16c0 2.97.063 4.185.14 2.7.077-1.485.077-3.915 0-5.4-.077-1.485-.14-.27-.14 2.7m-36.077 5.68c-.3.3-.48 1.786-.48 3.955v3.476l-1.389.26c-1.807.34-2.611 1.546-2.611 3.918 0 1.649-.111 1.911-.806 1.911-1.12 0-3.168 2.362-3.182 3.671-.007.656-.399 1.376-1.012 1.858-.55.432-1 1.155-1 1.607 0 .695-.29.839-1.9.942-1.32.085-1.866.284-1.79.652.06.291-.062.423-.273.293-.478-.295-1.637 1.309-1.637 2.266 0 .547-.347.722-1.5.757-2.524.078-2.7.132-2.705.826-.007.932-.22 1.074-2.018 1.35-1.833.281-3.51 1.239-3.16 1.805.133.216.008.343-.278.283-.286-.061-.582.295-.657.79-.121.793-.372.9-2.103.9-2.018 0-2.686.391-5.462 3.195-.541.547-1.284.997-1.651 1-.366.003-.668.307-.671.677-.008 1.013-.267 1.124-2.753 1.182-2.697.062-3.547.693-3.367 2.499.124 1.235.105 1.248-1.875 1.352-2.68.14-3.8.42-3.8.952 0 .28.255.241.7-.108.633-.497.648-.483.155.147-.3.382-.705.597-.9.476-.195-.121-.355-.029-.355.204 0 .233-.353.424-.784.424-.431 0-1.626.9-2.655 2-1.606 1.718-2.084 2-3.383 2-1.772 0-2.778.323-2.778.892 0 .223.315.159.7-.143.633-.497.648-.483.155.147-.3.382-.705.597-.9.476-.195-.121-.355-.029-.355.204 0 .233-.775.424-1.722.424-1.857 0-4.278 1.878-4.278 3.319 0 .551-.384.681-2.018.681-1.62 0-2.216.198-3.018 1-.55.55-1.226 1-1.502 1-.785 0-1.462.871-1.462 1.88 0 .747-.217.92-1.151.92-.633 0-1.375.27-1.649.6-.274.33-1.061.601-1.749.603-1.32.003-3.051 1.887-3.051 3.322 0 .559-.416.675-2.419.675-2.031 0-2.56.152-3.3.949-.527.568-1.589 1.068-2.645 1.246-1.94.327-3.636 1.708-3.636 2.96 0 .566-.313.828-1.1.918-.788.091-1.136.383-1.228 1.027-.114.806-.365.905-2.4.946-3.881.079-3.525-.181-3.626 2.654l-.046 1.3h-2.819c-2.547 0-2.907.101-3.723 1.05-.57.663-1.311 1.05-2.011 1.05-.81 0-1.599.525-2.932 1.95-1.483 1.585-2.076 1.95-3.17 1.95-1.148 0-1.345.139-1.345.948 0 .825-.231.974-1.774 1.148-2.101.237-4.172 1.717-4.204 3.004-.02.83-.207.9-2.393.9-2.503 0-3.629.61-3.629 1.967 0 1.069-1.304 2.033-2.75 2.033-.831 0-1.632.346-2.264.978-.708.708-1.504 1.012-2.882 1.1l-1.904.122-.122 1.9-.122 1.9h-2.978c-2.91 0-2.978.023-2.978 1 0 .935-.132 1-2.024 1-1.231 0-1.928.155-1.779.395.135.218-.006.3-.312.182-.706-.271-1.651.831-1.258 1.467.188.304.127.375-.165.194-.303-.187-.462.067-.462.738 0 1.01-.043 1.024-3.067 1.024-1.686 0-2.952.114-2.813.253.139.139-.174.589-.697 1-1.615 1.271-8.295 1.09-9.352-.253-.432-.55-1.157-1-1.61-1-1.042 0-2.962-1.888-3.027-2.976-.032-.533-.303-.803-.768-.764-.411.034-.909-.356-1.161-.91-.688-1.508-4.326-1.78-5.813-.434-1.579 1.43-1.93 8.722-.478 9.948.473.4.786 1.163.786 1.919 0 .813.34 1.57.964 2.149.807.747.987 1.349 1.1 3.681.091 1.855.303 2.804.636 2.837.275.028 1.122.073 1.882.1l1.383.05.117 2.9c.108 2.661.192 2.911 1.018 3.028.54.077.9.406.9.825 0 1.017 2.024 2.792 3.527 3.092.713.143 1.611.659 1.995 1.147.604.767 1.126.898 3.882.971 3.347.088 4.596.651 4.596 2.07 0 1.743.807 1.924 8.623 1.929 8.258.006 8.977-.216 8.977-2.762v-1.2h3.8c2.09 0 3.935-.002 4.1-.004.165-.003.391 2.326.502 5.174l.201 5.178 1.899 1.819c1.815 1.74 1.898 1.916 1.898 4.026 0 2.592.894 3.807 2.8 3.807 1.013 0 1.2.156 1.2 1 0 .8.2 1 1 1 .891 0 1 .165 1 1.52 0 1.909.564 2.48 2.452 2.48 1.243 0 1.514.15 1.62.9.123.861.313.905 4.428 1.014l4.3.113v1.158c0 2.331 1.265 2.769 8 2.769 6.746 0 8-.436 8-2.783V344.8h8.747l.166-1.1c.092-.605.212 1.06.266 3.7.143 6.878.125 6.758 1.073 7.174.673.296.899.839 1.081 2.6.252 2.446 1.199 3.626 2.911 3.626.9 0 .956.138.956 2.371 0 2.604.667 3.722 2.151 3.607 1.621-.127 1.849.024 1.849 1.222 0 1.905 1.215 2.8 3.8 2.8 2.08 0 2.2.055 2.2 1v1h8.8v1.171c0 2.034 1.473 2.789 5.44 2.789 1.86 0 3.287-.154 3.171-.343-.117-.188.148-.248.588-.133 1.099.287 2.779-.901 3.271-2.314l.408-1.17h5.361c4.965 0 5.361.055 5.361.746 0 .41.354 1.196.787 1.747.67.851.804 1.741.9 5.954.106 4.632.169 4.977.974 5.331.598.262.941.876 1.12 2 .271 1.707 1.739 4.237 2.419 4.168 1.074-.109 1.4.136 1.4 1.054 0 .933.133 1 2 1h2l.047 1.7c.026.935.026 1.835 0 2-.026.165.088.279.253.253 1.103-.175 2.1.133 2.1.647 0 .524 2.178.6 17.2.6 14.24 0 17.2-.094 17.2-.544 0-.357.707-.628 2.051-.787 2.561-.304 3.908-1.162 4.213-2.687.196-.98.432-1.182 1.386-1.182.96 0 1.15-.165 1.15-1 0-.984 1.721-1.329 5.2-1.043.691.057 2.4-2.279 2.4-3.282 0-.552.404-.675 2.224-.675 1.363 0 2.129-.153 1.979-.395-.135-.218-.002-.303.294-.189.297.114.931-.245 1.411-.796.482-.555 1.126-.905 1.441-.784.344.132 1.315-.58 2.464-1.809 1.552-1.658 2.141-2.027 3.242-2.027 1.148 0 1.345-.139 1.345-.948 0-.825.231-.974 1.774-1.148 2.101-.237 4.172-1.717 4.204-3.004.02-.837.201-.9 2.568-.9 3.085 0 4.654-.954 4.654-2.829 0-1.074.117-1.171 1.418-1.171.971 0 1.727-.308 2.396-.978.708-.708 1.504-1.012 2.882-1.1l1.904-.122.122-1.9.122-1.9h2.978c2.91 0 2.978-.023 2.978-1 0-.935.132-1 2.024-1 1.231 0 1.928-.155 1.779-.395-.137-.221.011-.298.335-.174.717.276 1.862-1.274 1.862-2.52 0-.816.192-.911 1.842-.911 1.489 0 1.994-.192 2.629-1 .589-.748 1.164-1 2.282-1 2.282 0 3.107-.842 3.216-3.282.026-.567.525-.703 2.931-.8l2.9-.118.122-1.9.122-1.9h2.145c2.365 0 3.411-.273 3.411-.892 0-.223-.315-.159-.7.143-.633.497-.648.483-.155-.147.3-.382.69-.606.866-.497.176.109.381.032.455-.17.074-.202.944-.434 1.934-.515 1.028-.085 1.821-.356 1.85-.635.028-.268.073-1.117.1-1.887l.05-1.4h3c2.933 0 3-.022 3-1 0-.855.189-1.005 1.3-1.032 3.802-.096 4.417-.403 4.555-2.275.044-.601.095-1.228.113-1.393.017-.165.934-.3 2.036-.3 1.673 0 2.207-.195 3.24-1.182.922-.881 1.506-1.133 2.296-.989 1.492.271 2.134-.299 2.329-2.069.211-1.914.033-1.788 2.65-1.876 1.216-.041 2.126-.212 2.022-.379-.104-.168-.013-.305.202-.305.215 0 .462.216.55.48.125.374.226.374.457 0 .164-.264.107-.48-.126-.48-.233 0-.424-.191-.424-.424 0-.233.18-.312.4-.176.22.136.4.057.4-.176 0-.233.315-.427.7-.43.588-.005.606-.066.111-.379-.38-.24-.685-.219-.856.057-.146.237-.459.311-.696.164-.639-.394-.108-3.495.76-4.439.406-.442.973-1.515 1.26-2.386.408-1.239.794-1.661 1.778-1.943.895-.256 1.444-.778 1.905-1.814.751-1.685 2.844-4.818 4.614-6.907.835-.985 1.378-2.209 1.685-3.8.249-1.291.815-2.748 1.257-3.238.442-.489 1.03-2.019 1.307-3.4.277-1.38.896-3.769 1.375-5.309 2.187-7.026 2.311-31.457.165-32.47-.755-.355-.947-.318-1.048.205-.1.52-.297.455-1.053-.348l-.929-.987.071 1.6c.18 4.044-.001 5.8-.6 5.8-.326 0-1.177.522-1.891 1.159-1.32 1.18-1.363 1.354-1.496 6.113-.011.385-.404.727-.919.8-.768.109-.918.407-1.022 2.028-.084 1.311-.297 1.9-.686 1.9-1.45 0-3.392 2.428-3.392 4.241 0 1.61-.085 1.759-1 1.759-.8 0-1 .2-1 1 0 1.01-.356 1.171-2.26 1.021-1.079-.085-3.74 2.206-3.74 3.22 0 .591-.31.77-1.4.809-2.235.08-2.397.123-2.45.65-.028.275-.072 1.13-.1 1.9l-.05 1.4h-3c-2.933 0-3 .022-3 1 0 .855-.189 1.005-1.3 1.032-3.845.097-4.7.614-4.7 2.844 0 1.083-.073 1.124-2.018 1.124-1.62 0-2.216.198-3.018 1-.719.719-1.432 1-2.533 1-1.801 0-2.316.512-2.353 2.341-.034 1.701.186 1.578-3.082 1.729-2.297.107-2.797.25-2.801.802-.007.961-.26 1.111-2.173 1.296-1.88.181-4.022 1.836-4.022 3.107 0 .661-1.452 1.032-2.955.754-.453-.084-2.269 1.608-2.072 1.929.082.133-.4.282-1.07.33-1.714.125-3.897 1.698-3.9 2.812-.003.925-.719 1.105-3.65.918-1.448-.093-2.431 1.001-2.278 2.535L273.4 327l-2.342.208c-1.781.158-2.515.422-3.064 1.1-.465.574-1.162.892-1.958.892-1.568 0-2.836 1.243-2.836 2.782 0 1.18-.003 1.182-2.7 1.3-2.314.101-2.754.24-3.076.975-.278.632-.835.908-2.131 1.054-1.898.214-4.093 1.886-4.093 3.118 0 .498-.475.751-1.772.946-.974.146-2.273.66-2.885 1.141-.612.482-1.456.818-1.875.747-.929-.158-3.468 2.196-3.468 3.215 0 .608-.346.722-2.2.722-2.585 0-3.8.895-3.8 2.8 0 1.189-.02 1.2-2.219 1.2-1.853 0-2.372.165-3.146 1-.51.55-1.214 1-1.565 1s-1.48.9-2.509 2c-1.536 1.643-2.114 2-3.234 2-.921 0-1.688.324-2.363 1-.755.754-1.42 1-2.707 1-1.839 0-3.484 1.263-4.039 3.1-.225.744-.558.9-1.923.9-1.225 0-1.926.263-2.715 1.02-.586.56-1.586 1.06-2.222 1.109-1.182.092-1.227.179-1.312 2.571l-.046 1.3h-3c-2.889 0-3 .035-3 .948 0 .825-.231.974-1.774 1.148-1.682.19-3.021.951-5.264 2.993-.841.766-1.464.897-4.47.944-4.061.063-4.48.295-4.528 2.516l-.036 1.651-.393-1.4c-.584-2.076-1.209-2.498-3.976-2.683-1.665-.111-2.823-.424-3.481-.942-.542-.426-1.312-.775-1.711-.775-.593 0-.747-.383-.846-2.1-.108-1.879-.226-2.12-1.121-2.293-.55-.106.35-.286 2-.4 2.733-.189 3.011-.287 3.128-1.107.073-.513.417-.91.8-.924 3.918-.137 5.272-.913 5.272-3.02 0-.882.157-.956 2.024-.956 1.231 0 1.928-.155 1.779-.395-.138-.224.015-.296.352-.167.351.135.811-.114 1.117-.605.326-.522.939-.833 1.642-.833 1.412 0 3.086-1.617 3.086-2.982 0-.994 1.685-1.399 4.33-1.041.956.129 1.644-.828 1.592-2.216-.067-1.757-.12-1.723 2.902-1.851 2.233-.095 2.629-.23 2.971-1.01.305-.695.725-.9 1.846-.9 1.931 0 3.559-1.285 3.559-2.809 0-1.121.061-1.154 2.3-1.271 2.037-.106 2.315-.223 2.428-1.02.113-.796.358-.9 2.118-.9 2.303 0 3.954-1.245 3.954-2.982 0-.956.123-1.018 2.018-1.018 1.62 0 2.216-.198 3.018-1 .55-.55 1.345-1 1.766-1 .421 0 1.608-.9 2.637-2 1.627-1.74 2.074-2 3.435-2 1.155 0 1.807-.262 2.491-1 .51-.55 1.117-1 1.35-1 .233 0 1.008-.492 1.723-1.093.715-.602 1.494-1.114 1.731-1.14.237-.025.656-.073.931-.106.275-.034.5-.263.5-.51 0-.294-.242-.259-.7.1-.633.497-.648.483-.155-.147.3-.382.705-.597.9-.476.195.121.355.049.355-.159 0-.208.833-.503 1.85-.656 2.047-.306 3.75-1.667 3.75-2.995 0-.642.258-.818 1.2-.818 1.013 0 1.2-.156 1.2-1 0-.973.078-1 2.836-1 3.081 0 3.903-.494 4.822-2.9.38-.996.608-1.1 2.405-1.1 1.206 0 1.888-.155 1.74-.395-.138-.224.015-.296.352-.167.351.135.811-.114 1.117-.605.335-.536.938-.833 1.691-.833.644 0 1.07-.101.946-.224-.545-.546 3.588-3.776 4.832-3.776 1.076 0 1.259-.145 1.259-1 0-1.026.836-1.276 3.5-1.047.59.051.9-.143.9-.561 0-.405-.183-.529-.5-.339-.363.218-.355.121.029-.352.291-.36.792-.553 1.112-.43.339.13 1.081-.298 1.774-1.024.737-.771 1.589-1.247 2.232-1.247.909 0 1.008-.125.789-1-.169-.672-.085-1.002.256-1.006.325-.004.359-.112.095-.3-.55-.391-.502-1.139.113-1.754.275-.275.5-.787.5-1.139 0-.351.72-1.342 1.6-2.201.88-.859 1.6-1.764 1.6-2.011 0-.247.451-.873 1.002-1.391.552-.518 1.547-1.906 2.212-3.084.664-1.178 1.654-2.344 2.199-2.593.67-.305 1.132-.981 1.426-2.086.238-.899.957-2.431 1.597-3.404.64-.972 1.164-2.061 1.164-2.419 0-.357.613-1.847 1.362-3.311.75-1.463 1.556-3.561 1.792-4.662.694-3.234 1.028-22.482.455-26.239-.268-1.76-.581-4.037-.695-5.06-.205-1.833-.229-1.86-1.661-1.862-2.233-.004-2.37.291-2.424 5.216-.027 2.453-.09 4.498-.139 4.545-.05.047-.716.183-1.48.303-1.839.287-2.41 1.171-2.41 3.734 0 1.999-.059 2.124-1 2.124-.8 0-1 .2-1 1 0 .598-.229 1-.569 1-.88 0-2.916 1.887-3.183 2.951-.132.524-.615 1.052-1.073 1.172-.459.119-.932.591-1.051 1.047-.12.457-.442.83-.717.83-.763 0-2.646 1.614-2.381 2.042.128.208-.001.328-.287.268-.286-.061-.579.276-.652.748-.104.676-.503.914-1.881 1.12-.962.145-2.196.613-2.741 1.042-.545.429-1.189.78-1.43.78-.241 0-1.32.9-2.397 2-1.76 1.797-2.136 2-3.709 2-2.214 0-3.426.842-3.758 2.611-.259 1.383-.27 1.389-2.435 1.389-1.805 0-2.331.17-3.101 1-.51.55-1.214 1-1.565 1s-1.48.9-2.509 2c-1.527 1.633-2.118 2-3.216 2-1.168 0-1.345.132-1.345 1 0 .965-.091 1-2.631 1-2.88 0-4.969 1.333-4.969 3.169 0 .726-.243.831-1.925.831-1.606 0-2.111.194-3.046 1.17-.617.643-1.372 1.073-1.68.955-.789-.303-1.749.609-1.749 1.662 0 1.424-1.178 2.155-3.633 2.254l-2.224.09-.095 1.824c-.115 2.224.265 1.964-3.048 2.084-2.382.086-2.904.239-3.527 1.031-.514.654-1.143.93-2.12.93-1.416 0-2.322.691-3.872 2.951-.541.791-1.059 1.049-2.1 1.049-1.2 0-1.381.129-1.381.982 0 .943-.119.988-2.9 1.1l-2.9.118-.122 1.9-.122 1.9-2.278.046c-3.402.069-3.478.09-3.478.954 0 .663-.309.822-1.8.926-1.995.139-3.758 1.455-4.175 3.118-.213.848-.465.956-2.233.956-1.83 0-1.992.077-1.992.949 0 .807-.254.989-1.7 1.219-2.229.355-4.294 1.763-4.297 2.932-.003.786-.217.904-1.703.933-3.662.072-4.361.428-4.258 2.167.092 1.575-.064 1.703-2.308 1.889-1.669.138-2.446.409-2.947 1.027-.487.602-1.233.875-2.633.964-2.055.13-2.017.084-2.108 2.602l-.046 1.283-2.9.117c-2.661.108-2.911.192-3.028 1.018-.109.772-.369.9-1.821.9-1.83 0-4.251 1.89-4.251 3.319 0 .59-2.695 1.06-3.333.581-.073-.055-.578.417-1.121 1.049-.727.844-1.398 1.173-2.537 1.242-1.752.107-3.009 1.298-3.009 2.853 0 .943-.054.956-3.911.956-4.506 0-5.453.419-5.861 2.59-.396 2.111-2.628 2.144-2.628.039 0-1.66-.939-2.702-2.353-2.611-2.943.188-3.647.009-3.647-.929 0-1.416-1.088-2.632-2.611-2.918-1.205-.225-1.389-.413-1.389-1.416 0-1.134 2.012-1.598 5.124-1.179.289.038.878-.379 1.31-.928.484-.616 1.28-1.047 2.076-1.123.815-.079 1.25-.32 1.18-.655-.06-.291.045-.434.235-.316.19.117 1.041-.5 1.891-1.371 1.183-1.211 1.856-1.583 2.865-1.583 1.121 0 1.319-.142 1.319-.948 0-.825.231-.974 1.774-1.148 2.101-.237 4.172-1.717 4.204-3.004.019-.783.243-.904 1.722-.933 3.662-.072 4.361-.428 4.258-2.167-.1-1.704.01-1.8 2.06-1.8 1.607 0 2.217-.199 2.996-.978.708-.708 1.504-1.012 2.882-1.1l1.904-.122.122-1.9.122-1.9 2.378-.05c3.283-.069 3.372-.086 3.428-.65.028-.275.072-.67.1-.878.028-.208.905-.433 1.95-.5 1.443-.093 1.868-.266 1.767-.722-.074-.33.003-.463.17-.296.434.434 2.163-1.303 2.163-2.174 0-.656 1.916-1.059 3.7-.777.165.026.279-.088.253-.253-.214-1.351.117-1.607 2.313-1.789 2.497-.207 3.734-1.186 3.734-2.955 0-.927 1.765-1.326 4.33-.979.831.112 1.716-.825 1.646-1.743-.167-2.157-.091-2.234 2.191-2.234 2.386 0 3.433-.272 3.433-.892 0-.223-.315-.159-.7.143-.633.497-.648.483-.155-.147.3-.382.69-.606.866-.497.176.109.381.026.455-.185.074-.211.944-.44 1.934-.509 1.886-.131 1.865-.102 1.954-2.613l.046-1.3h3c2.933 0 3-.022 3-1 0-.927.139-1 1.911-1 2.112 0 3.877-.933 3.52-1.862-.124-.324-.047-.472.174-.335.221.137.395-.207.395-.779 0-.966.116-1.024 2.067-1.024 1.136 0 1.952-.114 1.813-.253-.493-.493 1.666-1.747 3.007-1.747 2.217 0 2.892-.763 3.08-3.482.021-.312.984-.523 2.733-.6 2.357-.103 2.75-.232 3.095-1.018.217-.495.701-.9 1.076-.9.375 0 .793-.18.929-.4.136-.22.745-.4 1.354-.4 1.461 0 3.23-1.782 2.487-2.505-.406-.396-.481-.343-.374.264.095.542-.12.781-.748.832-.829.068-.812.002.3-1.135.65-.664 1.181-1.364 1.181-1.556 0-.191.225-.212.5-.047.376.226.394.157.073-.276-.896-1.208-.652-2.777.431-2.777.783 0 .996-.204.996-.954 0-.6.408-1.219 1.1-1.67 1.374-.894 2.071-1.779 2.087-2.649.007-.37.547-1.053 1.2-1.518.652-.464 1.418-1.332 1.701-1.927.284-.595.904-1.253 1.378-1.462.475-.208 1.265-1.288 1.755-2.4.491-1.111 1.3-2.571 1.799-3.245.499-.674 1.194-1.844 1.544-2.6.351-.756 1.082-2.185 1.626-3.175.543-.99.993-2.43.999-3.2.016-1.946 1.033-7.04 1.838-9.2 1.032-2.772 1.285-17.937.393-23.6-.363-2.31-.768-5.249-.899-6.531-.203-1.993-.343-2.304-.96-2.143-.398.104-.807-.017-.91-.268-.103-.252-.202 2.107-.219 5.242l-.032 5.7h-1.52c-2.091 0-2.48.546-2.48 3.48 0 2.173-.101 2.52-.73 2.52-1.056 0-2.47 1.675-2.47 2.926 0 .591-.188 1.074-.418 1.074-.229 0-.388.225-.352.5.15 1.157-.085 1.5-1.03 1.5-.932 0-1 .135-1 1.978v1.978l-1.9.122c-1.604.103-1.919.258-2.025.997-.077.546-.454.923-1 1-.739.106-.894.421-.997 2.025l-.122 1.9-2.278.046c-3.337.068-3.477.098-3.489.754-.017.967-.569 1.582-1.203 1.339-.967-.371-2.515.209-2.78 1.041-.136.429-.598.89-1.026 1.026-.429.137-.78.438-.78.67 0 .248.289.195.7-.127.633-.497.648-.483.155.147-.3.382-.705.597-.9.476-.195-.121-.355-.029-.355.204 0 .242-.859.424-2 .424h-2v4h-3c-2.933 0-3 .022-3 1 0 .954-.109 1-2.371 1-2.791 0-3.629.607-3.629 2.629v1.371h-2.018c-1.62 0-2.216.198-3.018 1-.712.712-1.434 1-2.502 1-1.894 0-2.462.568-2.462 2.462v1.503l-2.9.117c-2.661.108-2.911.192-3.028 1.018-.107.757-.374.9-1.686.9-1.779 0-4.386 1.927-4.386 3.241 0 .647-.304.759-2.067.759-1.136 0-1.949.118-1.805.261.144.144-.274.656-.928 1.139s-1.084.983-.955 1.112c.129.128-.146.134-.611.013-1.191-.312-3.628 1.416-3.631 2.575-.003.904-1.178 1.16-4.237.924-.991-.076-1.854.839-1.749 1.852.208 1.998.077 2.124-2.184 2.124-2.386 0-3.433.272-3.433.892 0 .223.315.159.7-.143.633-.497.648-.483.155.147-.3.382-.705.597-.9.476-.195-.121-.355-.029-.355.204 0 .233-.698.424-1.551.424-1.561 0-2.559.687-2.426 1.67.291 2.151.124 2.289-2.923 2.412-2.661.108-2.911.192-3.028 1.018-.073.513-.417.91-.8.923-3.758.129-5.272.99-5.272 2.999 0 .831-.211.948-1.9 1.056-1.32.085-1.866.284-1.79.652.06.291-.054.428-.255.304-.2-.124-.587.043-.859.37-.272.328-.967.601-1.545.608-1 .011-3.71 2.029-3.605 2.684.179 1.118-.166 1.304-2.417 1.304-2.678 0-3.814.721-3.524 2.237.277 1.45-.175 1.736-2.923 1.853-2.22.095-2.636.233-2.968.989-.27.615-.872.958-2 1.139-2.349.377-3.414 1.179-3.414 2.57 0 1.13-.073 1.174-2.1 1.291-1.731.1-2.169.279-2.495 1.021-.331.754-.707.9-2.318.9-2.234 0-3.887 1.268-3.887 2.982 0 .956-.123 1.018-2.018 1.018-1.603 0-2.218.2-2.989.971-.534.534-1.381 1.029-1.882 1.1-.656.093-.946.437-1.038 1.229-.085.745-.358 1.1-.846 1.1-.395 0-1.166.352-1.712.781-.739.581-1.752.812-3.954.9-2.643.106-3.004.217-3.361 1.033-.574 1.313-6.8 1.208-6.8-.114 0-.688-.307-.817-2.2-.922-2.814-.156-3.526-.842-3.609-3.478-.095-3.063-.128-3 1.578-3 1.128 0 1.937-.309 2.874-1.098.718-.604 1.65-1.039 2.071-.968.848.144 2.788-1.446 2.444-2.002-.12-.194.017-.302.303-.242.286.061.582-.295.657-.79.113-.738.403-.906 1.61-.932 4.056-.09 4.455-.329 4.466-2.668l.006-1.3h2.219c1.853 0 2.372-.165 3.146-1 .51-.55 1.311-1 1.781-1 .709 0 .854-.237.854-1.4 0-1.276.102-1.4 1.151-1.4.633 0 1.375-.27 1.649-.6.283-.34 1.155-.6 2.016-.6 1.778 0 2.784-.322 2.784-.892 0-.223-.315-.159-.7.143-.633.497-.648.483-.155-.147.3-.382.705-.597.9-.476.195.121.355.029.355-.204 0-.234.788-.424 1.759-.424 1.798 0 4.241-1.938 4.241-3.364 0-.364.731-.598 2.266-.725 1.74-.144 2.44-.401 3.009-1.104.408-.505 1.143-.937 1.634-.962.9-.045.961-.196 1.045-2.545l.046-1.3h2.842c2.514 0 2.929-.11 3.588-.948.41-.521 1.306-1.059 1.99-1.196 1.206-.241 2.647-1.155 4.572-2.899.511-.463 1.712-.967 2.669-1.12 2.44-.389 3.539-1.203 3.539-2.621 0-1.022.159-1.181 1.3-1.291.988-.095 1.33-.337 1.426-1.008.114-.804.382-.893 3-1l2.874-.117.122-1.9.122-1.9 2.278-.047c1.253-.026 2.505-.018 2.781.018.277.036.907-.395 1.4-.957.516-.589 1.394-1.061 2.068-1.112.817-.061 1.711-.666 2.955-1.995 1.444-1.544 2.039-1.907 3.129-1.907 1.168 0 1.345-.132 1.345-1 0-.935.132-1 2.018-1 2.332 0 3.982-1.235 3.982-2.982 0-.976.097-1.018 2.371-1.018 2.816 0 3.742-.666 3.554-2.553-.123-1.232-.1-1.249 1.867-1.373 1.916-.121 2.761-.628 2.455-1.474-.079-.22.376-.438 1.012-.485 1.846-.134 2.542-.65 1.757-1.302-.54-.448-.597-.429-.382.13.138.362.068.657-.156.657-.537 0-.351-1.184.243-1.551.255-.158.388-.684.295-1.168-.125-.647.023-.881.558-.881.934 0 1.464-.673 1.812-2.303.154-.717.6-1.475.992-1.685.392-.21.932-.913 1.201-1.562.277-.667 1.007-1.396 1.677-1.673.79-.327 1.261-.86 1.407-1.592.121-.605.921-1.949 1.779-2.986.857-1.037 1.558-2.16 1.558-2.495 0-.335.638-1.211 1.418-1.947 1.168-1.101 1.459-1.708 1.656-3.447.131-1.16.846-3.405 1.59-4.989 2.389-5.086 3.977-27.271 2.184-30.521-2.297-4.165-3.014-4.874-3.968-3.92m-90.006 67.832c-.59.612-1.15 1.062-1.242.999-.231-.156 1.633-2.111 2.012-2.111.168 0-.179.501-.77 1.112m30.715 21.501c-.268.323-.69.582-.938.575-.248-.007-.136-.196.249-.42.385-.224.714-.714.732-1.088.02-.438.105-.497.237-.167.114.283-.012.778-.28 1.1m239.304.987c0 .77.082 1.085.183.7.1-.385.1-1.015 0-1.4-.101-.385-.183-.07-.183.7m-144.101-.19c-.278.335-.395.721-.259.857.291.29 1.467-.604 1.467-1.116 0-.551-.652-.411-1.208.259m-1.192.161c0 .204-.315.453-.7.553-.527.138-.477.195.2.23.554.028.9-.185.9-.554 0-.33-.09-.6-.2-.6-.11 0-.2.167-.2.371m51.26 25.254c-.033.343-.6 1.024-1.26 1.512-1.235.913-1.608 2.063-.67 2.063 1.034 0 2.341-1.85 2.161-3.058-.094-.628-.198-.861-.231-.517m-38.861 23.377c-.516.549-1.076.998-1.243.998-.168 0 .179-.501.77-1.112.59-.612 1.15-1.062 1.242-.999.093.063-.254.563-.769 1.113m84.572 6.066c.272.708-.373 1.325-1.371 1.312-.378-.005-.265-.194.304-.51.707-.393.798-.608.42-.986-.322-.322-.337-.484-.047-.484.241 0 .553.301.694.668m-112.572 65.934c-.516.549-1.076.998-1.243.998-.168 0 .179-.501.77-1.112.59-.612 1.15-1.062 1.242-.999.093.063-.254.563-.769 1.113"/><path fill="#fbe104" d="M159.162 15.2c-1.313 1.313-2.337 2-2.981 2-.78 0-.981.205-.981 1 0 1.048-.253 1.144-2.689 1.011-1.579-.086-3.311 1.468-3.311 2.971 0 .997-.059 1.018-2.911 1.018-3.587 0-4.689.616-4.689 2.623 0 1.336-.047 1.377-1.571 1.377-1.443 0-2.552.603-2.893 1.571-.075.213-.98.429-2.012.481-1.031.052-1.865.197-1.852.321.012.125.001.992-.025 1.927l-.047 1.7h-3c-2.933 0-3 .022-3 1 0 .954-.109 1-2.371 1-2.791 0-3.629.607-3.629 2.629V39.2h-2.018c-1.658 0-2.211.192-3.095 1.077-.787.786-1.455 1.065-2.482 1.035-1.864-.054-2.405.472-2.405 2.337V45.2h-6v4l-2.1.043c-3.653.073-3.702.088-3.668 1.057.029.825-.147.9-2.1.9H95.2v4h-3c-2.933 0-3 .022-3 1 0 .992-1.412 1.32-4.439 1.031-.749-.071-1.641.88-1.538 1.639.289 2.13.083 2.33-2.394 2.33-2.279 0-3.313.452-3.701 1.617-.079.237-.77.444-1.536.46-1.885.038-2.392.541-2.392 2.372V67.2h-6v1.145c0 .997-.125 1.12-.976.957-.679-.129-1.284.122-1.989.827-.557.557-1.423 1.071-1.924 1.142-.589.083-.956.447-1.039 1.029-.113.794-.359.9-2.1.9-1.827 0-1.972.072-1.972.982 0 1.712-1.739 3.018-4.018 3.018-1.847 0-1.982.068-1.982 1 0 1.027-1.027 1.299-3.934 1.042-1.347-.12-1.986.588-1.986 2.2 0 1.749.065 1.691-2.093 1.844-1.474.104-1.787.265-1.787.92 0 .569-.312.83-1.1.921-.858.098-1.1.337-1.1 1.081 0 1.292-1.627 2.833-3.327 3.152-2.088.392-2.578 1.196-2.642 4.34l-.031 1.5h-4v2c0 1.867-.067 2-1 2-.976 0-1 .07-1 2.957 0 3.138-.29 3.606-1.964 3.168-.991-.259-2.091.529-2.005 1.436.439 4.612-.087 10.439-.942 10.439-3.118 0-3.315 1.741-2.84 25.121.196 9.654.446 15.688.575 13.879l.229-3.2.074 2.724c.064 2.392.873 3.738.873 1.452 0-.427.18-.798.4-.826.22-.028.617-.072.882-.1.581-.06 1.024-1.514 1.078-3.535.053-1.986 1.423-5.362 2.821-6.954.805-.917 1.214-1.912 1.409-3.427.361-2.813.967-5.134 1.341-5.134.165 0 .979-1.256 1.808-2.791.829-1.535 1.684-2.9 1.901-3.034.217-.134.678-.955 1.026-1.824.375-.936 1.092-1.819 1.757-2.163.618-.319 1.604-1.464 2.191-2.543.791-1.453 1.584-2.243 3.054-3.043 1.092-.595 2.165-1.468 2.385-1.941.471-1.014 4.233-3.855 5.128-3.874.813-.016 1.776-.776 2.35-1.854.278-.521 1.299-1.142 2.565-1.558 1.157-.381 2.613-1.116 3.235-1.634.899-.749 1.602-.941 3.438-.941 1.799 0 2.466-.176 3.031-.8.398-.44.951-.8 1.229-.8.277 0 .564-.178.638-.395.079-.236.575-.166 1.23.175 2.261 1.174 7.487-.354 5.471-1.6-.304-.188-.389-.138-.223.131.147.238.085.547-.138.685-.645.398-.472-.844.193-1.396.415-.344.6-.359.6-.049 0 .247.186.449.414.449.28 0 .274-.261-.017-.806-.237-.443-.289-.782-.114-.752.174.029 1.262.031 2.417.005l2.1-.047v-4h3c2.933 0 3-.022 3-1 0-.975 1.707-1.378 4.33-1.023.759.103 1.71-.789 1.639-1.538-.221-2.322-.106-2.439 2.402-2.439 2.251 0 3.299-.447 3.693-1.574.075-.213.946-.444 1.936-.513 1.886-.131 1.865-.102 1.954-2.613l.046-1.3h3c2.933 0 3-.022 3-1 0-.935.132-1 2.018-1 2.332 0 3.982-1.235 3.982-2.982 0-.904.168-1.021 1.5-1.049 2.31-.047 3.046-.263 3.715-1.088.338-.418 1.278-.885 2.089-1.037 1.605-.301 2.696-1.488 2.696-2.933 0-.827.194-.915 2.1-.954 4.081-.082 3.74.17 3.857-2.857.042-1.072.104-1.1 2.414-1.1 2.278 0 3.629-.606 3.629-1.629 0-.204.698-.371 1.551-.371 1.561 0 2.559-.687 2.426-1.67-.291-2.151-.124-2.289 2.923-2.412 2.661-.108 2.911-.192 3.028-1.018.113-.796.358-.9 2.118-.9 2.28 0 3.954-1.241 3.954-2.932 0-.889.187-.984 2.266-1.157 1.691-.14 2.444-.407 2.965-1.049.394-.488 1.155-.862 1.751-.862 1.343 0 3.018-1.655 3.018-2.982 0-.984.084-1.018 2.551-1.018 2.82 0 3.697-.556 3.31-2.098-.369-1.472.2-1.854 2.95-1.982 2.241-.104 2.642-.241 2.984-1.02.245-.56.744-.9 1.319-.9.576 0 1.678-.754 2.924-2 1.611-1.611 2.263-2 3.352-2 1.286 0 2.61-.826 2.61-1.629 0-.204.908-.371 2.018-.371 2.332 0 3.982-1.235 3.982-2.982 0-.819.195-1.018 1-1.018h1v-8.171c0-8.411-.104-8.997-1.683-9.523-.284-.095-.457-.698-.404-1.404.122-1.594-.801-2.502-2.542-2.502-1.202 0-1.371-.125-1.371-1.018 0-.56-.442-1.46-.982-2l-.982-.982h-19.674l-2 2m20.627 42.669c-.324.323-.589 1.205-.589 1.96 0 1.349-1.147 1.823-3.374 1.394-.912-.176-2.194.446-2.426 1.178-.164.515-.606.799-1.245.799-1.288 0-2.955 1.683-2.955 2.982 0 .983-.087 1.018-2.52 1.018-2.574 0-3.48.423-3.48 1.625 0 .488-.258.615-.976.477-.697-.133-1.298.136-2.1.94-.618.619-1.484 1.133-1.924 1.142-.568.011-.791.277-.768.916.028.806-.16.901-1.8.906-2.577.008-3.757.711-4.203 2.504-.295 1.186-.56 1.49-1.3 1.49-.724 0-.929.22-.929 1 0 .978-.065 1-3.018 1-3.386 0-4.982.955-4.982 2.982 0 .976-.097 1.018-2.371 1.018-2.278 0-3.629.606-3.629 1.629 0 .204-.45.371-1 .371-.788 0-1 .203-1 .955 0 .777-.264 1.005-1.409 1.22-.775.146-1.628.616-1.896 1.045-.292.467-.93.78-1.591.78-.911 0-1.104.175-1.104 1 0 .954-.109 1-2.371 1-2.263 0-3.629.606-3.629 1.61 0 1.11-2.104 2.39-3.929 2.39-2.509 0-3.671.83-3.671 2.623 0 1.268-.096 1.377-1.218 1.377-.766 0-1.59.371-2.218 1-.798.798-1.402 1-2.982 1H105.2v4h-3c-2.933 0-3 .022-3 1 0 .927-.139 1-1.911 1-2.372 0-3.578.804-3.918 2.611-.255 1.36-.3 1.389-2.216 1.389-1.819 0-1.955.07-1.955 1 0 .872-.175 1-1.371 1-1.735 0-2.629.884-2.629 2.601 0 1.089-.171 1.368-.9 1.471-.564.08-.946.449-1.023.988-.088.624-.497.93-1.488 1.116-1.466.275-2.589 1.497-2.589 2.818 0 .463-.39.987-.9 1.211-.78.342-.915.738-1.01 2.971-.127 3.008-.096 2.957-1.773 2.909-1.978-.056-2.217.386-2.281 4.225-.032 1.919-.237 3.551-.454 3.626-.218.074-.618.383-.889.686-.997 1.113-1.468 1.589-2.055 2.076-.519.43-.596 3.06-.57 19.4.017 10.396.164 18.272.328 17.502l.299-1.4.07 1.4.071 1.4.512-1.2c.281-.66.633-1.155.782-1.1 1.704.63 1.904.239 3.305-6.49.32-1.535 1.009-3.425 1.532-4.2.523-.776 1.354-2.58 1.847-4.01.712-2.067 1.457-3.192 3.631-5.491 1.504-1.59 2.839-3.306 2.967-3.814.166-.662.788-1.12 2.199-1.621 1.256-.446 2.34-1.187 2.996-2.048.566-.741 1.489-1.464 2.052-1.605.562-.141 1.444-.758 1.96-1.37.651-.774 1.602-1.263 3.118-1.602 1.828-.409 2.261-.68 2.67-1.667.362-.874.916-1.303 2.141-1.661.909-.265 2.102-.803 2.652-1.197.55-.393 1.99-.897 3.2-1.12 1.314-.241 2.463-.721 2.853-1.19.447-.538.952-.716 1.6-.564 2.721.638 4.431.599 5.251-.12.459-.402.71-.517.558-.258-.372.639.364 1.037 1.342.727 1.185-.376 1.777-1.695 1.124-2.501-.444-.548-.438-.597.04-.309.417.251.505.178.33-.277-.195-.508.203-.652 2.192-.796 1.834-.133 2.593-.378 3.099-1.003.368-.455 1.016-.893 1.44-.972.424-.08.944-.539 1.155-1.019.212-.48.72-.96 1.13-1.068.41-.107.843-.568.962-1.024.188-.72.526-.83 2.542-.83 2.83 0 3.73-.685 3.499-2.665l-.156-1.335 2.019-.043c3.394-.071 3.607-.127 4.015-1.057.245-.56.744-.9 1.319-.9.576 0 1.678-.754 2.924-2 1.313-1.313 2.337-2 2.981-2 .78 0 .981-.205.981-1 0-.975.073-1 2.911-1 3.433 0 4.538-.587 4.918-2.611.255-1.362.298-1.389 2.234-1.389 1.601 0 2.173-.2 3.032-1.058.582-.582 1.429-1.077 1.881-1.1.537-.027.839-.329.866-.866.082-1.616 1.989-2.976 4.176-2.976h1.982v-3.915l3.239-.147c2.771-.126 3.344-.277 3.964-1.043.502-.62 1.158-.895 2.133-.895 1.319 0 2.664-.813 2.664-1.61 0-.743 2.081-2.39 3.018-2.39h.982V57.182l-4.211.049c-3.123.036-4.364.201-4.8.638m-.15 55.852c-.242.242-.439 1.115-.439 1.941v1.503l-2.9.117c-2.791.114-2.905.157-3.021 1.159-.1.859-.287 1.008-1.076.857-.673-.128-1.288.151-2.079.944-.618.619-1.484 1.133-1.924 1.142-.568.011-.791.277-.768.916.027.764-.186.907-1.4.946-2.48.08-2.631.135-2.674.978-.082 1.616-1.989 2.976-4.176 2.976-1.847 0-1.982.068-1.982 1 0 1.003-1.262 1.314-4.124 1.017-1.14-.119-1.796.694-1.796 2.225 0 1.823-.034 1.846-2.642 1.815-2.12-.025-3.438.577-3.438 1.572 0 .204-.458.371-1.018.371-1.311 0-2.982 1.671-2.982 2.982 0 1.045-.575 1.237-3.092 1.035-1.256-.101-4.908 3.592-4.908 4.964 0 1.013-.513 1.234-2.439 1.05-.927-.088-1.686 1.015-1.422 2.067.259 1.033.004 1.512-1.139 2.144-.653.361-.822.929-.918 3.1l-.119 2.658H123.2v3c0 2.896-.033 3-.956 3-2.518 0-2.963 1.19-3.026 8.1-.017 1.755-.094 1.9-1.018 1.9h-1v35.664l1.3-.262c2.632-.53 2.536-.394 2.968-4.161.33-2.876.723-4.178 2.07-6.86.914-1.821 1.664-3.597 1.666-3.946.002-.349.612-1.4 1.355-2.335.744-.935 1.472-2.339 1.618-3.119.177-.941.637-1.649 1.365-2.1 1.194-.74 3.484-3.227 4.586-4.981.38-.605 1.037-1.1 1.46-1.1.424 0 1.949-1.128 3.39-2.507 1.817-1.738 3.361-2.8 5.039-3.467 1.33-.528 2.546-1.178 2.701-1.445.629-1.079 6.353-4.181 8.442-4.576 1.189-.224 2.4-.606 2.693-.849.592-.491 5.347-1.159 5.347-.75 0 .142.799.256 1.775.252.976-.004 1.765-.109 1.753-.233-.013-.124-.001-.99.025-1.925l.047-1.7h3c2.933 0 3-.022 3-1 0-.814.205-1.008 1.1-1.043 2.616-.101 2.7-.136 2.708-1.149.006-.785.215-.994 1-1 .769-.006.985-.21.96-.908-.029-.825.147-.9 2.1-.9h2.132v-4h6v-37.625l-4.361.054c-2.558.031-4.543.235-4.8.492M20.064 263.651c-.043.964.171 1.635.636 2 .61.478.64.471.233-.053-.257-.33-.544-1.23-.636-2l-.169-1.398-.064 1.451M34.368 279.3c.425.561 1.146.7 3.632.7s3.207-.139 3.632-.7c.45-.596.446-.625-.031-.2-.345.307-1.735.5-3.601.5-1.866 0-3.256-.193-3.601-.5-.477-.425-.481-.396-.031.2"/><path fill="#383a40" d="M187.2.6c0 .43-.439.6-1.551.6-2.01 0-2.392.526-2.392 3.298 0 3.47.651 4.052 4.671 4.181 2.833.091 3.338.224 4.227 1.112.555.555 1.467 1.009 2.027 1.009.912 0 1.018.158 1.018 1.52 0 1.916.564 2.48 2.48 2.48h1.52v3c0 2.933.022 3 1 3h1v82.546c0 79.844.024 82.577.743 83.5 2.195 2.815 2.259 3.172 2.229 12.354-.036 11.019-.789 16.835-2.708 20.921-.744 1.584-1.459 3.829-1.59 4.989-.197 1.739-.488 2.346-1.656 3.447-.78.736-1.418 1.612-1.418 1.947 0 .335-.701 1.458-1.558 2.495-.858 1.037-1.658 2.381-1.779 2.986-.146.732-.617 1.265-1.407 1.592-.67.277-1.4 1.006-1.677 1.673-.269.649-.809 1.352-1.201 1.562-.392.21-.838.968-.992 1.685-.348 1.63-.878 2.303-1.812 2.303-.535 0-.683.234-.558.881.093.484-.04 1.01-.295 1.168-.827.511-.688 1.544.24 1.777 1.893.475 2.849-.225 2.98-2.184.119-1.757-.207-1.58 3.088-1.677 2.477-.072 2.817-.175 2.869-.868.082-1.088.089-1.091 2.66-1.151 2.682-.061 3.442-.63 3.442-2.575V238.8h2c1.867 0 2-.067 2-1 0-.95.115-1 2.3-1.006 1.265-.003 2.564-.173 2.886-.377.513-.325.63-.791.782-3.117.021-.329.716-.5 2.032-.5 1.851 0 2-.072 2-.972 0-.704.249-1.008.9-1.1.582-.083.946-.45 1.029-1.039.173-1.215 1.889-2.883 3.067-2.98.521-.044.939-.176.928-.294-.217-2.448.13-3.615 1.076-3.615.794 0 1-.201 1-.978 0-.883.185-.99 1.9-1.1l1.9-.122.122-1.903c.108-1.676.358-2.139 2.1-3.881 1.848-1.848 1.978-2.11 1.978-3.997 0-1.11.167-2.019.371-2.019 1.406 0 1.629-1.18 1.629-8.602 0-6.929.044-7.358.78-7.592.428-.136.902-.633 1.051-1.104.15-.472.654-1.166 1.121-1.544l.848-.687.075-68.336c.041-37.584.086-71.89.1-76.235l.025-7.9h2.172c1.948 0 2.186.093 2.3.9.109.768.407.918 2.028 1.022l1.9.122.043 2.078c.083 4.056-.169 3.719 2.857 3.835l1.1.043v80.367c0 83.009-.019 81.668 1.167 81.357.61-.159.752.16.954 2.145.131 1.282.536 4.221.899 6.531.892 5.663.639 20.828-.393 23.6-.805 2.16-1.822 7.254-1.838 9.2-.006.77-.456 2.21-.999 3.2-.544.99-1.275 2.419-1.626 3.175-.35.756-1.045 1.926-1.544 2.6-.499.674-1.308 2.134-1.799 3.245-.49 1.112-1.28 2.192-1.755 2.4-.474.209-1.094.867-1.378 1.462-.283.595-1.049 1.463-1.701 1.927-.653.465-1.193 1.148-1.2 1.518-.016.87-.713 1.755-2.087 2.649-.692.451-1.1 1.07-1.1 1.67 0 .75-.213.954-.996.954-1.083 0-1.327 1.569-.431 2.777.321.433.303.502-.073.276-.275-.165-.5-.144-.5.047 0 .192-.585.955-1.3 1.697-.715.741-1.075 1.215-.8 1.052.275-.163.689-.18.919-.037.713.44-.41 1.388-1.644 1.388-.62 0-1.213.138-1.318.307-.104.169.518.24 1.384.158 1.698-.162 3.098-1.486 2.355-2.229-.494-.494-.523-1.162-.038-.862.197.122.461-.048.588-.376.126-.329.49-.598.808-.598.319 0 .67-.225.781-.5.125-.309.214-.242.233.174.023.477.619.102 2.039-1.281 1.78-1.734 2.222-1.964 3.92-2.041 1.574-.072 1.923-.225 1.972-.865.084-1.125.243-1.195 2.691-1.173 2.638.024 3.518-.628 3.335-2.467-.124-1.235-.105-1.248 1.875-1.352 2.938-.153 3.718-.406 4-1.296.164-.515.606-.799 1.245-.799 1.288 0 2.955-1.683 2.955-2.982 0-.956.122-1.018 2.019-1.018 2.393 0 5.981-2.988 5.981-4.981 0-1.031.257-1.169 1.921-1.032 1.375.113 2.079-.702 2.079-2.408 0-1.275.147-1.544.9-1.651.826-.117.91-.367 1.018-3.028l.117-2.9h3.965v-3c0-2.896.033-3 .956-3 2.089 0 2.842-1.227 2.867-4.67.021-2.86.119-3.236 1.1-4.217l1.077-1.077V64.8h3.332c3.198 0 3.33.036 3.3.9-.024.672.186.893.828.872.693-.022.908.266 1.102 1.479.263 1.645 1.439 2.749 2.927 2.749.865 0 .911.148.911 2.911 0 3.433.587 4.538 2.611 4.918l1.389.26v81.336c0 63.671.109 81.796.5 83.455.665 2.818.602 25.143-.08 28.424-.263 1.268-1.095 3.509-1.849 4.981s-1.371 2.97-1.371 3.327c0 .358-.524 1.447-1.164 2.419-.64.973-1.359 2.505-1.597 3.404-.294 1.105-.756 1.781-1.426 2.086-.545.249-1.535 1.415-2.199 2.593-.665 1.178-1.66 2.566-2.212 3.084-.551.518-1.002 1.144-1.002 1.391 0 .247-.72 1.152-1.6 2.011-.88.859-1.6 1.85-1.6 2.201 0 .352-.214.853-.476 1.115-.645.645-.761 1.683-.189 1.69.315.004.3.111-.048.331-.371.236-.406.592-.125 1.294.258.647.396.746.413.298.014-.369.52-1.059 1.125-1.533s1.222-1.162 1.372-1.529c.184-.451.281-.262.3.584.03 1.359-.931 2.59-1.302 1.666-.167-.418-.213-.417-.238.007-.018.288-.212.412-.432.276-.22-.136-.4-.076-.4.134 0 1.719 2.667.182 3.029-1.745.212-1.134.439-1.389 1.234-1.389.535 0 1.414-.441 1.954-.98.737-.738 1.469-1.003 2.958-1.071 1.088-.049 1.967-.193 1.954-.319-.013-.127-.002-.995.024-1.93l.047-1.7h3c2.933 0 3-.022 3-1 0-.935.132-1 2.018-1 2.332 0 3.982-1.235 3.982-2.982 0-.955.124-1.018 2-1.018 1.867 0 2-.067 2-1 0-.99.247-1.133 1.8-1.042.44.026 1.064-.123 1.386-.332.513-.332.63-.8.782-3.126.017-.275.482-.5 1.032-.5.788 0 1-.203 1-.955 0-.774.264-1.006 1.389-1.216 1.486-.279 2.611-1.495 2.611-2.823 0-.463.39-.987.9-1.211.772-.339.911-.732.98-2.753.106-3.142.216-3.348 1.687-3.132 1.915.281 2.433-.431 2.433-3.341 0-2.168.144-2.677 1-3.533.55-.55 1-1.458 1-2.018 0-.56.167-1.018.371-1.018 1.681 0 1.611 3.648 1.624-84.499.008-47.96.163-83.352.368-83.48 1.149-.716 7.99.047 8.113.906.078.552.455.92 1.024 1.001.935.133 1.114.809.933 3.518-.108 1.609.853 2.554 2.596 2.554h1.371l.061 81.1c.07 93.088-.057 81.848.933 82.992.659.762.807.803.916.255.107-.535.297-.574 1.055-.217 2.146 1.013 2.022 25.444-.165 32.47-.479 1.54-1.098 3.929-1.375 5.309-.277 1.381-.865 2.911-1.307 3.4-.442.49-1.008 1.947-1.257 3.238-.307 1.591-.85 2.815-1.685 3.8-1.77 2.089-3.863 5.222-4.614 6.907-.461 1.036-1.01 1.558-1.905 1.814-.984.282-1.37.704-1.778 1.943-.287.871-.854 1.944-1.26 2.386-.896.975-1.398 4.045-.729 4.459.255.157.533.075.619-.182.114-.343.37-.353.961-.037 1.134.607 2.514.155 3.039-.996.339-.745.656-.923 1.331-.746.753.197.852.102.661-.631-.283-1.083-.025-1.238 2.203-1.322 1.556-.059 1.796-.184 1.796-.937 0-1.624 1.892-3.005 4.118-3.005 1.847 0 1.982-.068 1.982-1 0-.962.097-1 2.551-1 2.935 0 3.582-.475 3.381-2.48-.131-1.313-.121-1.321 1.868-1.52 1.696-.17 2.019-.337 2.128-1.1.092-.651.396-.9 1.1-.9.765 0 .972-.209.972-.982 0-1.272 1.756-3.018 3.036-3.018 1.73 0 2.964-1.658 2.964-3.982V304.8h4v-2c0-1.867.067-2 1-2 .983 0 1-.055 1-3.175v-3.175l1.397.227c2.418.392 2.603-.057 2.603-6.326V282.8h.956c.525 0 1.38-.344 1.9-.765l.944-.764V110.729l-.997-.807c-.661-.535-.955-1.127-.872-1.755.079-.604-.249-1.322-.904-1.976-.953-.953-1.027-1.293-1.033-4.709-.007-4.45-.46-5.544-2.504-6.053-1.219-.303-1.498-.557-1.533-1.4-.104-2.522-.147-2.629-1.057-2.597-.732.026-.9-.183-.9-1.119 0-1.533-3.488-5.113-4.981-5.113-.82 0-1.019-.195-1.019-1 0-.983-.053-1-3.2-1h-3.2v-1.377c0-2.403-.622-2.568-9.817-2.606-9.04-.037-9.383.057-9.383 2.582v1.342l-3.3.13c-5.725.224-5.3.566-5.3-4.26v-4.155l-1.9-1.821c-1.874-1.797-1.9-1.856-1.9-4.348 0-2.471-.426-3.487-1.462-3.487-.864 0-2.538-1.991-2.538-3.018 0-.781-.205-.982-1-.982-.759 0-1.01-.217-1.039-.9-.134-3.052-.018-2.886-2.161-3.1-1.667-.167-2-.333-2-1 0-.886-.036-.893-4.655-.957l-3.056-.043-.263-1.403c-.433-2.308-1.223-2.555-8.131-2.542-6.066.012-7.295.274-7.295 1.555 0 1.579-2.043 2.39-6.018 2.39H283.2l-.077 1.1c-.043.605-.178-.7-.3-2.9-.22-3.943-.238-4.002-1.262-4.121-1.033-.12-1.037-.136-.849-3.067.181-2.82.14-2.996-.945-4.08-.624-.622-1.142-1.492-1.151-1.932-.011-.568-.277-.791-.916-.768-.825.029-.9-.147-.9-2.1V35.2h-2c-1.876 0-2-.063-2-1.018 0-.56-.45-1.468-1-2.018-.55-.55-1-1.442-1-1.982 0-.912-.143-.982-2-.982-1.867 0-2-.067-2-1v-1h-8.4v-1.391c0-2.344-1.058-2.724-6.833-2.455-5.297.247-5.82.457-6.201 2.486l-.255 1.36H235.2v.955c0 .754-.251.991-1.2 1.13l-1.2.176v-7.148c0-7.093-.008-7.157-1-8.149-.55-.55-1-1.226-1-1.502 0-.728-.847-1.462-1.688-1.462-.57 0-.675-.21-.484-.971.334-1.33-.113-2.539-1.048-2.835-.492-.156-.78-.608-.78-1.221 0-.901-.148-.973-2-.973h-2v-2c0-1.956-.027-2-1.2-2-.8 0-1.2-.2-1.2-.6 0-.996-31.864-.896-32.124.1-.174.667-.185.667-.23 0-.056-.852-.846-.945-.846-.1m48.698 47.1c-.073 2.035-.132.37-.132-3.7s.059-5.735.132-3.7c.073 2.035.073 5.365 0 7.4m-.001 19c-.077 1.485-.14.27-.14-2.7s.063-4.185.14-2.7c.077 1.485.077 3.915 0 5.4m-.001 14.385c-.08 1.273-.145.335-.146-2.085-.001-2.42.064-3.462.144-2.315.081 1.147.082 3.127.002 4.4m.002 16.615c-.073 2.035-.132.37-.132-3.7s.059-5.735.132-3.7c.073 2.035.073 5.365 0 7.4m-.001 19c-.077 1.485-.14.27-.14-2.7s.063-4.185.14-2.7c.077 1.485.077 3.915 0 5.4m143.979-2c-.101.385-.183.07-.183-.7s.082-1.085.183-.7c.1.385.1 1.015 0 1.4m-143.978 19.381c-.074 1.825-.136.439-.136-3.081-.001-3.52.06-5.014.135-3.319.075 1.695.075 4.575.001 6.4m-.001 14.619c-.077 1.485-.14.27-.14-2.7s.063-4.185.14-2.7c.077 1.485.077 3.915 0 5.4m0 18c-.077 1.485-.14.27-.14-2.7s.063-4.185.14-2.7c.077 1.485.077 3.915 0 5.4m0 16c-.077 1.485-.14.27-.14-2.7s.063-4.185.14-2.7c.077 1.485.077 3.915 0 5.4m-40.068 11.129c-.346.345-.624.84-.617 1.1.007.259.202.145.434-.255.232-.399.812-.882 1.288-1.074.642-.259.692-.356.195-.375-.37-.014-.955.258-1.3.604m-3.718 6.271c-.959 1.24-.947 1.615.024.73.586-.533 1.065-1.028 1.065-1.1 0-.33-.742-.078-1.089.37m-2.119 4.11c-.773.931-.221 1.107.606.192.399-.441.54-.802.313-.802-.227 0-.641.274-.919.61m-5.546 3.69c-.464.385-.934 1.33-1.045 2.1-.188 1.303-.176 1.322.171.274.445-1.343 1.207-2.334 1.607-2.087.158.098.288-.084.288-.405 0-.728-.002-.728-1.021.118m-9.52 5.703c-1.096.442-1.952 1.864-1.122 1.864.308 0 .481-.13.383-.288-.253-.409.766-1.176 2.087-1.572.781-.235.881-.341.326-.347-.44-.005-1.193.149-1.674.343m-7.097 4.226c-.346.345-.624.84-.617 1.1.007.259.193.162.413-.216.22-.378.71-.868 1.088-1.088.378-.22.475-.406.216-.413-.26-.007-.755.271-1.1.617M157.4 223.6c-.431.697.208 1.292.831.774.308-.256.462-.624.341-.819-.292-.472-.866-.45-1.172.045m85.089.223c-.671.47-.874.984-.829 2.1.055 1.354.074 1.377.232.277.095-.66.549-1.605 1.01-2.1.979-1.053.834-1.15-.413-.277M151.4 227.6c-.431.697.208 1.292.831.774.308-.256.462-.624.341-.819-.292-.472-.866-.45-1.172.045m-4.354 3.626c-.854.88-1.473 1.68-1.375 1.779.099.098.97-.628 1.937-1.613.967-.986 1.586-1.786 1.375-1.779-.211.008-1.082.734-1.937 1.613M141.4 233.6c-.431.697.208 1.292.831.774.308-.256.462-.624.341-.819-.292-.472-.866-.45-1.172.045m-4.695 2.029c-.382.223-.901.803-1.152 1.288-.376.727-.236.676.795-.292 1.579-1.481 1.681-1.767.357-.996m-6.876 4.2c-.346.345-.624.84-.617 1.1.007.259.193.162.413-.216.22-.378.71-.868 1.088-1.088.378-.22.475-.406.216-.413-.26-.007-.755.271-1.1.617M223.4 241.6c-.431.697.208 1.292.831.774.308-.256.462-.624.341-.819-.292-.472-.866-.45-1.172.045m-2 2c-.431.697.208 1.292.831.774.308-.256.462-.624.341-.819-.292-.472-.866-.45-1.172.045m-97.32.48c-.758.758-.559 1.315.22.615.385-.345 1.24-.706 1.9-.802 1.144-.165 1.134-.176-.22-.233-.781-.033-1.636.156-1.9.42m-4.029 2.058c-.245.296-.538 1.151-.649 1.9-.195 1.309-.188 1.318.174.219.208-.629.686-1.484 1.063-1.9.377-.416.499-.757.272-.757-.227 0-.614.242-.86.538m62.89 3.76c-.066 1.057.353 1.15 1.23.273.877-.877.784-1.296-.273-1.23-.633.039-.918.324-.957.957m-74.047 1.717c-.976.392-1.832 2.127-1.557 3.153.12.443.184.39.217-.179.073-1.283 1.17-2.543 2.564-2.946.758-.219.955-.375.482-.382-.44-.005-1.208.153-1.706.354m96.506-.015c-.431.697.208 1.292.831.774.308-.256.462-.624.341-.819-.292-.472-.866-.45-1.172.045m-96.199 1.798c-.515.55-.862 1.05-.769 1.113.092.063.652-.387 1.242-.999.591-.611.938-1.112.77-1.112-.167 0-.727.449-1.243.998m68.443.349c-.357.43-.364.655-.029.863.653.403 1.462-.493.928-1.027-.289-.289-.565-.239-.899.164m22.185 2.082c-.346.345-.624.84-.617 1.1.007.259.193.162.413-.216.22-.378.71-.868 1.088-1.088.378-.22.475-.406.216-.413-.26-.007-.755.271-1.1.617m-28.115 2.013c-.487.527-.725.958-.528.958.47 0 1.614-1.155 1.614-1.629 0-.483-.042-.458-1.086.671m114.468.34c-.54.54-.971 1.305-.957 1.7.022.603.08.583.367-.127.188-.464.831-1.229 1.429-1.7.598-.47.874-.855.615-.855-.26 0-.914.442-1.454.982m-123.79 4.426c-.967.986-1.61 1.792-1.428 1.792.452 0 3.595-3.174 3.368-3.401-.1-.1-.973.624-1.94 1.609m-70.4-.398c-.773.931-.221 1.107.606.192.399-.441.54-.802.313-.802-.227 0-.641.274-.919.61m92.713 1.419c-.382.223-.901.803-1.152 1.288-.38.735-.23.681.893-.317.743-.66 1.426-1.245 1.519-1.3.092-.055.003-.095-.198-.088-.202.007-.68.195-1.062.417m96 0c-1.005.586-1.619 1.838-.901 1.838.308 0 .477-.136.375-.302-.103-.165.289-.675.871-1.133 1.094-.861.877-1.115-.345-.403m-193.659 1.597c-.854.88-1.473 1.68-1.375 1.779.099.098.97-.628 1.937-1.613.967-.986 1.586-1.786 1.375-1.779-.211.008-1.082.734-1.937 1.613m70.356.372c-.399.441-.54.802-.313.802.503 0 1.501-1.143 1.232-1.412-.106-.106-.519.168-.919.61m117.43 2.108c-.533.272-1.054.764-1.159 1.094-.145.46.001.431.626-.123.448-.398 1.329-.877 1.958-1.066.814-.244.913-.35.343-.371-.44-.015-1.236.194-1.768.466m-96.84.504c-.768.925-.313 1.019.752.156.644-.522.755-.766.349-.766-.327 0-.823.274-1.101.61m-99.503 1.613c-.489.342-.889.824-.889 1.069 0 .246.405.079.9-.371.495-.451 1.17-.918 1.5-1.039.526-.192.525-.223-.011-.25-.336-.018-1.011.248-1.5.591m96.343-.117c-.533.272-1.05.741-1.15 1.043-.108.328.308.186 1.04-.355.749-.553 1.542-.818 2.05-.685.456.119.728.053.605-.146-.312-.504-1.397-.443-2.545.143m167.35 2.476c-.54.54-.971 1.305-.957 1.7.022.603.08.583.367-.127.188-.464.831-1.229 1.429-1.7.598-.47.874-.855.615-.855-.26 0-.914.442-1.454.982m-200.118 1.669c-.071 1.382-.647 2.017-2.338 2.577-1.044.346-1.025.358.269.164 1.882-.283 2.499-.99 2.299-2.636l-.166-1.356-.064 1.251M71.4 273.6c-.431.697.208 1.292.831.774.308-.256.462-.624.341-.819-.292-.472-.866-.45-1.172.045m192.429.229c-.346.345-.618.93-.604 1.3.019.497.116.447.375-.195.192-.476.675-1.056 1.074-1.288.4-.232.514-.427.255-.434-.26-.007-.755.271-1.1.617m-123.397.251c-.018.374-.347.864-.732 1.088-.385.224-.497.413-.249.42.66.018 1.458-1.079 1.218-1.675-.132-.33-.217-.271-.237.167m239.444 2.62c-.101.385-.183.07-.183-.7s.082-1.085.183-.7c.1.385.1 1.015 0 1.4m-309.884-.49c-.773.931-.221 1.107.606.192.399-.441.54-.802.313-.802-.227 0-.641.274-.919.61m165.847-.272c-.139.223-.057.527.181.674.615.381 1.012-.14.498-.654-.287-.287-.511-.294-.679-.02m-100.125 1.904c-.487.527-.725.958-.528.958.47 0 1.614-1.155 1.614-1.629 0-.483-.042-.458-1.086.671m-69.885-.013c-.346.345-.624.84-.617 1.1.007.259.193.162.413-.216.22-.378.71-.868 1.088-1.088.378-.22.475-.406.216-.413-.26-.007-.755.271-1.1.617m95.571-.229c-.431.697.208 1.292.831.774.308-.256.462-.624.341-.819-.292-.472-.866-.45-1.172.045m-27.829 1.835c-.299.36-.909.803-1.357.984-.615.25-.654.336-.158.356.775.03 2.652-1.397 2.301-1.75-.134-.134-.487.05-.786.41m119.475 1.791c-.854.88-1.473 1.68-1.375 1.779.099.098.97-.628 1.937-1.613.967-.986 1.586-1.786 1.375-1.779-.211.008-1.082.734-1.937 1.613m-123.644.372c-.399.441-.54.802-.313.802.503 0 1.501-1.143 1.232-1.412-.106-.106-.519.168-.919.61M20.487 283.9c-.521.455-.878 1.4-1.019 2.7-.142 1.302-.097 1.721.129 1.2.191-.44.359-1.238.375-1.774.015-.536.419-1.391.898-1.9 1.021-1.087.772-1.235-.383-.226m4.941-.345c-.121.195.033.563.341.819.623.518 1.262-.077.831-.774-.306-.495-.88-.517-1.172-.045m311.277.074c-.382.223-.901.803-1.152 1.288-.38.735-.23.681.893-.317.743-.66 1.426-1.245 1.519-1.3.092-.055.003-.095-.198-.088-.202.007-.68.195-1.062.417m-286.876 2.2c-.747.746-.796 1.22-.167 1.609.292.181.353.11.165-.194-.393-.636.552-1.738 1.258-1.467.306.118.447.036.312-.182-.348-.564-.845-.49-1.568.234m96 0c-.346.345-.629.835-.629 1.089 0 .253.272.072.604-.402.331-.474 1.006-.939 1.5-1.034.892-.172.892-.173.025-.228-.48-.029-1.155.229-1.5.575m96.617.071c-.464.385-.934 1.33-1.043 2.1l-.2 1.4.403-1.275c.222-.701.876-1.646 1.453-2.1.577-.454.865-.825.639-.825-.225 0-.789.315-1.252.7m-122.194 1.51c-.129.335-.643.773-1.143.974-.644.259-.714.373-.238.391.714.027 1.929-.983 1.929-1.604 0-.567-.287-.442-.548.239m95.004.224c-.644.522-.755.766-.349.766.599 0 1.743-1.085 1.45-1.375-.086-.086-.582.188-1.101.609m-185.969-.009c.378.22.868.71 1.088 1.088.22.378.406.475.413.216.016-.61-1.107-1.733-1.717-1.717-.259.007-.162.193.216.413m111.202 2.198c-.489.342-.889.82-.889 1.062 0 .241.33.141.732-.224.403-.364.823-.572.934-.462.11.111.201-.069.201-.399 0-.726.095-.729-.978.023m96.216-.194c-.382.223-.901.803-1.152 1.288-.376.727-.236.676.795-.292 1.579-1.481 1.681-1.767.357-.996m-203.303.773c.4.442.813.716.919.61.269-.269-.729-1.412-1.232-1.412-.227 0-.086.361.313.802m8.59-.192c-.768.925-.313 1.019.752.156.644-.522.755-.766.349-.766-.327 0-.823.274-1.101.61m-22.72 1.461c-.071 1.857.597 3.129 1.646 3.129.253 0 .07-.273-.407-.608-.632-.442-.908-1.121-1.017-2.5l-.15-1.892-.072 1.871m94.131-.143c-1.013 1.188-1.061 1.331-.309.929.813-.435 1.952-1.984 1.638-2.229-.072-.057-.671.528-1.329 1.3m96.828-.59c.128.333-.167.852-.693 1.22-.504.353-.709.642-.456.642 1.079 0 2.109-1.711 1.323-2.197-.221-.137-.298.011-.174.335m-73.887 1.028c-.519.421-.84.87-.712.998.127.128.654-.216 1.169-.766 1.114-1.185.871-1.308-.457-.232m192.361-.337c-.382.223-.901.803-1.152 1.288-.38.735-.23.681.893-.317.743-.66 1.426-1.245 1.519-1.3.092-.055.003-.095-.198-.088-.202.007-.68.195-1.062.417m-221.061 2.118c-.357.43-.364.655-.029.863.653.403 1.462-.493.928-1.027-.289-.289-.565-.239-.899.164m124.348.463c-.773.931-.221 1.107.606.192.399-.441.54-.802.313-.802-.227 0-.641.274-.919.61m-128.365 1.157c-.268.323-1.058.658-1.757.746-1.255.157-1.253.16.181.223 1.324.058 2.796-.823 2.263-1.355-.11-.11-.419.064-.687.386m25.773.233c-.431.697.208 1.292.831.774.308-.256.462-.624.341-.819-.292-.472-.866-.45-1.172.045m64.244 4.147c-.357.43-.364.655-.029.863.653.403 1.462-.493.928-1.027-.289-.289-.565-.239-.899.164m26.348.463c-.773.931-.221 1.107.606.192.399-.441.54-.802.313-.802-.227 0-.641.274-.919.61M118.8 301.715c-.797.401-1.01.826-1.051 2.094-.039 1.234-.012 1.306.123.321.205-1.493.852-2.118 2.63-2.54 1.103-.262 1.148-.313.298-.343-.55-.019-1.45.191-2 .468m97.029.114c-.346.345-.624.84-.617 1.1.007.259.193.162.413-.216.22-.378.71-.868 1.088-1.088.378-.22.475-.406.216-.413-.26-.007-.755.271-1.1.617m-124.185 1.918c-.357.43-.364.655-.029.863.653.403 1.462-.493.928-1.027-.289-.289-.565-.239-.899.164m122.348.463c-.773.931-.221 1.107.606.192.399-.441.54-.802.313-.802-.227 0-.641.274-.919.61m65.722 1.632c-.487.527-.725.958-.528.958.47 0 1.614-1.155 1.614-1.629 0-.483-.042-.458-1.086.671m26.115-.013c-.346.345-.624.84-.617 1.1.007.259.193.162.413-.216.22-.378.71-.868 1.088-1.088.378-.22.475-.406.216-.413-.26-.007-.755.271-1.1.617m-220.025.908c.112.112-.203.646-.7 1.188l-.904.984.891-.464c1.158-.603 1.903-1.912 1.087-1.912-.318 0-.486.092-.374.204m96.448.673c-.129.335-.643.773-1.143.974-.644.259-.714.373-.238.391.714.027 1.929-.983 1.929-1.604 0-.567-.287-.442-.548.239m94.463.108c-.392.484-.396.564-.015.335.318-.191.5-.063.5.353 0 .847 1.346.617 1.515-.259.173-.897-1.355-1.225-2-.429m-168.886.311c-.346.345-.624.84-.617 1.1.007.259.193.162.413-.216.22-.378.71-.868 1.088-1.088.378-.22.475-.406.216-.413-.26-.007-.755.271-1.1.617m-26.535 1.783c-1.358 1.235-1.382 1.477-.077.779.623-.334 1.899-2.021 1.497-1.979-.063.006-.702.546-1.42 1.2m187.026 3.018c-1.03.973-1.683 1.77-1.45 1.77.489 0 3.724-3.139 3.484-3.38-.089-.088-1.004.636-2.034 1.61m-166.491-.801c-.346.345-.624.84-.617 1.1.007.259.193.162.413-.216.22-.378.71-.868 1.088-1.088.378-.22.475-.406.216-.413-.26-.007-.755.271-1.1.617m-72.272 1.262c.534 1.031 1.872 1.848 2.565 1.567.311-.127.276-.206-.1-.226-.318-.018-1.106-.527-1.752-1.132-1.029-.964-1.117-.99-.713-.209m142.252.1c-.394.434-.842.712-.996.617-.154-.095-.28.08-.28.388 0 .762 1.3.064 1.872-1.005.539-1.008.315-1.008-.596 0m22.373.991c-.54.54-.968 1.305-.95 1.7.024.556.08.583.249.118.121-.33.68-1.095 1.244-1.7 1.27-1.364.804-1.465-.543-.118m96.523-.553c-.382.223-.901.803-1.152 1.288-.413.799-.348.784.695-.167.634-.578 1.422-1.148 1.752-1.269.533-.194.533-.22 0-.237-.33-.011-.913.163-1.295.385M33.6 315.089c0 .503 1.143 1.501 1.412 1.232.106-.106-.168-.519-.61-.919-.441-.399-.802-.54-.802-.313m230.461.563c-.332.531-.745.725-1.185.558-.487-.186-.555-.135-.243.179.536.541 1.623.163 1.945-.677.364-.946.058-.982-.517-.06m-167.229.054c-.533.272-1.054.764-1.159 1.094-.145.46.001.431.626-.123.448-.398 1.329-.877 1.958-1.066.814-.244.913-.35.343-.371-.44-.015-1.236.194-1.768.466m-19.43.696c.4.442.813.716.919.61.269-.269-.729-1.412-1.232-1.412-.227 0-.086.361.313.802m-35.802.687c0 .503 1.143 1.501 1.412 1.232.106-.106-.168-.519-.61-.919-.441-.399-.802-.54-.802-.313m242.744.883c-.824.673-.869.838-.351 1.3.327.29.46.361.297.158-.164-.204.096-.789.576-1.3 1.06-1.129.773-1.216-.522-.158m-25.912.002c-.018.316-.423.991-.902 1.5-.478.509-.662.926-.409.926.64 0 1.799-1.863 1.548-2.487-.152-.38-.214-.364-.237.061M43.39 319.615c-.403.653.493 1.462 1.027.928.289-.289.239-.565-.164-.899-.43-.357-.655-.364-.863-.029m141.442.091c-.533.272-1.054.764-1.159 1.094-.145.46.001.431.626-.123.448-.398 1.329-.877 1.958-1.066.814-.244.913-.35.343-.371-.44-.015-1.236.194-1.768.466m96 0c-.533.272-1.054.764-1.159 1.094-.145.46.001.431.626-.123.448-.398 1.329-.877 1.958-1.066.814-.244.913-.35.343-.371-.44-.015-1.236.194-1.768.466m-125.118 2.136c-.487.527-.725.958-.528.958.47 0 1.614-1.155 1.614-1.629 0-.483-.042-.458-1.086.671m92.732 1.676c-.025.505-.488 1.36-1.028 1.9-.54.54-1.395 1.003-1.9 1.028-.559.029-.671.113-.286.217.347.093 1.115-.015 1.707-.24 1.116-.424 2.018-2.094 1.724-3.191-.104-.385-.188-.273-.217.286m-71.046.082c-.431.697.208 1.292.831.774.308-.256.462-.624.341-.819-.292-.472-.866-.45-1.172.045m68.926.888c-.591.611-.938 1.112-.77 1.112.379 0 2.243-1.955 2.012-2.111-.092-.063-.652.387-1.242.999m27.074-.888c-.431.697.208 1.292.831.774.308-.256.462-.624.341-.819-.292-.472-.866-.45-1.172.045m-123.756 2.147c-.357.43-.364.655-.029.863.653.403 1.462-.493.928-1.027-.289-.289-.565-.239-.899.164m-80.398.937c-.025.487.23 1.117.568 1.4.779.655 1.447 1.323 2.102 2.102.283.338.692.614.907.614.215 0-.403-.765-1.373-1.7-.97-.935-1.852-2.06-1.96-2.5-.181-.736-.201-.729-.244.084m102.583 1.145c-.346.345-.624.84-.617 1.1.007.259.202.145.434-.255.232-.399.812-.882 1.288-1.074.642-.259.692-.356.195-.375-.37-.014-.955.258-1.3.604m69.815-.082c-.357.43-.364.655-.029.863.653.403 1.462-.493.928-1.027-.289-.289-.565-.239-.899.164m26.185.082c-.346.345-.624.84-.617 1.1.007.259.193.162.413-.216.22-.378.71-.868 1.088-1.088.378-.22.475-.406.216-.413-.26-.007-.755.271-1.1.617m-28.535 1.783c-1.358 1.235-1.382 1.477-.077.779.623-.334 1.899-2.021 1.497-1.979-.063.006-.702.546-1.42 1.2m-95.723-.177c-.299.36-.909.803-1.357.984-.615.25-.654.336-.158.356.775.03 2.652-1.397 2.301-1.75-.134-.134-.487.05-.786.41m187.153 1.049c.378.378.287.593-.42.986-.569.316-.682.505-.304.51.998.013 1.643-.604 1.371-1.312-.141-.367-.453-.668-.694-.668-.29 0-.275.162.047.484m.98 1.337c-.273.295-.363.617-.2.716.163.098.519-.063.792-.358s.363-.617.2-.716c-.163-.098-.519.063-.792.358m-197.095 2.57c-.846.867-1.66 1.501-1.807 1.41-.148-.091-.269.096-.269.417 0 .32.057.582.127.582.334 0 3.853-3.621 3.683-3.79-.107-.108-.888.514-1.734 1.381m95.783.217c-.967.986-1.61 1.792-1.428 1.792.452 0 3.595-3.174 3.368-3.401-.1-.1-.973.624-1.94 1.609m-73.687 1.021c-.382.223-.901.803-1.152 1.288-.376.727-.236.676.795-.292 1.579-1.481 1.681-1.767.357-.996m96 0c-.382.223-.901.803-1.152 1.288-.413.799-.348.784.695-.167.634-.578 1.422-1.148 1.752-1.269.533-.194.533-.22 0-.237-.33-.011-.913.163-1.295.385m72.939.118c-.357.43-.364.655-.029.863.653.403 1.462-.493.928-1.027-.289-.289-.565-.239-.899.164m-196.242 1.851c-.399.441-.54.802-.313.802.503 0 1.501-1.143 1.232-1.412-.106-.106-.519.168-.919.61m96.312.244c-.487.527-.725.958-.528.958.47 0 1.614-1.155 1.614-1.629 0-.483-.042-.458-1.086.671m96 0c-.487.527-.725.958-.528.958.47 0 1.614-1.155 1.614-1.629 0-.483-.042-.458-1.086.671m-74.788 1.761c-.48.193-1.09.767-1.354 1.274l-.481.923 1.002-.921c.552-.506 1.521-1.075 2.155-1.265.778-.233.893-.348.352-.354-.44-.005-1.193.149-1.674.343m-96.815.497c-.959 1.24-.947 1.615.024.73.586-.533 1.065-1.028 1.065-1.1 0-.33-.742-.078-1.089.37m69.603 1.742c-.487.527-.725.958-.528.958.47 0 1.614-1.155 1.614-1.629 0-.483-.042-.458-1.086.671m-94.648-.242c.476.192 1.056.675 1.288 1.074.232.4.427.514.434.255.018-.698-1.146-1.733-1.917-1.704-.497.019-.447.116.195.375m20.763.229c-.346.345-.624.84-.617 1.1.007.259.202.145.434-.255.232-.399.812-.882 1.288-1.074.642-.259.692-.356.195-.375-.37-.014-.955.258-1.3.604m96.876-.2c-.382.223-.901.803-1.152 1.288-.376.727-.236.676.795-.292 1.579-1.481 1.681-1.767.357-.996m-151.041 4.448c-.048 1.119.152 1.629.825 2.1 1.305.915 1.793.76.59-.187-.619-.486-1.094-1.324-1.19-2.1-.159-1.277-.162-1.276-.225.187m16.4-.206c-.043.847-.416 1.548-1.118 2.1-.58.456-.87.829-.644.829 1.136 0 2.159-1.442 1.994-2.81l-.168-1.39-.064 1.271m102 0c-.043.847-.416 1.548-1.118 2.1-.58.456-.87.829-.644.829 1.136 0 2.159-1.442 1.994-2.81l-.168-1.39-.064 1.271m-78.636-.316c-.121.195.033.563.341.819.623.518 1.262-.077.831-.774-.306-.495-.88-.517-1.172-.045m4.401.274c-.346.345-.604 1.02-.575 1.5.055.867.056.867.228-.025.095-.494.56-1.169 1.034-1.5.474-.332.655-.604.402-.604-.254 0-.744.283-1.089.629m163.815 3.918c-.357.43-.364.655-.029.863.653.403 1.462-.493.928-1.027-.289-.289-.565-.239-.899.164m-74.598 3.479c-.854.88-1.473 1.68-1.375 1.779.099.098.97-.628 1.937-1.613.967-.986 1.586-1.786 1.375-1.779-.211.008-1.082.734-1.937 1.613m-5.217 2.603c-.346.345-.624.84-.617 1.1.007.259.193.162.413-.216.22-.378.71-.868 1.088-1.088.378-.22.475-.406.216-.413-.26-.007-.755.271-1.1.617m-28.115 2.013c-.487.527-.725.958-.528.958.47 0 1.614-1.155 1.614-1.629 0-.483-.042-.458-1.086.671m22.468.34c-.54.54-.968 1.305-.95 1.7.024.556.08.583.249.118.121-.33.68-1.095 1.244-1.7 1.27-1.364.804-1.465-.543-.118m-94.928.489c-.057.92.887 2.129 1.664 2.129.253 0 .072-.272-.402-.604-.474-.331-.939-1.006-1.034-1.5-.172-.892-.173-.892-.228-.025m68.807.981c-.332.531-.745.725-1.185.558-.487-.186-.555-.135-.243.179.536.541 1.623.163 1.945-.677.364-.946.058-.982-.517-.06m95.341-.054c-.399.441-.54.802-.313.802.503 0 1.501-1.143 1.232-1.412-.106-.106-.519.168-.919.61m-75.058 2.368c-.519.421-.84.87-.712.998.127.128.654-.216 1.169-.766 1.114-1.185.871-1.308-.457-.232m-26.092 1.444c-.129.335-.643.773-1.143.974-.644.259-.714.373-.238.391.714.027 1.929-.983 1.929-1.604 0-.567-.287-.442-.548.239m95.809.242c-.332.531-.745.725-1.185.558-.487-.186-.555-.135-.243.179.536.541 1.623.163 1.945-.677.364-.946.058-.982-.517-.06m-154.671 1.963c-.403.653.493 1.462 1.027.928.289-.289.239-.565-.164-.899-.43-.357-.655-.364-.863-.029m71.099 4.208c-.489.342-.889.824-.889 1.069 0 .246.405.079.9-.371.495-.451 1.17-.918 1.5-1.039.526-.192.525-.223-.011-.25-.336-.018-1.011.248-1.5.591m67.225 2.019c-.487.527-.725.958-.528.958.47 0 1.614-1.155 1.614-1.629 0-.483-.042-.458-1.086.671m-87.971-.266c.629.208 1.484.686 1.9 1.063.416.377.757.499.757.272 0-.68-.991-1.294-2.438-1.509-1.309-.195-1.318-.188-.219.174m18.086.253c-.346.345-.624.84-.617 1.1.007.259.193.162.413-.216.22-.378.71-.868 1.088-1.088.378-.22.475-.406.216-.413-.26-.007-.755.271-1.1.617m-50.165 2.248c-.048 1.119.152 1.629.825 2.1 1.305.915 1.793.76.59-.187-.619-.486-1.094-1.324-1.19-2.1-.159-1.277-.162-1.276-.225.187m23.738-.115c.215 1.447.829 2.438 1.509 2.438.227 0 .105-.341-.272-.757s-.855-1.271-1.063-1.9c-.362-1.099-.369-1.09-.174.219m92.662-.091c-.043.847-.416 1.548-1.118 2.1-.58.456-.87.829-.644.829 1.136 0 2.159-1.442 1.994-2.81l-.168-1.39-.064 1.271m-76.955-.255c.501.201 1.074.774 1.275 1.275.259.644.373.713.391.238.032-.865-1.039-1.936-1.904-1.904-.475.018-.406.132.238.391m-26.677.455c-.048 1.012-2.055 2.418-3.153 2.208-.612-.117-.803-.043-.549.211 1.077 1.077 4.506-1.167 3.939-2.577-.134-.333-.217-.278-.237.158m95.139 5.364c-.299.36-.909.803-1.357.984-.615.25-.654.336-.158.356.775.03 2.652-1.397 2.301-1.75-.134-.134-.487.05-.786.41m-9.179 5.173c-.967.986-1.61 1.792-1.428 1.792.452 0 3.595-3.174 3.368-3.401-.1-.1-.973.624-1.94 1.609m-4.331 3.044c-.332.531-.745.725-1.185.558-.487-.186-.555-.135-.243.179.536.541 1.623.163 1.945-.677.364-.946.058-.982-.517-.06m-66.659 2.31c.215 1.447.829 2.438 1.509 2.438.227 0 .105-.341-.272-.757s-.855-1.271-1.063-1.9c-.362-1.099-.369-1.09-.174.219m61.044-.516c-.025.465-.44 1.347-.921 1.958-.565.719-.671 1.046-.3.925.761-.249 1.677-2.171 1.449-3.04-.141-.537-.191-.502-.228.157m-10 6.072c-.025.505-.488 1.36-1.028 1.9-.54.54-1.395 1.003-1.9 1.028-.559.029-.671.113-.286.217.347.093 1.115-.015 1.707-.24 1.116-.424 2.018-2.094 1.724-3.191-.104-.385-.188-.273-.217.286m-2.12.97c-.591.611-.938 1.112-.77 1.112.379 0 2.243-1.955 2.012-2.111-.092-.063-.652.387-1.242.999"/><path fill="#ec560b" d="M71.25 106.11c-.561.561-.597 1.628-.043 1.286.223-.138.285-.447.138-.685-.164-.266-.082-.319.213-.137.37.229.372.428.008.867-.342.412-.614.451-.987.142-.465-.387-.527-.053-.21 1.131.084.312 1.66-.821 1.979-1.423.478-.9-.418-1.861-1.098-1.181m-6.45 1.903c0 .213-.242.387-.538.387-.296 0-.864.36-1.262.8-.565.624-1.232.8-3.031.8-1.836 0-2.539.192-3.438.941-.622.518-2.078 1.253-3.235 1.634-1.266.416-2.287 1.037-2.565 1.558-.574 1.078-1.537 1.838-2.35 1.854-.895.019-4.657 2.86-5.128 3.874-.22.473-1.293 1.346-2.385 1.941-1.47.8-2.263 1.59-3.054 3.043-.587 1.079-1.573 2.224-2.191 2.543-.665.344-1.382 1.227-1.757 2.163-.348.869-.809 1.69-1.026 1.824-.217.134-1.072 1.499-1.901 3.034-.829 1.535-1.643 2.791-1.808 2.791-.374 0-.98 2.321-1.341 5.134-.195 1.515-.604 2.51-1.409 3.427-1.398 1.592-2.768 4.968-2.821 6.954-.054 2.021-.497 3.475-1.078 3.535-.265.028-.662.072-.882.1-.22.028-.4.399-.4.826 0 2.296-.808.937-.863-1.452L20.273 153l-.397 3.6c-.24 2.178-.412 24.347-.436 56.135l-.04 52.536.944.764c.52.421 1.375.765 1.9.765.923 0 .956.104.956 3v3h4v4h5.9l.252 1.262c.429 2.142.82 2.338 4.674 2.338 3 0 3.608-.113 4.056-.752.289-.414.885-.82 1.322-.903.438-.082.974-.554 1.191-1.047.357-.812.673-.898 3.3-.898H50.8v-4h4v-150h1.551c1.561 0 2.559-.687 2.426-1.67-.355-2.623.048-4.33 1.023-4.33.8 0 1-.2 1-1 0-.872.175-1 1.371-1 1.743 0 2.629-.886 2.629-2.629 0-1.205.124-1.371 1.025-1.371.91 0 1.012-.142.9-1.257-.116-1.169-1.925-2.607-1.925-1.53m54.636 27.547c-.517.572-.567.836-.2 1.062.292.181.385.135.23-.115-.32-.518.687-1.409 1.135-1.004.18.164.198.072.04-.203-.371-.644-.391-.64-1.205.26m-9.036 1.265c-.368.478-1.452.935-2.8 1.182-1.21.221-2.65.724-3.2 1.117-.55.394-1.743.932-2.652 1.197-1.225.358-1.779.787-2.141 1.661-.409.987-.842 1.258-2.67 1.667-1.516.339-2.467.828-3.118 1.602-.516.612-1.398 1.229-1.96 1.37-.563.141-1.486.864-2.052 1.605-.656.861-1.74 1.602-2.996 2.048-1.411.501-2.033.959-2.199 1.621-.128.508-1.463 2.224-2.967 3.814-2.174 2.299-2.919 3.424-3.631 5.491-.493 1.43-1.324 3.234-1.847 4.01-.523.775-1.212 2.665-1.532 4.2-1.427 6.85-1.372 6.743-3.335 6.562-.165-.015-.517.48-.782 1.1l-.482 1.128-.064-1.4-.064-1.4-.334 1.6c-.526 2.523-.443 82.634.086 83.272.932 1.123 8.999.705 10.235-.53.582-.582 1.429-1.077 1.881-1.1.453-.023.848-.312.878-.642.029-.33.074-.828.1-1.108.03-.334.381-.423 1.026-.261.729.183 1.245-.02 2.018-.793.571-.571 1.48-1.038 2.02-1.038.912 0 .982-.143.982-2v-2h3c2.933 0 3-.022 3-1 0-.945.126-1.003 2.3-1.046 3.357-.067 3.495-.097 3.554-.754.029-.33.074-21.064.1-46.075l.046-45.475 1.33.216c2.161.351 2.67-.506 2.67-4.495 0-2.414.142-3.38.5-3.402 2.441-.149 3.184-.965 3.415-3.749.167-2.019.27-2.22 1.135-2.22.872 0 .95-.162.95-1.978v-1.978l1.9-.122c2.073-.133 2.985-1.921 1.1-2.155-.44-.055-1.25-.195-1.8-.311-.695-.146-1.183.027-1.6.569M19.368 150.2c0 4.4.058 6.255.13 4.121.072-2.133.072-5.733.001-8-.072-2.266-.131-.521-.131 3.879m141.337 14.237c-1.262.141-2.54.46-2.839.709-.3.248-1.517.635-2.706.859-2.089.395-7.813 3.497-8.442 4.576-.155.267-1.371.917-2.701 1.445-1.678.667-3.222 1.729-5.039 3.467-1.441 1.379-2.966 2.507-3.39 2.507-.423 0-1.08.495-1.46 1.1-1.102 1.754-3.392 4.241-4.586 4.981-.728.451-1.188 1.159-1.365 2.1-.146.78-.874 2.184-1.618 3.119-.743.935-1.353 1.986-1.355 2.335-.002.349-.748 2.117-1.657 3.927-1.316 2.62-1.738 4.002-2.067 6.765-.453 3.807-.498 3.878-2.735 4.235l-1.545.247V232.8h4.818c4.538 0 4.874-.055 5.768-.949.522-.523 1.589-1.07 2.37-1.216 1.546-.29 2.644-1.497 2.644-2.906 0-.832.201-.902 2.9-1.011l2.9-.118.122-1.9.122-1.9 2.278-.046c3.402-.069 3.478-.09 3.478-.954 0-.683.307-.818 2.1-.921l2.1-.121v-1.951c0-1.719.107-1.967.9-2.079l.9-.128.104-18.9.104-18.9 1.096-.043c3.023-.117 2.771.224 2.853-3.857l.043-2.1h1.371c1.275 0 1.629-.213 2.907-1.745.262-.316.712-.652.999-.747.287-.096.553-.789.591-1.541.039-.752.084-1.502.101-1.667.017-.165.648-.3 1.402-.3 1.447 0 2.629-.842 2.629-1.871 0-.41-.223-.529-.668-.358-.367.141-.772.111-.9-.067-.128-.177-1.265-.207-2.527-.067M20.933 265.598c.407.524.377.531-.233.053-.465-.365-.679-1.036-.636-2l.064-1.451.169 1.398c.092.77.379 1.67.636 2M38 279.6c1.866 0 3.256-.193 3.601-.5.477-.425.481-.396.031.2-.425.561-1.146.7-3.632.7s-3.207-.139-3.632-.7c-.45-.596-.446-.625.031-.2.345.307 1.735.5 3.601.5"/></g></svg>