<svg xmlns="http://www.w3.org/2000/svg" role="img" viewBox="-6.48 -6.48 336.70 232.45"><title>Run.AI Run:AI Platform (Natural Language Processing) logo</title><style>svg {enable-background:new 0 0 324 219.7}</style><style>.st0{fill:#fff}.st1{fill:#df1995}</style><path d="M140.8 59.3c0 14.5-10 24.3-24.9 24.3-14.1 0-23.4-9.6-23.4-24V2.4h-22v63.8c0 23.4 15.3 38.7 38.3 38.7 13.6 0 24.5-5.5 32-15.7v13.4h22V2.4h-22v56.9zm58.7-12.2c0-15.5 10.6-25.9 26.5-25.9 15.1 0 24.9 10.2 24.9 25.5v55.8h22v-63C272.9 15.7 257 0 233.3 0c-14.3 0-25.9 5.7-33.8 16.3V2.4h-22v100.1h22V47.1z" class="st0"/><path d="M22 16.3V2.4H0v100.1h22V47.1c0-15.5 10.6-25.9 26.5-25.9 2.6 0 5 .4 7.3 1V0C41.4 0 29.8 5.7 22 16.3z" class="st0"/><path d="M272.7 117.2h-73.3V138h51.3v15.1h-27.1c-20.6 0-36.1 14.3-36.1 33.2 0 19 15.5 33.4 36.1 33.4 12.6 0 23.2-5.3 29.7-13.7v11.4h29.3v-20h-9.8v-80.2zm-22 67.6c0 9.8-9.4 16.1-23.4 16.1-9.8 0-17.3-6.3-17.3-14.7 0-8.2 7.5-14.5 17.3-14.5h23.4v13.1zm57.6-118.4c-8.8 0-15.7 6.9-15.7 15.7 0 8.8 6.9 15.5 15.7 15.5 9 0 15.7-6.7 15.7-15.5 0-8.9-6.7-15.7-15.7-15.7z" class="st1"/><path d="M308.3 38.5c9 0 15.7-6.7 15.7-15.7 0-8.8-6.7-15.5-15.7-15.5-8.8 0-15.7 6.7-15.7 15.5 0 9 6.9 15.7 15.7 15.7z" class="st0"/><path d="M297.3 117.2h22v100.1h-22z" class="st1"/></svg>