<svg xmlns="http://www.w3.org/2000/svg" role="img" viewBox="10.16 24.91 368.68 246.18"><title>SAS Viya (Business Intelligence) logo</title><path fill="#1dbcb4" fill-rule="evenodd" d="M161.041 32.457c-1.963.139-4.706.446-6.097.682-1.39.237-3.398.514-4.461.616-3.192.308-5.248.73-6.71 1.377-.762.337-2.778.864-4.479 1.171-3.185.574-3.579.714-5.318 1.894-.562.382-1.962.924-3.111 1.206-1.243.304-2.515.849-3.137 1.344-.576.457-1.747.996-2.603 1.197-1.88.441-2.463.723-3.681 1.781-.514.446-1.547 1.045-2.295 1.331-.747.285-1.573.845-1.834 1.245-.262.399-1.036.968-1.721 1.266-.684.297-1.579.908-1.988 1.358-.409.451-1.413 1.131-2.231 1.512-.817.38-1.992 1.132-2.611 1.67-1.373 1.196-4.158 3.757-4.885 4.493-.293.297-1.002 1.002-1.574 1.565-1.277 1.258-1.247 1.227-2.504 2.504-1.177 1.195-1.583 1.606-3.489 3.519-.761.763-1.472 1.686-1.579 2.05-.108.363-.507.906-.888 1.206-.381.299-1.096 1.34-1.59 2.312-.494.973-1.309 2.158-1.811 2.635-.502.477-1.06 1.311-1.239 1.854-.18.543-.649 1.242-1.044 1.552-.396.311-1.1 1.373-1.567 2.359-.467.987-1.199 2.211-1.628 2.72-.428.509-.871 1.424-.983 2.032-.33 1.793-.953 3.333-1.712 4.235-.392.466-.941 1.788-1.227 2.956-.285 1.162-.83 2.572-1.211 3.134-1.202 1.771-1.308 2.111-1.776 5.682-.252 1.921-.775 4.305-1.164 5.299-1.322 3.387-1.642 6.043-1.905 15.786-.261 9.693-.523 10.168-6.048 10.997-2.954.444-3.548.639-5.446 1.793-.654.398-1.791.814-2.527.924-1.931.288-3.496.893-4.502 1.739-.483.407-1.374.873-1.98 1.037-.606.164-1.815.834-2.686 1.49-.871.655-2.102 1.331-2.735 1.501-.633.171-1.395.621-1.693 1-.299.379-1.075 1.03-1.726 1.446-.651.416-1.786 1.304-2.522 1.972-.736.668-1.689 1.362-2.117 1.54-.428.179-.959.663-1.18 1.076-.221.413-.901 1.006-1.512 1.317-.675.345-1.304.976-1.607 1.613-.273.576-.882 1.275-1.353 1.553s-.94.768-1.041 1.088c-.102.321-.749 1.195-1.438 1.943-.689.749-1.66 1.964-2.159 2.7-.499.736-1.185 1.588-1.525 1.894-.34.306-.772 1.042-.959 1.636-.188.594-.737 1.584-1.221 2.201-.483.617-1.215 1.888-1.627 2.825-.411.937-1.057 2.038-1.435 2.447-.426.46-.915 1.678-1.283 3.192-.341 1.403-.974 3.02-1.482 3.787-.667 1.006-.973 1.948-1.233 3.797-.618 4.381-.957 6.004-1.521 7.293-1.327 3.03-1.667 17.479-.484 20.519 1.219 3.129 1.386 3.761 1.681 6.373.434 3.833.798 5.214 1.678 6.367.416.546.998 1.932 1.293 3.081.296 1.149.948 2.708 1.449 3.465.502.757 1.114 2.07 1.36 2.918.246.847.8 1.869 1.23 2.27.43.402 1.121 1.399 1.535 2.217.414.818 1.204 1.989 1.755 2.603.551.614 1.002 1.329 1.002 1.589 0 .521.303.85 7.029 7.644 2.558 2.585 5.152 4.954 5.763 5.267.612.312 1.192.773 1.289 1.025.096.252.882.779 1.746 1.17.864.391 2.026 1.138 2.581 1.659.556.521 1.693 1.268 2.528 1.659s1.852.98 2.261 1.309c.409.328 1.614.811 2.677 1.072s2.602.925 3.42 1.475c1.135.764 2.217 1.149 4.573 1.627 1.698.345 3.572.869 4.164 1.165 3.773 1.883 1.964 1.859 128.81 1.742 120.698-.112 118.483-.088 121.784-1.323 1.431-.535 4.32-1.371 7.087-2.051 1.118-.274 2.402-.811 2.855-1.192.453-.38 1.88-.978 3.173-1.329 1.366-.37 2.661-.928 3.094-1.335.41-.384 1.642-1.105 2.739-1.603 1.097-.497 2.13-1.157 2.295-1.466.166-.308.849-.78 1.518-1.048.67-.268 1.554-.851 1.966-1.295.412-.444 1.373-1.172 2.137-1.618 1.8-1.051 10.287-9.506 11.286-11.244.423-.736 1.28-1.904 1.904-2.596.625-.691 1.135-1.471 1.135-1.732 0-.262.425-.901.945-1.42.519-.519 1.335-1.813 1.813-2.877.479-1.063 1.129-2.214 1.446-2.558.317-.343.854-1.615 1.194-2.825.34-1.21 1.073-2.942 1.63-3.849.778-1.269 1.115-2.29 1.461-4.432.248-1.53.772-3.598 1.166-4.596 1.11-2.815 1.373-4.859 1.56-12.101.25-9.696-.265-15.079-1.846-19.304-.275-.736-.763-2.543-1.083-4.015-.321-1.472-.899-3.157-1.285-3.745-.386-.588-.986-2.022-1.333-3.185-.346-1.164-.941-2.49-1.322-2.946-.821-.983-1.513-2.31-1.774-3.402-.104-.433-.667-1.36-1.253-2.061-.585-.701-1.332-1.8-1.66-2.442-.328-.643-1.054-1.627-1.614-2.187-.56-.56-1.018-1.205-1.018-1.433 0-.228-.452-.792-1.003-1.254-.552-.461-1.218-1.261-1.48-1.777s-.942-1.225-1.51-1.576c-.568-.351-1.117-.903-1.219-1.226-.103-.324-.545-.81-.982-1.082-.737-.457-1.766-1.389-4.574-4.144-.606-.594-1.618-1.312-2.25-1.594-.631-.283-1.607-.917-2.169-1.41-.562-.493-1.649-1.19-2.416-1.55-.767-.36-1.591-.955-1.832-1.323-.295-.451-1.087-.844-2.437-1.209-1.109-.3-2.412-.895-2.926-1.335-.544-.465-1.912-1.071-3.307-1.465-1.308-.369-2.847-.985-3.42-1.37-.572-.384-1.585-.842-2.249-1.016-2.166-.568-2.501-1.216-2.799-5.414-.201-2.831-.434-4.096-1.005-5.467-.409-.982-.891-2.855-1.072-4.164-.475-3.448-.756-4.476-1.47-5.383-.35-.445-.907-1.703-1.239-2.796-.342-1.125-1.104-2.652-1.755-3.519-.633-.842-1.234-1.912-1.336-2.377-.102-.465-.715-1.347-1.363-1.96-.647-.614-1.176-1.245-1.176-1.403 0-.273-5.318-5.566-8.176-8.138-.727-.654-1.716-1.306-2.198-1.448-.482-.143-1.494-.77-2.251-1.395-.769-.636-2.073-1.339-2.96-1.597-.873-.254-1.762-.672-1.976-.93-.642-.774-1.934-1.307-4.369-1.803-1.27-.259-3.226-.87-4.348-1.358-4.534-1.972-19.653-1.84-23.692.207-.761.386-2.488.976-3.838 1.312-1.461.364-2.803.903-3.313 1.333-.848.714-1.618 1.028-4.07 1.659-.785.202-1.451.61-1.755 1.075-.27.412-1.008 1.013-1.641 1.335-.632.323-1.475.952-1.872 1.398-.398.446-1.447 1.203-2.331 1.681-.884.478-1.897 1.293-2.252 1.81-.354.516-.958 1.108-1.343 1.314-.385.206-.975.865-1.313 1.465-.598 1.065-2.46 3.395-4.701 5.885-.613.681-1.311 1.854-1.551 2.608-.241.753-.75 1.707-1.131 2.118-.954 1.03-1.244 1.633-1.616 3.369-.176.823-.712 1.989-1.191 2.591-.478.602-1.011 1.645-1.184 2.318-.619 2.404-.937 3.184-1.646 4.027-.396.47-1.037 1.952-1.426 3.294-.389 1.341-.995 2.727-1.349 3.078-.353.352-.979 1.742-1.391 3.09-.412 1.349-1.053 2.821-1.425 3.272-.773.938-.963 1.38-1.561 3.634-.237.893-.767 2.064-1.177 2.603-.761.998-1.04 1.668-1.594 3.837-.172.673-.699 1.71-1.172 2.305-.522.657-1.06 1.9-1.369 3.162-.306 1.247-.848 2.506-1.354 3.142-.831 1.046-1.131 1.761-1.753 4.179-.173.673-.699 1.707-1.169 2.298-.501.631-1.06 1.905-1.354 3.088-.299 1.2-.853 2.455-1.369 3.103-.478.599-1.013 1.734-1.19 2.523-.409 1.828-1.353 3.972-1.748 3.972-.168 0-.656 1.151-1.085 2.557-.429 1.407-1.166 3.113-1.638 3.792-.472.679-1.06 2.025-1.307 2.99-.246.966-.65 2.036-.897 2.379-.247.343-.662.918-.922 1.277-.261.36-.676 1.538-.923 2.618-1.116 4.897-5.189 4.723-6.362-.272-.41-1.748-.936-2.883-1.585-3.421-.251-.209-.808-1.534-1.239-2.945-.43-1.412-1.103-2.947-1.495-3.413-.392-.465-1.002-1.844-1.357-3.064-.354-1.22-.944-2.542-1.31-2.937-.612-.66-1.305-2.403-1.739-4.371-.096-.437-.515-1.199-.931-1.693-.7-.832-1.342-2.39-1.735-4.209-.089-.413-.577-1.377-1.085-2.142-.507-.766-1.232-2.398-1.611-3.627-.379-1.228-1.015-2.62-1.413-3.093-.397-.472-.967-1.782-1.264-2.91-.298-1.128-.854-2.388-1.235-2.799-.732-.792-1.387-2.395-1.724-4.225-.112-.609-.513-1.479-.892-1.933-.967-1.163-1.304-1.878-1.67-3.54-.175-.798-.727-2.024-1.225-2.725-.499-.702-1.21-2.257-1.58-3.457-.371-1.2-1.006-2.634-1.412-3.186-.406-.552-.978-1.673-1.269-2.491-.828-2.318-1.15-2.666-3.977-4.283-3.164-1.811-4.644-1.992-6.297-.773-.554.409-1.188.744-1.409.744-.83 0-3.583 3.122-3.953 4.484-.519 1.91-.208 5.668.569 6.89 1.001 1.572 1.753 3.251 2.138 4.771.198.784.736 1.898 1.196 2.476.723.911 1.038 1.718 1.956 5.022.091.327.496.948.901 1.381.436.467.964 1.655 1.296 2.921.308 1.174.875 2.508 1.26 2.965.746.887 1.041 1.573 1.809 4.212.266.915.755 1.909 1.085 2.207.33.299.932 1.632 1.338 2.963.405 1.33 1.078 2.88 1.493 3.442.416.563 1.089 2.115 1.496 3.449.407 1.333.957 2.605 1.223 2.825.592.491 1.166 1.826 1.58 3.671.171.766.704 1.882 1.183 2.481.48.599 1.069 1.849 1.31 2.777.463 1.789.832 2.608 1.719 3.813.301.409.871 1.795 1.268 3.08.396 1.284 1.016 2.651 1.379 3.037.362.386.979 1.808 1.371 3.16.414 1.43 1.011 2.773 1.426 3.208.407.428.971 1.681 1.313 2.919.329 1.193.937 2.571 1.35 3.062.413.491.901 1.455 1.086 2.143.638 2.384 1.192 3.708 1.768 4.229.318.288.929 1.673 1.357 3.077.429 1.405 1.089 2.922 1.467 3.372.675.802.993 1.582 1.61 3.955.218.838.577 1.341 1.215 1.701.498.282 1.136.919 1.417 1.416 1.146 2.025 8.426 2.105 9.735.108.251-.385.989-1.035 1.639-1.445.651-.411 1.183-.921 1.183-1.135 0-.974.978-3.527 1.664-4.342.416-.495 1.029-1.873 1.362-3.062.333-1.19.92-2.582 1.306-3.094.726-.966 1.303-2.338 1.886-4.483.187-.688.691-1.667 1.119-2.176.439-.522 1.029-1.859 1.35-3.062.331-1.239.871-2.451 1.285-2.885.416-.437 1.013-1.782 1.431-3.227.395-1.363 1.007-2.766 1.36-3.117.353-.352.989-1.777 1.413-3.167.424-1.391 1.077-2.893 1.45-3.338.672-.802.994-1.6 1.607-3.983.173-.673.698-1.707 1.168-2.298.501-.631 1.06-1.905 1.355-3.088.296-1.189.852-2.455 1.357-3.089.473-.594 1.077-1.924 1.349-2.974.494-1.906 1.267-3.535 1.678-3.535.121 0 .565-1.091.986-2.424.421-1.333 1.217-3.173 1.769-4.089.551-.916 1.162-2.366 1.357-3.222.195-.856.743-2.045 1.218-2.642.474-.597 1.004-1.637 1.178-2.31.621-2.418.938-3.186 1.676-4.062.412-.49.981-1.794 1.265-2.898.567-2.205.944-3.045 1.62-3.605.412-.342 1.089-2.12 1.483-3.893.09-.409.632-1.467 1.204-2.351.572-.885 1.185-2.309 1.363-3.165.185-.89.764-2.177 1.35-3.001.564-.794 1.026-1.587 1.026-1.763 0-.901.998-3.48 1.643-4.247.405-.481 1.017-1.784 1.361-2.896.384-1.245.936-2.314 1.435-2.783.447-.418 1.05-1.386 1.341-2.15.683-1.795 6.203-7.122 10.28-9.921.572-.393 1.311-.915 1.642-1.16.331-.245 1.591-.654 2.8-.909 1.21-.254 2.612-.715 3.116-1.025 2.562-1.572 11.695-1.667 14.881-.155.54.257 2.292.791 3.893 1.187 1.639.406 3.181.974 3.53 1.302.342.32 1.508.978 2.591 1.464 1.084.485 2.171 1.17 2.417 1.52.245.351 1.065 1.03 1.821 1.51.757.479 1.376 1.074 1.376 1.322 0 .247.463.752 1.028 1.122.566.369 1.195 1.006 1.398 1.415.202.409.866 1.279 1.475 1.933.747.802 1.272 1.771 1.61 2.974.276.981.814 2.119 1.194 2.528 1.526 1.641 2.824 9.968 2.264 14.533-.966 7.875-1.268 9.866-1.669 11.003l-.436 1.237 1.103.717c1.437.933 6.323 2.085 11.363 2.681 3.386.399 4.341.632 6.097 1.484 1.145.555 2.95 1.227 4.011 1.492 1.138.285 2.242.782 2.692 1.213.419.402 1.619 1.066 2.665 1.476 1.047.411 2.244 1.067 2.662 1.458.417.392 1.18.964 1.696 1.272 2.037 1.216 10.809 9.65 10.809 10.392 0 .144.525.835 1.166 1.536.641.702 1.372 1.881 1.624 2.621s.845 1.706 1.317 2.148c.591.552 1.071 1.519 1.542 3.104.376 1.266.769 2.302.873 2.302.514 0 1.331 2.145 1.961 5.145.385 1.832 1.009 4.134 1.387 5.115.653 1.694.688 2.162.688 9.22v7.435l-.842 2.016c-.463 1.109-1.028 3.166-1.255 4.572-.529 3.262-.641 3.612-1.55 4.825-.414.552-1.058 1.991-1.43 3.197-.436 1.416-1.053 2.634-1.74 3.436-.585.684-1.064 1.422-1.064 1.642 0 .22-.518.965-1.151 1.657-.633.691-1.255 1.591-1.382 2-.345 1.11-7.79 8.562-9.363 9.372-.736.379-1.493.947-1.683 1.262-.189.314-1.092.926-2.007 1.359-.915.433-1.663.92-1.663 1.082 0 .501-1.319 1.192-3.356 1.756-1.072.298-2.361.887-2.864 1.31-1.069.9-1.073.901-4.901 1.69-1.618.333-3.09.727-3.271.874-1.791 1.459 6.11 1.362-119.586 1.457-121.115.091-119.186.11-122.082-1.173-.736-.326-2.784-.915-4.552-1.309-2.269-.505-3.581-.972-4.461-1.588-.686-.48-2.016-1.088-2.955-1.352-.94-.264-2.145-.861-2.677-1.325-.532-.465-1.666-1.198-2.519-1.628-.852-.43-1.695-1.052-1.871-1.382-.177-.33-.898-.871-1.603-1.202-.705-.331-1.464-.943-1.686-1.359-.223-.416-.784-.953-1.247-1.192-.463-.239-1.09-.844-1.393-1.343-.304-.499-.961-1.156-1.46-1.459-.499-.304-1.108-.94-1.353-1.413-.245-.474-.786-1.085-1.202-1.357-.417-.273-.956-.972-1.199-1.553-.243-.582-.973-1.661-1.622-2.399-.65-.738-1.338-1.832-1.529-2.432-.192-.599-.65-1.424-1.02-1.833-.92-1.02-1.211-1.666-1.609-3.569-.188-.9-.745-2.201-1.239-2.893-.906-1.27-1.01-1.693-1.762-7.19-.188-1.374-.599-3.153-.914-3.951-.837-2.124-.827-9.192.018-11.887.325-1.037.733-3.023.907-4.414.556-4.435.863-5.718 1.598-6.682.395-.518 1.069-2.091 1.497-3.495.429-1.404.986-2.725 1.24-2.936.254-.21.865-1.194 1.358-2.185.494-.991 1.161-2.01 1.482-2.264.322-.254.944-1.154 1.384-2.001.893-1.72 6.068-7.476 7.923-8.811.661-.476 1.594-1.244 2.072-1.705.478-.462 1.443-1.059 2.146-1.328.702-.268 1.487-.81 1.746-1.204.258-.394 1.226-1.051 2.151-1.46.925-.409 2.095-1.059 2.6-1.444.505-.386 1.783-.94 2.841-1.232 1.057-.292 2.747-.964 3.755-1.494 1.298-.681 2.428-1.02 3.867-1.161 1.117-.109 3.236-.377 4.709-.596 1.472-.219 4.817-.55 7.434-.736 8.267-.589 7.799-.495 8.179-1.646.388-1.175.204-2.49-.751-5.352-1.964-5.891-1.893-24.944.11-29.342.323-.709.747-2.427.941-3.818.617-4.425.898-5.546 1.637-6.548.709-.961 1.404-2.782 1.78-4.663.104-.523.582-1.445 1.061-2.048s1.013-1.647 1.187-2.32c.174-.673.385-1.462.469-1.752.085-.291.679-1.135 1.321-1.877.642-.742 1.167-1.544 1.167-1.783 0-.239.511-1.001 1.137-1.692.625-.692 1.319-1.713 1.541-2.269.223-.557.915-1.601 1.538-2.321.623-.719 1.279-1.582 1.458-1.916.925-1.728 11.957-12.039 13.954-13.042.736-.37 1.841-1.123 2.454-1.674.614-.551 1.32-1.002 1.568-1.002.249 0 1.018-.522 1.71-1.159.72-.663 1.927-1.379 2.822-1.671.861-.282 2.041-.89 2.622-1.352.61-.485 1.771-.993 2.747-1.203 1.845-.397 2.757-.789 4.361-1.878.653-.443 1.869-.841 3.206-1.05 1.184-.184 3.558-.787 5.276-1.339 7.601-2.441 28.502-2.36 34.052.133.654.294 2.394.74 3.866.991 3.172.54 4.105.866 5.255 1.833.472.398 1.357.814 1.966.924 1.6.29 4.118 1.264 4.521 1.75.19.229 1.272.771 2.404 1.203 1.327.507 2.264 1.076 2.638 1.602.321.451 1.09.967 1.723 1.157.628.188 1.551.741 2.05 1.23.499.488 1.603 1.236 2.454 1.663.85.427 1.708 1.046 1.907 1.375.198.33.874.864 1.501 1.188.626.323 1.359.971 1.627 1.438.269.468.921 1.057 1.449 1.309.529.252 1.167.855 1.418 1.341.251.485.721.966 1.044 1.069.324.102 1.43.806 2.457 1.563 2.945 2.17 5.977 2.183 8.456.038.764-.661 1.69-1.317 2.058-1.457 1.296-.492 1.998-4.861 1.335-8.299-.266-1.377-8.607-10.131-9.653-10.131-.233 0-.751-.389-1.151-.865-.4-.475-1.315-1.162-2.033-1.527-.719-.364-1.747-1.046-2.284-1.515-.538-.469-1.609-1.176-2.38-1.57-.771-.395-1.572-1-1.78-1.345-.208-.345-1.078-.936-1.933-1.315-.855-.379-1.745-.919-1.977-1.2-.513-.622-1.74-1.153-3.81-1.648-.856-.205-2.049-.765-2.652-1.244-.602-.478-1.441-.946-1.864-1.038-2.468-.539-3.85-1.075-4.467-1.731-.686-.731-1.125-.859-6.859-1.997-.899-.179-2.111-.566-2.693-.861-1.111-.563-3.301-1.01-6.526-1.332-1.063-.106-3.138-.377-4.61-.602-2.435-.373-10.586-1.083-11.301-.985-.164.023-1.903.155-3.866.295"/><path fill="#a9e4e3" fill-opacity=".004" fill-rule="evenodd" d="M0 148.699v148.699h400V0H0v148.699m169.368-116.27c2.29.169 5.368.492 6.84.718 1.472.225 3.547.496 4.61.602 3.225.322 5.415.769 6.526 1.332.582.295 1.794.682 2.693.861 5.734 1.138 6.173 1.266 6.859 1.997.617.656 1.999 1.192 4.467 1.731.423.092 1.262.56 1.864 1.038.603.479 1.796 1.039 2.652 1.244 2.07.495 3.297 1.026 3.81 1.648.232.281 1.122.821 1.977 1.2s1.725.97 1.933 1.315c.208.345 1.009.95 1.78 1.345.771.394 1.842 1.101 2.38 1.57.537.469 1.565 1.151 2.284 1.515.718.365 1.633 1.052 2.033 1.527.4.476.918.865 1.151.865 1.046 0 9.387 8.754 9.653 10.131.663 3.438-.039 7.807-1.335 8.299-.368.14-1.294.796-2.058 1.457-2.479 2.145-5.511 2.132-8.456-.038-1.027-.757-2.133-1.461-2.457-1.563-.323-.103-.793-.584-1.044-1.069-.251-.486-.889-1.089-1.418-1.341-.528-.252-1.18-.841-1.449-1.309-.268-.467-1.001-1.115-1.627-1.438-.627-.324-1.303-.858-1.501-1.188-.199-.329-1.057-.948-1.907-1.375-.851-.427-1.955-1.175-2.454-1.663-.499-.489-1.422-1.042-2.05-1.23-.633-.19-1.402-.706-1.723-1.157-.374-.526-1.311-1.095-2.638-1.602-1.132-.432-2.214-.974-2.404-1.203-.403-.486-2.921-1.46-4.521-1.75-.609-.11-1.494-.526-1.966-.924-1.15-.967-2.083-1.293-5.255-1.833-1.472-.251-3.212-.697-3.866-.991-5.55-2.493-26.451-2.574-34.052-.133-1.718.552-4.092 1.155-5.276 1.339-1.337.209-2.553.607-3.206 1.05-1.604 1.089-2.516 1.481-4.361 1.878-.976.21-2.137.718-2.747 1.203-.581.462-1.761 1.07-2.622 1.352-.895.292-2.102 1.008-2.822 1.671-.692.637-1.461 1.159-1.71 1.159-.248 0-.954.451-1.568 1.002-.613.551-1.718 1.304-2.454 1.674-1.997 1.003-13.029 11.314-13.954 13.042-.179.334-.835 1.197-1.458 1.916-.623.72-1.315 1.764-1.538 2.321-.222.556-.916 1.577-1.541 2.269-.626.691-1.137 1.453-1.137 1.692 0 .239-.525 1.041-1.167 1.783s-1.236 1.586-1.321 1.877c-.084.29-.295 1.079-.469 1.752s-.708 1.717-1.187 2.32c-.479.603-.957 1.525-1.061 2.048-.376 1.881-1.071 3.702-1.78 4.663-.739 1.002-1.02 2.123-1.637 6.548-.194 1.391-.618 3.109-.941 3.818-2.003 4.398-2.074 23.451-.11 29.342.955 2.862 1.139 4.177.751 5.352-.38 1.151.088 1.057-8.179 1.646-2.617.186-5.962.517-7.434.736-1.473.219-3.592.487-4.709.596-1.439.141-2.569.48-3.867 1.161-1.008.53-2.698 1.202-3.755 1.494-1.058.292-2.336.846-2.841 1.232-.505.385-1.675 1.035-2.6 1.444-.925.409-1.893 1.066-2.151 1.46-.259.394-1.044.936-1.746 1.204-.703.269-1.668.866-2.146 1.328-.478.461-1.411 1.229-2.072 1.705-1.855 1.335-7.03 7.091-7.923 8.811-.44.847-1.062 1.747-1.384 2.001-.321.254-.988 1.273-1.482 2.264-.493.991-1.104 1.975-1.358 2.185-.254.211-.811 1.532-1.24 2.936-.428 1.404-1.102 2.977-1.497 3.495-.735.964-1.042 2.247-1.598 6.682-.174 1.391-.582 3.377-.907 4.414-.845 2.695-.855 9.763-.018 11.887.315.798.726 2.577.914 3.951.752 5.497.856 5.92 1.762 7.19.494.692 1.051 1.993 1.239 2.893.398 1.903.689 2.549 1.609 3.569.37.409.828 1.234 1.02 1.833.191.6.879 1.694 1.529 2.432.649.738 1.379 1.817 1.622 2.399.243.581.782 1.28 1.199 1.553.416.272.957.883 1.202 1.357.245.473.854 1.109 1.353 1.413.499.303 1.156.96 1.46 1.459.303.499.93 1.104 1.393 1.343.463.239 1.024.776 1.247 1.192.222.416.981 1.028 1.686 1.359.705.331 1.426.872 1.603 1.202.176.33 1.019.952 1.871 1.382.853.43 1.987 1.163 2.519 1.628.532.464 1.737 1.061 2.677 1.325.939.264 2.269.872 2.955 1.352.88.616 2.192 1.083 4.461 1.588 1.768.394 3.816.983 4.552 1.309 2.896 1.283.967 1.264 122.082 1.173 125.696-.095 117.795.002 119.586-1.457.181-.147 1.653-.541 3.271-.874 3.828-.789 3.832-.79 4.901-1.69.503-.423 1.792-1.012 2.864-1.31 2.037-.564 3.356-1.255 3.356-1.756 0-.162.748-.649 1.663-1.082.915-.433 1.818-1.045 2.007-1.359.19-.315.947-.883 1.683-1.262 1.573-.81 9.018-8.262 9.363-9.372.127-.409.749-1.309 1.382-2 .633-.692 1.151-1.437 1.151-1.657 0-.22.479-.958 1.064-1.642.687-.802 1.304-2.02 1.74-3.436.372-1.206 1.016-2.645 1.43-3.197.909-1.213 1.021-1.563 1.55-4.825.227-1.406.792-3.463 1.255-4.572l.842-2.016v-7.435c0-7.058-.035-7.526-.688-9.22-.378-.981-1.002-3.283-1.387-5.115-.63-3-1.447-5.145-1.961-5.145-.104 0-.497-1.036-.873-2.302-.471-1.585-.951-2.552-1.542-3.104-.472-.442-1.065-1.408-1.317-2.148-.252-.74-.983-1.919-1.624-2.621-.641-.701-1.166-1.392-1.166-1.536 0-.742-8.772-9.176-10.809-10.392-.516-.308-1.279-.88-1.696-1.272-.418-.391-1.615-1.047-2.662-1.458-1.046-.41-2.246-1.074-2.665-1.476-.45-.431-1.554-.928-2.692-1.213-1.061-.265-2.866-.937-4.011-1.492-1.756-.852-2.711-1.085-6.097-1.484-5.04-.596-9.926-1.748-11.363-2.681l-1.103-.717.436-1.237c.401-1.137.703-3.128 1.669-11.003.56-4.565-.738-12.892-2.264-14.533-.38-.409-.918-1.547-1.194-2.528-.338-1.203-.863-2.172-1.61-2.974-.609-.654-1.273-1.524-1.475-1.933-.203-.409-.832-1.046-1.398-1.415-.565-.37-1.028-.875-1.028-1.122 0-.248-.619-.843-1.376-1.322-.756-.48-1.576-1.159-1.821-1.51-.246-.35-1.333-1.035-2.417-1.52-1.083-.486-2.249-1.144-2.591-1.464-.349-.328-1.891-.896-3.53-1.302-1.601-.396-3.353-.93-3.893-1.187-3.186-1.512-12.319-1.417-14.881.155-.504.31-1.906.771-3.116 1.025-1.209.255-2.469.664-2.8.909-.331.245-1.07.767-1.642 1.16-4.077 2.799-9.597 8.126-10.28 9.921-.291.764-.894 1.732-1.341 2.15-.499.469-1.051 1.538-1.435 2.783-.344 1.112-.956 2.415-1.361 2.896-.645.767-1.643 3.346-1.643 4.247 0 .176-.462.969-1.026 1.763-.586.824-1.165 2.111-1.35 3.001-.178.856-.791 2.28-1.363 3.165-.572.884-1.114 1.942-1.204 2.351-.394 1.773-1.071 3.551-1.483 3.893-.676.56-1.053 1.4-1.62 3.605-.284 1.104-.853 2.408-1.265 2.898-.738.876-1.055 1.644-1.676 4.062-.174.673-.704 1.713-1.178 2.31-.475.597-1.023 1.786-1.218 2.642-.195.856-.806 2.306-1.357 3.222-.552.916-1.348 2.756-1.769 4.089-.421 1.333-.865 2.424-.986 2.424-.411 0-1.184 1.629-1.678 3.535-.272 1.05-.876 2.38-1.349 2.974-.505.634-1.061 1.9-1.357 3.089-.295 1.183-.854 2.457-1.355 3.088-.47.591-.995 1.625-1.168 2.298-.613 2.383-.935 3.181-1.607 3.983-.373.445-1.026 1.947-1.45 3.338-.424 1.39-1.06 2.815-1.413 3.167-.353.351-.965 1.754-1.36 3.117-.418 1.445-1.015 2.79-1.431 3.227-.414.434-.954 1.646-1.285 2.885-.321 1.203-.911 2.54-1.35 3.062-.428.509-.932 1.488-1.119 2.176-.583 2.145-1.16 3.517-1.886 4.483-.386.512-.973 1.904-1.306 3.094-.333 1.189-.946 2.567-1.362 3.062-.686.815-1.664 3.368-1.664 4.342 0 .214-.532.724-1.183 1.135-.65.41-1.388 1.06-1.639 1.445-1.309 1.997-8.589 1.917-9.735-.108-.281-.497-.919-1.134-1.417-1.416-.638-.36-.997-.863-1.215-1.701-.617-2.373-.935-3.153-1.61-3.955-.378-.45-1.038-1.967-1.467-3.372-.428-1.404-1.039-2.789-1.357-3.077-.576-.521-1.13-1.845-1.768-4.229-.185-.688-.673-1.652-1.086-2.143-.413-.491-1.021-1.869-1.35-3.062-.342-1.238-.906-2.491-1.313-2.919-.415-.435-1.012-1.778-1.426-3.208-.392-1.352-1.009-2.774-1.371-3.16-.363-.386-.983-1.753-1.379-3.037-.397-1.285-.967-2.671-1.268-3.08-.887-1.205-1.256-2.024-1.719-3.813-.241-.928-.83-2.178-1.31-2.777-.479-.599-1.012-1.715-1.183-2.481-.414-1.845-.988-3.18-1.58-3.671-.266-.22-.816-1.492-1.223-2.825-.407-1.334-1.08-2.886-1.496-3.449-.415-.562-1.088-2.112-1.493-3.442-.406-1.331-1.008-2.664-1.338-2.963-.33-.298-.819-1.292-1.085-2.207-.768-2.639-1.063-3.325-1.809-4.212-.385-.457-.952-1.791-1.26-2.965-.332-1.266-.86-2.454-1.296-2.921-.405-.433-.81-1.054-.901-1.381-.918-3.304-1.233-4.111-1.956-5.022-.46-.578-.998-1.692-1.196-2.476-.385-1.52-1.137-3.199-2.138-4.771-.777-1.222-1.088-4.98-.569-6.89.37-1.362 3.123-4.484 3.953-4.484.221 0 .855-.335 1.409-.744 1.653-1.219 3.133-1.038 6.297.773 2.827 1.617 3.149 1.965 3.977 4.283.291.818.863 1.939 1.269 2.491.406.552 1.041 1.986 1.412 3.186.37 1.2 1.081 2.755 1.58 3.457.498.701 1.05 1.927 1.225 2.725.366 1.662.703 2.377 1.67 3.54.379.454.78 1.324.892 1.933.337 1.83.992 3.433 1.724 4.225.381.411.937 1.671 1.235 2.799.297 1.128.867 2.438 1.264 2.91.398.473 1.034 1.865 1.413 3.093.379 1.229 1.104 2.861 1.611 3.627.508.765.996 1.729 1.085 2.142.393 1.819 1.035 3.377 1.735 4.209.416.494.835 1.256.931 1.693.434 1.968 1.127 3.711 1.739 4.371.366.395.956 1.717 1.31 2.937.355 1.22.965 2.599 1.357 3.064.392.466 1.065 2.001 1.495 3.413.431 1.411.988 2.736 1.239 2.945.649.538 1.175 1.673 1.585 3.421 1.173 4.995 5.246 5.169 6.362.272.247-1.08.662-2.258.923-2.618.26-.359.675-.934.922-1.277.247-.343.651-1.413.897-2.379.247-.965.835-2.311 1.307-2.99.472-.679 1.209-2.385 1.638-3.792.429-1.406.917-2.557 1.085-2.557.395 0 1.339-2.144 1.748-3.972.177-.789.712-1.924 1.19-2.523.516-.648 1.07-1.903 1.369-3.103.294-1.183.853-2.457 1.354-3.088.47-.591.996-1.625 1.169-2.298.622-2.418.922-3.133 1.753-4.179.506-.636 1.048-1.895 1.354-3.142.309-1.262.847-2.505 1.369-3.162.473-.595 1-1.632 1.172-2.305.554-2.169.833-2.839 1.594-3.837.41-.539.94-1.71 1.177-2.603.598-2.254.788-2.696 1.561-3.634.372-.451 1.013-1.923 1.425-3.272.412-1.348 1.038-2.738 1.391-3.09.354-.351.96-1.737 1.349-3.078.389-1.342 1.03-2.824 1.426-3.294.709-.843 1.027-1.623 1.646-4.027.173-.673.706-1.716 1.184-2.318.479-.602 1.015-1.768 1.191-2.591.372-1.736.662-2.339 1.616-3.369.381-.411.89-1.365 1.131-2.118.24-.754.938-1.927 1.551-2.608 2.241-2.49 4.103-4.82 4.701-5.885.338-.6.928-1.259 1.313-1.465.385-.206.989-.798 1.343-1.314.355-.517 1.368-1.332 2.252-1.81.884-.478 1.933-1.235 2.331-1.681.397-.446 1.24-1.075 1.872-1.398.633-.322 1.371-.923 1.641-1.335.304-.465.97-.873 1.755-1.075 2.452-.631 3.222-.945 4.07-1.659.51-.43 1.852-.969 3.313-1.333 1.35-.336 3.077-.926 3.838-1.312 4.039-2.047 19.158-2.179 23.692-.207 1.122.488 3.078 1.099 4.348 1.358 2.435.496 3.727 1.029 4.369 1.803.214.258 1.103.676 1.976.93.887.258 2.191.961 2.96 1.597.757.625 1.769 1.252 2.251 1.395.482.142 1.471.794 2.198 1.448 2.858 2.572 8.176 7.865 8.176 8.138 0 .158.529.789 1.176 1.403.648.613 1.261 1.495 1.363 1.96.102.465.703 1.535 1.336 2.377.651.867 1.413 2.394 1.755 3.519.332 1.093.889 2.351 1.239 2.796.714.907.995 1.935 1.47 5.383.181 1.309.663 3.182 1.072 4.164.571 1.371.804 2.636 1.005 5.467.298 4.198.633 4.846 2.799 5.414.664.174 1.677.632 2.249 1.016.573.385 2.112 1.001 3.42 1.37 1.395.394 2.763 1 3.307 1.465.514.44 1.817 1.035 2.926 1.335 1.35.365 2.142.758 2.437 1.209.241.368 1.065.963 1.832 1.323.767.36 1.854 1.057 2.416 1.55.562.493 1.538 1.127 2.169 1.41.632.282 1.644 1 2.25 1.594 2.808 2.755 3.837 3.687 4.574 4.144.437.272.879.758.982 1.082.102.323.651.875 1.219 1.226.568.351 1.248 1.06 1.51 1.576s.928 1.316 1.48 1.777c.551.462 1.003 1.026 1.003 1.254 0 .228.458.873 1.018 1.433s1.286 1.544 1.614 2.187c.328.642 1.075 1.741 1.66 2.442.586.701 1.149 1.628 1.253 2.061.261 1.092.953 2.419 1.774 3.402.381.456.976 1.782 1.322 2.946.347 1.163.947 2.597 1.333 3.185.386.588.964 2.273 1.285 3.745.32 1.472.808 3.279 1.083 4.015 1.581 4.225 2.096 9.608 1.846 19.304-.187 7.242-.45 9.286-1.56 12.101-.394.998-.918 3.066-1.166 4.596-.346 2.142-.683 3.163-1.461 4.432-.557.907-1.29 2.639-1.63 3.849-.34 1.21-.877 2.482-1.194 2.825-.317.344-.967 1.495-1.446 2.558-.478 1.064-1.294 2.358-1.813 2.877-.52.519-.945 1.158-.945 1.42 0 .261-.51 1.041-1.135 1.732-.624.692-1.481 1.86-1.904 2.596-.999 1.738-9.486 10.193-11.286 11.244-.764.446-1.725 1.174-2.137 1.618-.412.444-1.296 1.027-1.966 1.295-.669.268-1.352.74-1.518 1.048-.165.309-1.198.969-2.295 1.466-1.097.498-2.329 1.219-2.739 1.603-.433.407-1.728.965-3.094 1.335-1.293.351-2.72.949-3.173 1.329-.453.381-1.737.918-2.855 1.192-2.767.68-5.656 1.516-7.087 2.051-3.301 1.235-1.086 1.211-121.784 1.323-126.846.117-125.037.141-128.81-1.742-.592-.296-2.466-.82-4.164-1.165-2.356-.478-3.438-.863-4.573-1.627-.818-.55-2.357-1.214-3.42-1.475-1.063-.261-2.268-.744-2.677-1.072-.409-.329-1.426-.918-2.261-1.309-.835-.391-1.972-1.138-2.528-1.659-.555-.521-1.717-1.268-2.581-1.659-.864-.391-1.65-.918-1.746-1.17-.097-.252-.677-.713-1.289-1.025-.611-.313-3.205-2.682-5.763-5.267-6.726-6.794-7.029-7.123-7.029-7.644 0-.26-.451-.975-1.002-1.589-.551-.614-1.341-1.785-1.755-2.603-.414-.818-1.105-1.815-1.535-2.217-.43-.401-.984-1.423-1.23-2.27-.246-.848-.858-2.161-1.36-2.918-.501-.757-1.153-2.316-1.449-3.465-.295-1.149-.877-2.535-1.293-3.081-.88-1.153-1.244-2.534-1.678-6.367-.295-2.612-.462-3.244-1.681-6.373-1.183-3.04-.843-17.489.484-20.519.564-1.289.903-2.912 1.521-7.293.26-1.849.566-2.791 1.233-3.797.508-.767 1.141-2.384 1.482-3.787.368-1.514.857-2.732 1.283-3.192.378-.409 1.024-1.51 1.435-2.447.412-.937 1.144-2.208 1.627-2.825.484-.617 1.033-1.607 1.221-2.201.187-.594.619-1.33.959-1.636.34-.306 1.026-1.158 1.525-1.894.499-.736 1.47-1.951 2.159-2.7.689-.748 1.336-1.622 1.438-1.943.101-.32.57-.81 1.041-1.088s1.08-.977 1.353-1.553c.303-.637.932-1.268 1.607-1.613.611-.311 1.291-.904 1.512-1.317.221-.413.752-.897 1.18-1.076.428-.178 1.381-.872 2.117-1.54s1.871-1.556 2.522-1.972c.651-.416 1.427-1.067 1.726-1.446.298-.379 1.06-.829 1.693-1 .633-.17 1.864-.846 2.735-1.501.871-.656 2.08-1.326 2.686-1.49.606-.164 1.497-.63 1.98-1.037 1.006-.846 2.571-1.451 4.502-1.739.736-.11 1.873-.526 2.527-.924 1.898-1.154 2.492-1.349 5.446-1.793 5.525-.829 5.787-1.304 6.048-10.997.263-9.743.583-12.399 1.905-15.786.389-.994.912-3.378 1.164-5.299.468-3.571.574-3.911 1.776-5.682.381-.562.926-1.972 1.211-3.134.286-1.168.835-2.49 1.227-2.956.759-.902 1.382-2.442 1.712-4.235.112-.608.555-1.523.983-2.032.429-.509 1.161-1.733 1.628-2.72.467-.986 1.171-2.048 1.567-2.359.395-.31.864-1.009 1.044-1.552.179-.543.737-1.377 1.239-1.854.502-.477 1.317-1.662 1.811-2.635.494-.972 1.209-2.013 1.59-2.312.381-.3.78-.843.888-1.206.107-.364.818-1.287 1.579-2.05 1.906-1.913 2.312-2.324 3.489-3.519 1.257-1.277 1.227-1.246 2.504-2.504.572-.563 1.281-1.268 1.574-1.565.727-.736 3.512-3.297 4.885-4.493.619-.538 1.794-1.29 2.611-1.67.818-.381 1.822-1.061 2.231-1.512.409-.45 1.304-1.061 1.988-1.358.685-.298 1.459-.867 1.721-1.266.261-.4 1.087-.96 1.834-1.245.748-.286 1.781-.885 2.295-1.331 1.218-1.058 1.801-1.34 3.681-1.781.856-.201 2.027-.74 2.603-1.197.622-.495 1.894-1.04 3.137-1.344 1.149-.282 2.549-.824 3.111-1.206 1.739-1.18 2.133-1.32 5.318-1.894 1.701-.307 3.717-.834 4.479-1.171 1.462-.647 3.518-1.069 6.71-1.377 1.063-.102 3.071-.379 4.461-.616 1.391-.236 4.134-.543 6.097-.682 1.963-.14 3.702-.272 3.866-.295.164-.022 2.171.098 4.461.267"/></svg>