<svg xmlns="http://www.w3.org/2000/svg" role="img" viewBox="-3.40 -3.40 176.67 44.30"><title>Seldon core (Model Serving) logo</title><path d="M23.632 10.145c2.793 0 5.066-2.275 5.066-5.072S26.426 0 23.632 0c-1.385 0-2.729.583-3.687 1.598l-6.038 6.458 8.734 1.99c.137.021.64.099.991.099zm-1.407-6.4c.369-.389.881-.612 1.407-.612 1.068 0 1.937.87 1.937 1.939s-.869 1.939-1.927 1.94c-.067-.002-.239-.021-.414-.046l-3.31-.754 2.307-2.467zM6.63 27.455c-2.794 0-5.066 2.275-5.066 5.072S3.836 37.6 6.63 37.6c1.385 0 2.729-.583 3.687-1.599l6.038-6.456-8.626-1.968c-.375-.082-.74-.122-1.099-.122zm1.408 6.399c-.369.39-.882.612-1.408.612-1.068 0-1.937-.869-1.937-1.938s.869-1.938 1.937-1.938c.134 0 .271.015.417.047l3.297.752-2.306 2.465zM25.803 21.04l-9.557-3.354-3.33-9.508c-.909-2.709-3.435-4.527-6.286-4.527C2.974 3.651 0 6.629 0 10.288c0 2.793 1.769 5.306 4.4 6.252l9.621 3.375 3.265 9.318c.846 2.781 3.454 4.716 6.347 4.716 3.656 0 6.63-2.978 6.63-6.638-.001-2.826-1.793-5.346-4.46-6.271zM5.448 13.588c-1.387-.504-2.319-1.828-2.319-3.3 0-1.932 1.57-3.504 3.5-3.504 1.505 0 2.839.961 3.319 2.392l.007.02.007.02 2.378 6.79-6.892-2.418zm18.184 17.227c-1.527 0-2.906-1.025-3.353-2.494l-.019-.062-.021-.062-2.312-6.6L24.778 24c1.408.489 2.354 1.819 2.354 3.312 0 1.931-1.57 3.503-3.5 3.503zm90.097-21.471h-6.742c-.87 0-1.575.706-1.575 1.577v15.771c0 .871.705 1.577 1.575 1.577h6.742c3.084 0 5.739-.942 7.678-2.726 1.875-1.727 2.908-4.119 2.908-6.737s-1.033-5.011-2.908-6.737c-1.939-1.782-4.595-2.725-7.678-2.725zm0 15.771h-5.167V12.499h5.167c4.447 0 7.436 2.535 7.436 6.308-.001 3.773-2.989 6.308-7.436 6.308zm51.939-16.008c-2.902 0-3.893 2.458-5.262 5.857l-2.637 6.501c-1.25 3.104-1.702 3.886-2.439 3.886-.652 0-1.084-.567-1.084-1.266V10.921c0-.871-.705-1.577-1.574-1.577-.871 0-1.576.706-1.576 1.577v13.165c0 2.438 1.943 4.42 4.332 4.42 2.904 0 3.894-2.458 5.263-5.856l2.636-6.501c1.251-3.105 1.703-3.886 2.44-3.886.651 0 1.083.567 1.083 1.266v13.165c0 .871.705 1.577 1.575 1.577S170 27.563 170 26.692V13.527c0-2.437-1.943-4.42-4.332-4.42zm-28.159-.17c-5.646 0-10.24 4.421-10.24 9.857 0 5.435 4.594 9.856 10.24 9.856s10.239-4.422 10.239-9.856c0-5.436-4.594-9.857-10.239-9.857zm0 16.56c-3.909 0-7.089-3.008-7.089-6.703 0-3.696 3.18-6.703 7.089-6.703s7.089 3.007 7.089 6.703c0 3.695-3.18 6.703-7.089 6.703zm-58.485-.382H65.633v-5.151h9.255c.87 0 1.575-.706 1.575-1.577s-.706-1.577-1.575-1.577h-9.255v-4.311h12.406c.87 0 1.576-.707 1.576-1.577 0-.871-.706-1.577-1.576-1.577H64.058c-.87 0-1.576.706-1.576 1.577v15.771c0 .871.706 1.577 1.576 1.577h14.966c.87 0 1.575-.706 1.575-1.577s-.705-1.578-1.575-1.578zM52.93 18.664l-6.494-2.639c-3.101-1.252-3.882-1.704-3.882-2.442 0-.653.567-1.084 1.264-1.084h13.15c.87 0 1.576-.707 1.576-1.577 0-.871-.706-1.577-1.576-1.577h-13.15c-2.434 0-4.415 1.946-4.415 4.337 0 2.907 2.456 3.898 5.851 5.268l6.494 2.64c3.102 1.252 3.882 1.704 3.882 2.442 0 .652-.567 1.084-1.264 1.084h-13.15c-.87 0-1.575.706-1.575 1.577s.705 1.577 1.575 1.577h13.15c2.435 0 4.415-1.945 4.415-4.337 0-2.907-2.456-3.898-5.851-5.269zm47.558 6.451H87.491V10.921c0-.871-.705-1.577-1.575-1.577s-1.575.706-1.575 1.577v15.771c0 .871.705 1.577 1.575 1.577h14.572c.869 0 1.575-.706 1.575-1.577s-.706-1.577-1.575-1.577z"/></svg>