<svg xmlns="http://www.w3.org/2000/svg" role="img" viewBox="-57.35 462.65 3112.20 2072.20"><title>Sisense (Authorization) logo</title><path d="M1237.523 1225.106c-8.123-3.251-2.432-6.497.82-7.317 32.502-11.369 65.016-21.938 97.518-34.129 32.514-12.194 78.021-26.825 116.221-42.256l45.513-16.251c4.954-2.216 10.128-3.852 15.451-4.888l13.811-4.872c9.522-5.015 19.61-8.836 30.062-11.379 3.246-4.872 8.949-2.431 13.811-4.872l214.568-78.021c3.247-4.877 8.929-2.441 12.995-4.877 12.277-3.292 24.241-7.641 35.77-13 3.246-4.882 8.934-4.062 13.815-4.882 4.867-.815 14.631-6.503 21.938-8.128 4.231-1.646 8.579-3.011 13.005-4.062 4.626-3.067 9.924-5.016 15.441-5.683l13.811-4.872 13.81-5.691 21.139-7.309c4.175-3.358 9.287-5.349 14.636-5.691l13.811-4.877c17.072-6.503 34.949-11.38 51.2-18.698 16.251-7.308 8.128 0 8.933 4.883.227 2.969.227 5.959 0 8.938v547.774c0 16.256 0 16.256-16.251 10.563-6.743-1.743-13.282-4.189-19.503-7.317-4.348-.801-8.492-2.457-12.189-4.872-12.882-3.374-25.4-8-37.395-13.811-4.118-.169-8.072-1.59-11.375-4.066l-121.087-43.077-82.092-30.066c-3.246-1.636-8.943 0-10.575-4.066l-61.753-21.123c-4.067-2.451-8.949-2.451-13.005-5.692-5.529-.615-10.842-2.564-15.441-5.688-4.626-.215-9.082-1.615-13.006-4.066l-36.579-13.005c-5.189-.949-10.159-2.877-14.636-5.688l-7.303-3.251c-4.072 0-7.323-2.441-10.569-4.067l-66.646-23.563c-1.908-.057-3.688-.954-4.883-2.441l-38.194-13.811c-4.031 1.036-8.267-.6-10.569-4.066-11.482-2.59-22.656-6.405-33.328-11.379l-120.277-39.826c-4.062-2.441-8.948-2.441-13.005-5.688-4.872-1.625-11.374-1.625-15.44-5.691-4.029-.021-8.096-3.277-12.978-4.083zm-46.323 182.863c4.333 2.943 9.399 4.625 14.631 4.871 4.872 1.626 10.559.82 13.81 5.692 29.262 10.56 56.893 22.754 86.965 30.877 4.062.82 8.123 0 10.568 4.066 2.441 4.062 5.683 4.062 9.749 3.252 4.062-.815 11.38.805 15.441 5.692l188.559 68.256h4.067c7.436 1.539 14.574 4.293 21.123 8.129 1.631 2.44 4.877 1.625 7.322 2.44 4.939.949 9.631 2.882 13.811 5.688 38.195 14.631 77.205 28.44 116.226 41.456l62.574 23.564c2.795 1.267 5.872 1.82 8.944 1.62 4.061 6.508-2.452 5.697-5.698 7.318l-86.964 30.892c-3.246 4.862-8.928 4.057-13.811 5.683-5.221.282-10.267 1.959-14.631 4.866-6.62 3.697-13.732 6.431-21.128 8.123-2.44 0-5.697-.805-7.317 2.446-1.626 3.262-5.688 1.621-8.129 3.262-34.948 11.369-69.887 25.18-104.836 37.374l-97.527 34.129-5.692 3.262c-1.093 1.6-2.944 2.497-4.872 2.445l-9.754 3.246c-2.441 4.877-7.313 3.246-11.38 4.067-15.543 4.313-30.754 9.743-45.513 16.251-3.251 4.062-8.948 2.441-13.005 4.877-19.2 5.595-37.943 12.661-56.077 21.128l-21.948 7.318c-2.431 0-4.872-.811-7.313 2.431-8.892 4.938-18.481 8.508-28.445 10.574-31.692 8.943-61.77 21.134-92.646 32.503l-142.226 51.205h-2.441v-331.595c0-77.206-.815-153.59-.815-230.801 0-4.882 0-9.759.815-14.636.806-4.872 3.246-2.44 4.872-1.62l112.964 41.446c22.759 8.123 45.513 17.877 69.082 23.574 7.421 1.604 14.549 4.349 21.134 8.123 1.625 3.246 4.871 1.62 7.313 2.436 4.249.751 8.352 2.116 12.198 4.07zm-87.774-353.539c-11.375 4.882-24.385 4.882-34.943 13.005l-15.446 4.883c-1.615 2.436-5.688.815-8.123 2.436-2.441 1.631-9.754.815-13 4.066-3.251 3.252-18.697 7.313-28.446 10.564-4.774 2.79-10.005 4.708-15.446 5.688l-13.81 4.871c-8.949 3.252-11.38.82-11.38-9.743.538-184.759.815-369.523.815-554.271 0-4.063-4.066-10.575 4.062-12.195 8.123-1.631 10.569 1.62 15.446 5.688 4.363 2.871 9.404 4.554 14.625 4.877 4.965.877 9.683 2.82 13.821 5.691 4.349 2.898 9.405 4.585 14.625 4.872 4.918 1.026 9.601 2.959 13.821 5.688 1.62 3.251 4.871 1.626 7.313 2.44 2.436.811 9.754 0 13.01 4.872 11.733 6.18 24.334 10.569 37.385 13 4.062 1.631 8.938.815 11.38 4.067L1190.402 605l156.856 56.893 7.313 1.62c5.052-.148 9.984 1.585 13.82 4.872 5.621.23 11.016 2.221 15.441 5.692 4.866.754 9.554 2.405 13.82 4.877 2.431 1.62 5.688-.815 7.313 2.431 7.548 1.153 14.748 3.923 21.133 8.128 4.359 2.908 9.405 4.595 14.625 4.882 4.063 1.621 9.754.811 13.821 4.877 4.872 2.437 11.379 1.626 15.446 5.688 4.061 4.062 4.871 1.631 7.303 1.631 4.938.964 9.625 2.897 13.82 5.688l153.61 56.076 115.399 41.446 6.508 4.066-151.995 56.082c-2.44 4.067-6.508 3.252-10.569 4.067-22.631 6.62-44.882 14.487-66.641 23.569-5.436 4.133-11.913 6.666-18.697 7.308-3.262-1.621-4.066 2.44-6.508 3.251-7.098 3.057-14.431 5.492-21.938 7.318l-43.077 14.631c-4.066 4.877-10.574 4.062-15.446 5.687-4.872 1.626-14.626 2.446-20.317 7.318-6.58 3.774-13.708 6.518-21.134 8.128-6.497-.815-10.563 4.872-17.066 5.682-6.497.811-7.313 3.252-11.38 4.063-26.005 7.317-51.205 17.066-76.395 26.82-2.211 2.641-5.492 4.128-8.938 4.062-7.683 1.133-15.113 3.615-21.938 7.317-3.252 4.877-8.949 4.062-13.815 5.688-4.882 1.62-26.82 9.749-39.825 13.815-13.006 4.062-7.313 2.441-10.564 4.062-19.508 6.503-39.826 13.011-59.328 21.139-4.066 1.62-9.754 0-12.189 4.062-4.557 3.361-9.854 5.586-15.444 6.494zm824.913 698.128c32.625-10.071 64.63-22.015 95.897-35.754 8.943-4.066 13.81-.82 13.81 9.744v211.313c0 4.867 0 9.744.821 13.811.805 4.062-3.262 4.062-15.457 0-12.185-4.066-5.682 0-8.128-3.246-6.989-2.082-13.795-4.8-20.318-8.128-5.297-1.103-10.466-2.733-15.431-4.877l-99.153-35.759c-3.262-2.441-8.949.805-11.39-4.067-34.129-9.759-66.631-25.199-100.77-34.943-21.938-6.508-43.077-16.257-64.2-25.205 1.62-6.503 7.308-5.682 12.194-7.308l201.539-72.339c3.231-1.924 6.847-3.042 10.586-3.242z"/><path d="M1056.287 2475.065H653.185c-8.948 0-11.38-1.62-10.569-11.374.8-20.852.523-41.743-.811-62.574 0-7.328.811-8.949 8.129-8.949h310.461c4.063 0 9.754 3.262 11.38-3.246-1.626-21.128 0-43.076-.815-64.21.77-4.066.487-8.256-.811-12.194H657.251c-15.44 0-14.63 0-14.63-16.257v-135.718-65.021c0-7.313 1.62-9.749 9.748-9.749h403.928c3.257 3.246 1.626 7.313 1.626 10.569v60.139c0 19.513 0 13.01-13.005 13.01H736.897c-8.123 0-9.749 2.441-9.749 9.744 0 7.313.815 25.205 0 38.194-.81 13.006 2.437 10.569 10.564 10.569h310.462c6.502 0 9.753.82 9.753 8.128v234.872c-.071 1.514-.64 2.935-1.64 4.067zm1038.656-390.112h404.738c7.309 0 8.949 2.441 8.949 9.764v72.328c-3.262 5.683-8.949 3.246-13.826 3.246h-303.953c-4.066-.789-8.262-.527-12.189.811v2.446c1.322 14.59 1.609 29.246.82 43.882 0 8.949 3.246 10.569 11.369 10.569h305.59c4.066 0 8.128-1.615 12.194 1.626v235.682c0 6.513 0 10.579-8.948 10.579h-404.738c-2.186-6.554-2.754-13.518-1.621-20.323v-52.83c0-4.057-1.625-8.943 4.062-10.569h325.093c2.005-26.513 2.005-53.123 0-79.646H2097.39c-5.688-1.625-4.062-5.682-4.062-8.928v-212.129c-.01-2.441-.83-4.862 1.615-6.508zM88.338 2171.106c-1.226 18.688-1.226 37.411 0 56.082 3.918 1.339 8.123 1.616 12.19.811h303.954c13.005 0 13.005 0 13.005 13.016v221.856c.544 4.148-.011 8.354-1.626 12.194H16.815c-9.749 0-12.19-2.431-12.19-12.194 0-9.744 2.441-39.821-1.621-60.139-.815-5.682 1.621-11.374 12.19-11.374h304.769c12.19 0 14.621-4.057 14.621-14.631 0-10.569-.811-36.574 0-54.451.815-17.883-3.246-12.185-12.185-12.185h-218.62c-30.066 0-60.138-.821-91.025 0-8.934 0-10.564-5.698-9.749-10.575 3.246-68.276.815-135.718.815-203.994 0-9.749 1.616-12.995 13-12.995h399.856c1.923 19.713 2.467 39.533 1.631 59.313.811 26.016 0 26.016-26.01 26.016H104.595c-5.538.379-11.005 1.466-16.257 3.25zm1644.944-44.697c31.708 36.574 64.21 72.328 97.528 107.271 3.404 1.231 6.082 3.913 7.322 7.334 4.175 6.959 9.713 13.035 16.252 17.877 2.543.328 4.533 2.317 4.872 4.861 25.2 29.267 50.385 57.713 77.21 85.338 4.882-1.62 3.262-5.687 3.262-8.933v-243.011c0-4.866-2.446-10.554 3.24-13.81h81.277c2.441 2.44 1.615 5.682 1.615 8.943v373.025c.498 3.092-.098 6.226-1.615 8.948h-75.59c-5.902.528-11.692-1.902-15.431-6.502l-25.2-28.451c-2.44-2.446-5.682-4.062-6.508-8.129l-54.445-59.328c-1.795-.805-3.252-2.251-4.067-4.056l-34.943-37.38-7.313-8.943-4.882-5.688c-2.826-1.77-5.077-4.303-6.492-7.328l-21.139-23.564c-3.385-.769-5.785-3.841-5.688-7.308l-65.016-70.718c-1.805 4.093-2.364 8.61-1.615 13.005v239.754c0 12.195-3.262 14.637-14.636 13.815h-68.272c-1.82-7.451-2.092-15.199-.805-22.759v-355.159c-.805-4.066-.528-8.271.805-12.189h66.646c9.539-1.528 19.164 2.205 25.189 9.749 3.473 2.194 6.282 5.287 8.129 8.938 3.604 5.246 8 9.907 13.005 13.815 4.869 2.46 4.059 8.148 7.305 10.583zm1263.78 102.41v74.77c0 6.508-1.615 8.123-8.123 8.123h-397.415c-13.011 0-9.749-9.749-8.943-13.811 1.568-21.656 1.297-43.415-.806-65.015 0-1.642.806-2.452 1.62-4.067 3.344-1.385 7.041-1.661 10.57-.82h393.354c3.25-.733 6.65-.451 9.743.82zm-208.046 247.068h-195.057c-8.943 0-12.189-.821-11.385-11.375 1.195-21.395 1.195-42.83 0-64.215 0-5.683.815-7.308 5.682-7.308h396.605c9.754 0 13.016 1.62 12.195 12.185-.995 19.77-.995 39.569 0 59.338.82 11.375-3.246 12.186-12.99 12.186l-195.05-.811zm-1662.831-390.934h413.667c2.441 2.441 1.641 5.697 1.641 8.943v65.021c0 8.133-1.641 11.38-10.574 11.38h-386.861c-18.688 0-18.688 0-18.688-18.688v-54.462c-.001-4.866-1.626-8.932.815-12.194zm1456.395 82.907v-73.964c0-6.508.814-8.943 8.123-8.943h398.235c5.683 0 8.123 1.641 8.123 7.328v75.579c-3.246 3.246-6.503 1.626-9.743 1.626h-394.985c-3.251.005-6.497 1.62-9.753-1.626zm-1453.144 224.308H1536.6c2.375.41 4.098 2.472 4.067 4.883-.821 26 1.615 52.83-1.626 78.835h-412.856c-2.44-26.005-.815-52.836-.815-78.835-.036-2.411 1.692-4.473 4.066-4.883zm407.99-79.65h-407.99c-4.882-.806-4.066-4.872-4.066-8.124v-68.271c0-7.308 3.252-8.128 8.938-8.128h397.415c8.123 0 10.564 2.441 10.564 10.574-.795 21.118 0 42.257 0 64.2-.795 3.261.82 8.123-4.861 9.749zM489.01 2084.953h73.145c7.313 0 9.754.82 9.754 8.943-.544 124.077-.544 248.415 0 373.036 0 7.323-2.446 8.948-8.949 8.948h-73.95c-1.953-5.748-2.513-11.882-1.62-17.877v-361.661c0-4.061-1.636-8.127 1.62-11.389z"/></svg>