<svg xmlns="http://www.w3.org/2000/svg" role="img" viewBox="-2.79 -2.67 145.21 31.09"><title>Skymind (Workflows) logo</title><style>svg {enable-background:new 0 0 140 26}</style><style>.st1{fill:#1a2949}</style><g id="v2"><g id="Home-v1" transform="translate(-170 -40)"><g id="Header" transform="translate(0 -1)"><g id="Logo" transform="translate(170 41)"><linearGradient id="Fill-1_1_" x1="46.217" x2="46.217" y1="37.33" y2="36.33" gradientTransform="matrix(14.9271 0 0 -14.9271 -682.428 563.44)" gradientUnits="userSpaceOnUse"><stop offset="0" stop-color="#d80947"/><stop offset="1" stop-color="#ed7820"/></linearGradient><path id="Fill-1" fill="url(#Fill-1_1_)" d="M0 21.1h14.9L0 6.2z"/><g id="Group-17" transform="translate(20.015 .138)"><path id="Fill-2" d="M11.6 13.5c-.3-.4-.7-.8-1.3-1-.5-.3-1.2-.5-2-.5l-3.2-.3c-.4 0-.7-.1-1-.2-.2-.1-.4-.2-.5-.3-.1-.1-.2-.2-.2-.3 0-.2-.1-.3-.1-.6 0-.5.1-.8.4-1 .3 0 .8-.2 1.8-.2h5.7c.1 0 .3-.1.3-.2l.5-2.4c0-.1 0-.2-.1-.2-.1-.1-.1-.1-.2-.1-1.2 0-2.3-.1-3.2-.1H5.9c-2 0-3.5.4-4.4 1.1C.5 8 .1 9.1.1 10.4v.5c0 .5.1.9.2 1.4.1.5.4.9.7 1.2.3.4.7.7 1.2.9.5.2 1.1.4 1.8.5l3.3.3c.4 0 .7.1 1 .2.2.1.4.2.5.3.1 0 .1.1.2.3v.5c0 .6-.1 1-.4 1.1-.2.1-.8.3-2 .3H.8c-.1 0-.3.1-.3.2L0 20.5c0 .1 0 .2.1.2s.1.1.2.1H6.5c2 0 3.5-.4 4.5-1.1 1-.8 1.5-1.9 1.5-3.3V16c0-.4-.1-.9-.2-1.3-.2-.3-.4-.7-.7-1.2" class="st1"/><path id="Fill-4" d="M23.7 12.7l6.6-6c.1-.1.1-.1.1-.2 0-.2-.1-.3-.3-.3h-3.6c-.1 0-.1 0-.2.1l-5.4 5.1V.4c0-.2-.1-.3-.3-.3h-2.9c-.2 0-.3.1-.3.3v20.3c0 .2.1.3.3.3h2.9c.2 0 .3-.1.3-.3v-6l6 6.3c.1.1.1.1.2.1h3.8c.1 0 .2-.1.3-.2 0-.1 0-.2-.1-.3l-7.4-7.9z" class="st1"/><path id="Fill-6" d="M37.1 19.3c1 .7 2.4 1.1 4.2 1.1.7 0 1.2 0 1.7-.1s.9-.2 1.2-.3c.3-.1.6-.3.8-.4h.1c0 .6-.1 1.1-.2 1.5-.1.4-.3.8-.6 1-.3.2-.6.4-1 .5-.4.1-1 .2-1.6.2h-2.1c-.7 0-1.5 0-2.4-.1-.1 0-.3.1-.3.2l-.5 2.4c0 .1 0 .2.1.2.1.1.1.1.2.1h5c1.2 0 2.2-.1 3-.4.9-.2 1.6-.6 2.2-1.1.6-.5 1-1.2 1.3-2 .3-.8.4-1.8.4-3V6.5c0-.2-.1-.3-.3-.3h-2.9c-.2 0-.3.1-.3.3v8.2c0 .6 0 1-.1 1.4-.1.3-.2.6-.4.8-.2.2-.5.4-.9.4-.4.1-1.1.1-1.8.1s-1.2-.1-1.6-.2c-.3-.1-.6-.2-.8-.4-.2-.2-.3-.4-.3-.7 0-.3-.1-.7-.1-1.2V6.5c0-.2-.1-.3-.3-.3h-2.9c-.2 0-.3.1-.3.3v9.1c0 1.8.5 3 1.5 3.7" class="st1"/><path id="Fill-8" d="M68.1 5.7c-1 0-1.9.1-2.7.4-.7.2-1.2.6-1.6 1-.4-.4-.9-.7-1.6-1-.8-.3-1.7-.4-2.7-.4-1.9 0-3.4.4-4.4 1.1-1 .7-1.6 2-1.6 3.8v10c0 .2.1.3.3.3h2.9c.2 0 .3-.1.3-.3v-9.4c0-.4 0-.8.1-1.2 0-.3.1-.5.3-.7.1-.2.4-.3.7-.4.4-.1.8-.2 1.5-.2.6 0 1.1.1 1.5.2.3.1.6.2.7.4.2.2.3.4.3.7 0 .3.1.7.1 1.2v9.4c0 .2.1.3.3.3h2.9c.2 0 .3-.1.3-.3v-9.8c0-.4 0-.7.1-1l.3-.6c.2-.2.4-.3.7-.4.3-.1.8-.1 1.4-.1.6 0 1.1.1 1.5.2.3.1.6.2.7.4.2.2.3.4.3.7 0 .3.1.7.1 1.2v9.4c0 .2.1.3.3.3H74c.2 0 .3-.1.3-.3v-10c0-1.8-.5-3-1.6-3.8-1.1-.7-2.6-1.1-4.6-1.1z" class="st1"/><path id="Fill-10" d="M82.4 6.2h-2.9c-.2 0-.3.1-.3.3v14.1c0 .2.1.3.3.3h2.9c.2 0 .3-.1.3-.3V6.5c0-.2-.1-.3-.3-.3" class="st1"/><path id="Fill-12" d="M99.3 6.9c-1.1-.7-2.7-1.1-4.9-1.1s-3.8.4-4.9 1.1c-1.1.8-1.6 2-1.6 3.8v10c0 .2.1.3.3.3H91c.2 0 .3-.1.3-.3v-9.4c0-.4 0-.8.1-1.2 0-.3.2-.5.3-.7.2-.2.5-.3.9-.4.4-.1 1-.2 1.8-.2s1.4.1 1.8.2c.4.1.7.3.9.4.2.2.3.4.3.7.1.3.1.7.1 1.2v9.4c0 .2.1.3.3.3h2.9c.2 0 .3-.1.3-.3v-10c0-1.8-.6-3.1-1.7-3.8" class="st1"/><g id="Group-16" transform="translate(106.042)"><defs><filter id="Adobe_OpacityMaskFilter" width="13.6" height="20.9" x="0" y="0" filterUnits="userSpaceOnUse"><feColorMatrix values="1 0 0 0 0 0 1 0 0 0 0 0 1 0 0 0 0 0 1 0"/></filter></defs><mask id="mask-3_1_" width="13.6" height="20.9" x="0" y="0" maskUnits="userSpaceOnUse"><g filter="url(#Adobe_OpacityMaskFilter)"><path id="path-2_1_" fill="#fff" d="M13.6 20.9V0H0v20.9z"/></g></mask><path id="Fill-14" fill="#1a2949" d="M10.2 17.9H6.9c-.8 0-1.4-.1-1.8-.2-.4-.1-.7-.3-.9-.5-.3-.2-.4-.7-.5-1.2-.1-.6-.1-1.3-.1-2.3v-1c0-.9 0-1.6.1-2.1s.2-.9.4-1.2c.2-.3.5-.4.9-.5.4-.1 1-.2 1.8-.2.7 0 1.3 0 1.7.1.4.1.7.2 1 .5.2.2.4.5.5.9.1.4.2 1 .2 1.7v6zM13.3 0h-2.9c-.2 0-.3.1-.3.3v6.2c-.3-.2-.6-.3-1.1-.5-.7-.2-1.5-.3-2.4-.3-1.3 0-2.3.1-3.2.4-.8.4-1.5.8-2 1.4-.5.6-.9 1.3-1 2.2-.2.8-.3 1.8-.3 3v1C0 15 .2 16.1.4 17c.2.9.6 1.7 1.1 2.2.5.6 1.2 1 2.1 1.3.8.3 1.9.4 3.1.4h3.8c1.2 0 2-.2 2.4-.6.4-.4.7-1.1.7-2V.3c0-.2-.1-.3-.3-.3z" mask="url(#mask-3_1_)"/></g></g></g></g></g></g></svg>