<svg xmlns="http://www.w3.org/2000/svg" role="img" viewBox="-9.99 -9.99 519.48 167.98"><title>Splunk (Monitoring and Alerting) logo</title><style>svg {enable-background:new 0 0 500 148.4}</style><path d="M53.4 89.9c.1 3.2-.7 6.4-2.1 9.3-1.4 2.8-3.4 5.2-5.9 7.1-2.7 2.1-5.7 3.7-9 4.7-3.7 1.1-7.5 1.7-11.4 1.6-4.5.1-9-.6-13.3-2-4.3-1.6-8.2-3.9-11.7-6.9l6.5-10.5c2.6 2.2 5.4 4.2 8.5 5.7 2.4 1.2 5 1.8 7.7 1.8 2.8.1 5.6-.7 7.8-2.5 2-1.7 3.1-4.2 2.9-6.7 0-1.2-.3-2.3-.7-3.4-.4-1.2-1.1-2.3-2-3.2-1.2-1.3-2.5-2.5-3.9-3.6-1.7-1.3-3.8-2.9-6.4-4.7-2-1.4-4-2.9-5.9-4.4-1.9-1.4-3.6-3-5.2-4.7-1.6-1.7-2.8-3.6-3.8-5.7-1-2.3-1.5-4.8-1.4-7.2 0-3 .6-5.9 2-8.5 1.3-2.5 3.1-4.8 5.3-6.5 2.4-2.1 5.2-3.7 8.3-4.7 3.3-1 6.8-1.5 10.3-1.5 3.8 0 7.7.5 11.4 1.5 3.6 1.1 7 2.6 10.1 4.7l-5.8 9.3c-3.7-2.7-8.1-4.2-12.7-4.2-2.4-.1-4.8.6-6.7 2.1-1.7 1.2-2.6 3.2-2.6 5.3 0 2 .9 4 2.3 5.4 2.5 2.4 5.2 4.7 8 6.8 3.8 2.8 6.9 5.3 9.3 7.4 2.2 1.8 4.2 3.8 6 6 1.4 1.7 2.4 3.6 3 5.7.6 2.1.9 4.2.8 6.4M120 72.3c.4-6.9-1.4-13.7-5-19.5-3-4.6-8.2-7.3-13.6-7.1-5.8-.1-11.2 2.7-14.4 7.6-3.8 6.2-5.7 13.4-5.3 20.6-.4 7 1.4 14 5.2 19.9 3.2 4.7 8.6 7.4 14.3 7.2 3.2.1 6.4-.9 9-2.8 2.4-1.9 4.4-4.4 5.7-7.2 1.5-2.9 2.6-6.1 3.1-9.3.7-3.1 1-6.3 1-9.4m21.1-.8c.1 5.6-.9 11.1-2.7 16.4-1.7 4.7-4.3 9.1-7.6 12.9-6.5 7.5-15.9 11.8-25.8 11.8-2.2 0-4.4-.2-6.5-.6-2-.5-4-1.2-5.8-2.2-1.9-1-3.7-2.3-5.4-3.7-2-1.7-3.8-3.6-5.5-5.6v48H62.4v-113h19.3v11c3.1-4.1 7.1-7.4 11.7-9.7 4.4-2.1 9.2-3.1 14-3.1 4.7-.1 9.3.9 13.5 2.8 4.1 1.8 7.8 4.6 10.8 7.9 3.1 3.5 5.4 7.5 6.9 11.9 1.7 4.8 2.5 10 2.5 15.2M149.7 0h19.9v110.6h-19.9zm84.9 110.7v-10.1c-3.3 3.9-7.3 7.1-11.8 9.3-4.4 1.9-9.2 2.9-14 2.8-5.2.2-10.4-1.1-15-3.6-4.1-2.4-7.2-6.1-8.8-10.5-.5-1.1-.9-2.3-1.1-3.5-.2-1.2-.5-2.6-.7-4.2-.2-1.8-.3-3.6-.4-5.4V35.2h19.9v43.2c-.1 2.9.1 5.8.5 8.7.3 1.9 1 3.7 1.9 5.4 2.5 4.3 7.3 6.8 12.3 6.4 6.6.5 12.9-3.2 15.5-9.3.7-1.7 1.2-3.5 1.5-5.4.4-2.8.5-5.6.5-8.4V35.2h19.9v75.5h-20.2zm85.7 0v-43c.1-2.9-.1-5.8-.5-8.7-.4-1.9-1.1-3.6-2.1-5.3-2.5-4.3-7.3-6.8-12.3-6.3-3.4-.1-6.7.7-9.6 2.3-2.7 1.6-4.8 4-6 6.9-.7 1.8-1.2 3.6-1.4 5.5-.3 2.7-.4 5.5-.4 8.2V111h-19.9V35.3h20v10.1c3.3-3.9 7.3-7.1 11.8-9.3 4.4-1.9 9.2-2.9 14-2.8 5.3-.2 10.5 1.1 15 3.7 4 2.4 7.1 6.1 8.8 10.5.4 1.1.7 2.2 1.1 3.4.3 1.3.6 2.6.7 4 .2 1.8.3 3.5.4 5.3v50.3l-19.6.2zm83.7 1.4l-30-41.5v40.1h-20.1V0H374v65h2.1l26.7-30.9 15.1 6.5L392.2 68l30.3 37.7z"/><path fill="#99999a" d="M439.7 108.6V95.3l46.7-23-46.7-22.7V36L500 66.3v12.3zm5.9-92.1c3.7 0 6.8 3 6.8 6.7s-3 6.8-6.7 6.8-6.8-3-6.8-6.7c-.1-3.7 2.9-6.7 6.6-6.8h.1zm0 1.1c-3.1.1-5.5 2.6-5.4 5.7 0 3 2.4 5.4 5.4 5.4 3 0 5.4-2.4 5.4-5.4.1-3.1-2.3-5.6-5.4-5.7zm-1.3 9.7h-1.2v-7.6c.7-.1 1.4-.1 2.1 0 .8-.1 1.6.1 2.3.6.5.4.7.9.7 1.5 0 .9-.6 1.6-1.5 1.8.7 0 1.1.7 1.3 1.8.1.6.2 1.3.5 1.9h-1.3c-.3-.6-.5-1.3-.5-1.9 0-.8-.7-1.4-1.5-1.3h-1l.1 3.2zm0-4.2h.9c1 0 1.8-.4 1.8-1.3s-.5-1.3-1.8-1.3h-.9v2.6z"/></svg>