<svg xmlns="http://www.w3.org/2000/svg" role="img" viewBox="-37.22 -37.22 1935.44 585.44"><title>Swiss Data Science Center RENKU (Interactive Workbench) logo</title><defs><style>.cls-1{fill:#262262}</style></defs><path d="M189.14 511.69a130.5 130.5 0 0 1-113-195.76l77.38-134.07a64.59 64.59 0 0 1 111.88 0l-77.39 134a64.59 64.59 0 0 0 55.94 97h154.79a123.23 123.23 0 0 0 106.72-184.9 189.15 189.15 0 0 1-163.84 283.73z" class="cls-1"/><path fill="#5561a6" d="M342.79 315.92L265.4 181.86a64.59 64.59 0 0 0-111.88 0l-77.4 134.07a130.5 130.5 0 0 0 113 195.76A189.14 189.14 0 0 1 25.34 227.97l77.39-134.05a129.32 129.32 0 0 1 218.61-8.94l77.39 134a64.6 64.6 0 0 1-55.94 96.89z"/><path fill="#8dc63f" d="M102.73 93.92a187.83 187.83 0 0 1 325.33 0l77.39 134a123.23 123.23 0 0 1-106.71 184.94H243.95a64.59 64.59 0 0 1-55.94-96.89h154.78a64.59 64.59 0 0 0 55.94-96.89l-77.39-134a129.32 129.32 0 0 0-218.61 8.94z"/><path d="M950.22 82.41h161.87c52.44 0 95.81 42.86 95.81 95.81v167.4c0 52.95-43.37 95.81-95.81 95.81H950.22zm164.89 294c15.13 0 27.23-12.61 27.23-27.73V175.19c0-15.13-12.1-27.73-27.23-27.73h-99.34v228.92zM624.3 357.22l61.52-16.14 3 9.58c5 16.64 12.6 25.72 27.73 25.72h73.12c14.62 0 26.72-12.61 26.72-27.73V331c0-11.09-7.06-21.68-17.14-24.2l-113.43-30.76c-35.8-9.58-60.51-45.89-60.51-85.22v-16.64c0-52.94 38.83-91.77 91.78-91.77h70.59a95.41 95.41 0 0 1 94.8 83.7l-61 16.64-3-9.58c-5-16.64-12.61-25.72-27.23-25.72h-73.16c-15.13 0-27.23 12.61-27.23 27.73v12.61c0 17.14 9.58 27.23 26.72 31.77l94.3 24.2c39.33 10.08 68.58 44.37 68.58 87.24v13.11c0 54-40.34 97.32-94.3 97.32h-66.05a96.05 96.05 0 0 1-95.81-84.21zm655.37 0l61.52-16.14 3 9.58c5 16.64 12.6 25.72 27.73 25.72h73.12c14.62 0 26.72-12.61 26.72-27.73V331c0-11.09-7.06-21.68-17.14-24.2l-113.46-30.76c-35.8-9.58-60.51-45.89-60.51-85.22v-16.64c0-52.94 38.83-91.77 91.78-91.77h70.59a95.41 95.41 0 0 1 94.8 83.7l-61 16.64-3-9.58c-5-16.64-12.61-25.72-27.23-25.72h-73.12c-15.13 0-27.23 12.61-27.23 27.73v12.61c0 17.14 9.58 27.23 26.72 31.77l94.3 24.2c39.33 10.08 68.58 44.37 68.58 87.24v13.11c0 54-40.34 97.32-94.3 97.32h-66.06a96.05 96.05 0 0 1-95.81-84.21zm324.55-11.6V178.21a95.76 95.76 0 0 1 95.81-95.81h66.59c48.91 0 88.75 36.31 95.3 83.7l-61.52 16.64-3.53-9.58c-6.05-16.64-12.1-25.72-27.23-25.72h-73.12c-15.13 0-27.23 12.61-27.23 27.73v173.48c0 15.13 12.1 27.73 27.23 27.73h72.1c15.13 0 23.7-8.57 28.24-25.72l2.52-9.58 61.52 16.14c-6.05 47.9-45.89 84.21-94.8 84.21h-66.06a95.76 95.76 0 0 1-95.82-95.81z" class="cls-1"/></svg>