<svg xmlns="http://www.w3.org/2000/svg" role="img" viewBox="-5.48 -3.48 310.70 306.70"><title>Tableau (Data Exploration) logo</title><defs><style>.cls-4{fill:#576292}.cls-7{fill:#5999a7}</style></defs><path id="Fill-1" fill="#ec6e19" d="M199.33 141.32h-41.15V96.69h-15.87v44.63h-41.15v15.87h41.15v44.63h15.87v-44.63h41.15v-15.87z"/><path id="Fill-2" fill="#de0024" d="M117.02 214.21H79.83v-39.67H65.95v39.67H29.26v12.39h36.69v40.17h13.88V226.6h37.19v-12.39z"/><path id="Fill-3" fill="#35859d" d="M271.24 71.4h-36.7V31.24h-13.88V71.4h-36.69v12.4h36.69v39.67h13.88V83.8h36.7V71.4z"/><path id="Fill-4" d="M144.79 231.07v27.77H119.5v10.91h25.29v27.77h11.9v-27.77h24.8v-10.91h-24.8v-27.77h-11.9z" class="cls-4"/><path id="Fill-5" fill="#f18c00" d="M117.02 71.4H79.83V31.24H66.44V71.4H29.26v11.91h37.18v40.16h13.39V83.31h37.19V71.4z"/><path id="Fill-6" d="M299.5 144.3h-24.8v-28.27h-11.9v28.27h-24.79v10.41h24.79v28.26h11.9v-28.26h24.8V144.3z" class="cls-4"/><path id="Fill-7" fill="#153d75" d="M271.24 214.21h-36.7v-39.67h-13.88v39.67h-36.69v12.39h36.69v40.17h13.88V226.6h36.7v-12.39z"/><path id="Fill-8" d="M146.28 2.48v27.77h-24.8v7.93h24.8v27.77h8.92V38.18h24.3v-7.93h-24.3V2.48h-8.92z" class="cls-7"/><path id="Fill-9" d="M25.79 118.51v26.77H.5v8.44h25.29v26.77h8.42v-26.77l24.79-.5v-7.94H34.21v-26.77h-8.42z" class="cls-7"/></svg>