<svg xmlns="http://www.w3.org/2000/svg" role="img" viewBox="-2.73 -2.73 141.83 56.20"><title>Tamr (Data Classification) logo</title><g data-name="Group 863"><g data-name="Group 858"><path d="M76.534 17.271h-7.377v20.788h-5.054V17.271h-7.378v-4.434h19.806z" data-name="Path 739"/><path d="M91.433 20.105v17.952h-4.761V35.15a7.572 7.572 0 0 1-6.323 3.234c-4.724 0-8.177-3.888-8.177-9.3s3.452-9.339 8.177-9.339a7.665 7.665 0 0 1 6.323 3.234v-2.871zm-4.761 8.976c0-3.052-2-5.233-4.8-5.233s-4.833 2.181-4.833 5.233a4.858 4.858 0 0 0 4.833 5.2c2.801-.003 4.8-2.183 4.8-5.2z" data-name="Path 740"/><path d="M121.884 26.211v11.847h-4.76V26.901a3.169 3.169 0 1 0-6.323 0v11.157h-4.761V26.901c0-2.071-1.2-3.38-3.125-3.38a3.066 3.066 0 0 0-3.2 3.38v11.157H94.99V20.105h4.725v2.871a5.573 5.573 0 0 1 5.269-3.234 5.406 5.406 0 0 1 5.233 3.452 5.963 5.963 0 0 1 5.6-3.452c3.633 0 6.067 2.617 6.067 6.469z" data-name="Path 741"/><path d="M136.454 19.524v4.724c-3.925 0-6.5 1.962-6.5 5.16v8.649h-4.725V20.105h4.725v4a6.919 6.919 0 0 1 6.5-4.581z" data-name="Path 742"/></g><g data-name="Group 859"><path fill="#0859c6" d="M31.074 25.403a5.668 5.668 0 1 1-5.668-5.668 5.668 5.668 0 0 1 5.668 5.668" data-name="Path 743"/></g><g fill="#089fff" data-name="Group 861"><path d="M11.923 28.245a2.842 2.842 0 1 1 2.843-2.842 2.842 2.842 0 0 1-2.843 2.842" data-name="Path 753"/><path d="M38.889 28.245a2.842 2.842 0 1 0-2.843-2.842 2.842 2.842 0 0 0 2.843 2.842" data-name="Path 754"/><path d="M28.248 38.889a2.842 2.842 0 1 1-2.842-2.843 2.842 2.842 0 0 1 2.842 2.843" data-name="Path 755"/><path d="M28.248 11.919a2.842 2.842 0 1 0-2.842 2.843 2.842 2.842 0 0 0 2.842-2.843" data-name="Path 756"/><path d="M17.879 36.947a2.842 2.842 0 1 1 0-4.02 2.842 2.842 0 0 1 0 4.02" data-name="Path 757"/><path d="M36.949 17.88a2.842 2.842 0 1 0-4.02 0 2.842 2.842 0 0 0 4.02 0" data-name="Path 758"/><path d="M36.949 32.93a2.842 2.842 0 1 1-4.02 0 2.842 2.842 0 0 1 4.02 0" data-name="Path 759"/><path d="M17.879 13.862a2.843 2.843 0 1 0 0 4.02 2.842 2.842 0 0 0 0-4.02" data-name="Path 760"/></g><g fill="#0cf" data-name="Group 862"><path d="M2.84 28.244a2.84 2.84 0 1 1 2.841-2.84 2.84 2.84 0 0 1-2.841 2.84" data-name="Path 761"/><path d="M47.973 28.244a2.84 2.84 0 1 0-2.841-2.84 2.84 2.84 0 0 0 2.841 2.84" data-name="Path 762"/><path d="M28.246 47.973a2.84 2.84 0 1 1-2.84-2.841 2.84 2.84 0 0 1 2.84 2.841" data-name="Path 763"/><path d="M28.246 2.84a2.84 2.84 0 1 0-2.84 2.841 2.84 2.84 0 0 0 2.84-2.841" data-name="Path 764"/><path d="M11.458 43.369a2.84 2.84 0 1 1 0-4.017 2.84 2.84 0 0 1 0 4.017" data-name="Path 765"/><path d="M43.371 11.456a2.841 2.841 0 1 0-4.017 0 2.84 2.84 0 0 0 4.017 0" data-name="Path 766"/><path d="M43.371 39.355a2.841 2.841 0 1 1-4.017 0 2.84 2.84 0 0 1 4.017 0" data-name="Path 767"/><path d="M11.458 7.441a2.841 2.841 0 1 0 0 4.017 2.84 2.84 0 0 0 0-4.017" data-name="Path 768"/></g></g></svg>