<svg xmlns="http://www.w3.org/2000/svg" role="img" viewBox="-3.16 -3.16 164.19 38.19"><title>Thoughtspot (Authentication) logo</title><defs><style>.cls-1{fill:#000}</style></defs><g id="Logo" transform="translate(0 -1)"><path id="Fill_1" d="M9.937 0v1.988H5.961v12.173H3.976V1.988H0V0z" class="cls-1" data-name="Fill 1" transform="translate(46.665 11.152)"/><g id="Group_47" data-name="Group 47" transform="translate(0 .193)"><path id="Fill_2" d="M8.435 7.267v6.894H6.45V7.267A1.854 1.854 0 0 0 4.589 5.4h-.744a1.868 1.868 0 0 0-1.86 1.867v6.894H0V0h1.985v4.265a3.651 3.651 0 0 1 2.357-.849h.248a3.841 3.841 0 0 1 3.845 3.851" class="cls-1" data-name="Fill 2" transform="translate(58.695 10.959)"/><path id="Fill_4" d="M4.589 10.931h-.743A3.853 3.853 0 0 1 0 7.08V3.851A3.853 3.853 0 0 1 3.846 0h.743a3.853 3.853 0 0 1 3.846 3.851V7.08a3.853 3.853 0 0 1-3.846 3.851zm-.743-8.944a1.865 1.865 0 0 0-1.861 1.864V7.08a1.865 1.865 0 0 0 1.861 1.864h.743A1.865 1.865 0 0 0 6.45 7.08V3.851a1.865 1.865 0 0 0-1.861-1.864z" class="cls-1" data-name="Fill 4" transform="translate(69.426 14.375)"/><path id="Fill_6" d="M1.985 0v6.894a1.854 1.854 0 0 0 1.86 1.864h.744A1.854 1.854 0 0 0 6.45 6.894V0h1.985v6.894a3.841 3.841 0 0 1-3.845 3.851h-.745A3.841 3.841 0 0 1 0 6.894V0z" class="cls-1" data-name="Fill 6" transform="translate(80.184 14.561)"/><path id="Fill_8" d="M4.61 14.534h-.786A3.825 3.825 0 0 1 .1 11.635l1.9-.559a1.884 1.884 0 0 0 1.819 1.47h.791a1.854 1.854 0 0 0 1.84-1.863V9.441a3.667 3.667 0 0 1-2.357.849h-.248A3.852 3.852 0 0 1 0 6.439V3.851A3.852 3.852 0 0 1 3.845 0h.248A3.761 3.761 0 0 1 6.45.828V.186h1.985v10.5a3.844 3.844 0 0 1-1.114 2.725 3.789 3.789 0 0 1-2.711 1.123zM3.845 1.987a1.864 1.864 0 0 0-1.86 1.864v2.588A1.887 1.887 0 0 0 3.845 8.3h.744A1.865 1.865 0 0 0 6.45 6.439V3.851a1.865 1.865 0 0 0-1.861-1.864z" class="cls-1" data-name="Fill 8" transform="translate(90.826 14.375)"/><path id="Fill_10" d="M8.434 7.267v6.894H6.45V7.267A1.854 1.854 0 0 0 4.589 5.4h-.744a1.868 1.868 0 0 0-1.861 1.867v6.894H0V0h1.984v4.265a3.651 3.651 0 0 1 2.357-.849h.248a3.841 3.841 0 0 1 3.845 3.851" class="cls-1" data-name="Fill 10" transform="translate(101.833 10.959)"/><path id="Fill_12" d="M1.9 11.056a1.885 1.885 0 0 0 1.84 1.491h1.387a1.881 1.881 0 0 0 1.861-1.863 2.352 2.352 0 0 0-1.779-2.258L3.39 7.743C1.7 7.081.289 5.963.289 3.851A3.841 3.841 0 0 1 4.135 0h.971a3.855 3.855 0 0 1 3.721 2.9L6.9 3.458a1.822 1.822 0 0 0-1.8-1.47h-.965a1.854 1.854 0 0 0-1.861 1.863c0 .807.29 1.429 1.881 2.05l1.819.7a4.323 4.323 0 0 1 3 4.079 3.854 3.854 0 0 1-3.845 3.851H3.742A3.879 3.879 0 0 1 0 11.615z" class="cls-1" data-name="Fill 12" transform="translate(120.057 10.772)"/><path id="Fill_14" d="M1.984 14.348H0V.186h1.984v.663A3.667 3.667 0 0 1 4.342 0h.247a3.853 3.853 0 0 1 3.846 3.851V7.08a3.853 3.853 0 0 1-3.846 3.851h-.247a3.666 3.666 0 0 1-2.357-.849v4.264zM3.845 1.987a1.887 1.887 0 0 0-1.86 1.864V7.08a1.864 1.864 0 0 0 1.86 1.864h.744a1.864 1.864 0 0 0 1.86-1.864V3.851a1.864 1.864 0 0 0-1.86-1.864z" class="cls-1" data-name="Fill 14" transform="translate(131.214 14.375)"/><path id="Fill_16" d="M4.589 10.931h-.744A3.852 3.852 0 0 1 0 7.08V3.851A3.852 3.852 0 0 1 3.845 0h.744a3.853 3.853 0 0 1 3.846 3.851V7.08a3.853 3.853 0 0 1-3.846 3.851zm-.744-8.944a1.864 1.864 0 0 0-1.86 1.864V7.08a1.864 1.864 0 0 0 1.86 1.864h.744A1.865 1.865 0 0 0 6.45 7.08V3.851a1.865 1.865 0 0 0-1.861-1.864z" class="cls-1" data-name="Fill 16" transform="translate(141.823 14.375)"/><path id="Fill_28" d="M4.87 13.6a3.026 3.026 0 0 1-3.023-3.028V4.844H0V2.857h1.846V0h1.985v2.857h2.35v1.987h-2.35v5.73a1.039 1.039 0 0 0 1.039 1.04" class="cls-1" data-name="Fill 28" transform="translate(111.994 11.704)"/><path id="Fill_29" d="M9.937 0v1.988H5.961v12.173H3.976V1.988H0V0z" class="cls-1" data-name="Fill 29" transform="translate(46.665 10.959)"/><g id="Group_82" data-name="Group 82" transform="translate(0 .807)"><path id="Fill_18" d="M0 3.961a3.955 3.955 0 1 1 3.955 3.961A3.958 3.958 0 0 1 0 3.961" class="cls-1" data-name="Fill 18" transform="translate(23 24)"/><path id="Fill_21" d="M0 21.786h1.978V0H0z" class="cls-1" data-name="Fill 21" transform="translate(19 10)"/><path id="Fill_23" d="M0 21.786h1.978V0H0z" class="cls-1" data-name="Fill 23" transform="translate(15 10)"/><path id="Fill_24" d="M0 21.786h1.978V0H0z" class="cls-1" data-name="Fill 24" transform="translate(11 10)"/><path id="Fill_25" d="M0 1.981h31.148V0H0z" class="cls-1" data-name="Fill 25" transform="translate(0 8)"/><path id="Fill_26" d="M0 1.98h31.148V0H0z" class="cls-1" data-name="Fill 26" transform="translate(0 4)"/><path id="Fill_27" d="M0 1.98h31.148V0H0z" class="cls-1" data-name="Fill 27"/><path id="Fill_38" d="M0 3.961a3.955 3.955 0 1 1 3.955 3.961A3.958 3.958 0 0 1 0 3.961" class="cls-1" data-name="Fill 38" transform="translate(23 24)"/><path id="Fill_39" d="M0 21.786h1.978V0H0z" class="cls-1" data-name="Fill 39" transform="translate(19 10)"/><path id="Fill_40" d="M0 21.786h1.978V0H0z" class="cls-1" data-name="Fill 40" transform="translate(15 10)"/><path id="Fill_41" d="M0 21.786h1.978V0H0z" class="cls-1" data-name="Fill 41" transform="translate(11 10)"/><path id="Fill_42" d="M0 1.981h31.148V0H0z" class="cls-1" data-name="Fill 42" transform="translate(0 8)"/><path id="Fill_43" d="M0 1.98h31.148V0H0z" class="cls-1" data-name="Fill 43" transform="translate(0 4)"/><path id="Fill_44" d="M0 1.98h31.148V0H0z" class="cls-1" data-name="Fill 44"/></g><path id="Fill_30" d="M8.435 7.267v6.894H6.45V7.267A1.854 1.854 0 0 0 4.589 5.4h-.744a1.868 1.868 0 0 0-1.86 1.867v6.894H0V0h1.985v4.265a3.651 3.651 0 0 1 2.357-.849h.248a3.841 3.841 0 0 1 3.845 3.851" class="cls-1" data-name="Fill 30" transform="translate(58.695 10.959)"/><path id="Fill_31" d="M4.589 10.931h-.743A3.853 3.853 0 0 1 0 7.08V3.851A3.853 3.853 0 0 1 3.846 0h.743a3.853 3.853 0 0 1 3.846 3.851V7.08a3.853 3.853 0 0 1-3.846 3.851zm-.743-8.944a1.865 1.865 0 0 0-1.861 1.864V7.08a1.865 1.865 0 0 0 1.861 1.864h.743A1.865 1.865 0 0 0 6.45 7.08V3.851a1.865 1.865 0 0 0-1.861-1.864z" class="cls-1" data-name="Fill 31" transform="translate(69.426 14.375)"/><path id="Fill_32" d="M1.985 0v6.894a1.854 1.854 0 0 0 1.86 1.864h.744A1.854 1.854 0 0 0 6.45 6.894V0h1.985v6.894a3.841 3.841 0 0 1-3.845 3.851h-.745A3.841 3.841 0 0 1 0 6.894V0z" class="cls-1" data-name="Fill 32" transform="translate(80.184 14.561)"/><path id="Fill_33" d="M4.61 14.534h-.786A3.825 3.825 0 0 1 .1 11.635l1.9-.559a1.884 1.884 0 0 0 1.819 1.47h.791a1.854 1.854 0 0 0 1.84-1.863V9.441a3.667 3.667 0 0 1-2.357.849h-.248A3.852 3.852 0 0 1 0 6.439V3.851A3.852 3.852 0 0 1 3.845 0h.248A3.761 3.761 0 0 1 6.45.828V.186h1.985v10.5a3.844 3.844 0 0 1-1.114 2.725 3.789 3.789 0 0 1-2.711 1.123zM3.845 1.987a1.864 1.864 0 0 0-1.86 1.864v2.588A1.887 1.887 0 0 0 3.845 8.3h.744A1.865 1.865 0 0 0 6.45 6.439V3.851a1.865 1.865 0 0 0-1.861-1.864z" class="cls-1" data-name="Fill 33" transform="translate(90.826 14.375)"/><path id="Fill_34" d="M8.434 7.267v6.894H6.45V7.267A1.854 1.854 0 0 0 4.589 5.4h-.744a1.868 1.868 0 0 0-1.861 1.867v6.894H0V0h1.984v4.265a3.651 3.651 0 0 1 2.357-.849h.248a3.841 3.841 0 0 1 3.845 3.851" class="cls-1" data-name="Fill 34" transform="translate(101.833 10.959)"/><path id="Fill_35" d="M1.9 11.056a1.885 1.885 0 0 0 1.84 1.491h1.387a1.881 1.881 0 0 0 1.861-1.863 2.352 2.352 0 0 0-1.779-2.258L3.39 7.743C1.7 7.081.289 5.963.289 3.851A3.841 3.841 0 0 1 4.135 0h.971a3.855 3.855 0 0 1 3.721 2.9L6.9 3.458a1.822 1.822 0 0 0-1.8-1.47h-.965a1.854 1.854 0 0 0-1.861 1.863c0 .807.29 1.429 1.881 2.05l1.819.7a4.323 4.323 0 0 1 3 4.079 3.854 3.854 0 0 1-3.845 3.851H3.742A3.879 3.879 0 0 1 0 11.615z" class="cls-1" data-name="Fill 35" transform="translate(120.057 10.772)"/><path id="Fill_36" d="M1.984 14.348H0V.186h1.984v.663A3.667 3.667 0 0 1 4.342 0h.247a3.853 3.853 0 0 1 3.846 3.851V7.08a3.853 3.853 0 0 1-3.846 3.851h-.247a3.666 3.666 0 0 1-2.357-.849v4.264zM3.845 1.987a1.887 1.887 0 0 0-1.86 1.864V7.08a1.864 1.864 0 0 0 1.86 1.864h.744a1.864 1.864 0 0 0 1.86-1.864V3.851a1.864 1.864 0 0 0-1.86-1.864z" class="cls-1" data-name="Fill 36" transform="translate(131.214 14.375)"/><path id="Fill_37" d="M4.589 10.931h-.744A3.852 3.852 0 0 1 0 7.08V3.851A3.852 3.852 0 0 1 3.845 0h.744a3.853 3.853 0 0 1 3.846 3.851V7.08a3.853 3.853 0 0 1-3.846 3.851zm-.744-8.944a1.864 1.864 0 0 0-1.86 1.864V7.08a1.864 1.864 0 0 0 1.86 1.864h.744A1.865 1.865 0 0 0 6.45 7.08V3.851a1.865 1.865 0 0 0-1.861-1.864z" class="cls-1" data-name="Fill 37" transform="translate(141.823 14.375)"/><path id="Fill_45" d="M6.181 4.845V2.857h-2.35V0H1.846v2.857H0v1.988h1.846v5.73A3.026 3.026 0 0 0 4.87 13.6h1.311v-1.985H4.87a1.039 1.039 0 0 1-1.039-1.04v-5.73z" class="cls-1" data-name="Fill 45" transform="translate(111.993 11.704)"/><path id="Fill_46" d="M6.181 4.845V2.857h-2.35V0H1.846v2.857H0v1.988h1.846v5.73A3.026 3.026 0 0 0 4.87 13.6h1.311v-1.985H4.87a1.039 1.039 0 0 1-1.039-1.04v-5.73z" class="cls-1" data-name="Fill 46" transform="translate(151.759 11.704)"/></g></g></svg>