<svg xmlns="http://www.w3.org/2000/svg" role="img" viewBox="-49.95 -49.95 2597.40 757.40"><title>TIBCO Spotfire (Workflows) logo</title><style>svg {enable-background:new 0 0 2498.3 658.8}</style><style>.st0{fill:#3e8ede}</style><path d="M280.5 140.3v504.8h-77.8V140.3H0V66.2h483.4v74.1H280.5zm295.4 504.8V66.2h77.8v578.9h-77.8zm626.8-164c0 98.2-65.7 163.9-214.8 163.9H790.6V66.2h191.7c139.8 0 201.9 62.9 201.9 153.7 0 59.2-34.3 102.9-99.2 127.5 77.5 18.8 117.7 68.8 117.7 133.7zM988.8 138.4H869.3v181.5h107.4c83.3 0 128.8-37 128.8-93.5s-40.8-88-116.7-88zm-5.6 252.9H869.9v181.5h125.4c86.1 0 128.8-30.6 128.8-90.8 0-66.6-59.4-90.7-140.9-90.7zm732.7-219c-46.3-32.6-101.6-50-158.3-49.6-126 0-211 87.1-211 230.7s85 235.2 212.5 235.2c59.3-1 116.7-20.9 163.9-56.7l12.9 78.8c-54.1 31.8-115.9 48.4-178.7 48.2-170 0-289.9-117.6-289.9-301.9S1389 52.4 1557.5 52.4c64.3-.4 127.5 16.2 183.3 48.2l-24.9 71.7zm501.9-79.1c-8.7-5.2-17.6-10-26.8-14.2-75.7 145.1-212.5 317.6-395 415.8 10.1 23 23.4 44.4 39.4 63.8 156.4-107.9 301.2-287.1 382.4-465.4z" class="st0"/><path d="M2184.1 75.7c-39.7-16.9-82.5-25.5-125.7-25.1-170 0-290.3 131.3-290.3 304.2-.1 27.7 2.9 55.3 8.9 82.3 174-70.9 328.8-227.3 407.1-361.4zm40.9 21.5c-89.3 219.6-198.3 374.9-337.1 508.5 50.5 34 110.3 51.7 171.1 50.6 170 0 290.3-132.2 290.3-305.2-.6-114.5-48-203.5-124.3-253.9zm123.7-19.1c-1.8-41.3 30.2-76.2 71.5-78 41.3-1.8 76.2 30.2 78 71.5.1 2.2.1 4.3 0 6.5 1.8 41.3-30.2 76.2-71.5 78-41.3 1.8-76.2-30.2-78-71.5-.1-2.2-.1-4.4 0-6.5zm141 0c0-36.5-29.6-66.2-66.1-66.2-36.5 0-66.2 29.6-66.2 66.1v.1c.1 36.5 29.8 66.1 66.4 66 36.5-.1 66.1-29.8 66-66.4v.4zm-95.3-39.6h34.4c16.7 0 29.2 8.2 29.2 24.1.4 10.9-6.9 20.7-17.6 23.2l20.3 28.3h-17.6l-18.3-26.9h-15.6v26.9H2395v-76l-.6.4zm33.1 37.9c7.2 1.3 14-3.5 15.3-10.7.1-.6.2-1.2.2-1.8 0-7-5.7-12.8-12.7-12.8-.9 0-1.8.1-2.7.3h-18.3v24.5h18.4l-.2.5z" class="st0"/></svg>