<svg xmlns="http://www.w3.org/2000/svg" role="img" viewBox="-43.45 -39.45 465.40 189.90"><title>Two Sigma BeakerX (AI/ML Modules and Extensions) logo</title><defs id="defs4"><style id="style2">.cls-1{fill:#fff}</style></defs><path id="rect831" fill="#e37222" fill-opacity="1" stroke="none" stroke-dasharray="none" stroke-miterlimit="4" stroke-opacity="1" stroke-width="18.898" d="M-34.155-30.297H413.27v171.911H-34.155z"/><path id="path8" fill="#fff" d="M19.34 18.52a9.26 9.26 0 1 1 9.26-9.26 9.27 9.27 0 0 1-9.26 9.26zm0-16a6.7 6.7 0 1 0 6.69 6.69 6.7 6.7 0 0 0-6.69-6.6z" class="cls-1"/><path id="path10" fill="#fff" d="M15.41 34.44a5.3 5.3 0 1 1 5.3-5.31 5.31 5.31 0 0 1-5.3 5.31zm0-8a2.74 2.74 0 1 0 2.79 2.69 2.75 2.75 0 0 0-2.79-2.74z" class="cls-1"/><path id="path12" fill="#fff" d="M41.14 34.42a11.26 11.26 0 1 1 11.25-11.26 11.27 11.27 0 0 1-11.25 11.26zm0-20a8.7 8.7 0 1 0 8.7 8.7 8.71 8.71 0 0 0-8.7-8.65z" class="cls-1"/><path id="polygon14" fill="#fff" d="M33.8 123.15V48.81h2.57v73.24l3.4 3.24H90.1l3.45-3.22V58.31l9.93-10.38 1.85 1.77-9.22 9.64v63.85l-5 4.66H38.75z" class="cls-1" transform="translate(-33.8 -20.39)"/><path id="path16" fill="#fff" d="M54.41 99.28H8.07V41.85h46.34zm-43.78-2.57h41.22v-52.3H10.63z" class="cls-1"/><path id="path18" fill="#fff" d="M106.41 42.12a34.79 34.79 0 0 1 9.06 1 17.55 17.55 0 0 1 6.25 2.95 11.46 11.46 0 0 1 3.6 4.68 16 16 0 0 1 1.15 6.23 12.46 12.46 0 0 1-.66 4 12.12 12.12 0 0 1-2 3.6 14.06 14.06 0 0 1-3.32 3 18.16 18.16 0 0 1-4.72 2.17q6.29 1.19 9.45 4.48a11.9 11.9 0 0 1 3.16 8.62 16 16 0 0 1-1.33 6.61 14.16 14.16 0 0 1-3.85 5.15 18.17 18.17 0 0 1-6.31 3.32 28.42 28.42 0 0 1-8.52 1.17H88.2v-57zM95.9 48.21v19.46h10.19a20 20 0 0 0 5.67-.72 11.42 11.42 0 0 0 4-2 7.78 7.78 0 0 0 2.33-3.08 10.18 10.18 0 0 0 .76-4q0-5.05-3-7.38t-9.39-2.33zm12.3 44.82a19 19 0 0 0 5.69-.76 10.56 10.56 0 0 0 3.92-2.13 8.25 8.25 0 0 0 2.25-3.26 11.64 11.64 0 0 0 .72-4.16 8.54 8.54 0 0 0-3.14-7q-3.15-2.57-9.43-2.57H95.9v19.86z" class="cls-1"/><path id="path20" fill="#fff" d="M170.14 93.5a13.47 13.47 0 0 1-3.14 2.77 19.56 19.56 0 0 1-3.92 1.93 24.85 24.85 0 0 1-4.32 1.13 26.43 26.43 0 0 1-4.42.38 20.51 20.51 0 0 1-7.7-1.41 16.9 16.9 0 0 1-6.09-4.14 19 19 0 0 1-4-6.75 27.43 27.43 0 0 1-1.43-9.23 23.51 23.51 0 0 1 1.29-7.88 18.57 18.57 0 0 1 3.72-6.35 17.13 17.13 0 0 1 5.93-4.22 19.47 19.47 0 0 1 7.88-1.53 18.16 18.16 0 0 1 6.71 1.21 15.18 15.18 0 0 1 5.33 3.5 16.07 16.07 0 0 1 3.52 5.7 21.54 21.54 0 0 1 1.27 7.66 4.62 4.62 0 0 1-.36 2.23 1.49 1.49 0 0 1-1.35.56h-26.95a23.55 23.55 0 0 0 1.05 6.65 13.34 13.34 0 0 0 2.61 4.72 10.51 10.51 0 0 0 4 2.83 13.66 13.66 0 0 0 5.17.94 15.17 15.17 0 0 0 4.6-.62 21.89 21.89 0 0 0 3.32-1.33 25.27 25.27 0 0 0 2.33-1.33 3.09 3.09 0 0 1 1.61-.62 1.56 1.56 0 0 1 1.35.68zm-5.73-18.89a14 14 0 0 0-.7-4.52 10.15 10.15 0 0 0-2-3.54 9.06 9.06 0 0 0-3.24-2.31 12.27 12.27 0 0 0-12.4 2.15 13.89 13.89 0 0 0-3.72 8.22z" class="cls-1"/><path id="path22" fill="#fff" d="M178.42 64.53a23 23 0 0 1 7.2-4.82 22.25 22.25 0 0 1 8.58-1.59 15.28 15.28 0 0 1 6 1.11 12.32 12.32 0 0 1 4.42 3.1 13.17 13.17 0 0 1 2.71 4.82 20.12 20.12 0 0 1 .91 6.21v25.79h-3.14a3.09 3.09 0 0 1-1.59-.34 2.31 2.31 0 0 1-.87-1.33l-.8-3.82a39.57 39.57 0 0 1-3.11 2.61 17.78 17.78 0 0 1-3.18 1.91 17.28 17.28 0 0 1-3.56 1.19 19.49 19.49 0 0 1-4.2.42 14.52 14.52 0 0 1-4.42-.66 10.2 10.2 0 0 1-3.6-2 9.26 9.26 0 0 1-2.43-3.32 11.62 11.62 0 0 1-.9-4.76 8.87 8.87 0 0 1 1.31-4.6 11.51 11.51 0 0 1 4.25-3.84 27.93 27.93 0 0 1 7.68-2.81 58.62 58.62 0 0 1 11.62-1.29v-3.15q0-4.7-2-7.11a7.32 7.32 0 0 0-5.93-2.41 12.75 12.75 0 0 0-4.4.66 16.52 16.52 0 0 0-3.06 1.47q-1.29.82-2.23 1.47a3.22 3.22 0 0 1-1.85.66 2 2 0 0 1-1.23-.38 3.45 3.45 0 0 1-.88-.94zm22.88 16.48a59 59 0 0 0-8.34.78 23.73 23.73 0 0 0-5.61 1.61 7.75 7.75 0 0 0-3.14 2.35 5.05 5.05 0 0 0-1 3 6.67 6.67 0 0 0 .52 2.75 5.09 5.09 0 0 0 1.41 1.89 5.65 5.65 0 0 0 2.11 1.07 9.65 9.65 0 0 0 2.61.34 14.43 14.43 0 0 0 3.42-.38 12.87 12.87 0 0 0 2.93-1.09 16.49 16.49 0 0 0 2.63-1.71 22.69 22.69 0 0 0 2.45-2.27z" class="cls-1"/><path id="path24" fill="#fff" d="M226.14 40.52v34.51h1.83a3.54 3.54 0 0 0 1.33-.22 3.23 3.23 0 0 0 1.13-.9l12.77-13.64a4.78 4.78 0 0 1 1.17-1.05 3.14 3.14 0 0 1 1.65-.38h6.41l-14.86 15.77a9 9 0 0 1-2.31 2.11 7.38 7.38 0 0 1 1.29 1.09 10.27 10.27 0 0 1 1.09 1.41l15.76 19.9h-6.33a3.78 3.78 0 0 1-1.57-.3 2.62 2.62 0 0 1-1.13-1.09l-13.25-16.52a3.17 3.17 0 0 0-1.17-1.09 4.57 4.57 0 0 0-1.77-.26h-2v19.27h-7.12V40.52z" class="cls-1"/><path id="path26" fill="#fff" d="M289.91 93.5a13.47 13.47 0 0 1-3.14 2.77 19.56 19.56 0 0 1-3.92 1.93 24.84 24.84 0 0 1-4.32 1.13 26.43 26.43 0 0 1-4.42.38 20.51 20.51 0 0 1-7.7-1.41 16.9 16.9 0 0 1-6.09-4.14 19 19 0 0 1-4-6.75 27.42 27.42 0 0 1-1.43-9.23 23.49 23.49 0 0 1 1.31-7.88 18.57 18.57 0 0 1 3.72-6.35 17.13 17.13 0 0 1 5.93-4.22 19.46 19.46 0 0 1 7.88-1.53 18.16 18.16 0 0 1 6.71 1.21 15.19 15.19 0 0 1 5.33 3.5 16.06 16.06 0 0 1 3.5 5.7 21.52 21.52 0 0 1 1.27 7.66 4.62 4.62 0 0 1-.36 2.23 1.49 1.49 0 0 1-1.35.56h-26.94a23.59 23.59 0 0 0 1.05 6.65 13.34 13.34 0 0 0 2.61 4.72 10.51 10.51 0 0 0 4 2.83 13.67 13.67 0 0 0 5.18.94 15.16 15.16 0 0 0 4.6-.62 21.85 21.85 0 0 0 3.32-1.33 25.28 25.28 0 0 0 2.33-1.33 3.09 3.09 0 0 1 1.61-.62 1.56 1.56 0 0 1 1.35.68zm-5.71-18.89a14 14 0 0 0-.7-4.52 10.17 10.17 0 0 0-2-3.54 9.06 9.06 0 0 0-3.3-2.32 12.27 12.27 0 0 0-12.4 2.15 13.89 13.89 0 0 0-3.67 8.23z" class="cls-1"/><path id="path28" fill="#fff" d="M305.95 66.91a18.17 18.17 0 0 1 4.7-6.47 10.25 10.25 0 0 1 6.81-2.33 10.61 10.61 0 0 1 2.45.28 6.6 6.6 0 0 1 2.09.88l-.53 5.34a1.14 1.14 0 0 1-1.19 1 8.22 8.22 0 0 1-1.63-.24 11.25 11.25 0 0 0-2.43-.24 9.69 9.69 0 0 0-3.4.56 8 8 0 0 0-2.67 1.65 11.7 11.7 0 0 0-2.11 2.71 23.27 23.27 0 0 0-1.69 3.68v25.48h-7.15V58.83h4.06a2.24 2.24 0 0 1 1.59.44 2.69 2.69 0 0 1 .6 1.51z" class="cls-1"/><path id="polygon30" fill="#fff" d="M382.59 99.76l-14.24 19.84h-5.71l17.1-23.82-.64-.88-17.72 24.7h-5.7l20.57-28.68-20.44-28.5h5.71l17.58 24.53 2.86 3.97.64.88 2.85 3.97 17.09 23.83h-5.71z" class="cls-1" transform="translate(-33.8 -20.39)"/><path id="polygon32" fill="#fff" d="M386.07 94.9l-2.85-3.98-.62-.88-2.86-3.97-16.96-23.65h5.71l14.1 19.67 14.11-19.67h5.71l-16.96 23.65.62.88 17.6-24.53h5.71l-20.45 28.5 20.57 28.68h-5.7z" class="cls-1" transform="translate(-33.8 -20.39)"/></svg>