<svg xmlns="http://www.w3.org/2000/svg" role="img" viewBox="-7.99 -7.99 415.74 144.24"><title>UBix Labs UBIX (Batch Processing) logo</title><g fill-rule="evenodd"><path fill="#fc6707" d="M0 64.25v64.25h15.286l.107-1.024c.139-1.334.138-124.875-.002-126.351L15.285 0H0v64.25m383.667 0v64.25h15l.001-.958c0-.527 0-29.009-.001-63.292V0h-15v64.25M51.708 30.037c-.285.137-.375.325-.377.78-.157 34.611.096 46.693 1.011 48.243.184.312.469 1.281.635 2.155.223 1.177.412 1.72.733 2.101.246.293.514.909.623 1.433.128.616.3.977.523 1.097.183.097.48.522.661.944.181.422.589 1.054.906 1.406.317.351.577.742.577.868s.262.43.583.675c.321.244.584.551.584.682 0 .13.219.35.487.489.267.138.647.478.844.754.197.277.473.503.613.503s.467.226.725.503c.259.277.885.686 1.391.91.507.224 1.003.56 1.103.747.1.187.273.34.384.341.516.002 1.488.383 1.934.759.333.279.934.502 1.855.687.757.152 1.616.445 1.931.658.457.31 1.08.45 3.199.719 1.447.183 2.954.447 3.348.586 1.88.663 12.507.672 14.35.011.412-.147 1.927-.407 3.368-.577 2.01-.237 2.756-.392 3.2-.666.318-.197 1.104-.468 1.745-.602 1.446-.301 1.891-.467 2.176-.811.123-.148.627-.386 1.12-.529.494-.144 1.114-.444 1.379-.667.265-.223.731-.51 1.035-.638 1.048-.44 5.655-4.898 6.057-5.859.125-.3.38-.627.567-.727.217-.116.44-.543.621-1.187.166-.591.435-1.125.654-1.297.257-.203.458-.674.653-1.535.154-.684.46-1.55.68-1.926.311-.534.469-1.242.724-3.25.179-1.412.438-2.867.577-3.234.138-.366.294-1.154.346-1.75.134-1.527.148-42.674.015-42.807-.165-.166-8.533-.231-9.581-.075l-.917.137-.101 21.914c-.106 22.831-.153 24.304-.808 25.19-.188.254-.451.931-.585 1.503-.133.573-.398 1.232-.588 1.465-.19.233-.492.733-.672 1.111-.18.378-.585.884-.9 1.125-.315.24-.62.583-.677.762-.056.179-.247.371-.423.427-.177.056-.564.36-.862.675-.298.316-.881.698-1.296.85-.415.152-.83.365-.921.473-.298.35-.872.579-2.107.838-.666.141-1.327.359-1.469.485-1.294 1.153-18.458 1.246-20.018.109-.234-.171-1.007-.441-1.718-.599-.794-.177-1.474-.441-1.766-.687-.261-.22-.801-.514-1.199-.655-.398-.14-.873-.401-1.057-.58-.183-.18-.67-.573-1.081-.875-.412-.303-.916-.809-1.121-1.126-.205-.317-.553-.764-.773-.993-.22-.229-.487-.679-.593-.999-.106-.32-.383-.857-.615-1.192-.287-.414-.505-1.085-.677-2.081-.14-.809-.353-1.663-.474-1.898-.607-1.173-.626-1.826-.7-23.66-.049-14.67-.127-21.48-.247-21.625-.23-.277-9.02-.285-9.594-.008m88.846-.088c-.2.039-.445.169-.544.289-.129.156-.195 9.546-.228 32.449-.026 17.726-.107 32.427-.18 32.668-.32 1.052-1.259 1.017 24.752.929 24.14-.082 25.55-.122 26.678-.764.303-.173 1.264-.444 2.135-.603 1.055-.193 1.793-.43 2.212-.712.346-.232 1.021-.524 1.5-.648.479-.125.983-.369 1.121-.543.231-.291 1.434-1.014 1.689-1.014.12 0 1.039-.813 1.979-1.75.322-.321.677-.583.79-.583.112 0 .311-.257.443-.571.131-.313.42-.689.643-.835.224-.147.496-.57.609-.947.112-.375.461-.939.776-1.254.407-.407.573-.725.578-1.107.009-.651.369-1.706.713-2.089.998-1.111.963-12.452-.043-13.815-.188-.256-.485-.978-.658-1.604-.173-.625-.495-1.338-.716-1.583-.22-.245-.528-.727-.683-1.07-.155-.344-.348-.625-.428-.625-.081 0-.355-.319-.608-.709-.254-.389-.751-.992-1.106-1.339-.354-.347-.645-.736-.645-.864s-.157-.282-.348-.343c-.977-.31-.906-2.655.099-3.314.245-.161.488-.593.655-1.169.15-.514.42-1.021.618-1.16.292-.204.42-.658.747-2.633.218-1.312.47-2.603.562-2.869.332-.961.204-4.376-.235-6.267-.223-.963-.481-2.171-.572-2.685-.107-.607-.315-1.096-.592-1.395-.234-.253-.475-.72-.534-1.037-.142-.755-3.655-4.373-4.649-4.789-.365-.152-.814-.411-.998-.575-.355-.316-1.009-.588-1.836-.766-.275-.059-.776-.297-1.113-.528-.475-.326-1.081-.491-2.704-.735-1.151-.174-2.375-.435-2.721-.58-.386-.163-1.531-.324-2.962-.417-2.249-.147-43.457-.187-44.196-.044m95.613.027l-.417.122-.042 32.795c-.03 23.214.01 32.892.138 33.13.206.386 10.098.434 10.48.051.284-.284.159-65.656-.126-65.941-.242-.243-9.262-.384-10.033-.157m38.166.021c-.346.219-.067.651 1.442 2.227.656.685 1.24 1.394 1.298 1.576.057.182.25.369.427.415.177.046.443.338.591.647.148.31.485.688.749.84.265.151.529.465.587.698.058.232.251.467.427.523.177.056.448.303.602.548.154.245.546.716.871 1.046.523.532 2.526 2.697 3.673 3.969.229.254.829.968 1.333 1.586.504.617 1.198 1.391 1.542 1.719.344.329.625.688.625.8 0 .111.262.403.583.648.321.244.584.527.584.628 0 .101.281.467.625.812.343.345.745.765.891.933.147.167.409.44.584.605.174.165.598.615.941 1 .344.385.907 1.003 1.25 1.374.344.371 1 1.119 1.459 1.663.458.544 1.068 1.221 1.355 1.504.287.284.643.749.79 1.034.147.285.411.563.587.619.175.056.44.356.588.668.148.312.42.615.606.674.185.059.52.382.745.719.225.336.574.818.776 1.07l.368.458-.368.458c-.202.252-.551.734-.776 1.07-.225.337-.556.659-.736.716-.18.057-.485.371-.677.697-.193.326-.496.631-.674.677-.178.047-.371.245-.43.442-.058.196-.38.635-.714.976-.334.341-.882.941-1.217 1.333-.336.393-1.118 1.277-1.739 1.964-.62.688-1.283 1.428-1.473 1.646-.318.365-1.456 1.595-1.845 1.994-.091.094-.354.366-.583.604-.229.237-.698.713-1.042 1.056-.343.343-.625.719-.625.835 0 .115-.255.36-.567.544-.311.184-.613.518-.669.742-.056.224-.326.522-.599.664-.274.141-.498.336-.498.432 0 .096-.261.45-.579.787-.319.337-1.569 1.738-2.779 3.113-1.209 1.375-2.467 2.79-2.795 3.145-1.247 1.346-2.05 2.197-2.303 2.438-.144.138-.381.387-.528.553-.146.167-.527.572-.847.901-.319.329-.658.755-.753.947-.094.192-.333.42-.529.507-.196.087-.475.407-.621.712-.145.304-.452.639-.681.743-.23.105-.418.294-.418.42 0 .127-.319.549-.709.94-2.18 2.185-2.619 2.741-2.341 2.972.345.287 12.655.397 13.508.121.578-.187.969-.541 2.292-2.076.752-.873 2.1-2.313 3.89-4.156.357-.367.733-.831.837-1.031.104-.2.331-.408.505-.464.173-.055.409-.326.523-.602.115-.276.417-.611.673-.743.256-.132.513-.391.571-.575.059-.185.364-.532.679-.772.314-.24.572-.538.572-.661 0-.124.232-.397.516-.606.284-.209.617-.567.741-.796.123-.229.754-.979 1.401-1.667.647-.687 1.532-1.659 1.967-2.159.664-.763 1.506-1.674 2.291-2.481.092-.094.355-.365.584-.603.229-.238.698-.714 1.041-1.057.344-.343.625-.719.625-.834 0-.116.255-.361.567-.545.312-.184.614-.522.672-.75.057-.229.289-.5.515-.603.226-.103.563-.445.75-.761.186-.316.48-.611.653-.656.173-.045.36-.262.415-.48.4-1.595 2.229-2.125 3.055-.886.251.377.729.966 1.062 1.308.333.342.651.766.707.941.056.176.269.393.475.484.205.091.451.323.546.515.094.192.433.62.753.951 1.685 1.746 1.997 2.101 1.997 2.271 0 .103.189.259.421.347.231.088.467.292.524.454.056.162.373.558.704.88.33.322.976 1.023 1.434 1.558.459.535 1.151 1.321 1.539 1.747.388.427.707.857.709.956.001.099.186.279.411.399.225.12.523.457.661.749.138.291.439.615.67.72.23.105.466.383.525.618.059.236.313.535.565.665.251.13.55.462.665.739.114.276.352.548.528.603.176.056.446.303.6.548.154.245.546.715.871 1.044.652.661.727.745 3.151 3.485.932 1.054 1.956 2.192 2.275 2.529.319.337.58.713.58.836 0 .666 1.347.801 7.949.801 7.368 0 7.452-.015 6.301-1.145-.366-.36-1.015-1.056-1.44-1.547-.426-.49-1.119-1.287-1.542-1.772-.422-.484-.768-.954-.768-1.045 0-.09-.184-.248-.408-.351-.225-.102-.526-.433-.67-.736-.143-.302-.414-.598-.601-.658-.187-.059-.461-.363-.61-.675-.149-.312-.409-.611-.579-.665-.169-.054-.433-.298-.586-.543-.153-.245-.508-.685-.787-.977-.28-.291-1.071-1.141-1.759-1.888-.687-.746-1.512-1.641-1.833-1.989-1.173-1.271-2.1-2.302-2.833-3.151-.413-.477-1.023-1.154-1.356-1.504-.333-.35-.653-.786-.712-.969-.058-.184-.288-.417-.511-.519-.223-.101-.514-.394-.647-.65s-.474-.637-.758-.846c-.284-.209-.516-.464-.516-.567 0-.103-.282-.47-.625-.815-.344-.345-.757-.765-.917-.933-.16-.167-.423-.439-.583-.604-.161-.164-.592-.626-.959-1.026-.366-.4-.897-.977-1.179-1.284-2.444-2.659-3.737-4.162-3.737-4.345 0-.119-.169-.291-.375-.381-.207-.091-.488-.405-.625-.7-.138-.294-.447-.618-.686-.719-.24-.101-.54-.379-.667-.618-.127-.238-.437-.64-.689-.893-.591-.592-.58-1.056.042-1.677.275-.275.5-.556.5-.624 0-.068.318-.431.708-.807.39-.376 1.008-1.03 1.375-1.453.367-.423.929-1.055 1.25-1.405.321-.349.986-1.095 1.478-1.658.493-.563 1.447-1.606 2.12-2.317.673-.712 1.508-1.605 1.855-1.986s.705-.769.797-.864c.092-.094.354-.366.583-.604.23-.237.698-.713 1.042-1.056.344-.343.625-.719.625-.835 0-.115.255-.36.567-.544.312-.184.613-.518.669-.742.056-.224.326-.522.6-.664.273-.141.497-.349.496-.461-.001-.113.263-.467.585-.788.322-.321 1.651-1.783 2.952-3.25 1.302-1.466 2.595-2.901 2.874-3.189.279-.287.582-.601.674-.697.091-.096.354-.369.583-.607 1.145-1.188 1.456-1.543 1.712-1.952.154-.245.412-.489.575-.542.163-.052.424-.321.581-.597.157-.276.473-.574.704-.661.238-.091.465-.343.525-.585.059-.234.289-.568.511-.742.689-.543.222-.592-6.055-.645-6.156-.053-7.157.024-7.594.579-.115.146-.441.499-.724.785-.283.286-1.299 1.382-2.258 2.437-.959 1.054-2.265 2.459-2.902 3.122-.637.663-2.039 2.125-3.115 3.25-1.077 1.124-2.07 2.157-2.209 2.294-.527.525-.856.873-1.501 1.588-.367.407-.798.872-.958 1.034-.161.162-.423.432-.584.6-.16.168-.573.587-.916.933-.344.345-.625.717-.625.825 0 .109-.263.353-.584.542-.321.19-.583.437-.583.551 0 .113-.281.47-.625.793-.344.324-.787.767-.986.986-.198.219-.441.473-.54.565-.099.092-.431.504-.737.917-.832 1.12-2.725.853-3.047-.43-.056-.224-.32-.562-.586-.752-.266-.19-.595-.558-.73-.82-.135-.261-.389-.52-.564-.576-.176-.056-.436-.348-.579-.649-.143-.301-.451-.634-.683-.74-.233-.106-.423-.276-.423-.378 0-.102-.319-.506-.708-.899-1.082-1.09-2.938-3.089-3.959-4.265-.504-.581-1.192-1.338-1.528-1.683-.336-.346-.655-.762-.708-.927-.053-.164-.319-.424-.591-.578-.272-.155-.54-.464-.596-.688-.056-.224-.28-.488-.498-.587-.218-.099-.505-.39-.638-.646s-.474-.637-.758-.846c-.284-.209-.516-.464-.516-.567 0-.103-.281-.47-.625-.815s-.775-.784-.958-.974c-.184-.191-.425-.441-.537-.555-.112-.115-.909-.94-1.772-1.834l-1.568-1.625-6.478.003c-3.8.001-6.582.068-6.729.161M187.74 40.974c.453.107.978.337 1.167.511.189.174.615.428.947.565.649.267 2.146 1.604 2.146 1.916 0 .104.244.467.542.806l.541.617V50.778l-.541.617c-.298.339-.542.703-.542.808 0 .231-.664.964-.873.964-.082 0-.333.219-.559.487-.226.269-.635.538-.91.598-.275.06-.704.28-.954.489-.578.483-.856.567-2.56.765-2.179.253-34.901.211-35.312-.046-.609-.38-.665-1.012-.665-7.448 0-6.767.006-6.816.892-7.184.56-.233 35.669-.093 36.681.146m2.927 26.216c.687.334 1.457.654 1.71.712.253.058.658.327.899.598.242.271.567.533.722.583.155.049.388.294.517.545.129.25.429.643.667.872.272.263.507.757.635 1.334.112.504.368 1.253.568 1.666.54 1.11.54 4.584 0 5.61-.2.382-.451 1.017-.558 1.413-.243.904-1.91 2.828-2.786 3.216-.677.3-.776.357-1.431.82-.264.186-1.084.404-2.065.549-.896.133-2.116.392-2.712.576-1.055.327-1.531.336-18.305.341l-17.223.007-.405-.381c-.223-.21-.484-.648-.58-.974-.206-.702-.146-17.108.065-17.531.313-.63.41-.633 19.948-.598l19.084.035 1.25.607"/><path fill="#fcfcfb" d="M16.833 64.25v64.25h366V0h-366v64.25m327.834-34.917c.488.488.432 1.234-.125 1.661-.252.193-.576.555-.72.804-.144.249-.467.552-.718.674-.251.122-.526.406-.612.632-.086.225-.381.538-.656.695-.275.156-.501.381-.502.5 0 .119-.262.494-.582.833-.708.754-2.156 2.359-3.026 3.355-.353.405-.943 1.051-1.309 1.436-.367.385-1.249 1.329-1.961 2.097-.711.768-1.405 1.509-1.541 1.647-.137.137-.38.386-.54.553-.16.166-.553.572-.872.9-.32.329-.659.754-.754.944-.095.19-.351.435-.57.544-.219.11-.498.437-.62.727-.122.291-.376.569-.565.618-.188.05-.491.38-.672.735-.181.355-.388.645-.461.645-.072 0-.689.645-1.371 1.432-2.12 2.449-4.011 4.51-5.922 6.454-.649.662-1.27 1.37-1.38 1.574-.109.203-.412.481-.673.616-.262.135-.522.431-.579.657-.057.226-.221.528-.365.672-.238.238-.23.302.084.701.19.242.345.54.345.663 0 .122.224.338.497.48.274.141.604.462.734.712.13.251.469.627.753.836.284.209.516.457.516.552 0 .094.544.728 1.208 1.408 1.539 1.575 2.334 2.439 3.375 3.664.459.539 1.109 1.262 1.445 1.606.337.345.659.776.717.958.058.182.256.379.44.438.184.058.453.355.598.659.145.304.444.635.665.736.221.1.499.413.617.696.119.282.395.602.614.711.219.109.475.354.57.545.095.19.434.615.754.943.319.329.712.734.872.901.16.167.423.438.583.602.817.838 1.765 1.877 3.079 3.376.799.912 1.756 1.97 2.125 2.351s.672.794.672.917c.001.123.223.35.494.504.272.154.537.455.591.668.053.214.32.516.592.672.272.156.544.418.603.582.06.164.378.573.706.909.328.337.719.74.868.896.148.157.426.444.616.639.19.194.611.654.935 1.02.324.367 1.453 1.548 2.508 2.624 2.074 2.116 2.32 2.647 1.66 3.589l-.259.371h-14.521l-.569-.5c-.313-.275-.682-.5-.819-.5-.138 0-.396-.248-.574-.55-.179-.302-.551-.717-.828-.921-.277-.205-.504-.448-.504-.539 0-.092-.543-.721-1.208-1.4-1.297-1.324-2.322-2.463-3.528-3.924-.416-.504-1.021-1.179-1.345-1.5-.323-.32-.587-.668-.587-.772.001-.103-.261-.388-.582-.633-.321-.245-.583-.557-.583-.694 0-.137-.223-.377-.497-.533-.273-.157-.583-.494-.69-.751-.106-.256-.408-.577-.67-.712-.262-.136-.476-.326-.476-.424 0-.097-.319-.509-.709-.915-.955-.995-1.384-1.462-2.428-2.644-.488-.553-1.18-1.315-1.537-1.695-.357-.379-.735-.877-.84-1.106-.104-.23-.373-.501-.597-.603-.224-.102-.51-.433-.637-.736s-.421-.638-.653-.744c-.233-.106-.47-.38-.528-.609-.057-.228-.359-.566-.671-.75-.312-.184-.567-.447-.567-.585 0-.138-.227-.418-.504-.623-.277-.204-.652-.624-.833-.931-.479-.812-1.606-.751-2.011.108-.146.311-.465.67-.709.797-.244.128-.443.339-.443.469 0 .131-.3.478-.667.773-.366.295-.666.632-.666.749 0 .118-.263.414-.584.659-.321.245-.582.53-.582.633.001.104-.263.451-.586.772-.324.321-1.356 1.447-2.293 2.503-2.105 2.369-2.26 2.539-3.708 4.037-.642.666-1.297 1.411-1.453 1.656-.157.245-.424.49-.593.543-.169.054-.43.353-.578.665-.149.313-.424.616-.611.676-.187.059-.461.363-.609.675-.148.311-.412.612-.588.668-.175.055-.43.315-.565.576-.135.261-.471.636-.748.833-.276.197-.502.433-.502.525 0 .194-4.561 5.282-5.036 5.618-.175.124-.388.407-.472.628-.084.222-.334.472-.554.556-.221.084-.66.38-.976.657l-.575.505-7.231.02-7.232.019-.295-.365c-.553-.682-.401-1.733.329-2.278.344-.257.654-.536.69-.621.036-.085.392-.472.792-.86.399-.388.726-.783.726-.876 0-.094.153-.219.34-.278.187-.06.521-.396.744-.748.222-.352.55-.687.729-.744.18-.057.402-.32.494-.586.093-.265.39-.597.661-.737s.541-.444.599-.674c.058-.231.328-.536.602-.677.274-.142.498-.36.498-.485s.319-.557.708-.962c.39-.404 1.084-1.176 1.542-1.715.458-.539 1.096-1.256 1.417-1.593 2.436-2.564 2.951-3.132 3.206-3.536.159-.252.401-.458.538-.458s.399-.295.583-.655c.183-.36.486-.702.672-.761.186-.059.449-.323.585-.586.136-.263.406-.589.601-.725.194-.137.498-.487.676-.778.177-.292.466-.568.642-.614.175-.046.367-.244.425-.441.058-.196.364-.619.68-.94.317-.321 1.294-1.408 2.173-2.417.879-1.008 1.815-2.058 2.08-2.333.265-.275 1.024-1.062 1.688-1.75.663-.687 1.333-1.451 1.49-1.696.157-.245.431-.492.609-.548.178-.057.399-.32.492-.585.093-.266.39-.598.661-.738.275-.142.541-.444.6-.683.06-.235.299-.515.532-.621 1.161-.529 1.239-2.371.135-3.213-.3-.229-.594-.567-.652-.751-.059-.184-.316-.443-.571-.576-.256-.132-.552-.45-.659-.706-.106-.257-.417-.594-.69-.75-.273-.156-.496-.395-.496-.53s-.203-.405-.452-.601c-.248-.195-1.185-1.194-2.082-2.22-.897-1.026-1.931-2.185-2.298-2.576-.368-.39-.668-.82-.668-.954s-.224-.359-.498-.501c-.274-.141-.545-.446-.603-.677-.058-.23-.321-.531-.585-.667-.264-.137-.589-.509-.722-.828-.133-.318-.357-.579-.497-.579s-.384-.206-.543-.458c-.159-.252-.578-.759-.932-1.125-.959-.995-1.263-1.331-3.013-3.334-.881-1.008-1.903-2.145-2.271-2.526-.368-.381-.67-.793-.671-.916 0-.124-.223-.351-.494-.505-.271-.154-.54-.47-.599-.702-.058-.232-.25-.468-.427-.524-.176-.056-.447-.303-.601-.548-.155-.245-.546-.721-.871-1.057-.324-.337-.712-.74-.861-.896-.149-.156-.429-.443-.621-.638-.459-.463-1.389-1.507-2.143-2.404l-.602-.716.337-.451.336-.45 7.315-.046c8.099-.05 8.126-.047 8.911 1.014.446.603 1.279 1.543 2.28 2.57.389.4.708.835.708.965 0 .131.224.354.498.496.274.141.544.446.602.677.058.23.328.534.599.674.271.14.566.465.655.721.089.257.343.548.563.649.22.1.513.399.65.665.137.265.439.607.671.758.232.152.538.501.679.775.142.274.37.499.506.499.137 0 .379.206.538.458.159.252.79.983 1.402 1.625 1.876 1.966 4.304 4.742 4.304 4.921 0 .093.182.253.405.354.223.102.496.404.607.671.111.268.408.593.66.723.252.131.535.458.629.727.094.269.329.54.523.601.193.061.481.387.639.724.431.918 1.632.998 2.094.139.169-.314.484-.651.7-.75.216-.098.509-.402.649-.674.141-.273.408-.544.594-.603.185-.058.447-.32.582-.582.135-.261.472-.636.748-.833.277-.196.503-.467.503-.602 0-.134.262-.399.583-.588.321-.189.584-.426.584-.525 0-.254.682-.953.929-.953.113 0 .281-.22.375-.489.095-.273.398-.607.683-.755.282-.145.512-.356.511-.469 0-.112.26-.466.578-.787.625-.63 1.193-1.241 3.507-3.772 1.676-1.832 1.987-2.159 4.684-4.929 1.044-1.073 1.899-2.028 1.899-2.121 0-.093.224-.285.498-.427.273-.141.608-.471.743-.734.389-.751.484-.762 7.426-.855 3.621-.048 6.865-.105 7.208-.125.439-.026.725.062.959.296m-282.784.027c.928.497.858-1.051.968 21.545.115 23.511.201 25.68 1.069 26.933.251.362.556 1.086.677 1.608.165.711.348 1.05.729 1.347.279.219.507.476.507.571 0 .237 1.751 1.969 1.992 1.969.106 0 .396.211.643.468.256.268.852.591 1.389.753.517.157 1.039.404 1.16.55.331.399.879.557 2.823.814.975.128 2.217.406 2.758.616 1.51.587 12.252.596 13.345.012.47-.251 1.37-.46 2.802-.651 1.817-.243 2.19-.346 2.688-.741.318-.253.877-.51 1.241-.572.442-.075.881-.321 1.315-.738.358-.344.882-.722 1.165-.839.282-.116.513-.28.513-.362 0-.083.299-.475.665-.872.366-.397.818-1.068 1.005-1.49.187-.423.494-.877.682-1.009.266-.186.409-.635.652-2.047.171-.995.483-2.258.695-2.808l.384-1 .083-21.775c.081-21.115.093-21.784.401-22.125.492-.543 11.067-.549 11.611-.006l.345.345-.075 23.03c-.077 23.891-.092 24.404-.772 25.523-.169.279-.422 1.239-.561 2.133-.195 1.253-.349 1.739-.669 2.119-.228.272-.468.815-.534 1.208-.134.806-.436 1.472-.809 1.781-.138.115-.376.582-.527 1.038-.152.456-.427.919-.611 1.029-.185.11-.467.501-.628.869-.16.368-.583.991-.94 1.385-1.117 1.236-2.771 2.862-2.91 2.862-.074 0-.48.3-.903.666-.423.366-.949.711-1.168.766-.219.055-.512.273-.651.485-.146.223-.624.508-1.134.676-.485.159-1.085.46-1.335.667-.25.208-.951.491-1.559.63s-1.267.399-1.463.579c-.45.411-.69.479-2.474.696-.93.113-1.737.324-2.25.588-2.043 1.051-19.826 1.05-21.967-.001-.494-.242-1.41-.484-2.25-.592-1.3-.169-2.049-.424-3.167-1.078-.229-.134-.58-.245-.78-.246-.539-.004-1.248-.307-1.72-.735-.229-.208-.744-.471-1.145-.586-.401-.114-.92-.398-1.153-.631-.233-.233-.669-.526-.968-.651-.3-.125-.662-.396-.806-.601-.144-.206-.505-.488-.803-.628-.298-.14-.613-.418-.701-.618-.088-.2-.335-.444-.55-.541-.214-.098-.516-.399-.671-.669-.155-.271-.45-.568-.654-.661-.205-.094-.481-.429-.613-.746-.133-.316-.402-.661-.599-.767-.197-.105-.494-.505-.659-.888-.166-.384-.462-.841-.658-1.016-.196-.175-.464-.681-.595-1.124-.132-.443-.43-1.055-.664-1.361-.25-.328-.536-1.063-.697-1.793-.151-.68-.367-1.349-.481-1.486-.457-.553-.587-1.061-.829-3.24-.138-1.25-.361-2.484-.494-2.742-.541-1.045-.593-3.173-.593-24.15 0-21.769-.012-21.406.719-21.701.571-.23 10.729-.207 11.164.026m127.837.109c.442.106 1.005.335 1.25.51.246.174 1.031.411 1.746.527.878.141 1.527.358 2 .669.385.253 1.025.555 1.42.672.396.117.846.368 1 .558.155.19.554.471.888.625 1.312.607 4.059 3.51 4.257 4.501.054.27.264.6.466.733.457.299.692.802.842 1.8.064.425.249.942.412 1.149 1.062 1.351 1.148 10.396.115 12.166-.226.388-.502 1.147-.614 1.687-.128.621-.352 1.132-.607 1.388-.223.223-.511.713-.641 1.089s-.359.753-.51.837c-.152.085-.388.425-.526.755l-.252.601.601.482c.33.264.6.589.6.72 0 .132.262.395.583.584.321.189.583.409.583.489 0 .079.331.516.734.971.404.455.784 1.052.844 1.327.061.275.291.618.512.763.264.173.497.592.678 1.221.153.526.452 1.165.665 1.42.213.255.427.705.475 1 .366 2.229.596 3.306.846 3.954.41 1.062.405 5.568-.007 6.666-.27.721-.584 2.202-.821 3.875-.064.446-.28.991-.497 1.25-.211.252-.505.877-.652 1.388-.148.511-.432 1.073-.63 1.25-.199.176-.508.648-.687 1.049-.18.402-.471.766-.65.813-.177.046-.429.337-.558.646-.129.309-.408.641-.62.738-.212.096-.513.397-.668.668-.156.271-.469.564-.697.65-.227.087-.496.313-.598.503-.102.191-.477.463-.834.606-.356.143-.765.437-.908.655-.158.242-.588.494-1.104.647-.464.138-1.07.441-1.346.673-.276.233-.665.453-.865.491-1.604.3-2.157.473-2.7.841-.344.233-.746.425-.893.426-1.076.007-4.924.547-5.602.786-1.027.362-45.594.564-46.8.212-1.412-.412-1.282 3.058-1.283-34.383V29.985l.416-.416.416-.417 24.709.063c17.871.045 24.931.115 25.512.254m57.137.016l.393.319.049 32.723c.051 34.794.067 33.801-.537 34.559l-.397.497-5.245.049-5.246.048-.43-.512c-.649-.77-.626.608-.575-34.442.046-32.042.056-32.866.365-33.209.473-.521 10.982-.551 11.623-.032m-95.232 12.128c-.161.043-.295.241-.299.441-.014.627-.018 11.845-.005 12.211.026.727.477.748 15.385.724 16.618-.027 18.849-.108 20.031-.726.451-.236.943-.43 1.095-.43.572 0 1.848-.546 2.018-.864.097-.182.428-.435.735-.564.318-.133.603-.395.664-.611.246-.868.8-2.127.937-2.127.247 0 .178-2.855-.077-3.154-.293-.344-.776-1.597-.776-2.012 0-.191-.2-.429-.482-.575-.266-.138-.622-.43-.792-.65-.216-.279-.66-.485-1.476-.683-.641-.156-1.429-.447-1.75-.647l-.583-.363-17.167-.024c-9.441-.014-17.298.01-17.458.054m.408 25.691c-.69.098-.733.571-.769 8.446-.019 4.125-.093 7.738-.166 8.029-.224.895-.411.886 17.735.883 18.098-.003 20.372-.081 21.322-.733.327-.225.97-.501 1.428-.614.712-.175 1.032-.407 2.194-1.591l1.359-1.387.122-1.456c.301-3.619-.055-6.886-.841-7.714-.218-.229-.474-.625-.57-.878-.099-.262-.374-.535-.636-.631-.253-.093-.611-.349-.794-.57-.193-.232-.65-.475-1.084-.574-.412-.095-1.425-.328-2.25-.517s-1.8-.416-2.166-.504c-.606-.145-33.921-.325-34.884-.189"/><path fill="#fcac7c" d="M16.004 64.248c.001 35.366.039 64.264.085 64.219.109-.11.107-128.327-.003-128.436-.046-.046-.083 28.851-.082 64.217M399.333.75c0 .639.05.75.334.75.284 0 .333-.111.333-.75s-.049-.75-.333-.75c-.284 0-.334.111-.334.75m-16.084 63.583c0 34.879.019 49.148.043 31.709.023-17.44.023-45.977 0-63.417-.024-17.44-.043-3.171-.043 31.708M399.333 7c0 .222.111.333.334.333.222 0 .333-.111.333-.333 0-.222-.111-.333-.333-.333-.223 0-.334.111-.334.333m0 59.667c0 56.555.001 56.666.334 56.666.332 0 .333-.111.333-56.666 0-56.556-.001-56.667-.333-56.667-.333 0-.334.111-.334 56.667M105.127 29.618c.207.04.507.038.667-.003.159-.042-.011-.075-.377-.073-.367.002-.497.036-.29.076m9.79.003c.183.045.445.167.583.272.217.166.22.152.021-.101-.126-.161-.388-.283-.583-.273-.337.019-.338.024-.021.102m68.875.001c.389.035 1.027.035 1.416 0 .39-.035.071-.064-.708-.064-.779 0-1.098.029-.708.064m61.583-.007c.16.042.423.042.583 0 .161-.042.029-.076-.291-.076-.321 0-.452.034-.292.076m98.292.007c.229.042.529.163.666.269.218.167.221.154.022-.099-.126-.161-.426-.282-.667-.269l-.438.022.417.077m-281.959.307c.273.324.293 1.615.334 20.75l.043 20.404.041-20.432.041-20.433-.375-.317c-.375-.317-.375-.317-.084.028m125.167-.147c.16.041.423.041.583 0 .161-.042.029-.077-.291-.077-.321 0-.452.035-.292.077m101.208-.01c.092.08.467.408.833.728l.667.583-.5-.556c-.275-.305-.65-.633-.833-.728-.183-.095-.258-.107-.167-.027m-237.397.288c-.137.165-.176 5.557-.144 20.125l.043 19.898.041-19.925c.031-15.229.088-19.972.241-20.125.11-.11.156-.2.103-.2-.053 0-.18.102-.284.227m53.558.148c-.044.115-.06 9.471-.037 20.792l.043 20.583.083-20.791c.046-11.436.063-20.792.037-20.792-.026 0-.083.094-.126.208m85.506.132c.55.177 1.112.319 1.25.315.137-.003-.2-.151-.75-.328-.55-.177-1.113-.319-1.25-.316-.138.004.2.152.75.329m-74.045.327c0 .321.035.452.077.291.041-.16.041-.423 0-.583-.042-.16-.077-.029-.077.292m228.286.125l-.574.625.625-.575c.581-.534.701-.675.574-.675-.028 0-.309.281-.625.625m-69.997.283c.281.408.59.79.687.851.097.06-.098-.274-.434-.742-.751-1.045-.958-1.134-.253-.109m-80.198.426c.707.431.939.431.287-.001-.275-.182-.575-.331-.666-.332-.092 0 .079.15.379.333m41.418.416c.002.458.034.626.072.372.039-.253.038-.628-.002-.833-.04-.205-.071.002-.07.461m54.869-.084c.358.367.689.667.735.667.045 0-.21-.3-.568-.667-.358-.366-.688-.666-.734-.666-.046 0 .209.3.567.666m35.238 2.769c-1.597 1.706-2.974 3.223-3.058 3.371-.085.147.326-.255.914-.894.588-.639 1.706-1.837 2.484-2.662 2.481-2.628 2.744-2.917 2.654-2.917-.049 0-1.396 1.396-2.994 3.102m-129.404-2.24c.183.101.449.268.591.37.142.101.082.016-.134-.19-.216-.207-.482-.373-.592-.37-.109.003-.049.088.135.19m80.478 1.355c.722.797 1.349 1.45 1.393 1.45.109 0-2.277-2.642-2.516-2.786-.104-.062.402.539 1.123 1.336M115.747 52.25c0 10.817.02 15.217.045 9.779.024-5.439.024-14.289 0-19.667-.025-5.378-.045-.929-.045 9.888M198 33.542c0 .043.619.631 1.375 1.308s1.271 1.098 1.143.937c-.283-.36-2.518-2.352-2.518-2.245m142.25 1.229c-.3.255-.361.356-.153.253.306-.152.879-.7.715-.685-.034.004-.287.198-.562.432m-61.578 1.521c.496.573.929 1.041.962 1.041.115 0-.936-1.251-1.399-1.666-.255-.229-.059.052.437.625m59.07 1.25l-.659.708.709-.659c.389-.362.708-.681.708-.708 0-.126-.145 0-.758.659M295.667 38c.383.458.735.833.781.833.046 0-.231-.375-.615-.833-.383-.458-.735-.833-.781-.833-.046 0 .231.375.615.833m-93.662.116c-.003.109.164.375.37.591.206.216.292.276.19.135-.102-.142-.268-.409-.37-.592-.102-.183-.187-.244-.19-.134m78.662.401c.229.22.549.55.71.733.232.263.273.273.194.05-.055-.155-.375-.485-.71-.732-.521-.384-.55-.391-.194-.051m55.659.608c-1.972 2.096-2.222 2.375-2.131 2.375.053 0 .751-.713 1.551-1.583.799-.871 1.424-1.584 1.389-1.584-.035 0-.399.357-.809.792m-15.659.458c-.405.413-.699.75-.653.75.046 0 .414-.337.819-.75.405-.412.699-.75.653-.75-.046 0-.414.338-.819.75m-23.682-.111c.09.168.294.412.454.542.18.146.14.03-.105-.306-.438-.598-.602-.709-.349-.236m-14.004 1.611c.191.275.882 1.063 1.536 1.75l1.188 1.25-1.061-1.22c-.583-.671-1.274-1.459-1.535-1.75l-.474-.53.346.5m36.154.042c-.294.342-.514.708-.426.708.034 0 .228-.225.431-.5.402-.543.398-.678-.005-.208m-136.26-.002c.435.034 1.148.034 1.583 0 .436-.035.079-.063-.791-.063-.871 0-1.227.028-.792.063m-32.037.288c-.112.134-.164.341-.117.458.053.133.091.101.099-.083.007-.163.182-.365.388-.447.254-.102.288-.155.104-.162-.149-.006-.362.1-.474.234m147.995.12c.23.225.867.917 1.417 1.539 1.266 1.432 2.562 2.784 2.25 2.347-.131-.184-.514-.634-.851-1-.337-.367-1.048-1.155-1.58-1.75-.533-.596-1.122-1.187-1.31-1.314-.236-.159-.213-.104.074.178m-110.916.233c1.464.619 1.632.643.5.074-.55-.277-1.113-.502-1.25-.5-.138.002.2.193.75.426m15.598-.014c-.005.092.135.617.312 1.167s.32.85.318.666c-.004-.351-.612-2.12-.63-1.833m129.968.542c-.558.597-1.24 1.473-.876 1.125.397-.38 1.597-1.75 1.531-1.75-.039 0-.333.281-.655.625m-15.577.25l-.489.541.541-.489c.505-.456.619-.594.49-.594-.029 0-.273.244-.542.542M190 42.552c0 .029.244.273.542.542l.541.489-.489-.541c-.456-.505-.594-.619-.594-.49m126.973.99c-.244.206-.688.675-.988 1.041l-.545.667.572-.583c.314-.321.796-.788 1.071-1.038.603-.546.516-.615-.11-.087m-112.761 1.125c0 .412.033.581.072.375.04-.207.04-.544 0-.75-.039-.207-.072-.038-.072.375m-53.473 3.5c0 2.246.023 3.164.052 2.041.029-1.123.029-2.96 0-4.083-.029-1.123-.052-.204-.052 2.042m135.511-3.334c.358.367.688.667.734.667.046 0-.209-.3-.567-.667-.358-.366-.689-.666-.735-.666-.045 0 .21.3.568.666m-94.417-.042c0 .104.083.24.183.303.101.062.286.347.411.634.124.287.23.405.233.263.004-.143-.181-.514-.41-.824-.229-.311-.417-.48-.417-.376m122.494 1.554l-.577.512.625-.448c.552-.396.732-.576.577-.576-.026 0-.308.231-.625.512m-121.618.738c.002.367.036.497.076.29.039-.207.038-.507-.004-.667-.042-.159-.074.011-.072.377m111.797.709c.496.573.929 1.041.962 1.041.114 0-.936-1.251-1.4-1.666-.255-.229-.058.052.438.625m24.077-.194l-.5.43.542-.359c.298-.197.542-.391.542-.43 0-.125-.071-.082-.584.359m-16.682 1.36c-.276.252-.649.65-.827.883-.215.282-.162.254.158-.083.265-.279.678-.674.917-.877.239-.203.394-.372.345-.375-.05-.003-.316.2-.593.452m-119.192.292c.002.367.036.497.076.29.039-.208.038-.508-.004-.667-.042-.159-.074.01-.072.377m11.505.333c.002.459.034.626.072.373.039-.253.038-.628-.002-.833-.04-.205-.071.002-.07.46m121.861.792l-.658.708.708-.658c.39-.363.708-.682.708-.709 0-.126-.145 0-.758.659m-34.502.346c.257.337.5.612.541.612.116 0-.605-.975-.819-1.106-.104-.065.021.158.278.494m15.745.251c.09.168.295.412.455.542.18.146.14.03-.106-.306-.438-.598-.602-.709-.349-.236m2.356.436c-.11.132-.513.269-.895.304l-.696.063.683.029c.496.021.765-.062.984-.304.166-.183.262-.333.213-.333-.049 0-.179.108-.289.241m-16.871.717c.273.344.706.813.962 1.042.255.229.059-.052-.437-.625-.996-1.151-1.303-1.394-.525-.417m-89.121.223c-.113.377-.174.715-.137.753.038.037.16-.24.273-.616.113-.376.174-.715.137-.752-.038-.038-.16.239-.273.615m119.395 1.36l-.827.875.875-.827c.481-.455.875-.848.875-.875 0-.124-.154.014-.923.827m-172.4.813c-.012.309.442.749.605.586.059-.059.017-.107-.093-.107s-.268-.169-.35-.375c-.102-.254-.155-.287-.162-.104m52.323.454c0 .078-.224.472-.497.875s-.498.806-.5.894c-.002.089.259-.246.58-.744.555-.861.686-1.167.5-1.167-.046 0-.083.064-.083.142m92.667.358c.195.275.393.5.439.5.046 0-.077-.225-.273-.5-.195-.275-.393-.5-.439-.5-.046 0 .077.225.273.5m-111.872-.046c.299.038.749.037 1-.001.25-.038.005-.069-.545-.068-.55.001-.755.032-.455.069m113.038 1.338c.218.298.422.542.454.542.127 0-.286-.625-.56-.847-.18-.147-.14-.03.106.305m22.576 1.083l-.659.709.708-.659c.39-.363.709-.681.709-.708 0-.127-.145 0-.758.658m-118.157.29c-.263.274-.446.525-.407.558.04.032.285-.192.546-.499.59-.692.503-.729-.139-.059m116.915 1.022c-.581.51-.581.51-.047.155.295-.197.581-.429.635-.516.161-.26.027-.178-.588.361m-1.073 1.272c-.36.46-.389.537-.109.293.334-.292.775-.918.646-.918-.026 0-.268.281-.537.625m-115.927.291c.311.321.603.584.648.584.046 0-.171-.263-.482-.584-.311-.321-.603-.583-.648-.583-.046 0 .171.262.482.583m98.973.914c-.215.274-.567.742-.783 1.042l-.392.544.476-.534c.647-.726 1.269-1.549 1.17-1.549-.045 0-.257.224-.471.497m16.775.004c.791.923.802.933.621.582-.095-.183-.385-.52-.646-.749l-.473-.416.498.583M203.667 63.5c.29.367.565.667.611.667.046 0-.154-.3-.445-.667-.29-.367-.565-.667-.611-.667-.046 0 .154.3.445.667m93.993.845l-.577.512.625-.448c.553-.396.732-.576.577-.576-.026 0-.307.231-.625.512m23.697 2.187c.675.751 1.628 1.782 2.118 2.292.491.509-.024-.105-1.143-1.366-1.12-1.26-2.073-2.291-2.118-2.291-.046 0 .469.614 1.143 1.365m-26.115.51l-.659.708.709-.659c.389-.362.708-.681.708-.708 0-.126-.145 0-.758.659m-111.367-.086c.527.034 1.39.034 1.917 0 .527-.033.095-.06-.959-.06s-1.485.027-.958.06m-33.034.285c-.11.132-.167.414-.126.625.066.346.075.34.096-.066.012-.248.154-.527.314-.62.16-.093.207-.172.104-.175-.104-.003-.278.103-.388.236m36.867-.126c.161.042.423.042.584 0 .16-.042.029-.076-.292-.076s-.452.034-.292.076m1.619.306c.409.127.769.206.8.174.085-.085-.97-.43-1.277-.417-.147.006.068.115.477.243m16.679.329c.001.092.155.354.342.583.227.277.283.305.169.084-.281-.544-.512-.845-.511-.667m86.48 2.335c-1.122 1.238-2.152 2.419-2.289 2.625-.324.487-.085.252.909-.894.446-.514 1.438-1.621 2.204-2.459.766-.838 1.353-1.524 1.305-1.524-.049 0-1.006 1.013-2.129 2.252m-99.069-.798c.458.457 1.077 1.151 1.375 1.54.298.39.541.638.541.55 0-.087-.157-.301-.35-.476-.193-.174-.451-.51-.573-.747-.122-.236-.583-.715-1.024-1.064l-.803-.635.834.832m-42.674 7.13c0 3.666.022 5.143.049 3.28.026-1.862.026-4.862-.001-6.666-.026-1.805-.048-.281-.048 3.386m174.255-5.834c.837.971 1.835 1.991 1.835 1.874 0-.044-.574-.671-1.276-1.394-.702-.722-.954-.938-.559-.48m-17.264-.041c-.178.206-.496.637-.707.958l-.385.583.388-.446c.212-.245.521-.639.686-.875.336-.481 1.51-.613 1.951-.22.199.177.201.164.013-.084-.338-.446-1.533-.395-1.946.084m-257.055.805c.007.405.076 1.074.153 1.486.103.545.116.363.05-.666-.098-1.522-.223-2.027-.203-.82m259.285-.262c.095.185.347.484.562.666.377.318.376.312-.024-.169-.663-.799-.719-.851-.538-.497m-247.774.832c-.005.275.093.95.217 1.5.291 1.29.3.686.012-.834-.121-.641-.224-.941-.229-.666m41.855 1.25c0 .412.033.581.073.375.039-.207.039-.544 0-.75-.04-.207-.073-.038-.073.375M207.372 73c0 .321.034.452.076.292.042-.161.042-.423 0-.584-.042-.16-.076-.029-.076.292m-91.822.5c0 .504.031.71.069.458.039-.252.039-.664 0-.916-.038-.252-.069-.046-.069.458m-64.511.667c0 .32.034.452.076.291.042-.16.042-.423 0-.583-.042-.16-.076-.029-.076.292m156.527 1.75c0 1.283.026 1.786.058 1.117.032-.668.031-1.718-.001-2.333-.032-.615-.058-.068-.057 1.216m-103.738-1.125c-.003.252-.148.87-.321 1.373-.375 1.086-.333 1.309.061.325.3-.751.542-2.157.371-2.157-.058 0-.108.207-.111.459m184.473-.167c-.293.342-.514.708-.426.708.034 0 .229-.225.432-.5.402-.543.398-.678-.006-.208m-173.269 1.981c-.211.97-.354 1.794-.318 1.83.095.095.831-3.22.761-3.425-.032-.093-.231.624-.443 1.595m81.016-1.023c.001.459.033.626.072.373.038-.253.037-.628-.003-.833-.039-.205-.071.002-.069.46M51.205 75.5c0 .321.035.452.077.292.041-.161.041-.423 0-.584-.042-.16-.077-.029-.077.292m252.056.125c-.36.46-.389.538-.11.294.335-.292.775-.919.647-.919-.027 0-.268.281-.537.625m11.53.792c.19.275.594.725.897 1 .408.369.362.282-.177-.334-.984-1.124-1.128-1.257-.72-.666m-118.764.833c-.017.367-.07.854-.117 1.083l-.086.417.179-.411c.099-.226.151-.713.117-1.083l-.062-.673-.031.667m135.409.5c.526.596 1.007 1.083 1.069 1.083.061 0-.338-.487-.888-1.083-.549-.596-1.03-1.083-1.069-1.083-.038 0 .361.487.888 1.083m-31.269 1.193c-1.447 1.639-2.49 2.912-1.89 2.307.427-.431 2.917-3.244 3.208-3.625.555-.727-.021-.151-1.318 1.318m16.5-.36c.311.321.603.584.648.584.046 0-.171-.263-.482-.584-.311-.321-.603-.583-.648-.583-.046 0 .171.262.482.583m-109.292.334c.002.366.036.497.076.289.04-.207.039-.507-.003-.666-.042-.16-.074.01-.073.377M51.677 79c.003.285.806 2.173.816 1.917.003-.092-.18-.617-.406-1.167-.227-.55-.411-.888-.41-.75m266.012.75c.241.275.721.8 1.065 1.167l.627.666-.508-.666c-.28-.367-.759-.892-1.066-1.167l-.557-.5.439.5m16.793 1.375c.769.848 1.433 1.542 1.476 1.542.106 0-2.212-2.564-2.579-2.852-.162-.128.335.462 1.103 1.31m-233.035-.034c-.392.821-.337.961.072.185.186-.352.309-.67.273-.706-.036-.036-.192.198-.345.521m180.282.859c-.722.797-1.228 1.398-1.124 1.335.239-.144 2.625-2.785 2.516-2.785-.044 0-.671.652-1.392 1.45M114.18 80.836c-.007.139-.168.54-.357.893-.188.352-.314.669-.279.704.122.121.815-1.438.732-1.644-.055-.136-.087-.12-.096.047m-48.716 1.081c.097.183.498.633.892 1 .707.658.481.373-.992-1.25-.042-.046.003.066.1.25m254.119-.014c.184.151.474.44.646.644l.312.37-.241-.405c-.133-.222-.423-.512-.646-.643-.385-.228-.389-.226-.071.034m-126.083.798c-.504.47-.767.773-.583.673.32-.174 1.73-1.547 1.575-1.534-.041.003-.488.391-.992.861m102.742.674l-.659.708.709-.658c.389-.363.708-.682.708-.709 0-.126-.145 0-.758.659m-243.406-.442c.002.083.227.48.5.884.274.403.496.666.494.583-.001-.082-.226-.48-.5-.883-.273-.404-.495-.666-.494-.584m46.664.342c-.321.227-.771.585-1 .796-.229.212-.567.467-.75.568-.183.101-.244.186-.135.189.109.003.539-.276.956-.62.417-.343.966-.791 1.219-.994.613-.491.439-.455-.29.061m106.742.574c-.147.283-.237.545-.201.581.036.036.191-.196.343-.515.343-.719.224-.774-.142-.066M67.25 83.607c.849.753 1.161.973.834.586-.182-.215-.481-.468-.665-.562-.185-.095-.261-.105-.169-.024m212.409.685c-1.655 1.758-2.056 2.208-1.966 2.208.051 0 .711-.675 1.465-1.5.754-.825 1.343-1.5 1.308-1.5-.034 0-.397.356-.807.792m-88.576-.204c-.366.226-.591.408-.5.406.092-.002.467-.189.834-.415.366-.226.591-.409.5-.406-.092.002-.467.189-.834.415m145.922-.171c.312.428 1.495 1.61 1.495 1.494 0-.048-.391-.479-.869-.958-.478-.478-.76-.72-.626-.536m-186.08 1.097c.271.438 1.918.483 16.992.463 8.616-.011 16.229-.067 16.916-.124.688-.057-6.367-.08-15.677-.051-14.379.044-17.031.015-17.622-.188-.382-.132-.656-.177-.609-.1m35.617.101c.16.042.423.042.583 0 .16-.042.029-.076-.292-.076s-.452.034-.291.076m-116.209.37c.23.188.492.341.584.342.178.001-.123-.229-.667-.51-.221-.115-.193-.058.083.168m25.584.026c-.275.176-.415.321-.31.321.104.001.366-.146.583-.326.495-.413.376-.411-.273.005m198 .368c-.622.639-.63.66-.125.308.298-.207.619-.522.714-.699.233-.435.182-.401-.589.391m-239.912-.423c-.003.113.201.416.453.674.252.258.338.316.19.128-.148-.188-.352-.491-.454-.675-.101-.183-.186-.24-.189-.127m151.13 1.002c-.294.342-.514.709-.426.709.034 0 .228-.225.431-.5.402-.544.398-.679-.005-.209M74 86.674c.504.168 1.067.305 1.25.304.183-.001-.154-.144-.75-.317-1.373-.4-1.711-.392-.5.013m18.644-.262c-.043.043-.487.188-.986.322-.5.134-.758.248-.575.253.184.004.784-.137 1.334-.314s.843-.326.652-.331c-.191-.005-.382.027-.425.07m247.439.921c.358.367.689.667.735.667.045 0-.21-.3-.568-.667-.358-.366-.688-.666-.734-.666-.046 0 .209.3.567.666m-228.998.165c-.263.274-.445.525-.406.558.039.032.285-.192.546-.499.589-.692.502-.729-.14-.059m-33.791-.213c.207.039.507.038.666-.004.16-.042-.01-.074-.377-.072-.366.002-.497.036-.289.076m11.5 0c.207.039.507.038.666-.004.16-.042-.01-.074-.377-.072-.366.002-.497.036-.289.076m-8.746.172c.53.033 1.355.033 1.833-.001s.044-.061-.964-.06c-1.009 0-1.4.028-.869.061m4.327-.001c.527.034 1.39.034 1.917 0 .527-.033.096-.06-.959-.06-1.054 0-1.485.027-.958.06m-28.365 1.14c.316.374.607.653.648.62.042-.033-.216-.339-.573-.68l-.647-.619.572.679m235.312.196c-.954 1.03-1.385 1.541-1.297 1.541.045 0 .513-.487 1.039-1.083 1.03-1.165 1.21-1.486.258-.458m38.029 4.083c2.657 2.999 3.516 3.928 2.967 3.208-.474-.622-5.499-6.25-5.581-6.25-.044 0 1.132 1.369 2.614 3.042M57.637 90.458c.18.252.5.609.71.792.211.183.091-.023-.267-.458-.716-.872-.954-1.051-.443-.334m50.196.918c-.779.75-1.191 1.203-.916 1.006.496-.354 2.561-2.388 2.411-2.375-.043.003-.716.619-1.495 1.369m93.766-.503c-.615.642-.546.722.125.145.265-.228.709-.877.574-.837-.027.007-.341.319-.699.692m71.723.419c-.954 1.03-1.385 1.541-1.297 1.541.045 0 .513-.487 1.039-1.083 1.03-1.165 1.21-1.486.258-.458m15.679.011c-.415.437-.467.538-.179.351.344-.223 1.007-1.01.823-.976-.034.006-.324.288-.644.625m55.34.682c.213.313 1.067 1.277 1.898 2.143 2.039 2.124 2.012 2.531-.182 2.721l-1.14.099 1.279.026c2.225.045 2.38-.601.59-2.462-.667-.694-1.578-1.675-2.023-2.179-.445-.504-.635-.66-.422-.348m-284.868.299c.214.165.664.533 1 .819.336.286.91.68 1.277.875.367.196.854.478 1.083.626l.417.27-.417-.359c-.229-.198-.716-.515-1.083-.705-.367-.19-.892-.549-1.167-.798s-.725-.581-1-.739c-.486-.28-.489-.279-.11.011m228.269.424l-.659.709.709-.659c.658-.613.785-.758.658-.758-.027 0-.345.319-.708.708m-88.159-.264c-.275.145-.65.395-.833.556-.183.161-.558.411-.833.556-.275.145-.418.267-.317.271.101.003.439-.178.75-.404.312-.225.848-.564 1.192-.753.343-.189.625-.379.625-.423 0-.109-.013-.104-.584.197m-94 .834c-.366.329-.516.52-.333.425.309-.16 1.229-1.045 1.071-1.029-.039.003-.371.276-.738.604m165.334.601c-.622.639-.63.66-.125.308.298-.207.619-.522.714-.699.233-.435.182-.401-.589.391m15.401.413c-.415.435-.858.941-.985 1.125-.127.183.052.033.398-.334.347-.366.826-.873 1.064-1.125.239-.252.398-.458.355-.458-.044 0-.418.356-.832.792m-90.151.056c-.277.227-.305.283-.084.169.544-.281.845-.512.667-.511-.092.001-.354.155-.583.342m-57.125.902c.002.367.036.497.076.29.04-.208.038-.508-.003-.667-.042-.159-.075.01-.073.377m130.541-.013c-.366.311-.629.592-.583.625.046.033.383-.222.75-.567.83-.78.727-.816-.167-.058m-34.378.096c0 .321.035.452.077.292.041-.16.041-.423 0-.583-.042-.161-.077-.029-.077.291m-171.024-.112c.283.222 1.319.79 1.319.723 0-.108-1.081-.777-1.256-.777-.073 0-.102.024-.063.054m37.069.533c-.367.226-.601.411-.52.412.171.001 1.27-.659 1.27-.763 0-.106-.033-.09-.75.351m91.209-.157c-.054.053-.46.203-.903.332-.752.218-.762.228-.143.138.631-.092 1.704-.546 1.323-.56-.099-.004-.224.037-.277.09m76.721.82c-.015.63.17.692 1.737.578l1.5-.109-1.464-.026c-1.35-.025-1.475-.056-1.614-.402-.138-.343-.152-.346-.159-.041m-129.774.065c.154.249 1.51.544 2.185.475l.659-.068-.771-.028c-.424-.015-1.083-.138-1.465-.273-.382-.134-.656-.182-.608-.106m49.136-.034c.16.042.423.042.583 0 .16-.042.029-.076-.292-.076s-.452.034-.291.076m57.866.038c-.087.084-.345.186-.575.227l-.416.075.438.023c.24.012.531-.09.645-.228.227-.273.162-.342-.092-.097m-178.333.429c.545.225 1.016.383 1.046.353.081-.081-1.558-.769-1.819-.764-.12.002.227.187.773.411m118.552-.297c.207.04.507.038.667-.003.159-.042-.011-.075-.377-.073-.367.002-.497.036-.29.076m-88.71.385c-.372.183-.483.282-.25.225.487-.12 1.327-.547 1.083-.55-.092-.002-.467.145-.833.325m85.714-.213c.484.034 1.234.033 1.666-.001.433-.034.036-.062-.88-.061-.917 0-1.271.028-.786.062m91.827-.006c.207.04.544.04.75 0 .207-.039.038-.072-.375-.072-.412 0-.581.033-.375.072m58.189.097c.073.073.876.11 1.784.083l1.652-.049-1.784-.083c-.981-.045-1.724-.023-1.652.049m-181.522.077c4.24.025 11.177.025 15.417 0 4.239-.024.771-.045-7.709-.045-8.479 0-11.948.021-7.708.045m25.425 0c.806.03 2.081.03 2.833-.001.752-.031.092-.056-1.466-.055-1.559 0-2.174.025-1.367.056m59.411-.004c.3.037.75.036 1-.002.251-.038.006-.068-.544-.067-.55.001-.755.032-.456.069m3.999-.003c.208.04.508.039.667-.003.159-.042-.01-.074-.377-.073-.367.002-.497.036-.29.076m2.332.004c.389.035 1.027.035 1.416 0 .39-.035.071-.063-.708-.063-.779 0-1.098.028-.708.063m35.835-.004c.207.04.507.039.667-.003.159-.042-.011-.074-.377-.073-.367.002-.497.036-.29.076m2.668.003c.299.037.749.036 1-.002.25-.038.005-.068-.545-.067-.55.001-.755.032-.455.069m60.997-.003c.206.04.543.04.75 0 .206-.04.037-.072-.375-.072-.413 0-.582.032-.375.072M73.75 98.339c.642.165 1.354.3 1.583.299.23-.001-.183-.142-.916-.315-1.692-.397-2.221-.384-.667.016m18.667-.093c-.49.126-.662.217-.417.221.229.004.717-.091 1.083-.212.856-.282.419-.288-.666-.009m-16.042.54c.252.038.665.038.917 0s.045-.069-.459-.069-.71.031-.458.069m13.085-.001c.208.039.508.038.667-.004.159-.042-.01-.074-.377-.072-.367.002-.497.036-.29.076m-10.164.171c.392.035.992.034 1.333-.002.342-.035.021-.064-.712-.064-.734.001-1.013.03-.621.066m6.162 0c.482.034 1.269.034 1.75 0 .482-.033.088-.061-.875-.061-.962 0-1.356.028-.875.061m313.875 28.877c0 .556.056.667.334.667.277 0 .333-.111.333-.667 0-.555-.056-.666-.333-.666-.278 0-.334.111-.334.666"/><path fill="#fcc098" d="M16.171 64.25c.001 63.972.002 64.25.332 64.25.329 0 .33-.277.33-64.25C16.833.237 16.832 0 16.502 0s-.331.236-.331 64.25m366.662 0c0 51.289.042 64.25.209 64.25.166 0 .208-12.961.208-64.25S383.208 0 383.042 0c-.167 0-.209 12.961-.209 64.25M336.5 29.162c-6.942.093-7.037.104-7.426.855-.135.263-.47.593-.743.734-.274.142-.498.334-.498.427 0 .093-.855 1.048-1.899 2.121-2.697 2.77-3.008 3.097-4.684 4.929-2.314 2.531-2.882 3.142-3.507 3.772-.318.321-.578.675-.578.787.001.113-.229.324-.511.469-.285.148-.588.482-.683.755-.094.269-.262.489-.375.489-.247 0-.929.699-.929.953 0 .099-.263.336-.584.525-.321.189-.583.454-.583.588 0 .135-.226.406-.503.602-.276.197-.613.572-.748.833-.135.262-.397.524-.582.582-.186.059-.453.33-.594.603-.14.272-.433.576-.649.674-.216.099-.531.436-.7.75-.462.859-1.663.779-2.094-.139-.158-.337-.446-.663-.639-.724-.194-.061-.429-.332-.523-.601-.094-.269-.377-.596-.629-.727-.252-.13-.549-.455-.66-.723-.111-.267-.384-.569-.607-.671-.223-.101-.405-.261-.405-.354 0-.179-2.428-2.955-4.304-4.921-.612-.642-1.243-1.373-1.402-1.625-.159-.252-.401-.458-.538-.458-.136 0-.364-.225-.506-.499-.141-.274-.447-.623-.679-.775-.232-.151-.534-.493-.671-.758-.137-.266-.43-.565-.65-.665-.22-.101-.474-.392-.563-.649-.089-.256-.384-.581-.655-.721s-.541-.444-.599-.674c-.058-.231-.328-.536-.602-.677-.274-.142-.498-.365-.498-.496 0-.13-.319-.565-.708-.965-1.001-1.027-1.834-1.967-2.28-2.57-.785-1.061-.812-1.064-8.911-1.014l-7.315.046-.336.45-.337.451.602.716c.754.897 1.684 1.941 2.143 2.404.192.195.472.482.621.638.149.156.537.559.861.896.325.336.716.812.871 1.057.154.245.425.492.601.548.177.056.369.292.427.524.059.232.328.548.599.702.271.154.494.381.494.505.001.123.303.535.671.916.368.381 1.39 1.518 2.271 2.526 1.75 2.003 2.054 2.339 3.013 3.334.354.366.773.873.932 1.125.159.252.403.458.543.458s.364.261.497.579c.133.319.458.691.722.828.264.136.527.437.585.667.058.231.329.536.603.677.274.142.498.367.498.501s.3.564.668.954c.367.391 1.401 1.55 2.298 2.576s1.834 2.025 2.082 2.22c.249.196.452.466.452.601 0 .135.223.374.496.53.273.156.584.493.69.75.107.256.403.574.659.706.255.133.512.392.571.576.058.184.352.522.652.751 1.104.842 1.026 2.684-.135 3.213-.233.106-.472.386-.532.621-.059.239-.325.541-.6.683-.271.14-.568.472-.661.738-.093.265-.314.528-.492.585-.178.056-.452.303-.609.548-.157.245-.827 1.009-1.49 1.696-.664.688-1.423 1.475-1.688 1.75-.265.275-1.201 1.325-2.08 2.333-.879 1.009-1.856 2.096-2.173 2.417-.316.321-.622.744-.68.94-.058.197-.25.395-.425.441-.176.046-.465.322-.642.614-.178.291-.482.641-.676.778-.195.136-.465.462-.601.725-.136.263-.399.527-.585.586-.186.059-.489.401-.672.761-.184.36-.446.655-.583.655-.137 0-.379.206-.538.458-.255.404-.77.972-3.206 3.536-.321.337-.959 1.054-1.417 1.593-.458.539-1.152 1.311-1.542 1.715-.389.405-.708.837-.708.962s-.224.343-.498.485c-.274.141-.544.446-.602.677-.058.23-.328.534-.599.674-.271.14-.568.472-.661.737-.092.266-.314.529-.494.586-.179.057-.507.392-.729.744-.223.352-.557.688-.744.748-.187.059-.34.184-.34.278 0 .093-.327.488-.726.876-.4.388-.756.775-.792.86-.036.085-.346.364-.69.621-.73.545-.882 1.596-.329 2.278l.295.365 7.232-.019 7.231-.02.575-.505c.316-.277.755-.573.976-.657.22-.084.47-.334.554-.556.084-.221.297-.504.472-.628.475-.336 5.036-5.424 5.036-5.618 0-.092.226-.328.502-.525.277-.197.613-.572.748-.833s.39-.521.565-.576c.176-.056.44-.357.588-.668.148-.312.422-.616.609-.675.187-.06.462-.363.611-.676.148-.312.409-.611.578-.665.169-.053.436-.298.593-.543.156-.245.811-.99 1.453-1.656 1.448-1.498 1.603-1.668 3.708-4.037.937-1.056 1.969-2.182 2.293-2.503.323-.321.587-.668.586-.772 0-.103.261-.388.582-.633.321-.245.584-.541.584-.659 0-.117.3-.454.666-.749.367-.295.667-.642.667-.773 0-.13.199-.341.443-.469.244-.127.563-.486.709-.797.405-.859 1.532-.92 2.011-.108.181.307.556.727.833.931.277.205.504.485.504.623s.255.401.567.585c.312.184.614.522.671.75.058.229.295.503.528.609.232.106.526.441.653.744s.413.634.637.736c.224.102.493.373.597.603.105.229.483.727.84 1.106.357.38 1.049 1.142 1.537 1.695 1.044 1.182 1.473 1.649 2.428 2.644.39.406.709.818.709.915 0 .098.214.288.476.424.262.135.564.456.67.712.107.257.417.594.69.751.274.156.497.396.497.533s.262.449.583.694c.321.245.583.53.582.633 0 .104.264.452.587.772.324.321.929.996 1.345 1.5 1.206 1.461 2.231 2.6 3.528 3.924.665.679 1.208 1.308 1.208 1.4 0 .091.227.334.504.539.277.204.649.619.828.921.178.302.436.55.574.55.137 0 .506.225.819.5l.569.5h14.521l.259-.371c.66-.942.414-1.473-1.66-3.589-1.055-1.076-2.184-2.257-2.508-2.624-.324-.366-.745-.826-.935-1.02-.19-.195-.468-.482-.616-.639-.149-.156-.54-.559-.868-.896-.328-.336-.646-.745-.706-.909-.059-.164-.331-.426-.603-.582-.272-.156-.539-.458-.592-.672-.054-.213-.319-.514-.591-.668-.271-.154-.493-.381-.494-.504 0-.123-.303-.536-.672-.917-.369-.381-1.326-1.439-2.125-2.351-1.314-1.499-2.262-2.538-3.079-3.376-.16-.164-.423-.435-.583-.602-.16-.167-.553-.572-.872-.901-.32-.328-.659-.753-.754-.943-.095-.191-.351-.436-.57-.545-.219-.109-.495-.429-.614-.711-.118-.283-.396-.596-.617-.696-.221-.101-.52-.432-.665-.736-.145-.304-.414-.601-.598-.659-.184-.059-.382-.256-.44-.438-.058-.182-.38-.613-.717-.958-.336-.344-.986-1.067-1.445-1.606-1.041-1.225-1.836-2.089-3.375-3.664-.664-.68-1.208-1.314-1.208-1.408 0-.095-.232-.343-.516-.552-.284-.209-.623-.585-.753-.836-.13-.25-.46-.571-.734-.712-.273-.142-.497-.358-.497-.48 0-.123-.155-.421-.345-.663-.314-.399-.322-.463-.084-.701.144-.144.308-.446.365-.672.057-.226.317-.522.579-.657.261-.135.564-.413.673-.616.11-.204.731-.912 1.38-1.574 1.911-1.944 3.802-4.005 5.922-6.454.682-.787 1.299-1.432 1.371-1.432.073 0 .28-.29.461-.645.181-.355.484-.685.672-.735.189-.049.443-.327.565-.618.122-.29.401-.617.62-.727.219-.109.475-.354.57-.544.095-.19.434-.615.754-.944.319-.328.712-.734.872-.9.16-.167.403-.416.54-.553.136-.138.83-.879 1.541-1.647.712-.768 1.594-1.712 1.961-2.097.366-.385.956-1.031 1.309-1.436.87-.996 2.318-2.601 3.026-3.355.32-.339.582-.714.582-.833.001-.119.227-.344.502-.5.275-.157.57-.47.656-.695.086-.226.361-.51.612-.632s.574-.425.718-.674c.144-.249.468-.611.72-.804.939-.72.382-2.029-.834-1.957-.343.02-3.587.077-7.208.125m-285.781.172c-.731.295-.719-.068-.719 21.701 0 20.977.052 23.105.593 24.15.133.258.356 1.492.494 2.742.242 2.179.372 2.687.829 3.24.114.137.33.806.481 1.486.161.73.447 1.465.697 1.793.234.306.532.918.664 1.361.131.443.399.949.595 1.124.196.175.492.632.658 1.016.165.383.462.783.659.888.197.106.466.451.599.767.132.317.408.652.613.746.204.093.499.39.654.661.155.27.457.571.671.669.215.097.462.341.55.541.088.2.403.478.701.618.298.14.659.422.803.628.144.205.506.476.806.601.299.125.735.418.968.651.233.233.752.517 1.153.631.401.115.916.378 1.145.586.472.428 1.181.731 1.72.735.2.001.551.112.78.246 1.118.654 1.867.909 3.167 1.078.84.108 1.756.35 2.25.592 2.141 1.051 19.924 1.052 21.967.001.513-.264 1.32-.475 2.25-.588 1.784-.217 2.024-.285 2.474-.696.196-.18.855-.44 1.463-.579.608-.139 1.309-.422 1.559-.63.25-.207.85-.508 1.335-.667.51-.168.988-.453 1.134-.676.139-.212.432-.43.651-.485.219-.055.745-.4 1.168-.766.423-.366.829-.666.903-.666.139 0 1.793-1.626 2.91-2.862.357-.394.78-1.017.94-1.385.161-.368.443-.759.628-.869.184-.11.459-.573.611-1.029.151-.456.389-.923.527-1.038.373-.309.675-.975.809-1.781.066-.393.306-.936.534-1.208.32-.38.474-.866.669-2.119.139-.894.392-1.854.561-2.133.68-1.119.695-1.632.772-25.523l.075-23.03-.345-.345c-.544-.543-11.119-.537-11.611.006-.308.341-.32 1.01-.401 22.125l-.083 21.775-.384 1c-.212.55-.524 1.813-.695 2.808-.243 1.412-.386 1.861-.652 2.047-.188.132-.495.586-.682 1.009-.187.422-.639 1.093-1.005 1.49-.366.397-.665.789-.665.872 0 .082-.231.246-.513.362-.283.117-.807.495-1.165.839-.434.417-.873.663-1.315.738-.364.062-.923.319-1.241.572-.498.395-.871.498-2.688.741-1.432.191-2.332.4-2.802.651-1.093.584-11.835.575-13.345-.012-.541-.21-1.783-.488-2.758-.616-1.944-.257-2.492-.415-2.823-.814-.121-.146-.643-.393-1.16-.55-.537-.162-1.133-.485-1.389-.753-.247-.257-.537-.468-.643-.468-.241 0-1.992-1.732-1.992-1.969 0-.095-.228-.352-.507-.571-.381-.297-.564-.636-.729-1.347-.121-.522-.426-1.246-.677-1.608-.868-1.253-.954-3.422-1.069-26.933-.11-22.596-.04-21.048-.968-21.545-.435-.233-10.593-.256-11.164-.026m88.364.235l-.416.416v33.132c.001 37.441-.129 33.971 1.283 34.383 1.206.352 45.773.15 46.8-.212.678-.239 4.526-.779 5.602-.786.147-.001.549-.193.893-.426.543-.368 1.096-.541 2.7-.841.2-.038.589-.258.865-.491.276-.232.882-.535 1.346-.673.516-.153.946-.405 1.104-.647.143-.218.552-.512.908-.655.357-.143.732-.415.834-.606.102-.19.371-.416.598-.503.228-.086.541-.379.697-.65.155-.271.456-.572.668-.668.212-.097.491-.429.62-.738s.381-.6.558-.646c.179-.047.47-.411.65-.813.179-.401.488-.873.687-1.049.198-.177.482-.739.63-1.25.147-.511.441-1.136.652-1.388.217-.259.433-.804.497-1.25.237-1.673.551-3.154.821-3.875.412-1.098.417-5.604.007-6.666-.25-.648-.48-1.725-.846-3.954-.048-.295-.262-.745-.475-1-.213-.255-.512-.894-.665-1.42-.181-.629-.414-1.048-.678-1.221-.221-.145-.451-.488-.512-.763-.06-.275-.44-.872-.844-1.327-.403-.455-.734-.892-.734-.971 0-.08-.262-.3-.583-.489-.321-.189-.583-.452-.583-.584 0-.131-.27-.456-.6-.72l-.601-.482.252-.601c.138-.33.374-.67.526-.755.151-.084.38-.461.51-.837.13-.376.418-.866.641-1.089.255-.256.479-.767.607-1.388.112-.54.388-1.299.614-1.687 1.033-1.77.947-10.815-.115-12.166-.163-.207-.348-.724-.412-1.149-.15-.998-.385-1.501-.842-1.8-.202-.133-.412-.463-.466-.733-.198-.991-2.945-3.894-4.257-4.501-.334-.154-.733-.435-.888-.625-.154-.19-.604-.441-1-.558-.395-.117-1.035-.419-1.42-.672-.473-.311-1.122-.528-2-.669-.715-.116-1.5-.353-1.746-.527-.978-.696-1.081-.699-26.762-.764l-24.709-.063-.416.417m96.151-.052c-.309.343-.319 1.167-.365 33.209-.051 35.05-.074 33.672.575 34.442l.43.512 5.246-.048 5.245-.049.397-.497c.604-.758.588.235.537-34.559l-.049-32.723-.393-.319c-.641-.519-11.15-.489-11.623.032m-173.506.328l.439.346V71.044l.424 2.686c.612 3.87.685 4.173 1.24 5.158.276.489.502 1.004.502 1.144 0 1.019 3.074 3.87 5.472 5.075 4.407 2.215 16.292 3.116 21.702 1.645.5-.136 1.551-.395 2.335-.576 1.55-.357 3.87-1.425 4.874-2.244 1.206-.981 2.486-2.349 2.824-3.014.186-.367.508-.87.714-1.117.206-.246.465-.846.576-1.333.111-.487.377-1.41.592-2.051.702-2.096.745-3.542.745-25.403 0-20.686.001-20.786.339-21.149.539-.578 10.663-.573 11.068.005.231.331.259 2.571.259 20.709-.001 21.904-.052 23.575-.825 26.921-.264 1.146-.531 2.421-.592 2.833-.061.413-.282 1.088-.491 1.5-.209.413-.51 1.197-.668 1.744-.158.547-.461 1.2-.673 1.453-.213.253-.511.831-.661 1.285-.151.454-.393.924-.538 1.045-.145.12-.453.52-.685.888-1.037 1.649-4.441 4.937-5.867 5.667-.32.164-.787.469-1.037.677-.25.209-.737.471-1.083.583-.347.113-.843.354-1.103.537-.261.183-.936.476-1.5.65-.565.175-1.477.497-2.027.714-.55.218-1.825.552-2.833.743-1.008.19-2.321.457-2.917.593-3.831.872-14.963.784-18.963-.151-.983-.229-2.273-.501-2.868-.604-.594-.102-1.494-.359-2-.571-.505-.212-1.294-.499-1.752-.638-.792-.241-3.277-1.46-4.933-2.42-2.005-1.163-5.957-5.165-6.623-6.708-.174-.405-.475-.877-.667-1.049-.192-.172-.462-.704-.601-1.182-.14-.478-.412-1.072-.606-1.318-.194-.247-.527-1.103-.739-1.902-.212-.799-.536-1.902-.721-2.452-.185-.55-.547-2.613-.806-4.584l-.471-3.583V30.083l.584-.291c.967-.483 9.936-.438 10.561.053m126.772.023c2.913.703 5.118 1.344 5.576 1.619.279.168.895.431 1.37.585.474.154.956.394 1.072.533.116.14.553.429.972.642 1.202.614 3.867 3.325 4.514 4.594.205.403.514.923.686 1.155.281.381.529 1.154 1.411 4.413.454 1.674.257 7.409-.314 9.174-.238.734-.482 1.61-.543 1.948-.061.339-.366 1.011-.677 1.495-.312.484-.567.969-.567 1.078 0 .109-.253.501-.563.872-1.139 1.363-1.016 1.795 1.128 3.966.708.717 1.653 2.003 2.061 2.808.186.367.492.806.68.976.188.17.39.545.45.833.059.288.359 1.049.667 1.691 1.515 3.16 1.594 12.089.135 15.25-.233.504-.527 1.254-.654 1.667-.126.412-.494 1.119-.817 1.571-.323.451-.587.919-.587 1.039 0 .245-.739 1.089-2.333 2.666-1.559 1.541-1.681 1.646-2.417 2.07-.367.211-.871.551-1.121.755-.25.203-.737.463-1.083.576-.346.113-1.004.41-1.463.66-.458.25-1.35.58-1.981.733-.632.153-1.347.381-1.591.507-.559.289-1.794.51-4.844.866-3.085.36-46.204.544-47.467.203-1.205-.326-1.121 2.332-1.072-33.947l.044-32.884.539-.238c.847-.373 47.218-.255 48.789.124m57.982-.076l.353.291.004 32.98c.005 37.339.162 33.673-1.457 33.828-.777.075-8.129.045-9.253-.037-.842-.061-.799 1.741-.803-33.767-.003-30.687.016-32.988.278-33.277.419-.462 10.321-.479 10.878-.018m41.654-.058c.248.129 1.237 1.122 2.197 2.208 1.771 2.003 2.386 2.683 3.584 3.957.366.391 1.229 1.339 1.916 2.107 1.246 1.391 2.214 2.459 2.994 3.301.71.766 2.56 2.819 4.84 5.369 1.686 1.888 2.324 2.591 2.916 3.214.275.29.71.808.967 1.152.677.906 1.712.914 2.395.019.254-.333.951-1.109 1.55-1.725.599-.616 1.913-2.007 2.922-3.092 1.819-1.957 3.72-3.978 5-5.318.366-.384 1.566-1.668 2.666-2.853 1.968-2.121 3.297-3.536 6.405-6.826l1.571-1.664h7.075c8.8 0 8.361-.195 5.738 2.556-.984 1.032-2.126 2.257-2.539 2.722-.412.465-.981 1.081-1.265 1.367-.283.287-1.745 1.906-3.25 3.598-1.504 1.692-3.035 3.384-3.401 3.761-.367.377-1.229 1.311-1.917 2.075-.687.765-1.513 1.668-1.833 2.009-.321.34-1.146 1.245-1.834 2.01-.687.765-1.444 1.594-1.683 1.842-.238.249-.64.701-.893 1.006-.254.305-.959 1.084-1.567 1.731-.609.647-1.707 1.845-2.44 2.663-.733.818-1.633 1.804-2 2.191-.367.388-.88.971-1.141 1.296l-.475.59.475.595c.447.561.997 1.174 2.406 2.681.33.352 1.897 2.103 3.482 3.891 1.586 1.787 3.079 3.455 3.318 3.707.239.251.735.801 1.102 1.222.366.421.929 1.049 1.25 1.395.78.841 1.663 1.817 3.166 3.502.688.77 1.663 1.859 2.167 2.419.504.561 1.442 1.608 2.083 2.328.642.72 1.45 1.617 1.795 1.993 1.172 1.274 1.703 1.861 2.955 3.265.688.77 1.513 1.682 1.834 2.025.321.344 1.108 1.209 1.75 1.922.641.713 1.71 1.866 2.375 2.562 1.217 1.277 1.428 1.75.977 2.2-.411.411-13.795.287-14.719-.136-.527-.242-1.425-1.146-3.629-3.654-1.611-1.834-3.209-3.642-3.55-4.019-1.317-1.453-1.995-2.208-3.121-3.477-1.135-1.279-1.975-2.211-3-3.328-.275-.299-.913-1.021-1.417-1.604-1.387-1.603-3.67-4.182-4.153-4.692-.237-.25-.73-.797-1.097-1.216-.366-.42-.957-1.078-1.311-1.464-.355-.385-.885-.963-1.179-1.284-.294-.321-.662-.789-.817-1.041-.408-.66-1.617-.67-2.06-.018-.165.243-.599.756-.966 1.142-.367.385-1.192 1.287-1.833 2.004-1.554 1.736-2.411 2.679-2.926 3.218-.234.245-1.124 1.233-1.979 2.195-2.017 2.271-5.287 5.883-7.429 8.208-.366.398-1.191 1.312-1.833 2.031-.642.72-1.388 1.541-1.659 1.826-.271.285-.863.931-1.315 1.435-.452.504-1.135 1.26-1.519 1.679-.383.419-.804.914-.935 1.099-.131.185-.576.554-.989.821l-.75.485-5.166-.041c-2.842-.023-6.03.024-7.084.103-2.203.167-1.989.225-2.171-.585-.14-.621-.124-.65.903-1.638.575-.553 1.745-1.794 2.6-2.756.855-.963 1.766-1.975 2.025-2.25 1.339-1.423 2.202-2.378 5.727-6.333 1.466-1.646 2.929-3.266 3.25-3.6.32-.334 1.146-1.233 1.833-1.998.688-.765 1.526-1.693 1.863-2.063.338-.37.881-.973 1.209-1.339.327-.367.876-.97 1.22-1.341.343-.371 1.895-2.096 3.447-3.833 2.946-3.297 3.411-3.814 4.511-5.005 1.338-1.45 2.008-2.212 2.378-2.707l.377-.507-.486-.72c-.268-.396-.7-.924-.961-1.173-.261-.248-.787-.811-1.169-1.25-.951-1.093-1.877-2.141-2.767-3.131-.412-.458-1.406-1.583-2.21-2.5s-1.656-1.882-1.895-2.145c-.239-.264-.71-.789-1.047-1.167-1.449-1.625-1.911-2.138-2.315-2.566-.236-.251-1.418-1.58-2.628-2.955-3.816-4.339-4.696-5.33-5.266-5.931-.225-.237-1.373-1.512-2.553-2.833-1.179-1.322-2.402-2.671-2.717-2.998-.978-1.013-1.143-1.462-.677-1.84.518-.419 13.524-.493 14.322-.081M151.7 41.196c-.985.22-.96.03-.939 7.203.02 7.171-.089 6.663 1.466 6.854 1.585.194 33.112-.019 34.022-.231 1.384-.322 3.622-1.367 4.414-2.061.701-.613 1.126-1.242 1.777-2.628.384-.816.378-3.684-.009-4.5-1.201-2.532-1.818-3.058-5.014-4.274-1.353-.514-33.576-.842-35.717-.363m35.133.75c.321.2 1.109.491 1.75.647.816.198 1.26.404 1.476.683.17.22.526.512.792.65.282.146.482.384.482.575 0 .415.483 1.668.776 2.012.255.299.324 3.154.077 3.154-.137 0-.691 1.259-.937 2.127-.061.216-.346.478-.664.611-.307.129-.638.382-.735.564-.17.318-1.446.864-2.018.864-.152 0-.644.194-1.095.43-1.182.618-3.413.699-20.031.726-14.908.024-15.359.003-15.385-.724-.013-.366-.009-11.584.005-12.211.011-.54-.654-.522 17.757-.495l17.167.024.583.363m-35.14 25.053c-.925.219-.893-.111-.892 9.1.001 9.69-.101 8.953 1.263 9.156.377.056 8.148.07 17.269.033 18.605-.078 19.878-.148 21.75-1.203.367-.207.855-.433 1.084-.502 1.458-.443 3.105-2.484 3.529-4.371.536-2.386.191-6.852-.613-7.942-.144-.194-.45-.616-.681-.937-1.545-2.144-4.259-3.126-9.235-3.343-4.075-.177-32.719-.169-33.474.009m35.224.494c.366.088 1.341.315 2.166.504s1.838.422 2.25.517c.434.099.891.342 1.084.574.183.221.541.477.794.57.262.096.537.369.636.631.096.253.352.649.57.878.786.828 1.142 4.095.841 7.714l-.122 1.456-1.359 1.387c-1.162 1.184-1.482 1.416-2.194 1.591-.458.113-1.101.389-1.428.614-.95.652-3.224.73-21.322.733-18.146.003-17.959.012-17.735-.883.073-.291.147-3.904.166-8.029.036-7.875.079-8.348.769-8.446.963-.136 34.278.044 34.884.189"/><path fill="#fcac74" d="M15.417 64.25c0 61.079.014 64.25.291 64.25.232 0 .292-.145.294-.708.001-.634 0-125.074-.001-127C16 .149 15.945 0 15.708 0c-.277 0-.291 3.171-.291 64.25m367.916 0c0 42.722.056 64.25.167 64.25.111 0 .167-21.528.167-64.25S383.611 0 383.5 0c-.111 0-.167 21.528-.167 64.25m15.335 0c.002 64.03.003 64.25.334 64.25.275 0 .331-.112.331-.667s.056-.666.334-.666c.314 0 .333-.111.333-1.917s-.019-1.917-.333-1.917c-.333 0-.334-.111-.334-56.666 0-56.556.001-56.667.334-56.667.305 0 .333-.111.333-1.333 0-1.223-.028-1.334-.333-1.334-.223 0-.334-.111-.334-.333 0-.222.111-.333.334-.333.319 0 .333-.111.333-2.584 0-2.472-.014-2.583-.333-2.583-.284 0-.334-.111-.334-.75S399.284 0 399 0c-.333 0-.334.1-.332 64.25M51.583 29.702c-.275.097-.595.252-.712.344-.171.136-.203 4.232-.164 20.853l.049 20.684.465 3.578c.329 2.539.581 3.87.866 4.584.221.553.508 1.513.638 2.135.13.621.427 1.409.659 1.75.233.341.506.935.608 1.321.101.385.37.923.599 1.194.229.272.559.82.735 1.217.176.397.55.942.83 1.211.281.269.511.56.511.647 0 .383 4.035 4.04 5 4.532.32.164.813.472 1.094.686.282.214.83.501 1.22.639.389.137.926.405 1.193.595.266.189 1.068.52 1.78.735.713.215 1.671.541 2.129.726 4.201 1.693 17.48 2.383 22.917 1.191.871-.191 2.249-.458 3.062-.593.813-.136 1.788-.362 2.166-.503.379-.14 1.35-.471 2.157-.734.808-.264 1.708-.626 2-.806.293-.18.869-.457 1.282-.616.412-.159.9-.421 1.083-.581.183-.161.612-.446.952-.635 1.607-.891 5.102-4.22 5.832-5.553.156-.285.465-.714.688-.952.222-.239.492-.707.598-1.041.107-.334.409-.934.672-1.334.263-.399.565-1.064.672-1.476.108-.413.385-1.156.616-1.652.232-.495.559-1.658.727-2.583.168-.925.424-2.169.569-2.765.519-2.141.58-4.713.597-25.451.016-19.032-.007-20.954-.251-21.198-.452-.451-10.519-.4-10.852.056-.201.275-.237 3.34-.237 20.49 0 21.114-.078 24.054-.689 25.77-.18.504-.462 1.427-.627 2.052-.166.625-.46 1.337-.655 1.583-.194.247-.495.748-.669 1.115-.545 1.154-3.124 3.527-4.366 4.018-.409.161-.931.427-1.16.59-.421.3-3.431 1.149-5.584 1.574-2.876.569-13.031.459-15.583-.168-2.521-.62-4.294-1.167-4.689-1.448-.242-.171-.776-.456-1.186-.632-.908-.389-2.594-1.649-3.199-2.391-1.278-1.567-1.585-2.015-1.769-2.585-.111-.344-.374-.925-.584-1.292-.371-.645-1.062-3.989-1.414-6.833-.079-.642-.148-10.255-.152-21.363L62 30.191l-.439-.346c-.502-.394-8.92-.515-9.978-.143m88.507.024c-.474.142-.692.314-.775.611-.184.661-.173 65.473.012 65.817.374.7.549.704 24.093.628 24.94-.082 25.978-.124 29.147-1.203.651-.222 1.558-.484 2.016-.582.459-.099 1.096-.349 1.417-.556.321-.207.943-.51 1.382-.675.439-.164 1.001-.469 1.25-.676.248-.208.751-.531 1.118-.718.585-.299 2.562-2.121 3.977-3.666.262-.287.644-.882.849-1.322.204-.44.496-.904.649-1.031.153-.126.4-.651.549-1.166.149-.516.445-1.275.659-1.687 1.392-2.684 1.326-13.147-.095-15.165-.162-.23-.419-.848-.57-1.374-.152-.525-.414-1.088-.584-1.25-.17-.162-.43-.534-.579-.826-.367-.724-1.7-2.439-2.757-3.552-1.518-1.596-1.615-2.234-.522-3.416.255-.275.537-.725.629-1.001.091-.275.365-.794.609-1.154.245-.36.486-.847.536-1.083.05-.236.276-1.097.501-1.914.881-3.194.935-7.319.132-10.248-.771-2.818-.923-3.26-1.231-3.6-.167-.184-.425-.63-.575-.992-.306-.744-.626-1.122-2.51-2.974-.734-.721-1.685-1.491-2.114-1.711-.428-.22-.824-.472-.878-.559-.054-.088-.528-.319-1.053-.514-.526-.196-1.33-.537-1.789-.758-.458-.222-1.358-.509-2-.637-.641-.129-1.766-.395-2.5-.591-.91-.244-2.232-.408-4.166-.517-4.287-.241-43.996-.186-44.827.062m95.618.146l-.375.399v65.684l.354.45.354.45 5.078-.052 5.078-.053.318-.393c.5-.618.5-65.762 0-66.38l-.319-.394-5.056-.055-5.057-.056-.375.4m38.625-.254c-.867.319-.546 1.649.566 2.341.109.068 1.126 1.174 2.26 2.458 2.054 2.325 2.325 2.627 3.699 4.123.399.434 1.036 1.147 1.415 1.583.379.437 1.055 1.206 1.502 1.71.448.504 1.369 1.554 2.048 2.334.678.779 1.443 1.641 1.699 1.916.704.756 1.816 1.985 2.561 2.832.367.417.957 1.075 1.312 1.463 1.264 1.383 1.565 1.721 2.627 2.955.591.688 1.259 1.45 1.485 1.694.225.244.71.787 1.076 1.208 1.074 1.231 1.895 2.141 2.498 2.765.31.321.788.917 1.061 1.324l.497.74-.361.488c-.199.269-.699.855-1.111 1.303-2.464 2.676-2.035 2.2-5.917 6.558-1.467 1.646-2.929 3.27-3.25 3.609-.769.811-1.644 1.771-3.167 3.472-.687.769-1.512 1.674-1.833 2.013-.629.663-1.483 1.61-5.174 5.743-2.388 2.673-2.762 3.085-3.941 4.345-.349.373-1.16 1.271-1.802 1.997-1.651 1.868-2.331 2.599-3.722 4.006-1.128 1.141-1.21 1.271-1.069 1.694l.152.458 6.903.036 6.903.035.873-.437c.48-.24 1-.631 1.155-.869.266-.407 3.238-3.739 3.656-4.098.107-.092.889-.955 1.737-1.917.849-.963 1.777-1.992 2.062-2.287.625-.65.904-.955 2.934-3.217.87-.971 1.822-2.023 2.115-2.339.292-.315 1.222-1.361 2.067-2.324.845-.962 1.704-1.9 1.91-2.083.206-.183 1.03-1.083 1.83-2 .801-.917 1.689-1.905 1.975-2.196.642-.653 1.493-1.629 2.047-2.346.627-.811 1.707-.792 2.273.041.364.536 1.863 2.256 3.283 3.765.858.913 2.58 2.834 4.32 4.819 2.185 2.494 2.851 3.25 3.513 3.988.321.358.883.991 1.25 1.408.367.416.929 1.043 1.25 1.393 1.048 1.142 2.92 3.235 5.988 6.697 3.93 4.435 2.774 4.012 10.955 4.008l6.581-.003.417-.417c.526-.526.571-.438-1.108-2.198-.779-.818-1.791-1.922-2.25-2.454-.458-.532-1.095-1.248-1.416-1.59-.321-.342-1.146-1.246-1.834-2.009-1.344-1.492-2.241-2.48-3.166-3.487-1.072-1.166-1.439-1.574-3.071-3.419-.892-1.008-1.868-2.096-2.169-2.417-.3-.321-1.205-1.333-2.011-2.25-.806-.916-1.675-1.891-1.931-2.166-.256-.275-.751-.812-1.1-1.193-.349-.381-.867-.943-1.15-1.25-.539-.582-1.877-2.084-5.475-6.141-1.179-1.329-2.376-2.647-2.66-2.93-.284-.282-.756-.815-1.048-1.185l-.531-.671.642-.855c.353-.47.892-1.099 1.198-1.399.305-.3 1.156-1.213 1.889-2.028.733-.816 1.833-2.015 2.444-2.665.612-.651 1.266-1.38 1.454-1.62.188-.241.588-.693.889-1.005.3-.313 1.109-1.192 1.796-1.954.688-.761 1.513-1.663 1.834-2.004.32-.34 1.146-1.243 1.833-2.006.688-.763 1.512-1.662 1.833-1.996.321-.335 1.854-2.032 3.407-3.77 1.553-1.739 3.053-3.393 3.333-3.675.281-.283 1.073-1.136 1.76-1.897.688-.76 1.794-1.95 2.459-2.644 1.93-2.016 2.159-1.933-5.504-1.997-8.439-.07-6.88-.704-12.195 4.962-.82.874-2.095 2.23-2.833 3.014-.739.784-2.206 2.352-3.26 3.486-1.054 1.134-2.442 2.614-3.083 3.289-.642.676-1.767 1.87-2.5 2.654-.734.784-1.896 2.013-2.584 2.73-.687.717-1.384 1.498-1.549 1.735-.238.343-.437.431-.971.431-.712 0-.703.007-2.23-1.753-.366-.422-.86-.97-1.098-1.216-.237-.246-1.094-1.197-1.904-2.114-.81-.917-1.666-1.86-1.902-2.096s-.852-.911-1.369-1.5-1.18-1.333-1.473-1.654c-.294-.321-.846-.931-1.227-1.357-2.538-2.832-3.098-3.452-3.693-4.088-.367-.392-.967-1.052-1.334-1.468-.366-.415-.898-.998-1.181-1.296-.284-.297-1.058-1.154-1.72-1.902-1.777-2.008-1.235-1.891-8.707-1.876-3.516.007-6.504.055-6.642.105m-213.031.427c.12.145.198 6.955.247 21.625.074 21.834.093 22.487.7 23.66.121.235.334 1.089.474 1.898.172.996.39 1.667.677 2.081.232.335.509.872.615 1.192.106.32.373.77.593.999.22.229.568.676.773.993.205.317.709.823 1.121 1.126.411.302.898.695 1.081.875.184.179.659.44 1.057.58.398.141.938.435 1.199.655.292.246.972.51 1.766.687.711.158 1.484.428 1.718.599 1.56 1.137 18.724 1.044 20.018-.109.142-.126.803-.344 1.469-.485 1.235-.259 1.809-.488 2.107-.838.091-.108.506-.321.921-.473.415-.152.998-.534 1.296-.85.298-.315.685-.619.862-.675.176-.056.367-.248.423-.427.057-.179.362-.522.677-.762.315-.241.72-.747.9-1.125.18-.378.482-.878.672-1.111.19-.233.455-.892.588-1.465.134-.572.397-1.249.585-1.503.655-.886.702-2.359.808-25.19l.101-21.914.917-.137c1.048-.156 9.416-.091 9.581.075.133.133.119 41.28-.015 42.807-.052.596-.208 1.384-.346 1.75-.139.367-.398 1.822-.577 3.234-.255 2.008-.413 2.716-.724 3.25-.22.376-.526 1.242-.68 1.926-.195.861-.396 1.332-.653 1.535-.219.172-.488.706-.654 1.297-.181.644-.404 1.071-.621 1.187-.187.1-.442.427-.567.727-.402.961-5.009 5.419-6.057 5.859-.304.128-.77.415-1.035.638-.265.223-.885.523-1.379.667-.493.143-.997.381-1.12.529-.285.344-.73.51-2.176.811-.641.134-1.427.405-1.745.602-.444.274-1.19.429-3.2.666-1.441.17-2.956.43-3.368.577-1.843.661-12.47.652-14.35-.011-.394-.139-1.901-.403-3.348-.586-2.119-.269-2.742-.409-3.199-.719-.315-.213-1.174-.506-1.931-.658-.921-.185-1.522-.408-1.855-.687-.446-.376-1.418-.757-1.934-.759-.111-.001-.284-.154-.384-.341-.1-.187-.596-.523-1.103-.747-.506-.224-1.132-.633-1.391-.91-.258-.277-.585-.503-.725-.503s-.416-.226-.613-.503c-.197-.276-.577-.616-.844-.754-.268-.139-.487-.359-.487-.489 0-.131-.263-.438-.584-.682-.321-.245-.583-.549-.583-.675s-.26-.517-.577-.868c-.317-.352-.725-.984-.906-1.406-.181-.422-.478-.847-.661-.944-.223-.12-.395-.481-.523-1.097-.109-.524-.377-1.14-.623-1.433-.321-.381-.51-.924-.733-2.101-.166-.874-.451-1.843-.635-2.155-.915-1.55-1.168-13.632-1.011-48.243.002-.455.092-.643.377-.78.574-.277 9.364-.269 9.594.008m123.448-.052c1.431.093 2.576.254 2.962.417.346.145 1.57.406 2.721.58 1.623.244 2.229.409 2.704.735.337.231.838.469 1.113.528.827.178 1.481.45 1.836.766.184.164.633.423.998.575.994.416 4.507 4.034 4.649 4.789.059.317.3.784.534 1.037.277.299.485.788.592 1.395.091.514.349 1.722.572 2.685.439 1.891.567 5.306.235 6.267-.092.266-.344 1.557-.562 2.869-.327 1.975-.455 2.429-.747 2.633-.198.139-.468.646-.618 1.16-.167.576-.41 1.008-.655 1.169-1.005.659-1.076 3.004-.099 3.314.191.061.348.215.348.343 0 .128.291.517.645.864.355.347.852.95 1.106 1.339.253.39.527.709.608.709.08 0 .273.281.428.625.155.343.463.825.683 1.07.221.245.543.958.716 1.583.173.626.47 1.348.658 1.604 1.006 1.363 1.041 12.704.043 13.815-.344.383-.704 1.438-.713 2.089-.005.382-.171.7-.578 1.107-.315.315-.664.879-.776 1.254-.113.377-.385.8-.609.947-.223.146-.512.522-.643.835-.132.314-.331.571-.443.571-.113 0-.468.262-.79.583-.94.937-1.859 1.75-1.979 1.75-.255 0-1.458.723-1.689 1.014-.138.174-.642.418-1.121.543-.479.124-1.154.416-1.5.648-.419.282-1.157.519-2.212.712-.871.159-1.832.43-2.135.603-1.128.642-2.538.682-26.678.764-26.011.088-25.072.123-24.752-.929.073-.241.154-14.942.18-32.668.033-22.903.099-32.293.228-32.449.099-.12.344-.25.544-.289.739-.143 41.947-.103 44.196.044m61.45.14c.285.285.41 65.657.126 65.941-.382.383-10.274.335-10.48-.051-.128-.238-.168-9.916-.138-33.13l.042-32.795.417-.122c.771-.227 9.791-.086 10.033.157m42.908 1.325c.863.894 1.66 1.719 1.772 1.834.112.114.353.364.537.555.183.19.614.629.958.974s.625.712.625.815c0 .103.232.358.516.567.284.209.625.59.758.846s.42.547.638.646c.218.099.442.363.498.587.056.224.324.533.596.688.272.154.538.414.591.578.053.165.372.581.708.927.336.345 1.024 1.102 1.528 1.683 1.021 1.176 2.877 3.175 3.959 4.265.389.393.708.797.708.899 0 .102.19.272.423.378.232.106.54.439.683.74.143.301.403.593.579.649.175.056.429.315.564.576.135.262.464.63.73.82.266.19.53.528.586.752.322 1.283 2.215 1.55 3.047.43.306-.413.638-.825.737-.917.099-.092.342-.346.54-.565.199-.219.642-.662.986-.986.344-.323.625-.68.625-.793 0-.114.262-.361.583-.551.321-.189.584-.433.584-.542 0-.108.281-.48.625-.825.343-.346.756-.765.916-.933.161-.168.423-.438.584-.6.16-.162.591-.627.958-1.034.645-.715.974-1.063 1.501-1.588.139-.137 1.132-1.17 2.209-2.294 1.076-1.125 2.478-2.587 3.115-3.25.637-.663 1.943-2.068 2.902-3.122.959-1.055 1.975-2.151 2.258-2.437.283-.286.609-.639.724-.785.437-.555 1.438-.632 7.594-.579 6.277.053 6.744.102 6.055.645-.222.174-.452.508-.511.742-.06.242-.287.494-.525.585-.231.087-.547.385-.704.661-.157.276-.418.545-.581.597-.163.053-.421.297-.575.542-.256.409-.567.764-1.712 1.952-.229.238-.492.511-.583.607-.092.096-.395.41-.674.697-.279.288-1.572 1.723-2.874 3.189-1.301 1.467-2.63 2.929-2.952 3.25-.322.321-.586.675-.585.788.001.112-.223.32-.496.461-.274.142-.544.44-.6.664-.056.224-.357.558-.669.742-.312.184-.567.429-.567.544 0 .116-.281.492-.625.835-.344.343-.812.819-1.042 1.056-.229.238-.491.51-.583.604-.092.095-.45.483-.797.864-.347.381-1.182 1.274-1.855 1.986-.673.711-1.627 1.754-2.12 2.317-.492.563-1.157 1.309-1.478 1.658-.321.35-.883.982-1.25 1.405-.367.423-.985 1.077-1.375 1.453-.39.376-.708.739-.708.807 0 .068-.225.349-.5.624-.622.621-.633 1.085-.042 1.677.252.253.562.655.689.893.127.239.427.517.667.618.239.101.548.425.686.719.137.295.418.609.625.7.206.09.375.262.375.381 0 .183 1.293 1.686 3.737 4.345.282.307.813.884 1.179 1.284.367.4.798.862.959 1.026.16.165.423.437.583.604.16.168.573.588.917.933.343.345.625.712.625.815 0 .103.232.358.516.567.284.209.625.59.758.846s.424.549.647.65c.223.102.453.335.511.519.059.183.379.619.712.969.333.35.943 1.027 1.356 1.504.733.849 1.66 1.88 2.833 3.151.321.348 1.146 1.243 1.833 1.989.688.747 1.479 1.597 1.759 1.888.279.292.634.732.787.977.153.245.417.489.586.543.17.054.43.353.579.665.149.312.423.616.61.675.187.06.458.356.601.658.144.303.445.634.67.736.224.103.408.261.408.351 0 .091.346.561.768 1.045.423.485 1.116 1.282 1.542 1.772.425.491 1.074 1.187 1.44 1.547 1.151 1.13 1.067 1.145-6.301 1.145-6.602 0-7.949-.135-7.949-.801 0-.123-.261-.499-.58-.836-.319-.337-1.343-1.475-2.275-2.529-2.424-2.74-2.499-2.824-3.151-3.485-.325-.329-.717-.799-.871-1.044-.154-.245-.424-.492-.6-.548-.176-.055-.414-.327-.528-.603-.115-.277-.414-.609-.665-.739-.252-.13-.506-.429-.565-.665-.059-.235-.295-.513-.525-.618-.231-.105-.532-.429-.67-.72-.138-.292-.436-.629-.661-.749-.225-.12-.41-.3-.411-.399-.002-.099-.321-.529-.709-.956-.388-.426-1.08-1.212-1.539-1.747-.458-.535-1.104-1.236-1.434-1.558-.331-.322-.648-.718-.704-.88-.057-.162-.293-.366-.524-.454-.232-.088-.421-.244-.421-.347 0-.17-.312-.525-1.997-2.271-.32-.331-.659-.759-.753-.951-.095-.192-.341-.424-.546-.515-.206-.091-.419-.308-.475-.484-.056-.175-.374-.599-.707-.941-.333-.342-.811-.931-1.062-1.308-.826-1.239-2.655-.709-3.055.886-.055.218-.242.435-.415.48-.173.045-.467.34-.653.656-.187.316-.524.658-.75.761-.226.103-.458.374-.515.603-.058.228-.36.566-.672.75-.312.184-.567.429-.567.545 0 .115-.281.491-.625.834-.343.343-.812.819-1.041 1.057-.229.238-.492.509-.584.603-.785.807-1.627 1.718-2.291 2.481-.435.5-1.32 1.472-1.967 2.159-.647.688-1.278 1.438-1.401 1.667-.124.229-.457.587-.741.796-.284.209-.516.482-.516.606 0 .123-.258.421-.572.661-.315.24-.62.587-.679.772-.058.184-.315.443-.571.575-.256.132-.558.467-.673.743-.114.276-.35.547-.523.602-.174.056-.401.264-.505.464-.104.2-.48.664-.837 1.031-1.79 1.843-3.138 3.283-3.89 4.156-1.323 1.535-1.714 1.889-2.292 2.076-.853.276-13.163.166-13.508-.121-.278-.231.161-.787 2.341-2.972.39-.391.709-.813.709-.94 0-.126.188-.315.418-.42.229-.104.536-.439.681-.743.146-.305.425-.625.621-.712.196-.087.435-.315.529-.507.095-.192.434-.618.753-.947.32-.329.701-.734.847-.901.147-.166.384-.415.528-.553.253-.241 1.056-1.092 2.303-2.438.328-.355 1.586-1.77 2.795-3.145 1.21-1.375 2.46-2.776 2.779-3.113.318-.337.579-.691.579-.787 0-.096.224-.291.498-.432.273-.142.543-.44.599-.664.056-.224.358-.558.669-.742.312-.184.567-.429.567-.544 0-.116.282-.492.625-.835.344-.343.813-.819 1.042-1.056.229-.238.492-.51.583-.604.389-.399 1.527-1.629 1.845-1.994.19-.218.853-.958 1.473-1.646.621-.687 1.403-1.571 1.739-1.964.335-.392.883-.992 1.217-1.333.334-.341.656-.78.714-.976.059-.197.252-.395.43-.442.178-.046.481-.351.674-.677.192-.326.497-.64.677-.697.18-.057.511-.379.736-.716.225-.336.574-.818.776-1.07l.368-.458-.368-.458c-.202-.252-.551-.734-.776-1.07-.225-.337-.56-.66-.745-.719-.186-.059-.458-.362-.606-.674-.148-.312-.413-.612-.588-.668-.176-.056-.44-.334-.587-.619-.147-.285-.503-.75-.79-1.034-.287-.283-.897-.96-1.355-1.504-.459-.544-1.115-1.292-1.459-1.663-.343-.371-.906-.989-1.25-1.374-.343-.385-.767-.835-.941-1-.175-.165-.437-.438-.584-.605-.146-.168-.548-.588-.891-.933-.344-.345-.625-.711-.625-.812 0-.101-.263-.384-.584-.628-.321-.245-.583-.537-.583-.648 0-.112-.281-.471-.625-.8-.344-.328-1.038-1.102-1.542-1.719-.504-.618-1.104-1.332-1.333-1.586-1.147-1.272-3.15-3.437-3.673-3.969-.325-.33-.717-.801-.871-1.046-.154-.245-.425-.492-.602-.548-.176-.056-.369-.291-.427-.523-.058-.233-.322-.547-.587-.698-.264-.152-.601-.53-.749-.84-.148-.309-.414-.601-.591-.647-.177-.046-.37-.233-.427-.415-.058-.182-.642-.891-1.298-1.576-2.419-2.526-2.73-2.385 5.287-2.388l6.478-.003 1.568 1.625m-138.049 9.37c-.886.368-.892.417-.892 7.184 0 6.436.056 7.068.665 7.448.411.257 33.133.299 35.312.046 1.704-.198 1.982-.282 2.56-.765.25-.209.679-.429.954-.489.275-.06.684-.329.91-.598.226-.268.477-.487.559-.487.209 0 .873-.733.873-.964 0-.105.244-.469.542-.808l.541-.617V45.389l-.541-.617c-.298-.339-.542-.702-.542-.806 0-.312-1.497-1.649-2.146-1.916-.332-.137-.758-.391-.947-.565-.189-.174-.714-.404-1.167-.511-1.012-.239-36.121-.379-36.681-.146m34.945.349c2.453.306 4.926 1.657 5.746 3.138.183.331.483.823.667 1.094.436.645.497 4.388.083 5.11-.138.24-.449.803-.692 1.25-.243.448-.675.95-.958 1.115-.284.166-.517.376-.517.468 0 .091-.431.357-.958.589-.527.233-1.272.566-1.656.74-.383.175-1.208.391-1.833.481-1.816.263-34.194.221-34.719-.044l-.417-.211-.044-6.642c-.045-6.935-.038-7.009.681-7.149.85-.165 33.264-.109 34.617.061m-35.119 25.518c-.619.306-.633.488-.687 9.055-.055 8.792-.025 9.218.702 9.901l.405.381 17.223-.007c16.774-.005 17.25-.014 18.305-.341.596-.184 1.816-.443 2.712-.576.981-.145 1.801-.363 2.065-.549.655-.463.754-.52 1.431-.82.876-.388 2.543-2.312 2.786-3.216.107-.396.358-1.031.558-1.413.54-1.026.54-4.5 0-5.61-.2-.413-.456-1.162-.568-1.666-.128-.577-.363-1.071-.635-1.334-.238-.229-.538-.622-.667-.872-.129-.251-.362-.496-.517-.545-.155-.05-.48-.312-.722-.583-.241-.271-.646-.54-.899-.598-.253-.058-1.023-.378-1.71-.712l-1.25-.607-19.084-.035c-13.465-.024-19.191.019-19.448.147m36.698.308c2.814.309 5.91 1.685 6.713 2.985.146.236.435.616.643.846.506.558 1.073 2.974 1.185 5.047.285 5.286-2.366 8.236-8.223 9.151-2.706.422-34.785.692-36.224.304-1.13-.304-1.104-.058-1.01-9.581l.083-8.495.417-.211c.524-.265 34.03-.307 36.416-.046"/></g></svg>