<svg xmlns="http://www.w3.org/2000/svg" role="img" viewBox="-65.20 -65.20 3390.40 1327.90"><title>UIPath RPA Platform (Pre-defined Models as a Service) logo</title><style>svg {enable-background:new 0 0 3261 1200}</style><path fill="#fa4616" d="M0 0h1200v1200H0V0zm124.2 1075.8h951.6V124.2H124.2v951.6zM604 309.5h124.2v363.6c0 164.3-93.2 263.4-250.4 263.4-154.3 0-245.4-97.2-245.4-263.4V309.5h124.2v363.6c0 91.2 38.1 146.2 124.2 146.2 83.1 0 123.2-52.1 123.2-146.2V309.5zm360.6 0c0 44.1-32.1 74.1-76.1 74.1-44.1 0-76.1-30-76.1-74.1 0-45.1 32.1-76.1 76.1-76.1 44 0 76.1 31 76.1 76.1zM826.4 442.7h124.2v487.8H826.4V442.7zm957.6 75.2c0 133.2-88.1 212.4-223.4 212.4h-112.2v200.3h-124.2v-621h236.4c137.2-.1 223.4 80 223.4 208.3zm-126.2 0c0-68.1-39.1-108.2-110.2-108.2h-99.2v221.4h99.2c71.1 0 110.2-40.1 110.2-113.2zm543.9-75.2h124.2v487.8h-124.2v-55.1c-33.1 39.1-85.1 61.1-158.3 61.1-132.2 0-225.4-104.2-225.4-249.4 0-144.2 91.2-250.4 225.4-250.4 71.1 0 125.2 25 158.3 67.1v-61.1zm0 244.4c0-84.1-50.1-142.2-129.2-142.2s-128.2 55.1-128.2 142.2c0 81.1 44.1 140.2 128.2 140.2 76.1.1 129.2-55 129.2-140.2zm427.7 137.3h49.1v106.2h-65.1c-118.2 0-169.3-56.1-169.3-171.3V547.9H2386V442.7h58.1V309.5h124.2v133.2h109.2v105.2h-109.2v212.3c0 43.1 13 64.2 61.1 64.2zm584.9-177.3v283.5h-124.2V661.1c0-74.1-38.1-122.2-111.2-122.2s-117.2 50.1-117.2 133.2v258.4h-124.2v-651h124.2v213.4c31.1-37.1 80.1-57.1 147.2-57.1 115.3-.1 205.4 83.1 205.4 211.3zM3200 279.5h21.7v4.2h-8.5v25.8h-4.8v-25.8h-8.5v-4.2zm61 0v30h-4.8v-22.8l-9.7 22.8h-3.6l-9.7-22.8v22.8h-4.8v-30h6l10.3 23.4 10.3-23.4h6z"/></svg>