<svg xmlns="http://www.w3.org/2000/svg" role="img" viewBox="-7.74 -7.99 415.48 107.73"><title>Verta.ai (Lineage) logo</title><g fill-rule="evenodd"><path fill="#24dcc4" d="M.542 6.774c-.486.204-.195 3.059.312 3.059.262 0 .313.13.315.792.003 1.111.147 1.542.517 1.542.262 0 .314.127.314.767 0 .621.08.831.417 1.096.353.277.416.466.416 1.232 0 .794.041.905.334.905.264 0 .333.111.335.541.004 1.092.206 1.834.523 1.917.22.058.308.236.308.624 0 .949.193 1.57.52 1.674.245.078.314.261.314.835 0 .646.051.748.416.84.391.098.417.172.417 1.175 0 .868.055 1.091.292 1.178.447.165.536.39.539 1.356.002.75.055.905.336.978.262.069.333.227.333.745 0 .678.226 1.261.603 1.553.118.092.237.504.264.917.042.633.108.758.425.803.335.048.375.147.375.947 0 .853.269 1.417.678 1.417.085 0 .155.344.155.765 0 .61.064.783.314.848.247.065.33.28.391 1.017.06.718.161.989.436 1.172.277.184.359.406.359.968 0 .667.036.73.417.73.402 0 .416.038.416 1.087 0 1.007.031 1.099.417 1.246.36.137.417.261.417.913 0 .643.049.754.333.754.276 0 .333.111.333.646 0 1.115.177 1.687.521 1.687.264 0 .313.13.313.833 0 .774.029.834.409.834.389 0 .411.055.458 1.125.045 1.022.084 1.13.424 1.178.331.047.375.15.375.875 0 .711.045.822.334.822.267 0 .333.111.333.562 0 .986.2 1.644.525 1.729.241.063.308.241.308.808 0 .637.052.741.417.832.363.091.417.196.417.819 0 .544.098.808.413 1.107.327.31.415.56.417 1.184.003.68.05.792.336.792.252 0 .334.112.336.458.004.764.186 1.209.496 1.209.237 0 .309.184.372.949.061.732.161 1.003.438 1.187.275.183.358.405.358.964 0 .636.052.74.417.831.365.092.417.195.417.837 0 .607.054.732.315.732.371 0 .518.311.518 1.097 0 .347.13.699.333.903.189.188.334.555.334.844 0 .634.266 1.156.589 1.156.177 0 .244.2.244.732 0 .641.051.744.417.836.367.092.416.194.416.852 0 .685.035.746.417.746.386 0 .417.059.417.794 0 .612.076.84.333 1.001.183.114.333.386.333.603 0 .802.207 1.407.508 1.486.225.059.318.269.357.806.043.602.115.736.418.779.309.044.374.175.417.833.043.665.106.79.425.835.325.046.375.153.375.792 0 .62.052.738.325.738.268 0 .332.136.375.792.043.675.105.799.425.845.323.045.375.153.375.772 0 .583.079.771.417.992.287.188.417.425.417.759 0 .689.281 1.34.579 1.34.191 0 .254.191.254.766 0 .612.064.782.317.848.225.059.348.291.424.803.146.973-.414.916 9.023.916h8.403v-.416c0-.255.095-.417.244-.417.319 0 .589-.52.589-1.136 0-.342.096-.517.315-.574.221-.058.352-.3.438-.811.068-.401.263-.908.435-1.126.197-.251.312-.667.312-1.125 0-.665.036-.728.417-.728.389 0 .416-.056.416-.833 0-.778.028-.834.417-.834.379 0 .417-.063.417-.71 0-.577.07-.742.375-.875.289-.127.386-.326.426-.873.041-.573.113-.708.375-.708.277 0 .324-.12.324-.822 0-.725.044-.828.375-.875.312-.044.383-.173.426-.764.034-.47.188-.858.458-1.149.3-.323.407-.627.407-1.153 0-.614.053-.722.375-.767.32-.046.383-.17.426-.845.042-.656.107-.792.375-.792.272 0 .324-.118.324-.732 0-.642.052-.745.417-.836.36-.091.417-.198.417-.791 0-.518.102-.781.416-1.072.337-.313.417-.545.417-1.216 0-.734.043-.836.375-.883.32-.046.382-.169.426-.845.041-.638.11-.792.356-.792.234 0 .331-.175.418-.749.073-.492.223-.809.435-.923.264-.141.323-.354.323-1.155 0-.892.035-.988.375-1.036.319-.045.383-.17.426-.835.042-.658.107-.789.416-.833.31-.044.375-.174.417-.844.028-.435.12-.791.205-.791.275 0 .661-.969.661-1.659 0-.564.055-.675.334-.675.282 0 .333-.111.333-.723 0-.61.065-.753.417-.913.376-.172.416-.285.416-1.182 0-.902.034-.997.375-1.045.32-.046.383-.169.426-.845.041-.636.111-.792.354-.792.335 0 .512-.584.512-1.687 0-.535.057-.646.333-.646.289 0 .334-.111.334-.822 0-.725.044-.828.375-.875.34-.048.379-.156.424-1.178.047-1.07.069-1.125.458-1.125.38 0 .409-.06.409-.833 0-.704.049-.834.313-.834.344 0 .521-.571.521-1.687 0-.535.057-.646.333-.646.289 0 .333-.111.333-.833 0-.707.048-.834.316-.834.404 0 .518-.312.518-1.43 0-.852.023-.903.416-.903.389 0 .417-.056.417-.833 0-.636.06-.834.254-.834.321 0 .579-.665.579-1.491 0-.496.074-.656.334-.724.27-.07.333-.227.333-.832 0-.578.081-.799.359-.983.275-.184.376-.455.436-1.174.068-.816.128-.949.475-1.036.366-.092.397-.181.397-1.161 0-.994.026-1.069.416-1.167.366-.092.417-.194.417-.844 0-.514.127-.927.417-1.354.235-.347.416-.852.416-1.162 0-.399.09-.578.326-.653.274-.086.334-.282.375-1.219.045-1.013.084-1.121.424-1.17.348-.049.375-.137.375-1.208 0-1.121.013-1.155.417-1.155.389 0 .417-.056.417-.833 0-.703.048-.834.311-.834.327 0 .516-.653.52-1.791.002-.43.071-.542.335-.542.302 0 .334-.111.334-1.167 0-1.133.012-1.166.416-1.166.389 0 .417-.056.417-.834 0-.635.06-.833.254-.833.321 0 .579-.665.579-1.489 0-.862.247-.84-9.516-.842-9.913-.003-9.475-.085-9.481 1.789-.002.51-.071.709-.247.709-.366 0-.589.549-.589 1.449 0 .675-.061.832-.375.969-.322.142-.382.312-.424 1.198-.04.831-.11 1.052-.357 1.13-.367.117-.505.559-.508 1.629-.002.679-.05.791-.336.791-.302 0-.333.111-.333 1.167 0 1.133-.012 1.167-.417 1.167-.404 0-.417.034-.417 1.155 0 1.071-.027 1.159-.375 1.208-.326.046-.381.166-.425.928-.033.577-.124.875-.265.875-.305 0-.601.738-.601 1.497 0 .501-.076.671-.334.753-.287.092-.333.253-.333 1.167 0 .973-.031 1.065-.375 1.113-.344.049-.379.153-.424 1.262-.047 1.159-.066 1.208-.458 1.208-.374 0-.41.065-.41.743 0 .569-.097.839-.416 1.159-.325.325-.417.587-.417 1.19 0 .633-.06.789-.333.86-.281.073-.334.227-.334.971 0 1.098-.114 1.411-.517 1.411-.28 0-.316.133-.316 1.166 0 1.134-.012 1.167-.417 1.167-.388 0-.416.056-.416.822 0 .66-.062.842-.316.922-.366.117-.512.556-.515 1.548-.002.58-.059.708-.314.708-.327 0-.516.654-.52 1.792-.002.43-.071.541-.335.541-.289 0-.334.111-.334.834 0 .62-.062.833-.244.833-.369 0-.589.551-.589 1.477 0 .737-.043.839-.375.886-.33.047-.381.165-.425.97-.039.719-.139 1-.459 1.299-.3.28-.408.556-.408 1.041 0 .549-.056.66-.333.66-.302 0-.333.111-.333 1.167 0 1.133-.012 1.167-.417 1.167-.383 0-.417.06-.417.755 0 .567-.072.782-.291.863-.451.166-.537.39-.539 1.412-.003.854-.04.952-.378 1-.31.044-.384.173-.425.744-.038.52-.131.712-.375.776-.28.073-.325.235-.325 1.172 0 1.001-.03 1.092-.375 1.141-.319.045-.383.17-.425.835-.043.658-.108.789-.417.833-.306.043-.375.175-.417.802-.035.525-.155.831-.401 1.02-.26.201-.371.512-.429 1.209-.064.778-.13.938-.39.938-.259 0-.313.127-.313.75 0 .689-.034.75-.416.75-.362 0-.417-.074-.417-.563 0-.986-.2-1.644-.525-1.729-.239-.062-.308-.24-.308-.793 0-.621-.054-.726-.417-.817-.367-.092-.417-.194-.417-.852 0-.685-.034-.746-.416-.746-.403 0-.417-.038-.417-1.099 0-.95-.044-1.111-.325-1.184-.253-.066-.336-.256-.375-.86-.042-.658-.106-.782-.425-.827-.32-.046-.375-.155-.377-.75-.003-.975-.151-1.42-.507-1.533-.23-.073-.319-.294-.357-.881-.043-.667-.106-.791-.426-.836-.344-.049-.375-.141-.375-1.114 0-.904-.047-1.076-.324-1.163-.241-.077-.337-.283-.375-.803-.042-.576-.116-.71-.418-.753-.332-.047-.373-.162-.417-1.166-.043-.972-.097-1.136-.424-1.279-.305-.134-.375-.298-.375-.883 0-.543-.101-.819-.417-1.134-.316-.317-.416-.591-.416-1.14 0-.583-.065-.74-.334-.81-.252-.066-.333-.228-.333-.666 0-.983-.189-1.604-.52-1.709-.243-.077-.313-.261-.313-.821 0-.551-.098-.813-.414-1.114-.326-.309-.415-.56-.417-1.18-.002-.701-.049-.801-.419-.894-.391-.098-.417-.171-.417-1.185 0-.941-.043-1.092-.333-1.168-.227-.059-.334-.228-.336-.526-.004-.995-.217-1.734-.523-1.814-.238-.062-.308-.24-.308-.787 0-.518-.109-.823-.407-1.146-.289-.311-.423-.67-.459-1.232-.043-.677-.106-.801-.426-.847-.347-.049-.375-.137-.375-1.208 0-1.022-.036-1.155-.315-1.155-.399 0-.518-.313-.518-1.363 0-.695-.056-.85-.333-.922-.264-.069-.334-.227-.334-.76 0-.462-.131-.846-.416-1.22-.304-.398-.417-.752-.417-1.307 0-.701-.033-.761-.417-.761-.404 0-.416-.035-.416-1.149 0-1.086-.023-1.154-.417-1.253-.392-.098-.417-.171-.417-1.2 0-.956-.042-1.107-.333-1.183-.247-.065-.333-.228-.333-.631 0-.949-.193-1.57-.52-1.674-.246-.078-.314-.262-.314-.846 0-.574-.096-.842-.416-1.163-.333-.332-.417-.584-.417-1.242 0-.77-.028-.826-.417-.826-.404 0-.416-.033-.416-1.167 0-1.027-.038-1.166-.311-1.166-.262 0-.324-.17-.398-1.093-.048-.601-.14-1.145-.203-1.208-.134-.134-18.4-.224-18.713-.092m197.39 1.976c-.27.413-.297.417-2.676.417-2.245 0-2.42.022-2.647.346-.219.313-.461.356-2.506.442-1.978.083-2.275.132-2.358.393-.052.163-.259.321-.461.35l-.367.052-.05 30.583c-.051 32.027-.042 32.652.482 32.789.289.076.318.254.318 1.978 0 1.872.004 1.895.409 1.996.377.095.413.192.458 1.212.045 1.005.084 1.114.424 1.162.325.046.375.153.375.792 0 .613.054.738.316.738.371 0 .518.312.518 1.097 0 .446.068.57.312.57.236 0 .338.165.421.683.078.485.205.709.438.77.211.055.329.228.329.483 0 .312.088.397.416.397.334 0 .417.083.417.417 0 .333.083.416.417.416.333 0 .416.084.416.417 0 .312.088.417.349.417.206 0 .384.133.434.325.062.237.286.356.818.436.568.085.733.181.733.424 0 .222.119.315.405.315.293 0 .42.103.458.375.046.32.169.382.845.425.636.041.792.111.792.355 0 .334.584.511 1.687.511.521 0 .646.061.646.313 0 .377.579.521 2.104.521.597 0 1.063.073 1.063.166 0 .109 2.722.167 7.833.167 5.111 0 7.833-.058 7.833-.167 0-.096.543-.167 1.292-.168 1.804-.003 2.569-.151 2.665-.517.064-.245.283-.309 1.186-.349.958-.042 1.129-.099 1.269-.417.139-.318.312-.375 1.25-.417.984-.044 1.093-.084 1.142-.423.038-.273.165-.375.463-.375h.411l-.047-1.875c-.045-1.801-.062-1.877-.422-1.929-.362-.051-.375-.116-.375-1.778 0-1.947-.07-2.252-.518-2.252-.287 0-.316-.14-.316-1.57 0-1.432-.036-1.614-.416-2.066-.229-.272-.417-.653-.417-.846 0-.331-.086-.351-1.5-.351-1.483 0-1.5.005-1.5.41 0 .403-.028.412-1.542.459-1.455.045-1.544.069-1.595.423-.052.371-.081.375-2.724.375-2.53 0-2.675.017-2.757.333-.128.488-1.705.488-2.01 0-.187-.299-.389-.333-1.961-.333-1.716 0-1.756-.009-1.911-.417-.133-.349-.267-.417-.829-.417-.558 0-.671-.055-.671-.33 0-.213-.148-.367-.417-.435-.26-.065-.416-.222-.416-.419 0-.199-.117-.316-.316-.316-.197 0-.354-.156-.419-.416-.068-.269-.222-.417-.435-.417-.231 0-.331-.113-.333-.375-.004-.705-.197-1.125-.517-1.125-.272 0-.314-.132-.314-.988 0-.949-.252-1.512-.678-1.512-.094 0-.155-5.912-.155-15.083V40.833h23V27.405l-.484-.286c-.444-.262-1.392-.286-11.5-.286H203.5v-18.5h-2.647c-2.641 0-2.649.002-2.921.417M390 19c.229.179.483.328.564.33.081.002-.043-.147-.276-.33-.233-.183-.487-.332-.564-.33-.077.002.047.151.276.33M98.048 26.167c-.073.278-.228.333-.942.335-1.377.003-2.085.17-2.196.519-.071.222-.258.312-.65.312-.958 0-1.579.192-1.683.52-.075.237-.26.314-.758.314-.542 0-.693.074-.849.416-.156.342-.308.417-.846.417-.516 0-.674.071-.743.335-.048.184-.266.38-.484.435-.231.058-.397.223-.397.393 0 .214-.18.323-.657.399-.8.128-.819.157-.951 1.424-.088.839-.16 1.014-.416 1.014-.253 0-.309.129-.309.71 0 .577-.071.742-.375.875-.322.142-.382.312-.425 1.196-.044.918-.089 1.037-.416 1.083-.311.045-.375.174-.418.844-.042.647-.109.792-.365.792-.246 0-.339.168-.43.772-.064.425-.256.913-.427 1.084-.228.228-.311.555-.311 1.227 0 .867-.023.917-.417.917-.382 0-.416.061-.416.75 0 .413-.07.75-.155.75-.404 0-.679.563-.679 1.389 0 .737-.055.89-.375 1.03-.287.126-.386.326-.425.856-.038.519-.131.712-.375.776-.269.07-.325.232-.325.945 0 .833-.247 1.337-.654 1.337-.103 0-.179.349-.179.822 0 .725-.044.828-.375.875-.32.046-.382.169-.426.845-.036.562-.122.792-.296.792-.325 0-.57.683-.57 1.594 0 .628-.05.739-.333.739-.283 0-.333.111-.333.732 0 .642-.052.745-.417.836-.39.098-.417.173-.417 1.174 0 .981-.03 1.073-.375 1.121-.32.046-.382.17-.425.845-.041.639-.11.792-.358.792-.437 0-.509.314-.506 2.222.003 2.007.094 2.445.512 2.445.28 0 .313.18.355 1.958.045 1.878.063 1.96.416 2.011.346.049.372.147.417 1.583.045 1.444.069 1.534.423 1.584.325.047.375.152.375.808 0 .613.062.77.333.841.27.07.333.227.333.825 0 .565.098.836.417 1.155.229.229.417.554.417.723 0 .169.187.43.416.58.313.204.417.418.417.852 0 .507.052.58.417.58.321 0 .416.086.416.376 0 .207.147.468.325.58.179.111.375.467.436.79.078.416.198.587.413.587.187 0 .323.143.356.375.035.241.188.394.429.428.271.039.375.165.375.459 0 .321.086.405.416.405.308 0 .417.088.417.337 0 .207.162.399.417.496.229.087.416.273.416.413 0 .139.142.254.316.254.197 0 .354.156.419.416.093.367.194.417.852.417.68 0 .747.036.747.405 0 .293.103.42.375.458.241.035.394.188.428.429.046.324.153.375.792.375.618 0 .738.052.738.322 0 .188.156.371.375.44.206.066.473.258.593.428.157.224.426.31.97.31.725 0 1.229.268 1.229.654 0 .103.348.179.821.179.726 0 .828.044.875.375.049.341.156.38 1.179.424.959.042 1.125.094 1.125.353 0 .358.681.51 2.291.513.582.001 1.042.075 1.042.168 0 .11 3.389.167 9.833.167 5.545 0 9.834-.064 9.834-.147 0-.08.947-.178 2.104-.216 1.923-.064 2.131-.102 2.402-.437.251-.31.465-.367 1.385-.367 1.239 0 1.942-.209 1.942-.579 0-.202.224-.254 1.087-.254.998 0 1.102-.034 1.277-.417.161-.353.302-.416.93-.416h.741l-.06-1.327c-.045-.988-.131-1.382-.337-1.542-.222-.172-.288-.586-.335-2.079-.05-1.614-.107-1.931-.43-2.368-.335-.453-.373-.698-.373-2.408 0-1.848-.012-1.913-.417-2.178-.311-.204-.416-.418-.416-.849 0-.686-.394-.853-1.586-.674-.59.088-.748.18-.748.435 0 .283-.121.323-.979.323-1.381 0-2.051.162-2.144.519-.068.259-.295.309-1.603.35-1.436.045-1.527.069-1.577.423l-.053.375h-3.655c-3.433 0-3.676.02-3.989.333-.479.479-2.211.479-2.622 0-.263-.308-.491-.333-2.998-.333-2.551 0-2.713-.019-2.713-.316 0-.404-.313-.518-1.43-.518-.775 0-.903-.044-.903-.315 0-.366-.311-.518-1.057-.518-.338 0-.601-.113-.725-.313-.107-.172-.463-.362-.79-.424-.441-.083-.595-.196-.595-.437 0-.218-.114-.326-.344-.326-.359 0-2.006-1.528-2.201-2.042-.061-.16-.221-.291-.355-.291-.134 0-.267-.169-.297-.375-.034-.241-.187-.394-.428-.429-.268-.038-.375-.165-.375-.446s-.107-.409-.375-.447c-.311-.044-.384-.173-.426-.753-.038-.52-.134-.727-.375-.803-.264-.084-.324-.257-.324-.936 0-.927-.22-1.478-.589-1.478-.191 0-.244-.253-.244-1.167v-1.166h21.094c14.222 0 21.199-.057 21.417-.173.31-.166.322-.421.322-7.064v-6.892l-.417-.273c-.406-.266-.416-.324-.416-2.267 0-1.815-.03-2.014-.334-2.203-.27-.169-.333-.389-.333-1.157 0-.902-.259-1.471-.671-1.471-.08 0-.169-.469-.196-1.042-.043-.895-.102-1.065-.425-1.206-.304-.134-.375-.298-.375-.875 0-.647-.037-.711-.416-.711-.384 0-.417-.06-.417-.765 0-.626-.061-.782-.333-.853-.184-.048-.334-.188-.334-.311s-.182-.396-.404-.606c-.223-.21-.429-.606-.459-.881-.04-.372-.15-.514-.428-.554-.272-.038-.375-.165-.375-.458 0-.321-.087-.405-.417-.405-.333 0-.417-.083-.417-.417 0-.333-.083-.416-.416-.416-.306 0-.417-.089-.417-.334 0-.222-.111-.333-.333-.333-.245 0-.334-.111-.334-.417 0-.333-.083-.416-.416-.416-.334 0-.417-.084-.417-.417 0-.33-.084-.417-.405-.417-.293 0-.42-.103-.458-.375-.034-.234-.188-.394-.412-.426-.197-.028-.393-.185-.436-.35-.052-.199-.302-.335-.747-.406-.477-.076-.694-.203-.757-.441-.071-.274-.226-.335-.853-.335-.705 0-.765-.033-.765-.417 0-.381-.062-.416-.739-.416-.639 0-.745-.051-.791-.375-.049-.341-.157-.38-1.17-.424-.913-.041-1.134-.105-1.214-.357-.122-.387-.56-.506-1.872-.509-.864-.002-1.066-.057-1.214-.335-.175-.326-.349-.334-7.605-.334-7.286 0-7.428.007-7.514.334m62 0c-.08.308-.227.333-1.961.333-2.519 0-3.443.136-3.544.52-.068.26-.298.308-1.686.349-1.515.045-1.61.069-1.659.417-.05.346-.148.371-1.584.416-1.444.045-1.534.069-1.584.423-.05.355-.128.375-1.452.375-1.229 0-1.421.041-1.578.333-.098.184-.345.335-.548.336-.203.001-.537.047-.744.103l-.375.1v60.961h16.5v-50h.834c.481 0 .833-.075.833-.178 0-.632.257-.655 7.393-.655h6.917l.053.375c.051.354.14.378 1.595.423 1.232.038 1.542.098 1.542.296 0 .351.699.573 1.811.573 1.264 0 1.356-.122 1.356-1.799 0-1.241.041-1.431.368-1.696.326-.264.376-.491.435-1.971.059-1.467.106-1.682.382-1.754.286-.075.315-.261.315-2.015V30.5h.416c.404 0 .417-.035.417-1.144 0-1.623-.401-2.023-2.029-2.023-.933 0-1.247-.071-1.658-.375-.439-.325-.752-.382-2.362-.432-1.514-.047-1.929-.116-2.259-.375-.646-.508-16.011-.493-16.144.016m85.667 0c-.08.307-.227.333-1.88.333-2.166 0-2.854.119-2.956.51-.065.25-.322.301-1.743.35-1.49.051-1.698.096-1.969.432-.235.29-.476.375-1.069.375h-.765v2.008c0 1.927.017 2.023.417 2.394.404.374.417.454.417 2.569 0 2.013.026 2.198.333 2.362.294.157.335.359.35 1.714.025 2.317.047 2.36 1.258 2.418.925.045 1.034.013 1.289-.375.258-.394.368-.424 1.588-.424 1.213 0 1.33-.03 1.583-.416.27-.413.296-.417 2.68-.417 2.236 0 2.42-.024 2.585-.333.173-.323.349-.334 5.328-.334 5.003 0 5.153.01 5.256.334.092.291.252.333 1.261.333.904 0 1.155.053 1.155.244 0 .305.513.589 1.061.589.265 0 .454.117.518.32.068.213.319.357.752.43.497.084.662.194.701.472.032.222.19.381.41.413.26.037.387.207.465.623.059.314.249.647.422.74.173.093.339.337.368.544.034.241.187.394.428.428.341.049.375.144.375 1.041 0 .806.061 1.025.334 1.195.308.192.333.388.333 2.584V52h-1.988c-1.936 0-1.99-.01-2.042-.375l-.053-.375-6.209-.044-6.208-.043V52h-2.417c-2.241 0-2.416.022-2.416.309 0 .267-.186.322-1.375.412-1.098.084-1.431.173-1.652.442-.193.235-.477.337-.939.337-.523 0-.72.088-.936.417-.202.308-.419.416-.835.416-.382 0-.687.133-.954.414-.223.235-.583.415-.834.417-.25.001-.61.182-.833.416-.216.228-.561.416-.767.417-.263.002-.375.103-.375.336 0 .245-.111.334-.417.334-.333 0-.417.083-.417.416 0 .334-.083.417-.416.417-.33 0-.417.084-.417.405 0 .293-.104.42-.375.458-.241.035-.394.188-.428.429-.034.241-.168.375-.375.375s-.322.115-.322.321c0 .207-.134.341-.375.375-.227.033-.394.187-.423.392-.027.186-.215.411-.417.5-.282.124-.38.327-.42.87-.04.557-.116.708-.357.708-.348 0-.508.315-.508 1.003 0 .328-.103.507-.333.581-.3.095-.334.252-.334 1.576 0 1.432-.011 1.474-.419 1.576l-.419.105.044 4.538c.044 4.527.045 4.538.419 4.703.35.153.375.267.375 1.708 0 1.418.027 1.544.325 1.544.268 0 .332.136.375.791.042.67.107.8.416.844.3.043.375.177.417.75.042.578.115.707.426.751.271.039.375.165.375.459 0 .321.086.405.416.405.382 0 .417.062.417.738 0 .639.051.746.375.792.241.034.394.187.428.428.033.231.169.375.356.375.166 0 .343.156.393.346.049.19.243.385.43.434.187.049.383.225.436.391.061.192.328.341.734.41.454.077.691.225.823.513.107.235.326.406.521.406.186 0 .337.104.337.232 0 .279.359.435 1.002.435.366 0 .487.086.528.375.049.34.157.379 1.168.424 1.004.044 1.12.085 1.167.416.047.332.162.373 1.168.417.911.04 1.134.105 1.213.355.124.39.749.513 2.609.513.875 0 1.479.068 1.479.166 0 .11 3.472.167 10.083.167 5.992 0 10.083-.062 10.083-.153 0-.084 1.269-.177 2.831-.208 2.715-.053 2.841-.071 3.092-.431.25-.356.372-.375 2.409-.375 2.233 0 3.002-.148 3.002-.579 0-.211.285-.254 1.677-.254.923 0 1.823-.078 2-.173.517-.276.506-39.966-.011-40.288-.311-.195-.333-.39-.335-2.999-.002-3.354-.089-4.04-.514-4.04-.27 0-.31-.176-.353-1.542-.045-1.455-.069-1.544-.423-1.595-.331-.047-.375-.149-.375-.886 0-.926-.219-1.477-.589-1.477-.166 0-.244-.179-.244-.559 0-.365-.144-.715-.417-1.009-.229-.247-.416-.558-.416-.691 0-.132-.15-.241-.334-.241-.215 0-.333-.111-.333-.314 0-.173-.182-.434-.405-.58-.232-.152-.428-.463-.459-.727-.033-.287-.195-.525-.428-.627-.206-.09-.375-.256-.375-.369 0-.113-.168-.294-.375-.402-.206-.109-.54-.374-.742-.59-.202-.215-.558-.391-.791-.391-.314 0-.425-.087-.425-.333 0-.224-.111-.334-.337-.334-.207 0-.399-.161-.496-.416-.133-.349-.268-.417-.826-.417-.573 0-.683-.059-.773-.417-.091-.364-.195-.416-.825-.416-.559 0-.743-.071-.82-.314-.104-.328-.725-.52-1.683-.52-.392 0-.579-.09-.65-.312-.113-.355-.821-.516-2.279-.519-.798-.002-.952-.052-1.026-.335-.086-.329-.227-.334-9.785-.334s-9.699.005-9.785.334m87.759-.016c-.334.263-.745.329-2.353.375-1.799.053-1.969.086-2.211.432-.235.337-.402.376-1.628.378-1.649.002-2.073.102-2.204.515-.079.247-.261.316-.839.316h-.739l-.015.791c-.059 3.158.031 4.292.356 4.521.291.204.326.435.328 2.166.003 2.222.079 2.639.51 2.775.266.085.315.309.357 1.631l.047 1.532h1.084c.996 0 1.087-.03 1.136-.375.051-.358.122-.375 1.625-.375 1.554 0 1.572-.004 1.572-.405v-.405l2.595-.053c2.265-.047 2.616-.091 2.759-.345.271-.486 10.646-.445 10.646.042 0 .301.111.333 1.155.333 1.071 0 1.159.027 1.208.375.046.319.17.383.835.425.659.043.789.108.833.417.032.226.189.386.41.417.197.028.394.189.438.357.054.207.303.344.767.422.672.114.687.132.687.784 0 .525.071.686.33.754.216.056.366.284.437.662.059.317.249.665.421.772.225.14.312.391.312.894 0 .883.251 1.554.58 1.554.214 0 .254.328.254 2.084V52h-1.989c-1.935 0-1.99-.01-2.041-.375l-.054-.375-6.159-.044-6.16-.044-.36.419c-.349.406-.423.419-2.459.419-1.929 0-2.114.027-2.278.333-.122.227-.35.334-.715.335-1.355.004-2.285.208-2.285.502 0 .236-.191.304-1.03.364-.823.06-1.078.148-1.27.437-.138.208-.415.362-.648.362-.541 0-1.052.287-1.052.59 0 .173-.193.244-.671.244-.553 0-.703.072-.86.416-.123.272-.325.417-.579.417-.279 0-.39.095-.39.333 0 .207-.111.334-.294.334-.161 0-.39.155-.509.345-.118.19-.474.454-.79.586-.316.132-.574.339-.574.461 0 .121-.183.304-.408.407-.277.126-.443.374-.518.776-.08.427-.198.591-.423.591-.193 0-.351.158-.416.417-.065.261-.222.417-.42.417-.248 0-.315.122-.315.571 0 .411-.117.663-.417.899-.321.253-.416.481-.416 1 0 .571-.057.681-.375.726-.344.049-.379.153-.424 1.262-.042 1.041-.091 1.208-.353 1.208-.447 0-.511.679-.511 5.417 0 4.692.069 5.423.521 5.542.262.068.308.252.308 1.227 0 .705.069 1.148.179 1.148.386 0 .638.497.687 1.353.045.784.098.903.426.95.271.038.375.165.375.458 0 .29.092.405.323.405.254 0 .347.157.433.735.079.526.201.759.427.818.18.047.317.229.317.42 0 .223.127.356.375.391.241.034.394.187.428.428.039.271.165.375.459.375.321 0 .405.087.405.417 0 .33.084.416.405.416.293 0 .42.104.458.375.033.235.187.394.411.426.197.028.394.189.438.357.054.205.301.344.751.419.464.079.697.213.755.435.065.25.232.322.748.322.569 0 .679.059.769.416.099.395.166.417 1.268.417 1.13 0 1.163.012 1.163.417 0 .404.034.416 1.167.416 1.031 0 1.167.037 1.167.314 0 .421.43.515 2.375.517.97.002 1.625.07 1.625.169 0 .11 3.416.167 9.916.167s9.917-.057 9.917-.167c0-.104.965-.166 2.563-.166 2.937 0 3.616-.094 3.726-.514.069-.264.348-.302 2.582-.35 2.384-.05 2.518-.071 2.754-.428.229-.345.376-.375 1.812-.375H371V43.357l-.375-.054c-.355-.05-.379-.145-.458-1.775-.067-1.385-.141-1.764-.375-1.935-.184-.134-.292-.433-.292-.806 0-.809-.144-1.12-.518-1.12-.263 0-.315-.126-.315-.75 0-.685-.036-.75-.408-.75-.368 0-.412-.077-.458-.792-.044-.676-.106-.799-.426-.845-.271-.038-.375-.165-.375-.458 0-.294-.091-.405-.333-.405-.223 0-.334-.111-.334-.334 0-.244-.111-.333-.416-.333-.334 0-.417-.083-.417-.417 0-.333-.083-.416-.417-.416-.333 0-.416-.084-.416-.417 0-.333-.084-.417-.417-.417-.333 0-.417-.083-.417-.416 0-.334-.083-.417-.416-.417-.306 0-.417-.089-.417-.333 0-.222-.111-.334-.332-.334-.182 0-.426-.152-.542-.337-.119-.193-.463-.379-.802-.433-.389-.062-.646-.219-.75-.454-.126-.287-.341-.376-1.074-.442-.747-.068-.947-.153-1.081-.459-.137-.311-.296-.375-.939-.375-.613 0-.791-.064-.855-.308-.09-.343-.837-.52-2.213-.523-.63-.002-.909-.085-1.123-.335-.437-.51-19.168-.524-19.815-.016m49.743.916c-.074.129-.321.26-.55.292l-.417.058V90.75l8.292.043 8.291.043-.004-31.709-.004-31.71-.586-.292c-.802-.399-14.797-.453-15.022-.058m-274.178 12.6c.155.249.388.333.922.333.608 0 .737.062.872.417.132.347.268.416.818.416.557 0 .667.059.712.375.035.241.188.394.429.429.241.034.375.168.375.375 0 .209.115.321.33.321.213 0 .367.148.435.417.063.254.223.417.408.417.188 0 .324.142.357.375.034.241.187.394.428.428.268.038.375.166.375.446 0 .221.183.537.417.721.323.254.416.481.416 1.011 0 .502.088.738.334.891.212.132.334.39.335.709.004 1.1.197 1.752.52 1.752.276 0 .311.14.311 1.25V52H91.667v-.833c0-.707.048-.834.315-.834.403 0 .518-.312.518-1.411 0-.743.053-.897.333-.97.273-.072.334-.228.334-.853 0-.706.032-.766.416-.766.383 0 .417-.061.417-.75 0-.689.034-.75.417-.75.33 0 .416-.084.416-.405 0-.293.104-.42.375-.458.241-.034.394-.187.429-.428.034-.241.168-.375.375-.375.204 0 .321-.115.321-.316 0-.197.156-.354.417-.419.269-.068.417-.222.417-.435 0-.232.112-.33.377-.33.231 0 .441-.145.541-.375.121-.276.331-.389.789-.427.502-.042.645-.131.727-.458.095-.379.176-.407 1.183-.407.94 0 1.092-.043 1.168-.333.083-.32.227-.334 3.483-.334 3.215 0 3.407.018 3.604.334m154.213 23.708c.154.351.28.378 1.956.422l1.792.048V79h-2.224c-2.013 0-2.253.032-2.526.333-.468.517-6.997.517-7.132 0-.078-.3-.227-.333-1.498-.333-1.871 0-2.453-.124-2.453-.521 0-.263-.13-.312-.822-.312-.725 0-.828-.044-.875-.375-.044-.312-.173-.384-.762-.427-.626-.045-.708-.098-.708-.458 0-.323-.086-.407-.417-.407-.363 0-.416-.073-.416-.574 0-.372-.11-.651-.312-.792-.177-.124-.365-.534-.435-.947-.086-.51-.217-.752-.438-.81-.484-.127-.485-4.044-.001-4.044.244 0 .339-.165.426-.741.079-.529.204-.771.435-.845.179-.056.325-.243.325-.414 0-.171.146-.357.324-.414.179-.056.369-.241.423-.41.053-.168.245-.345.425-.392.18-.047.328-.2.328-.34s.168-.278.375-.307c.206-.029.449-.222.539-.428.128-.292.302-.375.781-.375.808 0 1.471-.262 1.471-.58 0-.208.266-.254 1.492-.254 1.526 0 2.342-.212 2.342-.61 0-.458 7.382-.31 7.585.152m88.051.042c.186.407.229.416 2.027.416h1.837v15.143l-2.512.054c-2.185.046-2.534.091-2.675.345-.269.481-6.735.442-6.862-.042-.078-.301-.228-.333-1.561-.335-1.758-.003-2.18-.097-2.313-.516-.078-.247-.26-.315-.839-.315-.406 0-.738-.07-.738-.155 0-.314-.538-.679-1.001-.679-.367 0-.488-.086-.529-.375-.035-.241-.188-.394-.429-.428-.232-.033-.375-.169-.375-.357 0-.185-.163-.344-.416-.408-.365-.092-.417-.195-.417-.834 0-.56-.096-.82-.414-1.122-.639-.606-.641-4.238-.003-4.877.267-.266.417-.604.417-.936 0-.517.315-.996.655-.996.098 0 .178-.187.178-.417 0-.328.085-.416.398-.416.246 0 .427-.117.477-.309.056-.211.298-.343.77-.418.539-.087.689-.182.689-.442 0-.28.112-.331.73-.331.596 0 .782-.077 1.004-.417.261-.398.348-.417 1.907-.417 1.527 0 1.659-.027 2.025-.416l.392-.417h7.388l.19.417m-41.303 12c.114.137.282.25.374.25.093 0 .075-.111-.041-.25-.114-.138-.282-.25-.374-.25-.093 0-.075.11.041.25"/><path fill="#6c64fc" d="M387.667.167c0 .091-.357.167-.792.169-1.087.003-1.542.149-1.542.496 0 .265-.793.602-1.222.519-.077-.015-.179.125-.228.311-.078.296-.346.423-.758.358-.069-.011-.125.162-.125.385 0 .293-.104.42-.375.458-.311.045-.384.173-.426.752-.041.572-.116.707-.416.75-.31.044-.374.174-.417.843-.046.715-.156.873-.565.815-.51-.073-.375 6.38.143 6.799.246.199.38.525.421 1.026.051.61.124.744.431.789.267.038.371.166.371.458 0 .321.086.405.416.405.301 0 .417.09.417.322 0 .177.15.37.333.428.303.096.408.281.353.625-.01.069.163.125.386.125.293 0 .42.104.458.375.046.32.169.382.845.426.715.046.792.09.792.458 0 .38 1.991.615 3.602.425.103-.012.29.104.417.258.21.254.197.261-.144.079-.241-.128-.375-.138-.375-.027 0 .095.093.179.208.187.115.007.533.038.93.069.397.03.682.014.633-.034-.315-.316.486-.549 1.883-.549.865 0 1.512-.069 1.512-.162 0-.089.117-.116.26-.061.174.066.291-.019.353-.256.06-.231.225-.355.472-.355.265 0 .411-.125.484-.416.097-.387.686-.561 1.473-.437.069.011.125-.159.125-.379 0-.29.118-.428.432-.507.267-.067.399-.193.346-.331-.114-.296.201-.594.505-.477.146.056.228.001.207-.138-.056-.372.205-1.315.364-1.315.08 0 .146-1.95.146-4.333 0-2.778-.06-4.333-.167-4.333-.091 0-.167-.244-.169-.542-.003-.622-.128-.855-.539-1.007-.16-.059-.292-.26-.292-.446 0-.248-.109-.339-.405-.339-.293 0-.42-.103-.458-.375-.034-.241-.187-.394-.428-.428-.272-.038-.375-.165-.375-.458 0-.368-.068-.405-.732-.405-.642 0-.745-.052-.837-.417-.094-.375-.188-.417-.935-.417-.456 0-.83-.075-.83-.166 0-.105-1.139-.167-3.083-.167-1.944 0-3.083.062-3.083.167M301.29 72.186c-.167.231-.551.299-2.013.356-1.746.067-1.952.13-2.149.661-.025.066-.345.142-.711.169-.545.041-.677.119-.72.423-.039.268-.166.372-.459.372-.321 0-.405.086-.405.416 0 .334-.083.417-.416.417-.301 0-.417.09-.417.322 0 .177-.145.368-.323.425-.177.056-.346.267-.375.469-.034.239-.169.367-.385.367-.279 0-.342.128-.384.776-.043.666-.108.79-.461.879l-.411.103.044 4.205.045 4.204.375.053c.323.046.375.153.375.78s.052.734.375.78c.241.035.394.188.428.429.034.241.168.375.375.375.232 0 .322.116.322.416 0 .334.083.417.417.417.304 0 .416.089.416.33 0 .213.148.367.417.435.372.093.488.249.441.595-.008.061.358.161.814.224.456.063.828.182.828.265 0 .213 9.29.198 9.361-.014.048-.142.436-.227 1.431-.316.115-.011.208-.164.208-.341 0-.207.134-.341.375-.375.241-.034.394-.187.429-.428.031-.222.169-.375.338-.375.476 0 1.012-.485 1.158-1.049.095-.368.238-.533.461-.534.208 0 .342-.134.376-.375.029-.207.118-.375.196-.375.425 0 .667-.572.667-1.577 0-.89.044-1.049.285-1.03.527.043.681-4.856.162-5.176-.102-.063-.111-.013-.024.132.12.199.099.2-.141.005-.201-.163-.282-.484-.282-1.115 0-.487-.076-.933-.169-.991-.093-.058-.123-.18-.067-.271.057-.092-.054-.208-.247-.258-.232-.061-.35-.225-.35-.489 0-.312-.089-.397-.417-.397-.321 0-.416-.086-.416-.377 0-.23-.147-.444-.375-.548-.207-.094-.357-.262-.334-.373.024-.115-.136-.202-.375-.202-.333 0-.416-.083-.416-.417 0-.328-.085-.416-.399-.416-.286 0-.428-.118-.503-.417-.092-.367-.194-.417-.852-.417-.621 0-.746-.053-.746-.315 0-.448-.305-.518-2.264-.518-1.674 0-1.811-.04-1.767-.508.022-.237-1.158-.066-1.346.194"/></g></svg>