<svg xmlns="http://www.w3.org/2000/svg" role="img" viewBox="198.00 206.50 858.00 287.00"><title>Weka.io WekaIO (Hardware Acceleration) logo</title><style>svg {enable-background:new 0 0 1250 703}</style><path d="M553.8 267.8c-6.6 0-11.9 5.3-11.9 11.9v99c0 6.6 5.3 11.9 11.9 11.9 6.6 0 11.9-5.3 11.9-11.9v-99c.1-6.7-5.3-12-11.9-11.9m89.2 4.5c-4.6-4.6-12.2-4.6-16.8 0l-48.8 48.5c-4.6 4.6-4.7 12.1-.1 16.8l.1.1 48.8 48.5c4.4 4.9 12 5.2 16.8.8 4.9-4.4 5.2-12 .8-16.8-.3-.3-.6-.6-.9-.8l-40.3-40.1L643 289c4.7-4.7 4.7-12.2 0-16.9m335.7 94.7c-20.5 0-37.1-16.6-37.1-37.1s16.6-37.1 37.1-37.1 37.1 16.6 37.1 37.1-16.6 37.1-37.1 37.1m0-98c-33.7 0-61 27.3-61 61s27.3 61 61 61 61-27.3 61-61v-.1c-.1-33.7-27.3-61-61-60.9 0-.1 0-.1 0 0"/><path fill="#239b4b" d="M833.9 364.2c-8.3 0-15.1 6.8-15.1 15.1s6.8 15.1 15.1 15.1 15.1-6.8 15.1-15.1c0-4-1.6-7.9-4.4-10.7-2.9-2.8-6.7-4.4-10.7-4.4m49.7-141.1c-8.3 0-15.1 6.8-15.1 15.1s6.8 15.1 15.1 15.1 15.1-6.8 15.1-15.1c0-4-1.6-7.9-4.4-10.7-2.8-2.8-6.7-4.4-10.7-4.4"/><path d="M467.5 315.2c-6.6.2-11.8 5.7-11.6 12.3.2 6.3 5.3 11.4 11.6 11.6h34.4c6.6-.2 11.8-5.7 11.6-12.3-.2-6.3-5.3-11.4-11.6-11.6h-34.4z"/><path d="M521.8 279.6c0-6.6-5.3-11.9-11.9-11.9h-79.5c-6.6 0-11.9 5.3-12 11.9v99c0 6.6 5.3 11.9 11.9 11.9h79.5c6.6.2 12.1-4.9 12.3-11.5.2-6.6-4.9-12.1-11.5-12.3h-68.4v-75.1h67.5c6.7 0 12.1-5.3 12.1-12 0 .1 0 0 0 0m361.8-11.8c-6.6 0-11.9 5.3-11.9 11.9v99c0 6.6 5.3 11.9 11.9 11.9s11.9-5.3 11.9-11.9v-99c0-6.7-5.3-12-11.9-11.9m-145.9 5.9c-3.3-5.7-10.5-7.7-16.2-4.5-1.8 1.1-3.4 2.6-4.4 4.4l-56.6 99c-3.5 5.6-1.8 12.9 3.7 16.4 5.6 3.5 12.9 1.8 16.4-3.7.1-.1.2-.3.3-.5l.2-.4 12.8-22.5h35c6.6 0 11.9-5.3 11.9-11.9 0-6.6-5.3-11.9-11.9-11.9h-21.4l19.8-34.7 46.2 80.9c3.1 5.8 10.4 7.9 16.2 4.8 5.8-3.1 7.9-10.4 4.8-16.2l-.2-.4-56.6-98.8zm-343.3-4.8c-5.9-2.9-13.1-.5-16 5.4v.1l-37.6 77-37.6-77c-2.9-5.9-10-8.4-16-5.5-5.9 2.9-8.4 10-5.5 16l48.3 99c2.9 5.9 10 8.4 15.9 5.5 2.4-1.2 4.3-3.1 5.5-5.5l48.3-99c3-5.8.6-13-5.3-16m-102.2 73.5c-5.9-2.9-13-.4-15.9 5.5l-1.7 3.5-37.6-77c-3.2-5.8-10.4-7.9-16.2-4.7-5.4 2.9-7.6 9.5-5.2 15.1l48.3 99c2.9 5.9 10 8.4 15.9 5.5 2.4-1.2 4.3-3.1 5.5-5.5l12.4-25.5c2.9-5.8.4-12.9-5.5-15.9"/><path stroke="#000" stroke-miterlimit="10" stroke-width=".64" d="M402.2 425.8l-12.8 40.9h-2.6l-12.1-35.5c-.1-.5-.3-1-.4-1.5-.1.5-.3 1-.4 1.5l-12.1 35.5h-2.6l-12.8-40.9h2.5c.5 0 .9.3 1.1.8l10.3 33.6c.2.8.4 1.6.6 2.6.1-.5.2-1 .3-1.4l.3-1.2 11.5-33.6c.1-.2.2-.4.4-.5.2-.2.4-.2.7-.2h.8c.2 0 .5.1.7.2.2.2.3.3.4.6l11.6 33.6c.1.4.3.8.4 1.2.1.5.2.9.3 1.4.1-.5.2-.9.3-1.4.1-.4.2-.9.3-1.2l10.3-33.6c.1-.2.2-.4.4-.5.2-.2.4-.2.7-.2l1.9-.2zm14.6 11.7c1.9 0 3.8.3 5.5 1 1.6.7 3 1.7 4.1 3 1.1 1.4 2 3 2.6 4.7 1.2 4 1.2 8.2 0 12.2-.5 1.7-1.4 3.3-2.6 4.7-1.1 1.3-2.5 2.3-4.1 3-3.6 1.4-7.5 1.4-11.1 0-1.6-.7-3-1.7-4.1-3-1.2-1.4-2-2.9-2.6-4.7-1.2-4-1.2-8.2 0-12.2.5-1.7 1.4-3.3 2.6-4.7 1.1-1.3 2.5-2.3 4.1-3 1.8-.7 3.7-1.1 5.6-1zm0 27.4c1.5 0 3.1-.3 4.5-.9 1.3-.6 2.4-1.4 3.2-2.5.9-1.2 1.6-2.6 1.9-4 .8-3.4.8-7 0-10.4-.4-1.4-1-2.8-1.9-4-.8-1.1-1.9-2-3.2-2.6-2.9-1.2-6.1-1.2-9 0-1.3.6-2.4 1.4-3.2 2.6-.9 1.2-1.6 2.6-1.9 4-.9 3.4-.9 7 0 10.4.4 1.4 1 2.8 1.9 4 .8 1.1 1.9 2 3.2 2.5 1.4.6 3 .9 4.5.9zm23.5-20c.4-1.1.9-2.2 1.5-3.1.5-.9 1.2-1.7 2-2.3.7-.6 1.6-1.1 2.5-1.5 1-.4 2-.5 3.1-.5.6 0 1.2.1 1.8.2.5.1 1.1.3 1.5.6l-.2 1.9c0 .3-.3.5-.5.5-.4 0-.7-.1-1.1-.2-.6-.1-1.2-.2-1.9-.2-1 0-2 .1-3 .5-.9.3-1.7.9-2.3 1.5-.7.7-1.3 1.6-1.8 2.5-.6 1.1-1 2.3-1.4 3.4v18.6h-2.7v-28.7h1.5c.2 0 .5 0 .7.2.2.2.3.4.3.7v5.9zm20.8-20.2v42h-2.8v-42h2.8zm32.1 0v42h-1.5c-.4 0-.8-.3-.9-.7h0l-.3-4.5c-1.2 1.7-2.7 3.1-4.5 4.1-1.7 1.1-3.7 1.6-5.7 1.6-3.2.2-6.3-1.2-8.3-3.7-2-2.4-2.9-6.1-2.9-11 0-2 .3-4 .8-5.9.5-1.7 1.3-3.4 2.4-4.8 1-1.3 2.4-2.4 3.9-3.2 1.7-.8 3.5-1.2 5.4-1.2 1.7-.1 3.5.3 5.1 1 1.5.7 2.8 1.8 3.7 3.2v-17h2.8zm-2.8 19.4c-2.8-4.1-8.2-5.7-12.7-3.6-1.3.6-2.4 1.5-3.2 2.6-.9 1.2-1.5 2.6-1.9 4-.5 1.7-.7 3.4-.7 5.2 0 4.3.8 7.4 2.4 9.4 1.6 2.1 4.2 3.2 6.8 3 1.8 0 3.6-.5 5.2-1.5 1.6-1.1 3.1-2.5 4.1-4.1v-15zm14.2-21.1c.7 1.2 1.1 2.4 1.4 3.8.2 1.3.3 2.7.1 4-.2 1.3-.5 2.6-1.1 3.8-.6 1.2-1.3 2.3-2.3 3.2l-.8-.5c-.1-.1-.2-.2-.2-.4 0-.1.1-.3.2-.4.6-.8 1.1-1.7 1.4-2.7.3-1 .5-2 .6-3.1.1-1 0-2.1-.2-3.1s-.6-1.9-1-2.8c-.3-.5-.2-.9.3-1.1l1.6-.7zm24.5 18.5c-.1.3-.4.4-.7.4-.3 0-.6-.2-.8-.4-.4-.3-.9-.6-1.3-.8-.6-.3-1.3-.6-2-.8-1-.3-1.9-.4-2.9-.3-1 0-1.9.1-2.9.4-.8.3-1.5.7-2.2 1.2-.6.5-1.1 1.1-1.4 1.8-.3.7-.5 1.4-.5 2.1 0 .8.2 1.6.7 2.2.5.6 1.1 1.2 1.8 1.6.8.4 1.7.8 2.6 1l2.9.9c1 .3 2 .6 2.9 1 .9.3 1.8.8 2.6 1.4.7.6 1.3 1.2 1.8 2 .5.9.7 1.9.7 2.9 0 1.2-.2 2.4-.7 3.5-.4 1.1-1.1 2-2 2.8-.9.8-2 1.5-3.2 1.9-1.4.5-2.8.7-4.3.7-1.8 0-3.6-.3-5.3-1-1.4-.6-2.8-1.5-3.9-2.5l.6-1c.1-.1.2-.3.3-.3.2-.1.3-.1.5-.1.3.1.7.2.9.5.4.4.9.7 1.4 1 .7.4 1.4.7 2.2 1 2.1.6 4.3.6 6.4 0 .9-.3 1.6-.8 2.3-1.4.6-.6 1.1-1.3 1.4-2 .3-.8.5-1.6.5-2.5 0-.8-.2-1.7-.7-2.4-.5-.7-1.1-1.2-1.8-1.6-.8-.5-1.7-.9-2.6-1.1l-2.9-.9c-1-.3-2-.6-2.9-1-.9-.3-1.8-.8-2.6-1.4-.7-.5-1.4-1.2-1.8-2-.5-.9-.7-2-.7-3s.2-2 .7-2.9c.5-.9 1.1-1.8 1.9-2.5.9-.8 1.9-1.3 3-1.7 1.3-.5 2.6-.7 4-.6 1.6-.1 3.2.2 4.7.6 1.4.5 2.6 1.3 3.7 2.3l-.4 1zm28.7-13.2v17.2h18.6v2.5h-18.6v18.8h-3v-40.9h24.5v2.5h-21.5zm23.1 13.7c1.4-1.4 3-2.6 4.7-3.4 1.8-.8 3.7-1.2 5.6-1.2 1.4 0 2.8.2 4 .7 1.1.5 2.1 1.2 2.9 2.1.8 1 1.4 2.1 1.7 3.3.4 1.4.6 2.9.6 4.3v18.7h-1c-.5 0-1-.3-1-.8l-.4-3.7c-.7.7-1.5 1.4-2.4 2.1-.8.6-1.6 1.2-2.4 1.6-.9.4-1.8.8-2.7 1-1.1.2-2.1.3-3.2.3-1 0-1.9-.1-2.9-.4-.9-.2-1.8-.7-2.6-1.3-.7-.6-1.3-1.4-1.7-2.3-.5-1.1-.7-2.2-.7-3.3 0-1.2.4-2.4 1.1-3.4.8-1.2 1.9-2.1 3.1-2.7 1.8-.9 3.7-1.5 5.7-1.9 2.8-.5 5.6-.8 8.4-.8v-3c.1-2.2-.5-4.4-1.7-6.1-1.3-1.5-3.2-2.2-5.1-2.1-1.2 0-2.4.2-3.5.6-.9.3-1.7.7-2.5 1.3-.6.4-1 .8-1.6 1.3-.3.3-.6.5-1 .6-.2 0-.4 0-.5-.1-.1-.1-.3-.2-.3-.4l-.6-1zm16.9 10.8c-2.4.1-4.7.3-7.1.7-1.7.3-3.3.7-4.8 1.4-1.1.5-2.1 1.2-2.8 2.1-.6.8-.9 1.7-.9 2.7 0 .9.1 1.7.5 2.5.3.7.7 1.3 1.3 1.7.5.5 1.2.8 1.8 1 .7.2 1.4.3 2.2.3 1 0 2.1-.1 3.1-.4.9-.2 1.8-.6 2.6-1 .8-.5 1.5-1 2.2-1.6.7-.6 1.4-1.2 2-1.9l-.1-7.5zm27.7-11.3c-.1.3-.4.4-.7.4-.3 0-.6-.2-.8-.4-.4-.3-.9-.6-1.3-.8-1.5-.8-3.3-1.2-5-1.2-1 0-1.9.1-2.8.4-.8.3-1.5.7-2.2 1.2-.6.5-1.1 1.1-1.4 1.8-.3.7-.5 1.4-.5 2.1 0 .8.2 1.6.7 2.2.5.6 1.1 1.2 1.8 1.6.8.4 1.7.8 2.6 1l2.9.9c1 .3 2 .6 2.9 1 .9.3 1.8.8 2.6 1.4.7.6 1.4 1.3 1.8 2 .5.9.7 1.9.7 2.9 0 1.2-.2 2.4-.7 3.5-.4 1.1-1.1 2-1.9 2.8-.9.8-2 1.5-3.2 1.9-1.4.5-2.8.7-4.3.7-1.8 0-3.6-.3-5.3-1-1.4-.6-2.8-1.5-3.9-2.5l.6-1c.1-.1.2-.3.3-.3.1-.1.3-.1.5-.1.3.1.7.2.9.5.4.4.9.7 1.4 1 .7.4 1.4.7 2.2 1 1 .3 2.1.5 3.2.5s2.2-.1 3.2-.5c.9-.3 1.6-.8 2.3-1.4.6-.6 1.1-1.3 1.4-2 .3-.8.5-1.6.5-2.5 0-.8-.2-1.7-.7-2.4-.5-.7-1.1-1.2-1.8-1.6-.8-.5-1.7-.8-2.6-1.1l-2.9-.9c-1-.3-2-.6-2.9-1-.9-.3-1.8-.8-2.6-1.4-.7-.5-1.4-1.2-1.8-2-.5-.9-.7-2-.7-3s.2-2 .7-2.9c.5-.9 1.1-1.8 1.9-2.5.9-.8 1.9-1.3 3-1.7 1.3-.5 2.6-.7 3.9-.6 1.6 0 3.2.2 4.7.7 1.4.5 2.6 1.3 3.7 2.3l-.4 1zm16.6 25.6c-1.7.1-3.3-.5-4.6-1.6-1.2-1.4-1.8-3.2-1.6-5v-19.6h-4.2c-.2 0-.4 0-.5-.2-.1-.1-.2-.3-.2-.5v-1l4.9-.3.7-10.3c0-.2.1-.3.2-.5.1-.1.3-.2.5-.2h1.3v11h9.1v2h-9.1v19.5c0 .7.1 1.4.3 2 .2.5.5 1 .8 1.4.4.4.8.6 1.3.8.5.2 1.1.3 1.6.3.6 0 1.2-.1 1.8-.3.5-.2.9-.4 1.3-.7.3-.2.6-.4.9-.7.1-.2.3-.3.5-.3s.4.1.5.3l.7 1.2c-.8.8-1.7 1.5-2.8 1.9-.9.6-2.2.8-3.4.8zm12.8-15.9v.6c0 1.9.2 3.8.7 5.7.4 1.5 1.1 2.9 2.1 4.1.9 1.1 2.1 1.9 3.3 2.5 1.4.6 2.9.9 4.4.8 1.3 0 2.5-.1 3.8-.5.9-.3 1.8-.6 2.7-1.1.6-.3 1.2-.7 1.7-1 .3-.2.6-.4.9-.5.2 0 .4.1.6.3l.7.9c-.5.6-1.1 1.2-1.8 1.6-.8.5-1.7.9-2.6 1.3-1 .4-2 .7-3 .9-1.1.2-2.1.3-3.2.3-1.8 0-3.7-.3-5.4-1-1.6-.7-3-1.7-4.1-3-1.2-1.4-2.1-3-2.7-4.8-.7-2.1-1-4.3-.9-6.5 0-1.9.3-3.9.9-5.7.5-1.6 1.4-3.2 2.5-4.5 1.1-1.3 2.5-2.3 4.1-3 1.7-.7 3.6-1.1 5.5-1 1.5 0 3.1.3 4.5.8s2.6 1.4 3.6 2.4c1.1 1.1 1.9 2.5 2.4 3.9.6 1.7.9 3.5.9 5.4 0 .3 0 .6-.2.9-.1.2-.4.3-.6.2h-20.8zm19.3-1.8c0-1.4-.2-2.8-.7-4.2-.4-1.1-1-2.2-1.8-3.1-.8-.8-1.7-1.5-2.8-2-1.1-.5-2.4-.7-3.6-.7-1.4 0-2.7.2-4 .7-1.1.4-2.2 1.1-3 2-.9.9-1.6 2-2.1 3.1-.5 1.3-.9 2.7-1 4.1l19 .1zm25.7-7.9c-.1.3-.4.4-.7.4-.3 0-.6-.2-.8-.4-.4-.3-.9-.6-1.3-.8-1.5-.8-3.2-1.2-5-1.2-1 0-1.9.1-2.9.4-.8.3-1.5.7-2.2 1.2-.6.5-1.1 1.1-1.4 1.8-.3.7-.5 1.4-.5 2.1 0 .8.2 1.6.7 2.2.5.6 1.1 1.2 1.8 1.6.8.4 1.7.8 2.6 1l2.9.9c1 .3 2 .6 2.9 1 .9.3 1.8.8 2.6 1.4.8.6 1.4 1.3 1.8 2.1.5.9.7 1.9.7 2.9 0 1.2-.2 2.4-.7 3.5-.4 1.1-1.1 2-2 2.8-.9.8-2 1.5-3.2 1.9-1.4.4-2.8.6-4.2.6-1.8 0-3.6-.3-5.3-1-1.4-.6-2.8-1.5-3.9-2.5l.6-1 .3-.3c.2-.1.3-.1.5-.1.3 0 .7.2.9.5.4.4.9.7 1.4 1 .7.4 1.4.8 2.2 1 2.1.6 4.3.6 6.4 0 .9-.3 1.6-.8 2.3-1.4.6-.6 1.1-1.3 1.4-2 .3-.8.5-1.6.5-2.5 0-.9-.2-1.7-.7-2.4-.5-.7-1.1-1.2-1.8-1.6-.8-.5-1.7-.9-2.6-1.1l-2.9-.9c-1-.3-2-.6-2.9-1.1-.9-.3-1.8-.8-2.6-1.4-.7-.5-1.4-1.2-1.8-2-.5-.9-.7-2-.7-3s.2-2 .7-2.9c.5-1 1.1-1.8 1.9-2.5.9-.7 1.9-1.3 3-1.7 1.3-.4 2.6-.7 4-.6 1.6 0 3.2.2 4.7.8 1.4.5 2.6 1.3 3.7 2.3l-.4 1zm16.6 25.6c-1.7.1-3.3-.5-4.5-1.6-1.2-1.4-1.8-3.2-1.6-5v-19.6h-4.1c-.2 0-.4 0-.5-.2-.1-.1-.2-.3-.2-.5v-1l4.9-.3.7-10.3c0-.2.1-.3.2-.5.1-.1.3-.2.5-.2h1.3v11h9.1v2h-9.1v19.5c0 .7.1 1.4.3 2 .2.5.5 1 .8 1.4.3.4.8.6 1.2.8 1.1.4 2.3.4 3.4 0 .5-.2.9-.4 1.3-.7.3-.2.6-.4.9-.7.1-.2.3-.3.5-.3s.4.1.5.3l.8 1.2c-.8.8-1.7 1.5-2.8 1.9-1.2.6-2.4.8-3.6.8zm31.9-38.8v17.2H767v2.5h-18.6v18.8h-3v-40.9h24.5v2.5h-21.5zm32.3-.3c0 .3-.1.7-.2 1-.1.3-.3.6-.6.8-.2.2-.5.4-.8.5-.6.3-1.3.3-2 0-.3-.1-.6-.3-.8-.5-.2-.2-.4-.5-.5-.8-.1-.3-.2-.6-.2-1 0-.7.3-1.3.8-1.8.2-.2.5-.4.8-.5.3-.1.6-.2 1-.2.7 0 1.3.3 1.8.7.2.2.4.5.6.8.1.3.1.7.1 1zm-1.1 9.9v28.7h-2.7v-28.7h2.7zm12.8-13.2v42h-2.8v-42h2.8zm10.7 26.5v.6c0 1.9.2 3.8.7 5.7.4 1.5 1.2 2.9 2.2 4.1.9 1.1 2 1.9 3.3 2.5 1.4.6 2.9.9 4.4.8 1.3 0 2.5-.1 3.8-.5.9-.3 1.8-.6 2.7-1.1.6-.3 1.2-.7 1.7-1 .3-.2.6-.4.9-.5.2 0 .4.1.6.3l.8.9c-.5.6-1.1 1.2-1.8 1.6-.8.5-1.6.9-2.5 1.3-1 .4-2 .7-3 .9-1.1.2-2.1.3-3.2.3-1.8 0-3.7-.3-5.4-1-1.6-.7-3-1.7-4.2-3-1.2-1.4-2.1-3-2.7-4.8-.7-2.1-1-4.3-.9-6.5 0-1.9.3-3.9.9-5.7.6-1.7 1.4-3.2 2.6-4.5 1.1-1.3 2.5-2.3 4.1-3 1.7-.7 3.6-1.1 5.5-1 1.5 0 3.1.3 4.5.8s2.6 1.4 3.6 2.4c1.1 1.1 1.9 2.5 2.4 3.9.6 1.7.9 3.5.9 5.4 0 .3 0 .6-.2.9-.1.2-.4.3-.6.2h-21.1zm19.2-1.8c0-1.4-.2-2.8-.6-4.2-.4-1.1-1-2.2-1.8-3.1-.8-.8-1.7-1.4-2.8-1.9-1.1-.5-2.4-.7-3.6-.7-1.4 0-2.7.2-4 .7-1.1.4-2.2 1.1-3 2-.9.9-1.6 2-2.1 3.2-.6 1.3-.9 2.7-1 4.1l18.9-.1zm46.8-18.6c-.1.3-.4.5-.7.5-.4-.1-.7-.3-1-.5-.5-.4-1-.8-1.6-1.2-.8-.5-1.6-.9-2.5-1.2-1.2-.4-2.5-.6-3.7-.5-1.3 0-2.7.2-3.9.6-1 .4-2 1-2.8 1.7-.7.7-1.3 1.6-1.7 2.6-.4 1-.6 2-.6 3 0 1.2.3 2.4.9 3.4.6.9 1.4 1.7 2.3 2.3 1 .7 2.1 1.2 3.2 1.6 1.2.4 2.5.9 3.8 1.3 1.3.4 2.6.9 3.8 1.4 1.1.5 2.2 1.1 3.2 1.9 1 .8 1.8 1.8 2.3 2.9.6 1.3.9 2.8.9 4.2 0 1.6-.3 3.3-.9 4.8-.6 1.5-1.4 2.8-2.6 3.9-1.2 1.2-2.5 2.1-4.1 2.7-1.8.7-3.7 1-5.6 1-2.4.1-4.8-.4-7-1.4-1.9-1-3.7-2.3-5.1-3.9l.8-1.3c.2-.3.5-.4.8-.4.3 0 .5.2.7.3l1 .9c.4.3.8.7 1.4 1.1.6.4 1.2.8 1.9 1.1.8.4 1.6.6 2.5.9 1.1.2 2.1.4 3.2.3 1.5 0 2.9-.2 4.3-.7 1.2-.4 2.3-1.1 3.2-2 .9-.8 1.6-1.9 2-3 .5-1.2.7-2.5.7-3.7 0-1.3-.3-2.5-.9-3.6-.6-.9-1.4-1.7-2.3-2.3-1-.7-2-1.2-3.1-1.6-1.2-.4-2.5-.8-3.8-1.2-1.3-.4-2.6-.9-3.8-1.4-1.2-.5-2.3-1.1-3.3-1.9-.9-.8-1.7-1.8-2.3-2.9-.6-1.4-.9-2.9-.9-4.4 0-1.4.3-2.7.8-4 .5-1.3 1.3-2.4 2.3-3.4 1.1-1 2.3-1.8 3.7-2.3 1.6-.6 3.3-.9 5-.9 1.9 0 3.9.3 5.7 1.1 1.7.7 3.3 1.7 4.6 3.1l-.8 1.1zm31.4 7.1L884 476c-.1.2-.3.5-.5.7-.2.2-.5.3-.8.3h-2l5.1-11.2-12.1-27.8h2.3c.2 0 .5.1.7.2.2.1.3.3.4.5l9.6 22.4.3.9.2.9.3-.9.3-.9 9.6-22.4c.1-.2.3-.4.5-.5.2-.1.4-.2.6-.2l2-.1zm21.1 3.6c-.1.3-.4.4-.7.4-.3 0-.6-.2-.8-.4-.4-.3-.9-.6-1.3-.8-.6-.3-1.3-.6-2-.8-1-.3-2-.4-3-.3-1 0-1.9.1-2.8.4-.8.3-1.5.7-2.2 1.2-.6.5-1.1 1.1-1.4 1.8-.3.6-.5 1.4-.5 2.1 0 .8.2 1.6.7 2.2.5.6 1.1 1.2 1.8 1.6.8.4 1.7.8 2.6 1l2.9.9c1 .3 2 .6 2.9 1 .9.3 1.8.8 2.6 1.4.7.5 1.3 1.2 1.8 2 .5.9.7 1.9.7 2.9 0 1.2-.2 2.4-.7 3.5-.4 1.1-1.1 2-1.9 2.8-.9.8-2 1.5-3.2 1.9-1.4.5-2.8.7-4.3.7-1.8 0-3.6-.3-5.3-1-1.4-.6-2.7-1.5-3.9-2.5l.6-1c.1-.1.2-.3.3-.3.2-.1.3-.1.5-.1.3.1.7.2.9.5.4.4.9.7 1.4 1 .7.4 1.4.8 2.2 1 1 .3 2.1.5 3.2.5s2.2-.1 3.2-.5c.9-.3 1.6-.8 2.3-1.4.6-.6 1.1-1.3 1.4-2 .3-.8.5-1.6.5-2.5 0-.8-.2-1.7-.7-2.4-.5-.7-1.1-1.2-1.8-1.6-.8-.5-1.7-.8-2.6-1.1l-2.9-.9c-1-.3-2-.6-2.9-1.1-.9-.3-1.8-.8-2.6-1.4-.7-.5-1.4-1.2-1.8-2-.5-.9-.7-2-.7-3s.2-2 .7-2.9c.5-.9 1.1-1.8 1.9-2.5.9-.8 1.9-1.3 3-1.7 1.3-.5 2.6-.7 3.9-.6 1.6 0 3.2.2 4.7.7 1.4.5 2.6 1.3 3.7 2.3l-.4 1zm16.7 25.6c-1.7.1-3.3-.5-4.6-1.6-1.2-1.4-1.8-3.2-1.6-5v-19.6H928c-.2 0-.4 0-.5-.2-.1-.1-.2-.3-.2-.5v-1l4.9-.3.7-10.3c0-.2.1-.3.2-.5.1-.1.3-.2.5-.2h1.3v11h9.1v2h-9.1v19.5c0 .7.1 1.4.3 2 .2.5.5 1 .9 1.4.3.4.8.6 1.2.8.5.2 1.1.3 1.6.3.6 0 1.2-.1 1.8-.3.5-.2.9-.4 1.3-.7.3-.2.6-.4.9-.7.1-.2.3-.3.5-.3s.4.1.5.3l.7 1.2c-.8.8-1.7 1.5-2.8 1.9-1.1.6-2.3.8-3.5.8zm12.8-15.9v.6c0 1.9.2 3.8.8 5.7.4 1.5 1.1 2.9 2.1 4.1.9 1.1 2.1 1.9 3.3 2.5 1.4.6 2.9.9 4.4.8 1.3 0 2.5-.1 3.8-.5.9-.3 1.8-.6 2.7-1.1.6-.3 1.2-.7 1.7-1 .3-.2.6-.4.9-.5.2 0 .4.1.6.3l.8.9c-.5.6-1.1 1.2-1.8 1.6-.8.5-1.7 1-2.6 1.3-1 .4-2 .7-3 .9-1 .2-2.1.3-3.2.3-1.8 0-3.7-.3-5.4-1-1.6-.7-3-1.7-4.2-3-1.2-1.4-2.1-3-2.7-4.8-.7-2.1-1-4.3-.9-6.5 0-1.9.3-3.9.9-5.7.5-1.7 1.4-3.2 2.5-4.5 1.1-1.3 2.5-2.3 4.1-3 1.7-.7 3.6-1.1 5.5-1 1.5 0 3.1.3 4.5.8s2.6 1.4 3.6 2.4c1.1 1.1 1.9 2.5 2.4 3.9.6 1.7.9 3.5.9 5.4 0 .3 0 .6-.2.9-.1.2-.4.3-.6.2h-20.9zm19.1-1.8c0-1.4-.2-2.8-.6-4.2-.4-1.1-1-2.2-1.8-3.1-.8-.8-1.7-1.5-2.8-2-1.1-.5-2.4-.7-3.6-.7-1.4 0-2.7.2-4 .7-1.1.4-2.2 1.1-3 2-.9.9-1.6 2-2.1 3.1-.5 1.3-.9 2.7-1 4.1l18.9.1zm10 17.3V438h1.6c.4 0 .8.3.8.7h0l.3 4.2c1-1.5 2.3-2.8 3.8-3.9 1.4-1 3.1-1.5 4.8-1.5 1.9-.1 3.7.6 5 1.8 1.4 1.4 2.2 3.2 2.5 5.1.3-1.1.8-2.1 1.5-3.1.6-.8 1.3-1.6 2.2-2.2.8-.6 1.7-1 2.6-1.3 1-.3 1.9-.4 2.9-.4 1.3 0 2.6.2 3.9.7 1.1.5 2.1 1.2 2.9 2.1.8 1 1.4 2.2 1.8 3.4.5 1.5.7 3.1.6 4.6v18.4h-2.7v-18.4c.2-2.3-.5-4.6-1.8-6.4-1.3-1.5-3.2-2.4-5.3-2.2-1 0-2 .2-2.9.5-.9.4-1.7.9-2.4 1.6-.7.8-1.3 1.7-1.7 2.7-.4 1.2-.6 2.5-.6 3.7v18.4h-2.8v-18.3c.2-2.3-.4-4.5-1.6-6.4-1.1-1.5-2.9-2.3-4.8-2.2-1.6 0-3.1.5-4.3 1.4-1.4 1-2.6 2.3-3.6 3.9v21.8h-2.7z"/><path d="M1028.3 440.4h-2.6v7h-1v-7h-2.6v-.9h6.2v.9zm9.4-.9v7.9h-.9v-6.3l-2.7 4.9c-.1.1-.2.2-.4.2h-.2c-.2 0-.3-.1-.4-.2l-2.8-5v6.3h-.9v-7.9h1.1c.1 0 .1.1.1.2l2.7 4.8.1.3c0 .1.1.2.1.3 0-.1 0-.2.1-.3l.1-.3 2.7-4.8c0-.1.1-.1.1-.2h.2l1 .1z"/></svg>