<svg xmlns="http://www.w3.org/2000/svg" role="img" viewBox="-2.81 0.69 406.38 189.88"><title>Xcalar Data Platform (Workflows) logo</title><path fill-rule="evenodd" d="M243.103 68.966v60.344H253.448V8.621H243.103v60.345M24.012 73.04c18.861 21.543 19.072 16.579-1.699 40.089L4.97 132.759h6.63c6.229 0 7.501-1 21.022-16.532 13.834-15.891 14.508-16.408 17.377-13.362 1.642 1.743 17.875 20.432 36.073 41.532 31.605 36.643 33.363 38.362 39.236 38.362 7.438 0 11.286 5.345-32.895-45.69-18.881-21.81-35.377-40.885-36.657-42.388-2.027-2.38-.323-5.053 13.191-20.69l15.519-17.957-5.556-.569c-5.835-.598-9.363 2.388-25.707 21.762l-6.242 7.399-12.705-14.722C22.44 56.21 21.091 55.181 14.96 55.177l-6.591-.005L24.012 73.04m75.877-13.126c-40.671 20.623-14.179 80.152 29.789 66.939 13.396-4.026 16.613-6.861 12.698-11.187-3-3.315-3.101-3.315-8.482-.034-7.926 4.833-22.967 4.544-30.581-.587-30.746-20.72-4.665-63.131 29.337-47.705 7.519 3.41 7.708 3.413 10.929.192 9.77-9.77-26.854-16.156-43.69-7.618m77.749-2.823c-17.865 7.129-27.229 26.401-21.838 44.944 7.102 24.43 36.684 33.828 58.218 18.494l4.948-3.522v6.151c0 5.413.518 6.152 4.31 6.152h4.31V55.172h-4.31c-3.448 0-4.31.862-4.31 4.311 0 5.326-.557 5.325-11.069-.007-9.029-4.581-22.163-5.617-30.259-2.385m106.731 2.823c-34.101 17.288-21.158 68.017 17.355 68.017 9.686 0 18.16-2.959 24.569-8.579 2.806-2.46 3.017-2.203 3.017 3.657 0 5.572.499 6.301 4.311 6.301h4.31V55.172h-4.31c-3.449 0-4.311.862-4.311 4.311 0 5.371-1.235 5.374-10.6.021-10.443-5.971-22.028-5.832-34.341.41m69.079 32.327v37.069H363.447l.655-21.982c.877-29.433 6.826-39.285 25.792-42.713 5.342-.965 6.238-1.777 6.035-5.461-.293-5.306-11.359-4.684-21.331 1.199-7.854 4.635-10.805 4.397-10.805-.87 0-3.64-.804-4.311-5.172-4.311h-5.173v37.069M207.869 69.795c26.485 20.201.602 60.715-29.625 46.372-15.239-7.232-19.355-28.715-8.071-42.125 9.618-11.431 25.876-13.263 37.696-4.247m109.07-1.343c28.369 21.012 1.695 64.114-29.001 46.862-19.694-11.069-17.633-40.816 3.442-49.678 6.352-2.671 20.212-1.143 25.559 2.816"/></svg>