<svg xmlns="http://www.w3.org/2000/svg" role="img" viewBox="30.14 59.64 421.72 261.22"><title>Zepl (Dashboards and Charts) logo</title><path fill="#3071a9" d="M335.36161 67.92371c-37.79904-.14651-79.70008 11.66535-102.28125 25.59375-8.44064 5.20631-17.10168 11.03538-25.78125 17.1875 0 0-78.32109 60.30642-102.65625 90.65625-3.25932 4.06489-6.22686 8.44672-8.8125 13.0625-.17426.33135-.36018.66597-.53125 1-.24181.44442-.4844.89534-.71875 1.34375-.0555.1124-.10113.23107-.15625.34375-3.845 7.86016-6.77515 16.37197-8.21875 24.96875-.0121.0723-.0193.14639-.0312.21875-.0432.30199-.0852.60298-.125.90625-1.30816 9.96867-.76941 20.60537 3.3125 29.625 4.9621 10.96458 13.22167 19.14834 25.1875 25.875 11.53936 6.48691 32.65625 12 32.65625 12l-.34375.15625c17.59942 3.12158 35.83078 2.0733 53.625.34375 8.72527-.84807 17.45409-1.80839 26.1875-2.90625.006.00014.0253-.00014.0312 0 .0596.001.24904-.001.3125 0-.57556-2.93081-1.5052-8.54301-.375-8.84375 11.9624-3.18311 19.08411-5.10354 28.40625-8.34375 8.91375-3.09826 15.43712-5.92124 22.65625-9.90625 1.80388-.99575 3.2319-2.65532 5.125-3.46875 5.97713-2.56827 12.63213-3.17007 19.0625-4.15625 5.13763-.78792 10.33455-1.30429 15.53125-1.40625 3.37073-.0661 6.78368-.14006 10.09375.5 2.5353.49024 5.09966 1.20031 7.3125 2.53125 1.48012.89024 2.85252 2.09538 3.8125 3.53125.51216 1.09134.93571 2.24019 1.34375 3.375 18.89889-7.08135 38.0951-15.61969 52.6875-29.46875 21.58482-20.48528 38.73456-47.2581 47.21875-75.78125 4.60898-15.495 5.40926-32.90691 1.03125-48.46875-2.70663-9.62085-6.8793-15.81268-16.1875-25.25-19.04117-19.3053-46.78078-31.24429-73.71875-34.34375-4.98707-.57381-10.25639-.85407-15.65625-.875zm-128.0625 42.78125c-3.86694 2.74091-7.74622 5.54773-11.59375 8.40625l11.59375-8.40625zm81.53125 18.21875c12.24582-.0362 19.03125 1.84375 19.03125 1.84375s-20.14702 1.88019-31.34375 3.875c-8.86862 1.58003-23.13395 4.32673-34.25 8.09375-21.67503 7.34525-42.29425 17.61508-62.65625 28.0625-15.65067 8.03011-30.64712 17.30686-45.625 26.53125-10.2369 6.30457-30.21875 19.6875-30.21875 19.6875s17.02849-22.00445 62.3125-47.4375c12.948-7.27204 26.16228-14.09362 39.71875-20.15625 10.59321-4.73742 21.33402-9.25275 32.4375-12.625 8.43594-2.56209 17.14133-4.33678 25.84375-5.75 6.34044-1.02965 13.08066-1.67808 19.15625-1.96875 1.9676-.0941 3.84435-.15108 5.59375-.15625zm-155.34375 21c-4.01078.0236-7.45011 4.73122-9.5625 8.28125-2.70692 4.54913-3.90974 12.35592-4.46875 18.59375 8.69096-7.43321 17.36385-14.34789 23.375-19.03125-2.32248-3.90178-5.23188-7.27502-8.53125-7.78125-.27221-.0418-.54511-.0641-.8125-.0625zm175.09375 19.875s-37.81019 14.34794-56.59375 21.84375c-21.63823 8.63501-43.2082 17.4858-64.625 26.65625-14.98122 6.4148-29.87653 13.04508-44.6875 19.84375-13.61663 6.25043-40.625 19.25-40.625 19.25s22.99883-18.85478 65.65625-37.5c24.89394-10.88094 41.6801-20.41394 68.46875-29.15625 12.50865-4.08212 24.85385-8.67866 37.5-12.3125 11.51657-3.30926 34.90625-8.625 34.90625-8.625zm13.125 38.375s-5.30717 6.31971-17.15625 14.15625c-5.92457 3.91828-11.11912 8.02631-16.9375 11.625-7.53081 4.65783-15.26098 8.9914-23.21875 12.875-9.864 4.81389-20.10595 8.83787-30.3125 12.875-10.00493 3.95737-20.06788 7.80627-30.3125 11.09375-12.63989 4.05611-25.40243 7.80873-38.375 10.625-9.41293 2.04349-28.53125 4.53125-28.53125 4.53125s23.5908-7.99177 35.34375-12.125c12.4091-4.36398 24.17628-8.48209 37.125-13.375 13.38528-5.05787 22.95621-8.74309 34.34375-13.34375 9.31117-3.76179 18.68636-7.39808 27.78125-11.65625 6.956-3.25675 13.70697-6.95086 20.46875-10.59375 10.01976-5.39811 29.78125-16.6875 29.78125-16.6875zm27.46875 24.78125s-.31644 3.91995-10.28125 14.125c-4.02327 4.12026-11.11171 9.4374-15.625 12.21875-17.49169 10.77937-26.8125 13.53125-26.8125 13.53125s17.2683-11.29466 25.625-17.34375c4.92099-3.56212 9.77228-7.26516 14.4375-11.15625 4.35657-3.63364 12.65625-11.375 12.65625-11.375zM80.89286 270.29871c-5.87528 2.64292-12.95462 5.92162-17.59375 8.40625-8.60172 4.60691-25.52718 12.66567-24.96875 15.28125.8536 3.99813 20.01536-3.73507 30-5.71875 6.35259-1.26209 12.6695-2.5865 19-3.9375-2.55416-4.4666-4.77446-9.16952-6.4375-14.03125zm234.21875 6.40625c-2.54346.0163-5.26205.16532-8.5625.53125-10.11079 1.121-12.84772 2.02498-20.9375 4.65625-2.88213.93743-4.58295 2.44474-6.84375 3.6875-4.06264 2.23323-7.88923 4.92819-12.125 6.8125-6.08656 2.70765-12.56199 4.44358-18.9375 6.375-5.25705 1.5926-5.98423 1.90396-15.90625 4.28125-1.72225.41265-.1025 3.22615 1.4375 5.375 23.53934.47702 94.73733 1.61531 95.6875-2.34375l5.25-21.8125c.4678-.16716.9384-.33002 1.40625-.5-.1972-.74965-.45229-1.49989-.75-2-.86788-1.45793-2.13443-2.78104-3.65625-3.53125-2.55739-1.26071-5.59251-1.06119-8.4375-1.25-2.68815-.1784-5.08154-.2975-7.625-.28125zm12.875 5.875c2.82142.0469 5.10871.47639 5.09375 1.875-.0322 3.01076-6.50168 2.86285-9.46875 3.15625-19.13706 1.89235-25.84825 1.57046-38.78125 1.625-2.4847.0105-7.4375-.25-7.4375-.25s12.42713-2.94951 23.46875-4.28125c6.42009-.77433 12.68164-1.57478 18.84375-1.78125 2.11379-.0708 5.45983-.39061 8.28125-.34375zm-14.65625 12c2.30042-.044 4.60297.0279 6.875.34375 1.79675.24981 3.82399.3401 5.21875 1.5.62263.51777 1.3451 1.62663 1.09375 2.15625-.51067 1.07602-2.43391 1.12729-6.53125 1.40625-4.91282.33448-9.70383.73007-14.5625.875-12.04675.35934-36.15625-.0625-36.15625-.0625s7.51913-1.9971 11.34375-2.6875c8.53169-1.5401 17.15905-2.6589 25.8125-3.1875 2.28962-.13986 4.60583-.29974 6.90625-.34375z"/></svg>