<?xml version="1.0" encoding="UTF-8" standalone="no"?>
<!-- Created with Inkscape (http://www.inkscape.org/) -->

<svg
   xmlns:dc="http://purl.org/dc/elements/1.1/"
   xmlns:cc="http://creativecommons.org/ns#"
   xmlns:rdf="http://www.w3.org/1999/02/22-rdf-syntax-ns#"
   xmlns:svg="http://www.w3.org/2000/svg"
   xmlns="http://www.w3.org/2000/svg"
   xmlns:sodipodi="http://sodipodi.sourceforge.net/DTD/sodipodi-0.dtd"
   xmlns:inkscape="http://www.inkscape.org/namespaces/inkscape"
   width="111.70927mm"
   height="23.097227mm"
   viewBox="0 0 111.70927 23.097227"
   version="1.1"
   id="svg1861"
   inkscape:version="0.92.4 (unknown)"
   sodipodi:docname="odh_logo.svg">
  <defs
     id="defs1855" />
  <sodipodi:namedview
     id="base"
     pagecolor="#ffffff"
     bordercolor="#666666"
     borderopacity="1.0"
     inkscape:pageopacity="0.0"
     inkscape:pageshadow="2"
     inkscape:zoom="0.98994949"
     inkscape:cx="513.19301"
     inkscape:cy="272.21973"
     inkscape:document-units="mm"
     inkscape:current-layer="layer1"
     showgrid="false"
     inkscape:window-width="2560"
     inkscape:window-height="1376"
     inkscape:window-x="1920"
     inkscape:window-y="27"
     inkscape:window-maximized="1" />
  <metadata
     id="metadata1858">
    <rdf:RDF>
      <cc:Work
         rdf:about="">
        <dc:format>image/svg+xml</dc:format>
        <dc:type
           rdf:resource="http://purl.org/dc/dcmitype/StillImage" />
        <dc:title></dc:title>
      </cc:Work>
    </rdf:RDF>
  </metadata>
  <g
     inkscape:label="Layer 1"
     inkscape:groupmode="layer"
     id="layer1"
     transform="translate(307.58677,-197.76091)">
    <g
       style="display:inline"
       id="g3259"
       transform="translate(101.77337,75.867281)">
      <g
         id="g3168"
         transform="matrix(4.3155193,0,0,4.3155193,-742.34439,61.063341)">
        <path
           style="color:#000000;font-style:normal;font-variant:normal;font-weight:normal;font-stretch:normal;font-size:medium;line-height:normal;font-family:sans-serif;font-variant-ligatures:normal;font-variant-position:normal;font-variant-caps:normal;font-variant-numeric:normal;font-variant-alternates:normal;font-feature-settings:normal;text-indent:0;text-align:start;text-decoration:none;text-decoration-line:none;text-decoration-style:solid;text-decoration-color:#000000;letter-spacing:normal;word-spacing:normal;text-transform:none;writing-mode:lr-tb;direction:ltr;text-orientation:mixed;dominant-baseline:auto;baseline-shift:baseline;text-anchor:start;white-space:normal;shape-padding:0;clip-rule:nonzero;display:inline;overflow:visible;visibility:visible;opacity:1;isolation:auto;mix-blend-mode:normal;color-interpolation:sRGB;color-interpolation-filters:linearRGB;solid-color:#000000;solid-opacity:1;vector-effect:none;fill:#a586f3;fill-opacity:1;fill-rule:nonzero;stroke:none;stroke-width:35;stroke-linecap:round;stroke-linejoin:round;stroke-miterlimit:4;stroke-dasharray:none;stroke-dashoffset:0;stroke-opacity:1;color-rendering:auto;image-rendering:auto;shape-rendering:auto;text-rendering:auto;enable-background:accumulate"
           d="m 7808.8125,2097.1875 c -9.6898,0.1378 -17.423,8.1233 -17.25,17.8125 v 329.875 c -0.8781,10.2195 7.1804,19 17.4375,19 10.2571,0 19.0227,-8.7805 18.1446,-19 v -77.7324 l 0.4179,-6.1426 c 0,-55.1597 44.2153,-99.5625 99.375,-99.5625 55.1596,0 99.5625,44.4028 99.5625,99.5625 0.01,0.1837 0.015,0.3674 0.027,0.5508 -0.026,0.4409 -0.035,0.8826 -0.027,1.3242 v 110 c 0,9.6822 7.849,17.5312 17.5312,17.5312 9.6823,0 17.5313,-7.849 17.5313,-17.5312 v -110 c 0,-0.3245 -0.012,-0.6488 -0.031,-0.9727 0.018,-0.3004 0.029,-0.6013 0.031,-0.9023 1e-4,-74.075 -60.55,-134.4374 -134.625,-134.4375 -39.9177,1e-4 -75.8465,17.5354 -100.5,45.293 V 2115 c 0.1749,-9.8356 -7.7881,-17.8833 -17.625,-17.8125 z"
           transform="matrix(0.01041667,0,0,0.01041667,0,-7.75)"
           id="path3156"
           inkscape:connector-curvature="0"
           sodipodi:nodetypes="cccscccscccsssccccccc" />
        <path
           style="color:#000000;font-style:normal;font-variant:normal;font-weight:normal;font-stretch:normal;font-size:medium;line-height:normal;font-family:sans-serif;font-variant-ligatures:normal;font-variant-position:normal;font-variant-caps:normal;font-variant-numeric:normal;font-variant-alternates:normal;font-feature-settings:normal;text-indent:0;text-align:start;text-decoration:none;text-decoration-line:none;text-decoration-style:solid;text-decoration-color:#000000;letter-spacing:normal;word-spacing:normal;text-transform:none;writing-mode:lr-tb;direction:ltr;text-orientation:mixed;dominant-baseline:auto;baseline-shift:baseline;text-anchor:start;white-space:normal;shape-padding:0;clip-rule:nonzero;display:inline;overflow:visible;visibility:visible;opacity:1;isolation:auto;mix-blend-mode:normal;color-interpolation:sRGB;color-interpolation-filters:linearRGB;solid-color:#000000;solid-opacity:1;vector-effect:none;fill:#5ed3ee;fill-opacity:1;fill-rule:nonzero;stroke:none;stroke-width:35;stroke-linecap:round;stroke-linejoin:round;stroke-miterlimit:4;stroke-dasharray:none;stroke-dashoffset:0;stroke-opacity:1;color-rendering:auto;image-rendering:auto;shape-rendering:auto;text-rendering:auto;enable-background:accumulate"
           d="m 7765.8027,2098.123 c -0.038,5e-4 -0.077,0 -0.1152,0 -9.6898,0.1378 -17.423,8.1233 -17.25,17.8125 V 2361 c 0,41.9333 -26.0162,79.2671 -65.4375,93.5625 -39.4213,14.2954 -83.5594,2.3741 -110.4375,-29.8125 -26.878,-32.1865 -30.6579,-77.5719 -9.5625,-113.8125 21.0955,-36.2406 62.4262,-55.2897 103.6875,-47.8125 9.5173,1.7397 18.6463,-4.5547 20.4043,-14.0686 1.758,-9.514 -4.5187,-18.6551 -14.0293,-20.4314 -55.6354,-10.082 -111.8054,15.8219 -140.25,64.6875 -28.4446,48.8656 -23.3039,110.5381 12.9375,153.9375 36.2415,43.3993 95.908,59.4005 149.0625,40.125 44.7667,-16.2337 77.0286,-54.658 86.0977,-100.1562 0,0 1.9812,-4.7686 2.5898,-9.1563 0.6086,-4.3877 0,-17.0625 0,-17.0625 v -245.0625 c 0.1769,-9.865 -7.8313,-17.9263 -17.6973,-17.8145 z"
           transform="matrix(0.01041667,0,0,0.01041667,0,-7.75)"
           id="path3158"
           inkscape:connector-curvature="0"
           sodipodi:nodetypes="cccsssccscsccczccc" />
        <g
           id="g3166">
          <circle
             style="opacity:1;fill:none;fill-opacity:1;stroke:#c6ea70;stroke-width:0.36458334;stroke-miterlimit:4;stroke-dasharray:none;stroke-dashoffset:0;stroke-opacity:1"
             id="circle3160"
             cx="79.677254"
             cy="16.822931"
             r="0.64509356" />
          <path
             sodipodi:open="true"
             d="m 80.808656,18.234303 a 1.8088735,1.8088735 0 0 1 -2.309183,-0.03848 1.8088735,1.8088735 0 0 1 -0.389241,-2.276466 1.8088735,1.8088735 0 0 1 2.165211,-0.803532"
             sodipodi:end="5.0494266"
             sodipodi:start="0.89506385"
             sodipodi:ry="1.8088735"
             sodipodi:rx="1.8088735"
             sodipodi:cy="16.822931"
             sodipodi:cx="79.677261"
             sodipodi:type="arc"
             id="path3162"
             style="opacity:1;fill:none;fill-opacity:1;stroke:#dff3b1;stroke-width:0.36458334;stroke-linecap:round;stroke-linejoin:round;stroke-miterlimit:4;stroke-dasharray:none;stroke-dashoffset:0;stroke-opacity:1" />
          <path
             sodipodi:open="true"
             style="opacity:1;fill:none;fill-opacity:1;stroke:#f2fadf;stroke-width:0.36458337;stroke-linecap:round;stroke-linejoin:round;stroke-miterlimit:4;stroke-dasharray:none;stroke-dashoffset:0;stroke-opacity:1"
             id="path3164"
             sodipodi:type="arc"
             sodipodi:cx="79.797989"
             sodipodi:cy="16.823021"
             sodipodi:rx="2.455857"
             sodipodi:ry="2.4425189"
             sodipodi:start="0.17514985"
             sodipodi:end="4.4231027"
             d="m 82.216272,17.248644 a 2.455857,2.4425189 0 0 1 -2.468226,2.016391 2.455857,2.4425189 0 0 1 -2.383743,-2.114547 2.455857,2.4425189 0 0 1 1.733108,-2.668494" />
        </g>
      </g>
    </g>
    <g
       style="display:inline"
       transform="matrix(7.0573564,0,0,7.0573564,-1052.6261,44.606141)"
       id="g3180">
      <g
         aria-label="OPEN DATA HUB"
         style="font-style:normal;font-weight:normal;font-size:1.26598549px;line-height:0.79124087px;font-family:Sans;letter-spacing:0px;word-spacing:0px;fill:#4d5258;fill-opacity:1;stroke:none;stroke-width:0.00771748px;stroke-linecap:butt;stroke-linejoin:miter;stroke-opacity:1"
         id="text3174">
        <path
           d="m 111.31518,22.568715 c -0.27092,0 -0.47601,0.191164 -0.47601,0.449425 0,0.256995 0.20509,0.451957 0.47601,0.451957 0.27093,0 0.47602,-0.196228 0.47602,-0.451957 0,-0.256995 -0.20509,-0.449425 -0.47602,-0.449425 z m 0.003,0.174706 c 0.14812,0 0.26839,0.119003 0.26839,0.274719 0,0.155716 -0.12027,0.277251 -0.26839,0.277251 -0.14812,0 -0.27346,-0.121535 -0.27346,-0.277251 0,-0.155716 0.12407,-0.274719 0.27346,-0.274719 z"
           style="font-style:normal;font-variant:normal;font-weight:600;font-stretch:normal;font-family:Montserrat;-inkscape-font-specification:'Montserrat Semi-Bold';fill:#bbbbbb;stroke-width:0.00771748px"
           id="path81241"
           inkscape:connector-curvature="0" />
        <path
           d="m 112.29967,22.575045 h -0.376 v 0.88619 h 0.20002 v -0.253197 h 0.17598 c 0.22534,0 0.35447,-0.119003 0.35447,-0.325358 0,-0.196228 -0.12913,-0.307635 -0.35447,-0.307635 z m -0.0101,0.465883 h -0.16585 v -0.300039 h 0.16585 c 0.11141,0 0.1747,0.04937 0.1747,0.148121 0,0.101278 -0.0633,0.151918 -0.1747,0.151918 z"
           style="font-style:normal;font-variant:normal;font-weight:600;font-stretch:normal;font-family:Montserrat;-inkscape-font-specification:'Montserrat Semi-Bold';fill:#bbbbbb;stroke-width:0.00771748px"
           id="path81243"
           inkscape:connector-curvature="0" />
        <path
           d="m 112.78167,22.575045 v 0.88619 h 0.6887 v -0.165844 h -0.48867 v -0.196228 h 0.4279 v -0.165844 h -0.4279 v -0.19243 h 0.47474 v -0.165844 z"
           style="font-style:normal;font-variant:normal;font-weight:600;font-stretch:normal;font-family:Montserrat;-inkscape-font-specification:'Montserrat Semi-Bold';fill:#bbbbbb;stroke-width:0.00771748px"
           id="path81245"
           inkscape:connector-curvature="0" />
        <path
           d="m 113.62731,22.575045 v 0.88619 h 0.19116 v -0.568427 l 0.42917,0.568427 h 0.1823 v -0.88619 h -0.18989 v 0.569694 l -0.43044,-0.569694 z"
           style="font-style:normal;font-variant:normal;font-weight:600;font-stretch:normal;font-family:Montserrat;-inkscape-font-specification:'Montserrat Semi-Bold';fill:#bbbbbb;stroke-width:0.00771748px"
           id="path81247"
           inkscape:connector-curvature="0" />
        <path
           d="m 115.30391,22.575045 h -0.376 v 0.88619 h 0.3684 c 0.27979,0 0.47348,-0.182302 0.47348,-0.443095 0,-0.262059 -0.19116,-0.443095 -0.46588,-0.443095 z m 0.005,0.717814 h -0.18103 v -0.549438 h 0.17217 c 0.15192,0 0.26586,0.112673 0.26586,0.275985 0,0.162046 -0.10888,0.273453 -0.257,0.273453 z"
           style="font-style:normal;font-variant:normal;font-weight:600;font-stretch:normal;font-family:Montserrat;-inkscape-font-specification:'Montserrat Semi-Bold';fill:#4d5258;stroke-width:0.00771748px"
           id="path81249"
           inkscape:connector-curvature="0" />
        <path
           d="m 116.53192,23.461235 h 0.21395 l -0.37853,-0.88619 h -0.20636 l -0.38486,0.88619 h 0.20636 l 0.0696,-0.172174 h 0.41018 z m -0.41398,-0.332954 0.14052,-0.344348 0.13926,0.344348 z"
           style="font-style:normal;font-variant:normal;font-weight:600;font-stretch:normal;font-family:Montserrat;-inkscape-font-specification:'Montserrat Semi-Bold';fill:#4d5258;stroke-width:0.00771748px"
           id="path81251"
           inkscape:connector-curvature="0" />
        <path
           d="m 116.66041,22.575045 v 0.169642 h 0.26966 v 0.716548 h 0.20002 v -0.716548 h 0.27092 v -0.169642 z"
           style="font-style:normal;font-variant:normal;font-weight:600;font-stretch:normal;font-family:Montserrat;-inkscape-font-specification:'Montserrat Semi-Bold';fill:#4d5258;stroke-width:0.00771748px"
           id="path81253"
           inkscape:connector-curvature="0" />
        <path
           d="m 118.07236,23.461235 h 0.21395 l -0.37853,-0.88619 h -0.20635 l -0.38486,0.88619 h 0.20636 l 0.0696,-0.172174 h 0.41018 z m -0.41397,-0.332954 0.14052,-0.344348 0.13926,0.344348 z"
           style="font-style:normal;font-variant:normal;font-weight:600;font-stretch:normal;font-family:Montserrat;-inkscape-font-specification:'Montserrat Semi-Bold';fill:#4d5258;stroke-width:0.00771748px"
           id="path81255"
           inkscape:connector-curvature="0" />
        <path
           d="m 118.68383,22.575045 v 0.88619 h 0.20003 v -0.349412 h 0.40132 v 0.349412 h 0.20002 v -0.88619 h -0.20002 v 0.369668 h -0.40132 v -0.369668 z"
           style="font-style:normal;font-variant:normal;font-weight:600;font-stretch:normal;font-family:Montserrat;-inkscape-font-specification:'Montserrat Semi-Bold';fill:#4d5258;stroke-width:0.00771748px"
           id="path81257"
           inkscape:connector-curvature="0" />
        <path
           d="m 119.86387,23.090301 v -0.515256 h -0.20003 v 0.515256 c 0,0.234208 0.15699,0.379796 0.40259,0.379796 0.24433,0 0.39752,-0.145588 0.39752,-0.379796 v -0.515256 h -0.20003 v 0.515256 c 0,0.127865 -0.0785,0.20509 -0.19749,0.20509 -0.119,0 -0.20256,-0.07722 -0.20256,-0.20509 z"
           style="font-style:normal;font-variant:normal;font-weight:600;font-stretch:normal;font-family:Montserrat;-inkscape-font-specification:'Montserrat Semi-Bold';fill:#4d5258;stroke-width:0.00771748px"
           id="path81259"
           inkscape:connector-curvature="0" />
        <path
           d="m 121.0498,22.575045 h -0.40765 v 0.88619 h 0.42158 c 0.20635,0 0.33422,-0.09368 0.33422,-0.245601 0,-0.116471 -0.0709,-0.202558 -0.18484,-0.22408 0.0949,-0.02405 0.15319,-0.09875 0.15319,-0.194961 0,-0.136727 -0.12154,-0.221548 -0.3165,-0.221548 z m -0.0101,0.357008 h -0.19749 v -0.193696 h 0.19749 c 0.0747,0 0.12154,0.03418 0.12154,0.09495 0,0.06203 -0.0468,0.09875 -0.12154,0.09875 z m 0,0.36587 h -0.19749 v -0.21142 h 0.19749 c 0.0949,0 0.15192,0.03925 0.15192,0.103811 0,0.06836 -0.057,0.107609 -0.15192,0.107609 z"
           style="font-style:normal;font-variant:normal;font-weight:600;font-stretch:normal;font-family:Montserrat;-inkscape-font-specification:'Montserrat Semi-Bold';fill:#4d5258;stroke-width:0.00771748px"
           id="path81261"
           inkscape:connector-curvature="0" />
      </g>
      <g
         aria-label="AI Platform powered by Open Source"
         style="font-style:normal;font-weight:normal;font-size:2.24648929px;line-height:1.40405583px;font-family:Sans;letter-spacing:0px;word-spacing:0px;fill:#58595b;fill-opacity:1;stroke:none;stroke-width:0.01041669px;stroke-linecap:butt;stroke-linejoin:miter;stroke-opacity:1"
         id="text3178">
        <path
           d="m 111.23821,24.15027 h 0.0381 l -0.13716,-0.306759 h -0.0364 l -0.13761,0.306759 h 0.0373 l 0.0342,-0.07844 h 0.16697 z m -0.18712,-0.110871 0.0688,-0.157763 0.0697,0.157763 z"
           style="font-style:normal;font-variant:normal;font-weight:300;font-stretch:normal;font-size:0.43822837px;font-family:Montserrat;-inkscape-font-specification:'Montserrat Light';fill:#58595b;stroke-width:0.01041669px"
           id="path81264"
           inkscape:connector-curvature="0" />
        <path
           d="m 111.32487,23.843511 v 0.306759 h 0.0351 v -0.306759 z"
           style="font-style:normal;font-variant:normal;font-weight:300;font-stretch:normal;font-size:0.43822837px;font-family:Montserrat;-inkscape-font-specification:'Montserrat Light';fill:#58595b;stroke-width:0.01041669px"
           id="path81266"
           inkscape:connector-curvature="0" />
        <path
           d="m 111.68834,23.843511 h -0.11526 v 0.306759 h 0.0351 v -0.09729 h 0.0802 c 0.0758,0 0.11963,-0.039 0.11963,-0.10649 0,-0.0653 -0.0438,-0.102983 -0.11963,-0.102983 z m -10e-4,0.177044 h -0.0789 V 23.87594 h 0.0789 c 0.0552,0 0.0872,0.02454 0.0872,0.07143 0,0.0482 -0.032,0.07318 -0.0872,0.07318 z"
           style="font-style:normal;font-variant:normal;font-weight:300;font-stretch:normal;font-size:0.43822837px;font-family:Montserrat;-inkscape-font-specification:'Montserrat Light';fill:#58595b;stroke-width:0.01041669px"
           id="path81268"
           inkscape:connector-curvature="0" />
        <path
           d="m 111.86403,23.825105 v 0.325165 h 0.0342 v -0.325165 z"
           style="font-style:normal;font-variant:normal;font-weight:300;font-stretch:normal;font-size:0.43822837px;font-family:Montserrat;-inkscape-font-specification:'Montserrat Light';fill:#58595b;stroke-width:0.01041669px"
           id="path81270"
           inkscape:connector-curvature="0" />
        <path
           d="m 112.15999,24.15027 -4.4e-4,-0.152503 c -4.4e-4,-0.04908 -0.032,-0.07932 -0.089,-0.07932 -0.0394,0 -0.0644,0.01139 -0.0942,0.03111 l 0.0145,0.0241 c 0.0241,-0.01709 0.0478,-0.02673 0.0732,-0.02673 0.0408,0 0.0618,0.0206 0.0618,0.05434 v 0.01446 h -0.0758 c -0.0543,4.39e-4 -0.0863,0.02586 -0.0863,0.06617 0,0.03944 0.0307,0.06968 0.0784,0.06968 0.0368,0 0.0662,-0.01227 0.0846,-0.03725 v 0.03593 z m -0.11131,-0.02717 c -0.0324,0 -0.053,-0.01709 -0.053,-0.04251 0,-0.02585 0.0202,-0.03769 0.0587,-0.03769 h 0.0719 v 0.02805 c -0.009,0.03287 -0.0386,0.05215 -0.0776,0.05215 z"
           style="font-style:normal;font-variant:normal;font-weight:300;font-stretch:normal;font-size:0.43822837px;font-family:Montserrat;-inkscape-font-specification:'Montserrat Light';fill:#58595b;stroke-width:0.01041669px"
           id="path81272"
           inkscape:connector-curvature="0" />
        <path
           d="m 112.34543,24.108201 c -0.0127,0.0074 -0.025,0.01139 -0.0368,0.01183 -0.0197,0 -0.0307,-0.01139 -0.0307,-0.03944 v -0.127086 h 0.0732 v -0.02673 h -0.0732 v -0.06048 h -0.0337 v 0.06048 h -0.0333 v 0.02673 h 0.0333 v 0.132783 c 0,0.04558 0.025,0.06573 0.0587,0.0653 0.0184,0 0.0359,-0.0061 0.0521,-0.01709 z"
           style="font-style:normal;font-variant:normal;font-weight:300;font-stretch:normal;font-size:0.43822837px;font-family:Montserrat;-inkscape-font-specification:'Montserrat Light';fill:#58595b;stroke-width:0.01041669px"
           id="path81274"
           inkscape:connector-curvature="0" />
        <path
           d="m 112.48857,23.854466 c 0.0118,0 0.0245,0.0044 0.0351,0.01183 l 0.014,-0.02629 c -0.014,-0.01052 -0.032,-0.01622 -0.0495,-0.01622 -0.0386,-4.38e-4 -0.0741,0.02717 -0.0741,0.07713 v 0.02586 h -0.0298 v 0.02673 h 0.0298 v 0.196764 h 0.0337 v -0.196764 h 0.0662 v -0.02673 h -0.0662 v -0.03024 c 0,-0.02717 0.0184,-0.04251 0.0408,-0.04207 z"
           style="font-style:normal;font-variant:normal;font-weight:300;font-stretch:normal;font-size:0.43822837px;font-family:Montserrat;-inkscape-font-specification:'Montserrat Light';fill:#58595b;stroke-width:0.01041669px"
           id="path81276"
           inkscape:connector-curvature="0" />
        <path
           d="m 112.63864,23.918448 c -0.0684,0 -0.117,0.04777 -0.117,0.11613 0,0.06924 0.0486,0.117007 0.117,0.117007 0.0684,0 0.11701,-0.04777 0.11701,-0.117007 0,-0.06836 -0.0486,-0.11613 -0.11701,-0.11613 z m 0,0.03024 c 0.0482,0 0.0828,0.0355 0.0828,0.08633 0,0.05171 -0.0346,0.08677 -0.0828,0.08677 -0.0482,0 -0.0828,-0.03506 -0.0828,-0.08677 0,-0.05083 0.0346,-0.08633 0.0828,-0.08633 z"
           style="font-style:normal;font-variant:normal;font-weight:300;font-stretch:normal;font-size:0.43822837px;font-family:Montserrat;-inkscape-font-specification:'Montserrat Light';fill:#58595b;stroke-width:0.01041669px"
           id="path81278"
           inkscape:connector-curvature="0" />
        <path
           d="m 112.84951,23.971035 v -0.05127 h -0.0342 v 0.230508 h 0.0342 V 24.02757 c 0.004,-0.04645 0.0342,-0.07669 0.0828,-0.07581 v -0.0333 c -0.039,4.38e-4 -0.0675,0.01884 -0.0828,0.05259 z"
           style="font-style:normal;font-variant:normal;font-weight:300;font-stretch:normal;font-size:0.43822837px;font-family:Montserrat;-inkscape-font-specification:'Montserrat Light';fill:#58595b;stroke-width:0.01041669px"
           id="path81280"
           inkscape:connector-curvature="0" />
        <path
           d="m 113.27376,23.918448 c -0.0443,4.38e-4 -0.0767,0.01972 -0.0911,0.06004 -0.01,-0.03813 -0.0394,-0.06004 -0.0828,-0.06004 -0.0416,4.38e-4 -0.0727,0.01753 -0.0881,0.05346 v -0.05215 h -0.0337 v 0.230508 h 0.0337 v -0.113501 c 0,-0.04996 0.0285,-0.08458 0.0758,-0.08589 0.0403,0 0.064,0.02454 0.064,0.06617 v 0.133221 h 0.0346 v -0.113501 c 0,-0.04996 0.0276,-0.08458 0.0754,-0.08589 0.0399,0 0.064,0.02454 0.064,0.06617 v 0.133221 h 0.0342 V 24.00828 c 0,-0.05609 -0.032,-0.08984 -0.0859,-0.08984 z"
           style="font-style:normal;font-variant:normal;font-weight:300;font-stretch:normal;font-size:0.43822837px;font-family:Montserrat;-inkscape-font-specification:'Montserrat Light';fill:#58595b;stroke-width:0.01041669px"
           id="path81282"
           inkscape:connector-curvature="0" />
        <path
           d="m 113.68103,23.918448 c -0.0403,0 -0.0719,0.01884 -0.089,0.05083 v -0.04952 h -0.0342 v 0.315525 h 0.0342 v -0.134536 c 0.0171,0.03199 0.0486,0.05083 0.0898,0.05083 0.0653,0 0.10999,-0.04777 0.10999,-0.11613 0,-0.0688 -0.0456,-0.117007 -0.11087,-0.117007 z m -0.006,0.202899 c -0.0486,0 -0.0828,-0.03593 -0.0828,-0.08677 0,-0.0504 0.0342,-0.08677 0.0828,-0.08677 0.0482,0 0.0824,0.03681 0.0824,0.08677 0,0.0504 -0.0342,0.08677 -0.0824,0.08677 z"
           style="font-style:normal;font-variant:normal;font-weight:300;font-stretch:normal;font-size:0.43822837px;font-family:Montserrat;-inkscape-font-specification:'Montserrat Light';fill:#58595b;stroke-width:0.01041669px"
           id="path81284"
           inkscape:connector-curvature="0" />
        <path
           d="m 113.94563,23.918448 c -0.0684,0 -0.11701,0.04777 -0.11701,0.11613 0,0.06924 0.0486,0.117007 0.11701,0.117007 0.0684,0 0.117,-0.04777 0.117,-0.117007 0,-0.06836 -0.0486,-0.11613 -0.117,-0.11613 z m 0,0.03024 c 0.0482,0 0.0828,0.0355 0.0828,0.08633 0,0.05171 -0.0346,0.08677 -0.0828,0.08677 -0.0482,0 -0.0828,-0.03506 -0.0828,-0.08677 0,-0.05083 0.0346,-0.08633 0.0828,-0.08633 z"
           style="font-style:normal;font-variant:normal;font-weight:300;font-stretch:normal;font-size:0.43822837px;font-family:Montserrat;-inkscape-font-specification:'Montserrat Light';fill:#58595b;stroke-width:0.01041669px"
           id="path81286"
           inkscape:connector-curvature="0" />
        <path
           d="m 114.07473,23.919762 0.0863,0.230508 h 0.0355 l 0.0675,-0.188876 0.0679,0.188876 h 0.0355 l 0.0855,-0.230508 h -0.0355 l -0.0675,0.195888 -0.0679,-0.195888 h -0.0359 l -0.0671,0.195888 -0.0684,-0.195888 z"
           style="font-style:normal;font-variant:normal;font-weight:300;font-stretch:normal;font-size:0.43822837px;font-family:Montserrat;-inkscape-font-specification:'Montserrat Light';fill:#58595b;stroke-width:0.01041669px"
           id="path81288"
           inkscape:connector-curvature="0" />
        <path
           d="m 114.57637,23.918448 c -0.067,4.38e-4 -0.11437,0.04777 -0.11437,0.116568 0,0.0688 0.0469,0.116569 0.11481,0.116569 0.0386,0 0.071,-0.01402 0.0929,-0.03813 l -0.0189,-0.01972 c -0.018,0.01884 -0.0429,0.02936 -0.0714,0.02936 -0.0451,0 -0.078,-0.0298 -0.0837,-0.07538 h 0.18844 c 0.004,-0.07801 -0.0333,-0.129277 -0.10781,-0.129277 z m -0.0806,0.102107 c 0.005,-0.0447 0.0364,-0.07362 0.0806,-0.07362 0.0451,0 0.0749,0.02892 0.0771,0.07362 z"
           style="font-style:normal;font-variant:normal;font-weight:300;font-stretch:normal;font-size:0.43822837px;font-family:Montserrat;-inkscape-font-specification:'Montserrat Light';fill:#58595b;stroke-width:0.01041669px"
           id="path81290"
           inkscape:connector-curvature="0" />
        <path
           d="m 114.77703,23.971035 v -0.05127 h -0.0342 v 0.230508 h 0.0342 V 24.02757 c 0.004,-0.04645 0.0342,-0.07669 0.0828,-0.07581 v -0.0333 c -0.039,4.38e-4 -0.0675,0.01884 -0.0828,0.05259 z"
           style="font-style:normal;font-variant:normal;font-weight:300;font-stretch:normal;font-size:0.43822837px;font-family:Montserrat;-inkscape-font-specification:'Montserrat Light';fill:#58595b;stroke-width:0.01041669px"
           id="path81292"
           inkscape:connector-curvature="0" />
        <path
           d="m 114.99663,23.918448 c -0.067,4.38e-4 -0.11438,0.04777 -0.11438,0.116568 0,0.0688 0.0469,0.116569 0.11482,0.116569 0.0386,0 0.071,-0.01402 0.0929,-0.03813 l -0.0188,-0.01972 c -0.018,0.01884 -0.0429,0.02936 -0.0714,0.02936 -0.0451,0 -0.078,-0.0298 -0.0837,-0.07538 h 0.18844 c 0.004,-0.07801 -0.0333,-0.129277 -0.1078,-0.129277 z m -0.0806,0.102107 c 0.005,-0.0447 0.0364,-0.07362 0.0806,-0.07362 0.0451,0 0.0749,0.02892 0.0771,0.07362 z"
           style="font-style:normal;font-variant:normal;font-weight:300;font-stretch:normal;font-size:0.43822837px;font-family:Montserrat;-inkscape-font-specification:'Montserrat Light';fill:#58595b;stroke-width:0.01041669px"
           id="path81294"
           inkscape:connector-curvature="0" />
        <path
           d="m 115.34103,23.825105 v 0.144615 c -0.0171,-0.03287 -0.0491,-0.05171 -0.0903,-0.05171 -0.0653,0 -0.11087,0.04777 -0.11087,0.116569 0,0.0688 0.0456,0.117445 0.11131,0.117445 0.0412,0 0.0727,-0.01884 0.0898,-0.05127 v 0.04952 h 0.0342 v -0.325165 z m -0.0833,0.297557 c -0.0491,0 -0.0837,-0.03637 -0.0837,-0.08721 0,-0.05083 0.0346,-0.08765 0.0837,-0.08765 0.0486,0 0.0833,0.03681 0.0833,0.08765 0,0.05083 -0.0346,0.08721 -0.0833,0.08721 z"
           style="font-style:normal;font-variant:normal;font-weight:300;font-stretch:normal;font-size:0.43822837px;font-family:Montserrat;-inkscape-font-specification:'Montserrat Light';fill:#58595b;stroke-width:0.01041669px"
           id="path81296"
           inkscape:connector-curvature="0" />
        <path
           d="m 115.70613,23.918448 c -0.0403,0 -0.0719,0.01884 -0.089,0.05083 v -0.144177 h -0.0342 v 0.325165 h 0.0342 v -0.04952 c 0.0171,0.03199 0.0486,0.05083 0.0898,0.05083 0.0653,0 0.11,-0.04777 0.11,-0.11613 0,-0.0688 -0.0456,-0.117007 -0.11087,-0.117007 z m -0.006,0.202899 c -0.0486,0 -0.0828,-0.03593 -0.0828,-0.08677 0,-0.0504 0.0342,-0.08677 0.0828,-0.08677 0.0482,0 0.0824,0.03681 0.0824,0.08677 0,0.0504 -0.0342,0.08677 -0.0824,0.08677 z"
           style="font-style:normal;font-variant:normal;font-weight:300;font-stretch:normal;font-size:0.43822837px;font-family:Montserrat;-inkscape-font-specification:'Montserrat Light';fill:#58595b;stroke-width:0.01041669px"
           id="path81298"
           inkscape:connector-curvature="0" />
        <path
           d="m 115.94286,24.183138 0.10605,-0.263376 h -0.0351 l -0.0732,0.191944 -0.0767,-0.191944 h -0.0359 l 0.0955,0.228756 -0.01,0.02191 c -0.009,0.02191 -0.0241,0.03331 -0.0421,0.03331 -0.0114,0 -0.0219,-0.0035 -0.0324,-0.01095 l -0.0145,0.02717 c 0.014,0.01139 0.0294,0.01665 0.0487,0.01665 0.0307,0 0.0548,-0.01841 0.0692,-0.05346 z"
           style="font-style:normal;font-variant:normal;font-weight:300;font-stretch:normal;font-size:0.43822837px;font-family:Montserrat;-inkscape-font-specification:'Montserrat Light';fill:#58595b;stroke-width:0.01041669px"
           id="path81300"
           inkscape:connector-curvature="0" />
        <path
           d="m 116.34576,23.842634 c -0.0898,0 -0.16083,0.06793 -0.16083,0.154257 0,0.08633 0.071,0.154694 0.16083,0.154694 0.0894,0 0.16039,-0.06836 0.16039,-0.154694 0,-0.08633 -0.071,-0.154257 -0.16039,-0.154257 z m 0,0.03243 c 0.0684,0 0.12446,0.0539 0.12446,0.121828 0,0.06792 -0.0561,0.122703 -0.12446,0.122703 -0.0684,0 -0.12533,-0.05478 -0.12533,-0.122703 0,-0.06793 0.057,-0.121828 0.12533,-0.121828 z"
           style="font-style:normal;font-variant:normal;font-weight:300;font-stretch:normal;font-size:0.43822837px;font-family:Montserrat;-inkscape-font-specification:'Montserrat Light';fill:#58595b;stroke-width:0.01041669px"
           id="path81302"
           inkscape:connector-curvature="0" />
        <path
           d="m 116.69043,23.918448 c -0.0403,0 -0.0719,0.01884 -0.089,0.05083 v -0.04952 h -0.0342 v 0.315525 h 0.0342 v -0.134536 c 0.0171,0.03199 0.0486,0.05083 0.0898,0.05083 0.0653,0 0.11,-0.04777 0.11,-0.11613 0,-0.0688 -0.0456,-0.117007 -0.11087,-0.117007 z m -0.006,0.202899 c -0.0486,0 -0.0828,-0.03593 -0.0828,-0.08677 0,-0.0504 0.0342,-0.08677 0.0828,-0.08677 0.0482,0 0.0824,0.03681 0.0824,0.08677 0,0.0504 -0.0342,0.08677 -0.0824,0.08677 z"
           style="font-style:normal;font-variant:normal;font-weight:300;font-stretch:normal;font-size:0.43822837px;font-family:Montserrat;-inkscape-font-specification:'Montserrat Light';fill:#58595b;stroke-width:0.01041669px"
           id="path81304"
           inkscape:connector-curvature="0" />
        <path
           d="m 116.95239,23.918448 c -0.067,4.38e-4 -0.11438,0.04777 -0.11438,0.116568 0,0.0688 0.0469,0.116569 0.11482,0.116569 0.0386,0 0.071,-0.01402 0.0929,-0.03813 l -0.0188,-0.01972 c -0.018,0.01884 -0.0429,0.02936 -0.0714,0.02936 -0.0451,0 -0.078,-0.0298 -0.0837,-0.07538 h 0.18844 c 0.004,-0.07801 -0.0333,-0.129277 -0.10781,-0.129277 z m -0.0806,0.102107 c 0.005,-0.0447 0.0364,-0.07362 0.0806,-0.07362 0.0451,0 0.0749,0.02892 0.0771,0.07362 z"
           style="font-style:normal;font-variant:normal;font-weight:300;font-stretch:normal;font-size:0.43822837px;font-family:Montserrat;-inkscape-font-specification:'Montserrat Light';fill:#58595b;stroke-width:0.01041669px"
           id="path81306"
           inkscape:connector-curvature="0" />
        <path
           d="m 117.24245,23.918448 c -0.0421,4.38e-4 -0.0732,0.01709 -0.0894,0.05215 v -0.05084 h -0.0342 v 0.230508 h 0.0342 v -0.12358 c 0.004,-0.0447 0.032,-0.07494 0.0776,-0.07537 0.0408,0 0.0653,0.02454 0.0653,0.06573 v 0.133221 h 0.0342 v -0.141986 c 0,-0.05609 -0.0324,-0.08984 -0.0876,-0.08984 z"
           style="font-style:normal;font-variant:normal;font-weight:300;font-stretch:normal;font-size:0.43822837px;font-family:Montserrat;-inkscape-font-specification:'Montserrat Light';fill:#58595b;stroke-width:0.01041669px"
           id="path81308"
           inkscape:connector-curvature="0" />
        <path
           d="m 117.70465,23.901795 0.0149,-0.03111 c -0.0254,-0.01709 -0.0618,-0.02848 -0.0973,-0.02848 -0.0635,0 -0.10605,0.03068 -0.10605,0.07888 0,0.109995 0.17266,0.06661 0.17222,0.148559 0,0.0298 -0.0276,0.04777 -0.0719,0.04777 -0.0346,0 -0.0736,-0.01578 -0.10211,-0.04295 l -0.0158,0.03024 c 0.0289,0.02761 0.0727,0.04689 0.11744,0.04689 0.0657,0 0.11087,-0.03287 0.11087,-0.0837 4.4e-4,-0.11131 -0.17222,-0.06968 -0.17222,-0.149436 0,-0.02629 0.0259,-0.04207 0.0653,-0.04207 0.0245,0 0.057,0.0075 0.0846,0.02542 z"
           style="font-style:normal;font-variant:normal;font-weight:300;font-stretch:normal;font-size:0.43822837px;font-family:Montserrat;-inkscape-font-specification:'Montserrat Light';fill:#58595b;stroke-width:0.01041669px"
           id="path81310"
           inkscape:connector-curvature="0" />
        <path
           d="m 117.88797,23.918448 c -0.0684,0 -0.11701,0.04777 -0.11701,0.11613 0,0.06924 0.0486,0.117007 0.11701,0.117007 0.0684,0 0.11701,-0.04777 0.11701,-0.117007 0,-0.06836 -0.0487,-0.11613 -0.11701,-0.11613 z m 0,0.03024 c 0.0482,0 0.0828,0.0355 0.0828,0.08633 0,0.05171 -0.0346,0.08677 -0.0828,0.08677 -0.0482,0 -0.0828,-0.03506 -0.0828,-0.08677 0,-0.05083 0.0346,-0.08633 0.0828,-0.08633 z"
           style="font-style:normal;font-variant:normal;font-weight:300;font-stretch:normal;font-size:0.43822837px;font-family:Montserrat;-inkscape-font-specification:'Montserrat Light';fill:#58595b;stroke-width:0.01041669px"
           id="path81312"
           inkscape:connector-curvature="0" />
        <path
           d="m 118.23075,23.919762 v 0.113063 c 0,0.04996 -0.0281,0.08502 -0.0758,0.08589 -0.0399,0 -0.064,-0.02454 -0.064,-0.06573 v -0.133222 h -0.0342 v 0.141986 c 0,0.05565 0.0324,0.08984 0.0863,0.08984 0.0416,-4.38e-4 0.0723,-0.01753 0.0876,-0.05346 v 0.05215 h 0.0342 v -0.230508 z"
           style="font-style:normal;font-variant:normal;font-weight:300;font-stretch:normal;font-size:0.43822837px;font-family:Montserrat;-inkscape-font-specification:'Montserrat Light';fill:#58595b;stroke-width:0.01041669px"
           id="path81314"
           inkscape:connector-curvature="0" />
        <path
           d="m 118.38215,23.971035 v -0.05127 h -0.0342 v 0.230508 h 0.0342 V 24.02757 c 0.004,-0.04645 0.0342,-0.07669 0.0828,-0.07581 v -0.0333 c -0.039,4.38e-4 -0.0675,0.01884 -0.0828,0.05259 z"
           style="font-style:normal;font-variant:normal;font-weight:300;font-stretch:normal;font-size:0.43822837px;font-family:Montserrat;-inkscape-font-specification:'Montserrat Light';fill:#58595b;stroke-width:0.01041669px"
           id="path81316"
           inkscape:connector-curvature="0" />
        <path
           d="m 118.67186,23.976294 0.0188,-0.02366 c -0.021,-0.02147 -0.0517,-0.03418 -0.089,-0.03418 -0.0666,0 -0.11438,0.0482 -0.11438,0.116568 0,0.0688 0.0473,0.116569 0.11438,0.116569 0.0399,0 0.0719,-0.0149 0.0925,-0.03988 l -0.0197,-0.02016 c -0.0162,0.01928 -0.0412,0.0298 -0.0714,0.0298 -0.0478,0 -0.0819,-0.03506 -0.0819,-0.08633 0,-0.05083 0.0342,-0.08589 0.0819,-0.08589 0.0281,0 0.0513,0.01008 0.0688,0.02717 z"
           style="font-style:normal;font-variant:normal;font-weight:300;font-stretch:normal;font-size:0.43822837px;font-family:Montserrat;-inkscape-font-specification:'Montserrat Light';fill:#58595b;stroke-width:0.01041669px"
           id="path81318"
           inkscape:connector-curvature="0" />
        <path
           d="m 118.83626,23.918448 c -0.067,4.38e-4 -0.11438,0.04777 -0.11438,0.116568 0,0.0688 0.0469,0.116569 0.11482,0.116569 0.0386,0 0.071,-0.01402 0.0929,-0.03813 l -0.0188,-0.01972 c -0.018,0.01884 -0.0429,0.02936 -0.0714,0.02936 -0.0451,0 -0.078,-0.0298 -0.0837,-0.07538 h 0.18843 c 0.004,-0.07801 -0.0333,-0.129277 -0.1078,-0.129277 z m -0.0806,0.102107 c 0.005,-0.0447 0.0364,-0.07362 0.0806,-0.07362 0.0451,0 0.0749,0.02892 0.0771,0.07362 z"
           style="font-style:normal;font-variant:normal;font-weight:300;font-stretch:normal;font-size:0.43822837px;font-family:Montserrat;-inkscape-font-specification:'Montserrat Light';fill:#58595b;stroke-width:0.01041669px"
           id="path81320"
           inkscape:connector-curvature="0" />
      </g>
    </g>
  </g>
</svg>
